G04 (created by PCBNEW (2013-07-07 BZR 4022)-stable) date 3/22/2014 2:57:10 AM*
%MOIN*%
G04 Gerber Fmt 3.4, Leading zero omitted, Abs format*
%FSLAX34Y34*%
G01*
G70*
G90*
G04 APERTURE LIST*
%ADD10C,0.006*%
%ADD11R,0.035X0.055*%
%ADD12C,0.075*%
%ADD13R,0.012X0.02*%
%ADD14R,0.08X0.06*%
%ADD15R,0.06X0.06*%
%ADD16C,0.06*%
%ADD17R,0.0787402X0.0787402*%
%ADD18C,0.0787402*%
%ADD19R,0.036X0.036*%
%ADD20R,0.15X0.055*%
%ADD21R,0.055X0.035*%
%ADD22R,0.055X0.15*%
%ADD23R,0.11X0.07*%
%ADD24R,0.0255906X0.0531496*%
%ADD25C,0.0984252*%
%ADD26C,0.16*%
%ADD27R,0.2X0.1*%
%ADD28R,0.1X0.2*%
%ADD29R,0.05X0.1*%
%ADD30R,0.1X0.05*%
%ADD31C,0.07*%
%ADD32R,0.07X0.07*%
%ADD33C,0.0590551*%
%ADD34R,0.0787402X0.0984252*%
%ADD35C,0.0472441*%
%ADD36C,0.11811*%
%ADD37C,0.08*%
%ADD38C,0.1*%
%ADD39C,0.046*%
%ADD40C,0.035*%
%ADD41C,0.02*%
%ADD42C,0.036*%
%ADD43C,0.024*%
%ADD44C,0.01*%
%ADD45C,0.15*%
G04 APERTURE END LIST*
G54D10*
G54D11*
X68169Y-55935D03*
X68919Y-55935D03*
X68175Y-56720D03*
X68925Y-56720D03*
X86325Y-56200D03*
X87075Y-56200D03*
G54D12*
X79325Y-68935D03*
X80125Y-66585D03*
X84925Y-66585D03*
X84925Y-71335D03*
X80125Y-71335D03*
G54D13*
X86950Y-57700D03*
X86450Y-57700D03*
X86950Y-56900D03*
X86700Y-57700D03*
X86450Y-56900D03*
G54D14*
X72772Y-58768D03*
X72772Y-60068D03*
X72961Y-54713D03*
X72961Y-56013D03*
G54D11*
X65175Y-54370D03*
X64425Y-54370D03*
X78383Y-54930D03*
X77633Y-54930D03*
X84105Y-54960D03*
X83355Y-54960D03*
X69625Y-55951D03*
X70375Y-55951D03*
G54D15*
X78562Y-56084D03*
G54D16*
X79562Y-56084D03*
X78562Y-57084D03*
X79562Y-57084D03*
X78562Y-58084D03*
X79562Y-58084D03*
G54D17*
X88845Y-70995D03*
G54D18*
X88845Y-69026D03*
X88845Y-67057D03*
G54D17*
X89015Y-64080D03*
G54D18*
X89015Y-62702D03*
X89015Y-61324D03*
X89015Y-59946D03*
X89015Y-58568D03*
X89015Y-57190D03*
X89015Y-55812D03*
X89015Y-54434D03*
X89015Y-53056D03*
X89015Y-51678D03*
X89015Y-50300D03*
X89015Y-48922D03*
G54D19*
X68963Y-57400D03*
X68963Y-58100D03*
X69763Y-57750D03*
G54D20*
X83955Y-62130D03*
X83955Y-60330D03*
G54D21*
X82545Y-62205D03*
X82545Y-61455D03*
X69960Y-59325D03*
X69960Y-58575D03*
G54D22*
X30500Y-49000D03*
X32300Y-49000D03*
G54D20*
X37700Y-67300D03*
X37700Y-65500D03*
G54D22*
X34470Y-70610D03*
X36270Y-70610D03*
G54D20*
X34600Y-67600D03*
X34600Y-65800D03*
G54D23*
X37700Y-63500D03*
X37700Y-62100D03*
G54D11*
X40805Y-49155D03*
X40055Y-49155D03*
G54D14*
X37800Y-60850D03*
X37800Y-59550D03*
G54D11*
X73275Y-51300D03*
X74025Y-51300D03*
X65545Y-48660D03*
X64795Y-48660D03*
G54D21*
X67920Y-50885D03*
X67920Y-51635D03*
X73342Y-57935D03*
X73342Y-57185D03*
X72204Y-57211D03*
X72204Y-57961D03*
G54D11*
X72575Y-52200D03*
X73325Y-52200D03*
G54D21*
X86600Y-53725D03*
X86600Y-54475D03*
X86560Y-52335D03*
X86560Y-53085D03*
G54D11*
X81075Y-52800D03*
X80325Y-52800D03*
G54D21*
X81300Y-54475D03*
X81300Y-53725D03*
X66970Y-51635D03*
X66970Y-50885D03*
G54D11*
X67875Y-52360D03*
X67125Y-52360D03*
G54D21*
X70250Y-52275D03*
X70250Y-51525D03*
G54D11*
X71825Y-52200D03*
X71075Y-52200D03*
X72125Y-51200D03*
X71375Y-51200D03*
G54D21*
X64910Y-50695D03*
X64910Y-49945D03*
G54D24*
X59920Y-65150D03*
X59920Y-64205D03*
G54D21*
X88050Y-64100D03*
X88050Y-64850D03*
G54D25*
X66845Y-48520D03*
X72315Y-48520D03*
G54D21*
X76700Y-53625D03*
X76700Y-54375D03*
G54D11*
X83355Y-55760D03*
X84105Y-55760D03*
G54D26*
X47600Y-63200D03*
G54D15*
X49000Y-61900D03*
G54D16*
X50000Y-61900D03*
G54D27*
X49500Y-61900D03*
G54D15*
X48700Y-64800D03*
G54D16*
X49700Y-64800D03*
G54D27*
X49200Y-64800D03*
G54D15*
X46700Y-64900D03*
G54D16*
X45700Y-64900D03*
G54D27*
X46200Y-64900D03*
G54D15*
X46700Y-60300D03*
G54D16*
X46700Y-59300D03*
G54D28*
X46700Y-59800D03*
G54D15*
X65600Y-58560D03*
G54D16*
X64600Y-58560D03*
G54D10*
G36*
X59875Y-68800D02*
X60425Y-68800D01*
X60225Y-69450D01*
X60075Y-69450D01*
X59875Y-68800D01*
X59875Y-68800D01*
G37*
G36*
X60225Y-69550D02*
X60425Y-70200D01*
X59875Y-70200D01*
X60075Y-69550D01*
X60225Y-69550D01*
X60225Y-69550D01*
G37*
G36*
X58875Y-68800D02*
X59425Y-68800D01*
X59225Y-69450D01*
X59075Y-69450D01*
X58875Y-68800D01*
X58875Y-68800D01*
G37*
G36*
X59225Y-69550D02*
X59425Y-70200D01*
X58875Y-70200D01*
X59075Y-69550D01*
X59225Y-69550D01*
X59225Y-69550D01*
G37*
G36*
X57915Y-68800D02*
X58465Y-68800D01*
X58265Y-69450D01*
X58115Y-69450D01*
X57915Y-68800D01*
X57915Y-68800D01*
G37*
G36*
X58265Y-69550D02*
X58465Y-70200D01*
X57915Y-70200D01*
X58115Y-69550D01*
X58265Y-69550D01*
X58265Y-69550D01*
G37*
G36*
X56835Y-68820D02*
X57385Y-68820D01*
X57185Y-69470D01*
X57035Y-69470D01*
X56835Y-68820D01*
X56835Y-68820D01*
G37*
G36*
X57185Y-69570D02*
X57385Y-70220D01*
X56835Y-70220D01*
X57035Y-69570D01*
X57185Y-69570D01*
X57185Y-69570D01*
G37*
G36*
X54835Y-53350D02*
X55385Y-53350D01*
X55185Y-54000D01*
X55035Y-54000D01*
X54835Y-53350D01*
X54835Y-53350D01*
G37*
G36*
X55185Y-54100D02*
X55385Y-54750D01*
X54835Y-54750D01*
X55035Y-54100D01*
X55185Y-54100D01*
X55185Y-54100D01*
G37*
G36*
X52305Y-53330D02*
X52855Y-53330D01*
X52655Y-53980D01*
X52505Y-53980D01*
X52305Y-53330D01*
X52305Y-53330D01*
G37*
G36*
X52655Y-54080D02*
X52855Y-54730D01*
X52305Y-54730D01*
X52505Y-54080D01*
X52655Y-54080D01*
X52655Y-54080D01*
G37*
G36*
X53365Y-53320D02*
X53915Y-53320D01*
X53715Y-53970D01*
X53565Y-53970D01*
X53365Y-53320D01*
X53365Y-53320D01*
G37*
G36*
X53715Y-54070D02*
X53915Y-54720D01*
X53365Y-54720D01*
X53565Y-54070D01*
X53715Y-54070D01*
X53715Y-54070D01*
G37*
G36*
X56845Y-53350D02*
X57395Y-53350D01*
X57195Y-54000D01*
X57045Y-54000D01*
X56845Y-53350D01*
X56845Y-53350D01*
G37*
G36*
X57195Y-54100D02*
X57395Y-54750D01*
X56845Y-54750D01*
X57045Y-54100D01*
X57195Y-54100D01*
X57195Y-54100D01*
G37*
G36*
X51275Y-53330D02*
X51825Y-53330D01*
X51625Y-53980D01*
X51475Y-53980D01*
X51275Y-53330D01*
X51275Y-53330D01*
G37*
G36*
X51625Y-54080D02*
X51825Y-54730D01*
X51275Y-54730D01*
X51475Y-54080D01*
X51625Y-54080D01*
X51625Y-54080D01*
G37*
G54D21*
X90045Y-60675D03*
X90045Y-61425D03*
G54D29*
X88070Y-49080D03*
X86870Y-49080D03*
X88095Y-50580D03*
X86895Y-50580D03*
G54D30*
X87750Y-54555D03*
X87750Y-53355D03*
G54D11*
X66735Y-58930D03*
X67485Y-58930D03*
X66285Y-56120D03*
X65535Y-56120D03*
G54D31*
X67860Y-50000D03*
X66860Y-50000D03*
G54D32*
X65860Y-50000D03*
G54D31*
X83060Y-53720D03*
X84060Y-53720D03*
G54D32*
X85060Y-53720D03*
G54D31*
X73295Y-49960D03*
X72295Y-49960D03*
G54D32*
X71295Y-49960D03*
G54D31*
X78255Y-53670D03*
X79255Y-53670D03*
G54D32*
X80255Y-53670D03*
G54D33*
X45595Y-48535D03*
X44610Y-48535D03*
X46579Y-48535D03*
G54D34*
X43665Y-49401D03*
X47524Y-49401D03*
G54D33*
X52425Y-48435D03*
X51440Y-48435D03*
X53409Y-48435D03*
G54D34*
X50495Y-49301D03*
X54354Y-49301D03*
G54D35*
X40010Y-48390D03*
X39222Y-48390D03*
X40797Y-48390D03*
G54D36*
X30480Y-51100D03*
X30480Y-69288D03*
X30480Y-67635D03*
X30480Y-65981D03*
X30480Y-64328D03*
X30480Y-62674D03*
X30480Y-61021D03*
X30480Y-59367D03*
X30480Y-57714D03*
X30480Y-56060D03*
X30480Y-54407D03*
X30480Y-52753D03*
X32645Y-51100D03*
X32645Y-69288D03*
X32645Y-67635D03*
X32645Y-65981D03*
X32645Y-64328D03*
X32645Y-62674D03*
X32645Y-61021D03*
X32645Y-59367D03*
X32645Y-57714D03*
X32645Y-56060D03*
X32645Y-54407D03*
X32645Y-52753D03*
G54D37*
X52100Y-71420D03*
X53100Y-71420D03*
X54100Y-71420D03*
X55100Y-71420D03*
X57100Y-71420D03*
X58100Y-71420D03*
X59100Y-71420D03*
X60100Y-71420D03*
X61100Y-71420D03*
X62100Y-71420D03*
X62100Y-52420D03*
X61100Y-52420D03*
X60100Y-52420D03*
X59100Y-52420D03*
X58100Y-52420D03*
X57100Y-52420D03*
X56100Y-52420D03*
X55100Y-52420D03*
X53500Y-52420D03*
X52500Y-52420D03*
X51500Y-52420D03*
X50500Y-52420D03*
X49500Y-52420D03*
X48500Y-52420D03*
X51100Y-71420D03*
X50100Y-71420D03*
X47500Y-52420D03*
X46500Y-52420D03*
X49100Y-71420D03*
X48100Y-71420D03*
G54D38*
X63510Y-53070D03*
X84810Y-56960D03*
X64110Y-55530D03*
X71150Y-59520D03*
X70665Y-71985D03*
X74325Y-64840D03*
X75790Y-50210D03*
X78780Y-50230D03*
X82920Y-49850D03*
X82380Y-55695D03*
G54D39*
X34400Y-69000D03*
X82530Y-63035D03*
X75315Y-67350D03*
X56000Y-69150D03*
X35600Y-70600D03*
X36500Y-55000D03*
G54D40*
X39500Y-51300D03*
X41565Y-50865D03*
G54D39*
X51300Y-65200D03*
X56840Y-64100D03*
X85480Y-55750D03*
G54D41*
X67460Y-55890D03*
G54D39*
X41400Y-62100D03*
X63000Y-60030D03*
X41300Y-60900D03*
X34600Y-56700D03*
G54D40*
X39500Y-50400D03*
G54D41*
X71390Y-65080D03*
X52920Y-59330D03*
X65210Y-56780D03*
X67590Y-56570D03*
X60650Y-58440D03*
X68150Y-58020D03*
X60660Y-59130D03*
X56110Y-60520D03*
X56150Y-56450D03*
X67610Y-57760D03*
X61850Y-57340D03*
X60520Y-56220D03*
X58160Y-55600D03*
X62590Y-56500D03*
X59150Y-56400D03*
X59130Y-59270D03*
X68610Y-55320D03*
X60090Y-59300D03*
X60090Y-56470D03*
X85526Y-60333D03*
X62200Y-57100D03*
X53100Y-64650D03*
X60460Y-63570D03*
X74934Y-57636D03*
X76181Y-57560D03*
G54D39*
X82080Y-60830D03*
G54D41*
X65880Y-59580D03*
G54D39*
X63620Y-61860D03*
G54D41*
X63830Y-54370D03*
X66090Y-54280D03*
X66940Y-54330D03*
X73580Y-62210D03*
X65387Y-57414D03*
X70112Y-56742D03*
X70525Y-57960D03*
X75502Y-57953D03*
G54D39*
X75960Y-54350D03*
G54D41*
X86450Y-55250D03*
X79650Y-52800D03*
G54D39*
X70956Y-57189D03*
X74516Y-57213D03*
X35790Y-52170D03*
G54D40*
X53429Y-67964D03*
G54D39*
X37800Y-58500D03*
X56645Y-64985D03*
X50700Y-64300D03*
X87225Y-64850D03*
X63855Y-48630D03*
X68590Y-51940D03*
X84590Y-48810D03*
G54D41*
X69600Y-51550D03*
G54D39*
X71865Y-70430D03*
G54D41*
X59390Y-65160D03*
X62550Y-62310D03*
X70280Y-57645D03*
X65700Y-55615D03*
X68936Y-54936D03*
X66805Y-58315D03*
X67385Y-58305D03*
X66255Y-55640D03*
X66569Y-54230D03*
X69104Y-54376D03*
X71449Y-55237D03*
X72268Y-55517D03*
X72268Y-56175D03*
X74039Y-59416D03*
G54D42*
X34470Y-69070D02*
X34400Y-69000D01*
X34470Y-69070D02*
X34470Y-70610D01*
X82545Y-62205D02*
X82545Y-63020D01*
X82545Y-63020D02*
X82530Y-63035D01*
G54D43*
X82545Y-62205D02*
X83880Y-62205D01*
X83880Y-62205D02*
X83955Y-62130D01*
G54D42*
X36270Y-70610D02*
X35610Y-70610D01*
X35610Y-70610D02*
X35600Y-70600D01*
X36270Y-70610D02*
X36270Y-55230D01*
X36270Y-55230D02*
X36500Y-55000D01*
G54D43*
X78300Y-53700D02*
X78300Y-54847D01*
X78300Y-54847D02*
X78383Y-54930D01*
X73275Y-51300D02*
X73275Y-49995D01*
X73275Y-49995D02*
X73315Y-49955D01*
X76700Y-53625D02*
X78225Y-53625D01*
X78225Y-53625D02*
X78300Y-53700D01*
X40055Y-49355D02*
X40055Y-49155D01*
X41565Y-50865D02*
X40055Y-49355D01*
X32300Y-49000D02*
X39900Y-49000D01*
X39900Y-49000D02*
X40055Y-49155D01*
G54D42*
X38300Y-65500D02*
X37700Y-65500D01*
X50600Y-65900D02*
X51300Y-65200D01*
X38700Y-65900D02*
X50600Y-65900D01*
X38300Y-65500D02*
X38700Y-65900D01*
X37700Y-65500D02*
X37700Y-63500D01*
G54D43*
X86325Y-56200D02*
X85930Y-56200D01*
X85930Y-56200D02*
X85480Y-55750D01*
X87750Y-54555D02*
X88894Y-54555D01*
X88894Y-54555D02*
X89015Y-54434D01*
G54D44*
X68169Y-55935D02*
X67505Y-55935D01*
X67505Y-55935D02*
X67460Y-55890D01*
G54D42*
X37700Y-62100D02*
X41400Y-62100D01*
G54D43*
X68169Y-55935D02*
X68169Y-56714D01*
X68169Y-56714D02*
X68175Y-56720D01*
G54D44*
X86450Y-56900D02*
X86450Y-56325D01*
X86450Y-56325D02*
X86325Y-56200D01*
G54D42*
X37800Y-60850D02*
X41250Y-60850D01*
X41250Y-60850D02*
X41300Y-60900D01*
X34600Y-65800D02*
X34600Y-56700D01*
G54D43*
X66860Y-50000D02*
X66860Y-49655D01*
X65865Y-48660D02*
X65545Y-48660D01*
X66860Y-49655D02*
X65865Y-48660D01*
X84105Y-55760D02*
X84105Y-54960D01*
X84105Y-54960D02*
X84060Y-54915D01*
X84060Y-54915D02*
X84060Y-53720D01*
G54D44*
X59150Y-69125D02*
X59150Y-66810D01*
X60890Y-65070D02*
X71390Y-65080D01*
X59150Y-66810D02*
X60890Y-65070D01*
X51550Y-54405D02*
X51550Y-58460D01*
X68963Y-60347D02*
X68963Y-58100D01*
X68260Y-61050D02*
X68963Y-60347D01*
X54140Y-61050D02*
X68260Y-61050D01*
X51550Y-58460D02*
X54140Y-61050D01*
X52590Y-59000D02*
X52590Y-54390D01*
X52920Y-59330D02*
X52590Y-59000D01*
X65210Y-56780D02*
X65420Y-56570D01*
X65420Y-56570D02*
X67590Y-56570D01*
X60650Y-58440D02*
X60640Y-58440D01*
X64760Y-58020D02*
X68150Y-58020D01*
X64340Y-57600D02*
X64760Y-58020D01*
X61380Y-57600D02*
X64340Y-57600D01*
X60640Y-58340D02*
X61380Y-57600D01*
X60640Y-59110D02*
X60640Y-58540D01*
X60640Y-58540D02*
X60640Y-58440D01*
X60640Y-58440D02*
X60640Y-58340D01*
X60660Y-59130D02*
X60640Y-59110D01*
X56110Y-56490D02*
X56110Y-60520D01*
X56150Y-56450D02*
X56110Y-56490D01*
X64790Y-57760D02*
X67610Y-57760D01*
X64410Y-57380D02*
X64790Y-57760D01*
X61890Y-57380D02*
X64410Y-57380D01*
X61850Y-57340D02*
X61890Y-57380D01*
X44050Y-50735D02*
X44050Y-50670D01*
X57110Y-69145D02*
X56935Y-69145D01*
X44050Y-52400D02*
X44050Y-51910D01*
X51900Y-60250D02*
X44050Y-52400D01*
X51900Y-65760D02*
X51900Y-60250D01*
X52340Y-66200D02*
X51900Y-65760D01*
X53990Y-66200D02*
X52340Y-66200D01*
X56935Y-69145D02*
X53990Y-66200D01*
X44050Y-51910D02*
X44050Y-50735D01*
X44050Y-50670D02*
X44055Y-50670D01*
X48620Y-50670D02*
X44055Y-50670D01*
X70250Y-52275D02*
X69745Y-52275D01*
X69745Y-52275D02*
X68730Y-51260D01*
X68730Y-51260D02*
X68730Y-48750D01*
X68730Y-48750D02*
X67800Y-47820D01*
X67800Y-47820D02*
X50290Y-47820D01*
X50290Y-47820D02*
X48860Y-49250D01*
X48860Y-49250D02*
X48860Y-50430D01*
X48860Y-50430D02*
X48620Y-50670D01*
G54D43*
X70250Y-52275D02*
X71000Y-52275D01*
X71000Y-52275D02*
X71075Y-52200D01*
G54D44*
X44970Y-51955D02*
X44970Y-50930D01*
X44970Y-50930D02*
X45010Y-50890D01*
X64415Y-51975D02*
X66630Y-51975D01*
X66630Y-51975D02*
X66970Y-51635D01*
X64415Y-51975D02*
X63330Y-50890D01*
X63330Y-50890D02*
X45010Y-50890D01*
X58190Y-68000D02*
X55850Y-65660D01*
X55850Y-65660D02*
X53160Y-65660D01*
X53160Y-65660D02*
X52540Y-65040D01*
X52540Y-65040D02*
X52540Y-59960D01*
X52540Y-59960D02*
X44970Y-52390D01*
X44970Y-52390D02*
X44970Y-51955D01*
X44970Y-51955D02*
X44970Y-51970D01*
X58190Y-69125D02*
X58190Y-68000D01*
G54D43*
X67125Y-52360D02*
X67125Y-51790D01*
X67125Y-51790D02*
X66970Y-51635D01*
G54D44*
X59150Y-56140D02*
X60440Y-56140D01*
X60440Y-56140D02*
X60520Y-56220D01*
X53640Y-55920D02*
X53640Y-54395D01*
X53860Y-56140D02*
X53640Y-55920D01*
X59150Y-56140D02*
X59150Y-56140D01*
X59150Y-56140D02*
X53860Y-56140D01*
X61690Y-55600D02*
X58160Y-55600D01*
X62590Y-56500D02*
X61690Y-55600D01*
X59150Y-59250D02*
X59150Y-56400D01*
X59130Y-59270D02*
X59150Y-59250D01*
X68610Y-55320D02*
X65460Y-55320D01*
X61930Y-55310D02*
X57360Y-55310D01*
X62890Y-56270D02*
X61930Y-55310D01*
X64510Y-56270D02*
X62890Y-56270D01*
X65460Y-55320D02*
X64510Y-56270D01*
X57120Y-54425D02*
X57120Y-55070D01*
X57120Y-55070D02*
X57360Y-55310D01*
X57360Y-55310D02*
X57370Y-55320D01*
X60090Y-56470D02*
X60090Y-59300D01*
G54D43*
X85523Y-60330D02*
X83955Y-60330D01*
X85526Y-60333D02*
X85523Y-60330D01*
X90045Y-61425D02*
X89115Y-61425D01*
X89115Y-61425D02*
X89015Y-61324D01*
G54D44*
X60150Y-69125D02*
X60150Y-66350D01*
X89940Y-62249D02*
X89015Y-61324D01*
X89940Y-64950D02*
X89940Y-62249D01*
X89400Y-65490D02*
X89940Y-64950D01*
X61010Y-65490D02*
X89400Y-65490D01*
X60150Y-66350D02*
X61010Y-65490D01*
X55110Y-54425D02*
X55110Y-55590D01*
X60960Y-55860D02*
X62200Y-57100D01*
X55380Y-55860D02*
X60960Y-55860D01*
X55110Y-55590D02*
X55380Y-55860D01*
G54D43*
X88050Y-64100D02*
X60025Y-64100D01*
X60025Y-64100D02*
X59920Y-64205D01*
X59920Y-64205D02*
X59920Y-63920D01*
X53100Y-64650D02*
X53100Y-63800D01*
X53100Y-63800D02*
X53375Y-63525D01*
X59225Y-63525D02*
X59525Y-63525D01*
X53375Y-63525D02*
X59225Y-63525D01*
X59920Y-63920D02*
X59525Y-63525D01*
X88050Y-64100D02*
X88995Y-64100D01*
X88995Y-64100D02*
X89015Y-64080D01*
X88097Y-62702D02*
X89015Y-62702D01*
X87220Y-63580D02*
X88097Y-62702D01*
X60470Y-63580D02*
X87220Y-63580D01*
X60460Y-63570D02*
X60470Y-63580D01*
X88070Y-49080D02*
X88857Y-49080D01*
X88857Y-49080D02*
X89015Y-48922D01*
X72125Y-51200D02*
X72125Y-51900D01*
X72125Y-51900D02*
X71825Y-52200D01*
X72125Y-51200D02*
X72125Y-50145D01*
X72125Y-50145D02*
X72315Y-49955D01*
X71825Y-52200D02*
X72575Y-52200D01*
X64910Y-50695D02*
X64910Y-50810D01*
X64985Y-50885D02*
X66970Y-50885D01*
X64910Y-50810D02*
X64985Y-50885D01*
X66970Y-50885D02*
X67920Y-50885D01*
X67860Y-50000D02*
X67860Y-50825D01*
X67860Y-50825D02*
X67920Y-50885D01*
X88095Y-50580D02*
X88735Y-50580D01*
X88735Y-50580D02*
X89015Y-50300D01*
G54D45*
X88845Y-69026D02*
X79416Y-69026D01*
X79416Y-69026D02*
X79325Y-68935D01*
G54D44*
X87275Y-58930D02*
X89015Y-57190D01*
X77050Y-58930D02*
X87275Y-58930D01*
X75815Y-57695D02*
X77050Y-58930D01*
X74993Y-57695D02*
X75815Y-57695D01*
X74934Y-57636D02*
X74993Y-57695D01*
X87945Y-56882D02*
X89015Y-55812D01*
X87945Y-57690D02*
X87945Y-56882D01*
X86968Y-58667D02*
X87945Y-57690D01*
X77288Y-58667D02*
X86968Y-58667D01*
X76181Y-57560D02*
X77288Y-58667D01*
G54D43*
X83355Y-55760D02*
X82445Y-55760D01*
X82445Y-55760D02*
X82380Y-55695D01*
X83355Y-54960D02*
X83355Y-55760D01*
G54D44*
X86950Y-57700D02*
X86950Y-56900D01*
X86700Y-57700D02*
X86700Y-57960D01*
X86950Y-58020D02*
X86950Y-57700D01*
X86760Y-58020D02*
X86950Y-58020D01*
X86700Y-57960D02*
X86760Y-58020D01*
G54D43*
X82545Y-61455D02*
X82545Y-61295D01*
X82545Y-61295D02*
X82080Y-60830D01*
G54D44*
X64425Y-54370D02*
X63830Y-54370D01*
G54D43*
X70375Y-55951D02*
X70375Y-56479D01*
X70090Y-56720D02*
X70112Y-56742D01*
X70090Y-56720D02*
X68925Y-56720D01*
X70375Y-56479D02*
X70112Y-56742D01*
X68925Y-56720D02*
X68925Y-57362D01*
X68925Y-57362D02*
X68963Y-57400D01*
G54D44*
X72204Y-57961D02*
X70526Y-57961D01*
X70526Y-57961D02*
X70525Y-57960D01*
G54D43*
X77633Y-54930D02*
X77255Y-54930D01*
X77255Y-54930D02*
X76700Y-54375D01*
G54D44*
X73342Y-57935D02*
X75484Y-57935D01*
X75484Y-57935D02*
X75502Y-57953D01*
G54D43*
X76700Y-54375D02*
X75985Y-54375D01*
X75985Y-54375D02*
X75960Y-54350D01*
X87075Y-56200D02*
X87075Y-55875D01*
X86600Y-55100D02*
X86450Y-55250D01*
X86600Y-55100D02*
X86600Y-54475D01*
X87075Y-55875D02*
X86450Y-55250D01*
G54D44*
X86950Y-56900D02*
X86950Y-56325D01*
X86950Y-56325D02*
X87075Y-56200D01*
G54D43*
X80325Y-52800D02*
X79650Y-52800D01*
X79255Y-53670D02*
X79255Y-50635D01*
X79255Y-50635D02*
X78675Y-50055D01*
X79300Y-53700D02*
X79300Y-54330D01*
X79445Y-54475D02*
X81300Y-54475D01*
X79300Y-54330D02*
X79445Y-54475D01*
X70978Y-57211D02*
X72204Y-57211D01*
X70956Y-57189D02*
X70978Y-57211D01*
X83060Y-53720D02*
X83060Y-49990D01*
X83060Y-49990D02*
X82920Y-49850D01*
X86560Y-52335D02*
X83835Y-52335D01*
X83835Y-52335D02*
X83735Y-52335D01*
X83060Y-53010D02*
X83060Y-53720D01*
X83735Y-52335D02*
X83060Y-53010D01*
X74488Y-57185D02*
X73342Y-57185D01*
X74516Y-57213D02*
X74488Y-57185D01*
G54D42*
X37800Y-59550D02*
X37800Y-58500D01*
G54D43*
X88050Y-64850D02*
X87225Y-64850D01*
X75730Y-50190D02*
X75730Y-50410D01*
X74840Y-51300D02*
X74025Y-51300D01*
X75730Y-50410D02*
X74840Y-51300D01*
X64795Y-48660D02*
X63885Y-48660D01*
X63885Y-48660D02*
X63855Y-48630D01*
X67920Y-51635D02*
X67920Y-52315D01*
X67920Y-52315D02*
X67875Y-52360D01*
X67920Y-51635D02*
X68285Y-51635D01*
X68285Y-51635D02*
X68590Y-51940D01*
X86870Y-49080D02*
X86595Y-49080D01*
X86325Y-48810D02*
X84590Y-48810D01*
X86595Y-49080D02*
X86325Y-48810D01*
X86870Y-49080D02*
X86870Y-50555D01*
X86870Y-50555D02*
X86895Y-50580D01*
X87750Y-53355D02*
X88716Y-53355D01*
X88716Y-53355D02*
X89015Y-53056D01*
X90045Y-60675D02*
X90045Y-54086D01*
X90045Y-54086D02*
X89015Y-53056D01*
X70250Y-51525D02*
X69625Y-51525D01*
X69625Y-51525D02*
X69600Y-51550D01*
X74025Y-51300D02*
X74025Y-52175D01*
X74000Y-52200D02*
X73325Y-52200D01*
X74025Y-52175D02*
X74000Y-52200D01*
G54D42*
X30500Y-49000D02*
X30500Y-51080D01*
X30500Y-51080D02*
X30480Y-51100D01*
G54D43*
X59920Y-65150D02*
X59400Y-65150D01*
X59400Y-65150D02*
X59390Y-65160D01*
G54D44*
X69960Y-61610D02*
X69610Y-62300D01*
X69610Y-62300D02*
X62540Y-62300D01*
X69960Y-61610D02*
X69960Y-59325D01*
X62550Y-62300D02*
X62540Y-62300D01*
X62550Y-62310D02*
X62550Y-62300D01*
G54D43*
X69960Y-58575D02*
X70205Y-58575D01*
X70205Y-58575D02*
X71150Y-59520D01*
G54D44*
X69960Y-58575D02*
X69960Y-57947D01*
X69960Y-57947D02*
X69763Y-57750D01*
X69763Y-57750D02*
X70175Y-57750D01*
X70175Y-57750D02*
X70280Y-57645D01*
G54D43*
X86600Y-53725D02*
X86600Y-53125D01*
X86600Y-53125D02*
X86560Y-53085D01*
X85060Y-53720D02*
X86595Y-53720D01*
X86595Y-53720D02*
X86600Y-53725D01*
X86575Y-53700D02*
X86600Y-53725D01*
X71375Y-51200D02*
X71375Y-50015D01*
X71375Y-50015D02*
X71315Y-49955D01*
X64910Y-49945D02*
X63605Y-49945D01*
X62095Y-48435D02*
X63595Y-49935D01*
X62095Y-48435D02*
X53409Y-48435D01*
X63605Y-49945D02*
X63595Y-49935D01*
X64910Y-49945D02*
X65805Y-49945D01*
X65805Y-49945D02*
X65860Y-50000D01*
X81075Y-52800D02*
X81250Y-52800D01*
X81300Y-52850D02*
X81300Y-53725D01*
X81250Y-52800D02*
X81300Y-52850D01*
X80300Y-53700D02*
X81275Y-53700D01*
X81275Y-53700D02*
X81300Y-53725D01*
G54D44*
X58190Y-69875D02*
X58190Y-71330D01*
X58190Y-71330D02*
X58100Y-71420D01*
X57110Y-69895D02*
X57110Y-71410D01*
X57110Y-71410D02*
X57100Y-71420D01*
X60150Y-69875D02*
X60150Y-71370D01*
G54D43*
X60150Y-71370D02*
X60100Y-71420D01*
G54D44*
X59150Y-69875D02*
X59150Y-71370D01*
G54D43*
X59150Y-71370D02*
X59100Y-71420D01*
G54D44*
X52580Y-53655D02*
X52580Y-52500D01*
X52580Y-52500D02*
X52500Y-52420D01*
X53640Y-53645D02*
X53640Y-52560D01*
X53640Y-52560D02*
X53500Y-52420D01*
X57120Y-53675D02*
X57120Y-52440D01*
X57120Y-52440D02*
X57100Y-52420D01*
X55110Y-53675D02*
X55110Y-52430D01*
X55110Y-52430D02*
X55100Y-52420D01*
X51550Y-53655D02*
X51550Y-52470D01*
X51550Y-52470D02*
X51500Y-52420D01*
X65535Y-55780D02*
X65535Y-56120D01*
X65700Y-55615D02*
X65535Y-55780D01*
X68919Y-54953D02*
X68919Y-55935D01*
X68936Y-54936D02*
X68919Y-54953D01*
G54D43*
X68919Y-55935D02*
X69609Y-55935D01*
X69609Y-55935D02*
X69625Y-55951D01*
G54D44*
X66735Y-58385D02*
X66735Y-58930D01*
X66805Y-58315D02*
X66735Y-58385D01*
X67485Y-58405D02*
X67485Y-58930D01*
X67385Y-58305D02*
X67485Y-58405D01*
X66285Y-55670D02*
X66285Y-56120D01*
X66255Y-55640D02*
X66285Y-55670D01*
X84810Y-56960D02*
X84810Y-57550D01*
X84810Y-57550D02*
X84660Y-57700D01*
X86450Y-57700D02*
X84660Y-57700D01*
X84660Y-57700D02*
X80191Y-57700D01*
X66739Y-54060D02*
X66569Y-54230D01*
X73684Y-54060D02*
X66739Y-54060D01*
X77224Y-57600D02*
X73684Y-54060D01*
X80091Y-57600D02*
X77224Y-57600D01*
X80191Y-57700D02*
X80091Y-57600D01*
X65175Y-54370D02*
X65175Y-53775D01*
X64470Y-53070D02*
X63510Y-53070D01*
X65175Y-53775D02*
X64470Y-53070D01*
X69104Y-54376D02*
X67454Y-54376D01*
X65505Y-54700D02*
X65175Y-54370D01*
X67130Y-54700D02*
X65505Y-54700D01*
X67454Y-54376D02*
X67130Y-54700D01*
X70588Y-54376D02*
X69104Y-54376D01*
X71449Y-55237D02*
X70588Y-54376D01*
X72961Y-54713D02*
X72961Y-54824D01*
X72961Y-54824D02*
X72268Y-55517D01*
X72961Y-56013D02*
X72961Y-56504D01*
X72772Y-56693D02*
X72772Y-58768D01*
X72961Y-56504D02*
X72772Y-56693D01*
X72961Y-56013D02*
X72430Y-56013D01*
X72430Y-56013D02*
X72268Y-56175D01*
X72772Y-60068D02*
X73380Y-60068D01*
X74032Y-59416D02*
X74039Y-59416D01*
X73380Y-60068D02*
X74032Y-59416D01*
G54D42*
X32645Y-67635D02*
X34564Y-67635D01*
X34564Y-67635D02*
X34600Y-67600D01*
X37700Y-67300D02*
X37700Y-72300D01*
X29671Y-64328D02*
X30480Y-64328D01*
X28700Y-65000D02*
X29671Y-64328D01*
X28700Y-72100D02*
X28700Y-65000D01*
X28800Y-72300D02*
X28700Y-72100D01*
X37700Y-72300D02*
X28800Y-72300D01*
G54D43*
X40805Y-49155D02*
X40805Y-48397D01*
X40805Y-48397D02*
X40797Y-48390D01*
M02*
