G04 (created by PCBNEW (2013-07-07 BZR 4022)-stable) date 3/16/2014 11:24:39 PM*
%MOIN*%
G04 Gerber Fmt 3.4, Leading zero omitted, Abs format*
%FSLAX34Y34*%
G01*
G70*
G90*
G04 APERTURE LIST*
%ADD10C,0.006*%
%ADD11C,0.00590551*%
%ADD12C,0.005*%
%ADD13C,0.0039*%
%ADD14C,0.0026*%
%ADD15C,0.004*%
%ADD16C,0.0065*%
%ADD17C,0.008*%
%ADD18C,0.015*%
%ADD19C,0.0075*%
%ADD20C,0.0043*%
%ADD21C,0.003*%
%ADD22C,0.01*%
G04 APERTURE END LIST*
G54D10*
G54D11*
X78675Y-66585D02*
X78675Y-72085D01*
X78675Y-72085D02*
X86225Y-72085D01*
X86225Y-72085D02*
X86225Y-65885D01*
X86225Y-65885D02*
X78675Y-65885D01*
X78675Y-65885D02*
X78675Y-66585D01*
G54D12*
X77135Y-71480D02*
X78335Y-71480D01*
X78335Y-71480D02*
X78335Y-71780D01*
X78335Y-71780D02*
X77135Y-71780D01*
X77135Y-71780D02*
X77135Y-71480D01*
G54D13*
X75250Y-71755D02*
G75*
G03X75250Y-71755I-50J0D01*
G74*
G01*
X75650Y-71755D02*
X75250Y-71755D01*
X75250Y-71755D02*
X75250Y-71155D01*
X75250Y-71155D02*
X75650Y-71155D01*
X76050Y-71155D02*
X76450Y-71155D01*
X76450Y-71155D02*
X76450Y-71755D01*
X76450Y-71755D02*
X76050Y-71755D01*
X75275Y-70710D02*
G75*
G03X75275Y-70710I-50J0D01*
G74*
G01*
X75675Y-70710D02*
X75275Y-70710D01*
X75275Y-70710D02*
X75275Y-70110D01*
X75275Y-70110D02*
X75675Y-70110D01*
X76075Y-70110D02*
X76475Y-70110D01*
X76475Y-70110D02*
X76475Y-70710D01*
X76475Y-70710D02*
X76075Y-70710D01*
X77120Y-66680D02*
G75*
G03X77120Y-66680I-50J0D01*
G74*
G01*
X77520Y-66680D02*
X77120Y-66680D01*
X77120Y-66680D02*
X77120Y-66080D01*
X77120Y-66080D02*
X77520Y-66080D01*
X77920Y-66080D02*
X78320Y-66080D01*
X78320Y-66080D02*
X78320Y-66680D01*
X78320Y-66680D02*
X77920Y-66680D01*
X71735Y-68770D02*
G75*
G03X71735Y-68770I-50J0D01*
G74*
G01*
X72135Y-68770D02*
X71735Y-68770D01*
X71735Y-68770D02*
X71735Y-68170D01*
X71735Y-68170D02*
X72135Y-68170D01*
X72535Y-68170D02*
X72935Y-68170D01*
X72935Y-68170D02*
X72935Y-68770D01*
X72935Y-68770D02*
X72535Y-68770D01*
X77695Y-69400D02*
G75*
G03X77695Y-69400I-50J0D01*
G74*
G01*
X77645Y-69850D02*
X77645Y-69450D01*
X77645Y-69450D02*
X78245Y-69450D01*
X78245Y-69450D02*
X78245Y-69850D01*
X78245Y-70250D02*
X78245Y-70650D01*
X78245Y-70650D02*
X77645Y-70650D01*
X77645Y-70650D02*
X77645Y-70250D01*
G54D14*
X76373Y-69827D02*
X76373Y-69473D01*
X76373Y-69473D02*
X76216Y-69473D01*
X76216Y-69827D02*
X76216Y-69473D01*
X76373Y-69827D02*
X76216Y-69827D01*
X76884Y-69827D02*
X76884Y-69473D01*
X76884Y-69473D02*
X76727Y-69473D01*
X76727Y-69827D02*
X76727Y-69473D01*
X76884Y-69827D02*
X76727Y-69827D01*
X76550Y-69827D02*
X76550Y-69768D01*
X76550Y-69768D02*
X76432Y-69768D01*
X76432Y-69827D02*
X76432Y-69768D01*
X76550Y-69827D02*
X76432Y-69827D01*
X76550Y-69532D02*
X76550Y-69473D01*
X76550Y-69473D02*
X76432Y-69473D01*
X76432Y-69532D02*
X76432Y-69473D01*
X76550Y-69532D02*
X76432Y-69532D01*
X76550Y-69709D02*
X76550Y-69591D01*
X76550Y-69591D02*
X76432Y-69591D01*
X76432Y-69709D02*
X76432Y-69591D01*
X76550Y-69709D02*
X76432Y-69709D01*
G54D15*
X76373Y-69807D02*
X76727Y-69807D01*
X76373Y-69493D02*
X76727Y-69493D01*
G54D11*
X74631Y-67210D02*
G75*
G03X74631Y-67210I-141J0D01*
G74*
G01*
X74140Y-66860D02*
X74140Y-69060D01*
X74140Y-69060D02*
X76890Y-69060D01*
X76890Y-69060D02*
X76890Y-66860D01*
X76890Y-66860D02*
X74140Y-66860D01*
G54D16*
X65460Y-56860D02*
X68460Y-56860D01*
X68460Y-55460D02*
X65460Y-55460D01*
X65460Y-56860D02*
X65460Y-55460D01*
G54D10*
X68460Y-55460D02*
X68460Y-56860D01*
G54D12*
X68401Y-55660D02*
G75*
G03X68401Y-55660I-141J0D01*
G74*
G01*
X68460Y-56410D02*
X68160Y-56410D01*
X68160Y-56410D02*
X68160Y-55910D01*
X68160Y-55910D02*
X68460Y-55910D01*
G54D17*
X73518Y-55284D02*
X73518Y-59084D01*
X73518Y-59084D02*
X72018Y-59084D01*
X72018Y-59084D02*
X72018Y-55284D01*
X72018Y-55284D02*
X73518Y-55284D01*
X73018Y-55284D02*
X73018Y-55584D01*
X73018Y-55584D02*
X72618Y-55584D01*
X72618Y-55584D02*
X72618Y-55284D01*
G54D12*
X71816Y-54202D02*
X71816Y-55102D01*
X71816Y-55102D02*
X72466Y-55102D01*
X73166Y-54202D02*
X73816Y-54202D01*
X73816Y-54202D02*
X73816Y-55102D01*
X73816Y-55102D02*
X73166Y-55102D01*
X72466Y-54202D02*
X71816Y-54202D01*
X69767Y-56372D02*
X70667Y-56372D01*
X70667Y-56372D02*
X70667Y-55722D01*
X69767Y-55022D02*
X69767Y-54372D01*
X69767Y-54372D02*
X70667Y-54372D01*
X70667Y-54372D02*
X70667Y-55022D01*
X69767Y-55722D02*
X69767Y-56372D01*
G54D13*
X80366Y-58356D02*
G75*
G03X80366Y-58356I-50J0D01*
G74*
G01*
X80766Y-58356D02*
X80366Y-58356D01*
X80366Y-58356D02*
X80366Y-57756D01*
X80366Y-57756D02*
X80766Y-57756D01*
X81166Y-57756D02*
X81566Y-57756D01*
X81566Y-57756D02*
X81566Y-58356D01*
X81566Y-58356D02*
X81166Y-58356D01*
X75186Y-59256D02*
G75*
G03X75186Y-59256I-50J0D01*
G74*
G01*
X75136Y-58806D02*
X75136Y-59206D01*
X75136Y-59206D02*
X74536Y-59206D01*
X74536Y-59206D02*
X74536Y-58806D01*
X74536Y-58406D02*
X74536Y-58006D01*
X74536Y-58006D02*
X75136Y-58006D01*
X75136Y-58006D02*
X75136Y-58406D01*
X75144Y-56022D02*
G75*
G03X75144Y-56022I-50J0D01*
G74*
G01*
X75094Y-55572D02*
X75094Y-55972D01*
X75094Y-55972D02*
X74494Y-55972D01*
X74494Y-55972D02*
X74494Y-55572D01*
X74494Y-55172D02*
X74494Y-54772D01*
X74494Y-54772D02*
X75094Y-54772D01*
X75094Y-54772D02*
X75094Y-55172D01*
X80356Y-57356D02*
G75*
G03X80356Y-57356I-50J0D01*
G74*
G01*
X80756Y-57356D02*
X80356Y-57356D01*
X80356Y-57356D02*
X80356Y-56756D01*
X80356Y-56756D02*
X80756Y-56756D01*
X81156Y-56756D02*
X81556Y-56756D01*
X81556Y-56756D02*
X81556Y-57356D01*
X81556Y-57356D02*
X81156Y-57356D01*
X80326Y-56396D02*
G75*
G03X80326Y-56396I-50J0D01*
G74*
G01*
X80726Y-56396D02*
X80326Y-56396D01*
X80326Y-56396D02*
X80326Y-55796D01*
X80326Y-55796D02*
X80726Y-55796D01*
X81126Y-55796D02*
X81526Y-55796D01*
X81526Y-55796D02*
X81526Y-56396D01*
X81526Y-56396D02*
X81126Y-56396D01*
G54D17*
X78062Y-58584D02*
X78062Y-55584D01*
X80062Y-55584D02*
X80062Y-58584D01*
X80062Y-58584D02*
X78062Y-58584D01*
X78062Y-55584D02*
X80062Y-55584D01*
G54D11*
X88845Y-71979D02*
X90419Y-71979D01*
X90419Y-71979D02*
X90419Y-66073D01*
X90419Y-66073D02*
X87270Y-66073D01*
X87270Y-66073D02*
X87270Y-71979D01*
X87270Y-71979D02*
X88864Y-71979D01*
X89015Y-64981D02*
X90392Y-64981D01*
X90392Y-64981D02*
X90392Y-48013D01*
X90392Y-48013D02*
X87637Y-48013D01*
X87637Y-48013D02*
X87637Y-64981D01*
X87637Y-64981D02*
X89015Y-64981D01*
X89015Y-64981D02*
X89018Y-64985D01*
X30480Y-50037D02*
X25007Y-50037D01*
X25007Y-50037D02*
X25007Y-70351D01*
X25007Y-70351D02*
X33511Y-70351D01*
X33511Y-70351D02*
X33511Y-50037D01*
X33511Y-50037D02*
X30472Y-50037D01*
G54D13*
X54450Y-68250D02*
G75*
G03X54450Y-68250I-50J0D01*
G74*
G01*
X54400Y-67800D02*
X54400Y-68200D01*
X54400Y-68200D02*
X53800Y-68200D01*
X53800Y-68200D02*
X53800Y-67800D01*
X53800Y-67400D02*
X53800Y-67000D01*
X53800Y-67000D02*
X54400Y-67000D01*
X54400Y-67000D02*
X54400Y-67400D01*
G54D12*
X62420Y-61863D02*
X60420Y-61863D01*
X60420Y-61863D02*
X60420Y-60063D01*
X60420Y-60063D02*
X62420Y-60063D01*
X62420Y-60063D02*
X62420Y-61863D01*
X62420Y-61263D02*
X62220Y-61263D01*
X62220Y-61263D02*
X62220Y-60763D01*
X62220Y-60763D02*
X62420Y-60763D01*
G54D11*
X86000Y-60185D02*
X87350Y-60185D01*
X86000Y-62285D02*
X87350Y-62285D01*
X87350Y-62285D02*
X87350Y-59985D01*
X87350Y-59985D02*
X86000Y-59985D01*
X86000Y-59985D02*
X86000Y-62285D01*
G54D12*
X71050Y-61770D02*
X71050Y-62670D01*
X71050Y-62670D02*
X71700Y-62670D01*
X72400Y-61770D02*
X73050Y-61770D01*
X73050Y-61770D02*
X73050Y-62670D01*
X73050Y-62670D02*
X72400Y-62670D01*
X71700Y-61770D02*
X71050Y-61770D01*
G54D13*
X62740Y-60370D02*
G75*
G03X62740Y-60370I-50J0D01*
G74*
G01*
X62690Y-60820D02*
X62690Y-60420D01*
X62690Y-60420D02*
X63290Y-60420D01*
X63290Y-60420D02*
X63290Y-60820D01*
X63290Y-61220D02*
X63290Y-61620D01*
X63290Y-61620D02*
X62690Y-61620D01*
X62690Y-61620D02*
X62690Y-61220D01*
G54D12*
X79160Y-60600D02*
X79160Y-59350D01*
X79160Y-59350D02*
X78460Y-59350D01*
X78460Y-59350D02*
X78460Y-60600D01*
X80960Y-60600D02*
X80960Y-59350D01*
X80960Y-59350D02*
X80260Y-59350D01*
X80260Y-59350D02*
X80260Y-60600D01*
X78360Y-63000D02*
X78360Y-60600D01*
X78360Y-60600D02*
X81060Y-60600D01*
X81060Y-60600D02*
X81060Y-63700D01*
X81060Y-63750D02*
X78360Y-63750D01*
X78360Y-63700D02*
X78360Y-63000D01*
X67056Y-59780D02*
X67056Y-58530D01*
X67056Y-58530D02*
X66356Y-58530D01*
X66356Y-58530D02*
X66356Y-59780D01*
X68856Y-59780D02*
X68856Y-58530D01*
X68856Y-58530D02*
X68156Y-58530D01*
X68156Y-58530D02*
X68156Y-59780D01*
X66256Y-62180D02*
X66256Y-59780D01*
X66256Y-59780D02*
X68956Y-59780D01*
X68956Y-59780D02*
X68956Y-62880D01*
X68956Y-62930D02*
X66256Y-62930D01*
X66256Y-62880D02*
X66256Y-62180D01*
X36100Y-53000D02*
X36100Y-54200D01*
X37550Y-54200D02*
X38300Y-54200D01*
X38300Y-54200D02*
X38300Y-53000D01*
X38300Y-53000D02*
X37550Y-53000D01*
X36900Y-53000D02*
X36100Y-53000D01*
X36178Y-53000D02*
X36178Y-54200D01*
X36100Y-54200D02*
X36900Y-54200D01*
X38300Y-52650D02*
X38300Y-51750D01*
X38300Y-51750D02*
X37650Y-51750D01*
X36950Y-52650D02*
X36300Y-52650D01*
X36300Y-52650D02*
X36300Y-51750D01*
X36300Y-51750D02*
X36950Y-51750D01*
X37650Y-52650D02*
X38300Y-52650D01*
X36300Y-49950D02*
X36300Y-50850D01*
X36300Y-50850D02*
X36950Y-50850D01*
X37650Y-49950D02*
X38300Y-49950D01*
X38300Y-49950D02*
X38300Y-50850D01*
X38300Y-50850D02*
X37650Y-50850D01*
X36950Y-49950D02*
X36300Y-49950D01*
X35400Y-48100D02*
X35400Y-49300D01*
X36850Y-49300D02*
X37600Y-49300D01*
X37600Y-49300D02*
X37600Y-48100D01*
X37600Y-48100D02*
X36850Y-48100D01*
X36200Y-48100D02*
X35400Y-48100D01*
X35478Y-48100D02*
X35478Y-49300D01*
X35400Y-49300D02*
X36200Y-49300D01*
G54D11*
X39606Y-47523D02*
X39606Y-46647D01*
X39606Y-46647D02*
X39202Y-46647D01*
X39202Y-46647D02*
X39202Y-47504D01*
X42086Y-48390D02*
X42086Y-47523D01*
X42086Y-47523D02*
X37972Y-47523D01*
X37972Y-47523D02*
X37972Y-49256D01*
X37972Y-49256D02*
X42076Y-49256D01*
X42076Y-49256D02*
X42096Y-49256D01*
X42096Y-49256D02*
X42096Y-48370D01*
X51903Y-46338D02*
X51903Y-39448D01*
X51903Y-39448D02*
X54265Y-39448D01*
X54265Y-39448D02*
X54265Y-46338D01*
X52425Y-46348D02*
X50013Y-46348D01*
X50013Y-46348D02*
X50013Y-49301D01*
X50013Y-49301D02*
X50013Y-50246D01*
X50013Y-50246D02*
X54806Y-50246D01*
X54806Y-50246D02*
X54797Y-46358D01*
X54797Y-46358D02*
X52415Y-46348D01*
X45073Y-46438D02*
X45073Y-39548D01*
X45073Y-39548D02*
X47435Y-39548D01*
X47435Y-39548D02*
X47435Y-46438D01*
X45595Y-46448D02*
X43183Y-46448D01*
X43183Y-46448D02*
X43183Y-49401D01*
X43183Y-49401D02*
X43183Y-50346D01*
X43183Y-50346D02*
X47976Y-50346D01*
X47976Y-50346D02*
X47967Y-46458D01*
X47967Y-46458D02*
X45585Y-46448D01*
G54D12*
X54525Y-64850D02*
X54325Y-65150D01*
X54525Y-64150D02*
X54525Y-65175D01*
X54525Y-65175D02*
X53925Y-65175D01*
X53925Y-65175D02*
X53925Y-64150D01*
X53925Y-64150D02*
X54525Y-64150D01*
G54D13*
X52105Y-64005D02*
G75*
G03X52105Y-64005I-50J0D01*
G74*
G01*
X52055Y-64455D02*
X52055Y-64055D01*
X52055Y-64055D02*
X52655Y-64055D01*
X52655Y-64055D02*
X52655Y-64455D01*
X52655Y-64855D02*
X52655Y-65255D01*
X52655Y-65255D02*
X52055Y-65255D01*
X52055Y-65255D02*
X52055Y-64855D01*
X55675Y-63950D02*
G75*
G03X55675Y-63950I-50J0D01*
G74*
G01*
X55625Y-64400D02*
X55625Y-64000D01*
X55625Y-64000D02*
X56225Y-64000D01*
X56225Y-64000D02*
X56225Y-64400D01*
X56225Y-64800D02*
X56225Y-65200D01*
X56225Y-65200D02*
X55625Y-65200D01*
X55625Y-65200D02*
X55625Y-64800D01*
G54D18*
X77300Y-52950D02*
X77300Y-52700D01*
X77300Y-52700D02*
X81300Y-52700D01*
X81300Y-52700D02*
X81300Y-52950D01*
X77300Y-54450D02*
X77300Y-52950D01*
X77300Y-52950D02*
X81300Y-52950D01*
X81300Y-52950D02*
X81300Y-54450D01*
X81300Y-54450D02*
X77300Y-54450D01*
X74315Y-50705D02*
X74315Y-50955D01*
X74315Y-50955D02*
X70315Y-50955D01*
X70315Y-50955D02*
X70315Y-50705D01*
X74315Y-49205D02*
X74315Y-50705D01*
X74315Y-50705D02*
X70315Y-50705D01*
X70315Y-50705D02*
X70315Y-49205D01*
X70315Y-49205D02*
X74315Y-49205D01*
X68805Y-50790D02*
X68805Y-51040D01*
X68805Y-51040D02*
X64805Y-51040D01*
X64805Y-51040D02*
X64805Y-50790D01*
X68805Y-49290D02*
X68805Y-50790D01*
X68805Y-50790D02*
X64805Y-50790D01*
X64805Y-50790D02*
X64805Y-49290D01*
X64805Y-49290D02*
X68805Y-49290D01*
X82135Y-52950D02*
X82135Y-52700D01*
X82135Y-52700D02*
X86135Y-52700D01*
X86135Y-52700D02*
X86135Y-52950D01*
X82135Y-54450D02*
X82135Y-52950D01*
X82135Y-52950D02*
X86135Y-52950D01*
X86135Y-52950D02*
X86135Y-54450D01*
X86135Y-54450D02*
X82135Y-54450D01*
G54D11*
X34600Y-59670D02*
X40850Y-59670D01*
X40850Y-59670D02*
X40850Y-55170D01*
X40850Y-55170D02*
X34600Y-55170D01*
X34600Y-55170D02*
X34600Y-59670D01*
X36350Y-71170D02*
X41600Y-71170D01*
X41600Y-71170D02*
X41600Y-67670D01*
X41600Y-67670D02*
X36350Y-67670D01*
X36350Y-67670D02*
X36350Y-71170D01*
X64100Y-72420D02*
X64100Y-51420D01*
X64100Y-51420D02*
X37100Y-51420D01*
X37100Y-51420D02*
X37100Y-72420D01*
X37100Y-72420D02*
X64100Y-72420D01*
X66845Y-48520D02*
X69364Y-48520D01*
X69364Y-48520D02*
X69364Y-53520D01*
X69364Y-53520D02*
X64325Y-53520D01*
X64325Y-53520D02*
X64325Y-48520D01*
X64325Y-48520D02*
X66845Y-48520D01*
X72315Y-48520D02*
X74834Y-48520D01*
X74834Y-48520D02*
X74834Y-53520D01*
X74834Y-53520D02*
X69795Y-53520D01*
X69795Y-53520D02*
X69795Y-48520D01*
X69795Y-48520D02*
X72315Y-48520D01*
G54D18*
X48500Y-63200D02*
G75*
G03X48500Y-63200I-900J0D01*
G74*
G01*
G54D10*
X48500Y-62400D02*
X48500Y-61400D01*
X48500Y-61400D02*
X50500Y-61400D01*
X50500Y-61400D02*
X50500Y-62400D01*
X50500Y-62400D02*
X48500Y-62400D01*
X48200Y-65300D02*
X48200Y-64300D01*
X48200Y-64300D02*
X50200Y-64300D01*
X50200Y-64300D02*
X50200Y-65300D01*
X50200Y-65300D02*
X48200Y-65300D01*
X47200Y-64400D02*
X47200Y-65400D01*
X47200Y-65400D02*
X45200Y-65400D01*
X45200Y-65400D02*
X45200Y-64400D01*
X45200Y-64400D02*
X47200Y-64400D01*
X47200Y-60800D02*
X46200Y-60800D01*
X46200Y-60800D02*
X46200Y-58800D01*
X46200Y-58800D02*
X47200Y-58800D01*
X47200Y-58800D02*
X47200Y-60800D01*
X66100Y-58060D02*
X66100Y-59060D01*
X66100Y-59060D02*
X64100Y-59060D01*
X64100Y-59060D02*
X64100Y-58060D01*
X64100Y-58060D02*
X66100Y-58060D01*
G54D13*
X58900Y-53390D02*
G75*
G03X58900Y-53390I-50J0D01*
G74*
G01*
X58850Y-53840D02*
X58850Y-53440D01*
X58850Y-53440D02*
X59450Y-53440D01*
X59450Y-53440D02*
X59450Y-53840D01*
X59450Y-54240D02*
X59450Y-54640D01*
X59450Y-54640D02*
X58850Y-54640D01*
X58850Y-54640D02*
X58850Y-54240D01*
X59840Y-53390D02*
G75*
G03X59840Y-53390I-50J0D01*
G74*
G01*
X59790Y-53840D02*
X59790Y-53440D01*
X59790Y-53440D02*
X60390Y-53440D01*
X60390Y-53440D02*
X60390Y-53840D01*
X60390Y-54240D02*
X60390Y-54640D01*
X60390Y-54640D02*
X59790Y-54640D01*
X59790Y-54640D02*
X59790Y-54240D01*
X55880Y-53390D02*
G75*
G03X55880Y-53390I-50J0D01*
G74*
G01*
X55830Y-53840D02*
X55830Y-53440D01*
X55830Y-53440D02*
X56430Y-53440D01*
X56430Y-53440D02*
X56430Y-53840D01*
X56430Y-54240D02*
X56430Y-54640D01*
X56430Y-54640D02*
X55830Y-54640D01*
X55830Y-54640D02*
X55830Y-54240D01*
X50295Y-53385D02*
G75*
G03X50295Y-53385I-50J0D01*
G74*
G01*
X50245Y-53835D02*
X50245Y-53435D01*
X50245Y-53435D02*
X50845Y-53435D01*
X50845Y-53435D02*
X50845Y-53835D01*
X50845Y-54235D02*
X50845Y-54635D01*
X50845Y-54635D02*
X50245Y-54635D01*
X50245Y-54635D02*
X50245Y-54235D01*
X49250Y-53380D02*
G75*
G03X49250Y-53380I-50J0D01*
G74*
G01*
X49200Y-53830D02*
X49200Y-53430D01*
X49200Y-53430D02*
X49800Y-53430D01*
X49800Y-53430D02*
X49800Y-53830D01*
X49800Y-54230D02*
X49800Y-54630D01*
X49800Y-54630D02*
X49200Y-54630D01*
X49200Y-54630D02*
X49200Y-54230D01*
X61920Y-53380D02*
G75*
G03X61920Y-53380I-50J0D01*
G74*
G01*
X61870Y-53830D02*
X61870Y-53430D01*
X61870Y-53430D02*
X62470Y-53430D01*
X62470Y-53430D02*
X62470Y-53830D01*
X62470Y-54230D02*
X62470Y-54630D01*
X62470Y-54630D02*
X61870Y-54630D01*
X61870Y-54630D02*
X61870Y-54230D01*
X55020Y-68855D02*
G75*
G03X55020Y-68855I-50J0D01*
G74*
G01*
X54970Y-69305D02*
X54970Y-68905D01*
X54970Y-68905D02*
X55570Y-68905D01*
X55570Y-68905D02*
X55570Y-69305D01*
X55570Y-69705D02*
X55570Y-70105D01*
X55570Y-70105D02*
X54970Y-70105D01*
X54970Y-70105D02*
X54970Y-69705D01*
X51905Y-68850D02*
G75*
G03X51905Y-68850I-50J0D01*
G74*
G01*
X51855Y-69300D02*
X51855Y-68900D01*
X51855Y-68900D02*
X52455Y-68900D01*
X52455Y-68900D02*
X52455Y-69300D01*
X52455Y-69700D02*
X52455Y-70100D01*
X52455Y-70100D02*
X51855Y-70100D01*
X51855Y-70100D02*
X51855Y-69700D01*
X57870Y-53400D02*
G75*
G03X57870Y-53400I-50J0D01*
G74*
G01*
X57820Y-53850D02*
X57820Y-53450D01*
X57820Y-53450D02*
X58420Y-53450D01*
X58420Y-53450D02*
X58420Y-53850D01*
X58420Y-54250D02*
X58420Y-54650D01*
X58420Y-54650D02*
X57820Y-54650D01*
X57820Y-54650D02*
X57820Y-54250D01*
X48220Y-53390D02*
G75*
G03X48220Y-53390I-50J0D01*
G74*
G01*
X48170Y-53840D02*
X48170Y-53440D01*
X48170Y-53440D02*
X48770Y-53440D01*
X48770Y-53440D02*
X48770Y-53840D01*
X48770Y-54240D02*
X48770Y-54640D01*
X48770Y-54640D02*
X48170Y-54640D01*
X48170Y-54640D02*
X48170Y-54240D01*
G54D12*
X87205Y-51475D02*
G75*
G03X87205Y-51475I-70J0D01*
G74*
G01*
X88285Y-52125D02*
X88285Y-51525D01*
X88285Y-51525D02*
X87185Y-51525D01*
X87185Y-51525D02*
X87185Y-52125D01*
X87185Y-52725D02*
X87185Y-53325D01*
X87185Y-53325D02*
X88285Y-53325D01*
X88285Y-53325D02*
X88285Y-52725D01*
G54D11*
X79434Y-65844D02*
X79434Y-65450D01*
X79659Y-65844D02*
X79490Y-65619D01*
X79659Y-65450D02*
X79434Y-65675D01*
X80034Y-65844D02*
X79809Y-65844D01*
X79921Y-65844D02*
X79921Y-65450D01*
X79884Y-65506D01*
X79846Y-65544D01*
X79809Y-65563D01*
X78721Y-72594D02*
X78590Y-72406D01*
X78496Y-72594D02*
X78496Y-72200D01*
X78646Y-72200D01*
X78684Y-72219D01*
X78703Y-72238D01*
X78721Y-72275D01*
X78721Y-72331D01*
X78703Y-72369D01*
X78684Y-72388D01*
X78646Y-72406D01*
X78496Y-72406D01*
X78890Y-72388D02*
X79021Y-72388D01*
X79078Y-72594D02*
X78890Y-72594D01*
X78890Y-72200D01*
X79078Y-72200D01*
X79434Y-72594D02*
X79246Y-72594D01*
X79246Y-72200D01*
X79546Y-72481D02*
X79734Y-72481D01*
X79509Y-72594D02*
X79640Y-72200D01*
X79771Y-72594D01*
X79978Y-72406D02*
X79978Y-72594D01*
X79846Y-72200D02*
X79978Y-72406D01*
X80109Y-72200D01*
G54D19*
X77706Y-70830D02*
X77677Y-70815D01*
X77649Y-70787D01*
X77606Y-70744D01*
X77577Y-70730D01*
X77549Y-70730D01*
X77563Y-70801D02*
X77535Y-70787D01*
X77506Y-70758D01*
X77492Y-70701D01*
X77492Y-70601D01*
X77506Y-70544D01*
X77535Y-70515D01*
X77563Y-70501D01*
X77620Y-70501D01*
X77649Y-70515D01*
X77677Y-70544D01*
X77692Y-70601D01*
X77692Y-70701D01*
X77677Y-70758D01*
X77649Y-70787D01*
X77620Y-70801D01*
X77563Y-70801D01*
X77977Y-70801D02*
X77806Y-70801D01*
X77892Y-70801D02*
X77892Y-70501D01*
X77863Y-70544D01*
X77835Y-70572D01*
X77806Y-70587D01*
G54D17*
G54D20*
X75817Y-71409D02*
X75751Y-71315D01*
X75704Y-71409D02*
X75704Y-71212D01*
X75779Y-71212D01*
X75798Y-71222D01*
X75807Y-71231D01*
X75817Y-71250D01*
X75817Y-71278D01*
X75807Y-71297D01*
X75798Y-71306D01*
X75779Y-71315D01*
X75704Y-71315D01*
X75986Y-71212D02*
X75948Y-71212D01*
X75929Y-71222D01*
X75920Y-71231D01*
X75901Y-71259D01*
X75892Y-71297D01*
X75892Y-71372D01*
X75901Y-71390D01*
X75910Y-71400D01*
X75929Y-71409D01*
X75967Y-71409D01*
X75986Y-71400D01*
X75995Y-71390D01*
X76004Y-71372D01*
X76004Y-71325D01*
X75995Y-71306D01*
X75986Y-71297D01*
X75967Y-71287D01*
X75929Y-71287D01*
X75910Y-71297D01*
X75901Y-71306D01*
X75892Y-71325D01*
X75840Y-71487D02*
X75859Y-71487D01*
X75878Y-71497D01*
X75887Y-71506D01*
X75896Y-71525D01*
X75906Y-71562D01*
X75906Y-71609D01*
X75896Y-71647D01*
X75887Y-71665D01*
X75878Y-71675D01*
X75859Y-71684D01*
X75840Y-71684D01*
X75821Y-71675D01*
X75812Y-71665D01*
X75803Y-71647D01*
X75793Y-71609D01*
X75793Y-71562D01*
X75803Y-71525D01*
X75812Y-71506D01*
X75821Y-71497D01*
X75840Y-71487D01*
X75842Y-70364D02*
X75776Y-70270D01*
X75729Y-70364D02*
X75729Y-70167D01*
X75804Y-70167D01*
X75823Y-70177D01*
X75832Y-70186D01*
X75842Y-70205D01*
X75842Y-70233D01*
X75832Y-70252D01*
X75823Y-70261D01*
X75804Y-70270D01*
X75729Y-70270D01*
X75917Y-70186D02*
X75926Y-70177D01*
X75945Y-70167D01*
X75992Y-70167D01*
X76011Y-70177D01*
X76020Y-70186D01*
X76029Y-70205D01*
X76029Y-70224D01*
X76020Y-70252D01*
X75907Y-70364D01*
X76029Y-70364D01*
X75631Y-70461D02*
X75640Y-70452D01*
X75659Y-70442D01*
X75706Y-70442D01*
X75724Y-70452D01*
X75734Y-70461D01*
X75743Y-70480D01*
X75743Y-70499D01*
X75734Y-70527D01*
X75621Y-70639D01*
X75743Y-70639D01*
X75865Y-70442D02*
X75884Y-70442D01*
X75903Y-70452D01*
X75912Y-70461D01*
X75921Y-70480D01*
X75931Y-70517D01*
X75931Y-70564D01*
X75921Y-70602D01*
X75912Y-70620D01*
X75903Y-70630D01*
X75884Y-70639D01*
X75865Y-70639D01*
X75846Y-70630D01*
X75837Y-70620D01*
X75828Y-70602D01*
X75818Y-70564D01*
X75818Y-70517D01*
X75828Y-70480D01*
X75837Y-70461D01*
X75846Y-70452D01*
X75865Y-70442D01*
X76053Y-70442D02*
X76072Y-70442D01*
X76090Y-70452D01*
X76100Y-70461D01*
X76109Y-70480D01*
X76118Y-70517D01*
X76118Y-70564D01*
X76109Y-70602D01*
X76100Y-70620D01*
X76090Y-70630D01*
X76072Y-70639D01*
X76053Y-70639D01*
X76034Y-70630D01*
X76025Y-70620D01*
X76015Y-70602D01*
X76006Y-70564D01*
X76006Y-70517D01*
X76015Y-70480D01*
X76025Y-70461D01*
X76034Y-70452D01*
X76053Y-70442D01*
X77687Y-66334D02*
X77621Y-66240D01*
X77574Y-66334D02*
X77574Y-66137D01*
X77649Y-66137D01*
X77668Y-66147D01*
X77677Y-66156D01*
X77687Y-66175D01*
X77687Y-66203D01*
X77677Y-66222D01*
X77668Y-66231D01*
X77649Y-66240D01*
X77574Y-66240D01*
X77856Y-66203D02*
X77856Y-66334D01*
X77809Y-66128D02*
X77762Y-66269D01*
X77884Y-66269D01*
X77710Y-66412D02*
X77729Y-66412D01*
X77748Y-66422D01*
X77757Y-66431D01*
X77766Y-66450D01*
X77776Y-66487D01*
X77776Y-66534D01*
X77766Y-66572D01*
X77757Y-66590D01*
X77748Y-66600D01*
X77729Y-66609D01*
X77710Y-66609D01*
X77691Y-66600D01*
X77682Y-66590D01*
X77673Y-66572D01*
X77663Y-66534D01*
X77663Y-66487D01*
X77673Y-66450D01*
X77682Y-66431D01*
X77691Y-66422D01*
X77710Y-66412D01*
X72302Y-68424D02*
X72236Y-68330D01*
X72189Y-68424D02*
X72189Y-68227D01*
X72264Y-68227D01*
X72283Y-68237D01*
X72292Y-68246D01*
X72302Y-68265D01*
X72302Y-68293D01*
X72292Y-68312D01*
X72283Y-68321D01*
X72264Y-68330D01*
X72189Y-68330D01*
X72489Y-68424D02*
X72377Y-68424D01*
X72433Y-68424D02*
X72433Y-68227D01*
X72414Y-68255D01*
X72395Y-68274D01*
X72377Y-68284D01*
X72194Y-68502D02*
X72100Y-68502D01*
X72091Y-68596D01*
X72100Y-68587D01*
X72119Y-68577D01*
X72166Y-68577D01*
X72184Y-68587D01*
X72194Y-68596D01*
X72203Y-68615D01*
X72203Y-68662D01*
X72194Y-68680D01*
X72184Y-68690D01*
X72166Y-68699D01*
X72119Y-68699D01*
X72100Y-68690D01*
X72091Y-68680D01*
X72325Y-68502D02*
X72344Y-68502D01*
X72363Y-68512D01*
X72372Y-68521D01*
X72381Y-68540D01*
X72391Y-68577D01*
X72391Y-68624D01*
X72381Y-68662D01*
X72372Y-68680D01*
X72363Y-68690D01*
X72344Y-68699D01*
X72325Y-68699D01*
X72306Y-68690D01*
X72297Y-68680D01*
X72288Y-68662D01*
X72278Y-68624D01*
X72278Y-68577D01*
X72288Y-68540D01*
X72297Y-68521D01*
X72306Y-68512D01*
X72325Y-68502D01*
X72513Y-68502D02*
X72532Y-68502D01*
X72550Y-68512D01*
X72560Y-68521D01*
X72569Y-68540D01*
X72578Y-68577D01*
X72578Y-68624D01*
X72569Y-68662D01*
X72560Y-68680D01*
X72550Y-68690D01*
X72532Y-68699D01*
X72513Y-68699D01*
X72494Y-68690D01*
X72485Y-68680D01*
X72475Y-68662D01*
X72466Y-68624D01*
X72466Y-68577D01*
X72475Y-68540D01*
X72485Y-68521D01*
X72494Y-68512D01*
X72513Y-68502D01*
X78149Y-70082D02*
X78055Y-70148D01*
X78149Y-70195D02*
X77952Y-70195D01*
X77952Y-70120D01*
X77962Y-70101D01*
X77971Y-70092D01*
X77990Y-70082D01*
X78018Y-70082D01*
X78037Y-70092D01*
X78046Y-70101D01*
X78055Y-70120D01*
X78055Y-70195D01*
X77952Y-70017D02*
X77952Y-69895D01*
X78027Y-69960D01*
X78027Y-69932D01*
X78037Y-69913D01*
X78046Y-69904D01*
X78065Y-69895D01*
X78112Y-69895D01*
X78130Y-69904D01*
X78140Y-69913D01*
X78149Y-69932D01*
X78149Y-69989D01*
X78140Y-70007D01*
X78130Y-70017D01*
X77874Y-70181D02*
X77874Y-70293D01*
X77874Y-70237D02*
X77677Y-70237D01*
X77705Y-70256D01*
X77724Y-70275D01*
X77734Y-70293D01*
X77677Y-70059D02*
X77677Y-70040D01*
X77687Y-70021D01*
X77696Y-70012D01*
X77715Y-70003D01*
X77752Y-69993D01*
X77799Y-69993D01*
X77837Y-70003D01*
X77855Y-70012D01*
X77865Y-70021D01*
X77874Y-70040D01*
X77874Y-70059D01*
X77865Y-70078D01*
X77855Y-70087D01*
X77837Y-70096D01*
X77799Y-70106D01*
X77752Y-70106D01*
X77715Y-70096D01*
X77696Y-70087D01*
X77687Y-70078D01*
X77677Y-70059D01*
X77677Y-69871D02*
X77677Y-69853D01*
X77687Y-69834D01*
X77696Y-69824D01*
X77715Y-69815D01*
X77752Y-69806D01*
X77799Y-69806D01*
X77837Y-69815D01*
X77855Y-69824D01*
X77865Y-69834D01*
X77874Y-69853D01*
X77874Y-69871D01*
X77865Y-69890D01*
X77855Y-69899D01*
X77837Y-69909D01*
X77799Y-69918D01*
X77752Y-69918D01*
X77715Y-69909D01*
X77696Y-69899D01*
X77687Y-69890D01*
X77677Y-69871D01*
G54D12*
X76402Y-70130D02*
X76402Y-69930D01*
X76450Y-69930D01*
X76478Y-69940D01*
X76497Y-69959D01*
X76507Y-69978D01*
X76516Y-70016D01*
X76516Y-70045D01*
X76507Y-70083D01*
X76497Y-70102D01*
X76478Y-70121D01*
X76450Y-70130D01*
X76402Y-70130D01*
X76707Y-70130D02*
X76592Y-70130D01*
X76650Y-70130D02*
X76650Y-69930D01*
X76630Y-69959D01*
X76611Y-69978D01*
X76592Y-69988D01*
X76421Y-69330D02*
X76326Y-69330D01*
X76326Y-69130D01*
X76488Y-69226D02*
X76554Y-69226D01*
X76583Y-69330D02*
X76488Y-69330D01*
X76488Y-69130D01*
X76583Y-69130D01*
X76669Y-69330D02*
X76669Y-69130D01*
X76716Y-69130D01*
X76745Y-69140D01*
X76764Y-69159D01*
X76773Y-69178D01*
X76783Y-69216D01*
X76783Y-69245D01*
X76773Y-69283D01*
X76764Y-69302D01*
X76745Y-69321D01*
X76716Y-69330D01*
X76669Y-69330D01*
G54D11*
X77755Y-67759D02*
X78074Y-67759D01*
X78111Y-67741D01*
X78130Y-67722D01*
X78149Y-67684D01*
X78149Y-67609D01*
X78130Y-67572D01*
X78111Y-67553D01*
X78074Y-67534D01*
X77755Y-67534D01*
X78149Y-67141D02*
X78149Y-67366D01*
X78149Y-67253D02*
X77755Y-67253D01*
X77811Y-67291D01*
X77849Y-67328D01*
X77868Y-67366D01*
G54D12*
X66731Y-56231D02*
X66731Y-56474D01*
X66745Y-56502D01*
X66760Y-56517D01*
X66788Y-56531D01*
X66845Y-56531D01*
X66874Y-56517D01*
X66888Y-56502D01*
X66902Y-56474D01*
X66902Y-56231D01*
X67031Y-56260D02*
X67045Y-56245D01*
X67074Y-56231D01*
X67145Y-56231D01*
X67174Y-56245D01*
X67188Y-56260D01*
X67202Y-56288D01*
X67202Y-56317D01*
X67188Y-56360D01*
X67017Y-56531D01*
X67202Y-56531D01*
X65988Y-56031D02*
X65988Y-55731D01*
X66088Y-55945D01*
X66188Y-55731D01*
X66188Y-56031D01*
X66502Y-56002D02*
X66488Y-56017D01*
X66445Y-56031D01*
X66417Y-56031D01*
X66374Y-56017D01*
X66345Y-55988D01*
X66331Y-55960D01*
X66317Y-55902D01*
X66317Y-55860D01*
X66331Y-55802D01*
X66345Y-55774D01*
X66374Y-55745D01*
X66417Y-55731D01*
X66445Y-55731D01*
X66488Y-55745D01*
X66502Y-55760D01*
X66631Y-56031D02*
X66631Y-55731D01*
X66745Y-55731D01*
X66774Y-55745D01*
X66788Y-55760D01*
X66802Y-55788D01*
X66802Y-55831D01*
X66788Y-55860D01*
X66774Y-55874D01*
X66745Y-55888D01*
X66631Y-55888D01*
X66902Y-55731D02*
X67088Y-55731D01*
X66988Y-55845D01*
X67031Y-55845D01*
X67060Y-55860D01*
X67074Y-55874D01*
X67088Y-55902D01*
X67088Y-55974D01*
X67074Y-56002D01*
X67060Y-56017D01*
X67031Y-56031D01*
X66945Y-56031D01*
X66917Y-56017D01*
X66902Y-56002D01*
X67231Y-56031D02*
X67288Y-56031D01*
X67317Y-56017D01*
X67331Y-56002D01*
X67360Y-55960D01*
X67374Y-55902D01*
X67374Y-55788D01*
X67360Y-55760D01*
X67345Y-55745D01*
X67317Y-55731D01*
X67260Y-55731D01*
X67231Y-55745D01*
X67217Y-55760D01*
X67202Y-55788D01*
X67202Y-55860D01*
X67217Y-55888D01*
X67231Y-55902D01*
X67260Y-55917D01*
X67317Y-55917D01*
X67345Y-55902D01*
X67360Y-55888D01*
X67374Y-55860D01*
X67560Y-55731D02*
X67588Y-55731D01*
X67617Y-55745D01*
X67631Y-55760D01*
X67645Y-55788D01*
X67660Y-55845D01*
X67660Y-55917D01*
X67645Y-55974D01*
X67631Y-56002D01*
X67617Y-56017D01*
X67588Y-56031D01*
X67560Y-56031D01*
X67531Y-56017D01*
X67517Y-56002D01*
X67502Y-55974D01*
X67488Y-55917D01*
X67488Y-55845D01*
X67502Y-55788D01*
X67517Y-55760D01*
X67531Y-55745D01*
X67560Y-55731D01*
X67945Y-56031D02*
X67774Y-56031D01*
X67860Y-56031D02*
X67860Y-55731D01*
X67831Y-55774D01*
X67802Y-55802D01*
X67774Y-55817D01*
X72880Y-57527D02*
X73204Y-57527D01*
X73242Y-57505D01*
X73261Y-57484D01*
X73280Y-57441D01*
X73280Y-57355D01*
X73261Y-57313D01*
X73242Y-57291D01*
X73204Y-57270D01*
X72880Y-57270D01*
X73013Y-56863D02*
X73280Y-56863D01*
X72861Y-56970D02*
X73147Y-57077D01*
X73147Y-56798D01*
X72180Y-58355D02*
X72180Y-58279D01*
X72199Y-58241D01*
X72237Y-58203D01*
X72313Y-58184D01*
X72447Y-58184D01*
X72523Y-58203D01*
X72561Y-58241D01*
X72580Y-58279D01*
X72580Y-58355D01*
X72561Y-58394D01*
X72523Y-58432D01*
X72447Y-58451D01*
X72313Y-58451D01*
X72237Y-58432D01*
X72199Y-58394D01*
X72180Y-58355D01*
X72580Y-58013D02*
X72180Y-58013D01*
X72180Y-57860D01*
X72199Y-57822D01*
X72218Y-57803D01*
X72256Y-57784D01*
X72313Y-57784D01*
X72351Y-57803D01*
X72370Y-57822D01*
X72389Y-57860D01*
X72389Y-58013D01*
X72466Y-57632D02*
X72466Y-57441D01*
X72580Y-57670D02*
X72180Y-57536D01*
X72580Y-57403D01*
X72313Y-57098D02*
X72580Y-57098D01*
X72161Y-57194D02*
X72447Y-57289D01*
X72447Y-57041D01*
X72580Y-56679D02*
X72580Y-56908D01*
X72580Y-56794D02*
X72180Y-56794D01*
X72237Y-56832D01*
X72275Y-56870D01*
X72294Y-56908D01*
X72180Y-56546D02*
X72180Y-56279D01*
X72580Y-56451D01*
X72180Y-56051D02*
X72180Y-56013D01*
X72199Y-55974D01*
X72218Y-55955D01*
X72256Y-55936D01*
X72332Y-55917D01*
X72428Y-55917D01*
X72504Y-55936D01*
X72542Y-55955D01*
X72561Y-55974D01*
X72580Y-56013D01*
X72580Y-56051D01*
X72561Y-56089D01*
X72542Y-56108D01*
X72504Y-56127D01*
X72428Y-56146D01*
X72332Y-56146D01*
X72256Y-56127D01*
X72218Y-56108D01*
X72199Y-56089D01*
X72180Y-56051D01*
X72623Y-54773D02*
X72523Y-54630D01*
X72451Y-54773D02*
X72451Y-54473D01*
X72566Y-54473D01*
X72594Y-54487D01*
X72608Y-54502D01*
X72623Y-54530D01*
X72623Y-54573D01*
X72608Y-54602D01*
X72594Y-54616D01*
X72566Y-54630D01*
X72451Y-54630D01*
X72737Y-54502D02*
X72751Y-54487D01*
X72780Y-54473D01*
X72851Y-54473D01*
X72880Y-54487D01*
X72894Y-54502D01*
X72908Y-54530D01*
X72908Y-54559D01*
X72894Y-54602D01*
X72723Y-54773D01*
X72908Y-54773D01*
X73166Y-54473D02*
X73108Y-54473D01*
X73080Y-54487D01*
X73066Y-54502D01*
X73037Y-54544D01*
X73023Y-54602D01*
X73023Y-54716D01*
X73037Y-54744D01*
X73051Y-54759D01*
X73080Y-54773D01*
X73137Y-54773D01*
X73166Y-54759D01*
X73180Y-54744D01*
X73194Y-54716D01*
X73194Y-54644D01*
X73180Y-54616D01*
X73166Y-54602D01*
X73137Y-54587D01*
X73080Y-54587D01*
X73051Y-54602D01*
X73037Y-54616D01*
X73023Y-54644D01*
X70338Y-55564D02*
X70195Y-55664D01*
X70338Y-55736D02*
X70038Y-55736D01*
X70038Y-55622D01*
X70052Y-55593D01*
X70067Y-55579D01*
X70095Y-55564D01*
X70138Y-55564D01*
X70167Y-55579D01*
X70181Y-55593D01*
X70195Y-55622D01*
X70195Y-55736D01*
X70067Y-55450D02*
X70052Y-55436D01*
X70038Y-55407D01*
X70038Y-55336D01*
X70052Y-55307D01*
X70067Y-55293D01*
X70095Y-55279D01*
X70124Y-55279D01*
X70167Y-55293D01*
X70338Y-55464D01*
X70338Y-55279D01*
X70138Y-55022D02*
X70338Y-55022D01*
X70024Y-55093D02*
X70238Y-55164D01*
X70238Y-54979D01*
G54D20*
X80839Y-58010D02*
X80773Y-57916D01*
X80726Y-58010D02*
X80726Y-57813D01*
X80801Y-57813D01*
X80820Y-57823D01*
X80829Y-57832D01*
X80839Y-57851D01*
X80839Y-57879D01*
X80829Y-57898D01*
X80820Y-57907D01*
X80801Y-57916D01*
X80726Y-57916D01*
X80914Y-57832D02*
X80923Y-57823D01*
X80942Y-57813D01*
X80989Y-57813D01*
X81008Y-57823D01*
X81017Y-57832D01*
X81026Y-57851D01*
X81026Y-57870D01*
X81017Y-57898D01*
X80905Y-58010D01*
X81026Y-58010D01*
X81139Y-57898D02*
X81120Y-57888D01*
X81111Y-57879D01*
X81102Y-57860D01*
X81102Y-57851D01*
X81111Y-57832D01*
X81120Y-57823D01*
X81139Y-57813D01*
X81177Y-57813D01*
X81195Y-57823D01*
X81205Y-57832D01*
X81214Y-57851D01*
X81214Y-57860D01*
X81205Y-57879D01*
X81195Y-57888D01*
X81177Y-57898D01*
X81139Y-57898D01*
X81120Y-57907D01*
X81111Y-57916D01*
X81102Y-57935D01*
X81102Y-57973D01*
X81111Y-57991D01*
X81120Y-58001D01*
X81139Y-58010D01*
X81177Y-58010D01*
X81195Y-58001D01*
X81205Y-57991D01*
X81214Y-57973D01*
X81214Y-57935D01*
X81205Y-57916D01*
X81195Y-57907D01*
X81177Y-57898D01*
X81026Y-58285D02*
X80961Y-58191D01*
X80914Y-58285D02*
X80914Y-58088D01*
X80989Y-58088D01*
X81008Y-58098D01*
X81017Y-58107D01*
X81026Y-58126D01*
X81026Y-58154D01*
X81017Y-58173D01*
X81008Y-58182D01*
X80989Y-58191D01*
X80914Y-58191D01*
X74790Y-58732D02*
X74696Y-58798D01*
X74790Y-58845D02*
X74593Y-58845D01*
X74593Y-58770D01*
X74603Y-58751D01*
X74612Y-58742D01*
X74631Y-58732D01*
X74659Y-58732D01*
X74678Y-58742D01*
X74687Y-58751D01*
X74696Y-58770D01*
X74696Y-58845D01*
X74612Y-58657D02*
X74603Y-58648D01*
X74593Y-58629D01*
X74593Y-58582D01*
X74603Y-58563D01*
X74612Y-58554D01*
X74631Y-58545D01*
X74650Y-58545D01*
X74678Y-58554D01*
X74790Y-58666D01*
X74790Y-58545D01*
X74593Y-58479D02*
X74593Y-58348D01*
X74790Y-58432D01*
X75065Y-58545D02*
X74971Y-58610D01*
X75065Y-58657D02*
X74868Y-58657D01*
X74868Y-58582D01*
X74878Y-58563D01*
X74887Y-58554D01*
X74906Y-58545D01*
X74934Y-58545D01*
X74953Y-58554D01*
X74962Y-58563D01*
X74971Y-58582D01*
X74971Y-58657D01*
X74748Y-55498D02*
X74654Y-55564D01*
X74748Y-55611D02*
X74551Y-55611D01*
X74551Y-55536D01*
X74561Y-55517D01*
X74570Y-55508D01*
X74589Y-55498D01*
X74617Y-55498D01*
X74636Y-55508D01*
X74645Y-55517D01*
X74654Y-55536D01*
X74654Y-55611D01*
X74570Y-55423D02*
X74561Y-55414D01*
X74551Y-55395D01*
X74551Y-55348D01*
X74561Y-55329D01*
X74570Y-55320D01*
X74589Y-55311D01*
X74608Y-55311D01*
X74636Y-55320D01*
X74748Y-55432D01*
X74748Y-55311D01*
X74748Y-55217D02*
X74748Y-55179D01*
X74739Y-55160D01*
X74729Y-55151D01*
X74701Y-55132D01*
X74664Y-55123D01*
X74589Y-55123D01*
X74570Y-55132D01*
X74561Y-55142D01*
X74551Y-55160D01*
X74551Y-55198D01*
X74561Y-55217D01*
X74570Y-55226D01*
X74589Y-55235D01*
X74636Y-55235D01*
X74654Y-55226D01*
X74664Y-55217D01*
X74673Y-55198D01*
X74673Y-55160D01*
X74664Y-55142D01*
X74654Y-55132D01*
X74636Y-55123D01*
X75023Y-55311D02*
X74929Y-55376D01*
X75023Y-55423D02*
X74826Y-55423D01*
X74826Y-55348D01*
X74836Y-55329D01*
X74845Y-55320D01*
X74864Y-55311D01*
X74892Y-55311D01*
X74911Y-55320D01*
X74920Y-55329D01*
X74929Y-55348D01*
X74929Y-55423D01*
X80829Y-57010D02*
X80763Y-56916D01*
X80716Y-57010D02*
X80716Y-56813D01*
X80791Y-56813D01*
X80810Y-56823D01*
X80819Y-56832D01*
X80829Y-56851D01*
X80829Y-56879D01*
X80819Y-56898D01*
X80810Y-56907D01*
X80791Y-56916D01*
X80716Y-56916D01*
X80998Y-56879D02*
X80998Y-57010D01*
X80951Y-56804D02*
X80904Y-56945D01*
X81026Y-56945D01*
X81185Y-56879D02*
X81185Y-57010D01*
X81138Y-56804D02*
X81092Y-56945D01*
X81213Y-56945D01*
X81016Y-57285D02*
X80951Y-57191D01*
X80904Y-57285D02*
X80904Y-57088D01*
X80979Y-57088D01*
X80998Y-57098D01*
X81007Y-57107D01*
X81016Y-57126D01*
X81016Y-57154D01*
X81007Y-57173D01*
X80998Y-57182D01*
X80979Y-57191D01*
X80904Y-57191D01*
X80799Y-56050D02*
X80733Y-55956D01*
X80686Y-56050D02*
X80686Y-55853D01*
X80761Y-55853D01*
X80780Y-55863D01*
X80789Y-55872D01*
X80799Y-55891D01*
X80799Y-55919D01*
X80789Y-55938D01*
X80780Y-55947D01*
X80761Y-55956D01*
X80686Y-55956D01*
X80968Y-55919D02*
X80968Y-56050D01*
X80921Y-55844D02*
X80874Y-55985D01*
X80996Y-55985D01*
X81165Y-55853D02*
X81071Y-55853D01*
X81062Y-55947D01*
X81071Y-55938D01*
X81090Y-55928D01*
X81137Y-55928D01*
X81155Y-55938D01*
X81165Y-55947D01*
X81174Y-55966D01*
X81174Y-56013D01*
X81165Y-56031D01*
X81155Y-56041D01*
X81137Y-56050D01*
X81090Y-56050D01*
X81071Y-56041D01*
X81062Y-56031D01*
X80986Y-56325D02*
X80921Y-56231D01*
X80874Y-56325D02*
X80874Y-56128D01*
X80949Y-56128D01*
X80968Y-56138D01*
X80977Y-56147D01*
X80986Y-56166D01*
X80986Y-56194D01*
X80977Y-56213D01*
X80968Y-56222D01*
X80949Y-56231D01*
X80874Y-56231D01*
G54D17*
X80723Y-57379D02*
X80323Y-57379D01*
X80323Y-57226D01*
X80342Y-57188D01*
X80362Y-57169D01*
X80400Y-57150D01*
X80457Y-57150D01*
X80495Y-57169D01*
X80514Y-57188D01*
X80533Y-57226D01*
X80533Y-57379D01*
X80323Y-57017D02*
X80323Y-56769D01*
X80476Y-56903D01*
X80476Y-56845D01*
X80495Y-56807D01*
X80514Y-56788D01*
X80552Y-56769D01*
X80647Y-56769D01*
X80685Y-56788D01*
X80704Y-56807D01*
X80723Y-56845D01*
X80723Y-56960D01*
X80704Y-56998D01*
X80685Y-57017D01*
G54D11*
X90959Y-71915D02*
X90565Y-71915D01*
X90565Y-71765D01*
X90584Y-71728D01*
X90603Y-71709D01*
X90640Y-71690D01*
X90696Y-71690D01*
X90734Y-71709D01*
X90753Y-71728D01*
X90771Y-71765D01*
X90771Y-71915D01*
X90565Y-71334D02*
X90565Y-71521D01*
X90753Y-71540D01*
X90734Y-71521D01*
X90715Y-71484D01*
X90715Y-71390D01*
X90734Y-71353D01*
X90753Y-71334D01*
X90790Y-71315D01*
X90884Y-71315D01*
X90921Y-71334D01*
X90940Y-71353D01*
X90959Y-71390D01*
X90959Y-71484D01*
X90940Y-71521D01*
X90921Y-71540D01*
X90799Y-64790D02*
X90405Y-64790D01*
X90405Y-64640D01*
X90424Y-64603D01*
X90443Y-64584D01*
X90480Y-64565D01*
X90536Y-64565D01*
X90574Y-64584D01*
X90593Y-64603D01*
X90611Y-64640D01*
X90611Y-64790D01*
X90536Y-64228D02*
X90799Y-64228D01*
X90386Y-64321D02*
X90668Y-64415D01*
X90668Y-64171D01*
X34052Y-52016D02*
X33659Y-52016D01*
X33659Y-51866D01*
X33677Y-51829D01*
X33696Y-51810D01*
X33734Y-51791D01*
X33790Y-51791D01*
X33827Y-51810D01*
X33846Y-51829D01*
X33865Y-51866D01*
X33865Y-52016D01*
X34052Y-51416D02*
X34052Y-51641D01*
X34052Y-51529D02*
X33659Y-51529D01*
X33715Y-51566D01*
X33752Y-51604D01*
X33771Y-51641D01*
G54D20*
X54054Y-67726D02*
X53960Y-67792D01*
X54054Y-67839D02*
X53857Y-67839D01*
X53857Y-67764D01*
X53867Y-67745D01*
X53876Y-67736D01*
X53895Y-67726D01*
X53923Y-67726D01*
X53942Y-67736D01*
X53951Y-67745D01*
X53960Y-67764D01*
X53960Y-67839D01*
X53876Y-67651D02*
X53867Y-67642D01*
X53857Y-67623D01*
X53857Y-67576D01*
X53867Y-67557D01*
X53876Y-67548D01*
X53895Y-67539D01*
X53914Y-67539D01*
X53942Y-67548D01*
X54054Y-67660D01*
X54054Y-67539D01*
X53876Y-67463D02*
X53867Y-67454D01*
X53857Y-67435D01*
X53857Y-67388D01*
X53867Y-67370D01*
X53876Y-67360D01*
X53895Y-67351D01*
X53914Y-67351D01*
X53942Y-67360D01*
X54054Y-67473D01*
X54054Y-67351D01*
X54329Y-67539D02*
X54235Y-67604D01*
X54329Y-67651D02*
X54132Y-67651D01*
X54132Y-67576D01*
X54142Y-67557D01*
X54151Y-67548D01*
X54170Y-67539D01*
X54198Y-67539D01*
X54217Y-67548D01*
X54226Y-67557D01*
X54235Y-67576D01*
X54235Y-67651D01*
G54D12*
X61115Y-61195D02*
X61115Y-61559D01*
X61134Y-61602D01*
X61153Y-61623D01*
X61191Y-61645D01*
X61267Y-61645D01*
X61305Y-61623D01*
X61324Y-61602D01*
X61343Y-61559D01*
X61343Y-61195D01*
X61705Y-61195D02*
X61629Y-61195D01*
X61591Y-61216D01*
X61572Y-61238D01*
X61534Y-61302D01*
X61515Y-61388D01*
X61515Y-61559D01*
X61534Y-61602D01*
X61553Y-61623D01*
X61591Y-61645D01*
X61667Y-61645D01*
X61705Y-61623D01*
X61724Y-61602D01*
X61743Y-61559D01*
X61743Y-61452D01*
X61724Y-61409D01*
X61705Y-61388D01*
X61667Y-61366D01*
X61591Y-61366D01*
X61553Y-61388D01*
X61534Y-61409D01*
X61515Y-61452D01*
X60124Y-60624D02*
X60124Y-60224D01*
X60258Y-60510D01*
X60391Y-60224D01*
X60391Y-60624D01*
X60810Y-60586D02*
X60791Y-60605D01*
X60734Y-60624D01*
X60696Y-60624D01*
X60639Y-60605D01*
X60600Y-60567D01*
X60581Y-60529D01*
X60562Y-60453D01*
X60562Y-60396D01*
X60581Y-60320D01*
X60600Y-60282D01*
X60639Y-60243D01*
X60696Y-60224D01*
X60734Y-60224D01*
X60791Y-60243D01*
X60810Y-60263D01*
X60981Y-60624D02*
X60981Y-60224D01*
X61134Y-60224D01*
X61172Y-60243D01*
X61191Y-60263D01*
X61210Y-60301D01*
X61210Y-60358D01*
X61191Y-60396D01*
X61172Y-60415D01*
X61134Y-60434D01*
X60981Y-60434D01*
X61553Y-60358D02*
X61553Y-60624D01*
X61458Y-60205D02*
X61362Y-60491D01*
X61610Y-60491D01*
X61820Y-60396D02*
X61781Y-60377D01*
X61762Y-60358D01*
X61743Y-60320D01*
X61743Y-60301D01*
X61762Y-60263D01*
X61781Y-60243D01*
X61820Y-60224D01*
X61896Y-60224D01*
X61934Y-60243D01*
X61953Y-60263D01*
X61972Y-60301D01*
X61972Y-60320D01*
X61953Y-60358D01*
X61934Y-60377D01*
X61896Y-60396D01*
X61820Y-60396D01*
X61781Y-60415D01*
X61762Y-60434D01*
X61743Y-60472D01*
X61743Y-60548D01*
X61762Y-60586D01*
X61781Y-60605D01*
X61820Y-60624D01*
X61896Y-60624D01*
X61934Y-60605D01*
X61953Y-60586D01*
X61972Y-60548D01*
X61972Y-60472D01*
X61953Y-60434D01*
X61934Y-60415D01*
X61896Y-60396D01*
X62220Y-60224D02*
X62258Y-60224D01*
X62296Y-60243D01*
X62315Y-60263D01*
X62334Y-60301D01*
X62353Y-60377D01*
X62353Y-60472D01*
X62334Y-60548D01*
X62315Y-60586D01*
X62296Y-60605D01*
X62258Y-60624D01*
X62220Y-60624D01*
X62181Y-60605D01*
X62162Y-60586D01*
X62143Y-60548D01*
X62124Y-60472D01*
X62124Y-60377D01*
X62143Y-60301D01*
X62162Y-60263D01*
X62181Y-60243D01*
X62220Y-60224D01*
X62734Y-60624D02*
X62505Y-60624D01*
X62620Y-60624D02*
X62620Y-60224D01*
X62581Y-60282D01*
X62543Y-60320D01*
X62505Y-60339D01*
G54D11*
X85859Y-62225D02*
X85465Y-62225D01*
X85465Y-62131D01*
X85484Y-62075D01*
X85521Y-62038D01*
X85559Y-62019D01*
X85634Y-62000D01*
X85690Y-62000D01*
X85765Y-62019D01*
X85803Y-62038D01*
X85840Y-62075D01*
X85859Y-62131D01*
X85859Y-62225D01*
X85465Y-61644D02*
X85465Y-61831D01*
X85653Y-61850D01*
X85634Y-61831D01*
X85615Y-61794D01*
X85615Y-61700D01*
X85634Y-61663D01*
X85653Y-61644D01*
X85690Y-61625D01*
X85784Y-61625D01*
X85821Y-61644D01*
X85840Y-61663D01*
X85859Y-61700D01*
X85859Y-61794D01*
X85840Y-61831D01*
X85821Y-61850D01*
X87840Y-64122D02*
X87859Y-64065D01*
X87859Y-63972D01*
X87840Y-63934D01*
X87821Y-63916D01*
X87784Y-63897D01*
X87746Y-63897D01*
X87709Y-63916D01*
X87690Y-63934D01*
X87671Y-63972D01*
X87653Y-64047D01*
X87634Y-64084D01*
X87615Y-64103D01*
X87578Y-64122D01*
X87540Y-64122D01*
X87503Y-64103D01*
X87484Y-64084D01*
X87465Y-64047D01*
X87465Y-63953D01*
X87484Y-63897D01*
X87840Y-63559D02*
X87859Y-63597D01*
X87859Y-63672D01*
X87840Y-63709D01*
X87821Y-63728D01*
X87784Y-63747D01*
X87671Y-63747D01*
X87634Y-63728D01*
X87615Y-63709D01*
X87596Y-63672D01*
X87596Y-63597D01*
X87615Y-63559D01*
X87859Y-63391D02*
X87465Y-63391D01*
X87859Y-63222D02*
X87653Y-63222D01*
X87615Y-63241D01*
X87596Y-63278D01*
X87596Y-63334D01*
X87615Y-63372D01*
X87634Y-63391D01*
X87859Y-62978D02*
X87840Y-63016D01*
X87821Y-63034D01*
X87784Y-63053D01*
X87671Y-63053D01*
X87634Y-63034D01*
X87615Y-63016D01*
X87596Y-62978D01*
X87596Y-62922D01*
X87615Y-62884D01*
X87634Y-62866D01*
X87671Y-62847D01*
X87784Y-62847D01*
X87821Y-62866D01*
X87840Y-62884D01*
X87859Y-62922D01*
X87859Y-62978D01*
X87596Y-62734D02*
X87596Y-62584D01*
X87465Y-62678D02*
X87803Y-62678D01*
X87840Y-62659D01*
X87859Y-62622D01*
X87859Y-62584D01*
X87596Y-62509D02*
X87596Y-62359D01*
X87465Y-62453D02*
X87803Y-62453D01*
X87840Y-62434D01*
X87859Y-62397D01*
X87859Y-62359D01*
X87859Y-62228D02*
X87465Y-62228D01*
X87709Y-62191D02*
X87859Y-62078D01*
X87596Y-62078D02*
X87746Y-62228D01*
X87596Y-61947D02*
X87859Y-61853D01*
X87596Y-61760D02*
X87859Y-61853D01*
X87953Y-61891D01*
X87971Y-61910D01*
X87990Y-61947D01*
X87859Y-61310D02*
X87465Y-61310D01*
X87465Y-61216D01*
X87484Y-61160D01*
X87521Y-61122D01*
X87559Y-61103D01*
X87634Y-61085D01*
X87690Y-61085D01*
X87765Y-61103D01*
X87803Y-61122D01*
X87840Y-61160D01*
X87859Y-61216D01*
X87859Y-61310D01*
X87859Y-60916D02*
X87596Y-60916D01*
X87465Y-60916D02*
X87484Y-60935D01*
X87503Y-60916D01*
X87484Y-60897D01*
X87465Y-60916D01*
X87503Y-60916D01*
X87859Y-60672D02*
X87840Y-60710D01*
X87821Y-60728D01*
X87784Y-60747D01*
X87671Y-60747D01*
X87634Y-60728D01*
X87615Y-60710D01*
X87596Y-60672D01*
X87596Y-60616D01*
X87615Y-60578D01*
X87634Y-60560D01*
X87671Y-60541D01*
X87784Y-60541D01*
X87821Y-60560D01*
X87840Y-60578D01*
X87859Y-60616D01*
X87859Y-60672D01*
X87859Y-60203D02*
X87465Y-60203D01*
X87840Y-60203D02*
X87859Y-60241D01*
X87859Y-60316D01*
X87840Y-60353D01*
X87821Y-60372D01*
X87784Y-60391D01*
X87671Y-60391D01*
X87634Y-60372D01*
X87615Y-60353D01*
X87596Y-60316D01*
X87596Y-60241D01*
X87615Y-60203D01*
X87840Y-59866D02*
X87859Y-59904D01*
X87859Y-59979D01*
X87840Y-60016D01*
X87803Y-60035D01*
X87653Y-60035D01*
X87615Y-60016D01*
X87596Y-59979D01*
X87596Y-59904D01*
X87615Y-59866D01*
X87653Y-59847D01*
X87690Y-59847D01*
X87728Y-60035D01*
G54D12*
X71857Y-62341D02*
X71757Y-62198D01*
X71685Y-62341D02*
X71685Y-62041D01*
X71800Y-62041D01*
X71828Y-62055D01*
X71842Y-62070D01*
X71857Y-62098D01*
X71857Y-62141D01*
X71842Y-62170D01*
X71828Y-62184D01*
X71800Y-62198D01*
X71685Y-62198D01*
X71957Y-62041D02*
X72142Y-62041D01*
X72042Y-62155D01*
X72085Y-62155D01*
X72114Y-62170D01*
X72128Y-62184D01*
X72142Y-62212D01*
X72142Y-62284D01*
X72128Y-62312D01*
X72114Y-62327D01*
X72085Y-62341D01*
X72000Y-62341D01*
X71971Y-62327D01*
X71957Y-62312D01*
X72242Y-62041D02*
X72428Y-62041D01*
X72328Y-62155D01*
X72371Y-62155D01*
X72400Y-62170D01*
X72414Y-62184D01*
X72428Y-62212D01*
X72428Y-62284D01*
X72414Y-62312D01*
X72400Y-62327D01*
X72371Y-62341D01*
X72285Y-62341D01*
X72257Y-62327D01*
X72242Y-62312D01*
G54D20*
X63175Y-61146D02*
X63185Y-61156D01*
X63194Y-61184D01*
X63194Y-61202D01*
X63185Y-61231D01*
X63166Y-61249D01*
X63147Y-61259D01*
X63110Y-61268D01*
X63082Y-61268D01*
X63044Y-61259D01*
X63025Y-61249D01*
X63007Y-61231D01*
X62997Y-61202D01*
X62997Y-61184D01*
X63007Y-61156D01*
X63016Y-61146D01*
X63194Y-60959D02*
X63194Y-61071D01*
X63194Y-61015D02*
X62997Y-61015D01*
X63025Y-61034D01*
X63044Y-61052D01*
X63054Y-61071D01*
X63016Y-60883D02*
X63007Y-60874D01*
X62997Y-60855D01*
X62997Y-60808D01*
X63007Y-60790D01*
X63016Y-60780D01*
X63035Y-60771D01*
X63054Y-60771D01*
X63082Y-60780D01*
X63194Y-60893D01*
X63194Y-60771D01*
X62900Y-60959D02*
X62910Y-60968D01*
X62919Y-60996D01*
X62919Y-61015D01*
X62910Y-61043D01*
X62891Y-61062D01*
X62872Y-61071D01*
X62835Y-61080D01*
X62807Y-61080D01*
X62769Y-61071D01*
X62750Y-61062D01*
X62732Y-61043D01*
X62722Y-61015D01*
X62722Y-60996D01*
X62732Y-60968D01*
X62741Y-60959D01*
G54D17*
X79671Y-64350D02*
X79633Y-64326D01*
X79595Y-64278D01*
X79538Y-64207D01*
X79500Y-64183D01*
X79462Y-64183D01*
X79481Y-64302D02*
X79443Y-64278D01*
X79405Y-64230D01*
X79386Y-64135D01*
X79386Y-63969D01*
X79405Y-63873D01*
X79443Y-63826D01*
X79481Y-63802D01*
X79557Y-63802D01*
X79595Y-63826D01*
X79633Y-63873D01*
X79652Y-63969D01*
X79652Y-64135D01*
X79633Y-64230D01*
X79595Y-64278D01*
X79557Y-64302D01*
X79481Y-64302D01*
X79995Y-63969D02*
X79995Y-64302D01*
X79900Y-63778D02*
X79805Y-64135D01*
X80052Y-64135D01*
X78967Y-61111D02*
X78967Y-60711D01*
X79195Y-61111D01*
X79195Y-60711D01*
X79386Y-61111D02*
X79386Y-60711D01*
X79519Y-60997D01*
X79652Y-60711D01*
X79652Y-61111D01*
X79919Y-60711D02*
X79995Y-60711D01*
X80033Y-60730D01*
X80071Y-60769D01*
X80090Y-60845D01*
X80090Y-60978D01*
X80071Y-61054D01*
X80033Y-61092D01*
X79995Y-61111D01*
X79919Y-61111D01*
X79881Y-61092D01*
X79843Y-61054D01*
X79824Y-60978D01*
X79824Y-60845D01*
X79843Y-60769D01*
X79881Y-60730D01*
X79919Y-60711D01*
X80243Y-61092D02*
X80300Y-61111D01*
X80395Y-61111D01*
X80433Y-61092D01*
X80452Y-61073D01*
X80471Y-61035D01*
X80471Y-60997D01*
X80452Y-60959D01*
X80433Y-60940D01*
X80395Y-60921D01*
X80319Y-60902D01*
X80281Y-60883D01*
X80262Y-60864D01*
X80243Y-60826D01*
X80243Y-60788D01*
X80262Y-60750D01*
X80281Y-60730D01*
X80319Y-60711D01*
X80414Y-60711D01*
X80471Y-60730D01*
X67567Y-63530D02*
X67529Y-63506D01*
X67491Y-63458D01*
X67434Y-63387D01*
X67396Y-63363D01*
X67358Y-63363D01*
X67377Y-63482D02*
X67339Y-63458D01*
X67301Y-63410D01*
X67282Y-63315D01*
X67282Y-63149D01*
X67301Y-63053D01*
X67339Y-63006D01*
X67377Y-62982D01*
X67453Y-62982D01*
X67491Y-63006D01*
X67529Y-63053D01*
X67548Y-63149D01*
X67548Y-63315D01*
X67529Y-63410D01*
X67491Y-63458D01*
X67453Y-63482D01*
X67377Y-63482D01*
X67682Y-62982D02*
X67929Y-62982D01*
X67796Y-63172D01*
X67853Y-63172D01*
X67891Y-63196D01*
X67910Y-63220D01*
X67929Y-63268D01*
X67929Y-63387D01*
X67910Y-63434D01*
X67891Y-63458D01*
X67853Y-63482D01*
X67739Y-63482D01*
X67701Y-63458D01*
X67682Y-63434D01*
X66863Y-60291D02*
X66863Y-59891D01*
X67091Y-60291D01*
X67091Y-59891D01*
X67282Y-60291D02*
X67282Y-59891D01*
X67415Y-60177D01*
X67548Y-59891D01*
X67548Y-60291D01*
X67815Y-59891D02*
X67891Y-59891D01*
X67929Y-59910D01*
X67967Y-59949D01*
X67986Y-60025D01*
X67986Y-60158D01*
X67967Y-60234D01*
X67929Y-60272D01*
X67891Y-60291D01*
X67815Y-60291D01*
X67777Y-60272D01*
X67739Y-60234D01*
X67720Y-60158D01*
X67720Y-60025D01*
X67739Y-59949D01*
X67777Y-59910D01*
X67815Y-59891D01*
X68139Y-60272D02*
X68196Y-60291D01*
X68291Y-60291D01*
X68329Y-60272D01*
X68348Y-60253D01*
X68367Y-60215D01*
X68367Y-60177D01*
X68348Y-60139D01*
X68329Y-60120D01*
X68291Y-60101D01*
X68215Y-60082D01*
X68177Y-60063D01*
X68158Y-60044D01*
X68139Y-60006D01*
X68139Y-59968D01*
X68158Y-59930D01*
X68177Y-59910D01*
X68215Y-59891D01*
X68310Y-59891D01*
X68367Y-59910D01*
G54D12*
X37204Y-53411D02*
X37072Y-53411D01*
X37072Y-53135D01*
X37282Y-53162D02*
X37295Y-53149D01*
X37322Y-53135D01*
X37387Y-53135D01*
X37414Y-53149D01*
X37427Y-53162D01*
X37440Y-53188D01*
X37440Y-53214D01*
X37427Y-53254D01*
X37269Y-53411D01*
X37440Y-53411D01*
X36248Y-54011D02*
X36248Y-53735D01*
X36379Y-54011D02*
X36379Y-53735D01*
X36537Y-54011D01*
X36537Y-53735D01*
X36668Y-54011D02*
X36668Y-53735D01*
X36734Y-53735D01*
X36773Y-53749D01*
X36799Y-53775D01*
X36812Y-53801D01*
X36825Y-53854D01*
X36825Y-53893D01*
X36812Y-53945D01*
X36799Y-53972D01*
X36773Y-53998D01*
X36734Y-54011D01*
X36668Y-54011D01*
X36944Y-53735D02*
X36944Y-53959D01*
X36957Y-53985D01*
X36970Y-53998D01*
X36996Y-54011D01*
X37049Y-54011D01*
X37075Y-53998D01*
X37088Y-53985D01*
X37101Y-53959D01*
X37101Y-53735D01*
X37390Y-53985D02*
X37377Y-53998D01*
X37337Y-54011D01*
X37311Y-54011D01*
X37272Y-53998D01*
X37245Y-53972D01*
X37232Y-53945D01*
X37219Y-53893D01*
X37219Y-53854D01*
X37232Y-53801D01*
X37245Y-53775D01*
X37272Y-53749D01*
X37311Y-53735D01*
X37337Y-53735D01*
X37377Y-53749D01*
X37390Y-53762D01*
X37469Y-53735D02*
X37626Y-53735D01*
X37547Y-54011D02*
X37547Y-53735D01*
X37770Y-53735D02*
X37823Y-53735D01*
X37849Y-53749D01*
X37875Y-53775D01*
X37888Y-53827D01*
X37888Y-53919D01*
X37875Y-53972D01*
X37849Y-53998D01*
X37823Y-54011D01*
X37770Y-54011D01*
X37744Y-53998D01*
X37718Y-53972D01*
X37705Y-53919D01*
X37705Y-53827D01*
X37718Y-53775D01*
X37744Y-53749D01*
X37770Y-53735D01*
X38164Y-54011D02*
X38072Y-53880D01*
X38007Y-54011D02*
X38007Y-53735D01*
X38112Y-53735D01*
X38138Y-53749D01*
X38151Y-53762D01*
X38164Y-53788D01*
X38164Y-53827D01*
X38151Y-53854D01*
X38138Y-53867D01*
X38112Y-53880D01*
X38007Y-53880D01*
X37250Y-52292D02*
X37235Y-52307D01*
X37192Y-52321D01*
X37164Y-52321D01*
X37121Y-52307D01*
X37092Y-52278D01*
X37078Y-52250D01*
X37064Y-52192D01*
X37064Y-52150D01*
X37078Y-52092D01*
X37092Y-52064D01*
X37121Y-52035D01*
X37164Y-52021D01*
X37192Y-52021D01*
X37235Y-52035D01*
X37250Y-52050D01*
X37364Y-52050D02*
X37378Y-52035D01*
X37407Y-52021D01*
X37478Y-52021D01*
X37507Y-52035D01*
X37521Y-52050D01*
X37535Y-52078D01*
X37535Y-52107D01*
X37521Y-52150D01*
X37350Y-52321D01*
X37535Y-52321D01*
X37250Y-50492D02*
X37235Y-50507D01*
X37192Y-50521D01*
X37164Y-50521D01*
X37121Y-50507D01*
X37092Y-50478D01*
X37078Y-50450D01*
X37064Y-50392D01*
X37064Y-50350D01*
X37078Y-50292D01*
X37092Y-50264D01*
X37121Y-50235D01*
X37164Y-50221D01*
X37192Y-50221D01*
X37235Y-50235D01*
X37250Y-50250D01*
X37350Y-50221D02*
X37535Y-50221D01*
X37435Y-50335D01*
X37478Y-50335D01*
X37507Y-50350D01*
X37521Y-50364D01*
X37535Y-50392D01*
X37535Y-50464D01*
X37521Y-50492D01*
X37507Y-50507D01*
X37478Y-50521D01*
X37392Y-50521D01*
X37364Y-50507D01*
X37350Y-50492D01*
X36504Y-48511D02*
X36372Y-48511D01*
X36372Y-48235D01*
X36569Y-48235D02*
X36740Y-48235D01*
X36648Y-48340D01*
X36687Y-48340D01*
X36714Y-48354D01*
X36727Y-48367D01*
X36740Y-48393D01*
X36740Y-48459D01*
X36727Y-48485D01*
X36714Y-48498D01*
X36687Y-48511D01*
X36609Y-48511D01*
X36582Y-48498D01*
X36569Y-48485D01*
X35548Y-49111D02*
X35548Y-48835D01*
X35679Y-49111D02*
X35679Y-48835D01*
X35837Y-49111D01*
X35837Y-48835D01*
X35968Y-49111D02*
X35968Y-48835D01*
X36034Y-48835D01*
X36073Y-48849D01*
X36099Y-48875D01*
X36112Y-48901D01*
X36125Y-48954D01*
X36125Y-48993D01*
X36112Y-49045D01*
X36099Y-49072D01*
X36073Y-49098D01*
X36034Y-49111D01*
X35968Y-49111D01*
X36244Y-48835D02*
X36244Y-49059D01*
X36257Y-49085D01*
X36270Y-49098D01*
X36296Y-49111D01*
X36349Y-49111D01*
X36375Y-49098D01*
X36388Y-49085D01*
X36401Y-49059D01*
X36401Y-48835D01*
X36690Y-49085D02*
X36677Y-49098D01*
X36637Y-49111D01*
X36611Y-49111D01*
X36572Y-49098D01*
X36545Y-49072D01*
X36532Y-49045D01*
X36519Y-48993D01*
X36519Y-48954D01*
X36532Y-48901D01*
X36545Y-48875D01*
X36572Y-48849D01*
X36611Y-48835D01*
X36637Y-48835D01*
X36677Y-48849D01*
X36690Y-48862D01*
X36769Y-48835D02*
X36926Y-48835D01*
X36847Y-49111D02*
X36847Y-48835D01*
X37070Y-48835D02*
X37123Y-48835D01*
X37149Y-48849D01*
X37175Y-48875D01*
X37188Y-48927D01*
X37188Y-49019D01*
X37175Y-49072D01*
X37149Y-49098D01*
X37123Y-49111D01*
X37070Y-49111D01*
X37044Y-49098D01*
X37018Y-49072D01*
X37005Y-49019D01*
X37005Y-48927D01*
X37018Y-48875D01*
X37044Y-48849D01*
X37070Y-48835D01*
X37464Y-49111D02*
X37372Y-48980D01*
X37307Y-49111D02*
X37307Y-48835D01*
X37412Y-48835D01*
X37438Y-48849D01*
X37451Y-48862D01*
X37464Y-48888D01*
X37464Y-48927D01*
X37451Y-48954D01*
X37438Y-48967D01*
X37412Y-48980D01*
X37307Y-48980D01*
G54D11*
X39357Y-49711D02*
X39413Y-49730D01*
X39507Y-49730D01*
X39544Y-49711D01*
X39563Y-49692D01*
X39582Y-49655D01*
X39582Y-49617D01*
X39563Y-49580D01*
X39544Y-49561D01*
X39507Y-49542D01*
X39432Y-49524D01*
X39394Y-49505D01*
X39375Y-49486D01*
X39357Y-49449D01*
X39357Y-49411D01*
X39375Y-49374D01*
X39394Y-49355D01*
X39432Y-49336D01*
X39525Y-49336D01*
X39582Y-49355D01*
X39713Y-49336D02*
X39807Y-49730D01*
X39882Y-49449D01*
X39957Y-49730D01*
X40050Y-49336D01*
X40406Y-49730D02*
X40182Y-49730D01*
X40294Y-49730D02*
X40294Y-49336D01*
X40257Y-49392D01*
X40219Y-49430D01*
X40182Y-49449D01*
X49769Y-48658D02*
X49581Y-48789D01*
X49769Y-48883D02*
X49375Y-48883D01*
X49375Y-48733D01*
X49394Y-48696D01*
X49413Y-48677D01*
X49450Y-48658D01*
X49506Y-48658D01*
X49544Y-48677D01*
X49563Y-48696D01*
X49581Y-48733D01*
X49581Y-48883D01*
X49375Y-48527D02*
X49375Y-48283D01*
X49525Y-48414D01*
X49525Y-48358D01*
X49544Y-48321D01*
X49563Y-48302D01*
X49600Y-48283D01*
X49694Y-48283D01*
X49731Y-48302D01*
X49750Y-48321D01*
X49769Y-48358D01*
X49769Y-48471D01*
X49750Y-48508D01*
X49731Y-48527D01*
X49375Y-48152D02*
X49375Y-47889D01*
X49769Y-48058D01*
X42939Y-48758D02*
X42751Y-48889D01*
X42939Y-48983D02*
X42545Y-48983D01*
X42545Y-48833D01*
X42564Y-48796D01*
X42583Y-48777D01*
X42620Y-48758D01*
X42676Y-48758D01*
X42714Y-48777D01*
X42733Y-48796D01*
X42751Y-48833D01*
X42751Y-48983D01*
X42545Y-48627D02*
X42545Y-48383D01*
X42695Y-48514D01*
X42695Y-48458D01*
X42714Y-48421D01*
X42733Y-48402D01*
X42770Y-48383D01*
X42864Y-48383D01*
X42901Y-48402D01*
X42920Y-48421D01*
X42939Y-48458D01*
X42939Y-48571D01*
X42920Y-48608D01*
X42901Y-48627D01*
X42545Y-48027D02*
X42545Y-48214D01*
X42733Y-48233D01*
X42714Y-48214D01*
X42695Y-48177D01*
X42695Y-48083D01*
X42714Y-48046D01*
X42733Y-48027D01*
X42770Y-48008D01*
X42864Y-48008D01*
X42901Y-48027D01*
X42920Y-48046D01*
X42939Y-48083D01*
X42939Y-48177D01*
X42920Y-48214D01*
X42901Y-48233D01*
G54D21*
X53996Y-63684D02*
X53996Y-63927D01*
X54010Y-63955D01*
X54025Y-63970D01*
X54053Y-63984D01*
X54110Y-63984D01*
X54139Y-63970D01*
X54153Y-63955D01*
X54167Y-63927D01*
X54167Y-63684D01*
X54453Y-63684D02*
X54310Y-63684D01*
X54296Y-63827D01*
X54310Y-63813D01*
X54339Y-63798D01*
X54410Y-63798D01*
X54439Y-63813D01*
X54453Y-63827D01*
X54467Y-63855D01*
X54467Y-63927D01*
X54453Y-63955D01*
X54439Y-63970D01*
X54410Y-63984D01*
X54339Y-63984D01*
X54310Y-63970D01*
X54296Y-63955D01*
X54248Y-65145D02*
X54248Y-65051D01*
X54304Y-65164D02*
X54107Y-65098D01*
X54304Y-65033D01*
X54304Y-64967D02*
X54107Y-64967D01*
X54107Y-64892D01*
X54117Y-64873D01*
X54126Y-64864D01*
X54145Y-64854D01*
X54173Y-64854D01*
X54192Y-64864D01*
X54201Y-64873D01*
X54210Y-64892D01*
X54210Y-64967D01*
X54107Y-64676D02*
X54107Y-64770D01*
X54201Y-64779D01*
X54192Y-64770D01*
X54182Y-64751D01*
X54182Y-64704D01*
X54192Y-64685D01*
X54201Y-64676D01*
X54220Y-64667D01*
X54267Y-64667D01*
X54285Y-64676D01*
X54295Y-64685D01*
X54304Y-64704D01*
X54304Y-64751D01*
X54295Y-64770D01*
X54285Y-64779D01*
X54107Y-64601D02*
X54107Y-64470D01*
X54304Y-64554D01*
X54126Y-64404D02*
X54117Y-64395D01*
X54107Y-64376D01*
X54107Y-64329D01*
X54117Y-64310D01*
X54126Y-64301D01*
X54145Y-64291D01*
X54164Y-64291D01*
X54192Y-64301D01*
X54304Y-64413D01*
X54304Y-64291D01*
X54107Y-64123D02*
X54107Y-64160D01*
X54117Y-64179D01*
X54126Y-64188D01*
X54154Y-64207D01*
X54192Y-64216D01*
X54267Y-64216D01*
X54285Y-64207D01*
X54295Y-64198D01*
X54304Y-64179D01*
X54304Y-64141D01*
X54295Y-64123D01*
X54285Y-64113D01*
X54267Y-64104D01*
X54220Y-64104D01*
X54201Y-64113D01*
X54192Y-64123D01*
X54182Y-64141D01*
X54182Y-64179D01*
X54192Y-64198D01*
X54201Y-64207D01*
X54220Y-64216D01*
G54D20*
X52540Y-64687D02*
X52550Y-64697D01*
X52559Y-64725D01*
X52559Y-64744D01*
X52550Y-64772D01*
X52531Y-64791D01*
X52512Y-64800D01*
X52475Y-64809D01*
X52447Y-64809D01*
X52409Y-64800D01*
X52390Y-64791D01*
X52372Y-64772D01*
X52362Y-64744D01*
X52362Y-64725D01*
X52372Y-64697D01*
X52381Y-64687D01*
X52428Y-64518D02*
X52559Y-64518D01*
X52353Y-64565D02*
X52494Y-64612D01*
X52494Y-64490D01*
X52284Y-64687D02*
X52284Y-64800D01*
X52284Y-64744D02*
X52087Y-64744D01*
X52115Y-64762D01*
X52134Y-64781D01*
X52144Y-64800D01*
X52153Y-64518D02*
X52284Y-64518D01*
X52153Y-64603D02*
X52256Y-64603D01*
X52275Y-64594D01*
X52284Y-64575D01*
X52284Y-64547D01*
X52275Y-64528D01*
X52265Y-64518D01*
X56129Y-64726D02*
X56035Y-64792D01*
X56129Y-64839D02*
X55932Y-64839D01*
X55932Y-64764D01*
X55942Y-64745D01*
X55951Y-64736D01*
X55970Y-64726D01*
X55998Y-64726D01*
X56017Y-64736D01*
X56026Y-64745D01*
X56035Y-64764D01*
X56035Y-64839D01*
X55932Y-64660D02*
X55932Y-64539D01*
X56007Y-64604D01*
X56007Y-64576D01*
X56017Y-64557D01*
X56026Y-64548D01*
X56045Y-64539D01*
X56092Y-64539D01*
X56110Y-64548D01*
X56120Y-64557D01*
X56129Y-64576D01*
X56129Y-64632D01*
X56120Y-64651D01*
X56110Y-64660D01*
X56129Y-64351D02*
X56129Y-64463D01*
X56129Y-64407D02*
X55932Y-64407D01*
X55960Y-64426D01*
X55979Y-64445D01*
X55989Y-64463D01*
X55854Y-64637D02*
X55854Y-64750D01*
X55854Y-64693D02*
X55657Y-64693D01*
X55685Y-64712D01*
X55704Y-64731D01*
X55714Y-64750D01*
X55657Y-64459D02*
X55657Y-64553D01*
X55751Y-64562D01*
X55742Y-64553D01*
X55732Y-64534D01*
X55732Y-64487D01*
X55742Y-64468D01*
X55751Y-64459D01*
X55770Y-64449D01*
X55817Y-64449D01*
X55835Y-64459D01*
X55845Y-64468D01*
X55854Y-64487D01*
X55854Y-64534D01*
X55845Y-64553D01*
X55835Y-64562D01*
G54D11*
X59352Y-64756D02*
X59352Y-64943D01*
X58958Y-64943D01*
X59090Y-64456D02*
X59352Y-64456D01*
X58940Y-64549D02*
X59221Y-64643D01*
X59221Y-64399D01*
G54D17*
X77440Y-51892D02*
X77440Y-52378D01*
X77459Y-52435D01*
X77478Y-52464D01*
X77516Y-52492D01*
X77592Y-52492D01*
X77630Y-52464D01*
X77649Y-52435D01*
X77668Y-52378D01*
X77668Y-51892D01*
X77916Y-52150D02*
X77878Y-52121D01*
X77859Y-52092D01*
X77840Y-52035D01*
X77840Y-52007D01*
X77859Y-51950D01*
X77878Y-51921D01*
X77916Y-51892D01*
X77992Y-51892D01*
X78030Y-51921D01*
X78049Y-51950D01*
X78068Y-52007D01*
X78068Y-52035D01*
X78049Y-52092D01*
X78030Y-52121D01*
X77992Y-52150D01*
X77916Y-52150D01*
X77878Y-52178D01*
X77859Y-52207D01*
X77840Y-52264D01*
X77840Y-52378D01*
X77859Y-52435D01*
X77878Y-52464D01*
X77916Y-52492D01*
X77992Y-52492D01*
X78030Y-52464D01*
X78049Y-52435D01*
X78068Y-52378D01*
X78068Y-52264D01*
X78049Y-52207D01*
X78030Y-52178D01*
X77992Y-52150D01*
X73219Y-50997D02*
X73219Y-51483D01*
X73238Y-51540D01*
X73257Y-51569D01*
X73295Y-51597D01*
X73372Y-51597D01*
X73410Y-51569D01*
X73429Y-51540D01*
X73448Y-51483D01*
X73448Y-50997D01*
X73848Y-51597D02*
X73619Y-51597D01*
X73734Y-51597D02*
X73734Y-50997D01*
X73695Y-51083D01*
X73657Y-51140D01*
X73619Y-51169D01*
X74095Y-50997D02*
X74134Y-50997D01*
X74172Y-51026D01*
X74191Y-51055D01*
X74210Y-51112D01*
X74229Y-51226D01*
X74229Y-51369D01*
X74210Y-51483D01*
X74191Y-51540D01*
X74172Y-51569D01*
X74134Y-51597D01*
X74095Y-51597D01*
X74057Y-51569D01*
X74038Y-51540D01*
X74019Y-51483D01*
X74000Y-51369D01*
X74000Y-51226D01*
X74019Y-51112D01*
X74038Y-51055D01*
X74057Y-51026D01*
X74095Y-50997D01*
X66500Y-48432D02*
X66500Y-48918D01*
X66519Y-48975D01*
X66538Y-49004D01*
X66576Y-49032D01*
X66652Y-49032D01*
X66690Y-49004D01*
X66709Y-48975D01*
X66728Y-48918D01*
X66728Y-48432D01*
X66938Y-49032D02*
X67014Y-49032D01*
X67052Y-49004D01*
X67071Y-48975D01*
X67109Y-48890D01*
X67128Y-48775D01*
X67128Y-48547D01*
X67109Y-48490D01*
X67090Y-48461D01*
X67052Y-48432D01*
X66976Y-48432D01*
X66938Y-48461D01*
X66919Y-48490D01*
X66900Y-48547D01*
X66900Y-48690D01*
X66919Y-48747D01*
X66938Y-48775D01*
X66976Y-48804D01*
X67052Y-48804D01*
X67090Y-48775D01*
X67109Y-48747D01*
X67128Y-48690D01*
X83830Y-54592D02*
X83830Y-55078D01*
X83849Y-55135D01*
X83868Y-55164D01*
X83906Y-55192D01*
X83982Y-55192D01*
X84020Y-55164D01*
X84039Y-55135D01*
X84058Y-55078D01*
X84058Y-54592D01*
X84211Y-54592D02*
X84477Y-54592D01*
X84306Y-55192D01*
G54D11*
X62550Y-51851D02*
X62737Y-51851D01*
X62512Y-51964D02*
X62643Y-51570D01*
X62775Y-51964D01*
X63131Y-51964D02*
X63000Y-51776D01*
X62906Y-51964D02*
X62906Y-51570D01*
X63056Y-51570D01*
X63093Y-51589D01*
X63112Y-51608D01*
X63131Y-51645D01*
X63131Y-51701D01*
X63112Y-51739D01*
X63093Y-51758D01*
X63056Y-51776D01*
X62906Y-51776D01*
X63299Y-51964D02*
X63299Y-51570D01*
X63393Y-51570D01*
X63449Y-51589D01*
X63487Y-51626D01*
X63506Y-51664D01*
X63524Y-51739D01*
X63524Y-51795D01*
X63506Y-51870D01*
X63487Y-51908D01*
X63449Y-51945D01*
X63393Y-51964D01*
X63299Y-51964D01*
X63899Y-51964D02*
X63674Y-51964D01*
X63787Y-51964D02*
X63787Y-51570D01*
X63749Y-51626D01*
X63712Y-51664D01*
X63674Y-51683D01*
X64419Y-52931D02*
X64550Y-53325D01*
X64681Y-52931D01*
X64868Y-53100D02*
X64831Y-53081D01*
X64812Y-53062D01*
X64794Y-53025D01*
X64794Y-53006D01*
X64812Y-52968D01*
X64831Y-52950D01*
X64868Y-52931D01*
X64943Y-52931D01*
X64981Y-52950D01*
X65000Y-52968D01*
X65018Y-53006D01*
X65018Y-53025D01*
X65000Y-53062D01*
X64981Y-53081D01*
X64943Y-53100D01*
X64868Y-53100D01*
X64831Y-53118D01*
X64812Y-53137D01*
X64794Y-53175D01*
X64794Y-53250D01*
X64812Y-53287D01*
X64831Y-53306D01*
X64868Y-53325D01*
X64943Y-53325D01*
X64981Y-53306D01*
X65000Y-53287D01*
X65018Y-53250D01*
X65018Y-53175D01*
X65000Y-53137D01*
X64981Y-53118D01*
X64943Y-53100D01*
X65375Y-52931D02*
X65187Y-52931D01*
X65168Y-53118D01*
X65187Y-53100D01*
X65225Y-53081D01*
X65318Y-53081D01*
X65356Y-53100D01*
X65375Y-53118D01*
X65393Y-53156D01*
X65393Y-53250D01*
X65375Y-53287D01*
X65356Y-53306D01*
X65318Y-53325D01*
X65225Y-53325D01*
X65187Y-53306D01*
X65168Y-53287D01*
X65637Y-52931D02*
X65675Y-52931D01*
X65712Y-52950D01*
X65731Y-52968D01*
X65750Y-53006D01*
X65768Y-53081D01*
X65768Y-53175D01*
X65750Y-53250D01*
X65731Y-53287D01*
X65712Y-53306D01*
X65675Y-53325D01*
X65637Y-53325D01*
X65600Y-53306D01*
X65581Y-53287D01*
X65562Y-53250D01*
X65543Y-53175D01*
X65543Y-53081D01*
X65562Y-53006D01*
X65581Y-52968D01*
X65600Y-52950D01*
X65637Y-52931D01*
X65993Y-53100D02*
X65956Y-53081D01*
X65937Y-53062D01*
X65918Y-53025D01*
X65918Y-53006D01*
X65937Y-52968D01*
X65956Y-52950D01*
X65993Y-52931D01*
X66068Y-52931D01*
X66106Y-52950D01*
X66125Y-52968D01*
X66143Y-53006D01*
X66143Y-53025D01*
X66125Y-53062D01*
X66106Y-53081D01*
X66068Y-53100D01*
X65993Y-53100D01*
X65956Y-53118D01*
X65937Y-53137D01*
X65918Y-53175D01*
X65918Y-53250D01*
X65937Y-53287D01*
X65956Y-53306D01*
X65993Y-53325D01*
X66068Y-53325D01*
X66106Y-53306D01*
X66125Y-53287D01*
X66143Y-53250D01*
X66143Y-53175D01*
X66125Y-53137D01*
X66106Y-53118D01*
X66068Y-53100D01*
X66312Y-53325D02*
X66312Y-52931D01*
X66312Y-53118D02*
X66537Y-53118D01*
X66537Y-53325D02*
X66537Y-52931D01*
X69889Y-52931D02*
X70020Y-53325D01*
X70151Y-52931D01*
X70338Y-53100D02*
X70301Y-53081D01*
X70282Y-53062D01*
X70264Y-53025D01*
X70264Y-53006D01*
X70282Y-52968D01*
X70301Y-52950D01*
X70338Y-52931D01*
X70413Y-52931D01*
X70451Y-52950D01*
X70470Y-52968D01*
X70488Y-53006D01*
X70488Y-53025D01*
X70470Y-53062D01*
X70451Y-53081D01*
X70413Y-53100D01*
X70338Y-53100D01*
X70301Y-53118D01*
X70282Y-53137D01*
X70264Y-53175D01*
X70264Y-53250D01*
X70282Y-53287D01*
X70301Y-53306D01*
X70338Y-53325D01*
X70413Y-53325D01*
X70451Y-53306D01*
X70470Y-53287D01*
X70488Y-53250D01*
X70488Y-53175D01*
X70470Y-53137D01*
X70451Y-53118D01*
X70413Y-53100D01*
X70845Y-52931D02*
X70657Y-52931D01*
X70638Y-53118D01*
X70657Y-53100D01*
X70695Y-53081D01*
X70788Y-53081D01*
X70826Y-53100D01*
X70845Y-53118D01*
X70863Y-53156D01*
X70863Y-53250D01*
X70845Y-53287D01*
X70826Y-53306D01*
X70788Y-53325D01*
X70695Y-53325D01*
X70657Y-53306D01*
X70638Y-53287D01*
X71107Y-52931D02*
X71145Y-52931D01*
X71182Y-52950D01*
X71201Y-52968D01*
X71220Y-53006D01*
X71238Y-53081D01*
X71238Y-53175D01*
X71220Y-53250D01*
X71201Y-53287D01*
X71182Y-53306D01*
X71145Y-53325D01*
X71107Y-53325D01*
X71070Y-53306D01*
X71051Y-53287D01*
X71032Y-53250D01*
X71013Y-53175D01*
X71013Y-53081D01*
X71032Y-53006D01*
X71051Y-52968D01*
X71070Y-52950D01*
X71107Y-52931D01*
X71463Y-53100D02*
X71426Y-53081D01*
X71407Y-53062D01*
X71388Y-53025D01*
X71388Y-53006D01*
X71407Y-52968D01*
X71426Y-52950D01*
X71463Y-52931D01*
X71538Y-52931D01*
X71576Y-52950D01*
X71595Y-52968D01*
X71613Y-53006D01*
X71613Y-53025D01*
X71595Y-53062D01*
X71576Y-53081D01*
X71538Y-53100D01*
X71463Y-53100D01*
X71426Y-53118D01*
X71407Y-53137D01*
X71388Y-53175D01*
X71388Y-53250D01*
X71407Y-53287D01*
X71426Y-53306D01*
X71463Y-53325D01*
X71538Y-53325D01*
X71576Y-53306D01*
X71595Y-53287D01*
X71613Y-53250D01*
X71613Y-53175D01*
X71595Y-53137D01*
X71576Y-53118D01*
X71538Y-53100D01*
X71782Y-53325D02*
X71782Y-52931D01*
X71782Y-53118D02*
X72007Y-53118D01*
X72007Y-53325D02*
X72007Y-52931D01*
G54D22*
X47095Y-61761D02*
X47323Y-61761D01*
X47209Y-62161D02*
X47209Y-61761D01*
X47457Y-62161D02*
X47457Y-61761D01*
X47609Y-61761D01*
X47647Y-61780D01*
X47666Y-61800D01*
X47685Y-61838D01*
X47685Y-61895D01*
X47666Y-61933D01*
X47647Y-61952D01*
X47609Y-61971D01*
X47457Y-61971D01*
X48066Y-62161D02*
X47838Y-62161D01*
X47952Y-62161D02*
X47952Y-61761D01*
X47914Y-61819D01*
X47876Y-61857D01*
X47838Y-61876D01*
G54D10*
X64878Y-59431D02*
X64878Y-59131D01*
X64992Y-59131D01*
X65021Y-59145D01*
X65035Y-59160D01*
X65050Y-59188D01*
X65050Y-59231D01*
X65035Y-59260D01*
X65021Y-59274D01*
X64992Y-59288D01*
X64878Y-59288D01*
X65164Y-59160D02*
X65178Y-59145D01*
X65207Y-59131D01*
X65278Y-59131D01*
X65307Y-59145D01*
X65321Y-59160D01*
X65335Y-59188D01*
X65335Y-59217D01*
X65321Y-59260D01*
X65150Y-59431D01*
X65335Y-59431D01*
G54D20*
X59829Y-54166D02*
X59735Y-54232D01*
X59829Y-54279D02*
X59632Y-54279D01*
X59632Y-54204D01*
X59642Y-54185D01*
X59651Y-54176D01*
X59670Y-54166D01*
X59698Y-54166D01*
X59717Y-54176D01*
X59726Y-54185D01*
X59735Y-54204D01*
X59735Y-54279D01*
X59698Y-53997D02*
X59829Y-53997D01*
X59623Y-54044D02*
X59764Y-54091D01*
X59764Y-53969D01*
X59632Y-53810D02*
X59632Y-53847D01*
X59642Y-53866D01*
X59651Y-53875D01*
X59679Y-53894D01*
X59717Y-53903D01*
X59792Y-53903D01*
X59810Y-53894D01*
X59820Y-53885D01*
X59829Y-53866D01*
X59829Y-53828D01*
X59820Y-53810D01*
X59810Y-53800D01*
X59792Y-53791D01*
X59745Y-53791D01*
X59726Y-53800D01*
X59717Y-53810D01*
X59707Y-53828D01*
X59707Y-53866D01*
X59717Y-53885D01*
X59726Y-53894D01*
X59745Y-53903D01*
X60769Y-54166D02*
X60675Y-54232D01*
X60769Y-54279D02*
X60572Y-54279D01*
X60572Y-54204D01*
X60582Y-54185D01*
X60591Y-54176D01*
X60610Y-54166D01*
X60638Y-54166D01*
X60657Y-54176D01*
X60666Y-54185D01*
X60675Y-54204D01*
X60675Y-54279D01*
X60638Y-53997D02*
X60769Y-53997D01*
X60563Y-54044D02*
X60704Y-54091D01*
X60704Y-53969D01*
X60572Y-53913D02*
X60572Y-53782D01*
X60769Y-53866D01*
X56809Y-54166D02*
X56715Y-54232D01*
X56809Y-54279D02*
X56612Y-54279D01*
X56612Y-54204D01*
X56622Y-54185D01*
X56631Y-54176D01*
X56650Y-54166D01*
X56678Y-54166D01*
X56697Y-54176D01*
X56706Y-54185D01*
X56715Y-54204D01*
X56715Y-54279D01*
X56631Y-54091D02*
X56622Y-54082D01*
X56612Y-54063D01*
X56612Y-54016D01*
X56622Y-53997D01*
X56631Y-53988D01*
X56650Y-53979D01*
X56669Y-53979D01*
X56697Y-53988D01*
X56809Y-54100D01*
X56809Y-53979D01*
X56612Y-53857D02*
X56612Y-53838D01*
X56622Y-53819D01*
X56631Y-53810D01*
X56650Y-53800D01*
X56687Y-53791D01*
X56734Y-53791D01*
X56772Y-53800D01*
X56790Y-53810D01*
X56800Y-53819D01*
X56809Y-53838D01*
X56809Y-53857D01*
X56800Y-53875D01*
X56790Y-53885D01*
X56772Y-53894D01*
X56734Y-53903D01*
X56687Y-53903D01*
X56650Y-53894D01*
X56631Y-53885D01*
X56622Y-53875D01*
X56612Y-53857D01*
X51224Y-54161D02*
X51130Y-54227D01*
X51224Y-54274D02*
X51027Y-54274D01*
X51027Y-54199D01*
X51037Y-54180D01*
X51046Y-54171D01*
X51065Y-54161D01*
X51093Y-54161D01*
X51112Y-54171D01*
X51121Y-54180D01*
X51130Y-54199D01*
X51130Y-54274D01*
X51224Y-53974D02*
X51224Y-54086D01*
X51224Y-54030D02*
X51027Y-54030D01*
X51055Y-54049D01*
X51074Y-54067D01*
X51084Y-54086D01*
X51027Y-53795D02*
X51027Y-53889D01*
X51121Y-53898D01*
X51112Y-53889D01*
X51102Y-53870D01*
X51102Y-53823D01*
X51112Y-53805D01*
X51121Y-53795D01*
X51140Y-53786D01*
X51187Y-53786D01*
X51205Y-53795D01*
X51215Y-53805D01*
X51224Y-53823D01*
X51224Y-53870D01*
X51215Y-53889D01*
X51205Y-53898D01*
X50179Y-54156D02*
X50085Y-54222D01*
X50179Y-54269D02*
X49982Y-54269D01*
X49982Y-54194D01*
X49992Y-54175D01*
X50001Y-54166D01*
X50020Y-54156D01*
X50048Y-54156D01*
X50067Y-54166D01*
X50076Y-54175D01*
X50085Y-54194D01*
X50085Y-54269D01*
X50179Y-53969D02*
X50179Y-54081D01*
X50179Y-54025D02*
X49982Y-54025D01*
X50010Y-54044D01*
X50029Y-54062D01*
X50039Y-54081D01*
X50048Y-53800D02*
X50179Y-53800D01*
X49973Y-53847D02*
X50114Y-53893D01*
X50114Y-53772D01*
X62849Y-54156D02*
X62755Y-54222D01*
X62849Y-54269D02*
X62652Y-54269D01*
X62652Y-54194D01*
X62662Y-54175D01*
X62671Y-54166D01*
X62690Y-54156D01*
X62718Y-54156D01*
X62737Y-54166D01*
X62746Y-54175D01*
X62755Y-54194D01*
X62755Y-54269D01*
X62671Y-54081D02*
X62662Y-54072D01*
X62652Y-54053D01*
X62652Y-54006D01*
X62662Y-53987D01*
X62671Y-53978D01*
X62690Y-53969D01*
X62709Y-53969D01*
X62737Y-53978D01*
X62849Y-54090D01*
X62849Y-53969D01*
X62849Y-53781D02*
X62849Y-53893D01*
X62849Y-53837D02*
X62652Y-53837D01*
X62680Y-53856D01*
X62699Y-53875D01*
X62709Y-53893D01*
X55949Y-69537D02*
X55855Y-69603D01*
X55949Y-69650D02*
X55752Y-69650D01*
X55752Y-69575D01*
X55762Y-69556D01*
X55771Y-69547D01*
X55790Y-69537D01*
X55818Y-69537D01*
X55837Y-69547D01*
X55846Y-69556D01*
X55855Y-69575D01*
X55855Y-69650D01*
X55837Y-69425D02*
X55827Y-69444D01*
X55818Y-69453D01*
X55799Y-69462D01*
X55790Y-69462D01*
X55771Y-69453D01*
X55762Y-69444D01*
X55752Y-69425D01*
X55752Y-69387D01*
X55762Y-69368D01*
X55771Y-69359D01*
X55790Y-69350D01*
X55799Y-69350D01*
X55818Y-69359D01*
X55827Y-69368D01*
X55837Y-69387D01*
X55837Y-69425D01*
X55846Y-69444D01*
X55855Y-69453D01*
X55874Y-69462D01*
X55912Y-69462D01*
X55930Y-69453D01*
X55940Y-69444D01*
X55949Y-69425D01*
X55949Y-69387D01*
X55940Y-69368D01*
X55930Y-69359D01*
X55912Y-69350D01*
X55874Y-69350D01*
X55855Y-69359D01*
X55846Y-69368D01*
X55837Y-69387D01*
X52834Y-69532D02*
X52740Y-69598D01*
X52834Y-69645D02*
X52637Y-69645D01*
X52637Y-69570D01*
X52647Y-69551D01*
X52656Y-69542D01*
X52675Y-69532D01*
X52703Y-69532D01*
X52722Y-69542D01*
X52731Y-69551D01*
X52740Y-69570D01*
X52740Y-69645D01*
X52637Y-69467D02*
X52637Y-69335D01*
X52834Y-69420D01*
X58799Y-54176D02*
X58705Y-54242D01*
X58799Y-54289D02*
X58602Y-54289D01*
X58602Y-54214D01*
X58612Y-54195D01*
X58621Y-54186D01*
X58640Y-54176D01*
X58668Y-54176D01*
X58687Y-54186D01*
X58696Y-54195D01*
X58705Y-54214D01*
X58705Y-54289D01*
X58668Y-54007D02*
X58799Y-54007D01*
X58593Y-54054D02*
X58734Y-54101D01*
X58734Y-53979D01*
X58602Y-53923D02*
X58602Y-53801D01*
X58677Y-53867D01*
X58677Y-53838D01*
X58687Y-53820D01*
X58696Y-53810D01*
X58715Y-53801D01*
X58762Y-53801D01*
X58780Y-53810D01*
X58790Y-53820D01*
X58799Y-53838D01*
X58799Y-53895D01*
X58790Y-53913D01*
X58780Y-53923D01*
X49149Y-54166D02*
X49055Y-54232D01*
X49149Y-54279D02*
X48952Y-54279D01*
X48952Y-54204D01*
X48962Y-54185D01*
X48971Y-54176D01*
X48990Y-54166D01*
X49018Y-54166D01*
X49037Y-54176D01*
X49046Y-54185D01*
X49055Y-54204D01*
X49055Y-54279D01*
X49149Y-53979D02*
X49149Y-54091D01*
X49149Y-54035D02*
X48952Y-54035D01*
X48980Y-54054D01*
X48999Y-54072D01*
X49009Y-54091D01*
X48952Y-53913D02*
X48952Y-53791D01*
X49027Y-53857D01*
X49027Y-53828D01*
X49037Y-53810D01*
X49046Y-53800D01*
X49065Y-53791D01*
X49112Y-53791D01*
X49130Y-53800D01*
X49140Y-53810D01*
X49149Y-53828D01*
X49149Y-53885D01*
X49140Y-53903D01*
X49130Y-53913D01*
G54D12*
X88027Y-52617D02*
X88042Y-52632D01*
X88056Y-52675D01*
X88056Y-52703D01*
X88042Y-52746D01*
X88013Y-52775D01*
X87985Y-52789D01*
X87927Y-52803D01*
X87885Y-52803D01*
X87827Y-52789D01*
X87799Y-52775D01*
X87770Y-52746D01*
X87756Y-52703D01*
X87756Y-52675D01*
X87770Y-52632D01*
X87785Y-52617D01*
X87785Y-52503D02*
X87770Y-52489D01*
X87756Y-52460D01*
X87756Y-52389D01*
X87770Y-52360D01*
X87785Y-52346D01*
X87813Y-52332D01*
X87842Y-52332D01*
X87885Y-52346D01*
X88056Y-52517D01*
X88056Y-52332D01*
X87756Y-52232D02*
X87756Y-52046D01*
X87870Y-52146D01*
X87870Y-52103D01*
X87885Y-52075D01*
X87899Y-52060D01*
X87927Y-52046D01*
X87999Y-52046D01*
X88027Y-52060D01*
X88042Y-52075D01*
X88056Y-52103D01*
X88056Y-52189D01*
X88042Y-52217D01*
X88027Y-52232D01*
X87627Y-52332D02*
X87642Y-52346D01*
X87656Y-52389D01*
X87656Y-52417D01*
X87642Y-52460D01*
X87613Y-52489D01*
X87585Y-52503D01*
X87527Y-52517D01*
X87485Y-52517D01*
X87427Y-52503D01*
X87399Y-52489D01*
X87370Y-52460D01*
X87356Y-52417D01*
X87356Y-52389D01*
X87370Y-52346D01*
X87385Y-52332D01*
M02*
