G04 (created by PCBNEW (2013-07-07 BZR 4022)-stable) date 3/19/2014 11:37:21 PM*
%MOIN*%
G04 Gerber Fmt 3.4, Leading zero omitted, Abs format*
%FSLAX34Y34*%
G01*
G70*
G90*
G04 APERTURE LIST*
%ADD10C,0.006*%
%ADD11C,0.00590551*%
%ADD12C,0.005*%
%ADD13C,0.0039*%
%ADD14C,0.0026*%
%ADD15C,0.004*%
%ADD16C,0.0065*%
%ADD17C,0.008*%
%ADD18C,0.015*%
%ADD19C,0.0001*%
%ADD20C,0.0075*%
%ADD21C,0.0043*%
%ADD22C,0.003*%
%ADD23C,0.01*%
G04 APERTURE END LIST*
G54D10*
G54D11*
X78675Y-66585D02*
X78675Y-72085D01*
X78675Y-72085D02*
X86225Y-72085D01*
X86225Y-72085D02*
X86225Y-65885D01*
X86225Y-65885D02*
X78675Y-65885D01*
X78675Y-65885D02*
X78675Y-66585D01*
G54D12*
X74165Y-71500D02*
X75365Y-71500D01*
X75365Y-71500D02*
X75365Y-71800D01*
X75365Y-71800D02*
X74165Y-71800D01*
X74165Y-71800D02*
X74165Y-71500D01*
G54D11*
X75920Y-67655D02*
X77270Y-67655D01*
X75920Y-69755D02*
X77270Y-69755D01*
X77270Y-69755D02*
X77270Y-67455D01*
X77270Y-67455D02*
X75920Y-67455D01*
X75920Y-67455D02*
X75920Y-69755D01*
G54D13*
X72280Y-71775D02*
G75*
G03X72280Y-71775I-50J0D01*
G74*
G01*
X72680Y-71775D02*
X72280Y-71775D01*
X72280Y-71775D02*
X72280Y-71175D01*
X72280Y-71175D02*
X72680Y-71175D01*
X73080Y-71175D02*
X73480Y-71175D01*
X73480Y-71175D02*
X73480Y-71775D01*
X73480Y-71775D02*
X73080Y-71775D01*
X72305Y-70730D02*
G75*
G03X72305Y-70730I-50J0D01*
G74*
G01*
X72705Y-70730D02*
X72305Y-70730D01*
X72305Y-70730D02*
X72305Y-70130D01*
X72305Y-70130D02*
X72705Y-70130D01*
X73105Y-70130D02*
X73505Y-70130D01*
X73505Y-70130D02*
X73505Y-70730D01*
X73505Y-70730D02*
X73105Y-70730D01*
X74150Y-66700D02*
G75*
G03X74150Y-66700I-50J0D01*
G74*
G01*
X74550Y-66700D02*
X74150Y-66700D01*
X74150Y-66700D02*
X74150Y-66100D01*
X74150Y-66100D02*
X74550Y-66100D01*
X74950Y-66100D02*
X75350Y-66100D01*
X75350Y-66100D02*
X75350Y-66700D01*
X75350Y-66700D02*
X74950Y-66700D01*
X68765Y-68790D02*
G75*
G03X68765Y-68790I-50J0D01*
G74*
G01*
X69165Y-68790D02*
X68765Y-68790D01*
X68765Y-68790D02*
X68765Y-68190D01*
X68765Y-68190D02*
X69165Y-68190D01*
X69565Y-68190D02*
X69965Y-68190D01*
X69965Y-68190D02*
X69965Y-68790D01*
X69965Y-68790D02*
X69565Y-68790D01*
X76990Y-66110D02*
G75*
G03X76990Y-66110I-50J0D01*
G74*
G01*
X76490Y-66110D02*
X76890Y-66110D01*
X76890Y-66110D02*
X76890Y-66710D01*
X76890Y-66710D02*
X76490Y-66710D01*
X76090Y-66710D02*
X75690Y-66710D01*
X75690Y-66710D02*
X75690Y-66110D01*
X75690Y-66110D02*
X76090Y-66110D01*
X74725Y-69420D02*
G75*
G03X74725Y-69420I-50J0D01*
G74*
G01*
X74675Y-69870D02*
X74675Y-69470D01*
X74675Y-69470D02*
X75275Y-69470D01*
X75275Y-69470D02*
X75275Y-69870D01*
X75275Y-70270D02*
X75275Y-70670D01*
X75275Y-70670D02*
X74675Y-70670D01*
X74675Y-70670D02*
X74675Y-70270D01*
G54D14*
X73403Y-69847D02*
X73403Y-69493D01*
X73403Y-69493D02*
X73246Y-69493D01*
X73246Y-69847D02*
X73246Y-69493D01*
X73403Y-69847D02*
X73246Y-69847D01*
X73914Y-69847D02*
X73914Y-69493D01*
X73914Y-69493D02*
X73757Y-69493D01*
X73757Y-69847D02*
X73757Y-69493D01*
X73914Y-69847D02*
X73757Y-69847D01*
X73580Y-69847D02*
X73580Y-69788D01*
X73580Y-69788D02*
X73462Y-69788D01*
X73462Y-69847D02*
X73462Y-69788D01*
X73580Y-69847D02*
X73462Y-69847D01*
X73580Y-69552D02*
X73580Y-69493D01*
X73580Y-69493D02*
X73462Y-69493D01*
X73462Y-69552D02*
X73462Y-69493D01*
X73580Y-69552D02*
X73462Y-69552D01*
X73580Y-69729D02*
X73580Y-69611D01*
X73580Y-69611D02*
X73462Y-69611D01*
X73462Y-69729D02*
X73462Y-69611D01*
X73580Y-69729D02*
X73462Y-69729D01*
G54D15*
X73403Y-69827D02*
X73757Y-69827D01*
X73403Y-69513D02*
X73757Y-69513D01*
G54D11*
X71661Y-67230D02*
G75*
G03X71661Y-67230I-141J0D01*
G74*
G01*
X71170Y-66880D02*
X71170Y-69080D01*
X71170Y-69080D02*
X73920Y-69080D01*
X73920Y-69080D02*
X73920Y-66880D01*
X73920Y-66880D02*
X71170Y-66880D01*
G54D16*
X65460Y-56860D02*
X68460Y-56860D01*
X68460Y-55460D02*
X65460Y-55460D01*
X65460Y-56860D02*
X65460Y-55460D01*
G54D10*
X68460Y-55460D02*
X68460Y-56860D01*
G54D12*
X68401Y-55660D02*
G75*
G03X68401Y-55660I-141J0D01*
G74*
G01*
X68460Y-56410D02*
X68160Y-56410D01*
X68160Y-56410D02*
X68160Y-55910D01*
X68160Y-55910D02*
X68460Y-55910D01*
G54D17*
X73518Y-55284D02*
X73518Y-59084D01*
X73518Y-59084D02*
X72018Y-59084D01*
X72018Y-59084D02*
X72018Y-55284D01*
X72018Y-55284D02*
X73518Y-55284D01*
X73018Y-55284D02*
X73018Y-55584D01*
X73018Y-55584D02*
X72618Y-55584D01*
X72618Y-55584D02*
X72618Y-55284D01*
G54D12*
X71816Y-54202D02*
X71816Y-55102D01*
X71816Y-55102D02*
X72466Y-55102D01*
X73166Y-54202D02*
X73816Y-54202D01*
X73816Y-54202D02*
X73816Y-55102D01*
X73816Y-55102D02*
X73166Y-55102D01*
X72466Y-54202D02*
X71816Y-54202D01*
X69767Y-56372D02*
X70667Y-56372D01*
X70667Y-56372D02*
X70667Y-55722D01*
X69767Y-55022D02*
X69767Y-54372D01*
X69767Y-54372D02*
X70667Y-54372D01*
X70667Y-54372D02*
X70667Y-55022D01*
X69767Y-55722D02*
X69767Y-56372D01*
G54D13*
X80366Y-58356D02*
G75*
G03X80366Y-58356I-50J0D01*
G74*
G01*
X80766Y-58356D02*
X80366Y-58356D01*
X80366Y-58356D02*
X80366Y-57756D01*
X80366Y-57756D02*
X80766Y-57756D01*
X81166Y-57756D02*
X81566Y-57756D01*
X81566Y-57756D02*
X81566Y-58356D01*
X81566Y-58356D02*
X81166Y-58356D01*
X75186Y-59256D02*
G75*
G03X75186Y-59256I-50J0D01*
G74*
G01*
X75136Y-58806D02*
X75136Y-59206D01*
X75136Y-59206D02*
X74536Y-59206D01*
X74536Y-59206D02*
X74536Y-58806D01*
X74536Y-58406D02*
X74536Y-58006D01*
X74536Y-58006D02*
X75136Y-58006D01*
X75136Y-58006D02*
X75136Y-58406D01*
X75144Y-56022D02*
G75*
G03X75144Y-56022I-50J0D01*
G74*
G01*
X75094Y-55572D02*
X75094Y-55972D01*
X75094Y-55972D02*
X74494Y-55972D01*
X74494Y-55972D02*
X74494Y-55572D01*
X74494Y-55172D02*
X74494Y-54772D01*
X74494Y-54772D02*
X75094Y-54772D01*
X75094Y-54772D02*
X75094Y-55172D01*
X80356Y-57356D02*
G75*
G03X80356Y-57356I-50J0D01*
G74*
G01*
X80756Y-57356D02*
X80356Y-57356D01*
X80356Y-57356D02*
X80356Y-56756D01*
X80356Y-56756D02*
X80756Y-56756D01*
X81156Y-56756D02*
X81556Y-56756D01*
X81556Y-56756D02*
X81556Y-57356D01*
X81556Y-57356D02*
X81156Y-57356D01*
X80326Y-56396D02*
G75*
G03X80326Y-56396I-50J0D01*
G74*
G01*
X80726Y-56396D02*
X80326Y-56396D01*
X80326Y-56396D02*
X80326Y-55796D01*
X80326Y-55796D02*
X80726Y-55796D01*
X81126Y-55796D02*
X81526Y-55796D01*
X81526Y-55796D02*
X81526Y-56396D01*
X81526Y-56396D02*
X81126Y-56396D01*
G54D17*
X78062Y-58584D02*
X78062Y-55584D01*
X80062Y-55584D02*
X80062Y-58584D01*
X80062Y-58584D02*
X78062Y-58584D01*
X78062Y-55584D02*
X80062Y-55584D01*
G54D11*
X88845Y-71979D02*
X90419Y-71979D01*
X90419Y-71979D02*
X90419Y-66073D01*
X90419Y-66073D02*
X87270Y-66073D01*
X87270Y-66073D02*
X87270Y-71979D01*
X87270Y-71979D02*
X88864Y-71979D01*
X89015Y-64981D02*
X90392Y-64981D01*
X90392Y-64981D02*
X90392Y-48013D01*
X90392Y-48013D02*
X87637Y-48013D01*
X87637Y-48013D02*
X87637Y-64981D01*
X87637Y-64981D02*
X89015Y-64981D01*
X89015Y-64981D02*
X89018Y-64985D01*
X30480Y-50037D02*
X25007Y-50037D01*
X25007Y-50037D02*
X25007Y-70351D01*
X25007Y-70351D02*
X33511Y-70351D01*
X33511Y-70351D02*
X33511Y-50037D01*
X33511Y-50037D02*
X30472Y-50037D01*
G54D13*
X54450Y-68250D02*
G75*
G03X54450Y-68250I-50J0D01*
G74*
G01*
X54400Y-67800D02*
X54400Y-68200D01*
X54400Y-68200D02*
X53800Y-68200D01*
X53800Y-68200D02*
X53800Y-67800D01*
X53800Y-67400D02*
X53800Y-67000D01*
X53800Y-67000D02*
X54400Y-67000D01*
X54400Y-67000D02*
X54400Y-67400D01*
G54D12*
X62420Y-61863D02*
X60420Y-61863D01*
X60420Y-61863D02*
X60420Y-60063D01*
X60420Y-60063D02*
X62420Y-60063D01*
X62420Y-60063D02*
X62420Y-61863D01*
X62420Y-61263D02*
X62220Y-61263D01*
X62220Y-61263D02*
X62220Y-60763D01*
X62220Y-60763D02*
X62420Y-60763D01*
G54D11*
X86000Y-60185D02*
X87350Y-60185D01*
X86000Y-62285D02*
X87350Y-62285D01*
X87350Y-62285D02*
X87350Y-59985D01*
X87350Y-59985D02*
X86000Y-59985D01*
X86000Y-59985D02*
X86000Y-62285D01*
G54D12*
X71050Y-61770D02*
X71050Y-62670D01*
X71050Y-62670D02*
X71700Y-62670D01*
X72400Y-61770D02*
X73050Y-61770D01*
X73050Y-61770D02*
X73050Y-62670D01*
X73050Y-62670D02*
X72400Y-62670D01*
X71700Y-61770D02*
X71050Y-61770D01*
G54D13*
X62740Y-60370D02*
G75*
G03X62740Y-60370I-50J0D01*
G74*
G01*
X62690Y-60820D02*
X62690Y-60420D01*
X62690Y-60420D02*
X63290Y-60420D01*
X63290Y-60420D02*
X63290Y-60820D01*
X63290Y-61220D02*
X63290Y-61620D01*
X63290Y-61620D02*
X62690Y-61620D01*
X62690Y-61620D02*
X62690Y-61220D01*
G54D12*
X79160Y-60600D02*
X79160Y-59350D01*
X79160Y-59350D02*
X78460Y-59350D01*
X78460Y-59350D02*
X78460Y-60600D01*
X80960Y-60600D02*
X80960Y-59350D01*
X80960Y-59350D02*
X80260Y-59350D01*
X80260Y-59350D02*
X80260Y-60600D01*
X78360Y-63000D02*
X78360Y-60600D01*
X78360Y-60600D02*
X81060Y-60600D01*
X81060Y-60600D02*
X81060Y-63700D01*
X81060Y-63750D02*
X78360Y-63750D01*
X78360Y-63700D02*
X78360Y-63000D01*
X67056Y-59780D02*
X67056Y-58530D01*
X67056Y-58530D02*
X66356Y-58530D01*
X66356Y-58530D02*
X66356Y-59780D01*
X68856Y-59780D02*
X68856Y-58530D01*
X68856Y-58530D02*
X68156Y-58530D01*
X68156Y-58530D02*
X68156Y-59780D01*
X66256Y-62180D02*
X66256Y-59780D01*
X66256Y-59780D02*
X68956Y-59780D01*
X68956Y-59780D02*
X68956Y-62880D01*
X68956Y-62930D02*
X66256Y-62930D01*
X66256Y-62880D02*
X66256Y-62180D01*
X36100Y-53000D02*
X36100Y-54200D01*
X37550Y-54200D02*
X38300Y-54200D01*
X38300Y-54200D02*
X38300Y-53000D01*
X38300Y-53000D02*
X37550Y-53000D01*
X36900Y-53000D02*
X36100Y-53000D01*
X36178Y-53000D02*
X36178Y-54200D01*
X36100Y-54200D02*
X36900Y-54200D01*
X38300Y-52650D02*
X38300Y-51750D01*
X38300Y-51750D02*
X37650Y-51750D01*
X36950Y-52650D02*
X36300Y-52650D01*
X36300Y-52650D02*
X36300Y-51750D01*
X36300Y-51750D02*
X36950Y-51750D01*
X37650Y-52650D02*
X38300Y-52650D01*
X36300Y-49950D02*
X36300Y-50850D01*
X36300Y-50850D02*
X36950Y-50850D01*
X37650Y-49950D02*
X38300Y-49950D01*
X38300Y-49950D02*
X38300Y-50850D01*
X38300Y-50850D02*
X37650Y-50850D01*
X36950Y-49950D02*
X36300Y-49950D01*
X35400Y-48100D02*
X35400Y-49300D01*
X36850Y-49300D02*
X37600Y-49300D01*
X37600Y-49300D02*
X37600Y-48100D01*
X37600Y-48100D02*
X36850Y-48100D01*
X36200Y-48100D02*
X35400Y-48100D01*
X35478Y-48100D02*
X35478Y-49300D01*
X35400Y-49300D02*
X36200Y-49300D01*
G54D11*
X39606Y-47523D02*
X39606Y-46647D01*
X39606Y-46647D02*
X39202Y-46647D01*
X39202Y-46647D02*
X39202Y-47504D01*
X42086Y-48390D02*
X42086Y-47523D01*
X42086Y-47523D02*
X37972Y-47523D01*
X37972Y-47523D02*
X37972Y-49256D01*
X37972Y-49256D02*
X42076Y-49256D01*
X42076Y-49256D02*
X42096Y-49256D01*
X42096Y-49256D02*
X42096Y-48370D01*
X51903Y-46338D02*
X51903Y-39448D01*
X51903Y-39448D02*
X54265Y-39448D01*
X54265Y-39448D02*
X54265Y-46338D01*
X52425Y-46348D02*
X50013Y-46348D01*
X50013Y-46348D02*
X50013Y-49301D01*
X50013Y-49301D02*
X50013Y-50246D01*
X50013Y-50246D02*
X54806Y-50246D01*
X54806Y-50246D02*
X54797Y-46358D01*
X54797Y-46358D02*
X52415Y-46348D01*
X45073Y-46438D02*
X45073Y-39548D01*
X45073Y-39548D02*
X47435Y-39548D01*
X47435Y-39548D02*
X47435Y-46438D01*
X45595Y-46448D02*
X43183Y-46448D01*
X43183Y-46448D02*
X43183Y-49401D01*
X43183Y-49401D02*
X43183Y-50346D01*
X43183Y-50346D02*
X47976Y-50346D01*
X47976Y-50346D02*
X47967Y-46458D01*
X47967Y-46458D02*
X45585Y-46448D01*
G54D12*
X54525Y-64850D02*
X54325Y-65150D01*
X54525Y-64150D02*
X54525Y-65175D01*
X54525Y-65175D02*
X53925Y-65175D01*
X53925Y-65175D02*
X53925Y-64150D01*
X53925Y-64150D02*
X54525Y-64150D01*
G54D13*
X52105Y-64005D02*
G75*
G03X52105Y-64005I-50J0D01*
G74*
G01*
X52055Y-64455D02*
X52055Y-64055D01*
X52055Y-64055D02*
X52655Y-64055D01*
X52655Y-64055D02*
X52655Y-64455D01*
X52655Y-64855D02*
X52655Y-65255D01*
X52655Y-65255D02*
X52055Y-65255D01*
X52055Y-65255D02*
X52055Y-64855D01*
X55675Y-63950D02*
G75*
G03X55675Y-63950I-50J0D01*
G74*
G01*
X55625Y-64400D02*
X55625Y-64000D01*
X55625Y-64000D02*
X56225Y-64000D01*
X56225Y-64000D02*
X56225Y-64400D01*
X56225Y-64800D02*
X56225Y-65200D01*
X56225Y-65200D02*
X55625Y-65200D01*
X55625Y-65200D02*
X55625Y-64800D01*
G54D18*
X77300Y-52950D02*
X77300Y-52700D01*
X77300Y-52700D02*
X81300Y-52700D01*
X81300Y-52700D02*
X81300Y-52950D01*
X77300Y-54450D02*
X77300Y-52950D01*
X77300Y-52950D02*
X81300Y-52950D01*
X81300Y-52950D02*
X81300Y-54450D01*
X81300Y-54450D02*
X77300Y-54450D01*
X74315Y-50705D02*
X74315Y-50955D01*
X74315Y-50955D02*
X70315Y-50955D01*
X70315Y-50955D02*
X70315Y-50705D01*
X74315Y-49205D02*
X74315Y-50705D01*
X74315Y-50705D02*
X70315Y-50705D01*
X70315Y-50705D02*
X70315Y-49205D01*
X70315Y-49205D02*
X74315Y-49205D01*
X68805Y-50790D02*
X68805Y-51040D01*
X68805Y-51040D02*
X64805Y-51040D01*
X64805Y-51040D02*
X64805Y-50790D01*
X68805Y-49290D02*
X68805Y-50790D01*
X68805Y-50790D02*
X64805Y-50790D01*
X64805Y-50790D02*
X64805Y-49290D01*
X64805Y-49290D02*
X68805Y-49290D01*
X82135Y-52950D02*
X82135Y-52700D01*
X82135Y-52700D02*
X86135Y-52700D01*
X86135Y-52700D02*
X86135Y-52950D01*
X82135Y-54450D02*
X82135Y-52950D01*
X82135Y-52950D02*
X86135Y-52950D01*
X86135Y-52950D02*
X86135Y-54450D01*
X86135Y-54450D02*
X82135Y-54450D01*
G54D11*
X34600Y-59670D02*
X40850Y-59670D01*
X40850Y-59670D02*
X40850Y-55170D01*
X40850Y-55170D02*
X34600Y-55170D01*
X34600Y-55170D02*
X34600Y-59670D01*
X36350Y-71170D02*
X41600Y-71170D01*
X41600Y-71170D02*
X41600Y-67670D01*
X41600Y-67670D02*
X36350Y-67670D01*
X36350Y-67670D02*
X36350Y-71170D01*
X64100Y-72420D02*
X64100Y-51420D01*
X64100Y-51420D02*
X37100Y-51420D01*
X37100Y-51420D02*
X37100Y-72420D01*
X37100Y-72420D02*
X64100Y-72420D01*
X66845Y-48520D02*
X69364Y-48520D01*
X69364Y-48520D02*
X69364Y-53520D01*
X69364Y-53520D02*
X64325Y-53520D01*
X64325Y-53520D02*
X64325Y-48520D01*
X64325Y-48520D02*
X66845Y-48520D01*
X72315Y-48520D02*
X74834Y-48520D01*
X74834Y-48520D02*
X74834Y-53520D01*
X74834Y-53520D02*
X69795Y-53520D01*
X69795Y-53520D02*
X69795Y-48520D01*
X69795Y-48520D02*
X72315Y-48520D01*
G54D18*
X48500Y-63200D02*
G75*
G03X48500Y-63200I-900J0D01*
G74*
G01*
G54D10*
X48500Y-62400D02*
X48500Y-61400D01*
X48500Y-61400D02*
X50500Y-61400D01*
X50500Y-61400D02*
X50500Y-62400D01*
X50500Y-62400D02*
X48500Y-62400D01*
X48200Y-65300D02*
X48200Y-64300D01*
X48200Y-64300D02*
X50200Y-64300D01*
X50200Y-64300D02*
X50200Y-65300D01*
X50200Y-65300D02*
X48200Y-65300D01*
X47200Y-64400D02*
X47200Y-65400D01*
X47200Y-65400D02*
X45200Y-65400D01*
X45200Y-65400D02*
X45200Y-64400D01*
X45200Y-64400D02*
X47200Y-64400D01*
X47200Y-60800D02*
X46200Y-60800D01*
X46200Y-60800D02*
X46200Y-58800D01*
X46200Y-58800D02*
X47200Y-58800D01*
X47200Y-58800D02*
X47200Y-60800D01*
X66100Y-58060D02*
X66100Y-59060D01*
X66100Y-59060D02*
X64100Y-59060D01*
X64100Y-59060D02*
X64100Y-58060D01*
X64100Y-58060D02*
X66100Y-58060D01*
G54D13*
X58900Y-53390D02*
G75*
G03X58900Y-53390I-50J0D01*
G74*
G01*
X58850Y-53840D02*
X58850Y-53440D01*
X58850Y-53440D02*
X59450Y-53440D01*
X59450Y-53440D02*
X59450Y-53840D01*
X59450Y-54240D02*
X59450Y-54640D01*
X59450Y-54640D02*
X58850Y-54640D01*
X58850Y-54640D02*
X58850Y-54240D01*
X59840Y-53390D02*
G75*
G03X59840Y-53390I-50J0D01*
G74*
G01*
X59790Y-53840D02*
X59790Y-53440D01*
X59790Y-53440D02*
X60390Y-53440D01*
X60390Y-53440D02*
X60390Y-53840D01*
X60390Y-54240D02*
X60390Y-54640D01*
X60390Y-54640D02*
X59790Y-54640D01*
X59790Y-54640D02*
X59790Y-54240D01*
X55880Y-53390D02*
G75*
G03X55880Y-53390I-50J0D01*
G74*
G01*
X55830Y-53840D02*
X55830Y-53440D01*
X55830Y-53440D02*
X56430Y-53440D01*
X56430Y-53440D02*
X56430Y-53840D01*
X56430Y-54240D02*
X56430Y-54640D01*
X56430Y-54640D02*
X55830Y-54640D01*
X55830Y-54640D02*
X55830Y-54240D01*
X50295Y-53385D02*
G75*
G03X50295Y-53385I-50J0D01*
G74*
G01*
X50245Y-53835D02*
X50245Y-53435D01*
X50245Y-53435D02*
X50845Y-53435D01*
X50845Y-53435D02*
X50845Y-53835D01*
X50845Y-54235D02*
X50845Y-54635D01*
X50845Y-54635D02*
X50245Y-54635D01*
X50245Y-54635D02*
X50245Y-54235D01*
X49250Y-53380D02*
G75*
G03X49250Y-53380I-50J0D01*
G74*
G01*
X49200Y-53830D02*
X49200Y-53430D01*
X49200Y-53430D02*
X49800Y-53430D01*
X49800Y-53430D02*
X49800Y-53830D01*
X49800Y-54230D02*
X49800Y-54630D01*
X49800Y-54630D02*
X49200Y-54630D01*
X49200Y-54630D02*
X49200Y-54230D01*
X61920Y-53380D02*
G75*
G03X61920Y-53380I-50J0D01*
G74*
G01*
X61870Y-53830D02*
X61870Y-53430D01*
X61870Y-53430D02*
X62470Y-53430D01*
X62470Y-53430D02*
X62470Y-53830D01*
X62470Y-54230D02*
X62470Y-54630D01*
X62470Y-54630D02*
X61870Y-54630D01*
X61870Y-54630D02*
X61870Y-54230D01*
X55020Y-68855D02*
G75*
G03X55020Y-68855I-50J0D01*
G74*
G01*
X54970Y-69305D02*
X54970Y-68905D01*
X54970Y-68905D02*
X55570Y-68905D01*
X55570Y-68905D02*
X55570Y-69305D01*
X55570Y-69705D02*
X55570Y-70105D01*
X55570Y-70105D02*
X54970Y-70105D01*
X54970Y-70105D02*
X54970Y-69705D01*
X51905Y-68850D02*
G75*
G03X51905Y-68850I-50J0D01*
G74*
G01*
X51855Y-69300D02*
X51855Y-68900D01*
X51855Y-68900D02*
X52455Y-68900D01*
X52455Y-68900D02*
X52455Y-69300D01*
X52455Y-69700D02*
X52455Y-70100D01*
X52455Y-70100D02*
X51855Y-70100D01*
X51855Y-70100D02*
X51855Y-69700D01*
X57870Y-53400D02*
G75*
G03X57870Y-53400I-50J0D01*
G74*
G01*
X57820Y-53850D02*
X57820Y-53450D01*
X57820Y-53450D02*
X58420Y-53450D01*
X58420Y-53450D02*
X58420Y-53850D01*
X58420Y-54250D02*
X58420Y-54650D01*
X58420Y-54650D02*
X57820Y-54650D01*
X57820Y-54650D02*
X57820Y-54250D01*
X48220Y-53390D02*
G75*
G03X48220Y-53390I-50J0D01*
G74*
G01*
X48170Y-53840D02*
X48170Y-53440D01*
X48170Y-53440D02*
X48770Y-53440D01*
X48770Y-53440D02*
X48770Y-53840D01*
X48770Y-54240D02*
X48770Y-54640D01*
X48770Y-54640D02*
X48170Y-54640D01*
X48170Y-54640D02*
X48170Y-54240D01*
G54D12*
X87205Y-51475D02*
G75*
G03X87205Y-51475I-70J0D01*
G74*
G01*
X88285Y-52125D02*
X88285Y-51525D01*
X88285Y-51525D02*
X87185Y-51525D01*
X87185Y-51525D02*
X87185Y-52125D01*
X87185Y-52725D02*
X87185Y-53325D01*
X87185Y-53325D02*
X88285Y-53325D01*
X88285Y-53325D02*
X88285Y-52725D01*
G54D19*
G36*
X47669Y-68828D02*
X47648Y-69001D01*
X47629Y-69104D01*
X47602Y-69178D01*
X47585Y-69199D01*
X47542Y-69206D01*
X47441Y-69212D01*
X47292Y-69218D01*
X47103Y-69221D01*
X46884Y-69224D01*
X46645Y-69224D01*
X46644Y-69224D01*
X45745Y-69223D01*
X45715Y-69317D01*
X45694Y-69402D01*
X45669Y-69523D01*
X45654Y-69612D01*
X45629Y-69761D01*
X45602Y-69920D01*
X45589Y-69995D01*
X45567Y-70128D01*
X45546Y-70259D01*
X45538Y-70312D01*
X45519Y-70404D01*
X45495Y-70468D01*
X45489Y-70477D01*
X45462Y-70536D01*
X45460Y-70562D01*
X45428Y-70627D01*
X45344Y-70685D01*
X45219Y-70730D01*
X45068Y-70756D01*
X44965Y-70762D01*
X44847Y-70758D01*
X44758Y-70750D01*
X44717Y-70737D01*
X44716Y-70737D01*
X44701Y-70671D01*
X44701Y-70577D01*
X44713Y-70487D01*
X44732Y-70437D01*
X44786Y-70412D01*
X44881Y-70397D01*
X44931Y-70395D01*
X45020Y-70390D01*
X45082Y-70368D01*
X45125Y-70317D01*
X45157Y-70227D01*
X45186Y-70087D01*
X45199Y-70012D01*
X45266Y-69614D01*
X45309Y-69370D01*
X45335Y-69228D01*
X44399Y-69228D01*
X44121Y-69227D01*
X43882Y-69224D01*
X43690Y-69219D01*
X43549Y-69212D01*
X43466Y-69203D01*
X43444Y-69196D01*
X43436Y-69146D01*
X43439Y-69056D01*
X43446Y-68996D01*
X43468Y-68828D01*
X44428Y-68828D01*
X44675Y-68827D01*
X44899Y-68825D01*
X45092Y-68821D01*
X45247Y-68815D01*
X45353Y-68809D01*
X45403Y-68802D01*
X45406Y-68801D01*
X45420Y-68756D01*
X45439Y-68664D01*
X45459Y-68547D01*
X45478Y-68427D01*
X45494Y-68332D01*
X45502Y-68283D01*
X45480Y-68267D01*
X45405Y-68253D01*
X45273Y-68242D01*
X45081Y-68233D01*
X44943Y-68228D01*
X44376Y-68212D01*
X44388Y-68062D01*
X44398Y-67965D01*
X44410Y-67899D01*
X44415Y-67887D01*
X44451Y-67881D01*
X44545Y-67876D01*
X44693Y-67871D01*
X44885Y-67867D01*
X45114Y-67864D01*
X45374Y-67862D01*
X45657Y-67862D01*
X45725Y-67862D01*
X46061Y-67862D01*
X46336Y-67863D01*
X46556Y-67865D01*
X46727Y-67869D01*
X46854Y-67874D01*
X46943Y-67880D01*
X46999Y-67888D01*
X47029Y-67899D01*
X47037Y-67907D01*
X47036Y-67966D01*
X47026Y-67982D01*
X47002Y-68034D01*
X46987Y-68112D01*
X46976Y-68212D01*
X46426Y-68228D01*
X45876Y-68245D01*
X45853Y-68428D01*
X45836Y-68555D01*
X45817Y-68672D01*
X45808Y-68720D01*
X45785Y-68828D01*
X46727Y-68828D01*
X47669Y-68828D01*
X47669Y-68828D01*
X47669Y-68828D01*
G37*
G36*
X47776Y-67078D02*
X47773Y-67262D01*
X47763Y-67409D01*
X47743Y-67568D01*
X47732Y-67628D01*
X47707Y-67754D01*
X47683Y-67871D01*
X47673Y-67920D01*
X47658Y-67982D01*
X47630Y-68014D01*
X47573Y-68026D01*
X47469Y-68028D01*
X47287Y-68028D01*
X47308Y-67853D01*
X47324Y-67723D01*
X47341Y-67597D01*
X47347Y-67553D01*
X47365Y-67428D01*
X45812Y-67428D01*
X44258Y-67428D01*
X44225Y-67514D01*
X44200Y-67614D01*
X44193Y-67685D01*
X44183Y-67774D01*
X44159Y-67882D01*
X44154Y-67899D01*
X44129Y-67974D01*
X44098Y-68012D01*
X44041Y-68026D01*
X43938Y-68028D01*
X43838Y-68024D01*
X43772Y-68013D01*
X43756Y-68003D01*
X43760Y-67950D01*
X43761Y-67945D01*
X43771Y-67895D01*
X43787Y-67804D01*
X43797Y-67745D01*
X43831Y-67528D01*
X43859Y-67368D01*
X43880Y-67255D01*
X43898Y-67180D01*
X43914Y-67134D01*
X43930Y-67107D01*
X43930Y-67106D01*
X43956Y-67092D01*
X44010Y-67081D01*
X44100Y-67072D01*
X44232Y-67067D01*
X44413Y-67063D01*
X44650Y-67062D01*
X44805Y-67062D01*
X45643Y-67062D01*
X45685Y-66929D01*
X45712Y-66811D01*
X45726Y-66695D01*
X45726Y-66681D01*
X45734Y-66598D01*
X45753Y-66550D01*
X45756Y-66547D01*
X45811Y-66531D01*
X45903Y-66521D01*
X46008Y-66516D01*
X46104Y-66517D01*
X46167Y-66526D01*
X46180Y-66534D01*
X46180Y-66584D01*
X46168Y-66605D01*
X46136Y-66671D01*
X46101Y-66775D01*
X46073Y-66887D01*
X46060Y-66979D01*
X46060Y-66990D01*
X46061Y-67011D01*
X46071Y-67028D01*
X46097Y-67041D01*
X46146Y-67050D01*
X46227Y-67056D01*
X46346Y-67061D01*
X46511Y-67064D01*
X46730Y-67067D01*
X46918Y-67069D01*
X47776Y-67078D01*
X47776Y-67078D01*
X47776Y-67078D01*
G37*
G54D11*
X79434Y-65844D02*
X79434Y-65450D01*
X79659Y-65844D02*
X79490Y-65619D01*
X79659Y-65450D02*
X79434Y-65675D01*
X80034Y-65844D02*
X79809Y-65844D01*
X79921Y-65844D02*
X79921Y-65450D01*
X79884Y-65506D01*
X79846Y-65544D01*
X79809Y-65563D01*
G54D20*
X74136Y-72300D02*
X74107Y-72285D01*
X74079Y-72257D01*
X74036Y-72214D01*
X74007Y-72200D01*
X73979Y-72200D01*
X73993Y-72271D02*
X73965Y-72257D01*
X73936Y-72228D01*
X73922Y-72171D01*
X73922Y-72071D01*
X73936Y-72014D01*
X73965Y-71985D01*
X73993Y-71971D01*
X74050Y-71971D01*
X74079Y-71985D01*
X74107Y-72014D01*
X74122Y-72071D01*
X74122Y-72171D01*
X74107Y-72228D01*
X74079Y-72257D01*
X74050Y-72271D01*
X73993Y-72271D01*
X74407Y-72271D02*
X74236Y-72271D01*
X74322Y-72271D02*
X74322Y-71971D01*
X74293Y-72014D01*
X74265Y-72042D01*
X74236Y-72057D01*
G54D17*
G54D11*
X75779Y-69695D02*
X75385Y-69695D01*
X75385Y-69601D01*
X75404Y-69545D01*
X75441Y-69508D01*
X75479Y-69489D01*
X75554Y-69470D01*
X75610Y-69470D01*
X75685Y-69489D01*
X75723Y-69508D01*
X75760Y-69545D01*
X75779Y-69601D01*
X75779Y-69695D01*
X75423Y-69320D02*
X75404Y-69301D01*
X75385Y-69264D01*
X75385Y-69170D01*
X75404Y-69133D01*
X75423Y-69114D01*
X75460Y-69095D01*
X75498Y-69095D01*
X75554Y-69114D01*
X75779Y-69339D01*
X75779Y-69095D01*
G54D21*
X72457Y-71089D02*
X72391Y-70995D01*
X72344Y-71089D02*
X72344Y-70892D01*
X72419Y-70892D01*
X72438Y-70902D01*
X72447Y-70911D01*
X72457Y-70930D01*
X72457Y-70958D01*
X72447Y-70977D01*
X72438Y-70986D01*
X72419Y-70995D01*
X72344Y-70995D01*
X72626Y-70892D02*
X72588Y-70892D01*
X72569Y-70902D01*
X72560Y-70911D01*
X72541Y-70939D01*
X72532Y-70977D01*
X72532Y-71052D01*
X72541Y-71070D01*
X72550Y-71080D01*
X72569Y-71089D01*
X72607Y-71089D01*
X72626Y-71080D01*
X72635Y-71070D01*
X72644Y-71052D01*
X72644Y-71005D01*
X72635Y-70986D01*
X72626Y-70977D01*
X72607Y-70967D01*
X72569Y-70967D01*
X72550Y-70977D01*
X72541Y-70986D01*
X72532Y-71005D01*
X72452Y-70039D02*
X72386Y-69945D01*
X72339Y-70039D02*
X72339Y-69842D01*
X72414Y-69842D01*
X72433Y-69852D01*
X72442Y-69861D01*
X72452Y-69880D01*
X72452Y-69908D01*
X72442Y-69927D01*
X72433Y-69936D01*
X72414Y-69945D01*
X72339Y-69945D01*
X72527Y-69861D02*
X72536Y-69852D01*
X72555Y-69842D01*
X72602Y-69842D01*
X72621Y-69852D01*
X72630Y-69861D01*
X72639Y-69880D01*
X72639Y-69899D01*
X72630Y-69927D01*
X72517Y-70039D01*
X72639Y-70039D01*
X74732Y-65989D02*
X74666Y-65895D01*
X74619Y-65989D02*
X74619Y-65792D01*
X74694Y-65792D01*
X74713Y-65802D01*
X74722Y-65811D01*
X74732Y-65830D01*
X74732Y-65858D01*
X74722Y-65877D01*
X74713Y-65886D01*
X74694Y-65895D01*
X74619Y-65895D01*
X74901Y-65858D02*
X74901Y-65989D01*
X74854Y-65783D02*
X74807Y-65924D01*
X74929Y-65924D01*
X68942Y-68074D02*
X68876Y-67980D01*
X68829Y-68074D02*
X68829Y-67877D01*
X68904Y-67877D01*
X68923Y-67887D01*
X68932Y-67896D01*
X68942Y-67915D01*
X68942Y-67943D01*
X68932Y-67962D01*
X68923Y-67971D01*
X68904Y-67980D01*
X68829Y-67980D01*
X69129Y-68074D02*
X69017Y-68074D01*
X69073Y-68074D02*
X69073Y-67877D01*
X69054Y-67905D01*
X69035Y-67924D01*
X69017Y-67934D01*
X75877Y-66954D02*
X75811Y-66860D01*
X75764Y-66954D02*
X75764Y-66757D01*
X75839Y-66757D01*
X75858Y-66767D01*
X75867Y-66776D01*
X75877Y-66795D01*
X75877Y-66823D01*
X75867Y-66842D01*
X75858Y-66851D01*
X75839Y-66860D01*
X75764Y-66860D01*
X76055Y-66757D02*
X75961Y-66757D01*
X75952Y-66851D01*
X75961Y-66842D01*
X75980Y-66832D01*
X76027Y-66832D01*
X76046Y-66842D01*
X76055Y-66851D01*
X76064Y-66870D01*
X76064Y-66917D01*
X76055Y-66935D01*
X76046Y-66945D01*
X76027Y-66954D01*
X75980Y-66954D01*
X75961Y-66945D01*
X75952Y-66935D01*
X74584Y-69767D02*
X74490Y-69833D01*
X74584Y-69880D02*
X74387Y-69880D01*
X74387Y-69805D01*
X74397Y-69786D01*
X74406Y-69777D01*
X74425Y-69767D01*
X74453Y-69767D01*
X74472Y-69777D01*
X74481Y-69786D01*
X74490Y-69805D01*
X74490Y-69880D01*
X74387Y-69702D02*
X74387Y-69580D01*
X74462Y-69645D01*
X74462Y-69617D01*
X74472Y-69598D01*
X74481Y-69589D01*
X74500Y-69580D01*
X74547Y-69580D01*
X74565Y-69589D01*
X74575Y-69598D01*
X74584Y-69617D01*
X74584Y-69674D01*
X74575Y-69692D01*
X74565Y-69702D01*
G54D12*
X73167Y-69395D02*
X73167Y-69195D01*
X73215Y-69195D01*
X73243Y-69205D01*
X73262Y-69224D01*
X73272Y-69243D01*
X73281Y-69281D01*
X73281Y-69310D01*
X73272Y-69348D01*
X73262Y-69367D01*
X73243Y-69386D01*
X73215Y-69395D01*
X73167Y-69395D01*
X73472Y-69395D02*
X73357Y-69395D01*
X73415Y-69395D02*
X73415Y-69195D01*
X73395Y-69224D01*
X73376Y-69243D01*
X73357Y-69253D01*
G54D11*
X71250Y-66365D02*
X71250Y-66684D01*
X71268Y-66721D01*
X71287Y-66740D01*
X71325Y-66759D01*
X71400Y-66759D01*
X71437Y-66740D01*
X71456Y-66721D01*
X71475Y-66684D01*
X71475Y-66365D01*
X71868Y-66759D02*
X71643Y-66759D01*
X71756Y-66759D02*
X71756Y-66365D01*
X71718Y-66421D01*
X71681Y-66459D01*
X71643Y-66478D01*
G54D12*
X65061Y-56508D02*
X65304Y-56508D01*
X65332Y-56494D01*
X65347Y-56480D01*
X65361Y-56451D01*
X65361Y-56394D01*
X65347Y-56365D01*
X65332Y-56351D01*
X65304Y-56337D01*
X65061Y-56337D01*
X65090Y-56208D02*
X65075Y-56194D01*
X65061Y-56165D01*
X65061Y-56094D01*
X65075Y-56065D01*
X65090Y-56051D01*
X65118Y-56037D01*
X65147Y-56037D01*
X65190Y-56051D01*
X65361Y-56222D01*
X65361Y-56037D01*
X72847Y-59171D02*
X72847Y-59495D01*
X72868Y-59533D01*
X72890Y-59552D01*
X72932Y-59571D01*
X73018Y-59571D01*
X73061Y-59552D01*
X73082Y-59533D01*
X73104Y-59495D01*
X73104Y-59171D01*
X73511Y-59305D02*
X73511Y-59571D01*
X73404Y-59152D02*
X73297Y-59438D01*
X73575Y-59438D01*
X72677Y-54121D02*
X72577Y-53978D01*
X72505Y-54121D02*
X72505Y-53821D01*
X72620Y-53821D01*
X72648Y-53835D01*
X72662Y-53850D01*
X72677Y-53878D01*
X72677Y-53921D01*
X72662Y-53950D01*
X72648Y-53964D01*
X72620Y-53978D01*
X72505Y-53978D01*
X72791Y-53850D02*
X72805Y-53835D01*
X72834Y-53821D01*
X72905Y-53821D01*
X72934Y-53835D01*
X72948Y-53850D01*
X72962Y-53878D01*
X72962Y-53907D01*
X72948Y-53950D01*
X72777Y-54121D01*
X72962Y-54121D01*
X73220Y-53821D02*
X73162Y-53821D01*
X73134Y-53835D01*
X73120Y-53850D01*
X73091Y-53892D01*
X73077Y-53950D01*
X73077Y-54064D01*
X73091Y-54092D01*
X73105Y-54107D01*
X73134Y-54121D01*
X73191Y-54121D01*
X73220Y-54107D01*
X73234Y-54092D01*
X73248Y-54064D01*
X73248Y-53992D01*
X73234Y-53964D01*
X73220Y-53950D01*
X73191Y-53935D01*
X73134Y-53935D01*
X73105Y-53950D01*
X73091Y-53964D01*
X73077Y-53992D01*
X69681Y-55542D02*
X69538Y-55642D01*
X69681Y-55714D02*
X69381Y-55714D01*
X69381Y-55600D01*
X69395Y-55571D01*
X69410Y-55557D01*
X69438Y-55542D01*
X69481Y-55542D01*
X69510Y-55557D01*
X69524Y-55571D01*
X69538Y-55600D01*
X69538Y-55714D01*
X69410Y-55428D02*
X69395Y-55414D01*
X69381Y-55385D01*
X69381Y-55314D01*
X69395Y-55285D01*
X69410Y-55271D01*
X69438Y-55257D01*
X69467Y-55257D01*
X69510Y-55271D01*
X69681Y-55442D01*
X69681Y-55257D01*
X69481Y-55000D02*
X69681Y-55000D01*
X69367Y-55071D02*
X69581Y-55142D01*
X69581Y-54957D01*
G54D21*
X80853Y-57659D02*
X80787Y-57565D01*
X80740Y-57659D02*
X80740Y-57462D01*
X80815Y-57462D01*
X80834Y-57472D01*
X80843Y-57481D01*
X80853Y-57500D01*
X80853Y-57528D01*
X80843Y-57547D01*
X80834Y-57556D01*
X80815Y-57565D01*
X80740Y-57565D01*
X80928Y-57481D02*
X80937Y-57472D01*
X80956Y-57462D01*
X81003Y-57462D01*
X81022Y-57472D01*
X81031Y-57481D01*
X81040Y-57500D01*
X81040Y-57519D01*
X81031Y-57547D01*
X80919Y-57659D01*
X81040Y-57659D01*
X81153Y-57547D02*
X81134Y-57537D01*
X81125Y-57528D01*
X81116Y-57509D01*
X81116Y-57500D01*
X81125Y-57481D01*
X81134Y-57472D01*
X81153Y-57462D01*
X81191Y-57462D01*
X81209Y-57472D01*
X81219Y-57481D01*
X81228Y-57500D01*
X81228Y-57509D01*
X81219Y-57528D01*
X81209Y-57537D01*
X81191Y-57547D01*
X81153Y-57547D01*
X81134Y-57556D01*
X81125Y-57565D01*
X81116Y-57584D01*
X81116Y-57622D01*
X81125Y-57640D01*
X81134Y-57650D01*
X81153Y-57659D01*
X81191Y-57659D01*
X81209Y-57650D01*
X81219Y-57640D01*
X81228Y-57622D01*
X81228Y-57584D01*
X81219Y-57565D01*
X81209Y-57556D01*
X81191Y-57547D01*
X74434Y-59136D02*
X74340Y-59202D01*
X74434Y-59249D02*
X74237Y-59249D01*
X74237Y-59174D01*
X74247Y-59155D01*
X74256Y-59146D01*
X74275Y-59136D01*
X74303Y-59136D01*
X74322Y-59146D01*
X74331Y-59155D01*
X74340Y-59174D01*
X74340Y-59249D01*
X74256Y-59061D02*
X74247Y-59052D01*
X74237Y-59033D01*
X74237Y-58986D01*
X74247Y-58967D01*
X74256Y-58958D01*
X74275Y-58949D01*
X74294Y-58949D01*
X74322Y-58958D01*
X74434Y-59070D01*
X74434Y-58949D01*
X74237Y-58883D02*
X74237Y-58752D01*
X74434Y-58836D01*
X74399Y-55136D02*
X74305Y-55202D01*
X74399Y-55249D02*
X74202Y-55249D01*
X74202Y-55174D01*
X74212Y-55155D01*
X74221Y-55146D01*
X74240Y-55136D01*
X74268Y-55136D01*
X74287Y-55146D01*
X74296Y-55155D01*
X74305Y-55174D01*
X74305Y-55249D01*
X74221Y-55061D02*
X74212Y-55052D01*
X74202Y-55033D01*
X74202Y-54986D01*
X74212Y-54967D01*
X74221Y-54958D01*
X74240Y-54949D01*
X74259Y-54949D01*
X74287Y-54958D01*
X74399Y-55070D01*
X74399Y-54949D01*
X74399Y-54855D02*
X74399Y-54817D01*
X74390Y-54798D01*
X74380Y-54789D01*
X74352Y-54770D01*
X74315Y-54761D01*
X74240Y-54761D01*
X74221Y-54770D01*
X74212Y-54780D01*
X74202Y-54798D01*
X74202Y-54836D01*
X74212Y-54855D01*
X74221Y-54864D01*
X74240Y-54873D01*
X74287Y-54873D01*
X74305Y-54864D01*
X74315Y-54855D01*
X74324Y-54836D01*
X74324Y-54798D01*
X74315Y-54780D01*
X74305Y-54770D01*
X74287Y-54761D01*
X80808Y-56684D02*
X80742Y-56590D01*
X80695Y-56684D02*
X80695Y-56487D01*
X80770Y-56487D01*
X80789Y-56497D01*
X80798Y-56506D01*
X80808Y-56525D01*
X80808Y-56553D01*
X80798Y-56572D01*
X80789Y-56581D01*
X80770Y-56590D01*
X80695Y-56590D01*
X80977Y-56553D02*
X80977Y-56684D01*
X80930Y-56478D02*
X80883Y-56619D01*
X81005Y-56619D01*
X81164Y-56553D02*
X81164Y-56684D01*
X81117Y-56478D02*
X81071Y-56619D01*
X81192Y-56619D01*
X80793Y-55699D02*
X80727Y-55605D01*
X80680Y-55699D02*
X80680Y-55502D01*
X80755Y-55502D01*
X80774Y-55512D01*
X80783Y-55521D01*
X80793Y-55540D01*
X80793Y-55568D01*
X80783Y-55587D01*
X80774Y-55596D01*
X80755Y-55605D01*
X80680Y-55605D01*
X80962Y-55568D02*
X80962Y-55699D01*
X80915Y-55493D02*
X80868Y-55634D01*
X80990Y-55634D01*
X81159Y-55502D02*
X81065Y-55502D01*
X81056Y-55596D01*
X81065Y-55587D01*
X81084Y-55577D01*
X81131Y-55577D01*
X81149Y-55587D01*
X81159Y-55596D01*
X81168Y-55615D01*
X81168Y-55662D01*
X81159Y-55680D01*
X81149Y-55690D01*
X81131Y-55699D01*
X81084Y-55699D01*
X81065Y-55690D01*
X81056Y-55680D01*
G54D17*
X77911Y-58535D02*
X77511Y-58535D01*
X77511Y-58382D01*
X77530Y-58344D01*
X77550Y-58325D01*
X77588Y-58306D01*
X77645Y-58306D01*
X77683Y-58325D01*
X77702Y-58344D01*
X77721Y-58382D01*
X77721Y-58535D01*
X77511Y-58173D02*
X77511Y-57925D01*
X77664Y-58059D01*
X77664Y-58001D01*
X77683Y-57963D01*
X77702Y-57944D01*
X77740Y-57925D01*
X77835Y-57925D01*
X77873Y-57944D01*
X77892Y-57963D01*
X77911Y-58001D01*
X77911Y-58116D01*
X77892Y-58154D01*
X77873Y-58173D01*
G54D11*
X90959Y-71915D02*
X90565Y-71915D01*
X90565Y-71765D01*
X90584Y-71728D01*
X90603Y-71709D01*
X90640Y-71690D01*
X90696Y-71690D01*
X90734Y-71709D01*
X90753Y-71728D01*
X90771Y-71765D01*
X90771Y-71915D01*
X90565Y-71334D02*
X90565Y-71521D01*
X90753Y-71540D01*
X90734Y-71521D01*
X90715Y-71484D01*
X90715Y-71390D01*
X90734Y-71353D01*
X90753Y-71334D01*
X90790Y-71315D01*
X90884Y-71315D01*
X90921Y-71334D01*
X90940Y-71353D01*
X90959Y-71390D01*
X90959Y-71484D01*
X90940Y-71521D01*
X90921Y-71540D01*
X90799Y-64790D02*
X90405Y-64790D01*
X90405Y-64640D01*
X90424Y-64603D01*
X90443Y-64584D01*
X90480Y-64565D01*
X90536Y-64565D01*
X90574Y-64584D01*
X90593Y-64603D01*
X90611Y-64640D01*
X90611Y-64790D01*
X90536Y-64228D02*
X90799Y-64228D01*
X90386Y-64321D02*
X90668Y-64415D01*
X90668Y-64171D01*
X34052Y-52016D02*
X33659Y-52016D01*
X33659Y-51866D01*
X33677Y-51829D01*
X33696Y-51810D01*
X33734Y-51791D01*
X33790Y-51791D01*
X33827Y-51810D01*
X33846Y-51829D01*
X33865Y-51866D01*
X33865Y-52016D01*
X34052Y-51416D02*
X34052Y-51641D01*
X34052Y-51529D02*
X33659Y-51529D01*
X33715Y-51566D01*
X33752Y-51604D01*
X33771Y-51641D01*
G54D21*
X54689Y-67711D02*
X54595Y-67777D01*
X54689Y-67824D02*
X54492Y-67824D01*
X54492Y-67749D01*
X54502Y-67730D01*
X54511Y-67721D01*
X54530Y-67711D01*
X54558Y-67711D01*
X54577Y-67721D01*
X54586Y-67730D01*
X54595Y-67749D01*
X54595Y-67824D01*
X54511Y-67636D02*
X54502Y-67627D01*
X54492Y-67608D01*
X54492Y-67561D01*
X54502Y-67542D01*
X54511Y-67533D01*
X54530Y-67524D01*
X54549Y-67524D01*
X54577Y-67533D01*
X54689Y-67645D01*
X54689Y-67524D01*
X54511Y-67448D02*
X54502Y-67439D01*
X54492Y-67420D01*
X54492Y-67373D01*
X54502Y-67355D01*
X54511Y-67345D01*
X54530Y-67336D01*
X54549Y-67336D01*
X54577Y-67345D01*
X54689Y-67458D01*
X54689Y-67336D01*
G54D12*
X59842Y-61434D02*
X60206Y-61434D01*
X60249Y-61415D01*
X60270Y-61396D01*
X60292Y-61358D01*
X60292Y-61282D01*
X60270Y-61244D01*
X60249Y-61225D01*
X60206Y-61206D01*
X59842Y-61206D01*
X59842Y-60844D02*
X59842Y-60920D01*
X59863Y-60958D01*
X59885Y-60977D01*
X59949Y-61015D01*
X60035Y-61034D01*
X60206Y-61034D01*
X60249Y-61015D01*
X60270Y-60996D01*
X60292Y-60958D01*
X60292Y-60882D01*
X60270Y-60844D01*
X60249Y-60825D01*
X60206Y-60806D01*
X60099Y-60806D01*
X60056Y-60825D01*
X60035Y-60844D01*
X60013Y-60882D01*
X60013Y-60958D01*
X60035Y-60996D01*
X60056Y-61015D01*
X60099Y-61034D01*
G54D11*
X86859Y-59620D02*
X86465Y-59620D01*
X86465Y-59526D01*
X86484Y-59470D01*
X86521Y-59433D01*
X86559Y-59414D01*
X86634Y-59395D01*
X86690Y-59395D01*
X86765Y-59414D01*
X86803Y-59433D01*
X86840Y-59470D01*
X86859Y-59526D01*
X86859Y-59620D01*
X86465Y-59039D02*
X86465Y-59226D01*
X86653Y-59245D01*
X86634Y-59226D01*
X86615Y-59189D01*
X86615Y-59095D01*
X86634Y-59058D01*
X86653Y-59039D01*
X86690Y-59020D01*
X86784Y-59020D01*
X86821Y-59039D01*
X86840Y-59058D01*
X86859Y-59095D01*
X86859Y-59189D01*
X86840Y-59226D01*
X86821Y-59245D01*
G54D12*
X71907Y-63101D02*
X71807Y-62958D01*
X71735Y-63101D02*
X71735Y-62801D01*
X71850Y-62801D01*
X71878Y-62815D01*
X71892Y-62830D01*
X71907Y-62858D01*
X71907Y-62901D01*
X71892Y-62930D01*
X71878Y-62944D01*
X71850Y-62958D01*
X71735Y-62958D01*
X72007Y-62801D02*
X72192Y-62801D01*
X72092Y-62915D01*
X72135Y-62915D01*
X72164Y-62930D01*
X72178Y-62944D01*
X72192Y-62972D01*
X72192Y-63044D01*
X72178Y-63072D01*
X72164Y-63087D01*
X72135Y-63101D01*
X72050Y-63101D01*
X72021Y-63087D01*
X72007Y-63072D01*
X72292Y-62801D02*
X72478Y-62801D01*
X72378Y-62915D01*
X72421Y-62915D01*
X72450Y-62930D01*
X72464Y-62944D01*
X72478Y-62972D01*
X72478Y-63044D01*
X72464Y-63072D01*
X72450Y-63087D01*
X72421Y-63101D01*
X72335Y-63101D01*
X72307Y-63087D01*
X72292Y-63072D01*
G54D21*
X63565Y-61161D02*
X63575Y-61171D01*
X63584Y-61199D01*
X63584Y-61217D01*
X63575Y-61246D01*
X63556Y-61264D01*
X63537Y-61274D01*
X63500Y-61283D01*
X63472Y-61283D01*
X63434Y-61274D01*
X63415Y-61264D01*
X63397Y-61246D01*
X63387Y-61217D01*
X63387Y-61199D01*
X63397Y-61171D01*
X63406Y-61161D01*
X63584Y-60974D02*
X63584Y-61086D01*
X63584Y-61030D02*
X63387Y-61030D01*
X63415Y-61049D01*
X63434Y-61067D01*
X63444Y-61086D01*
X63406Y-60898D02*
X63397Y-60889D01*
X63387Y-60870D01*
X63387Y-60823D01*
X63397Y-60805D01*
X63406Y-60795D01*
X63425Y-60786D01*
X63444Y-60786D01*
X63472Y-60795D01*
X63584Y-60908D01*
X63584Y-60786D01*
G54D17*
X77871Y-61045D02*
X77833Y-61021D01*
X77795Y-60973D01*
X77738Y-60902D01*
X77700Y-60878D01*
X77662Y-60878D01*
X77681Y-60997D02*
X77643Y-60973D01*
X77605Y-60925D01*
X77586Y-60830D01*
X77586Y-60664D01*
X77605Y-60568D01*
X77643Y-60521D01*
X77681Y-60497D01*
X77757Y-60497D01*
X77795Y-60521D01*
X77833Y-60568D01*
X77852Y-60664D01*
X77852Y-60830D01*
X77833Y-60925D01*
X77795Y-60973D01*
X77757Y-60997D01*
X77681Y-60997D01*
X78195Y-60664D02*
X78195Y-60997D01*
X78100Y-60473D02*
X78005Y-60830D01*
X78252Y-60830D01*
X69366Y-60250D02*
X69328Y-60226D01*
X69290Y-60178D01*
X69233Y-60107D01*
X69195Y-60083D01*
X69157Y-60083D01*
X69176Y-60202D02*
X69138Y-60178D01*
X69100Y-60130D01*
X69081Y-60035D01*
X69081Y-59869D01*
X69100Y-59773D01*
X69138Y-59726D01*
X69176Y-59702D01*
X69252Y-59702D01*
X69290Y-59726D01*
X69328Y-59773D01*
X69347Y-59869D01*
X69347Y-60035D01*
X69328Y-60130D01*
X69290Y-60178D01*
X69252Y-60202D01*
X69176Y-60202D01*
X69481Y-59702D02*
X69728Y-59702D01*
X69595Y-59892D01*
X69652Y-59892D01*
X69690Y-59916D01*
X69709Y-59940D01*
X69728Y-59988D01*
X69728Y-60107D01*
X69709Y-60154D01*
X69690Y-60178D01*
X69652Y-60202D01*
X69538Y-60202D01*
X69500Y-60178D01*
X69481Y-60154D01*
G54D12*
X38594Y-53711D02*
X38462Y-53711D01*
X38462Y-53435D01*
X38672Y-53462D02*
X38685Y-53449D01*
X38712Y-53435D01*
X38777Y-53435D01*
X38804Y-53449D01*
X38817Y-53462D01*
X38830Y-53488D01*
X38830Y-53514D01*
X38817Y-53554D01*
X38659Y-53711D01*
X38830Y-53711D01*
X38570Y-52332D02*
X38555Y-52347D01*
X38512Y-52361D01*
X38484Y-52361D01*
X38441Y-52347D01*
X38412Y-52318D01*
X38398Y-52290D01*
X38384Y-52232D01*
X38384Y-52190D01*
X38398Y-52132D01*
X38412Y-52104D01*
X38441Y-52075D01*
X38484Y-52061D01*
X38512Y-52061D01*
X38555Y-52075D01*
X38570Y-52090D01*
X38684Y-52090D02*
X38698Y-52075D01*
X38727Y-52061D01*
X38798Y-52061D01*
X38827Y-52075D01*
X38841Y-52090D01*
X38855Y-52118D01*
X38855Y-52147D01*
X38841Y-52190D01*
X38670Y-52361D01*
X38855Y-52361D01*
X37240Y-49902D02*
X37225Y-49917D01*
X37182Y-49931D01*
X37154Y-49931D01*
X37111Y-49917D01*
X37082Y-49888D01*
X37068Y-49860D01*
X37054Y-49802D01*
X37054Y-49760D01*
X37068Y-49702D01*
X37082Y-49674D01*
X37111Y-49645D01*
X37154Y-49631D01*
X37182Y-49631D01*
X37225Y-49645D01*
X37240Y-49660D01*
X37340Y-49631D02*
X37525Y-49631D01*
X37425Y-49745D01*
X37468Y-49745D01*
X37497Y-49760D01*
X37511Y-49774D01*
X37525Y-49802D01*
X37525Y-49874D01*
X37511Y-49902D01*
X37497Y-49917D01*
X37468Y-49931D01*
X37382Y-49931D01*
X37354Y-49917D01*
X37340Y-49902D01*
X36474Y-48056D02*
X36342Y-48056D01*
X36342Y-47780D01*
X36539Y-47780D02*
X36710Y-47780D01*
X36618Y-47885D01*
X36657Y-47885D01*
X36684Y-47899D01*
X36697Y-47912D01*
X36710Y-47938D01*
X36710Y-48004D01*
X36697Y-48030D01*
X36684Y-48043D01*
X36657Y-48056D01*
X36579Y-48056D01*
X36552Y-48043D01*
X36539Y-48030D01*
G54D11*
X39357Y-49711D02*
X39413Y-49730D01*
X39507Y-49730D01*
X39544Y-49711D01*
X39563Y-49692D01*
X39582Y-49655D01*
X39582Y-49617D01*
X39563Y-49580D01*
X39544Y-49561D01*
X39507Y-49542D01*
X39432Y-49524D01*
X39394Y-49505D01*
X39375Y-49486D01*
X39357Y-49449D01*
X39357Y-49411D01*
X39375Y-49374D01*
X39394Y-49355D01*
X39432Y-49336D01*
X39525Y-49336D01*
X39582Y-49355D01*
X39713Y-49336D02*
X39807Y-49730D01*
X39882Y-49449D01*
X39957Y-49730D01*
X40050Y-49336D01*
X40406Y-49730D02*
X40182Y-49730D01*
X40294Y-49730D02*
X40294Y-49336D01*
X40257Y-49392D01*
X40219Y-49430D01*
X40182Y-49449D01*
X49769Y-48658D02*
X49581Y-48789D01*
X49769Y-48883D02*
X49375Y-48883D01*
X49375Y-48733D01*
X49394Y-48696D01*
X49413Y-48677D01*
X49450Y-48658D01*
X49506Y-48658D01*
X49544Y-48677D01*
X49563Y-48696D01*
X49581Y-48733D01*
X49581Y-48883D01*
X49375Y-48527D02*
X49375Y-48283D01*
X49525Y-48414D01*
X49525Y-48358D01*
X49544Y-48321D01*
X49563Y-48302D01*
X49600Y-48283D01*
X49694Y-48283D01*
X49731Y-48302D01*
X49750Y-48321D01*
X49769Y-48358D01*
X49769Y-48471D01*
X49750Y-48508D01*
X49731Y-48527D01*
X49375Y-48152D02*
X49375Y-47889D01*
X49769Y-48058D01*
X42939Y-48758D02*
X42751Y-48889D01*
X42939Y-48983D02*
X42545Y-48983D01*
X42545Y-48833D01*
X42564Y-48796D01*
X42583Y-48777D01*
X42620Y-48758D01*
X42676Y-48758D01*
X42714Y-48777D01*
X42733Y-48796D01*
X42751Y-48833D01*
X42751Y-48983D01*
X42545Y-48627D02*
X42545Y-48383D01*
X42695Y-48514D01*
X42695Y-48458D01*
X42714Y-48421D01*
X42733Y-48402D01*
X42770Y-48383D01*
X42864Y-48383D01*
X42901Y-48402D01*
X42920Y-48421D01*
X42939Y-48458D01*
X42939Y-48571D01*
X42920Y-48608D01*
X42901Y-48627D01*
X42545Y-48027D02*
X42545Y-48214D01*
X42733Y-48233D01*
X42714Y-48214D01*
X42695Y-48177D01*
X42695Y-48083D01*
X42714Y-48046D01*
X42733Y-48027D01*
X42770Y-48008D01*
X42864Y-48008D01*
X42901Y-48027D01*
X42920Y-48046D01*
X42939Y-48083D01*
X42939Y-48177D01*
X42920Y-48214D01*
X42901Y-48233D01*
G54D22*
X53996Y-63684D02*
X53996Y-63927D01*
X54010Y-63955D01*
X54025Y-63970D01*
X54053Y-63984D01*
X54110Y-63984D01*
X54139Y-63970D01*
X54153Y-63955D01*
X54167Y-63927D01*
X54167Y-63684D01*
X54453Y-63684D02*
X54310Y-63684D01*
X54296Y-63827D01*
X54310Y-63813D01*
X54339Y-63798D01*
X54410Y-63798D01*
X54439Y-63813D01*
X54453Y-63827D01*
X54467Y-63855D01*
X54467Y-63927D01*
X54453Y-63955D01*
X54439Y-63970D01*
X54410Y-63984D01*
X54339Y-63984D01*
X54310Y-63970D01*
X54296Y-63955D01*
G54D21*
X51970Y-64572D02*
X51980Y-64582D01*
X51989Y-64610D01*
X51989Y-64629D01*
X51980Y-64657D01*
X51961Y-64676D01*
X51942Y-64685D01*
X51905Y-64694D01*
X51877Y-64694D01*
X51839Y-64685D01*
X51820Y-64676D01*
X51802Y-64657D01*
X51792Y-64629D01*
X51792Y-64610D01*
X51802Y-64582D01*
X51811Y-64572D01*
X51858Y-64403D02*
X51989Y-64403D01*
X51783Y-64450D02*
X51924Y-64497D01*
X51924Y-64375D01*
X55539Y-64636D02*
X55445Y-64702D01*
X55539Y-64749D02*
X55342Y-64749D01*
X55342Y-64674D01*
X55352Y-64655D01*
X55361Y-64646D01*
X55380Y-64636D01*
X55408Y-64636D01*
X55427Y-64646D01*
X55436Y-64655D01*
X55445Y-64674D01*
X55445Y-64749D01*
X55342Y-64570D02*
X55342Y-64449D01*
X55417Y-64514D01*
X55417Y-64486D01*
X55427Y-64467D01*
X55436Y-64458D01*
X55455Y-64449D01*
X55502Y-64449D01*
X55520Y-64458D01*
X55530Y-64467D01*
X55539Y-64486D01*
X55539Y-64542D01*
X55530Y-64561D01*
X55520Y-64570D01*
X55539Y-64261D02*
X55539Y-64373D01*
X55539Y-64317D02*
X55342Y-64317D01*
X55370Y-64336D01*
X55389Y-64355D01*
X55399Y-64373D01*
G54D11*
X59352Y-64756D02*
X59352Y-64943D01*
X58958Y-64943D01*
X59090Y-64456D02*
X59352Y-64456D01*
X58940Y-64549D02*
X59221Y-64643D01*
X59221Y-64399D01*
G54D17*
X77440Y-51892D02*
X77440Y-52378D01*
X77459Y-52435D01*
X77478Y-52464D01*
X77516Y-52492D01*
X77592Y-52492D01*
X77630Y-52464D01*
X77649Y-52435D01*
X77668Y-52378D01*
X77668Y-51892D01*
X77916Y-52150D02*
X77878Y-52121D01*
X77859Y-52092D01*
X77840Y-52035D01*
X77840Y-52007D01*
X77859Y-51950D01*
X77878Y-51921D01*
X77916Y-51892D01*
X77992Y-51892D01*
X78030Y-51921D01*
X78049Y-51950D01*
X78068Y-52007D01*
X78068Y-52035D01*
X78049Y-52092D01*
X78030Y-52121D01*
X77992Y-52150D01*
X77916Y-52150D01*
X77878Y-52178D01*
X77859Y-52207D01*
X77840Y-52264D01*
X77840Y-52378D01*
X77859Y-52435D01*
X77878Y-52464D01*
X77916Y-52492D01*
X77992Y-52492D01*
X78030Y-52464D01*
X78049Y-52435D01*
X78068Y-52378D01*
X78068Y-52264D01*
X78049Y-52207D01*
X78030Y-52178D01*
X77992Y-52150D01*
X71894Y-51377D02*
X71894Y-51863D01*
X71913Y-51920D01*
X71932Y-51949D01*
X71970Y-51977D01*
X72047Y-51977D01*
X72085Y-51949D01*
X72104Y-51920D01*
X72123Y-51863D01*
X72123Y-51377D01*
X72523Y-51977D02*
X72294Y-51977D01*
X72409Y-51977D02*
X72409Y-51377D01*
X72370Y-51463D01*
X72332Y-51520D01*
X72294Y-51549D01*
X72770Y-51377D02*
X72809Y-51377D01*
X72847Y-51406D01*
X72866Y-51435D01*
X72885Y-51492D01*
X72904Y-51606D01*
X72904Y-51749D01*
X72885Y-51863D01*
X72866Y-51920D01*
X72847Y-51949D01*
X72809Y-51977D01*
X72770Y-51977D01*
X72732Y-51949D01*
X72713Y-51920D01*
X72694Y-51863D01*
X72675Y-51749D01*
X72675Y-51606D01*
X72694Y-51492D01*
X72713Y-51435D01*
X72732Y-51406D01*
X72770Y-51377D01*
X66520Y-51407D02*
X66520Y-51893D01*
X66539Y-51950D01*
X66558Y-51979D01*
X66596Y-52007D01*
X66672Y-52007D01*
X66710Y-51979D01*
X66729Y-51950D01*
X66748Y-51893D01*
X66748Y-51407D01*
X66958Y-52007D02*
X67034Y-52007D01*
X67072Y-51979D01*
X67091Y-51950D01*
X67129Y-51865D01*
X67148Y-51750D01*
X67148Y-51522D01*
X67129Y-51465D01*
X67110Y-51436D01*
X67072Y-51407D01*
X66996Y-51407D01*
X66958Y-51436D01*
X66939Y-51465D01*
X66920Y-51522D01*
X66920Y-51665D01*
X66939Y-51722D01*
X66958Y-51750D01*
X66996Y-51779D01*
X67072Y-51779D01*
X67110Y-51750D01*
X67129Y-51722D01*
X67148Y-51665D01*
X82195Y-51952D02*
X82195Y-52438D01*
X82214Y-52495D01*
X82233Y-52524D01*
X82271Y-52552D01*
X82347Y-52552D01*
X82385Y-52524D01*
X82404Y-52495D01*
X82423Y-52438D01*
X82423Y-51952D01*
X82576Y-51952D02*
X82842Y-51952D01*
X82671Y-52552D01*
G54D23*
X47095Y-61761D02*
X47323Y-61761D01*
X47209Y-62161D02*
X47209Y-61761D01*
X47457Y-62161D02*
X47457Y-61761D01*
X47609Y-61761D01*
X47647Y-61780D01*
X47666Y-61800D01*
X47685Y-61838D01*
X47685Y-61895D01*
X47666Y-61933D01*
X47647Y-61952D01*
X47609Y-61971D01*
X47457Y-61971D01*
X48066Y-62161D02*
X47838Y-62161D01*
X47952Y-62161D02*
X47952Y-61761D01*
X47914Y-61819D01*
X47876Y-61857D01*
X47838Y-61876D01*
G54D10*
X64878Y-59431D02*
X64878Y-59131D01*
X64992Y-59131D01*
X65021Y-59145D01*
X65035Y-59160D01*
X65050Y-59188D01*
X65050Y-59231D01*
X65035Y-59260D01*
X65021Y-59274D01*
X64992Y-59288D01*
X64878Y-59288D01*
X65164Y-59160D02*
X65178Y-59145D01*
X65207Y-59131D01*
X65278Y-59131D01*
X65307Y-59145D01*
X65321Y-59160D01*
X65335Y-59188D01*
X65335Y-59217D01*
X65321Y-59260D01*
X65150Y-59431D01*
X65335Y-59431D01*
G54D21*
X59664Y-54136D02*
X59570Y-54202D01*
X59664Y-54249D02*
X59467Y-54249D01*
X59467Y-54174D01*
X59477Y-54155D01*
X59486Y-54146D01*
X59505Y-54136D01*
X59533Y-54136D01*
X59552Y-54146D01*
X59561Y-54155D01*
X59570Y-54174D01*
X59570Y-54249D01*
X59533Y-53967D02*
X59664Y-53967D01*
X59458Y-54014D02*
X59599Y-54061D01*
X59599Y-53939D01*
X59467Y-53780D02*
X59467Y-53817D01*
X59477Y-53836D01*
X59486Y-53845D01*
X59514Y-53864D01*
X59552Y-53873D01*
X59627Y-53873D01*
X59645Y-53864D01*
X59655Y-53855D01*
X59664Y-53836D01*
X59664Y-53798D01*
X59655Y-53780D01*
X59645Y-53770D01*
X59627Y-53761D01*
X59580Y-53761D01*
X59561Y-53770D01*
X59552Y-53780D01*
X59542Y-53798D01*
X59542Y-53836D01*
X59552Y-53855D01*
X59561Y-53864D01*
X59580Y-53873D01*
X60634Y-54166D02*
X60540Y-54232D01*
X60634Y-54279D02*
X60437Y-54279D01*
X60437Y-54204D01*
X60447Y-54185D01*
X60456Y-54176D01*
X60475Y-54166D01*
X60503Y-54166D01*
X60522Y-54176D01*
X60531Y-54185D01*
X60540Y-54204D01*
X60540Y-54279D01*
X60503Y-53997D02*
X60634Y-53997D01*
X60428Y-54044D02*
X60569Y-54091D01*
X60569Y-53969D01*
X60437Y-53913D02*
X60437Y-53782D01*
X60634Y-53866D01*
X56714Y-54166D02*
X56620Y-54232D01*
X56714Y-54279D02*
X56517Y-54279D01*
X56517Y-54204D01*
X56527Y-54185D01*
X56536Y-54176D01*
X56555Y-54166D01*
X56583Y-54166D01*
X56602Y-54176D01*
X56611Y-54185D01*
X56620Y-54204D01*
X56620Y-54279D01*
X56536Y-54091D02*
X56527Y-54082D01*
X56517Y-54063D01*
X56517Y-54016D01*
X56527Y-53997D01*
X56536Y-53988D01*
X56555Y-53979D01*
X56574Y-53979D01*
X56602Y-53988D01*
X56714Y-54100D01*
X56714Y-53979D01*
X56517Y-53857D02*
X56517Y-53838D01*
X56527Y-53819D01*
X56536Y-53810D01*
X56555Y-53800D01*
X56592Y-53791D01*
X56639Y-53791D01*
X56677Y-53800D01*
X56695Y-53810D01*
X56705Y-53819D01*
X56714Y-53838D01*
X56714Y-53857D01*
X56705Y-53875D01*
X56695Y-53885D01*
X56677Y-53894D01*
X56639Y-53903D01*
X56592Y-53903D01*
X56555Y-53894D01*
X56536Y-53885D01*
X56527Y-53875D01*
X56517Y-53857D01*
X51104Y-54171D02*
X51010Y-54237D01*
X51104Y-54284D02*
X50907Y-54284D01*
X50907Y-54209D01*
X50917Y-54190D01*
X50926Y-54181D01*
X50945Y-54171D01*
X50973Y-54171D01*
X50992Y-54181D01*
X51001Y-54190D01*
X51010Y-54209D01*
X51010Y-54284D01*
X51104Y-53984D02*
X51104Y-54096D01*
X51104Y-54040D02*
X50907Y-54040D01*
X50935Y-54059D01*
X50954Y-54077D01*
X50964Y-54096D01*
X50907Y-53805D02*
X50907Y-53899D01*
X51001Y-53908D01*
X50992Y-53899D01*
X50982Y-53880D01*
X50982Y-53833D01*
X50992Y-53815D01*
X51001Y-53805D01*
X51020Y-53796D01*
X51067Y-53796D01*
X51085Y-53805D01*
X51095Y-53815D01*
X51104Y-53833D01*
X51104Y-53880D01*
X51095Y-53899D01*
X51085Y-53908D01*
X50064Y-54136D02*
X49970Y-54202D01*
X50064Y-54249D02*
X49867Y-54249D01*
X49867Y-54174D01*
X49877Y-54155D01*
X49886Y-54146D01*
X49905Y-54136D01*
X49933Y-54136D01*
X49952Y-54146D01*
X49961Y-54155D01*
X49970Y-54174D01*
X49970Y-54249D01*
X50064Y-53949D02*
X50064Y-54061D01*
X50064Y-54005D02*
X49867Y-54005D01*
X49895Y-54024D01*
X49914Y-54042D01*
X49924Y-54061D01*
X49933Y-53780D02*
X50064Y-53780D01*
X49858Y-53827D02*
X49999Y-53873D01*
X49999Y-53752D01*
X62749Y-54146D02*
X62655Y-54212D01*
X62749Y-54259D02*
X62552Y-54259D01*
X62552Y-54184D01*
X62562Y-54165D01*
X62571Y-54156D01*
X62590Y-54146D01*
X62618Y-54146D01*
X62637Y-54156D01*
X62646Y-54165D01*
X62655Y-54184D01*
X62655Y-54259D01*
X62571Y-54071D02*
X62562Y-54062D01*
X62552Y-54043D01*
X62552Y-53996D01*
X62562Y-53977D01*
X62571Y-53968D01*
X62590Y-53959D01*
X62609Y-53959D01*
X62637Y-53968D01*
X62749Y-54080D01*
X62749Y-53959D01*
X62749Y-53771D02*
X62749Y-53883D01*
X62749Y-53827D02*
X62552Y-53827D01*
X62580Y-53846D01*
X62599Y-53865D01*
X62609Y-53883D01*
X55834Y-69537D02*
X55740Y-69603D01*
X55834Y-69650D02*
X55637Y-69650D01*
X55637Y-69575D01*
X55647Y-69556D01*
X55656Y-69547D01*
X55675Y-69537D01*
X55703Y-69537D01*
X55722Y-69547D01*
X55731Y-69556D01*
X55740Y-69575D01*
X55740Y-69650D01*
X55722Y-69425D02*
X55712Y-69444D01*
X55703Y-69453D01*
X55684Y-69462D01*
X55675Y-69462D01*
X55656Y-69453D01*
X55647Y-69444D01*
X55637Y-69425D01*
X55637Y-69387D01*
X55647Y-69368D01*
X55656Y-69359D01*
X55675Y-69350D01*
X55684Y-69350D01*
X55703Y-69359D01*
X55712Y-69368D01*
X55722Y-69387D01*
X55722Y-69425D01*
X55731Y-69444D01*
X55740Y-69453D01*
X55759Y-69462D01*
X55797Y-69462D01*
X55815Y-69453D01*
X55825Y-69444D01*
X55834Y-69425D01*
X55834Y-69387D01*
X55825Y-69368D01*
X55815Y-69359D01*
X55797Y-69350D01*
X55759Y-69350D01*
X55740Y-69359D01*
X55731Y-69368D01*
X55722Y-69387D01*
X52734Y-69527D02*
X52640Y-69593D01*
X52734Y-69640D02*
X52537Y-69640D01*
X52537Y-69565D01*
X52547Y-69546D01*
X52556Y-69537D01*
X52575Y-69527D01*
X52603Y-69527D01*
X52622Y-69537D01*
X52631Y-69546D01*
X52640Y-69565D01*
X52640Y-69640D01*
X52537Y-69462D02*
X52537Y-69330D01*
X52734Y-69415D01*
X58654Y-54161D02*
X58560Y-54227D01*
X58654Y-54274D02*
X58457Y-54274D01*
X58457Y-54199D01*
X58467Y-54180D01*
X58476Y-54171D01*
X58495Y-54161D01*
X58523Y-54161D01*
X58542Y-54171D01*
X58551Y-54180D01*
X58560Y-54199D01*
X58560Y-54274D01*
X58523Y-53992D02*
X58654Y-53992D01*
X58448Y-54039D02*
X58589Y-54086D01*
X58589Y-53964D01*
X58457Y-53908D02*
X58457Y-53786D01*
X58532Y-53852D01*
X58532Y-53823D01*
X58542Y-53805D01*
X58551Y-53795D01*
X58570Y-53786D01*
X58617Y-53786D01*
X58635Y-53795D01*
X58645Y-53805D01*
X58654Y-53823D01*
X58654Y-53880D01*
X58645Y-53898D01*
X58635Y-53908D01*
X49044Y-54161D02*
X48950Y-54227D01*
X49044Y-54274D02*
X48847Y-54274D01*
X48847Y-54199D01*
X48857Y-54180D01*
X48866Y-54171D01*
X48885Y-54161D01*
X48913Y-54161D01*
X48932Y-54171D01*
X48941Y-54180D01*
X48950Y-54199D01*
X48950Y-54274D01*
X49044Y-53974D02*
X49044Y-54086D01*
X49044Y-54030D02*
X48847Y-54030D01*
X48875Y-54049D01*
X48894Y-54067D01*
X48904Y-54086D01*
X48847Y-53908D02*
X48847Y-53786D01*
X48922Y-53852D01*
X48922Y-53823D01*
X48932Y-53805D01*
X48941Y-53795D01*
X48960Y-53786D01*
X49007Y-53786D01*
X49025Y-53795D01*
X49035Y-53805D01*
X49044Y-53823D01*
X49044Y-53880D01*
X49035Y-53898D01*
X49025Y-53908D01*
G54D12*
X87087Y-52567D02*
X87102Y-52582D01*
X87116Y-52625D01*
X87116Y-52653D01*
X87102Y-52696D01*
X87073Y-52725D01*
X87045Y-52739D01*
X86987Y-52753D01*
X86945Y-52753D01*
X86887Y-52739D01*
X86859Y-52725D01*
X86830Y-52696D01*
X86816Y-52653D01*
X86816Y-52625D01*
X86830Y-52582D01*
X86845Y-52567D01*
X86845Y-52453D02*
X86830Y-52439D01*
X86816Y-52410D01*
X86816Y-52339D01*
X86830Y-52310D01*
X86845Y-52296D01*
X86873Y-52282D01*
X86902Y-52282D01*
X86945Y-52296D01*
X87116Y-52467D01*
X87116Y-52282D01*
X86816Y-52182D02*
X86816Y-51996D01*
X86930Y-52096D01*
X86930Y-52053D01*
X86945Y-52025D01*
X86959Y-52010D01*
X86987Y-51996D01*
X87059Y-51996D01*
X87087Y-52010D01*
X87102Y-52025D01*
X87116Y-52053D01*
X87116Y-52139D01*
X87102Y-52167D01*
X87087Y-52182D01*
M02*
