G04 (created by PCBNEW (2013-07-07 BZR 4022)-stable) date 3/22/2014 2:57:10 AM*
%MOIN*%
G04 Gerber Fmt 3.4, Leading zero omitted, Abs format*
%FSLAX34Y34*%
G01*
G70*
G90*
G04 APERTURE LIST*
%ADD10C,0.006*%
%ADD11C,0.075*%
%ADD12R,0.06X0.06*%
%ADD13C,0.06*%
%ADD14R,0.0787402X0.0787402*%
%ADD15C,0.0787402*%
%ADD16C,0.0984252*%
%ADD17C,0.16*%
%ADD18C,0.07*%
%ADD19R,0.07X0.07*%
%ADD20C,0.0590551*%
%ADD21R,0.0787402X0.0984252*%
%ADD22C,0.0472441*%
%ADD23C,0.11811*%
%ADD24C,0.08*%
%ADD25C,0.1*%
%ADD26C,0.046*%
%ADD27C,0.035*%
%ADD28C,0.02*%
%ADD29C,0.01*%
%ADD30C,0.024*%
%ADD31C,0.048*%
%ADD32C,0.036*%
G04 APERTURE END LIST*
G54D10*
G54D11*
X79325Y-68935D03*
X80125Y-66585D03*
X84925Y-66585D03*
X84925Y-71335D03*
X80125Y-71335D03*
G54D12*
X78562Y-56084D03*
G54D13*
X79562Y-56084D03*
X78562Y-57084D03*
X79562Y-57084D03*
X78562Y-58084D03*
X79562Y-58084D03*
G54D14*
X88845Y-70995D03*
G54D15*
X88845Y-69026D03*
X88845Y-67057D03*
G54D14*
X89015Y-64080D03*
G54D15*
X89015Y-62702D03*
X89015Y-61324D03*
X89015Y-59946D03*
X89015Y-58568D03*
X89015Y-57190D03*
X89015Y-55812D03*
X89015Y-54434D03*
X89015Y-53056D03*
X89015Y-51678D03*
X89015Y-50300D03*
X89015Y-48922D03*
G54D16*
X66845Y-48520D03*
X72315Y-48520D03*
G54D17*
X47600Y-63200D03*
G54D12*
X49000Y-61900D03*
G54D13*
X50000Y-61900D03*
G54D12*
X48700Y-64800D03*
G54D13*
X49700Y-64800D03*
G54D12*
X46700Y-64900D03*
G54D13*
X45700Y-64900D03*
G54D12*
X46700Y-60300D03*
G54D13*
X46700Y-59300D03*
G54D12*
X65600Y-58560D03*
G54D13*
X64600Y-58560D03*
G54D18*
X67860Y-50000D03*
X66860Y-50000D03*
G54D19*
X65860Y-50000D03*
G54D18*
X83060Y-53720D03*
X84060Y-53720D03*
G54D19*
X85060Y-53720D03*
G54D18*
X73295Y-49960D03*
X72295Y-49960D03*
G54D19*
X71295Y-49960D03*
G54D18*
X78255Y-53670D03*
X79255Y-53670D03*
G54D19*
X80255Y-53670D03*
G54D20*
X45595Y-48535D03*
X44610Y-48535D03*
X46579Y-48535D03*
G54D21*
X43665Y-49401D03*
X47524Y-49401D03*
G54D20*
X52425Y-48435D03*
X51440Y-48435D03*
X53409Y-48435D03*
G54D21*
X50495Y-49301D03*
X54354Y-49301D03*
G54D22*
X40010Y-48390D03*
X39222Y-48390D03*
X40797Y-48390D03*
G54D23*
X30480Y-51100D03*
X30480Y-69288D03*
X30480Y-67635D03*
X30480Y-65981D03*
X30480Y-64328D03*
X30480Y-62674D03*
X30480Y-61021D03*
X30480Y-59367D03*
X30480Y-57714D03*
X30480Y-56060D03*
X30480Y-54407D03*
X30480Y-52753D03*
X32645Y-51100D03*
X32645Y-69288D03*
X32645Y-67635D03*
X32645Y-65981D03*
X32645Y-64328D03*
X32645Y-62674D03*
X32645Y-61021D03*
X32645Y-59367D03*
X32645Y-57714D03*
X32645Y-56060D03*
X32645Y-54407D03*
X32645Y-52753D03*
G54D24*
X52100Y-71420D03*
X53100Y-71420D03*
X54100Y-71420D03*
X55100Y-71420D03*
X57100Y-71420D03*
X58100Y-71420D03*
X59100Y-71420D03*
X60100Y-71420D03*
X61100Y-71420D03*
X62100Y-71420D03*
X62100Y-52420D03*
X61100Y-52420D03*
X60100Y-52420D03*
X59100Y-52420D03*
X58100Y-52420D03*
X57100Y-52420D03*
X56100Y-52420D03*
X55100Y-52420D03*
X53500Y-52420D03*
X52500Y-52420D03*
X51500Y-52420D03*
X50500Y-52420D03*
X49500Y-52420D03*
X48500Y-52420D03*
X51100Y-71420D03*
X50100Y-71420D03*
X47500Y-52420D03*
X46500Y-52420D03*
X49100Y-71420D03*
X48100Y-71420D03*
G54D25*
X63510Y-53070D03*
X84810Y-56960D03*
X64110Y-55530D03*
X71150Y-59520D03*
X70665Y-71985D03*
X74325Y-64840D03*
X75790Y-50210D03*
X78780Y-50230D03*
X82920Y-49850D03*
X82380Y-55695D03*
G54D26*
X34400Y-69000D03*
X82530Y-63035D03*
X75315Y-67350D03*
X56000Y-69150D03*
X35600Y-70600D03*
X36500Y-55000D03*
G54D27*
X39500Y-51300D03*
X41565Y-50865D03*
G54D26*
X51300Y-65200D03*
X56840Y-64100D03*
X85480Y-55750D03*
G54D28*
X67460Y-55890D03*
G54D26*
X41400Y-62100D03*
X63000Y-60030D03*
X41300Y-60900D03*
X34600Y-56700D03*
G54D27*
X39500Y-50400D03*
G54D28*
X71390Y-65080D03*
X52920Y-59330D03*
X65210Y-56780D03*
X67590Y-56570D03*
X60650Y-58440D03*
X68150Y-58020D03*
X60660Y-59130D03*
X56110Y-60520D03*
X56150Y-56450D03*
X67610Y-57760D03*
X61850Y-57340D03*
X60520Y-56220D03*
X58160Y-55600D03*
X62590Y-56500D03*
X59150Y-56400D03*
X59130Y-59270D03*
X68610Y-55320D03*
X60090Y-59300D03*
X60090Y-56470D03*
X85526Y-60333D03*
X62200Y-57100D03*
X53100Y-64650D03*
X60460Y-63570D03*
X74934Y-57636D03*
X76181Y-57560D03*
G54D26*
X82080Y-60830D03*
G54D28*
X65880Y-59580D03*
G54D26*
X63620Y-61860D03*
G54D28*
X63830Y-54370D03*
X66090Y-54280D03*
X66940Y-54330D03*
X73580Y-62210D03*
X65387Y-57414D03*
X70112Y-56742D03*
X70525Y-57960D03*
X75502Y-57953D03*
G54D26*
X75960Y-54350D03*
G54D28*
X86450Y-55250D03*
X79650Y-52800D03*
G54D26*
X70956Y-57189D03*
X74516Y-57213D03*
X35790Y-52170D03*
G54D27*
X53429Y-67964D03*
G54D26*
X37800Y-58500D03*
X56645Y-64985D03*
X50700Y-64300D03*
X87225Y-64850D03*
X63855Y-48630D03*
X68590Y-51940D03*
X84590Y-48810D03*
G54D28*
X69600Y-51550D03*
G54D26*
X71865Y-70430D03*
G54D28*
X59390Y-65160D03*
X62550Y-62310D03*
X70280Y-57645D03*
X65700Y-55615D03*
X68936Y-54936D03*
X66805Y-58315D03*
X67385Y-58305D03*
X66255Y-55640D03*
X66569Y-54230D03*
X69104Y-54376D03*
X71449Y-55237D03*
X72268Y-55517D03*
X72268Y-56175D03*
X74039Y-59416D03*
G54D29*
X66940Y-54330D02*
X66950Y-54330D01*
X65373Y-57400D02*
X65373Y-57393D01*
X65387Y-57414D02*
X65373Y-57400D01*
G54D30*
X35790Y-52170D02*
X35810Y-52170D01*
X47600Y-65735D02*
X47600Y-63200D01*
X49890Y-68025D02*
X47600Y-65735D01*
X53368Y-68025D02*
X49890Y-68025D01*
X53429Y-67964D02*
X53368Y-68025D01*
G54D31*
X46700Y-60300D02*
X46700Y-62300D01*
X46700Y-62300D02*
X47600Y-63200D01*
G54D32*
X49000Y-61900D02*
X48900Y-61900D01*
G54D31*
X48900Y-61900D02*
X47600Y-63200D01*
G54D32*
X48700Y-64800D02*
X48700Y-64300D01*
G54D31*
X48700Y-64300D02*
X47600Y-63200D01*
X46700Y-64900D02*
X46700Y-64100D01*
X46700Y-64100D02*
X47600Y-63200D01*
X47600Y-63200D02*
X34000Y-63200D01*
G54D10*
G36*
X89950Y-65551D02*
X89658Y-65563D01*
X89658Y-64424D01*
X89658Y-63636D01*
X89620Y-63544D01*
X89550Y-63474D01*
X89458Y-63436D01*
X89359Y-63436D01*
X88571Y-63436D01*
X88479Y-63474D01*
X88409Y-63544D01*
X88371Y-63636D01*
X88371Y-63735D01*
X88371Y-64523D01*
X88409Y-64615D01*
X88479Y-64685D01*
X88571Y-64723D01*
X88670Y-64723D01*
X89458Y-64723D01*
X89550Y-64685D01*
X89620Y-64615D01*
X89658Y-64523D01*
X89658Y-64424D01*
X89658Y-65563D01*
X85549Y-65725D01*
X85514Y-65725D01*
X85506Y-65716D01*
X85129Y-65560D01*
X84722Y-65559D01*
X84345Y-65715D01*
X84335Y-65725D01*
X75075Y-65725D01*
X75075Y-64691D01*
X74961Y-64415D01*
X74750Y-64204D01*
X74474Y-64090D01*
X74176Y-64089D01*
X73900Y-64203D01*
X73689Y-64414D01*
X73575Y-64690D01*
X73574Y-64988D01*
X73688Y-65264D01*
X73899Y-65475D01*
X74175Y-65589D01*
X74473Y-65590D01*
X74749Y-65476D01*
X74960Y-65265D01*
X75074Y-64989D01*
X75075Y-64691D01*
X75075Y-65725D01*
X71740Y-65725D01*
X71740Y-65010D01*
X71686Y-64882D01*
X71588Y-64783D01*
X71459Y-64730D01*
X71320Y-64729D01*
X71192Y-64783D01*
X71093Y-64881D01*
X71040Y-65010D01*
X71039Y-65149D01*
X71093Y-65278D01*
X71191Y-65376D01*
X71320Y-65429D01*
X71459Y-65430D01*
X71588Y-65376D01*
X71686Y-65278D01*
X71739Y-65149D01*
X71740Y-65010D01*
X71740Y-65725D01*
X59740Y-65725D01*
X59740Y-65090D01*
X59686Y-64962D01*
X59588Y-64863D01*
X59459Y-64810D01*
X59320Y-64809D01*
X59192Y-64863D01*
X59093Y-64961D01*
X59040Y-65090D01*
X59039Y-65229D01*
X59093Y-65358D01*
X59191Y-65456D01*
X59320Y-65509D01*
X59459Y-65510D01*
X59588Y-65456D01*
X59686Y-65358D01*
X59739Y-65229D01*
X59740Y-65090D01*
X59740Y-65725D01*
X57320Y-65725D01*
X57320Y-64004D01*
X57247Y-63828D01*
X57112Y-63693D01*
X56935Y-63620D01*
X56744Y-63619D01*
X56568Y-63692D01*
X56433Y-63827D01*
X56360Y-64004D01*
X56359Y-64195D01*
X56432Y-64371D01*
X56567Y-64506D01*
X56744Y-64579D01*
X56935Y-64580D01*
X57111Y-64507D01*
X57246Y-64372D01*
X57319Y-64195D01*
X57320Y-64004D01*
X57320Y-65725D01*
X53450Y-65725D01*
X53450Y-64580D01*
X53396Y-64452D01*
X53298Y-64353D01*
X53169Y-64300D01*
X53030Y-64299D01*
X52902Y-64353D01*
X52803Y-64451D01*
X52750Y-64580D01*
X52749Y-64719D01*
X52803Y-64848D01*
X52901Y-64946D01*
X53030Y-64999D01*
X53169Y-65000D01*
X53298Y-64946D01*
X53396Y-64848D01*
X53449Y-64719D01*
X53450Y-64580D01*
X53450Y-65725D01*
X51780Y-65725D01*
X51780Y-65104D01*
X51707Y-64928D01*
X51572Y-64793D01*
X51395Y-64720D01*
X51204Y-64719D01*
X51028Y-64792D01*
X50893Y-64927D01*
X50820Y-65104D01*
X50819Y-65295D01*
X50892Y-65471D01*
X51027Y-65606D01*
X51204Y-65679D01*
X51395Y-65680D01*
X51571Y-65607D01*
X51706Y-65472D01*
X51779Y-65295D01*
X51780Y-65104D01*
X51780Y-65725D01*
X50254Y-65725D01*
X50254Y-64881D01*
X50243Y-64663D01*
X50181Y-64512D01*
X50085Y-64484D01*
X50015Y-64555D01*
X50015Y-64414D01*
X49987Y-64318D01*
X49781Y-64245D01*
X49563Y-64256D01*
X49412Y-64318D01*
X49384Y-64414D01*
X49700Y-64729D01*
X50015Y-64414D01*
X50015Y-64555D01*
X49770Y-64800D01*
X50085Y-65115D01*
X50181Y-65087D01*
X50254Y-64881D01*
X50254Y-65725D01*
X50015Y-65725D01*
X50015Y-65185D01*
X49700Y-64870D01*
X49384Y-65185D01*
X49412Y-65281D01*
X49618Y-65354D01*
X49836Y-65343D01*
X49987Y-65281D01*
X50015Y-65185D01*
X50015Y-65725D01*
X49887Y-65725D01*
X49838Y-65551D01*
X47970Y-65458D01*
X47970Y-64262D01*
X48152Y-64445D01*
X48150Y-64450D01*
X48149Y-64549D01*
X48149Y-65149D01*
X48187Y-65241D01*
X48258Y-65311D01*
X48350Y-65349D01*
X48449Y-65350D01*
X49049Y-65350D01*
X49141Y-65312D01*
X49211Y-65241D01*
X49249Y-65149D01*
X49250Y-65096D01*
X49314Y-65115D01*
X49629Y-64800D01*
X49314Y-64484D01*
X49250Y-64503D01*
X49250Y-64450D01*
X49212Y-64358D01*
X49183Y-64330D01*
X49189Y-64300D01*
X49152Y-64112D01*
X49046Y-63953D01*
X48606Y-63513D01*
X48649Y-63409D01*
X48650Y-63160D01*
X56199Y-63249D01*
X60181Y-63353D01*
X60163Y-63371D01*
X60110Y-63500D01*
X60109Y-63639D01*
X60163Y-63768D01*
X60261Y-63866D01*
X60390Y-63919D01*
X60529Y-63920D01*
X60658Y-63866D01*
X60756Y-63768D01*
X60809Y-63639D01*
X60810Y-63500D01*
X60756Y-63372D01*
X60753Y-63368D01*
X67699Y-63550D01*
X78700Y-63350D01*
X82166Y-63350D01*
X82257Y-63441D01*
X82434Y-63514D01*
X82625Y-63515D01*
X82801Y-63442D01*
X82893Y-63350D01*
X87550Y-63350D01*
X87550Y-63202D01*
X87645Y-62250D01*
X88556Y-62250D01*
X88469Y-62336D01*
X88371Y-62573D01*
X88371Y-62829D01*
X88468Y-63066D01*
X88649Y-63247D01*
X88886Y-63345D01*
X89142Y-63345D01*
X89379Y-63248D01*
X89560Y-63067D01*
X89658Y-62830D01*
X89658Y-62574D01*
X89561Y-62337D01*
X89473Y-62250D01*
X89950Y-62250D01*
X89950Y-64800D01*
X89950Y-65551D01*
X89950Y-65551D01*
G37*
G54D29*
X89950Y-65551D02*
X89658Y-65563D01*
X89658Y-64424D01*
X89658Y-63636D01*
X89620Y-63544D01*
X89550Y-63474D01*
X89458Y-63436D01*
X89359Y-63436D01*
X88571Y-63436D01*
X88479Y-63474D01*
X88409Y-63544D01*
X88371Y-63636D01*
X88371Y-63735D01*
X88371Y-64523D01*
X88409Y-64615D01*
X88479Y-64685D01*
X88571Y-64723D01*
X88670Y-64723D01*
X89458Y-64723D01*
X89550Y-64685D01*
X89620Y-64615D01*
X89658Y-64523D01*
X89658Y-64424D01*
X89658Y-65563D01*
X85549Y-65725D01*
X85514Y-65725D01*
X85506Y-65716D01*
X85129Y-65560D01*
X84722Y-65559D01*
X84345Y-65715D01*
X84335Y-65725D01*
X75075Y-65725D01*
X75075Y-64691D01*
X74961Y-64415D01*
X74750Y-64204D01*
X74474Y-64090D01*
X74176Y-64089D01*
X73900Y-64203D01*
X73689Y-64414D01*
X73575Y-64690D01*
X73574Y-64988D01*
X73688Y-65264D01*
X73899Y-65475D01*
X74175Y-65589D01*
X74473Y-65590D01*
X74749Y-65476D01*
X74960Y-65265D01*
X75074Y-64989D01*
X75075Y-64691D01*
X75075Y-65725D01*
X71740Y-65725D01*
X71740Y-65010D01*
X71686Y-64882D01*
X71588Y-64783D01*
X71459Y-64730D01*
X71320Y-64729D01*
X71192Y-64783D01*
X71093Y-64881D01*
X71040Y-65010D01*
X71039Y-65149D01*
X71093Y-65278D01*
X71191Y-65376D01*
X71320Y-65429D01*
X71459Y-65430D01*
X71588Y-65376D01*
X71686Y-65278D01*
X71739Y-65149D01*
X71740Y-65010D01*
X71740Y-65725D01*
X59740Y-65725D01*
X59740Y-65090D01*
X59686Y-64962D01*
X59588Y-64863D01*
X59459Y-64810D01*
X59320Y-64809D01*
X59192Y-64863D01*
X59093Y-64961D01*
X59040Y-65090D01*
X59039Y-65229D01*
X59093Y-65358D01*
X59191Y-65456D01*
X59320Y-65509D01*
X59459Y-65510D01*
X59588Y-65456D01*
X59686Y-65358D01*
X59739Y-65229D01*
X59740Y-65090D01*
X59740Y-65725D01*
X57320Y-65725D01*
X57320Y-64004D01*
X57247Y-63828D01*
X57112Y-63693D01*
X56935Y-63620D01*
X56744Y-63619D01*
X56568Y-63692D01*
X56433Y-63827D01*
X56360Y-64004D01*
X56359Y-64195D01*
X56432Y-64371D01*
X56567Y-64506D01*
X56744Y-64579D01*
X56935Y-64580D01*
X57111Y-64507D01*
X57246Y-64372D01*
X57319Y-64195D01*
X57320Y-64004D01*
X57320Y-65725D01*
X53450Y-65725D01*
X53450Y-64580D01*
X53396Y-64452D01*
X53298Y-64353D01*
X53169Y-64300D01*
X53030Y-64299D01*
X52902Y-64353D01*
X52803Y-64451D01*
X52750Y-64580D01*
X52749Y-64719D01*
X52803Y-64848D01*
X52901Y-64946D01*
X53030Y-64999D01*
X53169Y-65000D01*
X53298Y-64946D01*
X53396Y-64848D01*
X53449Y-64719D01*
X53450Y-64580D01*
X53450Y-65725D01*
X51780Y-65725D01*
X51780Y-65104D01*
X51707Y-64928D01*
X51572Y-64793D01*
X51395Y-64720D01*
X51204Y-64719D01*
X51028Y-64792D01*
X50893Y-64927D01*
X50820Y-65104D01*
X50819Y-65295D01*
X50892Y-65471D01*
X51027Y-65606D01*
X51204Y-65679D01*
X51395Y-65680D01*
X51571Y-65607D01*
X51706Y-65472D01*
X51779Y-65295D01*
X51780Y-65104D01*
X51780Y-65725D01*
X50254Y-65725D01*
X50254Y-64881D01*
X50243Y-64663D01*
X50181Y-64512D01*
X50085Y-64484D01*
X50015Y-64555D01*
X50015Y-64414D01*
X49987Y-64318D01*
X49781Y-64245D01*
X49563Y-64256D01*
X49412Y-64318D01*
X49384Y-64414D01*
X49700Y-64729D01*
X50015Y-64414D01*
X50015Y-64555D01*
X49770Y-64800D01*
X50085Y-65115D01*
X50181Y-65087D01*
X50254Y-64881D01*
X50254Y-65725D01*
X50015Y-65725D01*
X50015Y-65185D01*
X49700Y-64870D01*
X49384Y-65185D01*
X49412Y-65281D01*
X49618Y-65354D01*
X49836Y-65343D01*
X49987Y-65281D01*
X50015Y-65185D01*
X50015Y-65725D01*
X49887Y-65725D01*
X49838Y-65551D01*
X47970Y-65458D01*
X47970Y-64262D01*
X48152Y-64445D01*
X48150Y-64450D01*
X48149Y-64549D01*
X48149Y-65149D01*
X48187Y-65241D01*
X48258Y-65311D01*
X48350Y-65349D01*
X48449Y-65350D01*
X49049Y-65350D01*
X49141Y-65312D01*
X49211Y-65241D01*
X49249Y-65149D01*
X49250Y-65096D01*
X49314Y-65115D01*
X49629Y-64800D01*
X49314Y-64484D01*
X49250Y-64503D01*
X49250Y-64450D01*
X49212Y-64358D01*
X49183Y-64330D01*
X49189Y-64300D01*
X49152Y-64112D01*
X49046Y-63953D01*
X48606Y-63513D01*
X48649Y-63409D01*
X48650Y-63160D01*
X56199Y-63249D01*
X60181Y-63353D01*
X60163Y-63371D01*
X60110Y-63500D01*
X60109Y-63639D01*
X60163Y-63768D01*
X60261Y-63866D01*
X60390Y-63919D01*
X60529Y-63920D01*
X60658Y-63866D01*
X60756Y-63768D01*
X60809Y-63639D01*
X60810Y-63500D01*
X60756Y-63372D01*
X60753Y-63368D01*
X67699Y-63550D01*
X78700Y-63350D01*
X82166Y-63350D01*
X82257Y-63441D01*
X82434Y-63514D01*
X82625Y-63515D01*
X82801Y-63442D01*
X82893Y-63350D01*
X87550Y-63350D01*
X87550Y-63202D01*
X87645Y-62250D01*
X88556Y-62250D01*
X88469Y-62336D01*
X88371Y-62573D01*
X88371Y-62829D01*
X88468Y-63066D01*
X88649Y-63247D01*
X88886Y-63345D01*
X89142Y-63345D01*
X89379Y-63248D01*
X89560Y-63067D01*
X89658Y-62830D01*
X89658Y-62574D01*
X89561Y-62337D01*
X89473Y-62250D01*
X89950Y-62250D01*
X89950Y-64800D01*
X89950Y-65551D01*
G54D10*
G36*
X90050Y-54850D02*
X89662Y-54850D01*
X89662Y-53160D01*
X89658Y-53047D01*
X89658Y-51550D01*
X89658Y-50172D01*
X89658Y-48795D01*
X89561Y-48558D01*
X89380Y-48377D01*
X89143Y-48278D01*
X88887Y-48278D01*
X88650Y-48376D01*
X88469Y-48557D01*
X88371Y-48793D01*
X88371Y-49049D01*
X88468Y-49286D01*
X88649Y-49467D01*
X88886Y-49566D01*
X89142Y-49566D01*
X89379Y-49468D01*
X89560Y-49287D01*
X89658Y-49051D01*
X89658Y-48795D01*
X89658Y-50172D01*
X89561Y-49936D01*
X89380Y-49755D01*
X89143Y-49656D01*
X88887Y-49656D01*
X88650Y-49754D01*
X88469Y-49935D01*
X88371Y-50171D01*
X88371Y-50427D01*
X88468Y-50664D01*
X88649Y-50845D01*
X88886Y-50944D01*
X89142Y-50944D01*
X89379Y-50846D01*
X89560Y-50665D01*
X89658Y-50429D01*
X89658Y-50172D01*
X89658Y-51550D01*
X89561Y-51314D01*
X89380Y-51133D01*
X89143Y-51034D01*
X88887Y-51034D01*
X88650Y-51132D01*
X88469Y-51313D01*
X88371Y-51549D01*
X88371Y-51805D01*
X88468Y-52042D01*
X88649Y-52223D01*
X88886Y-52322D01*
X89142Y-52322D01*
X89379Y-52224D01*
X89560Y-52043D01*
X89658Y-51807D01*
X89658Y-51550D01*
X89658Y-53047D01*
X89653Y-52904D01*
X89573Y-52712D01*
X89468Y-52673D01*
X89398Y-52744D01*
X89398Y-52602D01*
X89359Y-52497D01*
X89119Y-52408D01*
X88863Y-52417D01*
X88670Y-52497D01*
X88631Y-52602D01*
X89015Y-52985D01*
X89398Y-52602D01*
X89398Y-52744D01*
X89085Y-53056D01*
X89468Y-53439D01*
X89573Y-53400D01*
X89662Y-53160D01*
X89662Y-54850D01*
X89509Y-54850D01*
X89560Y-54799D01*
X89658Y-54562D01*
X89658Y-54306D01*
X89561Y-54070D01*
X89398Y-53906D01*
X89398Y-53510D01*
X89015Y-53127D01*
X88944Y-53197D01*
X88944Y-53056D01*
X88561Y-52673D01*
X88456Y-52712D01*
X88367Y-52952D01*
X88376Y-53208D01*
X88456Y-53400D01*
X88561Y-53439D01*
X88944Y-53056D01*
X88944Y-53197D01*
X88631Y-53510D01*
X88670Y-53615D01*
X88910Y-53704D01*
X89166Y-53694D01*
X89359Y-53615D01*
X89398Y-53510D01*
X89398Y-53906D01*
X89380Y-53888D01*
X89143Y-53790D01*
X88887Y-53790D01*
X88650Y-53888D01*
X88469Y-54069D01*
X88371Y-54305D01*
X88371Y-54561D01*
X88468Y-54798D01*
X88520Y-54850D01*
X87550Y-54850D01*
X87550Y-51950D01*
X86695Y-51950D01*
X86695Y-49533D01*
X86568Y-49224D01*
X86331Y-48987D01*
X86022Y-48859D01*
X85688Y-48859D01*
X85379Y-48987D01*
X85142Y-49223D01*
X85014Y-49532D01*
X85014Y-49866D01*
X85142Y-50175D01*
X85378Y-50412D01*
X85687Y-50540D01*
X86021Y-50540D01*
X86330Y-50413D01*
X86567Y-50176D01*
X86695Y-49867D01*
X86695Y-49533D01*
X86695Y-51950D01*
X83670Y-51950D01*
X83670Y-49701D01*
X83556Y-49425D01*
X83345Y-49214D01*
X83069Y-49100D01*
X82771Y-49099D01*
X82495Y-49213D01*
X82284Y-49424D01*
X82170Y-49700D01*
X82169Y-49998D01*
X82283Y-50274D01*
X82494Y-50485D01*
X82770Y-50599D01*
X83068Y-50600D01*
X83344Y-50486D01*
X83555Y-50275D01*
X83669Y-49999D01*
X83670Y-49701D01*
X83670Y-51950D01*
X79530Y-51950D01*
X79530Y-50081D01*
X79416Y-49805D01*
X79205Y-49594D01*
X78929Y-49480D01*
X78631Y-49479D01*
X78355Y-49593D01*
X78144Y-49804D01*
X78030Y-50080D01*
X78029Y-50378D01*
X78143Y-50654D01*
X78354Y-50865D01*
X78630Y-50979D01*
X78928Y-50980D01*
X79204Y-50866D01*
X79415Y-50655D01*
X79529Y-50379D01*
X79530Y-50081D01*
X79530Y-51950D01*
X76543Y-51950D01*
X76543Y-50339D01*
X76535Y-50041D01*
X76436Y-49801D01*
X76320Y-49750D01*
X76249Y-49820D01*
X76249Y-49679D01*
X76198Y-49563D01*
X75919Y-49456D01*
X75621Y-49464D01*
X75381Y-49563D01*
X75330Y-49679D01*
X75790Y-50139D01*
X76249Y-49679D01*
X76249Y-49820D01*
X75860Y-50210D01*
X76320Y-50669D01*
X76436Y-50618D01*
X76543Y-50339D01*
X76543Y-51950D01*
X76249Y-51950D01*
X76249Y-50740D01*
X75790Y-50280D01*
X75719Y-50351D01*
X75719Y-50210D01*
X75259Y-49750D01*
X75143Y-49801D01*
X75036Y-50080D01*
X75044Y-50378D01*
X75143Y-50618D01*
X75259Y-50669D01*
X75719Y-50210D01*
X75719Y-50351D01*
X75330Y-50740D01*
X75381Y-50856D01*
X75660Y-50963D01*
X75958Y-50955D01*
X76198Y-50856D01*
X76249Y-50740D01*
X76249Y-51950D01*
X75354Y-51950D01*
X75204Y-53700D01*
X73895Y-53700D01*
X73895Y-49841D01*
X73803Y-49620D01*
X73635Y-49451D01*
X73414Y-49360D01*
X73176Y-49359D01*
X72955Y-49451D01*
X72794Y-49611D01*
X72635Y-49451D01*
X72414Y-49360D01*
X72176Y-49359D01*
X71955Y-49451D01*
X71880Y-49525D01*
X71857Y-49468D01*
X71786Y-49398D01*
X71694Y-49360D01*
X71595Y-49359D01*
X70895Y-49359D01*
X70803Y-49397D01*
X70733Y-49468D01*
X70695Y-49560D01*
X70694Y-49659D01*
X70694Y-50359D01*
X70732Y-50451D01*
X70803Y-50521D01*
X70895Y-50559D01*
X70994Y-50560D01*
X71694Y-50560D01*
X71786Y-50522D01*
X71856Y-50451D01*
X71880Y-50394D01*
X71954Y-50468D01*
X72175Y-50559D01*
X72413Y-50560D01*
X72634Y-50468D01*
X72795Y-50308D01*
X72954Y-50468D01*
X73175Y-50559D01*
X73413Y-50560D01*
X73634Y-50468D01*
X73803Y-50300D01*
X73894Y-50079D01*
X73895Y-49841D01*
X73895Y-53700D01*
X68460Y-53700D01*
X68460Y-49881D01*
X68368Y-49660D01*
X68200Y-49491D01*
X67979Y-49400D01*
X67741Y-49399D01*
X67520Y-49491D01*
X67359Y-49651D01*
X67200Y-49491D01*
X66979Y-49400D01*
X66741Y-49399D01*
X66520Y-49491D01*
X66445Y-49565D01*
X66422Y-49508D01*
X66351Y-49438D01*
X66259Y-49400D01*
X66160Y-49399D01*
X65460Y-49399D01*
X65368Y-49437D01*
X65298Y-49508D01*
X65260Y-49600D01*
X65259Y-49699D01*
X65259Y-50399D01*
X65297Y-50491D01*
X65368Y-50561D01*
X65460Y-50599D01*
X65559Y-50600D01*
X66259Y-50600D01*
X66351Y-50562D01*
X66421Y-50491D01*
X66445Y-50434D01*
X66519Y-50508D01*
X66740Y-50599D01*
X66978Y-50600D01*
X67199Y-50508D01*
X67360Y-50348D01*
X67519Y-50508D01*
X67740Y-50599D01*
X67978Y-50600D01*
X68199Y-50508D01*
X68368Y-50340D01*
X68459Y-50119D01*
X68460Y-49881D01*
X68460Y-53700D01*
X63940Y-53700D01*
X64145Y-53495D01*
X64259Y-53219D01*
X64260Y-52921D01*
X64146Y-52645D01*
X63935Y-52434D01*
X63659Y-52320D01*
X63361Y-52319D01*
X63085Y-52433D01*
X62874Y-52644D01*
X62760Y-52920D01*
X62759Y-53218D01*
X62873Y-53494D01*
X63079Y-53700D01*
X62750Y-53700D01*
X62750Y-52291D01*
X62651Y-52052D01*
X62468Y-51869D01*
X62229Y-51770D01*
X61971Y-51769D01*
X61732Y-51868D01*
X61599Y-52000D01*
X61468Y-51869D01*
X61229Y-51770D01*
X60971Y-51769D01*
X60732Y-51868D01*
X60599Y-52000D01*
X60468Y-51869D01*
X60229Y-51770D01*
X59971Y-51769D01*
X59732Y-51868D01*
X59599Y-52000D01*
X59468Y-51869D01*
X59229Y-51770D01*
X58971Y-51769D01*
X58732Y-51868D01*
X58599Y-52000D01*
X58468Y-51869D01*
X58229Y-51770D01*
X57971Y-51769D01*
X57732Y-51868D01*
X57599Y-52000D01*
X57468Y-51869D01*
X57229Y-51770D01*
X56971Y-51769D01*
X56732Y-51868D01*
X56599Y-52000D01*
X56468Y-51869D01*
X56229Y-51770D01*
X55971Y-51769D01*
X55732Y-51868D01*
X55599Y-52000D01*
X55468Y-51869D01*
X55229Y-51770D01*
X54971Y-51769D01*
X54732Y-51868D01*
X54549Y-52051D01*
X54450Y-52290D01*
X54449Y-52548D01*
X54548Y-52787D01*
X54731Y-52970D01*
X54970Y-53069D01*
X55228Y-53070D01*
X55467Y-52971D01*
X55600Y-52839D01*
X55731Y-52970D01*
X55970Y-53069D01*
X56228Y-53070D01*
X56467Y-52971D01*
X56600Y-52839D01*
X56731Y-52970D01*
X56970Y-53069D01*
X57228Y-53070D01*
X57467Y-52971D01*
X57600Y-52839D01*
X57731Y-52970D01*
X57970Y-53069D01*
X58228Y-53070D01*
X58467Y-52971D01*
X58600Y-52839D01*
X58731Y-52970D01*
X58970Y-53069D01*
X59228Y-53070D01*
X59467Y-52971D01*
X59600Y-52839D01*
X59731Y-52970D01*
X59970Y-53069D01*
X60228Y-53070D01*
X60467Y-52971D01*
X60600Y-52839D01*
X60731Y-52970D01*
X60970Y-53069D01*
X61228Y-53070D01*
X61467Y-52971D01*
X61600Y-52839D01*
X61731Y-52970D01*
X61970Y-53069D01*
X62228Y-53070D01*
X62467Y-52971D01*
X62650Y-52788D01*
X62749Y-52549D01*
X62750Y-52291D01*
X62750Y-53700D01*
X54150Y-53700D01*
X54150Y-52291D01*
X54051Y-52052D01*
X53868Y-51869D01*
X53629Y-51770D01*
X53371Y-51769D01*
X53132Y-51868D01*
X52999Y-52000D01*
X52868Y-51869D01*
X52736Y-51814D01*
X52736Y-48817D01*
X52425Y-48505D01*
X52113Y-48817D01*
X52139Y-48912D01*
X52344Y-48985D01*
X52561Y-48974D01*
X52710Y-48912D01*
X52736Y-48817D01*
X52736Y-51814D01*
X52629Y-51770D01*
X52371Y-51769D01*
X52132Y-51868D01*
X51999Y-52000D01*
X51868Y-51869D01*
X51629Y-51770D01*
X51371Y-51769D01*
X51132Y-51868D01*
X50999Y-52000D01*
X50868Y-51869D01*
X50629Y-51770D01*
X50371Y-51769D01*
X50132Y-51868D01*
X49999Y-52000D01*
X49868Y-51869D01*
X49629Y-51770D01*
X49371Y-51769D01*
X49132Y-51868D01*
X48999Y-52000D01*
X48868Y-51869D01*
X48629Y-51770D01*
X48371Y-51769D01*
X48167Y-51853D01*
X48167Y-49843D01*
X48167Y-48859D01*
X48129Y-48767D01*
X48059Y-48697D01*
X47967Y-48659D01*
X47868Y-48658D01*
X47118Y-48658D01*
X47124Y-48643D01*
X47124Y-48427D01*
X47041Y-48226D01*
X46888Y-48073D01*
X46688Y-47989D01*
X46471Y-47989D01*
X46270Y-48072D01*
X46117Y-48225D01*
X46089Y-48291D01*
X46072Y-48249D01*
X45977Y-48223D01*
X45906Y-48293D01*
X45906Y-48152D01*
X45880Y-48057D01*
X45675Y-47984D01*
X45458Y-47995D01*
X45309Y-48057D01*
X45283Y-48152D01*
X45595Y-48464D01*
X45906Y-48152D01*
X45906Y-48293D01*
X45665Y-48535D01*
X45977Y-48846D01*
X46072Y-48820D01*
X46088Y-48774D01*
X46116Y-48843D01*
X46269Y-48996D01*
X46470Y-49080D01*
X46687Y-49080D01*
X46880Y-49000D01*
X46880Y-49942D01*
X46918Y-50034D01*
X46988Y-50105D01*
X47080Y-50143D01*
X47179Y-50143D01*
X47967Y-50143D01*
X48059Y-50105D01*
X48129Y-50035D01*
X48167Y-49943D01*
X48167Y-49843D01*
X48167Y-51853D01*
X48132Y-51868D01*
X47999Y-52000D01*
X47868Y-51869D01*
X47629Y-51770D01*
X47371Y-51769D01*
X47132Y-51868D01*
X46999Y-52000D01*
X46868Y-51869D01*
X46629Y-51770D01*
X46371Y-51769D01*
X46132Y-51868D01*
X45949Y-52051D01*
X45906Y-52153D01*
X45906Y-48917D01*
X45595Y-48605D01*
X45524Y-48676D01*
X45524Y-48535D01*
X45212Y-48223D01*
X45117Y-48249D01*
X45101Y-48295D01*
X45073Y-48226D01*
X44920Y-48073D01*
X44719Y-47989D01*
X44502Y-47989D01*
X44302Y-48072D01*
X44148Y-48225D01*
X44065Y-48426D01*
X44065Y-48642D01*
X44072Y-48659D01*
X44010Y-48658D01*
X43222Y-48658D01*
X43130Y-48696D01*
X43060Y-48767D01*
X43022Y-48859D01*
X43022Y-48958D01*
X43022Y-49942D01*
X43060Y-50034D01*
X43130Y-50105D01*
X43222Y-50143D01*
X43321Y-50143D01*
X44109Y-50143D01*
X44200Y-50105D01*
X44271Y-50035D01*
X44309Y-49943D01*
X44309Y-49843D01*
X44309Y-49000D01*
X44501Y-49080D01*
X44718Y-49080D01*
X44919Y-48997D01*
X45072Y-48844D01*
X45100Y-48778D01*
X45117Y-48820D01*
X45212Y-48846D01*
X45524Y-48535D01*
X45524Y-48676D01*
X45283Y-48917D01*
X45309Y-49012D01*
X45514Y-49085D01*
X45731Y-49074D01*
X45880Y-49012D01*
X45906Y-48917D01*
X45906Y-52153D01*
X45850Y-52290D01*
X45849Y-52548D01*
X45948Y-52787D01*
X46131Y-52970D01*
X46370Y-53069D01*
X46628Y-53070D01*
X46867Y-52971D01*
X47000Y-52839D01*
X47131Y-52970D01*
X47370Y-53069D01*
X47628Y-53070D01*
X47867Y-52971D01*
X48000Y-52839D01*
X48131Y-52970D01*
X48370Y-53069D01*
X48628Y-53070D01*
X48867Y-52971D01*
X49000Y-52839D01*
X49131Y-52970D01*
X49370Y-53069D01*
X49628Y-53070D01*
X49867Y-52971D01*
X50000Y-52839D01*
X50131Y-52970D01*
X50370Y-53069D01*
X50628Y-53070D01*
X50867Y-52971D01*
X51000Y-52839D01*
X51131Y-52970D01*
X51370Y-53069D01*
X51628Y-53070D01*
X51867Y-52971D01*
X52000Y-52839D01*
X52131Y-52970D01*
X52370Y-53069D01*
X52628Y-53070D01*
X52867Y-52971D01*
X53000Y-52839D01*
X53131Y-52970D01*
X53370Y-53069D01*
X53628Y-53070D01*
X53867Y-52971D01*
X54050Y-52788D01*
X54149Y-52549D01*
X54150Y-52291D01*
X54150Y-53700D01*
X47299Y-53700D01*
X47346Y-62168D01*
X47286Y-62193D01*
X47254Y-62161D01*
X47254Y-59381D01*
X47243Y-59163D01*
X47181Y-59012D01*
X47085Y-58984D01*
X47015Y-59055D01*
X47015Y-58914D01*
X46987Y-58818D01*
X46781Y-58745D01*
X46563Y-58756D01*
X46412Y-58818D01*
X46384Y-58914D01*
X46700Y-59229D01*
X47015Y-58914D01*
X47015Y-59055D01*
X46770Y-59300D01*
X47085Y-59615D01*
X47181Y-59587D01*
X47254Y-59381D01*
X47254Y-62161D01*
X47190Y-62097D01*
X47190Y-60763D01*
X47211Y-60741D01*
X47249Y-60649D01*
X47250Y-60550D01*
X47250Y-59950D01*
X47212Y-59858D01*
X47141Y-59788D01*
X47049Y-59750D01*
X46996Y-59749D01*
X47015Y-59685D01*
X46700Y-59370D01*
X46629Y-59441D01*
X46629Y-59300D01*
X46314Y-58984D01*
X46218Y-59012D01*
X46145Y-59218D01*
X46156Y-59436D01*
X46218Y-59587D01*
X46314Y-59615D01*
X46629Y-59300D01*
X46629Y-59441D01*
X46384Y-59685D01*
X46403Y-59749D01*
X46350Y-59749D01*
X46258Y-59787D01*
X46188Y-59858D01*
X46150Y-59950D01*
X46149Y-60049D01*
X46149Y-60649D01*
X46187Y-60741D01*
X46210Y-60763D01*
X46210Y-62300D01*
X46247Y-62487D01*
X46353Y-62646D01*
X46417Y-62710D01*
X43975Y-62710D01*
X43975Y-52246D01*
X43842Y-51925D01*
X43596Y-51678D01*
X43274Y-51545D01*
X42926Y-51544D01*
X42605Y-51677D01*
X42358Y-51923D01*
X42225Y-52245D01*
X42224Y-52593D01*
X42357Y-52915D01*
X42603Y-53161D01*
X42925Y-53294D01*
X43273Y-53295D01*
X43595Y-53162D01*
X43841Y-52916D01*
X43974Y-52594D01*
X43975Y-52246D01*
X43975Y-62710D01*
X41990Y-62710D01*
X41990Y-50780D01*
X41925Y-50624D01*
X41806Y-50504D01*
X41649Y-50440D01*
X41480Y-50439D01*
X41324Y-50504D01*
X41204Y-50623D01*
X41140Y-50780D01*
X41139Y-50949D01*
X41204Y-51105D01*
X41323Y-51225D01*
X41480Y-51289D01*
X41649Y-51290D01*
X41805Y-51225D01*
X41925Y-51106D01*
X41989Y-50949D01*
X41990Y-50780D01*
X41990Y-62710D01*
X41880Y-62710D01*
X41880Y-62004D01*
X41807Y-61828D01*
X41780Y-61801D01*
X41780Y-60804D01*
X41707Y-60628D01*
X41572Y-60493D01*
X41395Y-60420D01*
X41204Y-60419D01*
X41028Y-60492D01*
X40893Y-60627D01*
X40820Y-60804D01*
X40819Y-60995D01*
X40892Y-61171D01*
X41027Y-61306D01*
X41204Y-61379D01*
X41395Y-61380D01*
X41571Y-61307D01*
X41706Y-61172D01*
X41779Y-60995D01*
X41780Y-60804D01*
X41780Y-61801D01*
X41672Y-61693D01*
X41495Y-61620D01*
X41304Y-61619D01*
X41128Y-61692D01*
X40993Y-61827D01*
X40920Y-62004D01*
X40919Y-62195D01*
X40992Y-62371D01*
X41127Y-62506D01*
X41304Y-62579D01*
X41495Y-62580D01*
X41671Y-62507D01*
X41806Y-62372D01*
X41879Y-62195D01*
X41880Y-62004D01*
X41880Y-62710D01*
X40650Y-62710D01*
X40650Y-48855D01*
X40700Y-48876D01*
X40893Y-48876D01*
X41072Y-48802D01*
X41169Y-48705D01*
X41314Y-48851D01*
X41515Y-48935D01*
X41732Y-48935D01*
X41932Y-48852D01*
X42086Y-48699D01*
X42169Y-48498D01*
X42169Y-48282D01*
X42086Y-48081D01*
X41960Y-47954D01*
X51175Y-47954D01*
X51132Y-47972D01*
X50978Y-48125D01*
X50895Y-48326D01*
X50895Y-48542D01*
X50902Y-48559D01*
X50840Y-48558D01*
X50052Y-48558D01*
X49960Y-48596D01*
X49890Y-48667D01*
X49852Y-48759D01*
X49852Y-48858D01*
X49852Y-49842D01*
X49890Y-49934D01*
X49960Y-50005D01*
X50052Y-50043D01*
X50151Y-50043D01*
X50939Y-50043D01*
X51030Y-50005D01*
X51101Y-49935D01*
X51139Y-49843D01*
X51139Y-49743D01*
X51139Y-48900D01*
X51331Y-48980D01*
X51548Y-48980D01*
X51749Y-48897D01*
X51902Y-48744D01*
X51930Y-48678D01*
X51947Y-48720D01*
X52042Y-48746D01*
X52354Y-48435D01*
X52042Y-48123D01*
X51947Y-48149D01*
X51931Y-48195D01*
X51903Y-48126D01*
X51750Y-47973D01*
X51705Y-47954D01*
X52147Y-47954D01*
X52139Y-47957D01*
X52113Y-48052D01*
X52425Y-48364D01*
X52736Y-48052D01*
X52710Y-47957D01*
X52701Y-47954D01*
X53143Y-47954D01*
X53100Y-47972D01*
X52947Y-48125D01*
X52919Y-48191D01*
X52902Y-48149D01*
X52807Y-48123D01*
X52495Y-48435D01*
X52807Y-48746D01*
X52902Y-48720D01*
X52918Y-48674D01*
X52946Y-48743D01*
X53099Y-48896D01*
X53300Y-48980D01*
X53517Y-48980D01*
X53710Y-48900D01*
X53710Y-49842D01*
X53748Y-49934D01*
X53818Y-50005D01*
X53910Y-50043D01*
X54009Y-50043D01*
X54797Y-50043D01*
X54889Y-50005D01*
X54959Y-49935D01*
X54997Y-49843D01*
X54997Y-49743D01*
X54997Y-48759D01*
X54959Y-48667D01*
X54889Y-48597D01*
X54797Y-48559D01*
X54698Y-48558D01*
X53948Y-48558D01*
X53954Y-48543D01*
X53954Y-48327D01*
X53871Y-48126D01*
X53718Y-47973D01*
X53674Y-47954D01*
X66360Y-47954D01*
X66216Y-48099D01*
X66103Y-48371D01*
X66102Y-48666D01*
X66215Y-48939D01*
X66424Y-49148D01*
X66696Y-49261D01*
X66991Y-49262D01*
X67264Y-49149D01*
X67473Y-48940D01*
X67586Y-48668D01*
X67587Y-48373D01*
X67474Y-48100D01*
X67329Y-47954D01*
X71830Y-47954D01*
X71686Y-48099D01*
X71573Y-48371D01*
X71572Y-48666D01*
X71685Y-48939D01*
X71894Y-49148D01*
X72166Y-49261D01*
X72461Y-49262D01*
X72734Y-49149D01*
X72943Y-48940D01*
X73056Y-48668D01*
X73057Y-48373D01*
X72944Y-48100D01*
X72799Y-47954D01*
X90050Y-47954D01*
X90050Y-54850D01*
X90050Y-54850D01*
G37*
G54D29*
X90050Y-54850D02*
X89662Y-54850D01*
X89662Y-53160D01*
X89658Y-53047D01*
X89658Y-51550D01*
X89658Y-50172D01*
X89658Y-48795D01*
X89561Y-48558D01*
X89380Y-48377D01*
X89143Y-48278D01*
X88887Y-48278D01*
X88650Y-48376D01*
X88469Y-48557D01*
X88371Y-48793D01*
X88371Y-49049D01*
X88468Y-49286D01*
X88649Y-49467D01*
X88886Y-49566D01*
X89142Y-49566D01*
X89379Y-49468D01*
X89560Y-49287D01*
X89658Y-49051D01*
X89658Y-48795D01*
X89658Y-50172D01*
X89561Y-49936D01*
X89380Y-49755D01*
X89143Y-49656D01*
X88887Y-49656D01*
X88650Y-49754D01*
X88469Y-49935D01*
X88371Y-50171D01*
X88371Y-50427D01*
X88468Y-50664D01*
X88649Y-50845D01*
X88886Y-50944D01*
X89142Y-50944D01*
X89379Y-50846D01*
X89560Y-50665D01*
X89658Y-50429D01*
X89658Y-50172D01*
X89658Y-51550D01*
X89561Y-51314D01*
X89380Y-51133D01*
X89143Y-51034D01*
X88887Y-51034D01*
X88650Y-51132D01*
X88469Y-51313D01*
X88371Y-51549D01*
X88371Y-51805D01*
X88468Y-52042D01*
X88649Y-52223D01*
X88886Y-52322D01*
X89142Y-52322D01*
X89379Y-52224D01*
X89560Y-52043D01*
X89658Y-51807D01*
X89658Y-51550D01*
X89658Y-53047D01*
X89653Y-52904D01*
X89573Y-52712D01*
X89468Y-52673D01*
X89398Y-52744D01*
X89398Y-52602D01*
X89359Y-52497D01*
X89119Y-52408D01*
X88863Y-52417D01*
X88670Y-52497D01*
X88631Y-52602D01*
X89015Y-52985D01*
X89398Y-52602D01*
X89398Y-52744D01*
X89085Y-53056D01*
X89468Y-53439D01*
X89573Y-53400D01*
X89662Y-53160D01*
X89662Y-54850D01*
X89509Y-54850D01*
X89560Y-54799D01*
X89658Y-54562D01*
X89658Y-54306D01*
X89561Y-54070D01*
X89398Y-53906D01*
X89398Y-53510D01*
X89015Y-53127D01*
X88944Y-53197D01*
X88944Y-53056D01*
X88561Y-52673D01*
X88456Y-52712D01*
X88367Y-52952D01*
X88376Y-53208D01*
X88456Y-53400D01*
X88561Y-53439D01*
X88944Y-53056D01*
X88944Y-53197D01*
X88631Y-53510D01*
X88670Y-53615D01*
X88910Y-53704D01*
X89166Y-53694D01*
X89359Y-53615D01*
X89398Y-53510D01*
X89398Y-53906D01*
X89380Y-53888D01*
X89143Y-53790D01*
X88887Y-53790D01*
X88650Y-53888D01*
X88469Y-54069D01*
X88371Y-54305D01*
X88371Y-54561D01*
X88468Y-54798D01*
X88520Y-54850D01*
X87550Y-54850D01*
X87550Y-51950D01*
X86695Y-51950D01*
X86695Y-49533D01*
X86568Y-49224D01*
X86331Y-48987D01*
X86022Y-48859D01*
X85688Y-48859D01*
X85379Y-48987D01*
X85142Y-49223D01*
X85014Y-49532D01*
X85014Y-49866D01*
X85142Y-50175D01*
X85378Y-50412D01*
X85687Y-50540D01*
X86021Y-50540D01*
X86330Y-50413D01*
X86567Y-50176D01*
X86695Y-49867D01*
X86695Y-49533D01*
X86695Y-51950D01*
X83670Y-51950D01*
X83670Y-49701D01*
X83556Y-49425D01*
X83345Y-49214D01*
X83069Y-49100D01*
X82771Y-49099D01*
X82495Y-49213D01*
X82284Y-49424D01*
X82170Y-49700D01*
X82169Y-49998D01*
X82283Y-50274D01*
X82494Y-50485D01*
X82770Y-50599D01*
X83068Y-50600D01*
X83344Y-50486D01*
X83555Y-50275D01*
X83669Y-49999D01*
X83670Y-49701D01*
X83670Y-51950D01*
X79530Y-51950D01*
X79530Y-50081D01*
X79416Y-49805D01*
X79205Y-49594D01*
X78929Y-49480D01*
X78631Y-49479D01*
X78355Y-49593D01*
X78144Y-49804D01*
X78030Y-50080D01*
X78029Y-50378D01*
X78143Y-50654D01*
X78354Y-50865D01*
X78630Y-50979D01*
X78928Y-50980D01*
X79204Y-50866D01*
X79415Y-50655D01*
X79529Y-50379D01*
X79530Y-50081D01*
X79530Y-51950D01*
X76543Y-51950D01*
X76543Y-50339D01*
X76535Y-50041D01*
X76436Y-49801D01*
X76320Y-49750D01*
X76249Y-49820D01*
X76249Y-49679D01*
X76198Y-49563D01*
X75919Y-49456D01*
X75621Y-49464D01*
X75381Y-49563D01*
X75330Y-49679D01*
X75790Y-50139D01*
X76249Y-49679D01*
X76249Y-49820D01*
X75860Y-50210D01*
X76320Y-50669D01*
X76436Y-50618D01*
X76543Y-50339D01*
X76543Y-51950D01*
X76249Y-51950D01*
X76249Y-50740D01*
X75790Y-50280D01*
X75719Y-50351D01*
X75719Y-50210D01*
X75259Y-49750D01*
X75143Y-49801D01*
X75036Y-50080D01*
X75044Y-50378D01*
X75143Y-50618D01*
X75259Y-50669D01*
X75719Y-50210D01*
X75719Y-50351D01*
X75330Y-50740D01*
X75381Y-50856D01*
X75660Y-50963D01*
X75958Y-50955D01*
X76198Y-50856D01*
X76249Y-50740D01*
X76249Y-51950D01*
X75354Y-51950D01*
X75204Y-53700D01*
X73895Y-53700D01*
X73895Y-49841D01*
X73803Y-49620D01*
X73635Y-49451D01*
X73414Y-49360D01*
X73176Y-49359D01*
X72955Y-49451D01*
X72794Y-49611D01*
X72635Y-49451D01*
X72414Y-49360D01*
X72176Y-49359D01*
X71955Y-49451D01*
X71880Y-49525D01*
X71857Y-49468D01*
X71786Y-49398D01*
X71694Y-49360D01*
X71595Y-49359D01*
X70895Y-49359D01*
X70803Y-49397D01*
X70733Y-49468D01*
X70695Y-49560D01*
X70694Y-49659D01*
X70694Y-50359D01*
X70732Y-50451D01*
X70803Y-50521D01*
X70895Y-50559D01*
X70994Y-50560D01*
X71694Y-50560D01*
X71786Y-50522D01*
X71856Y-50451D01*
X71880Y-50394D01*
X71954Y-50468D01*
X72175Y-50559D01*
X72413Y-50560D01*
X72634Y-50468D01*
X72795Y-50308D01*
X72954Y-50468D01*
X73175Y-50559D01*
X73413Y-50560D01*
X73634Y-50468D01*
X73803Y-50300D01*
X73894Y-50079D01*
X73895Y-49841D01*
X73895Y-53700D01*
X68460Y-53700D01*
X68460Y-49881D01*
X68368Y-49660D01*
X68200Y-49491D01*
X67979Y-49400D01*
X67741Y-49399D01*
X67520Y-49491D01*
X67359Y-49651D01*
X67200Y-49491D01*
X66979Y-49400D01*
X66741Y-49399D01*
X66520Y-49491D01*
X66445Y-49565D01*
X66422Y-49508D01*
X66351Y-49438D01*
X66259Y-49400D01*
X66160Y-49399D01*
X65460Y-49399D01*
X65368Y-49437D01*
X65298Y-49508D01*
X65260Y-49600D01*
X65259Y-49699D01*
X65259Y-50399D01*
X65297Y-50491D01*
X65368Y-50561D01*
X65460Y-50599D01*
X65559Y-50600D01*
X66259Y-50600D01*
X66351Y-50562D01*
X66421Y-50491D01*
X66445Y-50434D01*
X66519Y-50508D01*
X66740Y-50599D01*
X66978Y-50600D01*
X67199Y-50508D01*
X67360Y-50348D01*
X67519Y-50508D01*
X67740Y-50599D01*
X67978Y-50600D01*
X68199Y-50508D01*
X68368Y-50340D01*
X68459Y-50119D01*
X68460Y-49881D01*
X68460Y-53700D01*
X63940Y-53700D01*
X64145Y-53495D01*
X64259Y-53219D01*
X64260Y-52921D01*
X64146Y-52645D01*
X63935Y-52434D01*
X63659Y-52320D01*
X63361Y-52319D01*
X63085Y-52433D01*
X62874Y-52644D01*
X62760Y-52920D01*
X62759Y-53218D01*
X62873Y-53494D01*
X63079Y-53700D01*
X62750Y-53700D01*
X62750Y-52291D01*
X62651Y-52052D01*
X62468Y-51869D01*
X62229Y-51770D01*
X61971Y-51769D01*
X61732Y-51868D01*
X61599Y-52000D01*
X61468Y-51869D01*
X61229Y-51770D01*
X60971Y-51769D01*
X60732Y-51868D01*
X60599Y-52000D01*
X60468Y-51869D01*
X60229Y-51770D01*
X59971Y-51769D01*
X59732Y-51868D01*
X59599Y-52000D01*
X59468Y-51869D01*
X59229Y-51770D01*
X58971Y-51769D01*
X58732Y-51868D01*
X58599Y-52000D01*
X58468Y-51869D01*
X58229Y-51770D01*
X57971Y-51769D01*
X57732Y-51868D01*
X57599Y-52000D01*
X57468Y-51869D01*
X57229Y-51770D01*
X56971Y-51769D01*
X56732Y-51868D01*
X56599Y-52000D01*
X56468Y-51869D01*
X56229Y-51770D01*
X55971Y-51769D01*
X55732Y-51868D01*
X55599Y-52000D01*
X55468Y-51869D01*
X55229Y-51770D01*
X54971Y-51769D01*
X54732Y-51868D01*
X54549Y-52051D01*
X54450Y-52290D01*
X54449Y-52548D01*
X54548Y-52787D01*
X54731Y-52970D01*
X54970Y-53069D01*
X55228Y-53070D01*
X55467Y-52971D01*
X55600Y-52839D01*
X55731Y-52970D01*
X55970Y-53069D01*
X56228Y-53070D01*
X56467Y-52971D01*
X56600Y-52839D01*
X56731Y-52970D01*
X56970Y-53069D01*
X57228Y-53070D01*
X57467Y-52971D01*
X57600Y-52839D01*
X57731Y-52970D01*
X57970Y-53069D01*
X58228Y-53070D01*
X58467Y-52971D01*
X58600Y-52839D01*
X58731Y-52970D01*
X58970Y-53069D01*
X59228Y-53070D01*
X59467Y-52971D01*
X59600Y-52839D01*
X59731Y-52970D01*
X59970Y-53069D01*
X60228Y-53070D01*
X60467Y-52971D01*
X60600Y-52839D01*
X60731Y-52970D01*
X60970Y-53069D01*
X61228Y-53070D01*
X61467Y-52971D01*
X61600Y-52839D01*
X61731Y-52970D01*
X61970Y-53069D01*
X62228Y-53070D01*
X62467Y-52971D01*
X62650Y-52788D01*
X62749Y-52549D01*
X62750Y-52291D01*
X62750Y-53700D01*
X54150Y-53700D01*
X54150Y-52291D01*
X54051Y-52052D01*
X53868Y-51869D01*
X53629Y-51770D01*
X53371Y-51769D01*
X53132Y-51868D01*
X52999Y-52000D01*
X52868Y-51869D01*
X52736Y-51814D01*
X52736Y-48817D01*
X52425Y-48505D01*
X52113Y-48817D01*
X52139Y-48912D01*
X52344Y-48985D01*
X52561Y-48974D01*
X52710Y-48912D01*
X52736Y-48817D01*
X52736Y-51814D01*
X52629Y-51770D01*
X52371Y-51769D01*
X52132Y-51868D01*
X51999Y-52000D01*
X51868Y-51869D01*
X51629Y-51770D01*
X51371Y-51769D01*
X51132Y-51868D01*
X50999Y-52000D01*
X50868Y-51869D01*
X50629Y-51770D01*
X50371Y-51769D01*
X50132Y-51868D01*
X49999Y-52000D01*
X49868Y-51869D01*
X49629Y-51770D01*
X49371Y-51769D01*
X49132Y-51868D01*
X48999Y-52000D01*
X48868Y-51869D01*
X48629Y-51770D01*
X48371Y-51769D01*
X48167Y-51853D01*
X48167Y-49843D01*
X48167Y-48859D01*
X48129Y-48767D01*
X48059Y-48697D01*
X47967Y-48659D01*
X47868Y-48658D01*
X47118Y-48658D01*
X47124Y-48643D01*
X47124Y-48427D01*
X47041Y-48226D01*
X46888Y-48073D01*
X46688Y-47989D01*
X46471Y-47989D01*
X46270Y-48072D01*
X46117Y-48225D01*
X46089Y-48291D01*
X46072Y-48249D01*
X45977Y-48223D01*
X45906Y-48293D01*
X45906Y-48152D01*
X45880Y-48057D01*
X45675Y-47984D01*
X45458Y-47995D01*
X45309Y-48057D01*
X45283Y-48152D01*
X45595Y-48464D01*
X45906Y-48152D01*
X45906Y-48293D01*
X45665Y-48535D01*
X45977Y-48846D01*
X46072Y-48820D01*
X46088Y-48774D01*
X46116Y-48843D01*
X46269Y-48996D01*
X46470Y-49080D01*
X46687Y-49080D01*
X46880Y-49000D01*
X46880Y-49942D01*
X46918Y-50034D01*
X46988Y-50105D01*
X47080Y-50143D01*
X47179Y-50143D01*
X47967Y-50143D01*
X48059Y-50105D01*
X48129Y-50035D01*
X48167Y-49943D01*
X48167Y-49843D01*
X48167Y-51853D01*
X48132Y-51868D01*
X47999Y-52000D01*
X47868Y-51869D01*
X47629Y-51770D01*
X47371Y-51769D01*
X47132Y-51868D01*
X46999Y-52000D01*
X46868Y-51869D01*
X46629Y-51770D01*
X46371Y-51769D01*
X46132Y-51868D01*
X45949Y-52051D01*
X45906Y-52153D01*
X45906Y-48917D01*
X45595Y-48605D01*
X45524Y-48676D01*
X45524Y-48535D01*
X45212Y-48223D01*
X45117Y-48249D01*
X45101Y-48295D01*
X45073Y-48226D01*
X44920Y-48073D01*
X44719Y-47989D01*
X44502Y-47989D01*
X44302Y-48072D01*
X44148Y-48225D01*
X44065Y-48426D01*
X44065Y-48642D01*
X44072Y-48659D01*
X44010Y-48658D01*
X43222Y-48658D01*
X43130Y-48696D01*
X43060Y-48767D01*
X43022Y-48859D01*
X43022Y-48958D01*
X43022Y-49942D01*
X43060Y-50034D01*
X43130Y-50105D01*
X43222Y-50143D01*
X43321Y-50143D01*
X44109Y-50143D01*
X44200Y-50105D01*
X44271Y-50035D01*
X44309Y-49943D01*
X44309Y-49843D01*
X44309Y-49000D01*
X44501Y-49080D01*
X44718Y-49080D01*
X44919Y-48997D01*
X45072Y-48844D01*
X45100Y-48778D01*
X45117Y-48820D01*
X45212Y-48846D01*
X45524Y-48535D01*
X45524Y-48676D01*
X45283Y-48917D01*
X45309Y-49012D01*
X45514Y-49085D01*
X45731Y-49074D01*
X45880Y-49012D01*
X45906Y-48917D01*
X45906Y-52153D01*
X45850Y-52290D01*
X45849Y-52548D01*
X45948Y-52787D01*
X46131Y-52970D01*
X46370Y-53069D01*
X46628Y-53070D01*
X46867Y-52971D01*
X47000Y-52839D01*
X47131Y-52970D01*
X47370Y-53069D01*
X47628Y-53070D01*
X47867Y-52971D01*
X48000Y-52839D01*
X48131Y-52970D01*
X48370Y-53069D01*
X48628Y-53070D01*
X48867Y-52971D01*
X49000Y-52839D01*
X49131Y-52970D01*
X49370Y-53069D01*
X49628Y-53070D01*
X49867Y-52971D01*
X50000Y-52839D01*
X50131Y-52970D01*
X50370Y-53069D01*
X50628Y-53070D01*
X50867Y-52971D01*
X51000Y-52839D01*
X51131Y-52970D01*
X51370Y-53069D01*
X51628Y-53070D01*
X51867Y-52971D01*
X52000Y-52839D01*
X52131Y-52970D01*
X52370Y-53069D01*
X52628Y-53070D01*
X52867Y-52971D01*
X53000Y-52839D01*
X53131Y-52970D01*
X53370Y-53069D01*
X53628Y-53070D01*
X53867Y-52971D01*
X54050Y-52788D01*
X54149Y-52549D01*
X54150Y-52291D01*
X54150Y-53700D01*
X47299Y-53700D01*
X47346Y-62168D01*
X47286Y-62193D01*
X47254Y-62161D01*
X47254Y-59381D01*
X47243Y-59163D01*
X47181Y-59012D01*
X47085Y-58984D01*
X47015Y-59055D01*
X47015Y-58914D01*
X46987Y-58818D01*
X46781Y-58745D01*
X46563Y-58756D01*
X46412Y-58818D01*
X46384Y-58914D01*
X46700Y-59229D01*
X47015Y-58914D01*
X47015Y-59055D01*
X46770Y-59300D01*
X47085Y-59615D01*
X47181Y-59587D01*
X47254Y-59381D01*
X47254Y-62161D01*
X47190Y-62097D01*
X47190Y-60763D01*
X47211Y-60741D01*
X47249Y-60649D01*
X47250Y-60550D01*
X47250Y-59950D01*
X47212Y-59858D01*
X47141Y-59788D01*
X47049Y-59750D01*
X46996Y-59749D01*
X47015Y-59685D01*
X46700Y-59370D01*
X46629Y-59441D01*
X46629Y-59300D01*
X46314Y-58984D01*
X46218Y-59012D01*
X46145Y-59218D01*
X46156Y-59436D01*
X46218Y-59587D01*
X46314Y-59615D01*
X46629Y-59300D01*
X46629Y-59441D01*
X46384Y-59685D01*
X46403Y-59749D01*
X46350Y-59749D01*
X46258Y-59787D01*
X46188Y-59858D01*
X46150Y-59950D01*
X46149Y-60049D01*
X46149Y-60649D01*
X46187Y-60741D01*
X46210Y-60763D01*
X46210Y-62300D01*
X46247Y-62487D01*
X46353Y-62646D01*
X46417Y-62710D01*
X43975Y-62710D01*
X43975Y-52246D01*
X43842Y-51925D01*
X43596Y-51678D01*
X43274Y-51545D01*
X42926Y-51544D01*
X42605Y-51677D01*
X42358Y-51923D01*
X42225Y-52245D01*
X42224Y-52593D01*
X42357Y-52915D01*
X42603Y-53161D01*
X42925Y-53294D01*
X43273Y-53295D01*
X43595Y-53162D01*
X43841Y-52916D01*
X43974Y-52594D01*
X43975Y-52246D01*
X43975Y-62710D01*
X41990Y-62710D01*
X41990Y-50780D01*
X41925Y-50624D01*
X41806Y-50504D01*
X41649Y-50440D01*
X41480Y-50439D01*
X41324Y-50504D01*
X41204Y-50623D01*
X41140Y-50780D01*
X41139Y-50949D01*
X41204Y-51105D01*
X41323Y-51225D01*
X41480Y-51289D01*
X41649Y-51290D01*
X41805Y-51225D01*
X41925Y-51106D01*
X41989Y-50949D01*
X41990Y-50780D01*
X41990Y-62710D01*
X41880Y-62710D01*
X41880Y-62004D01*
X41807Y-61828D01*
X41780Y-61801D01*
X41780Y-60804D01*
X41707Y-60628D01*
X41572Y-60493D01*
X41395Y-60420D01*
X41204Y-60419D01*
X41028Y-60492D01*
X40893Y-60627D01*
X40820Y-60804D01*
X40819Y-60995D01*
X40892Y-61171D01*
X41027Y-61306D01*
X41204Y-61379D01*
X41395Y-61380D01*
X41571Y-61307D01*
X41706Y-61172D01*
X41779Y-60995D01*
X41780Y-60804D01*
X41780Y-61801D01*
X41672Y-61693D01*
X41495Y-61620D01*
X41304Y-61619D01*
X41128Y-61692D01*
X40993Y-61827D01*
X40920Y-62004D01*
X40919Y-62195D01*
X40992Y-62371D01*
X41127Y-62506D01*
X41304Y-62579D01*
X41495Y-62580D01*
X41671Y-62507D01*
X41806Y-62372D01*
X41879Y-62195D01*
X41880Y-62004D01*
X41880Y-62710D01*
X40650Y-62710D01*
X40650Y-48855D01*
X40700Y-48876D01*
X40893Y-48876D01*
X41072Y-48802D01*
X41169Y-48705D01*
X41314Y-48851D01*
X41515Y-48935D01*
X41732Y-48935D01*
X41932Y-48852D01*
X42086Y-48699D01*
X42169Y-48498D01*
X42169Y-48282D01*
X42086Y-48081D01*
X41960Y-47954D01*
X51175Y-47954D01*
X51132Y-47972D01*
X50978Y-48125D01*
X50895Y-48326D01*
X50895Y-48542D01*
X50902Y-48559D01*
X50840Y-48558D01*
X50052Y-48558D01*
X49960Y-48596D01*
X49890Y-48667D01*
X49852Y-48759D01*
X49852Y-48858D01*
X49852Y-49842D01*
X49890Y-49934D01*
X49960Y-50005D01*
X50052Y-50043D01*
X50151Y-50043D01*
X50939Y-50043D01*
X51030Y-50005D01*
X51101Y-49935D01*
X51139Y-49843D01*
X51139Y-49743D01*
X51139Y-48900D01*
X51331Y-48980D01*
X51548Y-48980D01*
X51749Y-48897D01*
X51902Y-48744D01*
X51930Y-48678D01*
X51947Y-48720D01*
X52042Y-48746D01*
X52354Y-48435D01*
X52042Y-48123D01*
X51947Y-48149D01*
X51931Y-48195D01*
X51903Y-48126D01*
X51750Y-47973D01*
X51705Y-47954D01*
X52147Y-47954D01*
X52139Y-47957D01*
X52113Y-48052D01*
X52425Y-48364D01*
X52736Y-48052D01*
X52710Y-47957D01*
X52701Y-47954D01*
X53143Y-47954D01*
X53100Y-47972D01*
X52947Y-48125D01*
X52919Y-48191D01*
X52902Y-48149D01*
X52807Y-48123D01*
X52495Y-48435D01*
X52807Y-48746D01*
X52902Y-48720D01*
X52918Y-48674D01*
X52946Y-48743D01*
X53099Y-48896D01*
X53300Y-48980D01*
X53517Y-48980D01*
X53710Y-48900D01*
X53710Y-49842D01*
X53748Y-49934D01*
X53818Y-50005D01*
X53910Y-50043D01*
X54009Y-50043D01*
X54797Y-50043D01*
X54889Y-50005D01*
X54959Y-49935D01*
X54997Y-49843D01*
X54997Y-49743D01*
X54997Y-48759D01*
X54959Y-48667D01*
X54889Y-48597D01*
X54797Y-48559D01*
X54698Y-48558D01*
X53948Y-48558D01*
X53954Y-48543D01*
X53954Y-48327D01*
X53871Y-48126D01*
X53718Y-47973D01*
X53674Y-47954D01*
X66360Y-47954D01*
X66216Y-48099D01*
X66103Y-48371D01*
X66102Y-48666D01*
X66215Y-48939D01*
X66424Y-49148D01*
X66696Y-49261D01*
X66991Y-49262D01*
X67264Y-49149D01*
X67473Y-48940D01*
X67586Y-48668D01*
X67587Y-48373D01*
X67474Y-48100D01*
X67329Y-47954D01*
X71830Y-47954D01*
X71686Y-48099D01*
X71573Y-48371D01*
X71572Y-48666D01*
X71685Y-48939D01*
X71894Y-49148D01*
X72166Y-49261D01*
X72461Y-49262D01*
X72734Y-49149D01*
X72943Y-48940D01*
X73056Y-48668D01*
X73057Y-48373D01*
X72944Y-48100D01*
X72799Y-47954D01*
X90050Y-47954D01*
X90050Y-54850D01*
G54D10*
G36*
X81050Y-72049D02*
X80750Y-72049D01*
X80750Y-71211D01*
X80655Y-70981D01*
X80479Y-70805D01*
X80249Y-70710D01*
X80001Y-70709D01*
X79771Y-70804D01*
X79595Y-70980D01*
X79500Y-71210D01*
X79499Y-71458D01*
X79594Y-71688D01*
X79770Y-71864D01*
X80000Y-71959D01*
X80248Y-71960D01*
X80478Y-71865D01*
X80654Y-71689D01*
X80749Y-71459D01*
X80750Y-71211D01*
X80750Y-72049D01*
X75795Y-72036D01*
X75795Y-67254D01*
X75722Y-67078D01*
X75587Y-66943D01*
X75410Y-66870D01*
X75219Y-66869D01*
X75043Y-66942D01*
X74908Y-67077D01*
X74835Y-67254D01*
X74834Y-67445D01*
X74907Y-67621D01*
X75042Y-67756D01*
X75219Y-67829D01*
X75410Y-67830D01*
X75586Y-67757D01*
X75721Y-67622D01*
X75794Y-67445D01*
X75795Y-67254D01*
X75795Y-72036D01*
X71414Y-72026D01*
X71415Y-71836D01*
X71301Y-71560D01*
X71090Y-71349D01*
X70814Y-71235D01*
X70516Y-71234D01*
X70240Y-71348D01*
X70029Y-71559D01*
X69915Y-71835D01*
X69914Y-72022D01*
X63975Y-72007D01*
X63975Y-69246D01*
X63842Y-68925D01*
X63596Y-68678D01*
X63274Y-68545D01*
X62926Y-68544D01*
X62605Y-68677D01*
X62358Y-68923D01*
X62225Y-69245D01*
X62224Y-69593D01*
X62357Y-69915D01*
X62603Y-70161D01*
X62925Y-70294D01*
X63273Y-70295D01*
X63595Y-70162D01*
X63841Y-69916D01*
X63974Y-69594D01*
X63975Y-69246D01*
X63975Y-72007D01*
X62388Y-72004D01*
X62467Y-71971D01*
X62650Y-71788D01*
X62749Y-71549D01*
X62750Y-71291D01*
X62651Y-71052D01*
X62468Y-70869D01*
X62229Y-70770D01*
X61971Y-70769D01*
X61732Y-70868D01*
X61599Y-71000D01*
X61468Y-70869D01*
X61229Y-70770D01*
X60971Y-70769D01*
X60732Y-70868D01*
X60599Y-71000D01*
X60468Y-70869D01*
X60229Y-70770D01*
X59971Y-70769D01*
X59732Y-70868D01*
X59599Y-71000D01*
X59468Y-70869D01*
X59229Y-70770D01*
X58971Y-70769D01*
X58732Y-70868D01*
X58599Y-71000D01*
X58468Y-70869D01*
X58229Y-70770D01*
X57971Y-70769D01*
X57732Y-70868D01*
X57599Y-71000D01*
X57468Y-70869D01*
X57229Y-70770D01*
X56971Y-70769D01*
X56732Y-70868D01*
X56549Y-71051D01*
X56480Y-71217D01*
X56480Y-69054D01*
X56407Y-68878D01*
X56272Y-68743D01*
X56095Y-68670D01*
X55904Y-68669D01*
X55728Y-68742D01*
X55593Y-68877D01*
X55520Y-69054D01*
X55519Y-69245D01*
X55592Y-69421D01*
X55727Y-69556D01*
X55904Y-69629D01*
X56095Y-69630D01*
X56271Y-69557D01*
X56406Y-69422D01*
X56479Y-69245D01*
X56480Y-69054D01*
X56480Y-71217D01*
X56450Y-71290D01*
X56449Y-71548D01*
X56548Y-71787D01*
X56731Y-71970D01*
X56778Y-71990D01*
X55430Y-71986D01*
X55467Y-71971D01*
X55650Y-71788D01*
X55749Y-71549D01*
X55750Y-71291D01*
X55651Y-71052D01*
X55468Y-70869D01*
X55229Y-70770D01*
X54971Y-70769D01*
X54732Y-70868D01*
X54599Y-71000D01*
X54468Y-70869D01*
X54229Y-70770D01*
X53971Y-70769D01*
X53732Y-70868D01*
X53599Y-71000D01*
X53468Y-70869D01*
X53229Y-70770D01*
X52971Y-70769D01*
X52732Y-70868D01*
X52599Y-71000D01*
X52468Y-70869D01*
X52229Y-70770D01*
X51971Y-70769D01*
X51732Y-70868D01*
X51599Y-71000D01*
X51468Y-70869D01*
X51229Y-70770D01*
X50971Y-70769D01*
X50732Y-70868D01*
X50599Y-71000D01*
X50468Y-70869D01*
X50229Y-70770D01*
X49971Y-70769D01*
X49732Y-70868D01*
X49599Y-71000D01*
X49468Y-70869D01*
X49229Y-70770D01*
X48971Y-70769D01*
X48732Y-70868D01*
X48599Y-71000D01*
X48468Y-70869D01*
X48229Y-70770D01*
X47971Y-70769D01*
X47732Y-70868D01*
X47549Y-71051D01*
X47450Y-71290D01*
X47449Y-71548D01*
X47548Y-71787D01*
X47728Y-71968D01*
X46015Y-71963D01*
X46015Y-65285D01*
X45700Y-64970D01*
X45629Y-65041D01*
X45629Y-64900D01*
X45314Y-64584D01*
X45218Y-64612D01*
X45145Y-64818D01*
X45156Y-65036D01*
X45218Y-65187D01*
X45314Y-65215D01*
X45629Y-64900D01*
X45629Y-65041D01*
X45384Y-65285D01*
X45412Y-65381D01*
X45618Y-65454D01*
X45836Y-65443D01*
X45987Y-65381D01*
X46015Y-65285D01*
X46015Y-71963D01*
X43300Y-71957D01*
X43341Y-71916D01*
X43474Y-71594D01*
X43475Y-71246D01*
X43342Y-70925D01*
X43096Y-70678D01*
X42774Y-70545D01*
X42426Y-70544D01*
X42105Y-70677D01*
X41858Y-70923D01*
X41725Y-71245D01*
X41724Y-71593D01*
X41857Y-71915D01*
X41896Y-71953D01*
X40450Y-71950D01*
X40544Y-63690D01*
X46417Y-63690D01*
X46353Y-63753D01*
X46247Y-63912D01*
X46210Y-64100D01*
X46210Y-64436D01*
X46188Y-64458D01*
X46150Y-64550D01*
X46149Y-64603D01*
X46085Y-64584D01*
X46015Y-64655D01*
X46015Y-64514D01*
X45987Y-64418D01*
X45781Y-64345D01*
X45563Y-64356D01*
X45412Y-64418D01*
X45384Y-64514D01*
X45700Y-64829D01*
X46015Y-64514D01*
X46015Y-64655D01*
X45770Y-64900D01*
X46085Y-65215D01*
X46149Y-65196D01*
X46149Y-65249D01*
X46187Y-65341D01*
X46258Y-65411D01*
X46350Y-65449D01*
X46449Y-65450D01*
X47049Y-65450D01*
X47141Y-65412D01*
X47211Y-65341D01*
X47230Y-65298D01*
X47230Y-65735D01*
X47258Y-65876D01*
X47338Y-65996D01*
X49628Y-68286D01*
X49748Y-68366D01*
X49890Y-68395D01*
X53368Y-68395D01*
X53398Y-68388D01*
X53513Y-68389D01*
X53669Y-68324D01*
X53789Y-68205D01*
X53853Y-68048D01*
X53854Y-67879D01*
X53789Y-67723D01*
X53670Y-67603D01*
X53513Y-67539D01*
X53344Y-67538D01*
X53188Y-67603D01*
X53136Y-67655D01*
X50043Y-67655D01*
X48438Y-66050D01*
X79783Y-66050D01*
X79771Y-66054D01*
X79595Y-66230D01*
X79500Y-66460D01*
X79499Y-66708D01*
X79594Y-66938D01*
X79761Y-67105D01*
X78651Y-67151D01*
X78618Y-68191D01*
X78456Y-68353D01*
X78300Y-68730D01*
X78299Y-69137D01*
X78455Y-69514D01*
X78573Y-69633D01*
X78548Y-70450D01*
X81050Y-70450D01*
X81050Y-72049D01*
X81050Y-72049D01*
G37*
G54D29*
X81050Y-72049D02*
X80750Y-72049D01*
X80750Y-71211D01*
X80655Y-70981D01*
X80479Y-70805D01*
X80249Y-70710D01*
X80001Y-70709D01*
X79771Y-70804D01*
X79595Y-70980D01*
X79500Y-71210D01*
X79499Y-71458D01*
X79594Y-71688D01*
X79770Y-71864D01*
X80000Y-71959D01*
X80248Y-71960D01*
X80478Y-71865D01*
X80654Y-71689D01*
X80749Y-71459D01*
X80750Y-71211D01*
X80750Y-72049D01*
X75795Y-72036D01*
X75795Y-67254D01*
X75722Y-67078D01*
X75587Y-66943D01*
X75410Y-66870D01*
X75219Y-66869D01*
X75043Y-66942D01*
X74908Y-67077D01*
X74835Y-67254D01*
X74834Y-67445D01*
X74907Y-67621D01*
X75042Y-67756D01*
X75219Y-67829D01*
X75410Y-67830D01*
X75586Y-67757D01*
X75721Y-67622D01*
X75794Y-67445D01*
X75795Y-67254D01*
X75795Y-72036D01*
X71414Y-72026D01*
X71415Y-71836D01*
X71301Y-71560D01*
X71090Y-71349D01*
X70814Y-71235D01*
X70516Y-71234D01*
X70240Y-71348D01*
X70029Y-71559D01*
X69915Y-71835D01*
X69914Y-72022D01*
X63975Y-72007D01*
X63975Y-69246D01*
X63842Y-68925D01*
X63596Y-68678D01*
X63274Y-68545D01*
X62926Y-68544D01*
X62605Y-68677D01*
X62358Y-68923D01*
X62225Y-69245D01*
X62224Y-69593D01*
X62357Y-69915D01*
X62603Y-70161D01*
X62925Y-70294D01*
X63273Y-70295D01*
X63595Y-70162D01*
X63841Y-69916D01*
X63974Y-69594D01*
X63975Y-69246D01*
X63975Y-72007D01*
X62388Y-72004D01*
X62467Y-71971D01*
X62650Y-71788D01*
X62749Y-71549D01*
X62750Y-71291D01*
X62651Y-71052D01*
X62468Y-70869D01*
X62229Y-70770D01*
X61971Y-70769D01*
X61732Y-70868D01*
X61599Y-71000D01*
X61468Y-70869D01*
X61229Y-70770D01*
X60971Y-70769D01*
X60732Y-70868D01*
X60599Y-71000D01*
X60468Y-70869D01*
X60229Y-70770D01*
X59971Y-70769D01*
X59732Y-70868D01*
X59599Y-71000D01*
X59468Y-70869D01*
X59229Y-70770D01*
X58971Y-70769D01*
X58732Y-70868D01*
X58599Y-71000D01*
X58468Y-70869D01*
X58229Y-70770D01*
X57971Y-70769D01*
X57732Y-70868D01*
X57599Y-71000D01*
X57468Y-70869D01*
X57229Y-70770D01*
X56971Y-70769D01*
X56732Y-70868D01*
X56549Y-71051D01*
X56480Y-71217D01*
X56480Y-69054D01*
X56407Y-68878D01*
X56272Y-68743D01*
X56095Y-68670D01*
X55904Y-68669D01*
X55728Y-68742D01*
X55593Y-68877D01*
X55520Y-69054D01*
X55519Y-69245D01*
X55592Y-69421D01*
X55727Y-69556D01*
X55904Y-69629D01*
X56095Y-69630D01*
X56271Y-69557D01*
X56406Y-69422D01*
X56479Y-69245D01*
X56480Y-69054D01*
X56480Y-71217D01*
X56450Y-71290D01*
X56449Y-71548D01*
X56548Y-71787D01*
X56731Y-71970D01*
X56778Y-71990D01*
X55430Y-71986D01*
X55467Y-71971D01*
X55650Y-71788D01*
X55749Y-71549D01*
X55750Y-71291D01*
X55651Y-71052D01*
X55468Y-70869D01*
X55229Y-70770D01*
X54971Y-70769D01*
X54732Y-70868D01*
X54599Y-71000D01*
X54468Y-70869D01*
X54229Y-70770D01*
X53971Y-70769D01*
X53732Y-70868D01*
X53599Y-71000D01*
X53468Y-70869D01*
X53229Y-70770D01*
X52971Y-70769D01*
X52732Y-70868D01*
X52599Y-71000D01*
X52468Y-70869D01*
X52229Y-70770D01*
X51971Y-70769D01*
X51732Y-70868D01*
X51599Y-71000D01*
X51468Y-70869D01*
X51229Y-70770D01*
X50971Y-70769D01*
X50732Y-70868D01*
X50599Y-71000D01*
X50468Y-70869D01*
X50229Y-70770D01*
X49971Y-70769D01*
X49732Y-70868D01*
X49599Y-71000D01*
X49468Y-70869D01*
X49229Y-70770D01*
X48971Y-70769D01*
X48732Y-70868D01*
X48599Y-71000D01*
X48468Y-70869D01*
X48229Y-70770D01*
X47971Y-70769D01*
X47732Y-70868D01*
X47549Y-71051D01*
X47450Y-71290D01*
X47449Y-71548D01*
X47548Y-71787D01*
X47728Y-71968D01*
X46015Y-71963D01*
X46015Y-65285D01*
X45700Y-64970D01*
X45629Y-65041D01*
X45629Y-64900D01*
X45314Y-64584D01*
X45218Y-64612D01*
X45145Y-64818D01*
X45156Y-65036D01*
X45218Y-65187D01*
X45314Y-65215D01*
X45629Y-64900D01*
X45629Y-65041D01*
X45384Y-65285D01*
X45412Y-65381D01*
X45618Y-65454D01*
X45836Y-65443D01*
X45987Y-65381D01*
X46015Y-65285D01*
X46015Y-71963D01*
X43300Y-71957D01*
X43341Y-71916D01*
X43474Y-71594D01*
X43475Y-71246D01*
X43342Y-70925D01*
X43096Y-70678D01*
X42774Y-70545D01*
X42426Y-70544D01*
X42105Y-70677D01*
X41858Y-70923D01*
X41725Y-71245D01*
X41724Y-71593D01*
X41857Y-71915D01*
X41896Y-71953D01*
X40450Y-71950D01*
X40544Y-63690D01*
X46417Y-63690D01*
X46353Y-63753D01*
X46247Y-63912D01*
X46210Y-64100D01*
X46210Y-64436D01*
X46188Y-64458D01*
X46150Y-64550D01*
X46149Y-64603D01*
X46085Y-64584D01*
X46015Y-64655D01*
X46015Y-64514D01*
X45987Y-64418D01*
X45781Y-64345D01*
X45563Y-64356D01*
X45412Y-64418D01*
X45384Y-64514D01*
X45700Y-64829D01*
X46015Y-64514D01*
X46015Y-64655D01*
X45770Y-64900D01*
X46085Y-65215D01*
X46149Y-65196D01*
X46149Y-65249D01*
X46187Y-65341D01*
X46258Y-65411D01*
X46350Y-65449D01*
X46449Y-65450D01*
X47049Y-65450D01*
X47141Y-65412D01*
X47211Y-65341D01*
X47230Y-65298D01*
X47230Y-65735D01*
X47258Y-65876D01*
X47338Y-65996D01*
X49628Y-68286D01*
X49748Y-68366D01*
X49890Y-68395D01*
X53368Y-68395D01*
X53398Y-68388D01*
X53513Y-68389D01*
X53669Y-68324D01*
X53789Y-68205D01*
X53853Y-68048D01*
X53854Y-67879D01*
X53789Y-67723D01*
X53670Y-67603D01*
X53513Y-67539D01*
X53344Y-67538D01*
X53188Y-67603D01*
X53136Y-67655D01*
X50043Y-67655D01*
X48438Y-66050D01*
X79783Y-66050D01*
X79771Y-66054D01*
X79595Y-66230D01*
X79500Y-66460D01*
X79499Y-66708D01*
X79594Y-66938D01*
X79761Y-67105D01*
X78651Y-67151D01*
X78618Y-68191D01*
X78456Y-68353D01*
X78300Y-68730D01*
X78299Y-69137D01*
X78455Y-69514D01*
X78573Y-69633D01*
X78548Y-70450D01*
X81050Y-70450D01*
X81050Y-72049D01*
G54D10*
G36*
X90050Y-61750D02*
X89499Y-61750D01*
X89560Y-61689D01*
X89658Y-61452D01*
X89658Y-61196D01*
X89658Y-59818D01*
X89658Y-58440D01*
X89658Y-57062D01*
X89561Y-56826D01*
X89380Y-56644D01*
X89143Y-56546D01*
X88887Y-56546D01*
X88650Y-56644D01*
X88469Y-56825D01*
X88371Y-57061D01*
X88371Y-57317D01*
X88468Y-57554D01*
X88649Y-57735D01*
X88886Y-57833D01*
X89142Y-57834D01*
X89379Y-57736D01*
X89560Y-57555D01*
X89658Y-57318D01*
X89658Y-57062D01*
X89658Y-58440D01*
X89561Y-58204D01*
X89380Y-58022D01*
X89143Y-57924D01*
X88887Y-57924D01*
X88650Y-58022D01*
X88469Y-58203D01*
X88371Y-58439D01*
X88371Y-58695D01*
X88468Y-58932D01*
X88649Y-59113D01*
X88886Y-59211D01*
X89142Y-59212D01*
X89379Y-59114D01*
X89560Y-58933D01*
X89658Y-58696D01*
X89658Y-58440D01*
X89658Y-59818D01*
X89561Y-59581D01*
X89380Y-59400D01*
X89143Y-59302D01*
X88887Y-59302D01*
X88650Y-59400D01*
X88469Y-59581D01*
X88371Y-59817D01*
X88371Y-60073D01*
X88468Y-60310D01*
X88649Y-60491D01*
X88886Y-60589D01*
X89142Y-60589D01*
X89379Y-60492D01*
X89560Y-60311D01*
X89658Y-60074D01*
X89658Y-59818D01*
X89658Y-61196D01*
X89561Y-60959D01*
X89380Y-60778D01*
X89143Y-60680D01*
X88887Y-60680D01*
X88650Y-60778D01*
X88469Y-60958D01*
X88371Y-61195D01*
X88371Y-61451D01*
X88468Y-61688D01*
X88530Y-61750D01*
X86754Y-61750D01*
X86654Y-62750D01*
X85960Y-62751D01*
X85960Y-55654D01*
X85887Y-55478D01*
X85752Y-55343D01*
X85660Y-55305D01*
X85660Y-54020D01*
X85660Y-53320D01*
X85622Y-53228D01*
X85551Y-53158D01*
X85459Y-53120D01*
X85360Y-53119D01*
X84660Y-53119D01*
X84568Y-53157D01*
X84498Y-53228D01*
X84474Y-53285D01*
X84400Y-53211D01*
X84179Y-53120D01*
X83941Y-53119D01*
X83720Y-53211D01*
X83559Y-53371D01*
X83400Y-53211D01*
X83179Y-53120D01*
X82941Y-53119D01*
X82720Y-53211D01*
X82551Y-53379D01*
X82460Y-53600D01*
X82459Y-53838D01*
X82551Y-54059D01*
X82719Y-54228D01*
X82940Y-54319D01*
X83178Y-54320D01*
X83399Y-54228D01*
X83560Y-54068D01*
X83719Y-54228D01*
X83940Y-54319D01*
X84178Y-54320D01*
X84399Y-54228D01*
X84474Y-54154D01*
X84497Y-54211D01*
X84568Y-54281D01*
X84660Y-54319D01*
X84759Y-54320D01*
X85459Y-54320D01*
X85551Y-54282D01*
X85621Y-54211D01*
X85659Y-54119D01*
X85660Y-54020D01*
X85660Y-55305D01*
X85575Y-55270D01*
X85384Y-55269D01*
X85208Y-55342D01*
X85073Y-55477D01*
X85000Y-55654D01*
X84999Y-55845D01*
X85072Y-56021D01*
X85207Y-56156D01*
X85384Y-56229D01*
X85575Y-56230D01*
X85751Y-56157D01*
X85886Y-56022D01*
X85959Y-55845D01*
X85960Y-55654D01*
X85960Y-62751D01*
X85876Y-62752D01*
X85876Y-60263D01*
X85822Y-60135D01*
X85724Y-60036D01*
X85595Y-59983D01*
X85560Y-59983D01*
X85560Y-56811D01*
X85446Y-56535D01*
X85235Y-56324D01*
X84959Y-56210D01*
X84661Y-56209D01*
X84385Y-56323D01*
X84174Y-56534D01*
X84060Y-56810D01*
X84059Y-57108D01*
X84173Y-57384D01*
X84384Y-57595D01*
X84660Y-57709D01*
X84958Y-57710D01*
X85234Y-57596D01*
X85445Y-57385D01*
X85559Y-57109D01*
X85560Y-56811D01*
X85560Y-59983D01*
X85456Y-59982D01*
X85328Y-60036D01*
X85229Y-60134D01*
X85176Y-60263D01*
X85175Y-60402D01*
X85229Y-60531D01*
X85327Y-60629D01*
X85456Y-60682D01*
X85595Y-60683D01*
X85724Y-60629D01*
X85822Y-60531D01*
X85875Y-60402D01*
X85876Y-60263D01*
X85876Y-62752D01*
X83133Y-62759D01*
X83133Y-55824D01*
X83125Y-55526D01*
X83026Y-55286D01*
X82910Y-55235D01*
X82839Y-55305D01*
X82839Y-55164D01*
X82788Y-55048D01*
X82509Y-54941D01*
X82211Y-54949D01*
X81971Y-55048D01*
X81920Y-55164D01*
X82380Y-55624D01*
X82839Y-55164D01*
X82839Y-55305D01*
X82450Y-55695D01*
X82910Y-56154D01*
X83026Y-56103D01*
X83133Y-55824D01*
X83133Y-62759D01*
X82933Y-62759D01*
X82839Y-62666D01*
X82839Y-56225D01*
X82380Y-55765D01*
X82309Y-55836D01*
X82309Y-55695D01*
X81849Y-55235D01*
X81733Y-55286D01*
X81626Y-55565D01*
X81634Y-55863D01*
X81733Y-56103D01*
X81849Y-56154D01*
X82309Y-55695D01*
X82309Y-55836D01*
X81920Y-56225D01*
X81971Y-56341D01*
X82250Y-56448D01*
X82548Y-56440D01*
X82788Y-56341D01*
X82839Y-56225D01*
X82839Y-62666D01*
X82802Y-62628D01*
X82625Y-62555D01*
X82434Y-62554D01*
X82258Y-62627D01*
X82124Y-62761D01*
X80855Y-62764D01*
X80855Y-53970D01*
X80855Y-53270D01*
X80817Y-53178D01*
X80746Y-53108D01*
X80654Y-53070D01*
X80555Y-53069D01*
X79855Y-53069D01*
X79763Y-53107D01*
X79693Y-53178D01*
X79669Y-53235D01*
X79595Y-53161D01*
X79374Y-53070D01*
X79136Y-53069D01*
X78915Y-53161D01*
X78754Y-53321D01*
X78595Y-53161D01*
X78374Y-53070D01*
X78136Y-53069D01*
X77915Y-53161D01*
X77746Y-53329D01*
X77655Y-53550D01*
X77654Y-53788D01*
X77746Y-54009D01*
X77914Y-54178D01*
X78135Y-54269D01*
X78373Y-54270D01*
X78594Y-54178D01*
X78755Y-54018D01*
X78914Y-54178D01*
X79135Y-54269D01*
X79373Y-54270D01*
X79594Y-54178D01*
X79669Y-54104D01*
X79692Y-54161D01*
X79763Y-54231D01*
X79855Y-54269D01*
X79954Y-54270D01*
X80654Y-54270D01*
X80746Y-54232D01*
X80816Y-54161D01*
X80854Y-54069D01*
X80855Y-53970D01*
X80855Y-62764D01*
X80112Y-62766D01*
X80112Y-57975D01*
X80028Y-57772D01*
X79873Y-57618D01*
X79792Y-57584D01*
X79873Y-57550D01*
X80027Y-57395D01*
X80111Y-57193D01*
X80112Y-56975D01*
X80028Y-56772D01*
X79873Y-56618D01*
X79792Y-56584D01*
X79873Y-56550D01*
X80027Y-56395D01*
X80111Y-56193D01*
X80112Y-55975D01*
X80028Y-55772D01*
X79873Y-55618D01*
X79671Y-55534D01*
X79453Y-55533D01*
X79250Y-55617D01*
X79112Y-55756D01*
X79112Y-55734D01*
X79074Y-55642D01*
X79003Y-55572D01*
X78911Y-55534D01*
X78812Y-55533D01*
X78212Y-55533D01*
X78120Y-55571D01*
X78050Y-55642D01*
X78012Y-55734D01*
X78011Y-55833D01*
X78011Y-56433D01*
X78049Y-56525D01*
X78120Y-56595D01*
X78212Y-56633D01*
X78234Y-56633D01*
X78096Y-56772D01*
X78012Y-56974D01*
X78011Y-57192D01*
X78095Y-57395D01*
X78250Y-57549D01*
X78331Y-57583D01*
X78250Y-57617D01*
X78096Y-57772D01*
X78012Y-57974D01*
X78011Y-58192D01*
X78095Y-58395D01*
X78250Y-58549D01*
X78452Y-58633D01*
X78670Y-58634D01*
X78873Y-58550D01*
X79027Y-58395D01*
X79061Y-58314D01*
X79095Y-58395D01*
X79250Y-58549D01*
X79452Y-58633D01*
X79670Y-58634D01*
X79873Y-58550D01*
X80027Y-58395D01*
X80111Y-58193D01*
X80112Y-57975D01*
X80112Y-62766D01*
X76531Y-62776D01*
X76531Y-57490D01*
X76477Y-57362D01*
X76379Y-57263D01*
X76250Y-57210D01*
X76111Y-57209D01*
X75983Y-57263D01*
X75884Y-57361D01*
X75831Y-57490D01*
X75830Y-57629D01*
X75884Y-57758D01*
X75982Y-57856D01*
X76111Y-57909D01*
X76250Y-57910D01*
X76379Y-57856D01*
X76477Y-57758D01*
X76530Y-57629D01*
X76531Y-57490D01*
X76531Y-62776D01*
X75284Y-62779D01*
X75284Y-57566D01*
X75230Y-57438D01*
X75132Y-57339D01*
X75003Y-57286D01*
X74995Y-57286D01*
X74996Y-57117D01*
X74923Y-56941D01*
X74788Y-56806D01*
X74611Y-56733D01*
X74420Y-56732D01*
X74244Y-56805D01*
X74109Y-56940D01*
X74036Y-57117D01*
X74035Y-57308D01*
X74108Y-57484D01*
X74243Y-57619D01*
X74420Y-57692D01*
X74583Y-57693D01*
X74583Y-57705D01*
X74637Y-57834D01*
X74735Y-57932D01*
X74864Y-57985D01*
X75003Y-57986D01*
X75132Y-57932D01*
X75230Y-57834D01*
X75283Y-57705D01*
X75284Y-57566D01*
X75284Y-62779D01*
X74389Y-62781D01*
X74389Y-59346D01*
X74335Y-59218D01*
X74237Y-59119D01*
X74108Y-59066D01*
X73969Y-59065D01*
X73841Y-59119D01*
X73742Y-59217D01*
X73689Y-59346D01*
X73688Y-59485D01*
X73742Y-59614D01*
X73840Y-59712D01*
X73969Y-59765D01*
X74108Y-59766D01*
X74237Y-59712D01*
X74335Y-59614D01*
X74388Y-59485D01*
X74389Y-59346D01*
X74389Y-62781D01*
X72618Y-62786D01*
X72618Y-56105D01*
X72564Y-55977D01*
X72466Y-55878D01*
X72388Y-55845D01*
X72466Y-55813D01*
X72564Y-55715D01*
X72617Y-55586D01*
X72618Y-55447D01*
X72564Y-55319D01*
X72466Y-55220D01*
X72337Y-55167D01*
X72198Y-55166D01*
X72070Y-55220D01*
X71971Y-55318D01*
X71918Y-55447D01*
X71917Y-55586D01*
X71971Y-55715D01*
X72069Y-55813D01*
X72147Y-55846D01*
X72070Y-55878D01*
X71971Y-55976D01*
X71918Y-56105D01*
X71917Y-56244D01*
X71971Y-56373D01*
X72069Y-56471D01*
X72198Y-56524D01*
X72337Y-56525D01*
X72466Y-56471D01*
X72564Y-56373D01*
X72617Y-56244D01*
X72618Y-56105D01*
X72618Y-62786D01*
X71900Y-62787D01*
X71900Y-59371D01*
X71799Y-59126D01*
X71799Y-55167D01*
X71745Y-55039D01*
X71647Y-54940D01*
X71518Y-54887D01*
X71379Y-54886D01*
X71251Y-54940D01*
X71152Y-55038D01*
X71099Y-55167D01*
X71098Y-55306D01*
X71152Y-55435D01*
X71250Y-55533D01*
X71379Y-55586D01*
X71518Y-55587D01*
X71647Y-55533D01*
X71745Y-55435D01*
X71798Y-55306D01*
X71799Y-55167D01*
X71799Y-59126D01*
X71786Y-59095D01*
X71575Y-58884D01*
X71436Y-58826D01*
X71436Y-57093D01*
X71363Y-56917D01*
X71228Y-56782D01*
X71051Y-56709D01*
X70860Y-56708D01*
X70684Y-56781D01*
X70549Y-56916D01*
X70476Y-57093D01*
X70475Y-57284D01*
X70519Y-57389D01*
X70478Y-57348D01*
X70349Y-57295D01*
X70210Y-57294D01*
X70082Y-57348D01*
X69983Y-57446D01*
X69930Y-57575D01*
X69929Y-57714D01*
X69983Y-57843D01*
X70081Y-57941D01*
X70210Y-57994D01*
X70349Y-57995D01*
X70478Y-57941D01*
X70576Y-57843D01*
X70629Y-57714D01*
X70630Y-57575D01*
X70606Y-57518D01*
X70683Y-57595D01*
X70860Y-57668D01*
X71051Y-57669D01*
X71227Y-57596D01*
X71362Y-57461D01*
X71435Y-57284D01*
X71436Y-57093D01*
X71436Y-58826D01*
X71299Y-58770D01*
X71001Y-58769D01*
X70725Y-58883D01*
X70514Y-59094D01*
X70400Y-59370D01*
X70399Y-59668D01*
X70513Y-59944D01*
X70724Y-60155D01*
X71000Y-60269D01*
X71298Y-60270D01*
X71574Y-60156D01*
X71785Y-59945D01*
X71899Y-59669D01*
X71900Y-59371D01*
X71900Y-62787D01*
X68500Y-62796D01*
X68500Y-57950D01*
X68446Y-57822D01*
X68348Y-57723D01*
X68219Y-57670D01*
X68080Y-57669D01*
X67960Y-57719D01*
X67960Y-57690D01*
X67940Y-57642D01*
X67940Y-56500D01*
X67886Y-56372D01*
X67788Y-56273D01*
X67659Y-56220D01*
X67577Y-56219D01*
X67658Y-56186D01*
X67756Y-56088D01*
X67809Y-55959D01*
X67810Y-55820D01*
X67756Y-55692D01*
X67658Y-55593D01*
X67529Y-55540D01*
X67390Y-55539D01*
X67262Y-55593D01*
X67163Y-55691D01*
X67110Y-55820D01*
X67109Y-55959D01*
X67163Y-56088D01*
X67261Y-56186D01*
X67390Y-56239D01*
X67472Y-56240D01*
X67392Y-56273D01*
X67293Y-56371D01*
X67240Y-56500D01*
X67239Y-56639D01*
X67293Y-56768D01*
X67391Y-56866D01*
X67520Y-56919D01*
X67659Y-56920D01*
X67788Y-56866D01*
X67886Y-56768D01*
X67939Y-56639D01*
X67940Y-56500D01*
X67940Y-57642D01*
X67906Y-57562D01*
X67808Y-57463D01*
X67679Y-57410D01*
X67540Y-57409D01*
X67412Y-57463D01*
X67313Y-57561D01*
X67260Y-57690D01*
X67259Y-57829D01*
X67312Y-57956D01*
X67187Y-58008D01*
X67089Y-58105D01*
X67003Y-58018D01*
X66874Y-57965D01*
X66735Y-57964D01*
X66607Y-58018D01*
X66605Y-58020D01*
X66605Y-55570D01*
X66551Y-55442D01*
X66453Y-55343D01*
X66324Y-55290D01*
X66185Y-55289D01*
X66057Y-55343D01*
X65989Y-55410D01*
X65898Y-55318D01*
X65769Y-55265D01*
X65630Y-55264D01*
X65502Y-55318D01*
X65403Y-55416D01*
X65350Y-55545D01*
X65349Y-55684D01*
X65403Y-55813D01*
X65501Y-55911D01*
X65630Y-55964D01*
X65769Y-55965D01*
X65898Y-55911D01*
X65965Y-55844D01*
X66056Y-55936D01*
X66185Y-55989D01*
X66324Y-55990D01*
X66453Y-55936D01*
X66551Y-55838D01*
X66604Y-55709D01*
X66605Y-55570D01*
X66605Y-58020D01*
X66508Y-58116D01*
X66455Y-58245D01*
X66454Y-58384D01*
X66508Y-58513D01*
X66606Y-58611D01*
X66735Y-58664D01*
X66874Y-58665D01*
X67003Y-58611D01*
X67100Y-58514D01*
X67186Y-58601D01*
X67315Y-58654D01*
X67454Y-58655D01*
X67583Y-58601D01*
X67681Y-58503D01*
X67734Y-58374D01*
X67735Y-58235D01*
X67682Y-58108D01*
X67799Y-58060D01*
X67799Y-58089D01*
X67853Y-58218D01*
X67951Y-58316D01*
X68080Y-58369D01*
X68219Y-58370D01*
X68348Y-58316D01*
X68446Y-58218D01*
X68499Y-58089D01*
X68500Y-57950D01*
X68500Y-62796D01*
X66150Y-62802D01*
X66150Y-58810D01*
X66150Y-58210D01*
X66112Y-58118D01*
X66041Y-58048D01*
X65949Y-58010D01*
X65850Y-58009D01*
X65560Y-58009D01*
X65560Y-56710D01*
X65506Y-56582D01*
X65408Y-56483D01*
X65279Y-56430D01*
X65140Y-56429D01*
X65012Y-56483D01*
X64913Y-56581D01*
X64860Y-56709D01*
X64860Y-55381D01*
X64746Y-55105D01*
X64535Y-54894D01*
X64259Y-54780D01*
X63961Y-54779D01*
X63685Y-54893D01*
X63474Y-55104D01*
X63360Y-55380D01*
X63359Y-55678D01*
X63473Y-55954D01*
X63684Y-56165D01*
X63960Y-56279D01*
X64258Y-56280D01*
X64534Y-56166D01*
X64745Y-55955D01*
X64859Y-55679D01*
X64860Y-55381D01*
X64860Y-56709D01*
X64860Y-56710D01*
X64859Y-56849D01*
X64913Y-56978D01*
X65011Y-57076D01*
X65140Y-57129D01*
X65279Y-57130D01*
X65408Y-57076D01*
X65506Y-56978D01*
X65559Y-56849D01*
X65560Y-56710D01*
X65560Y-58009D01*
X65250Y-58009D01*
X65158Y-58047D01*
X65088Y-58118D01*
X65050Y-58210D01*
X65050Y-58232D01*
X64911Y-58094D01*
X64709Y-58010D01*
X64491Y-58009D01*
X64288Y-58093D01*
X64134Y-58248D01*
X64050Y-58450D01*
X64049Y-58668D01*
X64133Y-58871D01*
X64288Y-59025D01*
X64490Y-59109D01*
X64708Y-59110D01*
X64911Y-59026D01*
X65049Y-58887D01*
X65049Y-58909D01*
X65087Y-59001D01*
X65158Y-59071D01*
X65250Y-59109D01*
X65349Y-59110D01*
X65949Y-59110D01*
X66041Y-59072D01*
X66111Y-59001D01*
X66149Y-58909D01*
X66150Y-58810D01*
X66150Y-62802D01*
X63975Y-62808D01*
X63975Y-58246D01*
X63842Y-57925D01*
X63596Y-57678D01*
X63274Y-57545D01*
X62940Y-57544D01*
X62940Y-56430D01*
X62886Y-56302D01*
X62788Y-56203D01*
X62659Y-56150D01*
X62520Y-56149D01*
X62392Y-56203D01*
X62293Y-56301D01*
X62240Y-56430D01*
X62239Y-56569D01*
X62293Y-56698D01*
X62391Y-56796D01*
X62520Y-56849D01*
X62659Y-56850D01*
X62788Y-56796D01*
X62886Y-56698D01*
X62939Y-56569D01*
X62940Y-56430D01*
X62940Y-57544D01*
X62926Y-57544D01*
X62605Y-57677D01*
X62550Y-57732D01*
X62550Y-57030D01*
X62496Y-56902D01*
X62398Y-56803D01*
X62269Y-56750D01*
X62130Y-56749D01*
X62002Y-56803D01*
X61903Y-56901D01*
X61866Y-56990D01*
X61780Y-56989D01*
X61652Y-57043D01*
X61553Y-57141D01*
X61500Y-57270D01*
X61499Y-57409D01*
X61553Y-57538D01*
X61651Y-57636D01*
X61780Y-57689D01*
X61919Y-57690D01*
X62048Y-57636D01*
X62146Y-57538D01*
X62183Y-57449D01*
X62269Y-57450D01*
X62398Y-57396D01*
X62496Y-57298D01*
X62549Y-57169D01*
X62550Y-57030D01*
X62550Y-57732D01*
X62358Y-57923D01*
X62225Y-58245D01*
X62224Y-58593D01*
X62357Y-58915D01*
X62603Y-59161D01*
X62925Y-59294D01*
X63273Y-59295D01*
X63595Y-59162D01*
X63841Y-58916D01*
X63974Y-58594D01*
X63975Y-58246D01*
X63975Y-62808D01*
X63480Y-62809D01*
X63480Y-59934D01*
X63407Y-59758D01*
X63272Y-59623D01*
X63095Y-59550D01*
X62904Y-59549D01*
X62728Y-59622D01*
X62593Y-59757D01*
X62520Y-59934D01*
X62519Y-60125D01*
X62592Y-60301D01*
X62727Y-60436D01*
X62904Y-60509D01*
X63095Y-60510D01*
X63271Y-60437D01*
X63406Y-60302D01*
X63479Y-60125D01*
X63480Y-59934D01*
X63480Y-62809D01*
X62900Y-62810D01*
X62900Y-62240D01*
X62846Y-62112D01*
X62748Y-62013D01*
X62619Y-61960D01*
X62480Y-61959D01*
X62352Y-62013D01*
X62253Y-62111D01*
X62200Y-62240D01*
X62199Y-62379D01*
X62253Y-62508D01*
X62351Y-62606D01*
X62480Y-62659D01*
X62619Y-62660D01*
X62748Y-62606D01*
X62846Y-62508D01*
X62899Y-62379D01*
X62900Y-62240D01*
X62900Y-62810D01*
X61010Y-62815D01*
X61010Y-59060D01*
X60956Y-58932D01*
X60858Y-58833D01*
X60736Y-58782D01*
X60848Y-58736D01*
X60946Y-58638D01*
X60999Y-58509D01*
X61000Y-58370D01*
X60946Y-58242D01*
X60870Y-58165D01*
X60870Y-56150D01*
X60816Y-56022D01*
X60718Y-55923D01*
X60589Y-55870D01*
X60450Y-55869D01*
X60322Y-55923D01*
X60223Y-56021D01*
X60179Y-56128D01*
X60159Y-56120D01*
X60020Y-56119D01*
X59892Y-56173D01*
X59793Y-56271D01*
X59740Y-56400D01*
X59739Y-56539D01*
X59793Y-56668D01*
X59891Y-56766D01*
X60020Y-56819D01*
X60159Y-56820D01*
X60288Y-56766D01*
X60386Y-56668D01*
X60430Y-56561D01*
X60450Y-56569D01*
X60589Y-56570D01*
X60718Y-56516D01*
X60816Y-56418D01*
X60869Y-56289D01*
X60870Y-56150D01*
X60870Y-58165D01*
X60848Y-58143D01*
X60719Y-58090D01*
X60580Y-58089D01*
X60452Y-58143D01*
X60353Y-58241D01*
X60300Y-58370D01*
X60299Y-58509D01*
X60353Y-58638D01*
X60451Y-58736D01*
X60573Y-58787D01*
X60462Y-58833D01*
X60363Y-58931D01*
X60320Y-59035D01*
X60288Y-59003D01*
X60159Y-58950D01*
X60020Y-58949D01*
X59892Y-59003D01*
X59793Y-59101D01*
X59740Y-59230D01*
X59739Y-59369D01*
X59793Y-59498D01*
X59891Y-59596D01*
X60020Y-59649D01*
X60159Y-59650D01*
X60288Y-59596D01*
X60386Y-59498D01*
X60429Y-59394D01*
X60461Y-59426D01*
X60590Y-59479D01*
X60729Y-59480D01*
X60858Y-59426D01*
X60956Y-59328D01*
X61009Y-59199D01*
X61010Y-59060D01*
X61010Y-62815D01*
X59500Y-62819D01*
X59500Y-56330D01*
X59446Y-56202D01*
X59348Y-56103D01*
X59219Y-56050D01*
X59080Y-56049D01*
X58952Y-56103D01*
X58853Y-56201D01*
X58800Y-56330D01*
X58799Y-56469D01*
X58853Y-56598D01*
X58951Y-56696D01*
X59080Y-56749D01*
X59219Y-56750D01*
X59348Y-56696D01*
X59446Y-56598D01*
X59499Y-56469D01*
X59500Y-56330D01*
X59500Y-62819D01*
X59480Y-62819D01*
X59480Y-59200D01*
X59426Y-59072D01*
X59328Y-58973D01*
X59199Y-58920D01*
X59060Y-58919D01*
X58932Y-58973D01*
X58833Y-59071D01*
X58780Y-59200D01*
X58779Y-59339D01*
X58833Y-59468D01*
X58931Y-59566D01*
X59060Y-59619D01*
X59199Y-59620D01*
X59328Y-59566D01*
X59426Y-59468D01*
X59479Y-59339D01*
X59480Y-59200D01*
X59480Y-62819D01*
X58510Y-62822D01*
X58510Y-55530D01*
X58456Y-55402D01*
X58358Y-55303D01*
X58229Y-55250D01*
X58090Y-55249D01*
X57962Y-55303D01*
X57863Y-55401D01*
X57810Y-55530D01*
X57809Y-55669D01*
X57863Y-55798D01*
X57961Y-55896D01*
X58090Y-55949D01*
X58229Y-55950D01*
X58358Y-55896D01*
X58456Y-55798D01*
X58509Y-55669D01*
X58510Y-55530D01*
X58510Y-62822D01*
X56500Y-62827D01*
X56500Y-56380D01*
X56446Y-56252D01*
X56348Y-56153D01*
X56219Y-56100D01*
X56080Y-56099D01*
X55952Y-56153D01*
X55853Y-56251D01*
X55800Y-56380D01*
X55799Y-56519D01*
X55853Y-56648D01*
X55951Y-56746D01*
X56080Y-56799D01*
X56219Y-56800D01*
X56348Y-56746D01*
X56446Y-56648D01*
X56499Y-56519D01*
X56500Y-56380D01*
X56500Y-62827D01*
X56460Y-62827D01*
X56460Y-60450D01*
X56406Y-60322D01*
X56308Y-60223D01*
X56179Y-60170D01*
X56040Y-60169D01*
X55912Y-60223D01*
X55813Y-60321D01*
X55760Y-60450D01*
X55759Y-60589D01*
X55813Y-60718D01*
X55911Y-60816D01*
X56040Y-60869D01*
X56179Y-60870D01*
X56308Y-60816D01*
X56406Y-60718D01*
X56459Y-60589D01*
X56460Y-60450D01*
X56460Y-62827D01*
X53270Y-62835D01*
X53270Y-59260D01*
X53216Y-59132D01*
X53118Y-59033D01*
X52989Y-58980D01*
X52850Y-58979D01*
X52722Y-59033D01*
X52623Y-59131D01*
X52570Y-59260D01*
X52569Y-59399D01*
X52623Y-59528D01*
X52721Y-59626D01*
X52850Y-59679D01*
X52989Y-59680D01*
X53118Y-59626D01*
X53216Y-59528D01*
X53269Y-59399D01*
X53270Y-59260D01*
X53270Y-62835D01*
X50554Y-62842D01*
X50554Y-61981D01*
X50543Y-61763D01*
X50481Y-61612D01*
X50385Y-61584D01*
X50315Y-61655D01*
X50315Y-61514D01*
X50287Y-61418D01*
X50081Y-61345D01*
X49863Y-61356D01*
X49712Y-61418D01*
X49684Y-61514D01*
X50000Y-61829D01*
X50315Y-61514D01*
X50315Y-61655D01*
X50070Y-61900D01*
X50385Y-62215D01*
X50481Y-62187D01*
X50554Y-61981D01*
X50554Y-62842D01*
X50315Y-62843D01*
X50315Y-62285D01*
X50000Y-61970D01*
X49684Y-62285D01*
X49712Y-62381D01*
X49918Y-62454D01*
X50136Y-62443D01*
X50287Y-62381D01*
X50315Y-62285D01*
X50315Y-62843D01*
X48645Y-62847D01*
X49042Y-62450D01*
X49349Y-62450D01*
X49441Y-62412D01*
X49511Y-62341D01*
X49549Y-62249D01*
X49550Y-62196D01*
X49614Y-62215D01*
X49929Y-61900D01*
X49614Y-61584D01*
X49550Y-61603D01*
X49550Y-61550D01*
X49512Y-61458D01*
X49441Y-61388D01*
X49349Y-61350D01*
X49250Y-61349D01*
X48650Y-61349D01*
X48558Y-61387D01*
X48488Y-61458D01*
X48450Y-61550D01*
X48449Y-61649D01*
X48449Y-61657D01*
X47913Y-62193D01*
X47809Y-62150D01*
X47650Y-62150D01*
X47650Y-54150D01*
X66223Y-54150D01*
X66219Y-54160D01*
X66218Y-54299D01*
X66272Y-54428D01*
X66370Y-54526D01*
X66499Y-54579D01*
X66638Y-54580D01*
X66767Y-54526D01*
X66865Y-54428D01*
X66918Y-54299D01*
X66919Y-54160D01*
X66914Y-54150D01*
X68834Y-54150D01*
X68807Y-54177D01*
X68754Y-54306D01*
X68753Y-54445D01*
X68807Y-54574D01*
X68832Y-54599D01*
X68738Y-54639D01*
X68639Y-54737D01*
X68586Y-54866D01*
X68585Y-54969D01*
X68540Y-54969D01*
X68412Y-55023D01*
X68313Y-55121D01*
X68260Y-55250D01*
X68259Y-55389D01*
X68313Y-55518D01*
X68411Y-55616D01*
X68540Y-55669D01*
X68679Y-55670D01*
X68808Y-55616D01*
X68906Y-55518D01*
X68959Y-55389D01*
X68960Y-55286D01*
X69005Y-55286D01*
X69134Y-55232D01*
X69232Y-55134D01*
X69285Y-55005D01*
X69286Y-54866D01*
X69232Y-54738D01*
X69207Y-54712D01*
X69302Y-54672D01*
X69400Y-54574D01*
X69453Y-54445D01*
X69454Y-54306D01*
X69400Y-54178D01*
X69372Y-54150D01*
X76250Y-54150D01*
X76250Y-52449D01*
X86850Y-52350D01*
X86850Y-55450D01*
X88468Y-55450D01*
X88371Y-55683D01*
X88371Y-55939D01*
X88468Y-56176D01*
X88649Y-56357D01*
X88886Y-56455D01*
X89142Y-56456D01*
X89379Y-56358D01*
X89560Y-56177D01*
X89658Y-55940D01*
X89658Y-55684D01*
X89561Y-55450D01*
X90050Y-55450D01*
X90050Y-61600D01*
X90050Y-61750D01*
X90050Y-61750D01*
G37*
G54D29*
X90050Y-61750D02*
X89499Y-61750D01*
X89560Y-61689D01*
X89658Y-61452D01*
X89658Y-61196D01*
X89658Y-59818D01*
X89658Y-58440D01*
X89658Y-57062D01*
X89561Y-56826D01*
X89380Y-56644D01*
X89143Y-56546D01*
X88887Y-56546D01*
X88650Y-56644D01*
X88469Y-56825D01*
X88371Y-57061D01*
X88371Y-57317D01*
X88468Y-57554D01*
X88649Y-57735D01*
X88886Y-57833D01*
X89142Y-57834D01*
X89379Y-57736D01*
X89560Y-57555D01*
X89658Y-57318D01*
X89658Y-57062D01*
X89658Y-58440D01*
X89561Y-58204D01*
X89380Y-58022D01*
X89143Y-57924D01*
X88887Y-57924D01*
X88650Y-58022D01*
X88469Y-58203D01*
X88371Y-58439D01*
X88371Y-58695D01*
X88468Y-58932D01*
X88649Y-59113D01*
X88886Y-59211D01*
X89142Y-59212D01*
X89379Y-59114D01*
X89560Y-58933D01*
X89658Y-58696D01*
X89658Y-58440D01*
X89658Y-59818D01*
X89561Y-59581D01*
X89380Y-59400D01*
X89143Y-59302D01*
X88887Y-59302D01*
X88650Y-59400D01*
X88469Y-59581D01*
X88371Y-59817D01*
X88371Y-60073D01*
X88468Y-60310D01*
X88649Y-60491D01*
X88886Y-60589D01*
X89142Y-60589D01*
X89379Y-60492D01*
X89560Y-60311D01*
X89658Y-60074D01*
X89658Y-59818D01*
X89658Y-61196D01*
X89561Y-60959D01*
X89380Y-60778D01*
X89143Y-60680D01*
X88887Y-60680D01*
X88650Y-60778D01*
X88469Y-60958D01*
X88371Y-61195D01*
X88371Y-61451D01*
X88468Y-61688D01*
X88530Y-61750D01*
X86754Y-61750D01*
X86654Y-62750D01*
X85960Y-62751D01*
X85960Y-55654D01*
X85887Y-55478D01*
X85752Y-55343D01*
X85660Y-55305D01*
X85660Y-54020D01*
X85660Y-53320D01*
X85622Y-53228D01*
X85551Y-53158D01*
X85459Y-53120D01*
X85360Y-53119D01*
X84660Y-53119D01*
X84568Y-53157D01*
X84498Y-53228D01*
X84474Y-53285D01*
X84400Y-53211D01*
X84179Y-53120D01*
X83941Y-53119D01*
X83720Y-53211D01*
X83559Y-53371D01*
X83400Y-53211D01*
X83179Y-53120D01*
X82941Y-53119D01*
X82720Y-53211D01*
X82551Y-53379D01*
X82460Y-53600D01*
X82459Y-53838D01*
X82551Y-54059D01*
X82719Y-54228D01*
X82940Y-54319D01*
X83178Y-54320D01*
X83399Y-54228D01*
X83560Y-54068D01*
X83719Y-54228D01*
X83940Y-54319D01*
X84178Y-54320D01*
X84399Y-54228D01*
X84474Y-54154D01*
X84497Y-54211D01*
X84568Y-54281D01*
X84660Y-54319D01*
X84759Y-54320D01*
X85459Y-54320D01*
X85551Y-54282D01*
X85621Y-54211D01*
X85659Y-54119D01*
X85660Y-54020D01*
X85660Y-55305D01*
X85575Y-55270D01*
X85384Y-55269D01*
X85208Y-55342D01*
X85073Y-55477D01*
X85000Y-55654D01*
X84999Y-55845D01*
X85072Y-56021D01*
X85207Y-56156D01*
X85384Y-56229D01*
X85575Y-56230D01*
X85751Y-56157D01*
X85886Y-56022D01*
X85959Y-55845D01*
X85960Y-55654D01*
X85960Y-62751D01*
X85876Y-62752D01*
X85876Y-60263D01*
X85822Y-60135D01*
X85724Y-60036D01*
X85595Y-59983D01*
X85560Y-59983D01*
X85560Y-56811D01*
X85446Y-56535D01*
X85235Y-56324D01*
X84959Y-56210D01*
X84661Y-56209D01*
X84385Y-56323D01*
X84174Y-56534D01*
X84060Y-56810D01*
X84059Y-57108D01*
X84173Y-57384D01*
X84384Y-57595D01*
X84660Y-57709D01*
X84958Y-57710D01*
X85234Y-57596D01*
X85445Y-57385D01*
X85559Y-57109D01*
X85560Y-56811D01*
X85560Y-59983D01*
X85456Y-59982D01*
X85328Y-60036D01*
X85229Y-60134D01*
X85176Y-60263D01*
X85175Y-60402D01*
X85229Y-60531D01*
X85327Y-60629D01*
X85456Y-60682D01*
X85595Y-60683D01*
X85724Y-60629D01*
X85822Y-60531D01*
X85875Y-60402D01*
X85876Y-60263D01*
X85876Y-62752D01*
X83133Y-62759D01*
X83133Y-55824D01*
X83125Y-55526D01*
X83026Y-55286D01*
X82910Y-55235D01*
X82839Y-55305D01*
X82839Y-55164D01*
X82788Y-55048D01*
X82509Y-54941D01*
X82211Y-54949D01*
X81971Y-55048D01*
X81920Y-55164D01*
X82380Y-55624D01*
X82839Y-55164D01*
X82839Y-55305D01*
X82450Y-55695D01*
X82910Y-56154D01*
X83026Y-56103D01*
X83133Y-55824D01*
X83133Y-62759D01*
X82933Y-62759D01*
X82839Y-62666D01*
X82839Y-56225D01*
X82380Y-55765D01*
X82309Y-55836D01*
X82309Y-55695D01*
X81849Y-55235D01*
X81733Y-55286D01*
X81626Y-55565D01*
X81634Y-55863D01*
X81733Y-56103D01*
X81849Y-56154D01*
X82309Y-55695D01*
X82309Y-55836D01*
X81920Y-56225D01*
X81971Y-56341D01*
X82250Y-56448D01*
X82548Y-56440D01*
X82788Y-56341D01*
X82839Y-56225D01*
X82839Y-62666D01*
X82802Y-62628D01*
X82625Y-62555D01*
X82434Y-62554D01*
X82258Y-62627D01*
X82124Y-62761D01*
X80855Y-62764D01*
X80855Y-53970D01*
X80855Y-53270D01*
X80817Y-53178D01*
X80746Y-53108D01*
X80654Y-53070D01*
X80555Y-53069D01*
X79855Y-53069D01*
X79763Y-53107D01*
X79693Y-53178D01*
X79669Y-53235D01*
X79595Y-53161D01*
X79374Y-53070D01*
X79136Y-53069D01*
X78915Y-53161D01*
X78754Y-53321D01*
X78595Y-53161D01*
X78374Y-53070D01*
X78136Y-53069D01*
X77915Y-53161D01*
X77746Y-53329D01*
X77655Y-53550D01*
X77654Y-53788D01*
X77746Y-54009D01*
X77914Y-54178D01*
X78135Y-54269D01*
X78373Y-54270D01*
X78594Y-54178D01*
X78755Y-54018D01*
X78914Y-54178D01*
X79135Y-54269D01*
X79373Y-54270D01*
X79594Y-54178D01*
X79669Y-54104D01*
X79692Y-54161D01*
X79763Y-54231D01*
X79855Y-54269D01*
X79954Y-54270D01*
X80654Y-54270D01*
X80746Y-54232D01*
X80816Y-54161D01*
X80854Y-54069D01*
X80855Y-53970D01*
X80855Y-62764D01*
X80112Y-62766D01*
X80112Y-57975D01*
X80028Y-57772D01*
X79873Y-57618D01*
X79792Y-57584D01*
X79873Y-57550D01*
X80027Y-57395D01*
X80111Y-57193D01*
X80112Y-56975D01*
X80028Y-56772D01*
X79873Y-56618D01*
X79792Y-56584D01*
X79873Y-56550D01*
X80027Y-56395D01*
X80111Y-56193D01*
X80112Y-55975D01*
X80028Y-55772D01*
X79873Y-55618D01*
X79671Y-55534D01*
X79453Y-55533D01*
X79250Y-55617D01*
X79112Y-55756D01*
X79112Y-55734D01*
X79074Y-55642D01*
X79003Y-55572D01*
X78911Y-55534D01*
X78812Y-55533D01*
X78212Y-55533D01*
X78120Y-55571D01*
X78050Y-55642D01*
X78012Y-55734D01*
X78011Y-55833D01*
X78011Y-56433D01*
X78049Y-56525D01*
X78120Y-56595D01*
X78212Y-56633D01*
X78234Y-56633D01*
X78096Y-56772D01*
X78012Y-56974D01*
X78011Y-57192D01*
X78095Y-57395D01*
X78250Y-57549D01*
X78331Y-57583D01*
X78250Y-57617D01*
X78096Y-57772D01*
X78012Y-57974D01*
X78011Y-58192D01*
X78095Y-58395D01*
X78250Y-58549D01*
X78452Y-58633D01*
X78670Y-58634D01*
X78873Y-58550D01*
X79027Y-58395D01*
X79061Y-58314D01*
X79095Y-58395D01*
X79250Y-58549D01*
X79452Y-58633D01*
X79670Y-58634D01*
X79873Y-58550D01*
X80027Y-58395D01*
X80111Y-58193D01*
X80112Y-57975D01*
X80112Y-62766D01*
X76531Y-62776D01*
X76531Y-57490D01*
X76477Y-57362D01*
X76379Y-57263D01*
X76250Y-57210D01*
X76111Y-57209D01*
X75983Y-57263D01*
X75884Y-57361D01*
X75831Y-57490D01*
X75830Y-57629D01*
X75884Y-57758D01*
X75982Y-57856D01*
X76111Y-57909D01*
X76250Y-57910D01*
X76379Y-57856D01*
X76477Y-57758D01*
X76530Y-57629D01*
X76531Y-57490D01*
X76531Y-62776D01*
X75284Y-62779D01*
X75284Y-57566D01*
X75230Y-57438D01*
X75132Y-57339D01*
X75003Y-57286D01*
X74995Y-57286D01*
X74996Y-57117D01*
X74923Y-56941D01*
X74788Y-56806D01*
X74611Y-56733D01*
X74420Y-56732D01*
X74244Y-56805D01*
X74109Y-56940D01*
X74036Y-57117D01*
X74035Y-57308D01*
X74108Y-57484D01*
X74243Y-57619D01*
X74420Y-57692D01*
X74583Y-57693D01*
X74583Y-57705D01*
X74637Y-57834D01*
X74735Y-57932D01*
X74864Y-57985D01*
X75003Y-57986D01*
X75132Y-57932D01*
X75230Y-57834D01*
X75283Y-57705D01*
X75284Y-57566D01*
X75284Y-62779D01*
X74389Y-62781D01*
X74389Y-59346D01*
X74335Y-59218D01*
X74237Y-59119D01*
X74108Y-59066D01*
X73969Y-59065D01*
X73841Y-59119D01*
X73742Y-59217D01*
X73689Y-59346D01*
X73688Y-59485D01*
X73742Y-59614D01*
X73840Y-59712D01*
X73969Y-59765D01*
X74108Y-59766D01*
X74237Y-59712D01*
X74335Y-59614D01*
X74388Y-59485D01*
X74389Y-59346D01*
X74389Y-62781D01*
X72618Y-62786D01*
X72618Y-56105D01*
X72564Y-55977D01*
X72466Y-55878D01*
X72388Y-55845D01*
X72466Y-55813D01*
X72564Y-55715D01*
X72617Y-55586D01*
X72618Y-55447D01*
X72564Y-55319D01*
X72466Y-55220D01*
X72337Y-55167D01*
X72198Y-55166D01*
X72070Y-55220D01*
X71971Y-55318D01*
X71918Y-55447D01*
X71917Y-55586D01*
X71971Y-55715D01*
X72069Y-55813D01*
X72147Y-55846D01*
X72070Y-55878D01*
X71971Y-55976D01*
X71918Y-56105D01*
X71917Y-56244D01*
X71971Y-56373D01*
X72069Y-56471D01*
X72198Y-56524D01*
X72337Y-56525D01*
X72466Y-56471D01*
X72564Y-56373D01*
X72617Y-56244D01*
X72618Y-56105D01*
X72618Y-62786D01*
X71900Y-62787D01*
X71900Y-59371D01*
X71799Y-59126D01*
X71799Y-55167D01*
X71745Y-55039D01*
X71647Y-54940D01*
X71518Y-54887D01*
X71379Y-54886D01*
X71251Y-54940D01*
X71152Y-55038D01*
X71099Y-55167D01*
X71098Y-55306D01*
X71152Y-55435D01*
X71250Y-55533D01*
X71379Y-55586D01*
X71518Y-55587D01*
X71647Y-55533D01*
X71745Y-55435D01*
X71798Y-55306D01*
X71799Y-55167D01*
X71799Y-59126D01*
X71786Y-59095D01*
X71575Y-58884D01*
X71436Y-58826D01*
X71436Y-57093D01*
X71363Y-56917D01*
X71228Y-56782D01*
X71051Y-56709D01*
X70860Y-56708D01*
X70684Y-56781D01*
X70549Y-56916D01*
X70476Y-57093D01*
X70475Y-57284D01*
X70519Y-57389D01*
X70478Y-57348D01*
X70349Y-57295D01*
X70210Y-57294D01*
X70082Y-57348D01*
X69983Y-57446D01*
X69930Y-57575D01*
X69929Y-57714D01*
X69983Y-57843D01*
X70081Y-57941D01*
X70210Y-57994D01*
X70349Y-57995D01*
X70478Y-57941D01*
X70576Y-57843D01*
X70629Y-57714D01*
X70630Y-57575D01*
X70606Y-57518D01*
X70683Y-57595D01*
X70860Y-57668D01*
X71051Y-57669D01*
X71227Y-57596D01*
X71362Y-57461D01*
X71435Y-57284D01*
X71436Y-57093D01*
X71436Y-58826D01*
X71299Y-58770D01*
X71001Y-58769D01*
X70725Y-58883D01*
X70514Y-59094D01*
X70400Y-59370D01*
X70399Y-59668D01*
X70513Y-59944D01*
X70724Y-60155D01*
X71000Y-60269D01*
X71298Y-60270D01*
X71574Y-60156D01*
X71785Y-59945D01*
X71899Y-59669D01*
X71900Y-59371D01*
X71900Y-62787D01*
X68500Y-62796D01*
X68500Y-57950D01*
X68446Y-57822D01*
X68348Y-57723D01*
X68219Y-57670D01*
X68080Y-57669D01*
X67960Y-57719D01*
X67960Y-57690D01*
X67940Y-57642D01*
X67940Y-56500D01*
X67886Y-56372D01*
X67788Y-56273D01*
X67659Y-56220D01*
X67577Y-56219D01*
X67658Y-56186D01*
X67756Y-56088D01*
X67809Y-55959D01*
X67810Y-55820D01*
X67756Y-55692D01*
X67658Y-55593D01*
X67529Y-55540D01*
X67390Y-55539D01*
X67262Y-55593D01*
X67163Y-55691D01*
X67110Y-55820D01*
X67109Y-55959D01*
X67163Y-56088D01*
X67261Y-56186D01*
X67390Y-56239D01*
X67472Y-56240D01*
X67392Y-56273D01*
X67293Y-56371D01*
X67240Y-56500D01*
X67239Y-56639D01*
X67293Y-56768D01*
X67391Y-56866D01*
X67520Y-56919D01*
X67659Y-56920D01*
X67788Y-56866D01*
X67886Y-56768D01*
X67939Y-56639D01*
X67940Y-56500D01*
X67940Y-57642D01*
X67906Y-57562D01*
X67808Y-57463D01*
X67679Y-57410D01*
X67540Y-57409D01*
X67412Y-57463D01*
X67313Y-57561D01*
X67260Y-57690D01*
X67259Y-57829D01*
X67312Y-57956D01*
X67187Y-58008D01*
X67089Y-58105D01*
X67003Y-58018D01*
X66874Y-57965D01*
X66735Y-57964D01*
X66607Y-58018D01*
X66605Y-58020D01*
X66605Y-55570D01*
X66551Y-55442D01*
X66453Y-55343D01*
X66324Y-55290D01*
X66185Y-55289D01*
X66057Y-55343D01*
X65989Y-55410D01*
X65898Y-55318D01*
X65769Y-55265D01*
X65630Y-55264D01*
X65502Y-55318D01*
X65403Y-55416D01*
X65350Y-55545D01*
X65349Y-55684D01*
X65403Y-55813D01*
X65501Y-55911D01*
X65630Y-55964D01*
X65769Y-55965D01*
X65898Y-55911D01*
X65965Y-55844D01*
X66056Y-55936D01*
X66185Y-55989D01*
X66324Y-55990D01*
X66453Y-55936D01*
X66551Y-55838D01*
X66604Y-55709D01*
X66605Y-55570D01*
X66605Y-58020D01*
X66508Y-58116D01*
X66455Y-58245D01*
X66454Y-58384D01*
X66508Y-58513D01*
X66606Y-58611D01*
X66735Y-58664D01*
X66874Y-58665D01*
X67003Y-58611D01*
X67100Y-58514D01*
X67186Y-58601D01*
X67315Y-58654D01*
X67454Y-58655D01*
X67583Y-58601D01*
X67681Y-58503D01*
X67734Y-58374D01*
X67735Y-58235D01*
X67682Y-58108D01*
X67799Y-58060D01*
X67799Y-58089D01*
X67853Y-58218D01*
X67951Y-58316D01*
X68080Y-58369D01*
X68219Y-58370D01*
X68348Y-58316D01*
X68446Y-58218D01*
X68499Y-58089D01*
X68500Y-57950D01*
X68500Y-62796D01*
X66150Y-62802D01*
X66150Y-58810D01*
X66150Y-58210D01*
X66112Y-58118D01*
X66041Y-58048D01*
X65949Y-58010D01*
X65850Y-58009D01*
X65560Y-58009D01*
X65560Y-56710D01*
X65506Y-56582D01*
X65408Y-56483D01*
X65279Y-56430D01*
X65140Y-56429D01*
X65012Y-56483D01*
X64913Y-56581D01*
X64860Y-56709D01*
X64860Y-55381D01*
X64746Y-55105D01*
X64535Y-54894D01*
X64259Y-54780D01*
X63961Y-54779D01*
X63685Y-54893D01*
X63474Y-55104D01*
X63360Y-55380D01*
X63359Y-55678D01*
X63473Y-55954D01*
X63684Y-56165D01*
X63960Y-56279D01*
X64258Y-56280D01*
X64534Y-56166D01*
X64745Y-55955D01*
X64859Y-55679D01*
X64860Y-55381D01*
X64860Y-56709D01*
X64860Y-56710D01*
X64859Y-56849D01*
X64913Y-56978D01*
X65011Y-57076D01*
X65140Y-57129D01*
X65279Y-57130D01*
X65408Y-57076D01*
X65506Y-56978D01*
X65559Y-56849D01*
X65560Y-56710D01*
X65560Y-58009D01*
X65250Y-58009D01*
X65158Y-58047D01*
X65088Y-58118D01*
X65050Y-58210D01*
X65050Y-58232D01*
X64911Y-58094D01*
X64709Y-58010D01*
X64491Y-58009D01*
X64288Y-58093D01*
X64134Y-58248D01*
X64050Y-58450D01*
X64049Y-58668D01*
X64133Y-58871D01*
X64288Y-59025D01*
X64490Y-59109D01*
X64708Y-59110D01*
X64911Y-59026D01*
X65049Y-58887D01*
X65049Y-58909D01*
X65087Y-59001D01*
X65158Y-59071D01*
X65250Y-59109D01*
X65349Y-59110D01*
X65949Y-59110D01*
X66041Y-59072D01*
X66111Y-59001D01*
X66149Y-58909D01*
X66150Y-58810D01*
X66150Y-62802D01*
X63975Y-62808D01*
X63975Y-58246D01*
X63842Y-57925D01*
X63596Y-57678D01*
X63274Y-57545D01*
X62940Y-57544D01*
X62940Y-56430D01*
X62886Y-56302D01*
X62788Y-56203D01*
X62659Y-56150D01*
X62520Y-56149D01*
X62392Y-56203D01*
X62293Y-56301D01*
X62240Y-56430D01*
X62239Y-56569D01*
X62293Y-56698D01*
X62391Y-56796D01*
X62520Y-56849D01*
X62659Y-56850D01*
X62788Y-56796D01*
X62886Y-56698D01*
X62939Y-56569D01*
X62940Y-56430D01*
X62940Y-57544D01*
X62926Y-57544D01*
X62605Y-57677D01*
X62550Y-57732D01*
X62550Y-57030D01*
X62496Y-56902D01*
X62398Y-56803D01*
X62269Y-56750D01*
X62130Y-56749D01*
X62002Y-56803D01*
X61903Y-56901D01*
X61866Y-56990D01*
X61780Y-56989D01*
X61652Y-57043D01*
X61553Y-57141D01*
X61500Y-57270D01*
X61499Y-57409D01*
X61553Y-57538D01*
X61651Y-57636D01*
X61780Y-57689D01*
X61919Y-57690D01*
X62048Y-57636D01*
X62146Y-57538D01*
X62183Y-57449D01*
X62269Y-57450D01*
X62398Y-57396D01*
X62496Y-57298D01*
X62549Y-57169D01*
X62550Y-57030D01*
X62550Y-57732D01*
X62358Y-57923D01*
X62225Y-58245D01*
X62224Y-58593D01*
X62357Y-58915D01*
X62603Y-59161D01*
X62925Y-59294D01*
X63273Y-59295D01*
X63595Y-59162D01*
X63841Y-58916D01*
X63974Y-58594D01*
X63975Y-58246D01*
X63975Y-62808D01*
X63480Y-62809D01*
X63480Y-59934D01*
X63407Y-59758D01*
X63272Y-59623D01*
X63095Y-59550D01*
X62904Y-59549D01*
X62728Y-59622D01*
X62593Y-59757D01*
X62520Y-59934D01*
X62519Y-60125D01*
X62592Y-60301D01*
X62727Y-60436D01*
X62904Y-60509D01*
X63095Y-60510D01*
X63271Y-60437D01*
X63406Y-60302D01*
X63479Y-60125D01*
X63480Y-59934D01*
X63480Y-62809D01*
X62900Y-62810D01*
X62900Y-62240D01*
X62846Y-62112D01*
X62748Y-62013D01*
X62619Y-61960D01*
X62480Y-61959D01*
X62352Y-62013D01*
X62253Y-62111D01*
X62200Y-62240D01*
X62199Y-62379D01*
X62253Y-62508D01*
X62351Y-62606D01*
X62480Y-62659D01*
X62619Y-62660D01*
X62748Y-62606D01*
X62846Y-62508D01*
X62899Y-62379D01*
X62900Y-62240D01*
X62900Y-62810D01*
X61010Y-62815D01*
X61010Y-59060D01*
X60956Y-58932D01*
X60858Y-58833D01*
X60736Y-58782D01*
X60848Y-58736D01*
X60946Y-58638D01*
X60999Y-58509D01*
X61000Y-58370D01*
X60946Y-58242D01*
X60870Y-58165D01*
X60870Y-56150D01*
X60816Y-56022D01*
X60718Y-55923D01*
X60589Y-55870D01*
X60450Y-55869D01*
X60322Y-55923D01*
X60223Y-56021D01*
X60179Y-56128D01*
X60159Y-56120D01*
X60020Y-56119D01*
X59892Y-56173D01*
X59793Y-56271D01*
X59740Y-56400D01*
X59739Y-56539D01*
X59793Y-56668D01*
X59891Y-56766D01*
X60020Y-56819D01*
X60159Y-56820D01*
X60288Y-56766D01*
X60386Y-56668D01*
X60430Y-56561D01*
X60450Y-56569D01*
X60589Y-56570D01*
X60718Y-56516D01*
X60816Y-56418D01*
X60869Y-56289D01*
X60870Y-56150D01*
X60870Y-58165D01*
X60848Y-58143D01*
X60719Y-58090D01*
X60580Y-58089D01*
X60452Y-58143D01*
X60353Y-58241D01*
X60300Y-58370D01*
X60299Y-58509D01*
X60353Y-58638D01*
X60451Y-58736D01*
X60573Y-58787D01*
X60462Y-58833D01*
X60363Y-58931D01*
X60320Y-59035D01*
X60288Y-59003D01*
X60159Y-58950D01*
X60020Y-58949D01*
X59892Y-59003D01*
X59793Y-59101D01*
X59740Y-59230D01*
X59739Y-59369D01*
X59793Y-59498D01*
X59891Y-59596D01*
X60020Y-59649D01*
X60159Y-59650D01*
X60288Y-59596D01*
X60386Y-59498D01*
X60429Y-59394D01*
X60461Y-59426D01*
X60590Y-59479D01*
X60729Y-59480D01*
X60858Y-59426D01*
X60956Y-59328D01*
X61009Y-59199D01*
X61010Y-59060D01*
X61010Y-62815D01*
X59500Y-62819D01*
X59500Y-56330D01*
X59446Y-56202D01*
X59348Y-56103D01*
X59219Y-56050D01*
X59080Y-56049D01*
X58952Y-56103D01*
X58853Y-56201D01*
X58800Y-56330D01*
X58799Y-56469D01*
X58853Y-56598D01*
X58951Y-56696D01*
X59080Y-56749D01*
X59219Y-56750D01*
X59348Y-56696D01*
X59446Y-56598D01*
X59499Y-56469D01*
X59500Y-56330D01*
X59500Y-62819D01*
X59480Y-62819D01*
X59480Y-59200D01*
X59426Y-59072D01*
X59328Y-58973D01*
X59199Y-58920D01*
X59060Y-58919D01*
X58932Y-58973D01*
X58833Y-59071D01*
X58780Y-59200D01*
X58779Y-59339D01*
X58833Y-59468D01*
X58931Y-59566D01*
X59060Y-59619D01*
X59199Y-59620D01*
X59328Y-59566D01*
X59426Y-59468D01*
X59479Y-59339D01*
X59480Y-59200D01*
X59480Y-62819D01*
X58510Y-62822D01*
X58510Y-55530D01*
X58456Y-55402D01*
X58358Y-55303D01*
X58229Y-55250D01*
X58090Y-55249D01*
X57962Y-55303D01*
X57863Y-55401D01*
X57810Y-55530D01*
X57809Y-55669D01*
X57863Y-55798D01*
X57961Y-55896D01*
X58090Y-55949D01*
X58229Y-55950D01*
X58358Y-55896D01*
X58456Y-55798D01*
X58509Y-55669D01*
X58510Y-55530D01*
X58510Y-62822D01*
X56500Y-62827D01*
X56500Y-56380D01*
X56446Y-56252D01*
X56348Y-56153D01*
X56219Y-56100D01*
X56080Y-56099D01*
X55952Y-56153D01*
X55853Y-56251D01*
X55800Y-56380D01*
X55799Y-56519D01*
X55853Y-56648D01*
X55951Y-56746D01*
X56080Y-56799D01*
X56219Y-56800D01*
X56348Y-56746D01*
X56446Y-56648D01*
X56499Y-56519D01*
X56500Y-56380D01*
X56500Y-62827D01*
X56460Y-62827D01*
X56460Y-60450D01*
X56406Y-60322D01*
X56308Y-60223D01*
X56179Y-60170D01*
X56040Y-60169D01*
X55912Y-60223D01*
X55813Y-60321D01*
X55760Y-60450D01*
X55759Y-60589D01*
X55813Y-60718D01*
X55911Y-60816D01*
X56040Y-60869D01*
X56179Y-60870D01*
X56308Y-60816D01*
X56406Y-60718D01*
X56459Y-60589D01*
X56460Y-60450D01*
X56460Y-62827D01*
X53270Y-62835D01*
X53270Y-59260D01*
X53216Y-59132D01*
X53118Y-59033D01*
X52989Y-58980D01*
X52850Y-58979D01*
X52722Y-59033D01*
X52623Y-59131D01*
X52570Y-59260D01*
X52569Y-59399D01*
X52623Y-59528D01*
X52721Y-59626D01*
X52850Y-59679D01*
X52989Y-59680D01*
X53118Y-59626D01*
X53216Y-59528D01*
X53269Y-59399D01*
X53270Y-59260D01*
X53270Y-62835D01*
X50554Y-62842D01*
X50554Y-61981D01*
X50543Y-61763D01*
X50481Y-61612D01*
X50385Y-61584D01*
X50315Y-61655D01*
X50315Y-61514D01*
X50287Y-61418D01*
X50081Y-61345D01*
X49863Y-61356D01*
X49712Y-61418D01*
X49684Y-61514D01*
X50000Y-61829D01*
X50315Y-61514D01*
X50315Y-61655D01*
X50070Y-61900D01*
X50385Y-62215D01*
X50481Y-62187D01*
X50554Y-61981D01*
X50554Y-62842D01*
X50315Y-62843D01*
X50315Y-62285D01*
X50000Y-61970D01*
X49684Y-62285D01*
X49712Y-62381D01*
X49918Y-62454D01*
X50136Y-62443D01*
X50287Y-62381D01*
X50315Y-62285D01*
X50315Y-62843D01*
X48645Y-62847D01*
X49042Y-62450D01*
X49349Y-62450D01*
X49441Y-62412D01*
X49511Y-62341D01*
X49549Y-62249D01*
X49550Y-62196D01*
X49614Y-62215D01*
X49929Y-61900D01*
X49614Y-61584D01*
X49550Y-61603D01*
X49550Y-61550D01*
X49512Y-61458D01*
X49441Y-61388D01*
X49349Y-61350D01*
X49250Y-61349D01*
X48650Y-61349D01*
X48558Y-61387D01*
X48488Y-61458D01*
X48450Y-61550D01*
X48449Y-61649D01*
X48449Y-61657D01*
X47913Y-62193D01*
X47809Y-62150D01*
X47650Y-62150D01*
X47650Y-54150D01*
X66223Y-54150D01*
X66219Y-54160D01*
X66218Y-54299D01*
X66272Y-54428D01*
X66370Y-54526D01*
X66499Y-54579D01*
X66638Y-54580D01*
X66767Y-54526D01*
X66865Y-54428D01*
X66918Y-54299D01*
X66919Y-54160D01*
X66914Y-54150D01*
X68834Y-54150D01*
X68807Y-54177D01*
X68754Y-54306D01*
X68753Y-54445D01*
X68807Y-54574D01*
X68832Y-54599D01*
X68738Y-54639D01*
X68639Y-54737D01*
X68586Y-54866D01*
X68585Y-54969D01*
X68540Y-54969D01*
X68412Y-55023D01*
X68313Y-55121D01*
X68260Y-55250D01*
X68259Y-55389D01*
X68313Y-55518D01*
X68411Y-55616D01*
X68540Y-55669D01*
X68679Y-55670D01*
X68808Y-55616D01*
X68906Y-55518D01*
X68959Y-55389D01*
X68960Y-55286D01*
X69005Y-55286D01*
X69134Y-55232D01*
X69232Y-55134D01*
X69285Y-55005D01*
X69286Y-54866D01*
X69232Y-54738D01*
X69207Y-54712D01*
X69302Y-54672D01*
X69400Y-54574D01*
X69453Y-54445D01*
X69454Y-54306D01*
X69400Y-54178D01*
X69372Y-54150D01*
X76250Y-54150D01*
X76250Y-52449D01*
X86850Y-52350D01*
X86850Y-55450D01*
X88468Y-55450D01*
X88371Y-55683D01*
X88371Y-55939D01*
X88468Y-56176D01*
X88649Y-56357D01*
X88886Y-56455D01*
X89142Y-56456D01*
X89379Y-56358D01*
X89560Y-56177D01*
X89658Y-55940D01*
X89658Y-55684D01*
X89561Y-55450D01*
X90050Y-55450D01*
X90050Y-61600D01*
X90050Y-61750D01*
G54D10*
G36*
X39949Y-72349D02*
X36980Y-72327D01*
X36980Y-54904D01*
X36907Y-54728D01*
X36772Y-54593D01*
X36595Y-54520D01*
X36404Y-54519D01*
X36228Y-54592D01*
X36093Y-54727D01*
X36020Y-54904D01*
X36019Y-55095D01*
X36092Y-55271D01*
X36227Y-55406D01*
X36404Y-55479D01*
X36595Y-55480D01*
X36771Y-55407D01*
X36906Y-55272D01*
X36979Y-55095D01*
X36980Y-54904D01*
X36980Y-72327D01*
X36080Y-72320D01*
X36080Y-70504D01*
X36007Y-70328D01*
X35872Y-70193D01*
X35695Y-70120D01*
X35504Y-70119D01*
X35328Y-70192D01*
X35193Y-70327D01*
X35120Y-70504D01*
X35119Y-70695D01*
X35192Y-70871D01*
X35327Y-71006D01*
X35504Y-71079D01*
X35695Y-71080D01*
X35871Y-71007D01*
X36006Y-70872D01*
X36079Y-70695D01*
X36080Y-70504D01*
X36080Y-72320D01*
X35080Y-72313D01*
X35080Y-56604D01*
X35007Y-56428D01*
X34872Y-56293D01*
X34695Y-56220D01*
X34504Y-56219D01*
X34328Y-56292D01*
X34193Y-56427D01*
X34120Y-56604D01*
X34119Y-56795D01*
X34192Y-56971D01*
X34327Y-57106D01*
X34504Y-57179D01*
X34695Y-57180D01*
X34871Y-57107D01*
X35006Y-56972D01*
X35079Y-56795D01*
X35080Y-56604D01*
X35080Y-72313D01*
X34880Y-72311D01*
X34880Y-68904D01*
X34807Y-68728D01*
X34672Y-68593D01*
X34495Y-68520D01*
X34304Y-68519D01*
X34128Y-68592D01*
X33993Y-68727D01*
X33920Y-68904D01*
X33919Y-69095D01*
X33992Y-69271D01*
X34127Y-69406D01*
X34304Y-69479D01*
X34495Y-69480D01*
X34671Y-69407D01*
X34806Y-69272D01*
X34879Y-69095D01*
X34880Y-68904D01*
X34880Y-72311D01*
X33486Y-72301D01*
X33486Y-69122D01*
X33358Y-68813D01*
X33122Y-68576D01*
X32845Y-68462D01*
X33120Y-68348D01*
X33357Y-68112D01*
X33485Y-67803D01*
X33486Y-67468D01*
X33358Y-67159D01*
X33122Y-66923D01*
X32845Y-66808D01*
X33120Y-66694D01*
X33357Y-66458D01*
X33485Y-66149D01*
X33486Y-65815D01*
X33358Y-65506D01*
X33122Y-65269D01*
X32845Y-65154D01*
X33120Y-65041D01*
X33357Y-64805D01*
X33485Y-64496D01*
X33486Y-64161D01*
X33358Y-63852D01*
X33122Y-63616D01*
X32845Y-63501D01*
X33120Y-63387D01*
X33357Y-63151D01*
X33485Y-62842D01*
X33486Y-62508D01*
X33358Y-62199D01*
X33122Y-61962D01*
X32845Y-61847D01*
X33120Y-61734D01*
X33357Y-61498D01*
X33485Y-61189D01*
X33486Y-60854D01*
X33358Y-60545D01*
X33122Y-60309D01*
X32845Y-60194D01*
X33120Y-60080D01*
X33357Y-59844D01*
X33485Y-59535D01*
X33486Y-59201D01*
X33358Y-58892D01*
X33122Y-58655D01*
X32845Y-58540D01*
X33120Y-58427D01*
X33357Y-58190D01*
X33485Y-57882D01*
X33486Y-57547D01*
X33358Y-57238D01*
X33122Y-57002D01*
X32845Y-56887D01*
X33120Y-56773D01*
X33357Y-56537D01*
X33485Y-56228D01*
X33486Y-55894D01*
X33358Y-55585D01*
X33122Y-55348D01*
X32845Y-55233D01*
X33120Y-55120D01*
X33357Y-54883D01*
X33485Y-54575D01*
X33486Y-54240D01*
X33358Y-53931D01*
X33122Y-53694D01*
X32845Y-53580D01*
X33120Y-53466D01*
X33357Y-53230D01*
X33485Y-52921D01*
X33486Y-52587D01*
X33358Y-52278D01*
X33122Y-52041D01*
X32845Y-51926D01*
X33120Y-51813D01*
X33357Y-51576D01*
X33485Y-51267D01*
X33486Y-50933D01*
X33358Y-50624D01*
X33122Y-50387D01*
X32813Y-50259D01*
X32478Y-50259D01*
X32169Y-50387D01*
X31933Y-50623D01*
X31804Y-50932D01*
X31804Y-51266D01*
X31932Y-51575D01*
X32168Y-51812D01*
X32444Y-51926D01*
X32169Y-52040D01*
X31933Y-52276D01*
X31804Y-52585D01*
X31804Y-52920D01*
X31932Y-53229D01*
X32168Y-53465D01*
X32444Y-53580D01*
X32169Y-53694D01*
X31933Y-53930D01*
X31804Y-54239D01*
X31804Y-54573D01*
X31932Y-54882D01*
X32168Y-55119D01*
X32444Y-55233D01*
X32169Y-55347D01*
X31933Y-55583D01*
X31804Y-55892D01*
X31804Y-56227D01*
X31932Y-56536D01*
X32168Y-56772D01*
X32444Y-56887D01*
X32169Y-57001D01*
X31933Y-57237D01*
X31804Y-57546D01*
X31804Y-57880D01*
X31932Y-58189D01*
X32168Y-58426D01*
X32444Y-58541D01*
X32169Y-58654D01*
X31933Y-58890D01*
X31804Y-59199D01*
X31804Y-59534D01*
X31932Y-59843D01*
X32168Y-60079D01*
X32444Y-60194D01*
X32169Y-60308D01*
X31933Y-60544D01*
X31804Y-60853D01*
X31804Y-61187D01*
X31932Y-61496D01*
X32168Y-61733D01*
X32444Y-61848D01*
X32169Y-61961D01*
X31933Y-62198D01*
X31804Y-62506D01*
X31804Y-62841D01*
X31932Y-63150D01*
X32168Y-63386D01*
X32444Y-63501D01*
X32169Y-63615D01*
X31933Y-63851D01*
X31804Y-64160D01*
X31804Y-64494D01*
X31932Y-64803D01*
X32168Y-65040D01*
X32444Y-65155D01*
X32169Y-65268D01*
X31933Y-65505D01*
X31804Y-65813D01*
X31804Y-66148D01*
X31932Y-66457D01*
X32168Y-66694D01*
X32444Y-66808D01*
X32169Y-66922D01*
X31933Y-67158D01*
X31804Y-67467D01*
X31804Y-67801D01*
X31932Y-68110D01*
X32168Y-68347D01*
X32444Y-68462D01*
X32169Y-68575D01*
X31933Y-68812D01*
X31804Y-69121D01*
X31804Y-69455D01*
X31932Y-69764D01*
X32168Y-70001D01*
X32477Y-70129D01*
X32811Y-70129D01*
X33120Y-70001D01*
X33357Y-69765D01*
X33485Y-69456D01*
X33486Y-69122D01*
X33486Y-72301D01*
X31323Y-72284D01*
X31323Y-66132D01*
X31323Y-62825D01*
X31323Y-59518D01*
X31320Y-59367D01*
X31320Y-57547D01*
X31193Y-57238D01*
X30956Y-57002D01*
X30680Y-56887D01*
X30955Y-56773D01*
X31192Y-56537D01*
X31320Y-56228D01*
X31320Y-55894D01*
X31193Y-55585D01*
X30956Y-55348D01*
X30680Y-55233D01*
X30955Y-55120D01*
X31192Y-54883D01*
X31320Y-54575D01*
X31320Y-54240D01*
X31193Y-53931D01*
X30956Y-53694D01*
X30680Y-53580D01*
X30955Y-53466D01*
X31192Y-53230D01*
X31320Y-52921D01*
X31320Y-52587D01*
X31193Y-52278D01*
X30956Y-52041D01*
X30680Y-51926D01*
X30955Y-51813D01*
X31192Y-51576D01*
X31320Y-51267D01*
X31320Y-50933D01*
X31193Y-50624D01*
X30956Y-50387D01*
X30647Y-50259D01*
X30313Y-50259D01*
X30004Y-50387D01*
X29767Y-50623D01*
X29639Y-50932D01*
X29639Y-51266D01*
X29767Y-51575D01*
X30003Y-51812D01*
X30279Y-51926D01*
X30004Y-52040D01*
X29767Y-52276D01*
X29639Y-52585D01*
X29639Y-52920D01*
X29767Y-53229D01*
X30003Y-53465D01*
X30279Y-53580D01*
X30004Y-53694D01*
X29767Y-53930D01*
X29639Y-54239D01*
X29639Y-54573D01*
X29767Y-54882D01*
X30003Y-55119D01*
X30279Y-55233D01*
X30004Y-55347D01*
X29767Y-55583D01*
X29639Y-55892D01*
X29639Y-56227D01*
X29767Y-56536D01*
X30003Y-56772D01*
X30279Y-56887D01*
X30004Y-57001D01*
X29767Y-57237D01*
X29639Y-57546D01*
X29639Y-57880D01*
X29767Y-58189D01*
X30003Y-58426D01*
X30275Y-58539D01*
X30017Y-58646D01*
X29954Y-58771D01*
X30480Y-59297D01*
X31005Y-58771D01*
X30942Y-58646D01*
X30677Y-58542D01*
X30955Y-58427D01*
X31192Y-58190D01*
X31320Y-57882D01*
X31320Y-57547D01*
X31320Y-59367D01*
X31317Y-59184D01*
X31201Y-58905D01*
X31076Y-58842D01*
X30550Y-59367D01*
X31076Y-59893D01*
X31201Y-59830D01*
X31323Y-59518D01*
X31323Y-62825D01*
X31320Y-62674D01*
X31320Y-60854D01*
X31193Y-60545D01*
X30956Y-60309D01*
X30684Y-60196D01*
X30942Y-60089D01*
X31005Y-59963D01*
X30480Y-59438D01*
X30409Y-59509D01*
X30409Y-59367D01*
X29883Y-58842D01*
X29758Y-58905D01*
X29636Y-59216D01*
X29642Y-59550D01*
X29758Y-59830D01*
X29883Y-59893D01*
X30409Y-59367D01*
X30409Y-59509D01*
X29954Y-59963D01*
X30017Y-60089D01*
X30282Y-60193D01*
X30004Y-60308D01*
X29767Y-60544D01*
X29639Y-60853D01*
X29639Y-61187D01*
X29767Y-61496D01*
X30003Y-61733D01*
X30275Y-61846D01*
X30017Y-61953D01*
X29954Y-62078D01*
X30480Y-62604D01*
X31005Y-62078D01*
X30942Y-61953D01*
X30677Y-61849D01*
X30955Y-61734D01*
X31192Y-61498D01*
X31320Y-61189D01*
X31320Y-60854D01*
X31320Y-62674D01*
X31317Y-62491D01*
X31201Y-62212D01*
X31076Y-62149D01*
X30550Y-62674D01*
X31076Y-63200D01*
X31201Y-63137D01*
X31323Y-62825D01*
X31323Y-66132D01*
X31320Y-65981D01*
X31320Y-64161D01*
X31193Y-63852D01*
X30956Y-63616D01*
X30684Y-63503D01*
X30942Y-63396D01*
X31005Y-63270D01*
X30480Y-62745D01*
X30409Y-62816D01*
X30409Y-62674D01*
X29883Y-62149D01*
X29758Y-62212D01*
X29636Y-62523D01*
X29642Y-62858D01*
X29758Y-63137D01*
X29883Y-63200D01*
X30409Y-62674D01*
X30409Y-62816D01*
X29954Y-63270D01*
X30017Y-63396D01*
X30282Y-63500D01*
X30004Y-63615D01*
X29767Y-63851D01*
X29639Y-64160D01*
X29639Y-64494D01*
X29767Y-64803D01*
X30003Y-65040D01*
X30275Y-65153D01*
X30017Y-65260D01*
X29954Y-65385D01*
X30480Y-65911D01*
X31005Y-65385D01*
X30942Y-65260D01*
X30677Y-65156D01*
X30955Y-65041D01*
X31192Y-64805D01*
X31320Y-64496D01*
X31320Y-64161D01*
X31320Y-65981D01*
X31317Y-65798D01*
X31201Y-65519D01*
X31076Y-65456D01*
X30550Y-65981D01*
X31076Y-66507D01*
X31201Y-66444D01*
X31323Y-66132D01*
X31323Y-72284D01*
X31320Y-72284D01*
X31320Y-69122D01*
X31193Y-68813D01*
X30956Y-68576D01*
X30680Y-68462D01*
X30955Y-68348D01*
X31192Y-68112D01*
X31320Y-67803D01*
X31320Y-67468D01*
X31193Y-67159D01*
X30956Y-66923D01*
X30684Y-66810D01*
X30942Y-66703D01*
X31005Y-66577D01*
X30480Y-66052D01*
X30409Y-66123D01*
X30409Y-65981D01*
X29883Y-65456D01*
X29758Y-65519D01*
X29636Y-65830D01*
X29642Y-66165D01*
X29758Y-66444D01*
X29883Y-66507D01*
X30409Y-65981D01*
X30409Y-66123D01*
X29954Y-66577D01*
X30017Y-66703D01*
X30282Y-66807D01*
X30004Y-66922D01*
X29767Y-67158D01*
X29639Y-67467D01*
X29639Y-67801D01*
X29767Y-68110D01*
X30003Y-68347D01*
X30279Y-68462D01*
X30004Y-68575D01*
X29767Y-68812D01*
X29639Y-69121D01*
X29639Y-69455D01*
X29767Y-69764D01*
X30003Y-70001D01*
X30312Y-70129D01*
X30646Y-70129D01*
X30955Y-70001D01*
X31192Y-69765D01*
X31320Y-69456D01*
X31320Y-69122D01*
X31320Y-72284D01*
X28446Y-72263D01*
X28446Y-69122D01*
X28318Y-68813D01*
X28082Y-68576D01*
X27773Y-68448D01*
X27439Y-68448D01*
X27130Y-68575D01*
X26893Y-68812D01*
X26765Y-69121D01*
X26765Y-69455D01*
X26892Y-69764D01*
X27129Y-70001D01*
X27438Y-70129D01*
X27772Y-70129D01*
X28081Y-70001D01*
X28318Y-69765D01*
X28446Y-69456D01*
X28446Y-69122D01*
X28446Y-72263D01*
X27903Y-72259D01*
X28075Y-72188D01*
X28312Y-71951D01*
X28440Y-71642D01*
X28440Y-71308D01*
X28313Y-70999D01*
X28076Y-70762D01*
X27767Y-70634D01*
X27433Y-70634D01*
X27124Y-70762D01*
X26887Y-70998D01*
X26759Y-71306D01*
X26759Y-69946D01*
X26835Y-51437D01*
X26892Y-51575D01*
X27129Y-51812D01*
X27438Y-51940D01*
X27772Y-51940D01*
X28081Y-51813D01*
X28318Y-51576D01*
X28446Y-51267D01*
X28446Y-50933D01*
X28318Y-50624D01*
X28082Y-50387D01*
X27773Y-50259D01*
X27439Y-50259D01*
X27130Y-50387D01*
X26893Y-50623D01*
X26838Y-50756D01*
X26845Y-49103D01*
X26902Y-49240D01*
X27138Y-49477D01*
X27447Y-49605D01*
X27781Y-49605D01*
X28090Y-49478D01*
X28327Y-49241D01*
X28455Y-48932D01*
X28455Y-48598D01*
X28328Y-48289D01*
X28091Y-48052D01*
X28061Y-48040D01*
X38050Y-47964D01*
X37933Y-48080D01*
X37850Y-48281D01*
X37850Y-48497D01*
X37933Y-48698D01*
X38086Y-48851D01*
X38286Y-48935D01*
X38503Y-48935D01*
X38704Y-48852D01*
X38857Y-48699D01*
X38875Y-48657D01*
X38882Y-48658D01*
X39151Y-48390D01*
X38882Y-48121D01*
X38875Y-48122D01*
X38858Y-48081D01*
X38735Y-47958D01*
X38984Y-47956D01*
X38973Y-47961D01*
X38953Y-48050D01*
X39222Y-48319D01*
X39491Y-48050D01*
X39472Y-47961D01*
X39451Y-47954D01*
X39790Y-47954D01*
X39734Y-47977D01*
X39598Y-48114D01*
X39592Y-48127D01*
X39562Y-48121D01*
X39293Y-48390D01*
X39562Y-48658D01*
X39592Y-48652D01*
X39597Y-48665D01*
X39734Y-48801D01*
X39853Y-48851D01*
X39859Y-50158D01*
X39741Y-50039D01*
X39584Y-49975D01*
X39491Y-49974D01*
X39491Y-48729D01*
X39222Y-48460D01*
X38953Y-48729D01*
X38973Y-48818D01*
X39156Y-48881D01*
X39349Y-48869D01*
X39472Y-48818D01*
X39491Y-48729D01*
X39491Y-49974D01*
X39415Y-49974D01*
X39259Y-50039D01*
X39139Y-50158D01*
X39075Y-50315D01*
X39074Y-50484D01*
X39139Y-50640D01*
X39258Y-50760D01*
X39415Y-50824D01*
X39584Y-50825D01*
X39740Y-50760D01*
X39860Y-50641D01*
X39861Y-50638D01*
X39862Y-51065D01*
X39860Y-51059D01*
X39741Y-50939D01*
X39584Y-50875D01*
X39415Y-50874D01*
X39259Y-50939D01*
X39139Y-51058D01*
X39075Y-51215D01*
X39074Y-51384D01*
X39139Y-51540D01*
X39258Y-51660D01*
X39415Y-51724D01*
X39584Y-51725D01*
X39740Y-51660D01*
X39860Y-51541D01*
X39864Y-51529D01*
X39949Y-72349D01*
X39949Y-72349D01*
G37*
G54D29*
X39949Y-72349D02*
X36980Y-72327D01*
X36980Y-54904D01*
X36907Y-54728D01*
X36772Y-54593D01*
X36595Y-54520D01*
X36404Y-54519D01*
X36228Y-54592D01*
X36093Y-54727D01*
X36020Y-54904D01*
X36019Y-55095D01*
X36092Y-55271D01*
X36227Y-55406D01*
X36404Y-55479D01*
X36595Y-55480D01*
X36771Y-55407D01*
X36906Y-55272D01*
X36979Y-55095D01*
X36980Y-54904D01*
X36980Y-72327D01*
X36080Y-72320D01*
X36080Y-70504D01*
X36007Y-70328D01*
X35872Y-70193D01*
X35695Y-70120D01*
X35504Y-70119D01*
X35328Y-70192D01*
X35193Y-70327D01*
X35120Y-70504D01*
X35119Y-70695D01*
X35192Y-70871D01*
X35327Y-71006D01*
X35504Y-71079D01*
X35695Y-71080D01*
X35871Y-71007D01*
X36006Y-70872D01*
X36079Y-70695D01*
X36080Y-70504D01*
X36080Y-72320D01*
X35080Y-72313D01*
X35080Y-56604D01*
X35007Y-56428D01*
X34872Y-56293D01*
X34695Y-56220D01*
X34504Y-56219D01*
X34328Y-56292D01*
X34193Y-56427D01*
X34120Y-56604D01*
X34119Y-56795D01*
X34192Y-56971D01*
X34327Y-57106D01*
X34504Y-57179D01*
X34695Y-57180D01*
X34871Y-57107D01*
X35006Y-56972D01*
X35079Y-56795D01*
X35080Y-56604D01*
X35080Y-72313D01*
X34880Y-72311D01*
X34880Y-68904D01*
X34807Y-68728D01*
X34672Y-68593D01*
X34495Y-68520D01*
X34304Y-68519D01*
X34128Y-68592D01*
X33993Y-68727D01*
X33920Y-68904D01*
X33919Y-69095D01*
X33992Y-69271D01*
X34127Y-69406D01*
X34304Y-69479D01*
X34495Y-69480D01*
X34671Y-69407D01*
X34806Y-69272D01*
X34879Y-69095D01*
X34880Y-68904D01*
X34880Y-72311D01*
X33486Y-72301D01*
X33486Y-69122D01*
X33358Y-68813D01*
X33122Y-68576D01*
X32845Y-68462D01*
X33120Y-68348D01*
X33357Y-68112D01*
X33485Y-67803D01*
X33486Y-67468D01*
X33358Y-67159D01*
X33122Y-66923D01*
X32845Y-66808D01*
X33120Y-66694D01*
X33357Y-66458D01*
X33485Y-66149D01*
X33486Y-65815D01*
X33358Y-65506D01*
X33122Y-65269D01*
X32845Y-65154D01*
X33120Y-65041D01*
X33357Y-64805D01*
X33485Y-64496D01*
X33486Y-64161D01*
X33358Y-63852D01*
X33122Y-63616D01*
X32845Y-63501D01*
X33120Y-63387D01*
X33357Y-63151D01*
X33485Y-62842D01*
X33486Y-62508D01*
X33358Y-62199D01*
X33122Y-61962D01*
X32845Y-61847D01*
X33120Y-61734D01*
X33357Y-61498D01*
X33485Y-61189D01*
X33486Y-60854D01*
X33358Y-60545D01*
X33122Y-60309D01*
X32845Y-60194D01*
X33120Y-60080D01*
X33357Y-59844D01*
X33485Y-59535D01*
X33486Y-59201D01*
X33358Y-58892D01*
X33122Y-58655D01*
X32845Y-58540D01*
X33120Y-58427D01*
X33357Y-58190D01*
X33485Y-57882D01*
X33486Y-57547D01*
X33358Y-57238D01*
X33122Y-57002D01*
X32845Y-56887D01*
X33120Y-56773D01*
X33357Y-56537D01*
X33485Y-56228D01*
X33486Y-55894D01*
X33358Y-55585D01*
X33122Y-55348D01*
X32845Y-55233D01*
X33120Y-55120D01*
X33357Y-54883D01*
X33485Y-54575D01*
X33486Y-54240D01*
X33358Y-53931D01*
X33122Y-53694D01*
X32845Y-53580D01*
X33120Y-53466D01*
X33357Y-53230D01*
X33485Y-52921D01*
X33486Y-52587D01*
X33358Y-52278D01*
X33122Y-52041D01*
X32845Y-51926D01*
X33120Y-51813D01*
X33357Y-51576D01*
X33485Y-51267D01*
X33486Y-50933D01*
X33358Y-50624D01*
X33122Y-50387D01*
X32813Y-50259D01*
X32478Y-50259D01*
X32169Y-50387D01*
X31933Y-50623D01*
X31804Y-50932D01*
X31804Y-51266D01*
X31932Y-51575D01*
X32168Y-51812D01*
X32444Y-51926D01*
X32169Y-52040D01*
X31933Y-52276D01*
X31804Y-52585D01*
X31804Y-52920D01*
X31932Y-53229D01*
X32168Y-53465D01*
X32444Y-53580D01*
X32169Y-53694D01*
X31933Y-53930D01*
X31804Y-54239D01*
X31804Y-54573D01*
X31932Y-54882D01*
X32168Y-55119D01*
X32444Y-55233D01*
X32169Y-55347D01*
X31933Y-55583D01*
X31804Y-55892D01*
X31804Y-56227D01*
X31932Y-56536D01*
X32168Y-56772D01*
X32444Y-56887D01*
X32169Y-57001D01*
X31933Y-57237D01*
X31804Y-57546D01*
X31804Y-57880D01*
X31932Y-58189D01*
X32168Y-58426D01*
X32444Y-58541D01*
X32169Y-58654D01*
X31933Y-58890D01*
X31804Y-59199D01*
X31804Y-59534D01*
X31932Y-59843D01*
X32168Y-60079D01*
X32444Y-60194D01*
X32169Y-60308D01*
X31933Y-60544D01*
X31804Y-60853D01*
X31804Y-61187D01*
X31932Y-61496D01*
X32168Y-61733D01*
X32444Y-61848D01*
X32169Y-61961D01*
X31933Y-62198D01*
X31804Y-62506D01*
X31804Y-62841D01*
X31932Y-63150D01*
X32168Y-63386D01*
X32444Y-63501D01*
X32169Y-63615D01*
X31933Y-63851D01*
X31804Y-64160D01*
X31804Y-64494D01*
X31932Y-64803D01*
X32168Y-65040D01*
X32444Y-65155D01*
X32169Y-65268D01*
X31933Y-65505D01*
X31804Y-65813D01*
X31804Y-66148D01*
X31932Y-66457D01*
X32168Y-66694D01*
X32444Y-66808D01*
X32169Y-66922D01*
X31933Y-67158D01*
X31804Y-67467D01*
X31804Y-67801D01*
X31932Y-68110D01*
X32168Y-68347D01*
X32444Y-68462D01*
X32169Y-68575D01*
X31933Y-68812D01*
X31804Y-69121D01*
X31804Y-69455D01*
X31932Y-69764D01*
X32168Y-70001D01*
X32477Y-70129D01*
X32811Y-70129D01*
X33120Y-70001D01*
X33357Y-69765D01*
X33485Y-69456D01*
X33486Y-69122D01*
X33486Y-72301D01*
X31323Y-72284D01*
X31323Y-66132D01*
X31323Y-62825D01*
X31323Y-59518D01*
X31320Y-59367D01*
X31320Y-57547D01*
X31193Y-57238D01*
X30956Y-57002D01*
X30680Y-56887D01*
X30955Y-56773D01*
X31192Y-56537D01*
X31320Y-56228D01*
X31320Y-55894D01*
X31193Y-55585D01*
X30956Y-55348D01*
X30680Y-55233D01*
X30955Y-55120D01*
X31192Y-54883D01*
X31320Y-54575D01*
X31320Y-54240D01*
X31193Y-53931D01*
X30956Y-53694D01*
X30680Y-53580D01*
X30955Y-53466D01*
X31192Y-53230D01*
X31320Y-52921D01*
X31320Y-52587D01*
X31193Y-52278D01*
X30956Y-52041D01*
X30680Y-51926D01*
X30955Y-51813D01*
X31192Y-51576D01*
X31320Y-51267D01*
X31320Y-50933D01*
X31193Y-50624D01*
X30956Y-50387D01*
X30647Y-50259D01*
X30313Y-50259D01*
X30004Y-50387D01*
X29767Y-50623D01*
X29639Y-50932D01*
X29639Y-51266D01*
X29767Y-51575D01*
X30003Y-51812D01*
X30279Y-51926D01*
X30004Y-52040D01*
X29767Y-52276D01*
X29639Y-52585D01*
X29639Y-52920D01*
X29767Y-53229D01*
X30003Y-53465D01*
X30279Y-53580D01*
X30004Y-53694D01*
X29767Y-53930D01*
X29639Y-54239D01*
X29639Y-54573D01*
X29767Y-54882D01*
X30003Y-55119D01*
X30279Y-55233D01*
X30004Y-55347D01*
X29767Y-55583D01*
X29639Y-55892D01*
X29639Y-56227D01*
X29767Y-56536D01*
X30003Y-56772D01*
X30279Y-56887D01*
X30004Y-57001D01*
X29767Y-57237D01*
X29639Y-57546D01*
X29639Y-57880D01*
X29767Y-58189D01*
X30003Y-58426D01*
X30275Y-58539D01*
X30017Y-58646D01*
X29954Y-58771D01*
X30480Y-59297D01*
X31005Y-58771D01*
X30942Y-58646D01*
X30677Y-58542D01*
X30955Y-58427D01*
X31192Y-58190D01*
X31320Y-57882D01*
X31320Y-57547D01*
X31320Y-59367D01*
X31317Y-59184D01*
X31201Y-58905D01*
X31076Y-58842D01*
X30550Y-59367D01*
X31076Y-59893D01*
X31201Y-59830D01*
X31323Y-59518D01*
X31323Y-62825D01*
X31320Y-62674D01*
X31320Y-60854D01*
X31193Y-60545D01*
X30956Y-60309D01*
X30684Y-60196D01*
X30942Y-60089D01*
X31005Y-59963D01*
X30480Y-59438D01*
X30409Y-59509D01*
X30409Y-59367D01*
X29883Y-58842D01*
X29758Y-58905D01*
X29636Y-59216D01*
X29642Y-59550D01*
X29758Y-59830D01*
X29883Y-59893D01*
X30409Y-59367D01*
X30409Y-59509D01*
X29954Y-59963D01*
X30017Y-60089D01*
X30282Y-60193D01*
X30004Y-60308D01*
X29767Y-60544D01*
X29639Y-60853D01*
X29639Y-61187D01*
X29767Y-61496D01*
X30003Y-61733D01*
X30275Y-61846D01*
X30017Y-61953D01*
X29954Y-62078D01*
X30480Y-62604D01*
X31005Y-62078D01*
X30942Y-61953D01*
X30677Y-61849D01*
X30955Y-61734D01*
X31192Y-61498D01*
X31320Y-61189D01*
X31320Y-60854D01*
X31320Y-62674D01*
X31317Y-62491D01*
X31201Y-62212D01*
X31076Y-62149D01*
X30550Y-62674D01*
X31076Y-63200D01*
X31201Y-63137D01*
X31323Y-62825D01*
X31323Y-66132D01*
X31320Y-65981D01*
X31320Y-64161D01*
X31193Y-63852D01*
X30956Y-63616D01*
X30684Y-63503D01*
X30942Y-63396D01*
X31005Y-63270D01*
X30480Y-62745D01*
X30409Y-62816D01*
X30409Y-62674D01*
X29883Y-62149D01*
X29758Y-62212D01*
X29636Y-62523D01*
X29642Y-62858D01*
X29758Y-63137D01*
X29883Y-63200D01*
X30409Y-62674D01*
X30409Y-62816D01*
X29954Y-63270D01*
X30017Y-63396D01*
X30282Y-63500D01*
X30004Y-63615D01*
X29767Y-63851D01*
X29639Y-64160D01*
X29639Y-64494D01*
X29767Y-64803D01*
X30003Y-65040D01*
X30275Y-65153D01*
X30017Y-65260D01*
X29954Y-65385D01*
X30480Y-65911D01*
X31005Y-65385D01*
X30942Y-65260D01*
X30677Y-65156D01*
X30955Y-65041D01*
X31192Y-64805D01*
X31320Y-64496D01*
X31320Y-64161D01*
X31320Y-65981D01*
X31317Y-65798D01*
X31201Y-65519D01*
X31076Y-65456D01*
X30550Y-65981D01*
X31076Y-66507D01*
X31201Y-66444D01*
X31323Y-66132D01*
X31323Y-72284D01*
X31320Y-72284D01*
X31320Y-69122D01*
X31193Y-68813D01*
X30956Y-68576D01*
X30680Y-68462D01*
X30955Y-68348D01*
X31192Y-68112D01*
X31320Y-67803D01*
X31320Y-67468D01*
X31193Y-67159D01*
X30956Y-66923D01*
X30684Y-66810D01*
X30942Y-66703D01*
X31005Y-66577D01*
X30480Y-66052D01*
X30409Y-66123D01*
X30409Y-65981D01*
X29883Y-65456D01*
X29758Y-65519D01*
X29636Y-65830D01*
X29642Y-66165D01*
X29758Y-66444D01*
X29883Y-66507D01*
X30409Y-65981D01*
X30409Y-66123D01*
X29954Y-66577D01*
X30017Y-66703D01*
X30282Y-66807D01*
X30004Y-66922D01*
X29767Y-67158D01*
X29639Y-67467D01*
X29639Y-67801D01*
X29767Y-68110D01*
X30003Y-68347D01*
X30279Y-68462D01*
X30004Y-68575D01*
X29767Y-68812D01*
X29639Y-69121D01*
X29639Y-69455D01*
X29767Y-69764D01*
X30003Y-70001D01*
X30312Y-70129D01*
X30646Y-70129D01*
X30955Y-70001D01*
X31192Y-69765D01*
X31320Y-69456D01*
X31320Y-69122D01*
X31320Y-72284D01*
X28446Y-72263D01*
X28446Y-69122D01*
X28318Y-68813D01*
X28082Y-68576D01*
X27773Y-68448D01*
X27439Y-68448D01*
X27130Y-68575D01*
X26893Y-68812D01*
X26765Y-69121D01*
X26765Y-69455D01*
X26892Y-69764D01*
X27129Y-70001D01*
X27438Y-70129D01*
X27772Y-70129D01*
X28081Y-70001D01*
X28318Y-69765D01*
X28446Y-69456D01*
X28446Y-69122D01*
X28446Y-72263D01*
X27903Y-72259D01*
X28075Y-72188D01*
X28312Y-71951D01*
X28440Y-71642D01*
X28440Y-71308D01*
X28313Y-70999D01*
X28076Y-70762D01*
X27767Y-70634D01*
X27433Y-70634D01*
X27124Y-70762D01*
X26887Y-70998D01*
X26759Y-71306D01*
X26759Y-69946D01*
X26835Y-51437D01*
X26892Y-51575D01*
X27129Y-51812D01*
X27438Y-51940D01*
X27772Y-51940D01*
X28081Y-51813D01*
X28318Y-51576D01*
X28446Y-51267D01*
X28446Y-50933D01*
X28318Y-50624D01*
X28082Y-50387D01*
X27773Y-50259D01*
X27439Y-50259D01*
X27130Y-50387D01*
X26893Y-50623D01*
X26838Y-50756D01*
X26845Y-49103D01*
X26902Y-49240D01*
X27138Y-49477D01*
X27447Y-49605D01*
X27781Y-49605D01*
X28090Y-49478D01*
X28327Y-49241D01*
X28455Y-48932D01*
X28455Y-48598D01*
X28328Y-48289D01*
X28091Y-48052D01*
X28061Y-48040D01*
X38050Y-47964D01*
X37933Y-48080D01*
X37850Y-48281D01*
X37850Y-48497D01*
X37933Y-48698D01*
X38086Y-48851D01*
X38286Y-48935D01*
X38503Y-48935D01*
X38704Y-48852D01*
X38857Y-48699D01*
X38875Y-48657D01*
X38882Y-48658D01*
X39151Y-48390D01*
X38882Y-48121D01*
X38875Y-48122D01*
X38858Y-48081D01*
X38735Y-47958D01*
X38984Y-47956D01*
X38973Y-47961D01*
X38953Y-48050D01*
X39222Y-48319D01*
X39491Y-48050D01*
X39472Y-47961D01*
X39451Y-47954D01*
X39790Y-47954D01*
X39734Y-47977D01*
X39598Y-48114D01*
X39592Y-48127D01*
X39562Y-48121D01*
X39293Y-48390D01*
X39562Y-48658D01*
X39592Y-48652D01*
X39597Y-48665D01*
X39734Y-48801D01*
X39853Y-48851D01*
X39859Y-50158D01*
X39741Y-50039D01*
X39584Y-49975D01*
X39491Y-49974D01*
X39491Y-48729D01*
X39222Y-48460D01*
X38953Y-48729D01*
X38973Y-48818D01*
X39156Y-48881D01*
X39349Y-48869D01*
X39472Y-48818D01*
X39491Y-48729D01*
X39491Y-49974D01*
X39415Y-49974D01*
X39259Y-50039D01*
X39139Y-50158D01*
X39075Y-50315D01*
X39074Y-50484D01*
X39139Y-50640D01*
X39258Y-50760D01*
X39415Y-50824D01*
X39584Y-50825D01*
X39740Y-50760D01*
X39860Y-50641D01*
X39861Y-50638D01*
X39862Y-51065D01*
X39860Y-51059D01*
X39741Y-50939D01*
X39584Y-50875D01*
X39415Y-50874D01*
X39259Y-50939D01*
X39139Y-51058D01*
X39075Y-51215D01*
X39074Y-51384D01*
X39139Y-51540D01*
X39258Y-51660D01*
X39415Y-51724D01*
X39584Y-51725D01*
X39740Y-51660D01*
X39860Y-51541D01*
X39864Y-51529D01*
X39949Y-72349D01*
M02*
