M48
INCH,TZ
T1C0.013
T2C0.024
T3C0.031
T4C0.031
T5C0.040
T6C0.043
T7C0.047
T8C0.050
T9C0.051
T10C0.059
T11C0.063
T12C0.063
T13C0.071
T14C0.120
%
G90
G05
T1
X39500Y-50400
X39500Y-51300
X41565Y-50865
X52920Y-59330
X53100Y-64650
X53429Y-67964
X56110Y-60520
X56150Y-56450
X58160Y-55600
X59130Y-59270
X59150Y-56400
X59390Y-65160
X60090Y-56470
X60090Y-59300
X60460Y-63570
X60520Y-56220
X60650Y-58440
X60660Y-59130
X61850Y-57340
X62200Y-57100
X62550Y-62310
X62590Y-56500
X63830Y-54370
X65186Y-65076
X65210Y-56780
X65387Y-57414
X65700Y-55615
X65880Y-59580
X66090Y-54280
X66255Y-55640
X66569Y-54230
X66805Y-58315
X66940Y-54330
X67385Y-58305
X67460Y-55890
X67590Y-56570
X67610Y-57760
X68150Y-58020
X68610Y-55320
X68936Y-54936
X69104Y-54376
X69600Y-51550
X70112Y-56742
X70280Y-57645
X70525Y-57960
X71449Y-55237
X72268Y-55517
X72268Y-56175
X73702Y-62573
X74184Y-59286
X74934Y-57636
X75502Y-57953
X76181Y-57560
X77460Y-59640
X79650Y-52800
X79975Y-60320
X85526Y-60333
X86450Y-55250
T2
X34400Y-69000
X34600Y-56700
X35600Y-70600
X35790Y-52170
X36500Y-55000
X37800Y-58500
X41300Y-60900
X41400Y-62100
X50700Y-64300
X51300Y-65200
X56000Y-69150
X56645Y-64985
X56840Y-64100
X63000Y-60030
X63620Y-61860
X63855Y-48630
X68590Y-51940
X70956Y-57189
X71865Y-70430
X74516Y-57213
X75315Y-67350
X75960Y-54350
X82080Y-60830
X82530Y-63035
X84590Y-48810
X85480Y-55750
X87225Y-64850
T3
X39223Y-48390
X40797Y-48390
T4
X40010Y-48390
T5
X45700Y-64900
X46500Y-52420
X46700Y-59300
X46700Y-60300
X46700Y-64900
X47500Y-52420
X48100Y-71420
X48500Y-52420
X48700Y-64800
X49000Y-61900
X49100Y-71420
X49500Y-52420
X49700Y-64800
X50000Y-61900
X50100Y-71420
X50500Y-52420
X51100Y-71420
X51500Y-52420
X52100Y-71420
X52500Y-52420
X53100Y-71420
X53500Y-52420
X54100Y-71420
X55100Y-52420
X55100Y-71420
X56100Y-52420
X57100Y-52420
X57100Y-71420
X58100Y-52420
X58100Y-71420
X59100Y-52420
X59100Y-71420
X60100Y-52420
X60100Y-71420
X61100Y-52420
X61100Y-71420
X62100Y-52420
X62100Y-71420
X64600Y-58560
X65600Y-58560
X65860Y-50000
X66860Y-50000
X67860Y-50000
X71295Y-49960
X72295Y-49960
X73295Y-49960
X78255Y-53670
X78562Y-56084
X78562Y-57084
X78562Y-58084
X79255Y-53670
X79562Y-56084
X79562Y-57084
X79562Y-58084
X80255Y-53670
X83060Y-53720
X84060Y-53720
X85060Y-53720
T6
X44611Y-48535
X45595Y-48535
X46579Y-48535
X51441Y-48435
X52425Y-48435
X53409Y-48435
T7
X89015Y-48923
X89015Y-50300
X89015Y-51678
X89015Y-53056
X89015Y-54434
X89015Y-55812
X89015Y-57190
X89015Y-58568
X89015Y-59946
X89015Y-61324
X89015Y-62702
X89015Y-64080
T8
X79325Y-68935
X80125Y-66585
X80125Y-71335
X84925Y-66585
X84925Y-71335
T9
X88845Y-67058
X88845Y-69026
X88845Y-70995
T10
X66845Y-48520
X72315Y-48520
T11
X63510Y-53070
X64110Y-55530
X70665Y-71985
X71294Y-59747
X74325Y-64840
X75790Y-50210
X78780Y-50230
X82380Y-55695
X82920Y-49850
X84810Y-56960
T13
X30480Y-51100
X30480Y-52754
X30480Y-54407
X30480Y-56061
X30480Y-57714
X30480Y-59368
X30480Y-61021
X30480Y-62675
X30480Y-64328
X30480Y-65982
X30480Y-67635
X30480Y-69289
X32645Y-51100
X32645Y-52754
X32645Y-54407
X32645Y-56061
X32645Y-57714
X32645Y-59368
X32645Y-61021
X32645Y-62675
X32645Y-64328
X32645Y-65982
X32645Y-67635
X32645Y-69289
T14
X47600Y-63200
T12
X43666Y-49519G85X43666Y-49283
G05
X47524Y-49519G85X47524Y-49283
G05
X50496Y-49419G85X50496Y-49183
G05
X54354Y-49419G85X54354Y-49183
G05
T0
M30
