G04 (created by PCBNEW (2013-07-07 BZR 4022)-stable) date 3/25/2014 11:36:33 PM*
%MOIN*%
G04 Gerber Fmt 3.4, Leading zero omitted, Abs format*
%FSLAX34Y34*%
G01*
G70*
G90*
G04 APERTURE LIST*
%ADD10C,0.006*%
G04 APERTURE END LIST*
G54D10*
G36*
X28220Y-71414D02*
X28218Y-71552D01*
X28191Y-71672D01*
X28142Y-71782D01*
X28071Y-71883D01*
X27984Y-71965D01*
X27880Y-72031D01*
X27768Y-72075D01*
X27647Y-72096D01*
X27526Y-72094D01*
X27406Y-72067D01*
X27296Y-72019D01*
X27195Y-71949D01*
X27111Y-71863D01*
X27044Y-71759D01*
X27000Y-71647D01*
X26978Y-71526D01*
X26980Y-71406D01*
X27005Y-71285D01*
X27053Y-71175D01*
X27122Y-71073D01*
X27208Y-70989D01*
X27311Y-70921D01*
X27423Y-70876D01*
X27544Y-70853D01*
X27664Y-70854D01*
X27785Y-70879D01*
X27895Y-70925D01*
X27998Y-70995D01*
X28082Y-71080D01*
X28151Y-71183D01*
X28196Y-71293D01*
X28196Y-71294D01*
X28220Y-71414D01*
X28220Y-71414D01*
X28220Y-71414D01*
G37*
G36*
X28226Y-51039D02*
X28224Y-51177D01*
X28197Y-51297D01*
X28148Y-51407D01*
X28077Y-51508D01*
X27990Y-51590D01*
X27886Y-51656D01*
X27774Y-51700D01*
X27653Y-51721D01*
X27532Y-51719D01*
X27412Y-51692D01*
X27302Y-51644D01*
X27201Y-51574D01*
X27117Y-51488D01*
X27050Y-51384D01*
X27006Y-51272D01*
X26984Y-51151D01*
X26986Y-51031D01*
X27011Y-50910D01*
X27059Y-50800D01*
X27128Y-50698D01*
X27214Y-50614D01*
X27317Y-50546D01*
X27429Y-50501D01*
X27550Y-50478D01*
X27670Y-50479D01*
X27791Y-50504D01*
X27901Y-50550D01*
X28004Y-50620D01*
X28088Y-50705D01*
X28157Y-50808D01*
X28202Y-50918D01*
X28202Y-50919D01*
X28226Y-51039D01*
X28226Y-51039D01*
X28226Y-51039D01*
G37*
G36*
X28226Y-69228D02*
X28224Y-69366D01*
X28197Y-69486D01*
X28148Y-69596D01*
X28077Y-69697D01*
X27990Y-69779D01*
X27886Y-69845D01*
X27774Y-69889D01*
X27653Y-69910D01*
X27532Y-69908D01*
X27412Y-69881D01*
X27302Y-69833D01*
X27201Y-69763D01*
X27117Y-69676D01*
X27050Y-69573D01*
X27006Y-69461D01*
X26984Y-69340D01*
X26986Y-69220D01*
X27011Y-69099D01*
X27059Y-68989D01*
X27128Y-68887D01*
X27214Y-68803D01*
X27317Y-68735D01*
X27429Y-68690D01*
X27550Y-68667D01*
X27670Y-68668D01*
X27791Y-68693D01*
X27901Y-68739D01*
X28004Y-68809D01*
X28088Y-68894D01*
X28157Y-68997D01*
X28202Y-69107D01*
X28202Y-69108D01*
X28226Y-69228D01*
X28226Y-69228D01*
X28226Y-69228D01*
G37*
G36*
X28235Y-48704D02*
X28233Y-48842D01*
X28206Y-48962D01*
X28157Y-49072D01*
X28086Y-49173D01*
X27999Y-49255D01*
X27895Y-49321D01*
X27783Y-49365D01*
X27662Y-49386D01*
X27541Y-49384D01*
X27421Y-49357D01*
X27311Y-49309D01*
X27210Y-49239D01*
X27126Y-49153D01*
X27059Y-49049D01*
X27015Y-48937D01*
X26993Y-48816D01*
X26995Y-48696D01*
X27020Y-48575D01*
X27068Y-48465D01*
X27137Y-48363D01*
X27223Y-48279D01*
X27326Y-48211D01*
X27438Y-48166D01*
X27559Y-48143D01*
X27679Y-48144D01*
X27800Y-48169D01*
X27910Y-48215D01*
X28013Y-48285D01*
X28097Y-48370D01*
X28166Y-48473D01*
X28211Y-48583D01*
X28211Y-48584D01*
X28235Y-48704D01*
X28235Y-48704D01*
X28235Y-48704D01*
G37*
G36*
X31100Y-51039D02*
X31098Y-51177D01*
X31071Y-51297D01*
X31022Y-51407D01*
X30951Y-51508D01*
X30864Y-51590D01*
X30760Y-51656D01*
X30648Y-51700D01*
X30527Y-51721D01*
X30406Y-51719D01*
X30286Y-51692D01*
X30176Y-51644D01*
X30075Y-51574D01*
X29991Y-51488D01*
X29924Y-51384D01*
X29880Y-51272D01*
X29858Y-51151D01*
X29860Y-51031D01*
X29885Y-50910D01*
X29933Y-50800D01*
X30002Y-50698D01*
X30088Y-50614D01*
X30191Y-50546D01*
X30303Y-50501D01*
X30424Y-50478D01*
X30544Y-50479D01*
X30665Y-50504D01*
X30775Y-50550D01*
X30878Y-50620D01*
X30962Y-50705D01*
X31031Y-50808D01*
X31076Y-50918D01*
X31076Y-50919D01*
X31100Y-51039D01*
X31100Y-51039D01*
X31100Y-51039D01*
G37*
G36*
X31100Y-52693D02*
X31098Y-52831D01*
X31071Y-52951D01*
X31022Y-53060D01*
X30951Y-53161D01*
X30864Y-53244D01*
X30760Y-53310D01*
X30648Y-53353D01*
X30527Y-53375D01*
X30406Y-53372D01*
X30286Y-53346D01*
X30176Y-53298D01*
X30075Y-53227D01*
X29991Y-53141D01*
X29924Y-53037D01*
X29880Y-52926D01*
X29858Y-52804D01*
X29860Y-52684D01*
X29885Y-52564D01*
X29933Y-52453D01*
X30002Y-52352D01*
X30088Y-52268D01*
X30191Y-52200D01*
X30303Y-52155D01*
X30424Y-52132D01*
X30544Y-52133D01*
X30665Y-52158D01*
X30775Y-52204D01*
X30878Y-52273D01*
X30962Y-52358D01*
X31031Y-52461D01*
X31076Y-52572D01*
X31076Y-52573D01*
X31100Y-52692D01*
X31100Y-52693D01*
X31100Y-52693D01*
G37*
G36*
X31100Y-54346D02*
X31098Y-54484D01*
X31071Y-54604D01*
X31022Y-54714D01*
X30951Y-54815D01*
X30864Y-54898D01*
X30760Y-54964D01*
X30648Y-55007D01*
X30527Y-55028D01*
X30406Y-55026D01*
X30286Y-54999D01*
X30176Y-54951D01*
X30075Y-54881D01*
X29991Y-54795D01*
X29924Y-54691D01*
X29880Y-54579D01*
X29858Y-54458D01*
X29860Y-54338D01*
X29885Y-54217D01*
X29933Y-54107D01*
X30002Y-54005D01*
X30088Y-53921D01*
X30191Y-53853D01*
X30303Y-53809D01*
X30424Y-53785D01*
X30544Y-53786D01*
X30665Y-53811D01*
X30775Y-53858D01*
X30878Y-53927D01*
X30962Y-54012D01*
X31031Y-54115D01*
X31076Y-54225D01*
X31076Y-54226D01*
X31100Y-54346D01*
X31100Y-54346D01*
X31100Y-54346D01*
G37*
G36*
X31100Y-56000D02*
X31098Y-56138D01*
X31071Y-56258D01*
X31022Y-56368D01*
X30951Y-56468D01*
X30864Y-56551D01*
X30760Y-56617D01*
X30648Y-56661D01*
X30527Y-56682D01*
X30406Y-56679D01*
X30286Y-56653D01*
X30176Y-56605D01*
X30075Y-56535D01*
X29991Y-56448D01*
X29924Y-56344D01*
X29880Y-56233D01*
X29858Y-56111D01*
X29860Y-55991D01*
X29885Y-55871D01*
X29933Y-55760D01*
X30002Y-55659D01*
X30088Y-55575D01*
X30191Y-55507D01*
X30303Y-55462D01*
X30424Y-55439D01*
X30544Y-55440D01*
X30665Y-55465D01*
X30775Y-55511D01*
X30878Y-55580D01*
X30962Y-55665D01*
X31031Y-55768D01*
X31076Y-55879D01*
X31076Y-55880D01*
X31100Y-55999D01*
X31100Y-56000D01*
X31100Y-56000D01*
G37*
G36*
X31100Y-57654D02*
X31098Y-57791D01*
X31071Y-57911D01*
X31022Y-58021D01*
X30951Y-58122D01*
X30864Y-58205D01*
X30760Y-58271D01*
X30648Y-58314D01*
X30527Y-58336D01*
X30406Y-58333D01*
X30286Y-58307D01*
X30176Y-58258D01*
X30075Y-58188D01*
X29991Y-58102D01*
X29924Y-57998D01*
X29880Y-57886D01*
X29858Y-57765D01*
X29860Y-57645D01*
X29885Y-57524D01*
X29933Y-57414D01*
X30002Y-57312D01*
X30088Y-57228D01*
X30191Y-57161D01*
X30303Y-57116D01*
X30424Y-57093D01*
X30544Y-57093D01*
X30665Y-57118D01*
X30775Y-57165D01*
X30878Y-57234D01*
X30962Y-57319D01*
X31031Y-57422D01*
X31076Y-57532D01*
X31076Y-57533D01*
X31100Y-57653D01*
X31100Y-57654D01*
X31100Y-57654D01*
G37*
G36*
X31100Y-59307D02*
X31098Y-59445D01*
X31071Y-59565D01*
X31022Y-59675D01*
X30951Y-59775D01*
X30864Y-59858D01*
X30760Y-59924D01*
X30648Y-59968D01*
X30527Y-59989D01*
X30406Y-59987D01*
X30286Y-59960D01*
X30176Y-59912D01*
X30075Y-59842D01*
X29991Y-59755D01*
X29924Y-59652D01*
X29880Y-59540D01*
X29858Y-59419D01*
X29860Y-59299D01*
X29885Y-59178D01*
X29933Y-59068D01*
X30002Y-58966D01*
X30088Y-58882D01*
X30191Y-58814D01*
X30303Y-58769D01*
X30424Y-58746D01*
X30544Y-58747D01*
X30665Y-58772D01*
X30775Y-58818D01*
X30878Y-58887D01*
X30962Y-58972D01*
X31031Y-59075D01*
X31076Y-59186D01*
X31076Y-59187D01*
X31100Y-59306D01*
X31100Y-59307D01*
X31100Y-59307D01*
G37*
G36*
X31100Y-60961D02*
X31098Y-61098D01*
X31071Y-61218D01*
X31022Y-61328D01*
X30951Y-61429D01*
X30864Y-61512D01*
X30760Y-61578D01*
X30648Y-61621D01*
X30527Y-61643D01*
X30406Y-61640D01*
X30286Y-61614D01*
X30176Y-61566D01*
X30075Y-61495D01*
X29991Y-61409D01*
X29924Y-61305D01*
X29880Y-61193D01*
X29858Y-61072D01*
X29860Y-60952D01*
X29885Y-60831D01*
X29933Y-60721D01*
X30002Y-60619D01*
X30088Y-60535D01*
X30191Y-60468D01*
X30303Y-60423D01*
X30424Y-60400D01*
X30544Y-60400D01*
X30665Y-60425D01*
X30775Y-60472D01*
X30878Y-60541D01*
X30962Y-60626D01*
X31031Y-60729D01*
X31076Y-60840D01*
X31076Y-60841D01*
X31100Y-60960D01*
X31100Y-60961D01*
X31100Y-60961D01*
G37*
G36*
X31100Y-62614D02*
X31098Y-62752D01*
X31071Y-62872D01*
X31022Y-62982D01*
X30951Y-63082D01*
X30864Y-63165D01*
X30760Y-63231D01*
X30648Y-63275D01*
X30527Y-63296D01*
X30406Y-63294D01*
X30286Y-63267D01*
X30176Y-63219D01*
X30075Y-63149D01*
X29991Y-63062D01*
X29924Y-62959D01*
X29880Y-62847D01*
X29858Y-62726D01*
X29860Y-62606D01*
X29885Y-62485D01*
X29933Y-62375D01*
X30002Y-62273D01*
X30088Y-62189D01*
X30191Y-62121D01*
X30303Y-62076D01*
X30424Y-62053D01*
X30544Y-62054D01*
X30665Y-62079D01*
X30775Y-62125D01*
X30878Y-62194D01*
X30962Y-62279D01*
X31031Y-62382D01*
X31076Y-62493D01*
X31076Y-62494D01*
X31100Y-62613D01*
X31100Y-62614D01*
X31100Y-62614D01*
G37*
G36*
X31100Y-64268D02*
X31098Y-64405D01*
X31071Y-64525D01*
X31022Y-64635D01*
X30951Y-64736D01*
X30864Y-64819D01*
X30760Y-64885D01*
X30648Y-64928D01*
X30527Y-64950D01*
X30406Y-64947D01*
X30286Y-64921D01*
X30176Y-64873D01*
X30075Y-64802D01*
X29991Y-64716D01*
X29924Y-64612D01*
X29880Y-64501D01*
X29858Y-64379D01*
X29860Y-64259D01*
X29885Y-64138D01*
X29933Y-64028D01*
X30002Y-63926D01*
X30088Y-63842D01*
X30191Y-63775D01*
X30303Y-63730D01*
X30424Y-63707D01*
X30544Y-63708D01*
X30665Y-63732D01*
X30775Y-63779D01*
X30878Y-63848D01*
X30962Y-63933D01*
X31031Y-64036D01*
X31076Y-64147D01*
X31076Y-64148D01*
X31100Y-64267D01*
X31100Y-64268D01*
X31100Y-64268D01*
G37*
G36*
X31100Y-65921D02*
X31098Y-66059D01*
X31071Y-66179D01*
X31022Y-66289D01*
X30951Y-66389D01*
X30864Y-66472D01*
X30760Y-66538D01*
X30648Y-66582D01*
X30527Y-66603D01*
X30406Y-66601D01*
X30286Y-66574D01*
X30176Y-66526D01*
X30075Y-66456D01*
X29991Y-66369D01*
X29924Y-66266D01*
X29880Y-66154D01*
X29858Y-66033D01*
X29860Y-65913D01*
X29885Y-65792D01*
X29933Y-65682D01*
X30002Y-65580D01*
X30088Y-65496D01*
X30191Y-65428D01*
X30303Y-65383D01*
X30424Y-65360D01*
X30544Y-65361D01*
X30665Y-65386D01*
X30775Y-65432D01*
X30878Y-65501D01*
X30962Y-65586D01*
X31031Y-65689D01*
X31076Y-65800D01*
X31076Y-65801D01*
X31100Y-65921D01*
X31100Y-65921D01*
X31100Y-65921D01*
G37*
G36*
X31100Y-67575D02*
X31098Y-67712D01*
X31071Y-67832D01*
X31022Y-67942D01*
X30951Y-68043D01*
X30864Y-68126D01*
X30760Y-68192D01*
X30648Y-68235D01*
X30527Y-68257D01*
X30406Y-68254D01*
X30286Y-68228D01*
X30176Y-68180D01*
X30075Y-68109D01*
X29991Y-68023D01*
X29924Y-67919D01*
X29880Y-67808D01*
X29858Y-67686D01*
X29860Y-67566D01*
X29885Y-67446D01*
X29933Y-67335D01*
X30002Y-67233D01*
X30088Y-67149D01*
X30191Y-67082D01*
X30303Y-67037D01*
X30424Y-67014D01*
X30544Y-67015D01*
X30665Y-67039D01*
X30775Y-67086D01*
X30878Y-67155D01*
X30962Y-67240D01*
X31031Y-67343D01*
X31076Y-67454D01*
X31076Y-67455D01*
X31100Y-67574D01*
X31100Y-67575D01*
X31100Y-67575D01*
G37*
G36*
X31100Y-69228D02*
X31098Y-69366D01*
X31071Y-69486D01*
X31022Y-69596D01*
X30951Y-69697D01*
X30864Y-69779D01*
X30760Y-69845D01*
X30648Y-69889D01*
X30527Y-69910D01*
X30406Y-69908D01*
X30286Y-69881D01*
X30176Y-69833D01*
X30075Y-69763D01*
X29991Y-69676D01*
X29924Y-69573D01*
X29880Y-69461D01*
X29858Y-69340D01*
X29860Y-69220D01*
X29885Y-69099D01*
X29933Y-68989D01*
X30002Y-68887D01*
X30088Y-68803D01*
X30191Y-68735D01*
X30303Y-68690D01*
X30424Y-68667D01*
X30544Y-68668D01*
X30665Y-68693D01*
X30775Y-68739D01*
X30878Y-68809D01*
X30962Y-68894D01*
X31031Y-68997D01*
X31076Y-69107D01*
X31076Y-69108D01*
X31100Y-69228D01*
X31100Y-69228D01*
X31100Y-69228D01*
G37*
G36*
X33266Y-51039D02*
X33264Y-51177D01*
X33236Y-51297D01*
X33187Y-51407D01*
X33116Y-51508D01*
X33029Y-51590D01*
X32925Y-51656D01*
X32813Y-51700D01*
X32692Y-51721D01*
X32572Y-51719D01*
X32451Y-51692D01*
X32341Y-51644D01*
X32240Y-51574D01*
X32157Y-51488D01*
X32090Y-51384D01*
X32046Y-51272D01*
X32023Y-51151D01*
X32025Y-51031D01*
X32051Y-50910D01*
X32098Y-50800D01*
X32168Y-50698D01*
X32253Y-50614D01*
X32357Y-50546D01*
X32468Y-50501D01*
X32589Y-50478D01*
X32709Y-50479D01*
X32830Y-50504D01*
X32941Y-50550D01*
X33043Y-50620D01*
X33128Y-50705D01*
X33196Y-50808D01*
X33242Y-50918D01*
X33242Y-50919D01*
X33265Y-51039D01*
X33266Y-51039D01*
X33266Y-51039D01*
G37*
G36*
X33266Y-52693D02*
X33264Y-52831D01*
X33236Y-52951D01*
X33187Y-53060D01*
X33116Y-53161D01*
X33029Y-53244D01*
X32925Y-53310D01*
X32813Y-53353D01*
X32692Y-53375D01*
X32572Y-53372D01*
X32451Y-53346D01*
X32341Y-53298D01*
X32240Y-53227D01*
X32157Y-53141D01*
X32090Y-53037D01*
X32046Y-52926D01*
X32023Y-52804D01*
X32025Y-52684D01*
X32051Y-52564D01*
X32098Y-52453D01*
X32168Y-52352D01*
X32253Y-52268D01*
X32357Y-52200D01*
X32468Y-52155D01*
X32589Y-52132D01*
X32709Y-52133D01*
X32830Y-52158D01*
X32941Y-52204D01*
X33043Y-52273D01*
X33128Y-52358D01*
X33196Y-52461D01*
X33242Y-52572D01*
X33242Y-52573D01*
X33265Y-52692D01*
X33266Y-52693D01*
X33266Y-52693D01*
G37*
G36*
X33266Y-54346D02*
X33264Y-54484D01*
X33236Y-54604D01*
X33187Y-54714D01*
X33116Y-54815D01*
X33029Y-54898D01*
X32925Y-54964D01*
X32813Y-55007D01*
X32692Y-55028D01*
X32572Y-55026D01*
X32451Y-54999D01*
X32341Y-54951D01*
X32240Y-54881D01*
X32157Y-54795D01*
X32090Y-54691D01*
X32046Y-54579D01*
X32023Y-54458D01*
X32025Y-54338D01*
X32051Y-54217D01*
X32098Y-54107D01*
X32168Y-54005D01*
X32253Y-53921D01*
X32357Y-53853D01*
X32468Y-53809D01*
X32589Y-53785D01*
X32709Y-53786D01*
X32830Y-53811D01*
X32941Y-53858D01*
X33043Y-53927D01*
X33128Y-54012D01*
X33196Y-54115D01*
X33242Y-54225D01*
X33242Y-54226D01*
X33265Y-54346D01*
X33266Y-54346D01*
X33266Y-54346D01*
G37*
G36*
X33266Y-56000D02*
X33264Y-56138D01*
X33236Y-56258D01*
X33187Y-56368D01*
X33116Y-56468D01*
X33029Y-56551D01*
X32925Y-56617D01*
X32813Y-56661D01*
X32692Y-56682D01*
X32572Y-56679D01*
X32451Y-56653D01*
X32341Y-56605D01*
X32240Y-56535D01*
X32157Y-56448D01*
X32090Y-56344D01*
X32046Y-56233D01*
X32023Y-56111D01*
X32025Y-55991D01*
X32051Y-55871D01*
X32098Y-55760D01*
X32168Y-55659D01*
X32253Y-55575D01*
X32357Y-55507D01*
X32468Y-55462D01*
X32589Y-55439D01*
X32709Y-55440D01*
X32830Y-55465D01*
X32941Y-55511D01*
X33043Y-55580D01*
X33128Y-55665D01*
X33196Y-55768D01*
X33242Y-55879D01*
X33242Y-55880D01*
X33265Y-55999D01*
X33266Y-56000D01*
X33266Y-56000D01*
G37*
G36*
X33266Y-57654D02*
X33264Y-57791D01*
X33236Y-57911D01*
X33187Y-58021D01*
X33116Y-58122D01*
X33029Y-58205D01*
X32925Y-58271D01*
X32813Y-58314D01*
X32692Y-58336D01*
X32572Y-58333D01*
X32451Y-58307D01*
X32341Y-58258D01*
X32240Y-58188D01*
X32157Y-58102D01*
X32090Y-57998D01*
X32046Y-57886D01*
X32023Y-57765D01*
X32025Y-57645D01*
X32051Y-57524D01*
X32098Y-57414D01*
X32168Y-57312D01*
X32253Y-57228D01*
X32357Y-57161D01*
X32468Y-57116D01*
X32589Y-57093D01*
X32709Y-57093D01*
X32830Y-57118D01*
X32941Y-57165D01*
X33043Y-57234D01*
X33128Y-57319D01*
X33196Y-57422D01*
X33242Y-57532D01*
X33242Y-57533D01*
X33265Y-57653D01*
X33266Y-57654D01*
X33266Y-57654D01*
G37*
G36*
X33266Y-59307D02*
X33264Y-59445D01*
X33236Y-59565D01*
X33187Y-59675D01*
X33116Y-59775D01*
X33029Y-59858D01*
X32925Y-59924D01*
X32813Y-59968D01*
X32692Y-59989D01*
X32572Y-59987D01*
X32451Y-59960D01*
X32341Y-59912D01*
X32240Y-59842D01*
X32157Y-59755D01*
X32090Y-59652D01*
X32046Y-59540D01*
X32023Y-59419D01*
X32025Y-59299D01*
X32051Y-59178D01*
X32098Y-59068D01*
X32168Y-58966D01*
X32253Y-58882D01*
X32357Y-58814D01*
X32468Y-58769D01*
X32589Y-58746D01*
X32709Y-58747D01*
X32830Y-58772D01*
X32941Y-58818D01*
X33043Y-58887D01*
X33128Y-58972D01*
X33196Y-59075D01*
X33242Y-59186D01*
X33242Y-59187D01*
X33265Y-59306D01*
X33266Y-59307D01*
X33266Y-59307D01*
G37*
G36*
X33266Y-60961D02*
X33264Y-61098D01*
X33236Y-61218D01*
X33187Y-61328D01*
X33116Y-61429D01*
X33029Y-61512D01*
X32925Y-61578D01*
X32813Y-61621D01*
X32692Y-61643D01*
X32572Y-61640D01*
X32451Y-61614D01*
X32341Y-61566D01*
X32240Y-61495D01*
X32157Y-61409D01*
X32090Y-61305D01*
X32046Y-61193D01*
X32023Y-61072D01*
X32025Y-60952D01*
X32051Y-60831D01*
X32098Y-60721D01*
X32168Y-60619D01*
X32253Y-60535D01*
X32357Y-60468D01*
X32468Y-60423D01*
X32589Y-60400D01*
X32709Y-60400D01*
X32830Y-60425D01*
X32941Y-60472D01*
X33043Y-60541D01*
X33128Y-60626D01*
X33196Y-60729D01*
X33242Y-60840D01*
X33242Y-60841D01*
X33265Y-60960D01*
X33266Y-60961D01*
X33266Y-60961D01*
G37*
G36*
X33266Y-62614D02*
X33264Y-62752D01*
X33236Y-62872D01*
X33187Y-62982D01*
X33116Y-63082D01*
X33029Y-63165D01*
X32925Y-63231D01*
X32813Y-63275D01*
X32692Y-63296D01*
X32572Y-63294D01*
X32451Y-63267D01*
X32341Y-63219D01*
X32240Y-63149D01*
X32157Y-63062D01*
X32090Y-62959D01*
X32046Y-62847D01*
X32023Y-62726D01*
X32025Y-62606D01*
X32051Y-62485D01*
X32098Y-62375D01*
X32168Y-62273D01*
X32253Y-62189D01*
X32357Y-62121D01*
X32468Y-62076D01*
X32589Y-62053D01*
X32709Y-62054D01*
X32830Y-62079D01*
X32941Y-62125D01*
X33043Y-62194D01*
X33128Y-62279D01*
X33196Y-62382D01*
X33242Y-62493D01*
X33242Y-62494D01*
X33265Y-62613D01*
X33266Y-62614D01*
X33266Y-62614D01*
G37*
G36*
X33266Y-64268D02*
X33264Y-64405D01*
X33236Y-64525D01*
X33187Y-64635D01*
X33116Y-64736D01*
X33029Y-64819D01*
X32925Y-64885D01*
X32813Y-64928D01*
X32692Y-64950D01*
X32572Y-64947D01*
X32451Y-64921D01*
X32341Y-64873D01*
X32240Y-64802D01*
X32157Y-64716D01*
X32090Y-64612D01*
X32046Y-64501D01*
X32023Y-64379D01*
X32025Y-64259D01*
X32051Y-64138D01*
X32098Y-64028D01*
X32168Y-63926D01*
X32253Y-63842D01*
X32357Y-63775D01*
X32468Y-63730D01*
X32589Y-63707D01*
X32709Y-63708D01*
X32830Y-63732D01*
X32941Y-63779D01*
X33043Y-63848D01*
X33128Y-63933D01*
X33196Y-64036D01*
X33242Y-64147D01*
X33242Y-64148D01*
X33265Y-64267D01*
X33266Y-64268D01*
X33266Y-64268D01*
G37*
G36*
X33266Y-65921D02*
X33264Y-66059D01*
X33236Y-66179D01*
X33187Y-66289D01*
X33116Y-66389D01*
X33029Y-66472D01*
X32925Y-66538D01*
X32813Y-66582D01*
X32692Y-66603D01*
X32572Y-66601D01*
X32451Y-66574D01*
X32341Y-66526D01*
X32240Y-66456D01*
X32157Y-66369D01*
X32090Y-66266D01*
X32046Y-66154D01*
X32023Y-66033D01*
X32025Y-65913D01*
X32051Y-65792D01*
X32098Y-65682D01*
X32168Y-65580D01*
X32253Y-65496D01*
X32357Y-65428D01*
X32468Y-65383D01*
X32589Y-65360D01*
X32709Y-65361D01*
X32830Y-65386D01*
X32941Y-65432D01*
X33043Y-65501D01*
X33128Y-65586D01*
X33196Y-65689D01*
X33242Y-65800D01*
X33242Y-65801D01*
X33265Y-65921D01*
X33266Y-65921D01*
X33266Y-65921D01*
G37*
G36*
X33266Y-67575D02*
X33264Y-67712D01*
X33236Y-67832D01*
X33187Y-67942D01*
X33116Y-68043D01*
X33029Y-68126D01*
X32925Y-68192D01*
X32813Y-68235D01*
X32692Y-68257D01*
X32572Y-68254D01*
X32451Y-68228D01*
X32341Y-68180D01*
X32240Y-68109D01*
X32157Y-68023D01*
X32090Y-67919D01*
X32046Y-67808D01*
X32023Y-67686D01*
X32025Y-67566D01*
X32051Y-67446D01*
X32098Y-67335D01*
X32168Y-67233D01*
X32253Y-67149D01*
X32357Y-67082D01*
X32468Y-67037D01*
X32589Y-67014D01*
X32709Y-67015D01*
X32830Y-67039D01*
X32941Y-67086D01*
X33043Y-67155D01*
X33128Y-67240D01*
X33196Y-67343D01*
X33242Y-67454D01*
X33242Y-67455D01*
X33265Y-67574D01*
X33266Y-67575D01*
X33266Y-67575D01*
G37*
G36*
X33266Y-69228D02*
X33264Y-69366D01*
X33236Y-69486D01*
X33187Y-69596D01*
X33116Y-69697D01*
X33029Y-69779D01*
X32925Y-69845D01*
X32813Y-69889D01*
X32692Y-69910D01*
X32572Y-69908D01*
X32451Y-69881D01*
X32341Y-69833D01*
X32240Y-69763D01*
X32157Y-69676D01*
X32090Y-69573D01*
X32046Y-69461D01*
X32023Y-69340D01*
X32025Y-69220D01*
X32051Y-69099D01*
X32098Y-68989D01*
X32168Y-68887D01*
X32253Y-68803D01*
X32357Y-68735D01*
X32468Y-68690D01*
X32589Y-68667D01*
X32709Y-68668D01*
X32830Y-68693D01*
X32941Y-68739D01*
X33043Y-68809D01*
X33128Y-68894D01*
X33196Y-68997D01*
X33242Y-69107D01*
X33242Y-69108D01*
X33265Y-69228D01*
X33266Y-69228D01*
X33266Y-69228D01*
G37*
G36*
X34660Y-68975D02*
X34659Y-69032D01*
X34647Y-69083D01*
X34627Y-69128D01*
X34597Y-69171D01*
X34561Y-69205D01*
X34517Y-69233D01*
X34471Y-69251D01*
X34419Y-69260D01*
X34369Y-69259D01*
X34318Y-69248D01*
X34273Y-69228D01*
X34230Y-69198D01*
X34195Y-69162D01*
X34167Y-69118D01*
X34149Y-69072D01*
X34139Y-69021D01*
X34140Y-68971D01*
X34151Y-68920D01*
X34170Y-68874D01*
X34200Y-68831D01*
X34235Y-68796D01*
X34279Y-68767D01*
X34325Y-68749D01*
X34377Y-68739D01*
X34426Y-68739D01*
X34478Y-68750D01*
X34523Y-68769D01*
X34567Y-68799D01*
X34601Y-68834D01*
X34630Y-68877D01*
X34631Y-68878D01*
X34649Y-68923D01*
X34660Y-68974D01*
X34660Y-68975D01*
X34660Y-68975D01*
G37*
G36*
X34860Y-56675D02*
X34859Y-56732D01*
X34847Y-56783D01*
X34827Y-56828D01*
X34797Y-56871D01*
X34761Y-56905D01*
X34717Y-56933D01*
X34671Y-56951D01*
X34619Y-56960D01*
X34569Y-56959D01*
X34518Y-56948D01*
X34473Y-56928D01*
X34430Y-56898D01*
X34395Y-56862D01*
X34367Y-56818D01*
X34349Y-56772D01*
X34339Y-56721D01*
X34340Y-56671D01*
X34351Y-56620D01*
X34370Y-56574D01*
X34400Y-56531D01*
X34435Y-56496D01*
X34479Y-56467D01*
X34525Y-56449D01*
X34577Y-56439D01*
X34626Y-56439D01*
X34678Y-56450D01*
X34723Y-56469D01*
X34767Y-56499D01*
X34801Y-56534D01*
X34830Y-56577D01*
X34831Y-56578D01*
X34849Y-56623D01*
X34860Y-56674D01*
X34860Y-56675D01*
X34860Y-56675D01*
G37*
G36*
X35860Y-70575D02*
X35859Y-70632D01*
X35847Y-70683D01*
X35827Y-70728D01*
X35797Y-70771D01*
X35761Y-70805D01*
X35717Y-70833D01*
X35671Y-70851D01*
X35619Y-70860D01*
X35569Y-70859D01*
X35518Y-70848D01*
X35473Y-70828D01*
X35430Y-70798D01*
X35395Y-70762D01*
X35367Y-70718D01*
X35349Y-70672D01*
X35339Y-70621D01*
X35340Y-70571D01*
X35351Y-70520D01*
X35370Y-70474D01*
X35400Y-70431D01*
X35435Y-70396D01*
X35479Y-70367D01*
X35525Y-70349D01*
X35577Y-70339D01*
X35626Y-70339D01*
X35678Y-70350D01*
X35723Y-70369D01*
X35767Y-70399D01*
X35801Y-70434D01*
X35830Y-70477D01*
X35831Y-70478D01*
X35849Y-70523D01*
X35860Y-70574D01*
X35860Y-70575D01*
X35860Y-70575D01*
G37*
G36*
X36050Y-52145D02*
X36049Y-52202D01*
X36037Y-52253D01*
X36017Y-52298D01*
X35987Y-52341D01*
X35951Y-52375D01*
X35907Y-52403D01*
X35861Y-52421D01*
X35809Y-52430D01*
X35759Y-52429D01*
X35708Y-52418D01*
X35663Y-52398D01*
X35620Y-52368D01*
X35585Y-52332D01*
X35557Y-52288D01*
X35539Y-52242D01*
X35529Y-52191D01*
X35530Y-52141D01*
X35541Y-52090D01*
X35560Y-52044D01*
X35590Y-52001D01*
X35625Y-51966D01*
X35669Y-51937D01*
X35715Y-51919D01*
X35767Y-51909D01*
X35816Y-51909D01*
X35868Y-51920D01*
X35913Y-51939D01*
X35957Y-51969D01*
X35991Y-52004D01*
X36020Y-52047D01*
X36021Y-52048D01*
X36039Y-52093D01*
X36050Y-52144D01*
X36050Y-52145D01*
X36050Y-52145D01*
G37*
G36*
X36180Y-49280D02*
X35419Y-49280D01*
X35419Y-48119D01*
X36180Y-48119D01*
X36180Y-49280D01*
X36180Y-49280D01*
G37*
G36*
X36760Y-54975D02*
X36759Y-55032D01*
X36747Y-55083D01*
X36727Y-55128D01*
X36697Y-55171D01*
X36661Y-55205D01*
X36617Y-55233D01*
X36571Y-55251D01*
X36519Y-55260D01*
X36469Y-55259D01*
X36418Y-55248D01*
X36373Y-55228D01*
X36330Y-55198D01*
X36295Y-55162D01*
X36267Y-55118D01*
X36249Y-55072D01*
X36239Y-55021D01*
X36240Y-54971D01*
X36251Y-54920D01*
X36270Y-54874D01*
X36300Y-54831D01*
X36335Y-54796D01*
X36379Y-54767D01*
X36425Y-54749D01*
X36477Y-54739D01*
X36526Y-54739D01*
X36578Y-54750D01*
X36623Y-54769D01*
X36667Y-54799D01*
X36701Y-54834D01*
X36730Y-54877D01*
X36731Y-54878D01*
X36749Y-54923D01*
X36760Y-54974D01*
X36760Y-54975D01*
X36760Y-54975D01*
G37*
G36*
X36880Y-54180D02*
X36119Y-54180D01*
X36119Y-53019D01*
X36880Y-53019D01*
X36880Y-54180D01*
X36880Y-54180D01*
G37*
G36*
X36980Y-50830D02*
X36319Y-50830D01*
X36319Y-49969D01*
X36980Y-49969D01*
X36980Y-50830D01*
X36980Y-50830D01*
G37*
G36*
X36980Y-52630D02*
X36319Y-52630D01*
X36319Y-51769D01*
X36980Y-51769D01*
X36980Y-52630D01*
X36980Y-52630D01*
G37*
G36*
X37580Y-49280D02*
X36819Y-49280D01*
X36819Y-48119D01*
X37580Y-48119D01*
X37580Y-49280D01*
X37580Y-49280D01*
G37*
G36*
X38035Y-58625D02*
X38034Y-58682D01*
X38022Y-58733D01*
X38002Y-58778D01*
X37972Y-58821D01*
X37936Y-58855D01*
X37892Y-58883D01*
X37846Y-58901D01*
X37794Y-58910D01*
X37744Y-58909D01*
X37693Y-58898D01*
X37648Y-58878D01*
X37605Y-58848D01*
X37570Y-58812D01*
X37542Y-58768D01*
X37524Y-58722D01*
X37514Y-58671D01*
X37515Y-58621D01*
X37526Y-58570D01*
X37545Y-58524D01*
X37575Y-58481D01*
X37610Y-58446D01*
X37654Y-58417D01*
X37700Y-58399D01*
X37752Y-58389D01*
X37801Y-58389D01*
X37853Y-58400D01*
X37898Y-58419D01*
X37942Y-58449D01*
X37976Y-58484D01*
X38005Y-58527D01*
X38006Y-58528D01*
X38024Y-58573D01*
X38035Y-58624D01*
X38035Y-58625D01*
X38035Y-58625D01*
G37*
G36*
X38280Y-50830D02*
X37619Y-50830D01*
X37619Y-49969D01*
X38280Y-49969D01*
X38280Y-50830D01*
X38280Y-50830D01*
G37*
G36*
X38280Y-52630D02*
X37619Y-52630D01*
X37619Y-51769D01*
X38280Y-51769D01*
X38280Y-52630D01*
X38280Y-52630D01*
G37*
G36*
X38280Y-54180D02*
X37519Y-54180D01*
X37519Y-53019D01*
X38280Y-53019D01*
X38280Y-54180D01*
X38280Y-54180D01*
G37*
G36*
X38721Y-48358D02*
X38720Y-48430D01*
X38705Y-48493D01*
X38680Y-48550D01*
X38642Y-48604D01*
X38597Y-48647D01*
X38542Y-48682D01*
X38484Y-48704D01*
X38420Y-48716D01*
X38357Y-48714D01*
X38294Y-48700D01*
X38237Y-48675D01*
X38183Y-48638D01*
X38140Y-48593D01*
X38104Y-48538D01*
X38081Y-48480D01*
X38069Y-48416D01*
X38070Y-48354D01*
X38084Y-48290D01*
X38108Y-48233D01*
X38145Y-48179D01*
X38190Y-48135D01*
X38245Y-48099D01*
X38302Y-48076D01*
X38367Y-48064D01*
X38429Y-48064D01*
X38493Y-48077D01*
X38550Y-48101D01*
X38604Y-48138D01*
X38648Y-48182D01*
X38649Y-48183D01*
X38684Y-48237D01*
X38708Y-48294D01*
X38708Y-48295D01*
X38721Y-48358D01*
X38721Y-48358D01*
X38721Y-48358D01*
G37*
G36*
X39488Y-48364D02*
X39488Y-48422D01*
X39476Y-48475D01*
X39455Y-48521D01*
X39424Y-48565D01*
X39387Y-48600D01*
X39342Y-48629D01*
X39295Y-48647D01*
X39242Y-48656D01*
X39191Y-48655D01*
X39139Y-48644D01*
X39092Y-48623D01*
X39048Y-48593D01*
X39013Y-48556D01*
X38984Y-48511D01*
X38965Y-48464D01*
X38955Y-48411D01*
X38956Y-48361D01*
X38967Y-48308D01*
X38987Y-48261D01*
X39018Y-48217D01*
X39054Y-48182D01*
X39099Y-48152D01*
X39146Y-48133D01*
X39199Y-48123D01*
X39249Y-48123D01*
X39302Y-48134D01*
X39349Y-48154D01*
X39393Y-48184D01*
X39429Y-48220D01*
X39459Y-48265D01*
X39478Y-48311D01*
X39488Y-48363D01*
X39488Y-48364D01*
X39488Y-48364D01*
G37*
G36*
X39665Y-50384D02*
X39664Y-50420D01*
X39657Y-50453D01*
X39644Y-50481D01*
X39625Y-50508D01*
X39602Y-50530D01*
X39574Y-50548D01*
X39545Y-50559D01*
X39511Y-50565D01*
X39481Y-50564D01*
X39447Y-50557D01*
X39419Y-50545D01*
X39391Y-50525D01*
X39370Y-50503D01*
X39352Y-50475D01*
X39340Y-50446D01*
X39334Y-50413D01*
X39335Y-50382D01*
X39342Y-50349D01*
X39354Y-50320D01*
X39373Y-50292D01*
X39395Y-50271D01*
X39423Y-50252D01*
X39452Y-50241D01*
X39485Y-50234D01*
X39516Y-50234D01*
X39549Y-50241D01*
X39578Y-50253D01*
X39606Y-50272D01*
X39627Y-50294D01*
X39646Y-50322D01*
X39646Y-50322D01*
X39658Y-50351D01*
X39665Y-50383D01*
X39665Y-50384D01*
X39665Y-50384D01*
G37*
G36*
X39665Y-51284D02*
X39664Y-51320D01*
X39657Y-51353D01*
X39644Y-51381D01*
X39625Y-51408D01*
X39602Y-51430D01*
X39574Y-51448D01*
X39545Y-51459D01*
X39511Y-51465D01*
X39481Y-51464D01*
X39447Y-51457D01*
X39419Y-51445D01*
X39391Y-51425D01*
X39370Y-51403D01*
X39352Y-51375D01*
X39340Y-51346D01*
X39334Y-51313D01*
X39335Y-51282D01*
X39342Y-51249D01*
X39354Y-51220D01*
X39373Y-51192D01*
X39395Y-51171D01*
X39423Y-51152D01*
X39452Y-51141D01*
X39485Y-51134D01*
X39516Y-51134D01*
X39549Y-51141D01*
X39578Y-51153D01*
X39606Y-51172D01*
X39627Y-51194D01*
X39646Y-51222D01*
X39646Y-51222D01*
X39658Y-51251D01*
X39665Y-51283D01*
X39665Y-51284D01*
X39665Y-51284D01*
G37*
G36*
X40276Y-48364D02*
X40275Y-48422D01*
X40263Y-48475D01*
X40243Y-48521D01*
X40212Y-48565D01*
X40175Y-48600D01*
X40129Y-48629D01*
X40082Y-48647D01*
X40029Y-48656D01*
X39979Y-48655D01*
X39926Y-48644D01*
X39880Y-48623D01*
X39835Y-48593D01*
X39800Y-48556D01*
X39771Y-48511D01*
X39753Y-48464D01*
X39743Y-48411D01*
X39743Y-48361D01*
X39755Y-48308D01*
X39775Y-48261D01*
X39805Y-48217D01*
X39841Y-48182D01*
X39886Y-48152D01*
X39933Y-48133D01*
X39986Y-48123D01*
X40037Y-48123D01*
X40090Y-48134D01*
X40136Y-48154D01*
X40181Y-48184D01*
X40216Y-48220D01*
X40246Y-48265D01*
X40265Y-48311D01*
X40276Y-48363D01*
X40276Y-48364D01*
X40276Y-48364D01*
G37*
G36*
X41063Y-48364D02*
X41062Y-48422D01*
X41051Y-48475D01*
X41030Y-48521D01*
X40999Y-48565D01*
X40962Y-48600D01*
X40917Y-48629D01*
X40870Y-48647D01*
X40817Y-48656D01*
X40766Y-48655D01*
X40713Y-48644D01*
X40667Y-48623D01*
X40623Y-48593D01*
X40588Y-48556D01*
X40559Y-48511D01*
X40540Y-48464D01*
X40530Y-48411D01*
X40531Y-48361D01*
X40542Y-48308D01*
X40562Y-48261D01*
X40592Y-48217D01*
X40629Y-48182D01*
X40674Y-48152D01*
X40720Y-48133D01*
X40774Y-48123D01*
X40824Y-48123D01*
X40877Y-48134D01*
X40923Y-48154D01*
X40968Y-48184D01*
X41004Y-48220D01*
X41034Y-48265D01*
X41053Y-48311D01*
X41063Y-48363D01*
X41063Y-48364D01*
X41063Y-48364D01*
G37*
G36*
X41560Y-60875D02*
X41559Y-60932D01*
X41547Y-60983D01*
X41527Y-61028D01*
X41497Y-61071D01*
X41461Y-61105D01*
X41417Y-61133D01*
X41371Y-61151D01*
X41319Y-61160D01*
X41269Y-61159D01*
X41218Y-61148D01*
X41173Y-61128D01*
X41130Y-61098D01*
X41095Y-61062D01*
X41067Y-61018D01*
X41049Y-60972D01*
X41039Y-60921D01*
X41040Y-60871D01*
X41051Y-60820D01*
X41070Y-60774D01*
X41100Y-60731D01*
X41135Y-60696D01*
X41179Y-60667D01*
X41225Y-60649D01*
X41277Y-60639D01*
X41326Y-60639D01*
X41378Y-60650D01*
X41423Y-60669D01*
X41467Y-60699D01*
X41501Y-60734D01*
X41530Y-60777D01*
X41531Y-60778D01*
X41549Y-60823D01*
X41560Y-60874D01*
X41560Y-60875D01*
X41560Y-60875D01*
G37*
G36*
X41660Y-62075D02*
X41659Y-62132D01*
X41647Y-62183D01*
X41627Y-62228D01*
X41597Y-62271D01*
X41561Y-62305D01*
X41517Y-62333D01*
X41471Y-62351D01*
X41419Y-62360D01*
X41369Y-62359D01*
X41318Y-62348D01*
X41273Y-62328D01*
X41230Y-62298D01*
X41195Y-62262D01*
X41167Y-62218D01*
X41149Y-62172D01*
X41139Y-62121D01*
X41140Y-62071D01*
X41151Y-62020D01*
X41170Y-61974D01*
X41200Y-61931D01*
X41235Y-61896D01*
X41279Y-61867D01*
X41325Y-61849D01*
X41377Y-61839D01*
X41426Y-61839D01*
X41478Y-61850D01*
X41523Y-61869D01*
X41567Y-61899D01*
X41601Y-61934D01*
X41630Y-61977D01*
X41631Y-61978D01*
X41649Y-62023D01*
X41660Y-62074D01*
X41660Y-62075D01*
X41660Y-62075D01*
G37*
G36*
X41730Y-50849D02*
X41729Y-50885D01*
X41722Y-50918D01*
X41709Y-50946D01*
X41690Y-50973D01*
X41667Y-50995D01*
X41639Y-51013D01*
X41610Y-51024D01*
X41576Y-51030D01*
X41546Y-51029D01*
X41512Y-51022D01*
X41484Y-51010D01*
X41456Y-50990D01*
X41435Y-50968D01*
X41417Y-50940D01*
X41405Y-50911D01*
X41399Y-50878D01*
X41400Y-50847D01*
X41407Y-50814D01*
X41419Y-50785D01*
X41438Y-50757D01*
X41460Y-50736D01*
X41488Y-50717D01*
X41517Y-50706D01*
X41550Y-50699D01*
X41581Y-50699D01*
X41614Y-50706D01*
X41643Y-50718D01*
X41671Y-50737D01*
X41692Y-50759D01*
X41711Y-50787D01*
X41711Y-50787D01*
X41723Y-50816D01*
X41730Y-50848D01*
X41730Y-50849D01*
X41730Y-50849D01*
G37*
G36*
X41949Y-48358D02*
X41948Y-48430D01*
X41934Y-48493D01*
X41908Y-48550D01*
X41871Y-48604D01*
X41826Y-48647D01*
X41770Y-48682D01*
X41712Y-48704D01*
X41648Y-48716D01*
X41586Y-48714D01*
X41522Y-48700D01*
X41465Y-48675D01*
X41411Y-48638D01*
X41368Y-48593D01*
X41333Y-48538D01*
X41310Y-48480D01*
X41298Y-48416D01*
X41299Y-48354D01*
X41312Y-48290D01*
X41337Y-48233D01*
X41374Y-48179D01*
X41418Y-48135D01*
X41473Y-48099D01*
X41531Y-48076D01*
X41595Y-48064D01*
X41657Y-48064D01*
X41721Y-48077D01*
X41778Y-48101D01*
X41833Y-48138D01*
X41876Y-48182D01*
X41877Y-48183D01*
X41913Y-48237D01*
X41936Y-48294D01*
X41937Y-48295D01*
X41949Y-48358D01*
X41949Y-48358D01*
X41949Y-48358D01*
G37*
G36*
X43255Y-71356D02*
X43253Y-71501D01*
X43224Y-71628D01*
X43172Y-71744D01*
X43097Y-71850D01*
X43005Y-71938D01*
X42896Y-72007D01*
X42777Y-72053D01*
X42649Y-72076D01*
X42522Y-72073D01*
X42395Y-72045D01*
X42279Y-71994D01*
X42172Y-71920D01*
X42084Y-71829D01*
X42014Y-71720D01*
X41967Y-71602D01*
X41943Y-71474D01*
X41945Y-71347D01*
X41972Y-71220D01*
X42022Y-71103D01*
X42096Y-70996D01*
X42186Y-70907D01*
X42295Y-70836D01*
X42413Y-70788D01*
X42541Y-70764D01*
X42667Y-70765D01*
X42795Y-70791D01*
X42912Y-70840D01*
X43020Y-70913D01*
X43109Y-71003D01*
X43181Y-71111D01*
X43181Y-71111D01*
X43229Y-71228D01*
X43255Y-71356D01*
X43255Y-71356D01*
G37*
G36*
X43755Y-52356D02*
X43753Y-52501D01*
X43724Y-52628D01*
X43672Y-52744D01*
X43597Y-52850D01*
X43505Y-52938D01*
X43396Y-53007D01*
X43277Y-53053D01*
X43149Y-53076D01*
X43022Y-53073D01*
X42895Y-53045D01*
X42779Y-52994D01*
X42672Y-52920D01*
X42584Y-52829D01*
X42514Y-52720D01*
X42467Y-52602D01*
X42443Y-52474D01*
X42445Y-52347D01*
X42472Y-52220D01*
X42522Y-52103D01*
X42596Y-51996D01*
X42686Y-51907D01*
X42795Y-51836D01*
X42913Y-51788D01*
X43041Y-51764D01*
X43167Y-51765D01*
X43295Y-51791D01*
X43412Y-51840D01*
X43520Y-51913D01*
X43609Y-52003D01*
X43681Y-52111D01*
X43681Y-52111D01*
X43729Y-52228D01*
X43755Y-52356D01*
X43755Y-52356D01*
G37*
G36*
X44089Y-49923D02*
X43241Y-49923D01*
X43241Y-48878D01*
X44089Y-48878D01*
X44089Y-49923D01*
X44089Y-49923D01*
G37*
G36*
X44936Y-48503D02*
X44935Y-48575D01*
X44920Y-48638D01*
X44895Y-48695D01*
X44857Y-48749D01*
X44812Y-48792D01*
X44757Y-48827D01*
X44699Y-48849D01*
X44635Y-48861D01*
X44572Y-48859D01*
X44508Y-48845D01*
X44451Y-48820D01*
X44398Y-48783D01*
X44355Y-48738D01*
X44319Y-48683D01*
X44296Y-48625D01*
X44284Y-48561D01*
X44285Y-48499D01*
X44299Y-48435D01*
X44323Y-48378D01*
X44360Y-48324D01*
X44405Y-48280D01*
X44460Y-48244D01*
X44517Y-48221D01*
X44582Y-48209D01*
X44644Y-48209D01*
X44708Y-48222D01*
X44765Y-48246D01*
X44819Y-48283D01*
X44863Y-48327D01*
X44864Y-48328D01*
X44899Y-48382D01*
X44923Y-48439D01*
X44923Y-48440D01*
X44936Y-48503D01*
X44936Y-48503D01*
X44936Y-48503D01*
G37*
G36*
X45920Y-48503D02*
X45919Y-48575D01*
X45904Y-48638D01*
X45879Y-48695D01*
X45841Y-48749D01*
X45796Y-48792D01*
X45741Y-48827D01*
X45683Y-48849D01*
X45619Y-48861D01*
X45557Y-48859D01*
X45493Y-48845D01*
X45436Y-48820D01*
X45382Y-48783D01*
X45339Y-48738D01*
X45303Y-48683D01*
X45280Y-48625D01*
X45269Y-48561D01*
X45270Y-48499D01*
X45283Y-48435D01*
X45308Y-48378D01*
X45345Y-48324D01*
X45389Y-48280D01*
X45444Y-48244D01*
X45501Y-48221D01*
X45566Y-48209D01*
X45628Y-48209D01*
X45692Y-48222D01*
X45749Y-48246D01*
X45804Y-48283D01*
X45847Y-48327D01*
X45848Y-48328D01*
X45884Y-48382D01*
X45907Y-48439D01*
X45907Y-48440D01*
X45920Y-48503D01*
X45920Y-48503D01*
X45920Y-48503D01*
G37*
G36*
X46904Y-48503D02*
X46903Y-48575D01*
X46889Y-48638D01*
X46863Y-48695D01*
X46826Y-48749D01*
X46781Y-48792D01*
X46725Y-48827D01*
X46667Y-48849D01*
X46603Y-48861D01*
X46541Y-48859D01*
X46477Y-48845D01*
X46420Y-48820D01*
X46366Y-48783D01*
X46323Y-48738D01*
X46288Y-48683D01*
X46265Y-48625D01*
X46253Y-48561D01*
X46254Y-48499D01*
X46267Y-48435D01*
X46292Y-48378D01*
X46329Y-48324D01*
X46373Y-48280D01*
X46428Y-48244D01*
X46486Y-48221D01*
X46550Y-48209D01*
X46612Y-48209D01*
X46676Y-48222D01*
X46733Y-48246D01*
X46788Y-48283D01*
X46832Y-48327D01*
X46832Y-48328D01*
X46868Y-48382D01*
X46891Y-48439D01*
X46892Y-48440D01*
X46904Y-48503D01*
X46904Y-48503D01*
X46904Y-48503D01*
G37*
G36*
X46905Y-67055D02*
X45844Y-67055D01*
X45844Y-66316D01*
X45844Y-66313D01*
X45844Y-66066D01*
X45844Y-66063D01*
X45844Y-65986D01*
X45844Y-65983D01*
X45844Y-65736D01*
X45844Y-65733D01*
X45844Y-64994D01*
X46905Y-64994D01*
X46905Y-65733D01*
X46905Y-65736D01*
X46905Y-65983D01*
X46905Y-65986D01*
X46905Y-66063D01*
X46905Y-66066D01*
X46905Y-66313D01*
X46905Y-66316D01*
X46905Y-67055D01*
X46905Y-67055D01*
G37*
G36*
X46930Y-52378D02*
X46928Y-52473D01*
X46909Y-52557D01*
X46876Y-52632D01*
X46826Y-52702D01*
X46766Y-52760D01*
X46694Y-52806D01*
X46616Y-52836D01*
X46532Y-52850D01*
X46449Y-52849D01*
X46365Y-52830D01*
X46289Y-52797D01*
X46219Y-52748D01*
X46161Y-52689D01*
X46115Y-52616D01*
X46084Y-52539D01*
X46069Y-52455D01*
X46070Y-52372D01*
X46088Y-52288D01*
X46120Y-52212D01*
X46169Y-52141D01*
X46228Y-52083D01*
X46300Y-52036D01*
X46377Y-52005D01*
X46461Y-51989D01*
X46544Y-51990D01*
X46628Y-52007D01*
X46704Y-52039D01*
X46776Y-52087D01*
X46834Y-52146D01*
X46881Y-52217D01*
X46882Y-52217D01*
X46913Y-52294D01*
X46913Y-52295D01*
X46930Y-52377D01*
X46930Y-52378D01*
X46930Y-52378D01*
G37*
G36*
X47230Y-60830D02*
X46169Y-60830D01*
X46169Y-60091D01*
X46169Y-60088D01*
X46169Y-59841D01*
X46169Y-59838D01*
X46169Y-59761D01*
X46169Y-59758D01*
X46169Y-59511D01*
X46169Y-59508D01*
X46169Y-58769D01*
X47230Y-58769D01*
X47230Y-59508D01*
X47230Y-59511D01*
X47230Y-59758D01*
X47230Y-59761D01*
X47230Y-59838D01*
X47230Y-59841D01*
X47230Y-60088D01*
X47230Y-60091D01*
X47230Y-60830D01*
X47230Y-60830D01*
G37*
G36*
X47930Y-52378D02*
X47928Y-52473D01*
X47909Y-52557D01*
X47876Y-52632D01*
X47826Y-52702D01*
X47766Y-52760D01*
X47694Y-52806D01*
X47616Y-52836D01*
X47532Y-52850D01*
X47449Y-52849D01*
X47365Y-52830D01*
X47289Y-52797D01*
X47219Y-52748D01*
X47161Y-52689D01*
X47115Y-52616D01*
X47084Y-52539D01*
X47069Y-52455D01*
X47070Y-52372D01*
X47088Y-52288D01*
X47120Y-52212D01*
X47169Y-52141D01*
X47228Y-52083D01*
X47300Y-52036D01*
X47377Y-52005D01*
X47461Y-51989D01*
X47544Y-51990D01*
X47628Y-52007D01*
X47704Y-52039D01*
X47776Y-52087D01*
X47834Y-52146D01*
X47881Y-52217D01*
X47882Y-52217D01*
X47913Y-52294D01*
X47913Y-52295D01*
X47930Y-52377D01*
X47930Y-52378D01*
X47930Y-52378D01*
G37*
G36*
X47948Y-49923D02*
X47100Y-49923D01*
X47100Y-48878D01*
X47948Y-48878D01*
X47948Y-49923D01*
X47948Y-49923D01*
G37*
G36*
X48530Y-71378D02*
X48528Y-71473D01*
X48509Y-71557D01*
X48476Y-71632D01*
X48426Y-71702D01*
X48366Y-71760D01*
X48294Y-71806D01*
X48216Y-71836D01*
X48132Y-71850D01*
X48049Y-71849D01*
X47965Y-71830D01*
X47889Y-71797D01*
X47819Y-71748D01*
X47761Y-71689D01*
X47715Y-71616D01*
X47684Y-71539D01*
X47669Y-71455D01*
X47670Y-71372D01*
X47688Y-71288D01*
X47720Y-71212D01*
X47769Y-71141D01*
X47828Y-71083D01*
X47900Y-71036D01*
X47977Y-71005D01*
X48061Y-70989D01*
X48144Y-70990D01*
X48228Y-71007D01*
X48304Y-71039D01*
X48376Y-71087D01*
X48434Y-71146D01*
X48481Y-71217D01*
X48482Y-71217D01*
X48513Y-71294D01*
X48513Y-71295D01*
X48530Y-71377D01*
X48530Y-71378D01*
X48530Y-71378D01*
G37*
G36*
X48785Y-53309D02*
X48567Y-54020D01*
X48372Y-54020D01*
X48154Y-53309D01*
X48785Y-53309D01*
X48785Y-53309D01*
G37*
G36*
X48785Y-54770D02*
X48154Y-54770D01*
X48372Y-54059D01*
X48567Y-54059D01*
X48785Y-54770D01*
X48785Y-54770D01*
G37*
G36*
X48930Y-52378D02*
X48928Y-52473D01*
X48909Y-52557D01*
X48876Y-52632D01*
X48826Y-52702D01*
X48766Y-52760D01*
X48694Y-52806D01*
X48616Y-52836D01*
X48532Y-52850D01*
X48449Y-52849D01*
X48365Y-52830D01*
X48289Y-52797D01*
X48219Y-52748D01*
X48161Y-52689D01*
X48115Y-52616D01*
X48084Y-52539D01*
X48069Y-52455D01*
X48070Y-52372D01*
X48088Y-52288D01*
X48120Y-52212D01*
X48169Y-52141D01*
X48228Y-52083D01*
X48300Y-52036D01*
X48377Y-52005D01*
X48461Y-51989D01*
X48544Y-51990D01*
X48628Y-52007D01*
X48704Y-52039D01*
X48776Y-52087D01*
X48834Y-52146D01*
X48881Y-52217D01*
X48882Y-52217D01*
X48913Y-52294D01*
X48913Y-52295D01*
X48930Y-52377D01*
X48930Y-52378D01*
X48930Y-52378D01*
G37*
G36*
X49530Y-71378D02*
X49528Y-71473D01*
X49509Y-71557D01*
X49476Y-71632D01*
X49426Y-71702D01*
X49366Y-71760D01*
X49294Y-71806D01*
X49216Y-71836D01*
X49132Y-71850D01*
X49049Y-71849D01*
X48965Y-71830D01*
X48889Y-71797D01*
X48819Y-71748D01*
X48761Y-71689D01*
X48715Y-71616D01*
X48684Y-71539D01*
X48669Y-71455D01*
X48670Y-71372D01*
X48688Y-71288D01*
X48720Y-71212D01*
X48769Y-71141D01*
X48828Y-71083D01*
X48900Y-71036D01*
X48977Y-71005D01*
X49061Y-70989D01*
X49144Y-70990D01*
X49228Y-71007D01*
X49304Y-71039D01*
X49376Y-71087D01*
X49434Y-71146D01*
X49481Y-71217D01*
X49482Y-71217D01*
X49513Y-71294D01*
X49513Y-71295D01*
X49530Y-71377D01*
X49530Y-71378D01*
X49530Y-71378D01*
G37*
G36*
X49815Y-53299D02*
X49597Y-54010D01*
X49402Y-54010D01*
X49184Y-53299D01*
X49815Y-53299D01*
X49815Y-53299D01*
G37*
G36*
X49815Y-54760D02*
X49184Y-54760D01*
X49402Y-54049D01*
X49597Y-54049D01*
X49815Y-54760D01*
X49815Y-54760D01*
G37*
G36*
X49930Y-52378D02*
X49928Y-52473D01*
X49909Y-52557D01*
X49876Y-52632D01*
X49826Y-52702D01*
X49766Y-52760D01*
X49694Y-52806D01*
X49616Y-52836D01*
X49532Y-52850D01*
X49449Y-52849D01*
X49365Y-52830D01*
X49289Y-52797D01*
X49219Y-52748D01*
X49161Y-52689D01*
X49115Y-52616D01*
X49084Y-52539D01*
X49069Y-52455D01*
X49070Y-52372D01*
X49088Y-52288D01*
X49120Y-52212D01*
X49169Y-52141D01*
X49228Y-52083D01*
X49300Y-52036D01*
X49377Y-52005D01*
X49461Y-51989D01*
X49544Y-51990D01*
X49628Y-52007D01*
X49704Y-52039D01*
X49776Y-52087D01*
X49834Y-52146D01*
X49881Y-52217D01*
X49882Y-52217D01*
X49913Y-52294D01*
X49913Y-52295D01*
X49930Y-52377D01*
X49930Y-52378D01*
X49930Y-52378D01*
G37*
G36*
X50230Y-65330D02*
X49491Y-65330D01*
X49488Y-65330D01*
X49241Y-65330D01*
X49238Y-65330D01*
X49161Y-65330D01*
X49158Y-65330D01*
X48911Y-65330D01*
X48908Y-65330D01*
X48169Y-65330D01*
X48169Y-64269D01*
X48908Y-64269D01*
X48911Y-64269D01*
X49158Y-64269D01*
X49161Y-64269D01*
X49238Y-64269D01*
X49241Y-64269D01*
X49488Y-64269D01*
X49491Y-64269D01*
X50230Y-64269D01*
X50230Y-65330D01*
X50230Y-65330D01*
G37*
G36*
X50255Y-61730D02*
X49516Y-61730D01*
X49513Y-61730D01*
X49266Y-61730D01*
X49263Y-61730D01*
X49186Y-61730D01*
X49183Y-61730D01*
X48936Y-61730D01*
X48933Y-61730D01*
X48194Y-61730D01*
X48194Y-60669D01*
X48933Y-60669D01*
X48936Y-60669D01*
X49183Y-60669D01*
X49186Y-60669D01*
X49263Y-60669D01*
X49266Y-60669D01*
X49513Y-60669D01*
X49516Y-60669D01*
X50255Y-60669D01*
X50255Y-61730D01*
X50255Y-61730D01*
G37*
G36*
X50530Y-71378D02*
X50528Y-71473D01*
X50509Y-71557D01*
X50476Y-71632D01*
X50426Y-71702D01*
X50366Y-71760D01*
X50294Y-71806D01*
X50216Y-71836D01*
X50132Y-71850D01*
X50049Y-71849D01*
X49965Y-71830D01*
X49889Y-71797D01*
X49819Y-71748D01*
X49761Y-71689D01*
X49715Y-71616D01*
X49684Y-71539D01*
X49669Y-71455D01*
X49670Y-71372D01*
X49688Y-71288D01*
X49720Y-71212D01*
X49769Y-71141D01*
X49828Y-71083D01*
X49900Y-71036D01*
X49977Y-71005D01*
X50061Y-70989D01*
X50144Y-70990D01*
X50228Y-71007D01*
X50304Y-71039D01*
X50376Y-71087D01*
X50434Y-71146D01*
X50481Y-71217D01*
X50482Y-71217D01*
X50513Y-71294D01*
X50513Y-71295D01*
X50530Y-71377D01*
X50530Y-71378D01*
X50530Y-71378D01*
G37*
G36*
X50860Y-53304D02*
X50642Y-54015D01*
X50447Y-54015D01*
X50229Y-53304D01*
X50860Y-53304D01*
X50860Y-53304D01*
G37*
G36*
X50860Y-54765D02*
X50229Y-54765D01*
X50447Y-54054D01*
X50642Y-54054D01*
X50860Y-54765D01*
X50860Y-54765D01*
G37*
G36*
X50890Y-67959D02*
X50889Y-67995D01*
X50882Y-68028D01*
X50869Y-68056D01*
X50850Y-68083D01*
X50827Y-68105D01*
X50799Y-68123D01*
X50770Y-68134D01*
X50736Y-68140D01*
X50706Y-68139D01*
X50672Y-68132D01*
X50644Y-68120D01*
X50616Y-68100D01*
X50595Y-68078D01*
X50577Y-68050D01*
X50565Y-68021D01*
X50559Y-67988D01*
X50560Y-67957D01*
X50567Y-67924D01*
X50579Y-67895D01*
X50598Y-67867D01*
X50620Y-67846D01*
X50648Y-67827D01*
X50677Y-67816D01*
X50710Y-67809D01*
X50741Y-67809D01*
X50774Y-67816D01*
X50803Y-67828D01*
X50831Y-67847D01*
X50852Y-67869D01*
X50871Y-67897D01*
X50871Y-67897D01*
X50883Y-67926D01*
X50890Y-67958D01*
X50890Y-67959D01*
X50890Y-67959D01*
G37*
G36*
X50919Y-49823D02*
X50071Y-49823D01*
X50071Y-48778D01*
X50919Y-48778D01*
X50919Y-49823D01*
X50919Y-49823D01*
G37*
G36*
X50930Y-52378D02*
X50928Y-52473D01*
X50909Y-52557D01*
X50876Y-52632D01*
X50826Y-52702D01*
X50766Y-52760D01*
X50694Y-52806D01*
X50616Y-52836D01*
X50532Y-52850D01*
X50449Y-52849D01*
X50365Y-52830D01*
X50289Y-52797D01*
X50219Y-52748D01*
X50161Y-52689D01*
X50115Y-52616D01*
X50084Y-52539D01*
X50069Y-52455D01*
X50070Y-52372D01*
X50088Y-52288D01*
X50120Y-52212D01*
X50169Y-52141D01*
X50228Y-52083D01*
X50300Y-52036D01*
X50377Y-52005D01*
X50461Y-51989D01*
X50544Y-51990D01*
X50628Y-52007D01*
X50704Y-52039D01*
X50776Y-52087D01*
X50834Y-52146D01*
X50881Y-52217D01*
X50882Y-52217D01*
X50913Y-52294D01*
X50913Y-52295D01*
X50930Y-52377D01*
X50930Y-52378D01*
X50930Y-52378D01*
G37*
G36*
X50960Y-64275D02*
X50959Y-64332D01*
X50947Y-64383D01*
X50927Y-64428D01*
X50897Y-64471D01*
X50861Y-64505D01*
X50817Y-64533D01*
X50771Y-64551D01*
X50719Y-64560D01*
X50669Y-64559D01*
X50618Y-64548D01*
X50573Y-64528D01*
X50530Y-64498D01*
X50495Y-64462D01*
X50467Y-64418D01*
X50449Y-64372D01*
X50439Y-64321D01*
X50440Y-64271D01*
X50451Y-64220D01*
X50470Y-64174D01*
X50500Y-64131D01*
X50535Y-64096D01*
X50579Y-64067D01*
X50625Y-64049D01*
X50677Y-64039D01*
X50726Y-64039D01*
X50778Y-64050D01*
X50823Y-64069D01*
X50867Y-64099D01*
X50901Y-64134D01*
X50930Y-64177D01*
X50931Y-64178D01*
X50949Y-64223D01*
X50960Y-64274D01*
X50960Y-64275D01*
X50960Y-64275D01*
G37*
G36*
X51530Y-71378D02*
X51528Y-71473D01*
X51509Y-71557D01*
X51476Y-71632D01*
X51426Y-71702D01*
X51366Y-71760D01*
X51294Y-71806D01*
X51216Y-71836D01*
X51132Y-71850D01*
X51049Y-71849D01*
X50965Y-71830D01*
X50889Y-71797D01*
X50819Y-71748D01*
X50761Y-71689D01*
X50715Y-71616D01*
X50684Y-71539D01*
X50669Y-71455D01*
X50670Y-71372D01*
X50688Y-71288D01*
X50720Y-71212D01*
X50769Y-71141D01*
X50828Y-71083D01*
X50900Y-71036D01*
X50977Y-71005D01*
X51061Y-70989D01*
X51144Y-70990D01*
X51228Y-71007D01*
X51304Y-71039D01*
X51376Y-71087D01*
X51434Y-71146D01*
X51481Y-71217D01*
X51482Y-71217D01*
X51513Y-71294D01*
X51513Y-71295D01*
X51530Y-71377D01*
X51530Y-71378D01*
X51530Y-71378D01*
G37*
G36*
X51560Y-65175D02*
X51559Y-65232D01*
X51547Y-65283D01*
X51527Y-65328D01*
X51497Y-65371D01*
X51461Y-65405D01*
X51417Y-65433D01*
X51371Y-65451D01*
X51319Y-65460D01*
X51269Y-65459D01*
X51218Y-65448D01*
X51173Y-65428D01*
X51130Y-65398D01*
X51095Y-65362D01*
X51067Y-65318D01*
X51049Y-65272D01*
X51039Y-65221D01*
X51040Y-65171D01*
X51051Y-65120D01*
X51070Y-65074D01*
X51100Y-65031D01*
X51135Y-64996D01*
X51179Y-64967D01*
X51225Y-64949D01*
X51277Y-64939D01*
X51326Y-64939D01*
X51378Y-64950D01*
X51423Y-64969D01*
X51467Y-64999D01*
X51501Y-65034D01*
X51530Y-65077D01*
X51531Y-65078D01*
X51549Y-65123D01*
X51560Y-65174D01*
X51560Y-65175D01*
X51560Y-65175D01*
G37*
G36*
X51766Y-48403D02*
X51765Y-48475D01*
X51750Y-48538D01*
X51725Y-48595D01*
X51687Y-48649D01*
X51642Y-48692D01*
X51587Y-48727D01*
X51529Y-48749D01*
X51465Y-48761D01*
X51402Y-48759D01*
X51338Y-48745D01*
X51281Y-48720D01*
X51228Y-48683D01*
X51185Y-48638D01*
X51149Y-48583D01*
X51126Y-48525D01*
X51114Y-48461D01*
X51115Y-48399D01*
X51129Y-48335D01*
X51153Y-48278D01*
X51190Y-48224D01*
X51235Y-48180D01*
X51290Y-48144D01*
X51347Y-48121D01*
X51412Y-48109D01*
X51474Y-48109D01*
X51538Y-48122D01*
X51595Y-48146D01*
X51649Y-48183D01*
X51693Y-48227D01*
X51694Y-48228D01*
X51729Y-48282D01*
X51753Y-48339D01*
X51753Y-48340D01*
X51766Y-48403D01*
X51766Y-48403D01*
X51766Y-48403D01*
G37*
G36*
X51930Y-52378D02*
X51928Y-52473D01*
X51909Y-52557D01*
X51876Y-52632D01*
X51826Y-52702D01*
X51766Y-52760D01*
X51694Y-52806D01*
X51616Y-52836D01*
X51532Y-52850D01*
X51449Y-52849D01*
X51365Y-52830D01*
X51289Y-52797D01*
X51219Y-52748D01*
X51161Y-52689D01*
X51115Y-52616D01*
X51084Y-52539D01*
X51069Y-52455D01*
X51070Y-52372D01*
X51088Y-52288D01*
X51120Y-52212D01*
X51169Y-52141D01*
X51228Y-52083D01*
X51300Y-52036D01*
X51377Y-52005D01*
X51461Y-51989D01*
X51544Y-51990D01*
X51628Y-52007D01*
X51704Y-52039D01*
X51776Y-52087D01*
X51834Y-52146D01*
X51881Y-52217D01*
X51882Y-52217D01*
X51913Y-52294D01*
X51913Y-52295D01*
X51930Y-52377D01*
X51930Y-52378D01*
X51930Y-52378D01*
G37*
G36*
X52470Y-68769D02*
X52252Y-69480D01*
X52057Y-69480D01*
X51839Y-68769D01*
X52470Y-68769D01*
X52470Y-68769D01*
G37*
G36*
X52470Y-70230D02*
X51839Y-70230D01*
X52057Y-69519D01*
X52252Y-69519D01*
X52470Y-70230D01*
X52470Y-70230D01*
G37*
G36*
X52530Y-71378D02*
X52528Y-71473D01*
X52509Y-71557D01*
X52476Y-71632D01*
X52426Y-71702D01*
X52366Y-71760D01*
X52294Y-71806D01*
X52216Y-71836D01*
X52132Y-71850D01*
X52049Y-71849D01*
X51965Y-71830D01*
X51889Y-71797D01*
X51819Y-71748D01*
X51761Y-71689D01*
X51715Y-71616D01*
X51684Y-71539D01*
X51669Y-71455D01*
X51670Y-71372D01*
X51688Y-71288D01*
X51720Y-71212D01*
X51769Y-71141D01*
X51828Y-71083D01*
X51900Y-71036D01*
X51977Y-71005D01*
X52061Y-70989D01*
X52144Y-70990D01*
X52228Y-71007D01*
X52304Y-71039D01*
X52376Y-71087D01*
X52434Y-71146D01*
X52481Y-71217D01*
X52482Y-71217D01*
X52513Y-71294D01*
X52513Y-71295D01*
X52530Y-71377D01*
X52530Y-71378D01*
X52530Y-71378D01*
G37*
G36*
X52660Y-64485D02*
X52049Y-64485D01*
X52049Y-64074D01*
X52660Y-64074D01*
X52660Y-64485D01*
X52660Y-64485D01*
G37*
G36*
X52660Y-65235D02*
X52049Y-65235D01*
X52049Y-64824D01*
X52660Y-64824D01*
X52660Y-65235D01*
X52660Y-65235D01*
G37*
G36*
X52750Y-48403D02*
X52749Y-48475D01*
X52734Y-48538D01*
X52709Y-48595D01*
X52671Y-48649D01*
X52626Y-48692D01*
X52571Y-48727D01*
X52513Y-48749D01*
X52449Y-48761D01*
X52387Y-48759D01*
X52323Y-48745D01*
X52266Y-48720D01*
X52212Y-48683D01*
X52169Y-48638D01*
X52133Y-48583D01*
X52110Y-48525D01*
X52099Y-48461D01*
X52100Y-48399D01*
X52113Y-48335D01*
X52138Y-48278D01*
X52175Y-48224D01*
X52219Y-48180D01*
X52274Y-48144D01*
X52331Y-48121D01*
X52396Y-48109D01*
X52458Y-48109D01*
X52522Y-48122D01*
X52579Y-48146D01*
X52634Y-48183D01*
X52677Y-48227D01*
X52678Y-48228D01*
X52714Y-48282D01*
X52737Y-48339D01*
X52737Y-48340D01*
X52750Y-48403D01*
X52750Y-48403D01*
X52750Y-48403D01*
G37*
G36*
X52930Y-52378D02*
X52928Y-52473D01*
X52909Y-52557D01*
X52876Y-52632D01*
X52826Y-52702D01*
X52766Y-52760D01*
X52694Y-52806D01*
X52616Y-52836D01*
X52532Y-52850D01*
X52449Y-52849D01*
X52365Y-52830D01*
X52289Y-52797D01*
X52219Y-52748D01*
X52161Y-52689D01*
X52115Y-52616D01*
X52084Y-52539D01*
X52069Y-52455D01*
X52070Y-52372D01*
X52088Y-52288D01*
X52120Y-52212D01*
X52169Y-52141D01*
X52228Y-52083D01*
X52300Y-52036D01*
X52377Y-52005D01*
X52461Y-51989D01*
X52544Y-51990D01*
X52628Y-52007D01*
X52704Y-52039D01*
X52776Y-52087D01*
X52834Y-52146D01*
X52881Y-52217D01*
X52882Y-52217D01*
X52913Y-52294D01*
X52913Y-52295D01*
X52930Y-52377D01*
X52930Y-52378D01*
X52930Y-52378D01*
G37*
G36*
X53085Y-59314D02*
X53084Y-59350D01*
X53077Y-59383D01*
X53064Y-59411D01*
X53045Y-59438D01*
X53022Y-59460D01*
X52994Y-59478D01*
X52965Y-59489D01*
X52931Y-59495D01*
X52901Y-59494D01*
X52867Y-59487D01*
X52839Y-59475D01*
X52811Y-59455D01*
X52790Y-59433D01*
X52772Y-59405D01*
X52760Y-59376D01*
X52754Y-59343D01*
X52755Y-59312D01*
X52762Y-59279D01*
X52774Y-59250D01*
X52793Y-59222D01*
X52815Y-59201D01*
X52843Y-59182D01*
X52872Y-59171D01*
X52905Y-59164D01*
X52936Y-59164D01*
X52969Y-59171D01*
X52998Y-59183D01*
X53026Y-59202D01*
X53047Y-59224D01*
X53066Y-59252D01*
X53066Y-59252D01*
X53078Y-59281D01*
X53085Y-59313D01*
X53085Y-59314D01*
X53085Y-59314D01*
G37*
G36*
X53265Y-64634D02*
X53264Y-64670D01*
X53257Y-64703D01*
X53244Y-64731D01*
X53225Y-64758D01*
X53202Y-64780D01*
X53174Y-64798D01*
X53145Y-64809D01*
X53111Y-64815D01*
X53081Y-64814D01*
X53047Y-64807D01*
X53019Y-64795D01*
X52991Y-64775D01*
X52970Y-64753D01*
X52952Y-64725D01*
X52940Y-64696D01*
X52934Y-64663D01*
X52935Y-64632D01*
X52942Y-64599D01*
X52954Y-64570D01*
X52973Y-64542D01*
X52995Y-64521D01*
X53023Y-64502D01*
X53052Y-64491D01*
X53085Y-64484D01*
X53116Y-64484D01*
X53149Y-64491D01*
X53178Y-64503D01*
X53206Y-64522D01*
X53227Y-64544D01*
X53246Y-64572D01*
X53246Y-64572D01*
X53258Y-64601D01*
X53265Y-64633D01*
X53265Y-64634D01*
X53265Y-64634D01*
G37*
G36*
X53530Y-71378D02*
X53528Y-71473D01*
X53509Y-71557D01*
X53476Y-71632D01*
X53426Y-71702D01*
X53366Y-71760D01*
X53294Y-71806D01*
X53216Y-71836D01*
X53132Y-71850D01*
X53049Y-71849D01*
X52965Y-71830D01*
X52889Y-71797D01*
X52819Y-71748D01*
X52761Y-71689D01*
X52715Y-71616D01*
X52684Y-71539D01*
X52669Y-71455D01*
X52670Y-71372D01*
X52688Y-71288D01*
X52720Y-71212D01*
X52769Y-71141D01*
X52828Y-71083D01*
X52900Y-71036D01*
X52977Y-71005D01*
X53061Y-70989D01*
X53144Y-70990D01*
X53228Y-71007D01*
X53304Y-71039D01*
X53376Y-71087D01*
X53434Y-71146D01*
X53481Y-71217D01*
X53482Y-71217D01*
X53513Y-71294D01*
X53513Y-71295D01*
X53530Y-71377D01*
X53530Y-71378D01*
X53530Y-71378D01*
G37*
G36*
X53734Y-48403D02*
X53733Y-48475D01*
X53719Y-48538D01*
X53693Y-48595D01*
X53656Y-48649D01*
X53611Y-48692D01*
X53555Y-48727D01*
X53497Y-48749D01*
X53433Y-48761D01*
X53371Y-48759D01*
X53307Y-48745D01*
X53250Y-48720D01*
X53196Y-48683D01*
X53153Y-48638D01*
X53118Y-48583D01*
X53095Y-48525D01*
X53083Y-48461D01*
X53084Y-48399D01*
X53097Y-48335D01*
X53122Y-48278D01*
X53159Y-48224D01*
X53203Y-48180D01*
X53258Y-48144D01*
X53316Y-48121D01*
X53380Y-48109D01*
X53442Y-48109D01*
X53506Y-48122D01*
X53563Y-48146D01*
X53618Y-48183D01*
X53662Y-48227D01*
X53662Y-48228D01*
X53698Y-48282D01*
X53721Y-48339D01*
X53722Y-48340D01*
X53734Y-48403D01*
X53734Y-48403D01*
X53734Y-48403D01*
G37*
G36*
X53930Y-52378D02*
X53928Y-52473D01*
X53909Y-52557D01*
X53876Y-52632D01*
X53826Y-52702D01*
X53766Y-52760D01*
X53694Y-52806D01*
X53616Y-52836D01*
X53532Y-52850D01*
X53449Y-52849D01*
X53365Y-52830D01*
X53289Y-52797D01*
X53219Y-52748D01*
X53161Y-52689D01*
X53115Y-52616D01*
X53084Y-52539D01*
X53069Y-52455D01*
X53070Y-52372D01*
X53088Y-52288D01*
X53120Y-52212D01*
X53169Y-52141D01*
X53228Y-52083D01*
X53300Y-52036D01*
X53377Y-52005D01*
X53461Y-51989D01*
X53544Y-51990D01*
X53628Y-52007D01*
X53704Y-52039D01*
X53776Y-52087D01*
X53834Y-52146D01*
X53881Y-52217D01*
X53882Y-52217D01*
X53913Y-52294D01*
X53913Y-52295D01*
X53930Y-52377D01*
X53930Y-52378D01*
X53930Y-52378D01*
G37*
G36*
X53952Y-64443D02*
X53497Y-64443D01*
X53497Y-64106D01*
X53952Y-64106D01*
X53952Y-64443D01*
X53952Y-64443D01*
G37*
G36*
X53952Y-64818D02*
X53497Y-64818D01*
X53497Y-64481D01*
X53952Y-64481D01*
X53952Y-64818D01*
X53952Y-64818D01*
G37*
G36*
X53952Y-65193D02*
X53497Y-65193D01*
X53497Y-64856D01*
X53952Y-64856D01*
X53952Y-65193D01*
X53952Y-65193D01*
G37*
G36*
X54405Y-67430D02*
X53794Y-67430D01*
X53794Y-67019D01*
X54405Y-67019D01*
X54405Y-67430D01*
X54405Y-67430D01*
G37*
G36*
X54405Y-68180D02*
X53794Y-68180D01*
X53794Y-67769D01*
X54405Y-67769D01*
X54405Y-68180D01*
X54405Y-68180D01*
G37*
G36*
X54530Y-71378D02*
X54528Y-71473D01*
X54509Y-71557D01*
X54476Y-71632D01*
X54426Y-71702D01*
X54366Y-71760D01*
X54294Y-71806D01*
X54216Y-71836D01*
X54132Y-71850D01*
X54049Y-71849D01*
X53965Y-71830D01*
X53889Y-71797D01*
X53819Y-71748D01*
X53761Y-71689D01*
X53715Y-71616D01*
X53684Y-71539D01*
X53669Y-71455D01*
X53670Y-71372D01*
X53688Y-71288D01*
X53720Y-71212D01*
X53769Y-71141D01*
X53828Y-71083D01*
X53900Y-71036D01*
X53977Y-71005D01*
X54061Y-70989D01*
X54144Y-70990D01*
X54228Y-71007D01*
X54304Y-71039D01*
X54376Y-71087D01*
X54434Y-71146D01*
X54481Y-71217D01*
X54482Y-71217D01*
X54513Y-71294D01*
X54513Y-71295D01*
X54530Y-71377D01*
X54530Y-71378D01*
X54530Y-71378D01*
G37*
G36*
X54778Y-49823D02*
X53930Y-49823D01*
X53930Y-48778D01*
X54778Y-48778D01*
X54778Y-49823D01*
X54778Y-49823D01*
G37*
G36*
X54952Y-64443D02*
X54497Y-64443D01*
X54497Y-64106D01*
X54952Y-64106D01*
X54952Y-64443D01*
X54952Y-64443D01*
G37*
G36*
X54952Y-64818D02*
X54497Y-64818D01*
X54497Y-64481D01*
X54952Y-64481D01*
X54952Y-64818D01*
X54952Y-64818D01*
G37*
G36*
X54952Y-65193D02*
X54497Y-65193D01*
X54497Y-64856D01*
X54952Y-64856D01*
X54952Y-65193D01*
X54952Y-65193D01*
G37*
G36*
X55530Y-52378D02*
X55528Y-52473D01*
X55509Y-52557D01*
X55476Y-52632D01*
X55426Y-52702D01*
X55366Y-52760D01*
X55294Y-52806D01*
X55216Y-52836D01*
X55132Y-52850D01*
X55049Y-52849D01*
X54965Y-52830D01*
X54889Y-52797D01*
X54819Y-52748D01*
X54761Y-52689D01*
X54715Y-52616D01*
X54684Y-52539D01*
X54669Y-52455D01*
X54670Y-52372D01*
X54688Y-52288D01*
X54720Y-52212D01*
X54769Y-52141D01*
X54828Y-52083D01*
X54900Y-52036D01*
X54977Y-52005D01*
X55061Y-51989D01*
X55144Y-51990D01*
X55228Y-52007D01*
X55304Y-52039D01*
X55376Y-52087D01*
X55434Y-52146D01*
X55481Y-52217D01*
X55482Y-52217D01*
X55513Y-52294D01*
X55513Y-52295D01*
X55530Y-52377D01*
X55530Y-52378D01*
X55530Y-52378D01*
G37*
G36*
X55530Y-71378D02*
X55528Y-71473D01*
X55509Y-71557D01*
X55476Y-71632D01*
X55426Y-71702D01*
X55366Y-71760D01*
X55294Y-71806D01*
X55216Y-71836D01*
X55132Y-71850D01*
X55049Y-71849D01*
X54965Y-71830D01*
X54889Y-71797D01*
X54819Y-71748D01*
X54761Y-71689D01*
X54715Y-71616D01*
X54684Y-71539D01*
X54669Y-71455D01*
X54670Y-71372D01*
X54688Y-71288D01*
X54720Y-71212D01*
X54769Y-71141D01*
X54828Y-71083D01*
X54900Y-71036D01*
X54977Y-71005D01*
X55061Y-70989D01*
X55144Y-70990D01*
X55228Y-71007D01*
X55304Y-71039D01*
X55376Y-71087D01*
X55434Y-71146D01*
X55481Y-71217D01*
X55482Y-71217D01*
X55513Y-71294D01*
X55513Y-71295D01*
X55530Y-71377D01*
X55530Y-71378D01*
X55530Y-71378D01*
G37*
G36*
X55585Y-68774D02*
X55367Y-69485D01*
X55172Y-69485D01*
X54954Y-68774D01*
X55585Y-68774D01*
X55585Y-68774D01*
G37*
G36*
X55585Y-70235D02*
X54954Y-70235D01*
X55172Y-69524D01*
X55367Y-69524D01*
X55585Y-70235D01*
X55585Y-70235D01*
G37*
G36*
X56230Y-64430D02*
X55619Y-64430D01*
X55619Y-64019D01*
X56230Y-64019D01*
X56230Y-64430D01*
X56230Y-64430D01*
G37*
G36*
X56230Y-65180D02*
X55619Y-65180D01*
X55619Y-64769D01*
X56230Y-64769D01*
X56230Y-65180D01*
X56230Y-65180D01*
G37*
G36*
X56260Y-69125D02*
X56259Y-69182D01*
X56247Y-69233D01*
X56227Y-69278D01*
X56197Y-69321D01*
X56161Y-69355D01*
X56117Y-69383D01*
X56071Y-69401D01*
X56019Y-69410D01*
X55969Y-69409D01*
X55918Y-69398D01*
X55873Y-69378D01*
X55830Y-69348D01*
X55795Y-69312D01*
X55767Y-69268D01*
X55749Y-69222D01*
X55739Y-69171D01*
X55740Y-69121D01*
X55751Y-69070D01*
X55770Y-69024D01*
X55800Y-68981D01*
X55835Y-68946D01*
X55879Y-68917D01*
X55925Y-68899D01*
X55977Y-68889D01*
X56026Y-68889D01*
X56078Y-68900D01*
X56123Y-68919D01*
X56167Y-68949D01*
X56201Y-68984D01*
X56230Y-69027D01*
X56231Y-69028D01*
X56249Y-69073D01*
X56260Y-69124D01*
X56260Y-69125D01*
X56260Y-69125D01*
G37*
G36*
X56275Y-60504D02*
X56274Y-60540D01*
X56267Y-60573D01*
X56254Y-60601D01*
X56235Y-60628D01*
X56212Y-60650D01*
X56184Y-60668D01*
X56155Y-60679D01*
X56121Y-60685D01*
X56091Y-60684D01*
X56057Y-60677D01*
X56029Y-60665D01*
X56001Y-60645D01*
X55980Y-60623D01*
X55962Y-60595D01*
X55950Y-60566D01*
X55944Y-60533D01*
X55945Y-60502D01*
X55952Y-60469D01*
X55964Y-60440D01*
X55983Y-60412D01*
X56005Y-60391D01*
X56033Y-60372D01*
X56062Y-60361D01*
X56095Y-60354D01*
X56126Y-60354D01*
X56159Y-60361D01*
X56188Y-60373D01*
X56216Y-60392D01*
X56237Y-60414D01*
X56256Y-60442D01*
X56256Y-60442D01*
X56268Y-60471D01*
X56275Y-60503D01*
X56275Y-60504D01*
X56275Y-60504D01*
G37*
G36*
X56315Y-56434D02*
X56314Y-56470D01*
X56307Y-56503D01*
X56294Y-56531D01*
X56275Y-56558D01*
X56252Y-56580D01*
X56224Y-56598D01*
X56195Y-56609D01*
X56161Y-56615D01*
X56131Y-56614D01*
X56097Y-56607D01*
X56069Y-56595D01*
X56041Y-56575D01*
X56020Y-56553D01*
X56002Y-56525D01*
X55990Y-56496D01*
X55984Y-56463D01*
X55985Y-56432D01*
X55992Y-56399D01*
X56004Y-56370D01*
X56023Y-56342D01*
X56045Y-56321D01*
X56073Y-56302D01*
X56102Y-56291D01*
X56135Y-56284D01*
X56166Y-56284D01*
X56199Y-56291D01*
X56228Y-56303D01*
X56256Y-56322D01*
X56277Y-56344D01*
X56296Y-56372D01*
X56296Y-56372D01*
X56308Y-56401D01*
X56315Y-56433D01*
X56315Y-56434D01*
X56315Y-56434D01*
G37*
G36*
X56445Y-53309D02*
X56227Y-54020D01*
X56032Y-54020D01*
X55814Y-53309D01*
X56445Y-53309D01*
X56445Y-53309D01*
G37*
G36*
X56445Y-54770D02*
X55814Y-54770D01*
X56032Y-54059D01*
X56227Y-54059D01*
X56445Y-54770D01*
X56445Y-54770D01*
G37*
G36*
X56530Y-52378D02*
X56528Y-52473D01*
X56509Y-52557D01*
X56476Y-52632D01*
X56426Y-52702D01*
X56366Y-52760D01*
X56294Y-52806D01*
X56216Y-52836D01*
X56132Y-52850D01*
X56049Y-52849D01*
X55965Y-52830D01*
X55889Y-52797D01*
X55819Y-52748D01*
X55761Y-52689D01*
X55715Y-52616D01*
X55684Y-52539D01*
X55669Y-52455D01*
X55670Y-52372D01*
X55688Y-52288D01*
X55720Y-52212D01*
X55769Y-52141D01*
X55828Y-52083D01*
X55900Y-52036D01*
X55977Y-52005D01*
X56061Y-51989D01*
X56144Y-51990D01*
X56228Y-52007D01*
X56304Y-52039D01*
X56376Y-52087D01*
X56434Y-52146D01*
X56481Y-52217D01*
X56482Y-52217D01*
X56513Y-52294D01*
X56513Y-52295D01*
X56530Y-52377D01*
X56530Y-52378D01*
X56530Y-52378D01*
G37*
G36*
X56905Y-64960D02*
X56904Y-65017D01*
X56892Y-65068D01*
X56872Y-65113D01*
X56842Y-65156D01*
X56806Y-65190D01*
X56762Y-65218D01*
X56716Y-65236D01*
X56664Y-65245D01*
X56614Y-65244D01*
X56563Y-65233D01*
X56518Y-65213D01*
X56475Y-65183D01*
X56440Y-65147D01*
X56412Y-65103D01*
X56394Y-65057D01*
X56384Y-65006D01*
X56385Y-64956D01*
X56396Y-64905D01*
X56415Y-64859D01*
X56445Y-64816D01*
X56480Y-64781D01*
X56524Y-64752D01*
X56570Y-64734D01*
X56622Y-64724D01*
X56671Y-64724D01*
X56723Y-64735D01*
X56768Y-64754D01*
X56812Y-64784D01*
X56846Y-64819D01*
X56875Y-64862D01*
X56876Y-64863D01*
X56894Y-64908D01*
X56905Y-64959D01*
X56905Y-64960D01*
X56905Y-64960D01*
G37*
G36*
X57100Y-64075D02*
X57099Y-64132D01*
X57087Y-64183D01*
X57067Y-64228D01*
X57037Y-64271D01*
X57001Y-64305D01*
X56957Y-64333D01*
X56911Y-64351D01*
X56859Y-64360D01*
X56809Y-64359D01*
X56758Y-64348D01*
X56713Y-64328D01*
X56670Y-64298D01*
X56635Y-64262D01*
X56607Y-64218D01*
X56589Y-64172D01*
X56579Y-64121D01*
X56580Y-64071D01*
X56591Y-64020D01*
X56610Y-63974D01*
X56640Y-63931D01*
X56675Y-63896D01*
X56719Y-63867D01*
X56765Y-63849D01*
X56817Y-63839D01*
X56866Y-63839D01*
X56918Y-63850D01*
X56963Y-63869D01*
X57007Y-63899D01*
X57041Y-63934D01*
X57070Y-63977D01*
X57071Y-63978D01*
X57089Y-64023D01*
X57100Y-64074D01*
X57100Y-64075D01*
X57100Y-64075D01*
G37*
G36*
X57530Y-52378D02*
X57528Y-52473D01*
X57509Y-52557D01*
X57476Y-52632D01*
X57426Y-52702D01*
X57366Y-52760D01*
X57294Y-52806D01*
X57216Y-52836D01*
X57132Y-52850D01*
X57049Y-52849D01*
X56965Y-52830D01*
X56889Y-52797D01*
X56819Y-52748D01*
X56761Y-52689D01*
X56715Y-52616D01*
X56684Y-52539D01*
X56669Y-52455D01*
X56670Y-52372D01*
X56688Y-52288D01*
X56720Y-52212D01*
X56769Y-52141D01*
X56828Y-52083D01*
X56900Y-52036D01*
X56977Y-52005D01*
X57061Y-51989D01*
X57144Y-51990D01*
X57228Y-52007D01*
X57304Y-52039D01*
X57376Y-52087D01*
X57434Y-52146D01*
X57481Y-52217D01*
X57482Y-52217D01*
X57513Y-52294D01*
X57513Y-52295D01*
X57530Y-52377D01*
X57530Y-52378D01*
X57530Y-52378D01*
G37*
G36*
X57530Y-71378D02*
X57528Y-71473D01*
X57509Y-71557D01*
X57476Y-71632D01*
X57426Y-71702D01*
X57366Y-71760D01*
X57294Y-71806D01*
X57216Y-71836D01*
X57132Y-71850D01*
X57049Y-71849D01*
X56965Y-71830D01*
X56889Y-71797D01*
X56819Y-71748D01*
X56761Y-71689D01*
X56715Y-71616D01*
X56684Y-71539D01*
X56669Y-71455D01*
X56670Y-71372D01*
X56688Y-71288D01*
X56720Y-71212D01*
X56769Y-71141D01*
X56828Y-71083D01*
X56900Y-71036D01*
X56977Y-71005D01*
X57061Y-70989D01*
X57144Y-70990D01*
X57228Y-71007D01*
X57304Y-71039D01*
X57376Y-71087D01*
X57434Y-71146D01*
X57481Y-71217D01*
X57482Y-71217D01*
X57513Y-71294D01*
X57513Y-71295D01*
X57530Y-71377D01*
X57530Y-71378D01*
X57530Y-71378D01*
G37*
G36*
X58325Y-55584D02*
X58324Y-55620D01*
X58317Y-55653D01*
X58304Y-55681D01*
X58285Y-55708D01*
X58262Y-55730D01*
X58234Y-55748D01*
X58205Y-55759D01*
X58171Y-55765D01*
X58141Y-55764D01*
X58107Y-55757D01*
X58079Y-55745D01*
X58051Y-55725D01*
X58030Y-55703D01*
X58012Y-55675D01*
X58000Y-55646D01*
X57994Y-55613D01*
X57995Y-55582D01*
X58002Y-55549D01*
X58014Y-55520D01*
X58033Y-55492D01*
X58055Y-55471D01*
X58083Y-55452D01*
X58112Y-55441D01*
X58145Y-55434D01*
X58176Y-55434D01*
X58209Y-55441D01*
X58238Y-55453D01*
X58266Y-55472D01*
X58287Y-55494D01*
X58306Y-55522D01*
X58306Y-55522D01*
X58318Y-55551D01*
X58325Y-55583D01*
X58325Y-55584D01*
X58325Y-55584D01*
G37*
G36*
X58435Y-53319D02*
X58217Y-54030D01*
X58022Y-54030D01*
X57804Y-53319D01*
X58435Y-53319D01*
X58435Y-53319D01*
G37*
G36*
X58435Y-54780D02*
X57804Y-54780D01*
X58022Y-54069D01*
X58217Y-54069D01*
X58435Y-54780D01*
X58435Y-54780D01*
G37*
G36*
X58530Y-52378D02*
X58528Y-52473D01*
X58509Y-52557D01*
X58476Y-52632D01*
X58426Y-52702D01*
X58366Y-52760D01*
X58294Y-52806D01*
X58216Y-52836D01*
X58132Y-52850D01*
X58049Y-52849D01*
X57965Y-52830D01*
X57889Y-52797D01*
X57819Y-52748D01*
X57761Y-52689D01*
X57715Y-52616D01*
X57684Y-52539D01*
X57669Y-52455D01*
X57670Y-52372D01*
X57688Y-52288D01*
X57720Y-52212D01*
X57769Y-52141D01*
X57828Y-52083D01*
X57900Y-52036D01*
X57977Y-52005D01*
X58061Y-51989D01*
X58144Y-51990D01*
X58228Y-52007D01*
X58304Y-52039D01*
X58376Y-52087D01*
X58434Y-52146D01*
X58481Y-52217D01*
X58482Y-52217D01*
X58513Y-52294D01*
X58513Y-52295D01*
X58530Y-52377D01*
X58530Y-52378D01*
X58530Y-52378D01*
G37*
G36*
X58530Y-71378D02*
X58528Y-71473D01*
X58509Y-71557D01*
X58476Y-71632D01*
X58426Y-71702D01*
X58366Y-71760D01*
X58294Y-71806D01*
X58216Y-71836D01*
X58132Y-71850D01*
X58049Y-71849D01*
X57965Y-71830D01*
X57889Y-71797D01*
X57819Y-71748D01*
X57761Y-71689D01*
X57715Y-71616D01*
X57684Y-71539D01*
X57669Y-71455D01*
X57670Y-71372D01*
X57688Y-71288D01*
X57720Y-71212D01*
X57769Y-71141D01*
X57828Y-71083D01*
X57900Y-71036D01*
X57977Y-71005D01*
X58061Y-70989D01*
X58144Y-70990D01*
X58228Y-71007D01*
X58304Y-71039D01*
X58376Y-71087D01*
X58434Y-71146D01*
X58481Y-71217D01*
X58482Y-71217D01*
X58513Y-71294D01*
X58513Y-71295D01*
X58530Y-71377D01*
X58530Y-71378D01*
X58530Y-71378D01*
G37*
G36*
X58898Y-64366D02*
X57381Y-64366D01*
X57381Y-63833D01*
X58898Y-63833D01*
X58898Y-64366D01*
X58898Y-64366D01*
G37*
G36*
X58898Y-65468D02*
X57381Y-65468D01*
X57381Y-64935D01*
X58898Y-64935D01*
X58898Y-65468D01*
X58898Y-65468D01*
G37*
G36*
X59295Y-59254D02*
X59294Y-59290D01*
X59287Y-59323D01*
X59274Y-59351D01*
X59255Y-59378D01*
X59232Y-59400D01*
X59204Y-59418D01*
X59175Y-59429D01*
X59141Y-59435D01*
X59111Y-59434D01*
X59077Y-59427D01*
X59049Y-59415D01*
X59021Y-59395D01*
X59000Y-59373D01*
X58982Y-59345D01*
X58970Y-59316D01*
X58964Y-59283D01*
X58965Y-59252D01*
X58972Y-59219D01*
X58984Y-59190D01*
X59003Y-59162D01*
X59025Y-59141D01*
X59053Y-59122D01*
X59082Y-59111D01*
X59115Y-59104D01*
X59146Y-59104D01*
X59179Y-59111D01*
X59208Y-59123D01*
X59236Y-59142D01*
X59257Y-59164D01*
X59276Y-59192D01*
X59276Y-59192D01*
X59288Y-59221D01*
X59295Y-59253D01*
X59295Y-59254D01*
X59295Y-59254D01*
G37*
G36*
X59315Y-56384D02*
X59314Y-56420D01*
X59307Y-56453D01*
X59294Y-56481D01*
X59275Y-56508D01*
X59252Y-56530D01*
X59224Y-56548D01*
X59195Y-56559D01*
X59161Y-56565D01*
X59131Y-56564D01*
X59097Y-56557D01*
X59069Y-56545D01*
X59041Y-56525D01*
X59020Y-56503D01*
X59002Y-56475D01*
X58990Y-56446D01*
X58984Y-56413D01*
X58985Y-56382D01*
X58992Y-56349D01*
X59004Y-56320D01*
X59023Y-56292D01*
X59045Y-56271D01*
X59073Y-56252D01*
X59102Y-56241D01*
X59135Y-56234D01*
X59166Y-56234D01*
X59199Y-56241D01*
X59228Y-56253D01*
X59256Y-56272D01*
X59277Y-56294D01*
X59296Y-56322D01*
X59296Y-56322D01*
X59308Y-56351D01*
X59315Y-56383D01*
X59315Y-56384D01*
X59315Y-56384D01*
G37*
G36*
X59465Y-53309D02*
X59247Y-54020D01*
X59052Y-54020D01*
X58834Y-53309D01*
X59465Y-53309D01*
X59465Y-53309D01*
G37*
G36*
X59465Y-54770D02*
X58834Y-54770D01*
X59052Y-54059D01*
X59247Y-54059D01*
X59465Y-54770D01*
X59465Y-54770D01*
G37*
G36*
X59530Y-52378D02*
X59528Y-52473D01*
X59509Y-52557D01*
X59476Y-52632D01*
X59426Y-52702D01*
X59366Y-52760D01*
X59294Y-52806D01*
X59216Y-52836D01*
X59132Y-52850D01*
X59049Y-52849D01*
X58965Y-52830D01*
X58889Y-52797D01*
X58819Y-52748D01*
X58761Y-52689D01*
X58715Y-52616D01*
X58684Y-52539D01*
X58669Y-52455D01*
X58670Y-52372D01*
X58688Y-52288D01*
X58720Y-52212D01*
X58769Y-52141D01*
X58828Y-52083D01*
X58900Y-52036D01*
X58977Y-52005D01*
X59061Y-51989D01*
X59144Y-51990D01*
X59228Y-52007D01*
X59304Y-52039D01*
X59376Y-52087D01*
X59434Y-52146D01*
X59481Y-52217D01*
X59482Y-52217D01*
X59513Y-52294D01*
X59513Y-52295D01*
X59530Y-52377D01*
X59530Y-52378D01*
X59530Y-52378D01*
G37*
G36*
X59530Y-71378D02*
X59528Y-71473D01*
X59509Y-71557D01*
X59476Y-71632D01*
X59426Y-71702D01*
X59366Y-71760D01*
X59294Y-71806D01*
X59216Y-71836D01*
X59132Y-71850D01*
X59049Y-71849D01*
X58965Y-71830D01*
X58889Y-71797D01*
X58819Y-71748D01*
X58761Y-71689D01*
X58715Y-71616D01*
X58684Y-71539D01*
X58669Y-71455D01*
X58670Y-71372D01*
X58688Y-71288D01*
X58720Y-71212D01*
X58769Y-71141D01*
X58828Y-71083D01*
X58900Y-71036D01*
X58977Y-71005D01*
X59061Y-70989D01*
X59144Y-70990D01*
X59228Y-71007D01*
X59304Y-71039D01*
X59376Y-71087D01*
X59434Y-71146D01*
X59481Y-71217D01*
X59482Y-71217D01*
X59513Y-71294D01*
X59513Y-71295D01*
X59530Y-71377D01*
X59530Y-71378D01*
X59530Y-71378D01*
G37*
G36*
X59555Y-65144D02*
X59554Y-65180D01*
X59547Y-65213D01*
X59534Y-65241D01*
X59515Y-65268D01*
X59492Y-65290D01*
X59464Y-65308D01*
X59435Y-65319D01*
X59401Y-65325D01*
X59371Y-65324D01*
X59337Y-65317D01*
X59309Y-65305D01*
X59281Y-65285D01*
X59260Y-65263D01*
X59242Y-65235D01*
X59230Y-65206D01*
X59224Y-65173D01*
X59225Y-65142D01*
X59232Y-65109D01*
X59244Y-65080D01*
X59263Y-65052D01*
X59285Y-65031D01*
X59313Y-65012D01*
X59342Y-65001D01*
X59375Y-64994D01*
X59406Y-64994D01*
X59439Y-65001D01*
X59468Y-65013D01*
X59496Y-65032D01*
X59517Y-65054D01*
X59536Y-65082D01*
X59536Y-65082D01*
X59548Y-65111D01*
X59555Y-65143D01*
X59555Y-65144D01*
X59555Y-65144D01*
G37*
G36*
X60255Y-56454D02*
X60254Y-56490D01*
X60247Y-56523D01*
X60234Y-56551D01*
X60215Y-56578D01*
X60192Y-56600D01*
X60164Y-56618D01*
X60135Y-56629D01*
X60101Y-56635D01*
X60071Y-56634D01*
X60037Y-56627D01*
X60009Y-56615D01*
X59981Y-56595D01*
X59960Y-56573D01*
X59942Y-56545D01*
X59930Y-56516D01*
X59924Y-56483D01*
X59925Y-56452D01*
X59932Y-56419D01*
X59944Y-56390D01*
X59963Y-56362D01*
X59985Y-56341D01*
X60013Y-56322D01*
X60042Y-56311D01*
X60075Y-56304D01*
X60106Y-56304D01*
X60139Y-56311D01*
X60168Y-56323D01*
X60196Y-56342D01*
X60217Y-56364D01*
X60236Y-56392D01*
X60236Y-56392D01*
X60248Y-56421D01*
X60255Y-56453D01*
X60255Y-56454D01*
X60255Y-56454D01*
G37*
G36*
X60255Y-59284D02*
X60254Y-59320D01*
X60247Y-59353D01*
X60234Y-59381D01*
X60215Y-59408D01*
X60192Y-59430D01*
X60164Y-59448D01*
X60135Y-59459D01*
X60101Y-59465D01*
X60071Y-59464D01*
X60037Y-59457D01*
X60009Y-59445D01*
X59981Y-59425D01*
X59960Y-59403D01*
X59942Y-59375D01*
X59930Y-59346D01*
X59924Y-59313D01*
X59925Y-59282D01*
X59932Y-59249D01*
X59944Y-59220D01*
X59963Y-59192D01*
X59985Y-59171D01*
X60013Y-59152D01*
X60042Y-59141D01*
X60075Y-59134D01*
X60106Y-59134D01*
X60139Y-59141D01*
X60168Y-59153D01*
X60196Y-59172D01*
X60217Y-59194D01*
X60236Y-59222D01*
X60236Y-59222D01*
X60248Y-59251D01*
X60255Y-59283D01*
X60255Y-59284D01*
X60255Y-59284D01*
G37*
G36*
X60405Y-53309D02*
X60187Y-54020D01*
X59992Y-54020D01*
X59774Y-53309D01*
X60405Y-53309D01*
X60405Y-53309D01*
G37*
G36*
X60405Y-54770D02*
X59774Y-54770D01*
X59992Y-54059D01*
X60187Y-54059D01*
X60405Y-54770D01*
X60405Y-54770D01*
G37*
G36*
X60530Y-52378D02*
X60528Y-52473D01*
X60509Y-52557D01*
X60476Y-52632D01*
X60426Y-52702D01*
X60366Y-52760D01*
X60294Y-52806D01*
X60216Y-52836D01*
X60132Y-52850D01*
X60049Y-52849D01*
X59965Y-52830D01*
X59889Y-52797D01*
X59819Y-52748D01*
X59761Y-52689D01*
X59715Y-52616D01*
X59684Y-52539D01*
X59669Y-52455D01*
X59670Y-52372D01*
X59688Y-52288D01*
X59720Y-52212D01*
X59769Y-52141D01*
X59828Y-52083D01*
X59900Y-52036D01*
X59977Y-52005D01*
X60061Y-51989D01*
X60144Y-51990D01*
X60228Y-52007D01*
X60304Y-52039D01*
X60376Y-52087D01*
X60434Y-52146D01*
X60481Y-52217D01*
X60482Y-52217D01*
X60513Y-52294D01*
X60513Y-52295D01*
X60530Y-52377D01*
X60530Y-52378D01*
X60530Y-52378D01*
G37*
G36*
X60530Y-71378D02*
X60528Y-71473D01*
X60509Y-71557D01*
X60476Y-71632D01*
X60426Y-71702D01*
X60366Y-71760D01*
X60294Y-71806D01*
X60216Y-71836D01*
X60132Y-71850D01*
X60049Y-71849D01*
X59965Y-71830D01*
X59889Y-71797D01*
X59819Y-71748D01*
X59761Y-71689D01*
X59715Y-71616D01*
X59684Y-71539D01*
X59669Y-71455D01*
X59670Y-71372D01*
X59688Y-71288D01*
X59720Y-71212D01*
X59769Y-71141D01*
X59828Y-71083D01*
X59900Y-71036D01*
X59977Y-71005D01*
X60061Y-70989D01*
X60144Y-70990D01*
X60228Y-71007D01*
X60304Y-71039D01*
X60376Y-71087D01*
X60434Y-71146D01*
X60481Y-71217D01*
X60482Y-71217D01*
X60513Y-71294D01*
X60513Y-71295D01*
X60530Y-71377D01*
X60530Y-71378D01*
X60530Y-71378D01*
G37*
G36*
X60625Y-63554D02*
X60624Y-63590D01*
X60617Y-63623D01*
X60604Y-63651D01*
X60585Y-63678D01*
X60562Y-63700D01*
X60534Y-63718D01*
X60505Y-63729D01*
X60471Y-63735D01*
X60441Y-63734D01*
X60407Y-63727D01*
X60379Y-63715D01*
X60351Y-63695D01*
X60330Y-63673D01*
X60312Y-63645D01*
X60300Y-63616D01*
X60294Y-63583D01*
X60295Y-63552D01*
X60302Y-63519D01*
X60314Y-63490D01*
X60333Y-63462D01*
X60355Y-63441D01*
X60383Y-63422D01*
X60412Y-63411D01*
X60445Y-63404D01*
X60476Y-63404D01*
X60509Y-63411D01*
X60538Y-63423D01*
X60566Y-63442D01*
X60587Y-63464D01*
X60606Y-63492D01*
X60606Y-63492D01*
X60618Y-63521D01*
X60625Y-63553D01*
X60625Y-63554D01*
X60625Y-63554D01*
G37*
G36*
X60685Y-56204D02*
X60684Y-56240D01*
X60677Y-56273D01*
X60664Y-56301D01*
X60645Y-56328D01*
X60622Y-56350D01*
X60594Y-56368D01*
X60565Y-56379D01*
X60531Y-56385D01*
X60501Y-56384D01*
X60467Y-56377D01*
X60439Y-56365D01*
X60411Y-56345D01*
X60390Y-56323D01*
X60372Y-56295D01*
X60360Y-56266D01*
X60354Y-56233D01*
X60355Y-56202D01*
X60362Y-56169D01*
X60374Y-56140D01*
X60393Y-56112D01*
X60415Y-56091D01*
X60443Y-56072D01*
X60472Y-56061D01*
X60505Y-56054D01*
X60536Y-56054D01*
X60569Y-56061D01*
X60598Y-56073D01*
X60626Y-56092D01*
X60647Y-56114D01*
X60666Y-56142D01*
X60666Y-56142D01*
X60678Y-56171D01*
X60685Y-56203D01*
X60685Y-56204D01*
X60685Y-56204D01*
G37*
G36*
X60800Y-59968D02*
X60539Y-59968D01*
X60539Y-59457D01*
X60800Y-59457D01*
X60800Y-59968D01*
X60800Y-59968D01*
G37*
G36*
X60800Y-62468D02*
X60539Y-62468D01*
X60539Y-61957D01*
X60800Y-61957D01*
X60800Y-62468D01*
X60800Y-62468D01*
G37*
G36*
X60815Y-58424D02*
X60814Y-58460D01*
X60807Y-58493D01*
X60794Y-58521D01*
X60775Y-58548D01*
X60752Y-58570D01*
X60724Y-58588D01*
X60695Y-58599D01*
X60661Y-58605D01*
X60631Y-58604D01*
X60597Y-58597D01*
X60569Y-58585D01*
X60541Y-58565D01*
X60520Y-58543D01*
X60502Y-58515D01*
X60490Y-58486D01*
X60484Y-58453D01*
X60485Y-58422D01*
X60492Y-58389D01*
X60504Y-58360D01*
X60523Y-58332D01*
X60545Y-58311D01*
X60573Y-58292D01*
X60602Y-58281D01*
X60635Y-58274D01*
X60666Y-58274D01*
X60699Y-58281D01*
X60728Y-58293D01*
X60756Y-58312D01*
X60777Y-58334D01*
X60796Y-58362D01*
X60796Y-58362D01*
X60808Y-58391D01*
X60815Y-58423D01*
X60815Y-58424D01*
X60815Y-58424D01*
G37*
G36*
X60825Y-59114D02*
X60824Y-59150D01*
X60817Y-59183D01*
X60804Y-59211D01*
X60785Y-59238D01*
X60762Y-59260D01*
X60734Y-59278D01*
X60705Y-59289D01*
X60671Y-59295D01*
X60641Y-59294D01*
X60607Y-59287D01*
X60579Y-59275D01*
X60551Y-59255D01*
X60530Y-59233D01*
X60512Y-59205D01*
X60500Y-59176D01*
X60494Y-59143D01*
X60495Y-59112D01*
X60502Y-59079D01*
X60514Y-59050D01*
X60533Y-59022D01*
X60555Y-59001D01*
X60583Y-58982D01*
X60612Y-58971D01*
X60645Y-58964D01*
X60676Y-58964D01*
X60709Y-58971D01*
X60738Y-58983D01*
X60766Y-59002D01*
X60787Y-59024D01*
X60806Y-59052D01*
X60806Y-59052D01*
X60818Y-59081D01*
X60825Y-59113D01*
X60825Y-59114D01*
X60825Y-59114D01*
G37*
G36*
X61300Y-59968D02*
X61039Y-59968D01*
X61039Y-59457D01*
X61300Y-59457D01*
X61300Y-59968D01*
X61300Y-59968D01*
G37*
G36*
X61300Y-62468D02*
X61039Y-62468D01*
X61039Y-61957D01*
X61300Y-61957D01*
X61300Y-62468D01*
X61300Y-62468D01*
G37*
G36*
X61530Y-52378D02*
X61528Y-52473D01*
X61509Y-52557D01*
X61476Y-52632D01*
X61426Y-52702D01*
X61366Y-52760D01*
X61294Y-52806D01*
X61216Y-52836D01*
X61132Y-52850D01*
X61049Y-52849D01*
X60965Y-52830D01*
X60889Y-52797D01*
X60819Y-52748D01*
X60761Y-52689D01*
X60715Y-52616D01*
X60684Y-52539D01*
X60669Y-52455D01*
X60670Y-52372D01*
X60688Y-52288D01*
X60720Y-52212D01*
X60769Y-52141D01*
X60828Y-52083D01*
X60900Y-52036D01*
X60977Y-52005D01*
X61061Y-51989D01*
X61144Y-51990D01*
X61228Y-52007D01*
X61304Y-52039D01*
X61376Y-52087D01*
X61434Y-52146D01*
X61481Y-52217D01*
X61482Y-52217D01*
X61513Y-52294D01*
X61513Y-52295D01*
X61530Y-52377D01*
X61530Y-52378D01*
X61530Y-52378D01*
G37*
G36*
X61530Y-71378D02*
X61528Y-71473D01*
X61509Y-71557D01*
X61476Y-71632D01*
X61426Y-71702D01*
X61366Y-71760D01*
X61294Y-71806D01*
X61216Y-71836D01*
X61132Y-71850D01*
X61049Y-71849D01*
X60965Y-71830D01*
X60889Y-71797D01*
X60819Y-71748D01*
X60761Y-71689D01*
X60715Y-71616D01*
X60684Y-71539D01*
X60669Y-71455D01*
X60670Y-71372D01*
X60688Y-71288D01*
X60720Y-71212D01*
X60769Y-71141D01*
X60828Y-71083D01*
X60900Y-71036D01*
X60977Y-71005D01*
X61061Y-70989D01*
X61144Y-70990D01*
X61228Y-71007D01*
X61304Y-71039D01*
X61376Y-71087D01*
X61434Y-71146D01*
X61481Y-71217D01*
X61482Y-71217D01*
X61513Y-71294D01*
X61513Y-71295D01*
X61530Y-71377D01*
X61530Y-71378D01*
X61530Y-71378D01*
G37*
G36*
X61800Y-59968D02*
X61539Y-59968D01*
X61539Y-59457D01*
X61800Y-59457D01*
X61800Y-59968D01*
X61800Y-59968D01*
G37*
G36*
X61800Y-62468D02*
X61539Y-62468D01*
X61539Y-61957D01*
X61800Y-61957D01*
X61800Y-62468D01*
X61800Y-62468D01*
G37*
G36*
X62015Y-57324D02*
X62014Y-57360D01*
X62007Y-57393D01*
X61994Y-57421D01*
X61975Y-57448D01*
X61952Y-57470D01*
X61924Y-57488D01*
X61895Y-57499D01*
X61861Y-57505D01*
X61831Y-57504D01*
X61797Y-57497D01*
X61769Y-57485D01*
X61741Y-57465D01*
X61720Y-57443D01*
X61702Y-57415D01*
X61690Y-57386D01*
X61684Y-57353D01*
X61685Y-57322D01*
X61692Y-57289D01*
X61704Y-57260D01*
X61723Y-57232D01*
X61745Y-57211D01*
X61773Y-57192D01*
X61802Y-57181D01*
X61835Y-57174D01*
X61866Y-57174D01*
X61899Y-57181D01*
X61928Y-57193D01*
X61956Y-57212D01*
X61977Y-57234D01*
X61996Y-57262D01*
X61996Y-57262D01*
X62008Y-57291D01*
X62015Y-57323D01*
X62015Y-57324D01*
X62015Y-57324D01*
G37*
G36*
X62300Y-59968D02*
X62039Y-59968D01*
X62039Y-59457D01*
X62300Y-59457D01*
X62300Y-59968D01*
X62300Y-59968D01*
G37*
G36*
X62300Y-62468D02*
X62039Y-62468D01*
X62039Y-61957D01*
X62300Y-61957D01*
X62300Y-62468D01*
X62300Y-62468D01*
G37*
G36*
X62365Y-57084D02*
X62364Y-57120D01*
X62357Y-57153D01*
X62344Y-57181D01*
X62325Y-57208D01*
X62302Y-57230D01*
X62274Y-57248D01*
X62245Y-57259D01*
X62211Y-57265D01*
X62181Y-57264D01*
X62147Y-57257D01*
X62119Y-57245D01*
X62091Y-57225D01*
X62070Y-57203D01*
X62052Y-57175D01*
X62040Y-57146D01*
X62034Y-57113D01*
X62035Y-57082D01*
X62042Y-57049D01*
X62054Y-57020D01*
X62073Y-56992D01*
X62095Y-56971D01*
X62123Y-56952D01*
X62152Y-56941D01*
X62185Y-56934D01*
X62216Y-56934D01*
X62249Y-56941D01*
X62278Y-56953D01*
X62306Y-56972D01*
X62327Y-56994D01*
X62346Y-57022D01*
X62346Y-57022D01*
X62358Y-57051D01*
X62365Y-57083D01*
X62365Y-57084D01*
X62365Y-57084D01*
G37*
G36*
X62485Y-53299D02*
X62267Y-54010D01*
X62072Y-54010D01*
X61854Y-53299D01*
X62485Y-53299D01*
X62485Y-53299D01*
G37*
G36*
X62485Y-54760D02*
X61854Y-54760D01*
X62072Y-54049D01*
X62267Y-54049D01*
X62485Y-54760D01*
X62485Y-54760D01*
G37*
G36*
X62530Y-52378D02*
X62528Y-52473D01*
X62509Y-52557D01*
X62476Y-52632D01*
X62426Y-52702D01*
X62366Y-52760D01*
X62294Y-52806D01*
X62216Y-52836D01*
X62132Y-52850D01*
X62049Y-52849D01*
X61965Y-52830D01*
X61889Y-52797D01*
X61819Y-52748D01*
X61761Y-52689D01*
X61715Y-52616D01*
X61684Y-52539D01*
X61669Y-52455D01*
X61670Y-52372D01*
X61688Y-52288D01*
X61720Y-52212D01*
X61769Y-52141D01*
X61828Y-52083D01*
X61900Y-52036D01*
X61977Y-52005D01*
X62061Y-51989D01*
X62144Y-51990D01*
X62228Y-52007D01*
X62304Y-52039D01*
X62376Y-52087D01*
X62434Y-52146D01*
X62481Y-52217D01*
X62482Y-52217D01*
X62513Y-52294D01*
X62513Y-52295D01*
X62530Y-52377D01*
X62530Y-52378D01*
X62530Y-52378D01*
G37*
G36*
X62530Y-71378D02*
X62528Y-71473D01*
X62509Y-71557D01*
X62476Y-71632D01*
X62426Y-71702D01*
X62366Y-71760D01*
X62294Y-71806D01*
X62216Y-71836D01*
X62132Y-71850D01*
X62049Y-71849D01*
X61965Y-71830D01*
X61889Y-71797D01*
X61819Y-71748D01*
X61761Y-71689D01*
X61715Y-71616D01*
X61684Y-71539D01*
X61669Y-71455D01*
X61670Y-71372D01*
X61688Y-71288D01*
X61720Y-71212D01*
X61769Y-71141D01*
X61828Y-71083D01*
X61900Y-71036D01*
X61977Y-71005D01*
X62061Y-70989D01*
X62144Y-70990D01*
X62228Y-71007D01*
X62304Y-71039D01*
X62376Y-71087D01*
X62434Y-71146D01*
X62481Y-71217D01*
X62482Y-71217D01*
X62513Y-71294D01*
X62513Y-71295D01*
X62530Y-71377D01*
X62530Y-71378D01*
X62530Y-71378D01*
G37*
G36*
X62715Y-62294D02*
X62714Y-62330D01*
X62707Y-62363D01*
X62694Y-62391D01*
X62675Y-62418D01*
X62652Y-62440D01*
X62624Y-62458D01*
X62595Y-62469D01*
X62561Y-62475D01*
X62531Y-62474D01*
X62497Y-62467D01*
X62469Y-62455D01*
X62441Y-62435D01*
X62420Y-62413D01*
X62402Y-62385D01*
X62390Y-62356D01*
X62384Y-62323D01*
X62385Y-62292D01*
X62392Y-62259D01*
X62404Y-62230D01*
X62423Y-62202D01*
X62445Y-62181D01*
X62473Y-62162D01*
X62502Y-62151D01*
X62535Y-62144D01*
X62566Y-62144D01*
X62599Y-62151D01*
X62628Y-62163D01*
X62656Y-62182D01*
X62677Y-62204D01*
X62696Y-62232D01*
X62696Y-62232D01*
X62708Y-62261D01*
X62715Y-62293D01*
X62715Y-62294D01*
X62715Y-62294D01*
G37*
G36*
X62755Y-56484D02*
X62754Y-56520D01*
X62747Y-56553D01*
X62734Y-56581D01*
X62715Y-56608D01*
X62692Y-56630D01*
X62664Y-56648D01*
X62635Y-56659D01*
X62601Y-56665D01*
X62571Y-56664D01*
X62537Y-56657D01*
X62509Y-56645D01*
X62481Y-56625D01*
X62460Y-56603D01*
X62442Y-56575D01*
X62430Y-56546D01*
X62424Y-56513D01*
X62425Y-56482D01*
X62432Y-56449D01*
X62444Y-56420D01*
X62463Y-56392D01*
X62485Y-56371D01*
X62513Y-56352D01*
X62542Y-56341D01*
X62575Y-56334D01*
X62606Y-56334D01*
X62639Y-56341D01*
X62668Y-56353D01*
X62696Y-56372D01*
X62717Y-56394D01*
X62736Y-56422D01*
X62736Y-56422D01*
X62748Y-56451D01*
X62755Y-56483D01*
X62755Y-56484D01*
X62755Y-56484D01*
G37*
G36*
X63260Y-60005D02*
X63259Y-60062D01*
X63247Y-60113D01*
X63227Y-60158D01*
X63197Y-60201D01*
X63161Y-60235D01*
X63117Y-60263D01*
X63071Y-60281D01*
X63019Y-60290D01*
X62969Y-60289D01*
X62918Y-60278D01*
X62873Y-60258D01*
X62830Y-60228D01*
X62795Y-60192D01*
X62767Y-60148D01*
X62749Y-60102D01*
X62739Y-60051D01*
X62740Y-60001D01*
X62751Y-59950D01*
X62770Y-59904D01*
X62800Y-59861D01*
X62835Y-59826D01*
X62879Y-59797D01*
X62925Y-59779D01*
X62977Y-59769D01*
X63026Y-59769D01*
X63078Y-59780D01*
X63123Y-59799D01*
X63167Y-59829D01*
X63201Y-59864D01*
X63230Y-59907D01*
X63231Y-59908D01*
X63249Y-59953D01*
X63260Y-60004D01*
X63260Y-60005D01*
X63260Y-60005D01*
G37*
G36*
X63295Y-60850D02*
X62684Y-60850D01*
X62684Y-60439D01*
X63295Y-60439D01*
X63295Y-60850D01*
X63295Y-60850D01*
G37*
G36*
X63295Y-61600D02*
X62684Y-61600D01*
X62684Y-61189D01*
X63295Y-61189D01*
X63295Y-61600D01*
X63295Y-61600D01*
G37*
G36*
X63755Y-58356D02*
X63753Y-58501D01*
X63724Y-58628D01*
X63672Y-58744D01*
X63597Y-58850D01*
X63505Y-58938D01*
X63396Y-59007D01*
X63277Y-59053D01*
X63149Y-59076D01*
X63022Y-59073D01*
X62895Y-59045D01*
X62779Y-58994D01*
X62672Y-58920D01*
X62584Y-58829D01*
X62514Y-58720D01*
X62467Y-58602D01*
X62443Y-58474D01*
X62445Y-58347D01*
X62472Y-58220D01*
X62522Y-58103D01*
X62596Y-57996D01*
X62686Y-57907D01*
X62795Y-57836D01*
X62913Y-57788D01*
X63041Y-57764D01*
X63167Y-57765D01*
X63295Y-57791D01*
X63412Y-57840D01*
X63520Y-57913D01*
X63609Y-58003D01*
X63681Y-58111D01*
X63681Y-58111D01*
X63729Y-58228D01*
X63755Y-58356D01*
X63755Y-58356D01*
G37*
G36*
X63755Y-69356D02*
X63753Y-69501D01*
X63724Y-69628D01*
X63672Y-69744D01*
X63597Y-69850D01*
X63505Y-69938D01*
X63396Y-70007D01*
X63277Y-70053D01*
X63149Y-70076D01*
X63022Y-70073D01*
X62895Y-70045D01*
X62779Y-69994D01*
X62672Y-69920D01*
X62584Y-69829D01*
X62514Y-69720D01*
X62467Y-69602D01*
X62443Y-69474D01*
X62445Y-69347D01*
X62472Y-69220D01*
X62522Y-69103D01*
X62596Y-68996D01*
X62686Y-68907D01*
X62795Y-68836D01*
X62913Y-68788D01*
X63041Y-68764D01*
X63167Y-68765D01*
X63295Y-68791D01*
X63412Y-68840D01*
X63520Y-68913D01*
X63609Y-69003D01*
X63681Y-69111D01*
X63681Y-69111D01*
X63729Y-69228D01*
X63755Y-69356D01*
X63755Y-69356D01*
G37*
G36*
X63880Y-61835D02*
X63879Y-61892D01*
X63867Y-61943D01*
X63847Y-61988D01*
X63817Y-62031D01*
X63781Y-62065D01*
X63737Y-62093D01*
X63691Y-62111D01*
X63639Y-62120D01*
X63589Y-62119D01*
X63538Y-62108D01*
X63493Y-62088D01*
X63450Y-62058D01*
X63415Y-62022D01*
X63387Y-61978D01*
X63369Y-61932D01*
X63359Y-61881D01*
X63360Y-61831D01*
X63371Y-61780D01*
X63390Y-61734D01*
X63420Y-61691D01*
X63455Y-61656D01*
X63499Y-61627D01*
X63545Y-61609D01*
X63597Y-61599D01*
X63646Y-61599D01*
X63698Y-61610D01*
X63743Y-61629D01*
X63787Y-61659D01*
X63821Y-61694D01*
X63850Y-61737D01*
X63851Y-61738D01*
X63869Y-61783D01*
X63880Y-61834D01*
X63880Y-61835D01*
X63880Y-61835D01*
G37*
G36*
X63995Y-54354D02*
X63994Y-54390D01*
X63987Y-54423D01*
X63974Y-54451D01*
X63955Y-54478D01*
X63932Y-54500D01*
X63904Y-54518D01*
X63875Y-54529D01*
X63841Y-54535D01*
X63811Y-54534D01*
X63777Y-54527D01*
X63749Y-54515D01*
X63721Y-54495D01*
X63700Y-54473D01*
X63682Y-54445D01*
X63670Y-54416D01*
X63664Y-54383D01*
X63665Y-54352D01*
X63672Y-54319D01*
X63684Y-54290D01*
X63703Y-54262D01*
X63725Y-54241D01*
X63753Y-54222D01*
X63782Y-54211D01*
X63815Y-54204D01*
X63846Y-54204D01*
X63879Y-54211D01*
X63908Y-54223D01*
X63936Y-54242D01*
X63957Y-54264D01*
X63976Y-54292D01*
X63976Y-54292D01*
X63988Y-54321D01*
X63995Y-54353D01*
X63995Y-54354D01*
X63995Y-54354D01*
G37*
G36*
X64040Y-53018D02*
X64038Y-53136D01*
X64015Y-53238D01*
X63973Y-53332D01*
X63912Y-53418D01*
X63838Y-53489D01*
X63749Y-53545D01*
X63653Y-53582D01*
X63550Y-53601D01*
X63447Y-53598D01*
X63344Y-53576D01*
X63250Y-53535D01*
X63164Y-53475D01*
X63093Y-53401D01*
X63035Y-53312D01*
X62998Y-53217D01*
X62979Y-53113D01*
X62980Y-53011D01*
X63002Y-52908D01*
X63042Y-52814D01*
X63102Y-52726D01*
X63175Y-52655D01*
X63264Y-52597D01*
X63358Y-52559D01*
X63462Y-52539D01*
X63564Y-52540D01*
X63668Y-52561D01*
X63762Y-52601D01*
X63850Y-52660D01*
X63922Y-52732D01*
X63980Y-52820D01*
X64019Y-52915D01*
X64019Y-52916D01*
X64040Y-53018D01*
X64040Y-53018D01*
X64040Y-53018D01*
G37*
G36*
X64115Y-48605D02*
X64114Y-48662D01*
X64102Y-48713D01*
X64082Y-48758D01*
X64052Y-48801D01*
X64016Y-48835D01*
X63972Y-48863D01*
X63926Y-48881D01*
X63874Y-48890D01*
X63824Y-48889D01*
X63773Y-48878D01*
X63728Y-48858D01*
X63685Y-48828D01*
X63650Y-48792D01*
X63622Y-48748D01*
X63604Y-48702D01*
X63594Y-48651D01*
X63595Y-48601D01*
X63606Y-48550D01*
X63625Y-48504D01*
X63655Y-48461D01*
X63690Y-48426D01*
X63734Y-48397D01*
X63780Y-48379D01*
X63832Y-48369D01*
X63881Y-48369D01*
X63933Y-48380D01*
X63978Y-48399D01*
X64022Y-48429D01*
X64056Y-48464D01*
X64085Y-48507D01*
X64086Y-48508D01*
X64104Y-48553D01*
X64115Y-48604D01*
X64115Y-48605D01*
X64115Y-48605D01*
G37*
G36*
X64640Y-55478D02*
X64638Y-55596D01*
X64615Y-55698D01*
X64573Y-55792D01*
X64512Y-55878D01*
X64438Y-55949D01*
X64349Y-56005D01*
X64253Y-56042D01*
X64150Y-56061D01*
X64047Y-56058D01*
X63944Y-56036D01*
X63850Y-55995D01*
X63764Y-55935D01*
X63693Y-55861D01*
X63635Y-55772D01*
X63598Y-55677D01*
X63579Y-55573D01*
X63580Y-55471D01*
X63602Y-55368D01*
X63642Y-55274D01*
X63702Y-55186D01*
X63775Y-55115D01*
X63864Y-55057D01*
X63958Y-55019D01*
X64062Y-54999D01*
X64164Y-55000D01*
X64268Y-55021D01*
X64362Y-55061D01*
X64450Y-55120D01*
X64522Y-55192D01*
X64580Y-55280D01*
X64619Y-55375D01*
X64619Y-55376D01*
X64640Y-55478D01*
X64640Y-55478D01*
X64640Y-55478D01*
G37*
G36*
X64930Y-58528D02*
X64929Y-58600D01*
X64914Y-58665D01*
X64888Y-58723D01*
X64850Y-58777D01*
X64804Y-58820D01*
X64748Y-58856D01*
X64689Y-58879D01*
X64624Y-58890D01*
X64561Y-58889D01*
X64496Y-58875D01*
X64438Y-58849D01*
X64384Y-58812D01*
X64340Y-58766D01*
X64304Y-58710D01*
X64281Y-58652D01*
X64269Y-58586D01*
X64270Y-58523D01*
X64284Y-58458D01*
X64308Y-58400D01*
X64346Y-58346D01*
X64391Y-58302D01*
X64447Y-58265D01*
X64505Y-58242D01*
X64570Y-58229D01*
X64633Y-58230D01*
X64698Y-58243D01*
X64756Y-58267D01*
X64812Y-58305D01*
X64856Y-58349D01*
X64892Y-58404D01*
X64893Y-58405D01*
X64917Y-58463D01*
X64930Y-58527D01*
X64930Y-58528D01*
X64930Y-58528D01*
G37*
G36*
X65351Y-65060D02*
X65350Y-65096D01*
X65343Y-65129D01*
X65330Y-65157D01*
X65311Y-65184D01*
X65288Y-65206D01*
X65260Y-65224D01*
X65231Y-65235D01*
X65197Y-65241D01*
X65167Y-65240D01*
X65133Y-65233D01*
X65105Y-65221D01*
X65077Y-65201D01*
X65056Y-65179D01*
X65038Y-65151D01*
X65026Y-65122D01*
X65020Y-65089D01*
X65021Y-65058D01*
X65028Y-65025D01*
X65040Y-64996D01*
X65059Y-64968D01*
X65081Y-64947D01*
X65109Y-64928D01*
X65138Y-64917D01*
X65171Y-64910D01*
X65202Y-64910D01*
X65235Y-64917D01*
X65264Y-64929D01*
X65292Y-64948D01*
X65313Y-64970D01*
X65332Y-64998D01*
X65332Y-64998D01*
X65344Y-65027D01*
X65351Y-65059D01*
X65351Y-65060D01*
X65351Y-65060D01*
G37*
G36*
X65375Y-56764D02*
X65374Y-56800D01*
X65367Y-56833D01*
X65354Y-56861D01*
X65335Y-56888D01*
X65312Y-56910D01*
X65284Y-56928D01*
X65255Y-56939D01*
X65221Y-56945D01*
X65191Y-56944D01*
X65157Y-56937D01*
X65129Y-56925D01*
X65101Y-56905D01*
X65080Y-56883D01*
X65062Y-56855D01*
X65050Y-56826D01*
X65044Y-56793D01*
X65045Y-56762D01*
X65052Y-56729D01*
X65064Y-56700D01*
X65083Y-56672D01*
X65105Y-56651D01*
X65133Y-56632D01*
X65162Y-56621D01*
X65195Y-56614D01*
X65226Y-56614D01*
X65259Y-56621D01*
X65288Y-56633D01*
X65316Y-56652D01*
X65337Y-56674D01*
X65356Y-56702D01*
X65356Y-56702D01*
X65368Y-56731D01*
X65375Y-56763D01*
X65375Y-56764D01*
X65375Y-56764D01*
G37*
G36*
X65552Y-57398D02*
X65551Y-57434D01*
X65544Y-57467D01*
X65531Y-57495D01*
X65512Y-57522D01*
X65489Y-57544D01*
X65461Y-57562D01*
X65432Y-57573D01*
X65398Y-57579D01*
X65368Y-57578D01*
X65334Y-57571D01*
X65306Y-57559D01*
X65278Y-57539D01*
X65257Y-57517D01*
X65239Y-57489D01*
X65227Y-57460D01*
X65221Y-57427D01*
X65222Y-57396D01*
X65229Y-57363D01*
X65241Y-57334D01*
X65260Y-57306D01*
X65282Y-57285D01*
X65310Y-57266D01*
X65339Y-57255D01*
X65372Y-57248D01*
X65403Y-57248D01*
X65436Y-57255D01*
X65465Y-57267D01*
X65493Y-57286D01*
X65514Y-57308D01*
X65533Y-57336D01*
X65533Y-57336D01*
X65545Y-57365D01*
X65552Y-57397D01*
X65552Y-57398D01*
X65552Y-57398D01*
G37*
G36*
X65865Y-55599D02*
X65864Y-55635D01*
X65857Y-55668D01*
X65844Y-55696D01*
X65825Y-55723D01*
X65802Y-55745D01*
X65774Y-55763D01*
X65745Y-55774D01*
X65711Y-55780D01*
X65681Y-55779D01*
X65647Y-55772D01*
X65619Y-55760D01*
X65591Y-55740D01*
X65570Y-55718D01*
X65552Y-55690D01*
X65540Y-55661D01*
X65534Y-55628D01*
X65535Y-55597D01*
X65542Y-55564D01*
X65554Y-55535D01*
X65573Y-55507D01*
X65595Y-55486D01*
X65623Y-55467D01*
X65652Y-55456D01*
X65685Y-55449D01*
X65716Y-55449D01*
X65749Y-55456D01*
X65778Y-55468D01*
X65806Y-55487D01*
X65827Y-55509D01*
X65846Y-55537D01*
X65846Y-55537D01*
X65858Y-55566D01*
X65865Y-55598D01*
X65865Y-55599D01*
X65865Y-55599D01*
G37*
G36*
X65920Y-55390D02*
X65699Y-55390D01*
X65699Y-54829D01*
X65920Y-54829D01*
X65920Y-55390D01*
X65920Y-55390D01*
G37*
G36*
X65920Y-57490D02*
X65699Y-57490D01*
X65699Y-56929D01*
X65920Y-56929D01*
X65920Y-57490D01*
X65920Y-57490D01*
G37*
G36*
X65930Y-58890D02*
X65269Y-58890D01*
X65269Y-58229D01*
X65930Y-58229D01*
X65930Y-58890D01*
X65930Y-58890D01*
G37*
G36*
X66045Y-59564D02*
X66044Y-59600D01*
X66037Y-59633D01*
X66024Y-59661D01*
X66005Y-59688D01*
X65982Y-59710D01*
X65954Y-59728D01*
X65925Y-59739D01*
X65891Y-59745D01*
X65861Y-59744D01*
X65827Y-59737D01*
X65799Y-59725D01*
X65771Y-59705D01*
X65750Y-59683D01*
X65732Y-59655D01*
X65720Y-59626D01*
X65714Y-59593D01*
X65715Y-59562D01*
X65722Y-59529D01*
X65734Y-59500D01*
X65753Y-59472D01*
X65775Y-59451D01*
X65803Y-59432D01*
X65832Y-59421D01*
X65865Y-59414D01*
X65896Y-59414D01*
X65929Y-59421D01*
X65958Y-59433D01*
X65986Y-59452D01*
X66007Y-59474D01*
X66026Y-59502D01*
X66026Y-59502D01*
X66038Y-59531D01*
X66045Y-59563D01*
X66045Y-59564D01*
X66045Y-59564D01*
G37*
G36*
X66170Y-55390D02*
X65949Y-55390D01*
X65949Y-54829D01*
X66170Y-54829D01*
X66170Y-55390D01*
X66170Y-55390D01*
G37*
G36*
X66170Y-57490D02*
X65949Y-57490D01*
X65949Y-56929D01*
X66170Y-56929D01*
X66170Y-57490D01*
X66170Y-57490D01*
G37*
G36*
X66240Y-50380D02*
X65479Y-50380D01*
X65479Y-49619D01*
X66240Y-49619D01*
X66240Y-50380D01*
X66240Y-50380D01*
G37*
G36*
X66255Y-54264D02*
X66254Y-54300D01*
X66247Y-54333D01*
X66234Y-54361D01*
X66215Y-54388D01*
X66192Y-54410D01*
X66164Y-54428D01*
X66135Y-54439D01*
X66101Y-54445D01*
X66071Y-54444D01*
X66037Y-54437D01*
X66009Y-54425D01*
X65981Y-54405D01*
X65960Y-54383D01*
X65942Y-54355D01*
X65930Y-54326D01*
X65924Y-54293D01*
X65925Y-54262D01*
X65932Y-54229D01*
X65944Y-54200D01*
X65963Y-54172D01*
X65985Y-54151D01*
X66013Y-54132D01*
X66042Y-54121D01*
X66075Y-54114D01*
X66106Y-54114D01*
X66139Y-54121D01*
X66168Y-54133D01*
X66196Y-54152D01*
X66217Y-54174D01*
X66236Y-54202D01*
X66236Y-54202D01*
X66248Y-54231D01*
X66255Y-54263D01*
X66255Y-54264D01*
X66255Y-54264D01*
G37*
G36*
X66420Y-55624D02*
X66419Y-55660D01*
X66412Y-55693D01*
X66399Y-55721D01*
X66380Y-55748D01*
X66357Y-55770D01*
X66329Y-55788D01*
X66300Y-55799D01*
X66266Y-55805D01*
X66236Y-55804D01*
X66202Y-55797D01*
X66174Y-55785D01*
X66146Y-55765D01*
X66125Y-55743D01*
X66107Y-55715D01*
X66095Y-55686D01*
X66089Y-55653D01*
X66090Y-55622D01*
X66097Y-55589D01*
X66109Y-55560D01*
X66128Y-55532D01*
X66150Y-55511D01*
X66178Y-55492D01*
X66207Y-55481D01*
X66240Y-55474D01*
X66271Y-55474D01*
X66304Y-55481D01*
X66333Y-55493D01*
X66361Y-55512D01*
X66382Y-55534D01*
X66401Y-55562D01*
X66401Y-55562D01*
X66413Y-55591D01*
X66420Y-55623D01*
X66420Y-55624D01*
X66420Y-55624D01*
G37*
G36*
X66430Y-55390D02*
X66209Y-55390D01*
X66209Y-54829D01*
X66430Y-54829D01*
X66430Y-55390D01*
X66430Y-55390D01*
G37*
G36*
X66430Y-57490D02*
X66209Y-57490D01*
X66209Y-56929D01*
X66430Y-56929D01*
X66430Y-57490D01*
X66430Y-57490D01*
G37*
G36*
X66680Y-55390D02*
X66459Y-55390D01*
X66459Y-54829D01*
X66680Y-54829D01*
X66680Y-55390D01*
X66680Y-55390D01*
G37*
G36*
X66680Y-57490D02*
X66459Y-57490D01*
X66459Y-56929D01*
X66680Y-56929D01*
X66680Y-57490D01*
X66680Y-57490D01*
G37*
G36*
X66734Y-54214D02*
X66733Y-54250D01*
X66726Y-54283D01*
X66713Y-54311D01*
X66694Y-54338D01*
X66671Y-54360D01*
X66643Y-54378D01*
X66614Y-54389D01*
X66580Y-54395D01*
X66550Y-54394D01*
X66516Y-54387D01*
X66488Y-54375D01*
X66460Y-54355D01*
X66439Y-54333D01*
X66421Y-54305D01*
X66409Y-54276D01*
X66403Y-54243D01*
X66404Y-54212D01*
X66411Y-54179D01*
X66423Y-54150D01*
X66442Y-54122D01*
X66464Y-54101D01*
X66492Y-54082D01*
X66521Y-54071D01*
X66554Y-54064D01*
X66585Y-54064D01*
X66618Y-54071D01*
X66647Y-54083D01*
X66675Y-54102D01*
X66696Y-54124D01*
X66715Y-54152D01*
X66715Y-54152D01*
X66727Y-54181D01*
X66734Y-54213D01*
X66734Y-54214D01*
X66734Y-54214D01*
G37*
G36*
X66940Y-55390D02*
X66719Y-55390D01*
X66719Y-54829D01*
X66940Y-54829D01*
X66940Y-55390D01*
X66940Y-55390D01*
G37*
G36*
X66940Y-57490D02*
X66719Y-57490D01*
X66719Y-56929D01*
X66940Y-56929D01*
X66940Y-57490D01*
X66940Y-57490D01*
G37*
G36*
X66970Y-58299D02*
X66969Y-58335D01*
X66962Y-58368D01*
X66949Y-58396D01*
X66930Y-58423D01*
X66907Y-58445D01*
X66879Y-58463D01*
X66850Y-58474D01*
X66816Y-58480D01*
X66786Y-58479D01*
X66752Y-58472D01*
X66724Y-58460D01*
X66696Y-58440D01*
X66675Y-58418D01*
X66657Y-58390D01*
X66645Y-58361D01*
X66639Y-58328D01*
X66640Y-58297D01*
X66647Y-58264D01*
X66659Y-58235D01*
X66678Y-58207D01*
X66700Y-58186D01*
X66728Y-58167D01*
X66757Y-58156D01*
X66790Y-58149D01*
X66821Y-58149D01*
X66854Y-58156D01*
X66883Y-58168D01*
X66911Y-58187D01*
X66932Y-58209D01*
X66951Y-58237D01*
X66951Y-58237D01*
X66963Y-58266D01*
X66970Y-58298D01*
X66970Y-58299D01*
X66970Y-58299D01*
G37*
G36*
X67061Y-59810D02*
X66350Y-59810D01*
X66350Y-58549D01*
X67061Y-58549D01*
X67061Y-59810D01*
X67061Y-59810D01*
G37*
G36*
X67105Y-54314D02*
X67104Y-54350D01*
X67097Y-54383D01*
X67084Y-54411D01*
X67065Y-54438D01*
X67042Y-54460D01*
X67014Y-54478D01*
X66985Y-54489D01*
X66951Y-54495D01*
X66921Y-54494D01*
X66887Y-54487D01*
X66859Y-54475D01*
X66831Y-54455D01*
X66810Y-54433D01*
X66792Y-54405D01*
X66780Y-54376D01*
X66774Y-54343D01*
X66775Y-54312D01*
X66782Y-54279D01*
X66794Y-54250D01*
X66813Y-54222D01*
X66835Y-54201D01*
X66863Y-54182D01*
X66892Y-54171D01*
X66925Y-54164D01*
X66956Y-54164D01*
X66989Y-54171D01*
X67018Y-54183D01*
X67046Y-54202D01*
X67067Y-54224D01*
X67086Y-54252D01*
X67086Y-54252D01*
X67098Y-54281D01*
X67105Y-54313D01*
X67105Y-54314D01*
X67105Y-54314D01*
G37*
G36*
X67200Y-55390D02*
X66979Y-55390D01*
X66979Y-54829D01*
X67200Y-54829D01*
X67200Y-55390D01*
X67200Y-55390D01*
G37*
G36*
X67200Y-57490D02*
X66979Y-57490D01*
X66979Y-56929D01*
X67200Y-56929D01*
X67200Y-57490D01*
X67200Y-57490D01*
G37*
G36*
X67240Y-49963D02*
X67238Y-50047D01*
X67222Y-50121D01*
X67192Y-50188D01*
X67148Y-50250D01*
X67095Y-50300D01*
X67031Y-50341D01*
X66963Y-50367D01*
X66888Y-50380D01*
X66815Y-50379D01*
X66741Y-50362D01*
X66674Y-50333D01*
X66611Y-50290D01*
X66561Y-50237D01*
X66519Y-50173D01*
X66493Y-50106D01*
X66479Y-50031D01*
X66480Y-49958D01*
X66496Y-49883D01*
X66524Y-49816D01*
X66567Y-49753D01*
X66619Y-49702D01*
X66683Y-49661D01*
X66751Y-49633D01*
X66826Y-49619D01*
X66899Y-49620D01*
X66973Y-49635D01*
X67040Y-49663D01*
X67104Y-49706D01*
X67155Y-49757D01*
X67197Y-49821D01*
X67225Y-49888D01*
X67240Y-49962D01*
X67240Y-49963D01*
X67240Y-49963D01*
G37*
G36*
X67367Y-48469D02*
X67365Y-48585D01*
X67342Y-48686D01*
X67301Y-48778D01*
X67241Y-48863D01*
X67168Y-48933D01*
X67080Y-48988D01*
X66986Y-49025D01*
X66884Y-49043D01*
X66783Y-49041D01*
X66682Y-49018D01*
X66589Y-48978D01*
X66504Y-48919D01*
X66434Y-48846D01*
X66377Y-48759D01*
X66340Y-48665D01*
X66322Y-48563D01*
X66323Y-48462D01*
X66345Y-48360D01*
X66384Y-48267D01*
X66443Y-48182D01*
X66515Y-48111D01*
X66602Y-48054D01*
X66695Y-48016D01*
X66798Y-47997D01*
X66898Y-47998D01*
X67001Y-48018D01*
X67093Y-48057D01*
X67180Y-48116D01*
X67251Y-48187D01*
X67308Y-48274D01*
X67347Y-48367D01*
X67367Y-48468D01*
X67367Y-48469D01*
X67367Y-48469D01*
G37*
G36*
X67450Y-55390D02*
X67229Y-55390D01*
X67229Y-54829D01*
X67450Y-54829D01*
X67450Y-55390D01*
X67450Y-55390D01*
G37*
G36*
X67450Y-57490D02*
X67229Y-57490D01*
X67229Y-56929D01*
X67450Y-56929D01*
X67450Y-57490D01*
X67450Y-57490D01*
G37*
G36*
X67550Y-58289D02*
X67549Y-58325D01*
X67542Y-58358D01*
X67529Y-58386D01*
X67510Y-58413D01*
X67487Y-58435D01*
X67459Y-58453D01*
X67430Y-58464D01*
X67396Y-58470D01*
X67366Y-58469D01*
X67332Y-58462D01*
X67304Y-58450D01*
X67276Y-58430D01*
X67255Y-58408D01*
X67237Y-58380D01*
X67225Y-58351D01*
X67219Y-58318D01*
X67220Y-58287D01*
X67227Y-58254D01*
X67239Y-58225D01*
X67258Y-58197D01*
X67280Y-58176D01*
X67308Y-58157D01*
X67337Y-58146D01*
X67370Y-58139D01*
X67401Y-58139D01*
X67434Y-58146D01*
X67463Y-58158D01*
X67491Y-58177D01*
X67512Y-58199D01*
X67531Y-58227D01*
X67531Y-58227D01*
X67543Y-58256D01*
X67550Y-58288D01*
X67550Y-58289D01*
X67550Y-58289D01*
G37*
G36*
X67625Y-55874D02*
X67624Y-55910D01*
X67617Y-55943D01*
X67604Y-55971D01*
X67585Y-55998D01*
X67562Y-56020D01*
X67534Y-56038D01*
X67505Y-56049D01*
X67471Y-56055D01*
X67441Y-56054D01*
X67407Y-56047D01*
X67379Y-56035D01*
X67351Y-56015D01*
X67330Y-55993D01*
X67312Y-55965D01*
X67300Y-55936D01*
X67294Y-55903D01*
X67295Y-55872D01*
X67302Y-55839D01*
X67314Y-55810D01*
X67333Y-55782D01*
X67355Y-55761D01*
X67383Y-55742D01*
X67412Y-55731D01*
X67445Y-55724D01*
X67476Y-55724D01*
X67509Y-55731D01*
X67538Y-55743D01*
X67566Y-55762D01*
X67587Y-55784D01*
X67606Y-55812D01*
X67606Y-55812D01*
X67618Y-55841D01*
X67625Y-55873D01*
X67625Y-55874D01*
X67625Y-55874D01*
G37*
G36*
X67710Y-55390D02*
X67489Y-55390D01*
X67489Y-54829D01*
X67710Y-54829D01*
X67710Y-55390D01*
X67710Y-55390D01*
G37*
G36*
X67710Y-57490D02*
X67489Y-57490D01*
X67489Y-56929D01*
X67710Y-56929D01*
X67710Y-57490D01*
X67710Y-57490D01*
G37*
G36*
X67755Y-56554D02*
X67754Y-56590D01*
X67747Y-56623D01*
X67734Y-56651D01*
X67715Y-56678D01*
X67692Y-56700D01*
X67664Y-56718D01*
X67635Y-56729D01*
X67601Y-56735D01*
X67571Y-56734D01*
X67537Y-56727D01*
X67509Y-56715D01*
X67481Y-56695D01*
X67460Y-56673D01*
X67442Y-56645D01*
X67430Y-56616D01*
X67424Y-56583D01*
X67425Y-56552D01*
X67432Y-56519D01*
X67444Y-56490D01*
X67463Y-56462D01*
X67485Y-56441D01*
X67513Y-56422D01*
X67542Y-56411D01*
X67575Y-56404D01*
X67606Y-56404D01*
X67639Y-56411D01*
X67668Y-56423D01*
X67696Y-56442D01*
X67717Y-56464D01*
X67736Y-56492D01*
X67736Y-56492D01*
X67748Y-56521D01*
X67755Y-56553D01*
X67755Y-56554D01*
X67755Y-56554D01*
G37*
G36*
X67775Y-57744D02*
X67774Y-57780D01*
X67767Y-57813D01*
X67754Y-57841D01*
X67735Y-57868D01*
X67712Y-57890D01*
X67684Y-57908D01*
X67655Y-57919D01*
X67621Y-57925D01*
X67591Y-57924D01*
X67557Y-57917D01*
X67529Y-57905D01*
X67501Y-57885D01*
X67480Y-57863D01*
X67462Y-57835D01*
X67450Y-57806D01*
X67444Y-57773D01*
X67445Y-57742D01*
X67452Y-57709D01*
X67464Y-57680D01*
X67483Y-57652D01*
X67505Y-57631D01*
X67533Y-57612D01*
X67562Y-57601D01*
X67595Y-57594D01*
X67626Y-57594D01*
X67659Y-57601D01*
X67688Y-57613D01*
X67716Y-57632D01*
X67737Y-57654D01*
X67756Y-57682D01*
X67756Y-57682D01*
X67768Y-57711D01*
X67775Y-57743D01*
X67775Y-57744D01*
X67775Y-57744D01*
G37*
G36*
X67970Y-55390D02*
X67749Y-55390D01*
X67749Y-54829D01*
X67970Y-54829D01*
X67970Y-55390D01*
X67970Y-55390D01*
G37*
G36*
X67970Y-57490D02*
X67749Y-57490D01*
X67749Y-56929D01*
X67970Y-56929D01*
X67970Y-57490D01*
X67970Y-57490D01*
G37*
G36*
X68220Y-55390D02*
X67999Y-55390D01*
X67999Y-54829D01*
X68220Y-54829D01*
X68220Y-55390D01*
X68220Y-55390D01*
G37*
G36*
X68220Y-57490D02*
X67999Y-57490D01*
X67999Y-56929D01*
X68220Y-56929D01*
X68220Y-57490D01*
X68220Y-57490D01*
G37*
G36*
X68240Y-49963D02*
X68238Y-50047D01*
X68222Y-50121D01*
X68192Y-50188D01*
X68148Y-50250D01*
X68095Y-50300D01*
X68031Y-50341D01*
X67963Y-50367D01*
X67888Y-50380D01*
X67815Y-50379D01*
X67741Y-50362D01*
X67674Y-50333D01*
X67611Y-50290D01*
X67561Y-50237D01*
X67519Y-50173D01*
X67493Y-50106D01*
X67479Y-50031D01*
X67480Y-49958D01*
X67496Y-49883D01*
X67524Y-49816D01*
X67567Y-49753D01*
X67619Y-49702D01*
X67683Y-49661D01*
X67751Y-49633D01*
X67826Y-49619D01*
X67899Y-49620D01*
X67973Y-49635D01*
X68040Y-49663D01*
X68104Y-49706D01*
X68155Y-49757D01*
X68197Y-49821D01*
X68225Y-49888D01*
X68240Y-49962D01*
X68240Y-49963D01*
X68240Y-49963D01*
G37*
G36*
X68315Y-58004D02*
X68314Y-58040D01*
X68307Y-58073D01*
X68294Y-58101D01*
X68275Y-58128D01*
X68252Y-58150D01*
X68224Y-58168D01*
X68195Y-58179D01*
X68161Y-58185D01*
X68131Y-58184D01*
X68097Y-58177D01*
X68069Y-58165D01*
X68041Y-58145D01*
X68020Y-58123D01*
X68002Y-58095D01*
X67990Y-58066D01*
X67984Y-58033D01*
X67985Y-58002D01*
X67992Y-57969D01*
X68004Y-57940D01*
X68023Y-57912D01*
X68045Y-57891D01*
X68073Y-57872D01*
X68102Y-57861D01*
X68135Y-57854D01*
X68166Y-57854D01*
X68199Y-57861D01*
X68228Y-57873D01*
X68256Y-57892D01*
X68277Y-57914D01*
X68296Y-57942D01*
X68296Y-57942D01*
X68308Y-57971D01*
X68315Y-58003D01*
X68315Y-58004D01*
X68315Y-58004D01*
G37*
G36*
X68775Y-55304D02*
X68774Y-55340D01*
X68767Y-55373D01*
X68754Y-55401D01*
X68735Y-55428D01*
X68712Y-55450D01*
X68684Y-55468D01*
X68655Y-55479D01*
X68621Y-55485D01*
X68591Y-55484D01*
X68557Y-55477D01*
X68529Y-55465D01*
X68501Y-55445D01*
X68480Y-55423D01*
X68462Y-55395D01*
X68450Y-55366D01*
X68444Y-55333D01*
X68445Y-55302D01*
X68452Y-55269D01*
X68464Y-55240D01*
X68483Y-55212D01*
X68505Y-55191D01*
X68533Y-55172D01*
X68562Y-55161D01*
X68595Y-55154D01*
X68626Y-55154D01*
X68659Y-55161D01*
X68688Y-55173D01*
X68716Y-55192D01*
X68737Y-55214D01*
X68756Y-55242D01*
X68756Y-55242D01*
X68768Y-55271D01*
X68775Y-55303D01*
X68775Y-55304D01*
X68775Y-55304D01*
G37*
G36*
X68850Y-51915D02*
X68849Y-51972D01*
X68837Y-52023D01*
X68817Y-52068D01*
X68787Y-52111D01*
X68751Y-52145D01*
X68707Y-52173D01*
X68661Y-52191D01*
X68609Y-52200D01*
X68559Y-52199D01*
X68508Y-52188D01*
X68463Y-52168D01*
X68420Y-52138D01*
X68385Y-52102D01*
X68357Y-52058D01*
X68339Y-52012D01*
X68329Y-51961D01*
X68330Y-51911D01*
X68341Y-51860D01*
X68360Y-51814D01*
X68390Y-51771D01*
X68425Y-51736D01*
X68469Y-51707D01*
X68515Y-51689D01*
X68567Y-51679D01*
X68616Y-51679D01*
X68668Y-51690D01*
X68713Y-51709D01*
X68757Y-51739D01*
X68791Y-51774D01*
X68820Y-51817D01*
X68821Y-51818D01*
X68839Y-51863D01*
X68850Y-51914D01*
X68850Y-51915D01*
X68850Y-51915D01*
G37*
G36*
X68861Y-59810D02*
X68150Y-59810D01*
X68150Y-58549D01*
X68861Y-58549D01*
X68861Y-59810D01*
X68861Y-59810D01*
G37*
G36*
X69101Y-54920D02*
X69100Y-54956D01*
X69093Y-54989D01*
X69080Y-55017D01*
X69061Y-55044D01*
X69038Y-55066D01*
X69010Y-55084D01*
X68981Y-55095D01*
X68947Y-55101D01*
X68917Y-55100D01*
X68883Y-55093D01*
X68855Y-55081D01*
X68827Y-55061D01*
X68806Y-55039D01*
X68788Y-55011D01*
X68776Y-54982D01*
X68770Y-54949D01*
X68771Y-54918D01*
X68778Y-54885D01*
X68790Y-54856D01*
X68809Y-54828D01*
X68831Y-54807D01*
X68859Y-54788D01*
X68888Y-54777D01*
X68921Y-54770D01*
X68952Y-54770D01*
X68985Y-54777D01*
X69014Y-54789D01*
X69042Y-54808D01*
X69063Y-54830D01*
X69082Y-54858D01*
X69082Y-54858D01*
X69094Y-54887D01*
X69101Y-54919D01*
X69101Y-54920D01*
X69101Y-54920D01*
G37*
G36*
X69195Y-68795D02*
X68784Y-68795D01*
X68784Y-68184D01*
X69195Y-68184D01*
X69195Y-68795D01*
X69195Y-68795D01*
G37*
G36*
X69269Y-54360D02*
X69268Y-54396D01*
X69261Y-54429D01*
X69248Y-54457D01*
X69229Y-54484D01*
X69206Y-54506D01*
X69178Y-54524D01*
X69149Y-54535D01*
X69115Y-54541D01*
X69085Y-54540D01*
X69051Y-54533D01*
X69023Y-54521D01*
X68995Y-54501D01*
X68974Y-54479D01*
X68956Y-54451D01*
X68944Y-54422D01*
X68938Y-54389D01*
X68939Y-54358D01*
X68946Y-54325D01*
X68958Y-54296D01*
X68977Y-54268D01*
X68999Y-54247D01*
X69027Y-54228D01*
X69056Y-54217D01*
X69089Y-54210D01*
X69120Y-54210D01*
X69153Y-54217D01*
X69182Y-54229D01*
X69210Y-54248D01*
X69231Y-54270D01*
X69250Y-54298D01*
X69250Y-54298D01*
X69262Y-54327D01*
X69269Y-54359D01*
X69269Y-54360D01*
X69269Y-54360D01*
G37*
G36*
X69765Y-51534D02*
X69764Y-51570D01*
X69757Y-51603D01*
X69744Y-51631D01*
X69725Y-51658D01*
X69702Y-51680D01*
X69674Y-51698D01*
X69645Y-51709D01*
X69611Y-51715D01*
X69581Y-51714D01*
X69547Y-51707D01*
X69519Y-51695D01*
X69491Y-51675D01*
X69470Y-51653D01*
X69452Y-51625D01*
X69440Y-51596D01*
X69434Y-51563D01*
X69435Y-51532D01*
X69442Y-51499D01*
X69454Y-51470D01*
X69473Y-51442D01*
X69495Y-51421D01*
X69523Y-51402D01*
X69552Y-51391D01*
X69585Y-51384D01*
X69616Y-51384D01*
X69649Y-51391D01*
X69678Y-51403D01*
X69706Y-51422D01*
X69727Y-51444D01*
X69746Y-51472D01*
X69746Y-51472D01*
X69758Y-51501D01*
X69765Y-51533D01*
X69765Y-51534D01*
X69765Y-51534D01*
G37*
G36*
X69945Y-68795D02*
X69534Y-68795D01*
X69534Y-68184D01*
X69945Y-68184D01*
X69945Y-68795D01*
X69945Y-68795D01*
G37*
G36*
X70277Y-56726D02*
X70276Y-56762D01*
X70269Y-56795D01*
X70256Y-56823D01*
X70237Y-56850D01*
X70214Y-56872D01*
X70186Y-56890D01*
X70157Y-56901D01*
X70123Y-56907D01*
X70093Y-56906D01*
X70059Y-56899D01*
X70031Y-56887D01*
X70003Y-56867D01*
X69982Y-56845D01*
X69964Y-56817D01*
X69952Y-56788D01*
X69946Y-56755D01*
X69947Y-56724D01*
X69954Y-56691D01*
X69966Y-56662D01*
X69985Y-56634D01*
X70007Y-56613D01*
X70035Y-56594D01*
X70064Y-56583D01*
X70097Y-56576D01*
X70128Y-56576D01*
X70161Y-56583D01*
X70190Y-56595D01*
X70218Y-56614D01*
X70239Y-56636D01*
X70258Y-56664D01*
X70258Y-56664D01*
X70270Y-56693D01*
X70277Y-56725D01*
X70277Y-56726D01*
X70277Y-56726D01*
G37*
G36*
X70445Y-57629D02*
X70444Y-57665D01*
X70437Y-57698D01*
X70424Y-57726D01*
X70405Y-57753D01*
X70382Y-57775D01*
X70354Y-57793D01*
X70325Y-57804D01*
X70291Y-57810D01*
X70261Y-57809D01*
X70227Y-57802D01*
X70199Y-57790D01*
X70171Y-57770D01*
X70150Y-57748D01*
X70132Y-57720D01*
X70120Y-57691D01*
X70114Y-57658D01*
X70115Y-57627D01*
X70122Y-57594D01*
X70134Y-57565D01*
X70153Y-57537D01*
X70175Y-57516D01*
X70203Y-57497D01*
X70232Y-57486D01*
X70265Y-57479D01*
X70296Y-57479D01*
X70329Y-57486D01*
X70358Y-57498D01*
X70386Y-57517D01*
X70407Y-57539D01*
X70426Y-57567D01*
X70426Y-57567D01*
X70438Y-57596D01*
X70445Y-57628D01*
X70445Y-57629D01*
X70445Y-57629D01*
G37*
G36*
X70647Y-55052D02*
X69786Y-55052D01*
X69786Y-54391D01*
X70647Y-54391D01*
X70647Y-55052D01*
X70647Y-55052D01*
G37*
G36*
X70647Y-56352D02*
X69786Y-56352D01*
X69786Y-55691D01*
X70647Y-55691D01*
X70647Y-56352D01*
X70647Y-56352D01*
G37*
G36*
X70690Y-57944D02*
X70689Y-57980D01*
X70682Y-58013D01*
X70669Y-58041D01*
X70650Y-58068D01*
X70627Y-58090D01*
X70599Y-58108D01*
X70570Y-58119D01*
X70536Y-58125D01*
X70506Y-58124D01*
X70472Y-58117D01*
X70444Y-58105D01*
X70416Y-58085D01*
X70395Y-58063D01*
X70377Y-58035D01*
X70365Y-58006D01*
X70359Y-57973D01*
X70360Y-57942D01*
X70367Y-57909D01*
X70379Y-57880D01*
X70398Y-57852D01*
X70420Y-57831D01*
X70448Y-57812D01*
X70477Y-57801D01*
X70510Y-57794D01*
X70541Y-57794D01*
X70574Y-57801D01*
X70603Y-57813D01*
X70631Y-57832D01*
X70652Y-57854D01*
X70671Y-57882D01*
X70671Y-57882D01*
X70683Y-57911D01*
X70690Y-57943D01*
X70690Y-57944D01*
X70690Y-57944D01*
G37*
G36*
X71034Y-60311D02*
X70904Y-60312D01*
X70900Y-60313D01*
X70897Y-60316D01*
X70896Y-60320D01*
X70893Y-63888D01*
X64042Y-63893D01*
X64048Y-60331D01*
X70887Y-60311D01*
X70888Y-60311D01*
X70895Y-60311D01*
X70898Y-60311D01*
X70904Y-60311D01*
X70904Y-60311D01*
X70907Y-60311D01*
X71034Y-60311D01*
X71034Y-60311D01*
G37*
G36*
X71056Y-67805D02*
X70483Y-67805D01*
X70483Y-67154D01*
X71056Y-67154D01*
X71056Y-67805D01*
X71056Y-67805D01*
G37*
G36*
X71056Y-68805D02*
X70483Y-68805D01*
X70483Y-68154D01*
X71056Y-68154D01*
X71056Y-68805D01*
X71056Y-68805D01*
G37*
G36*
X71195Y-71933D02*
X71193Y-72051D01*
X71170Y-72153D01*
X71128Y-72247D01*
X71067Y-72333D01*
X70993Y-72404D01*
X70904Y-72460D01*
X70808Y-72497D01*
X70705Y-72516D01*
X70602Y-72513D01*
X70499Y-72491D01*
X70405Y-72450D01*
X70319Y-72390D01*
X70248Y-72316D01*
X70190Y-72227D01*
X70153Y-72132D01*
X70134Y-72028D01*
X70135Y-71926D01*
X70157Y-71823D01*
X70197Y-71729D01*
X70257Y-71641D01*
X70330Y-71570D01*
X70419Y-71512D01*
X70513Y-71474D01*
X70617Y-71454D01*
X70719Y-71455D01*
X70823Y-71476D01*
X70917Y-71516D01*
X71005Y-71575D01*
X71077Y-71647D01*
X71135Y-71735D01*
X71174Y-71830D01*
X71174Y-71831D01*
X71195Y-71933D01*
X71195Y-71933D01*
X71195Y-71933D01*
G37*
G36*
X71216Y-57164D02*
X71215Y-57221D01*
X71203Y-57272D01*
X71183Y-57317D01*
X71153Y-57360D01*
X71117Y-57394D01*
X71073Y-57422D01*
X71027Y-57440D01*
X70975Y-57449D01*
X70925Y-57448D01*
X70874Y-57437D01*
X70829Y-57417D01*
X70786Y-57387D01*
X70751Y-57351D01*
X70723Y-57307D01*
X70705Y-57261D01*
X70695Y-57210D01*
X70696Y-57160D01*
X70707Y-57109D01*
X70726Y-57063D01*
X70756Y-57020D01*
X70791Y-56985D01*
X70835Y-56956D01*
X70881Y-56938D01*
X70933Y-56928D01*
X70982Y-56928D01*
X71034Y-56939D01*
X71079Y-56958D01*
X71123Y-56988D01*
X71157Y-57023D01*
X71186Y-57066D01*
X71187Y-57067D01*
X71205Y-57112D01*
X71216Y-57163D01*
X71216Y-57164D01*
X71216Y-57164D01*
G37*
G36*
X71450Y-61415D02*
X71039Y-61415D01*
X71039Y-60804D01*
X71450Y-60804D01*
X71450Y-61415D01*
X71450Y-61415D01*
G37*
G36*
X71614Y-55221D02*
X71613Y-55257D01*
X71606Y-55290D01*
X71593Y-55318D01*
X71574Y-55345D01*
X71551Y-55367D01*
X71523Y-55385D01*
X71494Y-55396D01*
X71460Y-55402D01*
X71430Y-55401D01*
X71396Y-55394D01*
X71368Y-55382D01*
X71340Y-55362D01*
X71319Y-55340D01*
X71301Y-55312D01*
X71289Y-55283D01*
X71283Y-55250D01*
X71284Y-55219D01*
X71291Y-55186D01*
X71303Y-55157D01*
X71322Y-55129D01*
X71344Y-55108D01*
X71372Y-55089D01*
X71401Y-55078D01*
X71434Y-55071D01*
X71465Y-55071D01*
X71498Y-55078D01*
X71527Y-55090D01*
X71555Y-55109D01*
X71576Y-55131D01*
X71595Y-55159D01*
X71595Y-55159D01*
X71607Y-55188D01*
X71614Y-55220D01*
X71614Y-55221D01*
X71614Y-55221D01*
G37*
G36*
X71675Y-50340D02*
X70914Y-50340D01*
X70914Y-49579D01*
X71675Y-49579D01*
X71675Y-50340D01*
X71675Y-50340D01*
G37*
G36*
X71705Y-63160D02*
X71044Y-63160D01*
X71044Y-62299D01*
X71705Y-62299D01*
X71705Y-63160D01*
X71705Y-63160D01*
G37*
G36*
X71824Y-59695D02*
X71822Y-59813D01*
X71799Y-59915D01*
X71757Y-60009D01*
X71696Y-60095D01*
X71622Y-60166D01*
X71533Y-60222D01*
X71437Y-60259D01*
X71334Y-60278D01*
X71231Y-60275D01*
X71128Y-60253D01*
X71034Y-60212D01*
X70948Y-60152D01*
X70877Y-60078D01*
X70819Y-59989D01*
X70782Y-59894D01*
X70763Y-59790D01*
X70764Y-59688D01*
X70786Y-59585D01*
X70826Y-59491D01*
X70886Y-59403D01*
X70959Y-59332D01*
X71048Y-59274D01*
X71142Y-59236D01*
X71246Y-59216D01*
X71348Y-59217D01*
X71452Y-59238D01*
X71546Y-59278D01*
X71634Y-59337D01*
X71706Y-59409D01*
X71764Y-59497D01*
X71803Y-59592D01*
X71803Y-59593D01*
X71824Y-59695D01*
X71824Y-59695D01*
X71824Y-59695D01*
G37*
G36*
X71973Y-55814D02*
X71463Y-55814D01*
X71463Y-55554D01*
X71973Y-55554D01*
X71973Y-55814D01*
X71973Y-55814D01*
G37*
G36*
X71973Y-56314D02*
X71463Y-56314D01*
X71463Y-56054D01*
X71973Y-56054D01*
X71973Y-56314D01*
X71973Y-56314D01*
G37*
G36*
X71973Y-56814D02*
X71463Y-56814D01*
X71463Y-56554D01*
X71973Y-56554D01*
X71973Y-56814D01*
X71973Y-56814D01*
G37*
G36*
X71973Y-57314D02*
X71463Y-57314D01*
X71463Y-57054D01*
X71973Y-57054D01*
X71973Y-57314D01*
X71973Y-57314D01*
G37*
G36*
X71973Y-57814D02*
X71463Y-57814D01*
X71463Y-57554D01*
X71973Y-57554D01*
X71973Y-57814D01*
X71973Y-57814D01*
G37*
G36*
X71973Y-58314D02*
X71463Y-58314D01*
X71463Y-58054D01*
X71973Y-58054D01*
X71973Y-58314D01*
X71973Y-58314D01*
G37*
G36*
X71973Y-58814D02*
X71463Y-58814D01*
X71463Y-58554D01*
X71973Y-58554D01*
X71973Y-58814D01*
X71973Y-58814D01*
G37*
G36*
X72125Y-70405D02*
X72124Y-70462D01*
X72112Y-70513D01*
X72092Y-70558D01*
X72062Y-70601D01*
X72026Y-70635D01*
X71982Y-70663D01*
X71936Y-70681D01*
X71884Y-70690D01*
X71834Y-70689D01*
X71783Y-70678D01*
X71738Y-70658D01*
X71695Y-70628D01*
X71660Y-70592D01*
X71632Y-70548D01*
X71614Y-70502D01*
X71604Y-70451D01*
X71605Y-70401D01*
X71616Y-70350D01*
X71635Y-70304D01*
X71665Y-70261D01*
X71700Y-70226D01*
X71744Y-70197D01*
X71790Y-70179D01*
X71842Y-70169D01*
X71891Y-70169D01*
X71943Y-70180D01*
X71988Y-70199D01*
X72032Y-70229D01*
X72066Y-70264D01*
X72095Y-70307D01*
X72096Y-70308D01*
X72114Y-70353D01*
X72125Y-70404D01*
X72125Y-70405D01*
X72125Y-70405D01*
G37*
G36*
X72200Y-61415D02*
X71789Y-61415D01*
X71789Y-60804D01*
X72200Y-60804D01*
X72200Y-61415D01*
X72200Y-61415D01*
G37*
G36*
X72433Y-55501D02*
X72432Y-55537D01*
X72425Y-55570D01*
X72412Y-55598D01*
X72393Y-55625D01*
X72370Y-55647D01*
X72342Y-55665D01*
X72313Y-55676D01*
X72279Y-55682D01*
X72249Y-55681D01*
X72215Y-55674D01*
X72187Y-55662D01*
X72159Y-55642D01*
X72138Y-55620D01*
X72120Y-55592D01*
X72108Y-55563D01*
X72102Y-55530D01*
X72103Y-55499D01*
X72110Y-55466D01*
X72122Y-55437D01*
X72141Y-55409D01*
X72163Y-55388D01*
X72191Y-55369D01*
X72220Y-55358D01*
X72253Y-55351D01*
X72284Y-55351D01*
X72317Y-55358D01*
X72346Y-55370D01*
X72374Y-55389D01*
X72395Y-55411D01*
X72414Y-55439D01*
X72414Y-55439D01*
X72426Y-55468D01*
X72433Y-55500D01*
X72433Y-55501D01*
X72433Y-55501D01*
G37*
G36*
X72433Y-56159D02*
X72432Y-56195D01*
X72425Y-56228D01*
X72412Y-56256D01*
X72393Y-56283D01*
X72370Y-56305D01*
X72342Y-56323D01*
X72313Y-56334D01*
X72279Y-56340D01*
X72249Y-56339D01*
X72215Y-56332D01*
X72187Y-56320D01*
X72159Y-56300D01*
X72138Y-56278D01*
X72120Y-56250D01*
X72108Y-56221D01*
X72102Y-56188D01*
X72103Y-56157D01*
X72110Y-56124D01*
X72122Y-56095D01*
X72141Y-56067D01*
X72163Y-56046D01*
X72191Y-56027D01*
X72220Y-56016D01*
X72253Y-56009D01*
X72284Y-56009D01*
X72317Y-56016D01*
X72346Y-56028D01*
X72374Y-56047D01*
X72395Y-56069D01*
X72414Y-56097D01*
X72414Y-56097D01*
X72426Y-56126D01*
X72433Y-56158D01*
X72433Y-56159D01*
X72433Y-56159D01*
G37*
G36*
X72496Y-55082D02*
X71835Y-55082D01*
X71835Y-54221D01*
X72496Y-54221D01*
X72496Y-55082D01*
X72496Y-55082D01*
G37*
G36*
X72675Y-49923D02*
X72673Y-50007D01*
X72657Y-50081D01*
X72627Y-50148D01*
X72583Y-50210D01*
X72530Y-50260D01*
X72466Y-50301D01*
X72398Y-50327D01*
X72323Y-50340D01*
X72250Y-50339D01*
X72176Y-50322D01*
X72109Y-50293D01*
X72046Y-50250D01*
X71996Y-50197D01*
X71954Y-50133D01*
X71928Y-50066D01*
X71914Y-49991D01*
X71915Y-49918D01*
X71931Y-49843D01*
X71959Y-49776D01*
X72002Y-49713D01*
X72054Y-49662D01*
X72118Y-49621D01*
X72186Y-49593D01*
X72261Y-49579D01*
X72334Y-49580D01*
X72408Y-49595D01*
X72475Y-49623D01*
X72539Y-49666D01*
X72590Y-49717D01*
X72632Y-49781D01*
X72660Y-49848D01*
X72675Y-49922D01*
X72675Y-49923D01*
X72675Y-49923D01*
G37*
G36*
X72710Y-71780D02*
X72299Y-71780D01*
X72299Y-71169D01*
X72710Y-71169D01*
X72710Y-71780D01*
X72710Y-71780D01*
G37*
G36*
X72735Y-70735D02*
X72324Y-70735D01*
X72324Y-70124D01*
X72735Y-70124D01*
X72735Y-70735D01*
X72735Y-70735D01*
G37*
G36*
X72837Y-48469D02*
X72835Y-48585D01*
X72812Y-48686D01*
X72771Y-48778D01*
X72711Y-48863D01*
X72638Y-48933D01*
X72550Y-48988D01*
X72456Y-49025D01*
X72354Y-49043D01*
X72253Y-49041D01*
X72152Y-49018D01*
X72059Y-48978D01*
X71974Y-48919D01*
X71904Y-48846D01*
X71847Y-48759D01*
X71810Y-48665D01*
X71792Y-48563D01*
X71793Y-48462D01*
X71815Y-48360D01*
X71854Y-48267D01*
X71913Y-48182D01*
X71985Y-48111D01*
X72072Y-48054D01*
X72165Y-48016D01*
X72268Y-47997D01*
X72368Y-47998D01*
X72471Y-48018D01*
X72563Y-48057D01*
X72650Y-48116D01*
X72721Y-48187D01*
X72778Y-48274D01*
X72817Y-48367D01*
X72837Y-48468D01*
X72837Y-48469D01*
X72837Y-48469D01*
G37*
G36*
X73005Y-63160D02*
X72344Y-63160D01*
X72344Y-62299D01*
X73005Y-62299D01*
X73005Y-63160D01*
X73005Y-63160D01*
G37*
G36*
X73460Y-71780D02*
X73049Y-71780D01*
X73049Y-71169D01*
X73460Y-71169D01*
X73460Y-71780D01*
X73460Y-71780D01*
G37*
G36*
X73472Y-69857D02*
X73097Y-69857D01*
X73097Y-69482D01*
X73472Y-69482D01*
X73472Y-69857D01*
X73472Y-69857D01*
G37*
G36*
X73485Y-70735D02*
X73074Y-70735D01*
X73074Y-70124D01*
X73485Y-70124D01*
X73485Y-70735D01*
X73485Y-70735D01*
G37*
G36*
X73675Y-49923D02*
X73673Y-50007D01*
X73657Y-50081D01*
X73627Y-50148D01*
X73583Y-50210D01*
X73530Y-50260D01*
X73466Y-50301D01*
X73398Y-50327D01*
X73323Y-50340D01*
X73250Y-50339D01*
X73176Y-50322D01*
X73109Y-50293D01*
X73046Y-50250D01*
X72996Y-50197D01*
X72954Y-50133D01*
X72928Y-50066D01*
X72914Y-49991D01*
X72915Y-49918D01*
X72931Y-49843D01*
X72959Y-49776D01*
X73002Y-49713D01*
X73054Y-49662D01*
X73118Y-49621D01*
X73186Y-49593D01*
X73261Y-49579D01*
X73334Y-49580D01*
X73408Y-49595D01*
X73475Y-49623D01*
X73539Y-49666D01*
X73590Y-49717D01*
X73632Y-49781D01*
X73660Y-49848D01*
X73675Y-49922D01*
X73675Y-49923D01*
X73675Y-49923D01*
G37*
G36*
X73796Y-55082D02*
X73135Y-55082D01*
X73135Y-54221D01*
X73796Y-54221D01*
X73796Y-55082D01*
X73796Y-55082D01*
G37*
G36*
X73867Y-62557D02*
X73866Y-62593D01*
X73859Y-62626D01*
X73846Y-62654D01*
X73827Y-62681D01*
X73804Y-62703D01*
X73776Y-62721D01*
X73747Y-62732D01*
X73713Y-62738D01*
X73683Y-62737D01*
X73649Y-62730D01*
X73621Y-62718D01*
X73593Y-62698D01*
X73572Y-62676D01*
X73554Y-62648D01*
X73542Y-62619D01*
X73536Y-62586D01*
X73537Y-62555D01*
X73544Y-62522D01*
X73556Y-62493D01*
X73575Y-62465D01*
X73597Y-62444D01*
X73625Y-62425D01*
X73654Y-62414D01*
X73687Y-62407D01*
X73718Y-62407D01*
X73751Y-62414D01*
X73780Y-62426D01*
X73808Y-62445D01*
X73829Y-62467D01*
X73848Y-62495D01*
X73848Y-62495D01*
X73860Y-62524D01*
X73867Y-62556D01*
X73867Y-62557D01*
X73867Y-62557D01*
G37*
G36*
X74062Y-69857D02*
X73687Y-69857D01*
X73687Y-69482D01*
X74062Y-69482D01*
X74062Y-69857D01*
X74062Y-69857D01*
G37*
G36*
X74073Y-55814D02*
X73563Y-55814D01*
X73563Y-55554D01*
X74073Y-55554D01*
X74073Y-55814D01*
X74073Y-55814D01*
G37*
G36*
X74073Y-56314D02*
X73563Y-56314D01*
X73563Y-56054D01*
X74073Y-56054D01*
X74073Y-56314D01*
X74073Y-56314D01*
G37*
G36*
X74073Y-56814D02*
X73563Y-56814D01*
X73563Y-56554D01*
X74073Y-56554D01*
X74073Y-56814D01*
X74073Y-56814D01*
G37*
G36*
X74073Y-57314D02*
X73563Y-57314D01*
X73563Y-57054D01*
X74073Y-57054D01*
X74073Y-57314D01*
X74073Y-57314D01*
G37*
G36*
X74073Y-57814D02*
X73563Y-57814D01*
X73563Y-57554D01*
X74073Y-57554D01*
X74073Y-57814D01*
X74073Y-57814D01*
G37*
G36*
X74073Y-58314D02*
X73563Y-58314D01*
X73563Y-58054D01*
X74073Y-58054D01*
X74073Y-58314D01*
X74073Y-58314D01*
G37*
G36*
X74073Y-58814D02*
X73563Y-58814D01*
X73563Y-58554D01*
X74073Y-58554D01*
X74073Y-58814D01*
X74073Y-58814D01*
G37*
G36*
X74349Y-59270D02*
X74348Y-59306D01*
X74341Y-59339D01*
X74328Y-59367D01*
X74309Y-59394D01*
X74286Y-59416D01*
X74258Y-59434D01*
X74229Y-59445D01*
X74195Y-59451D01*
X74165Y-59450D01*
X74131Y-59443D01*
X74103Y-59431D01*
X74075Y-59411D01*
X74054Y-59389D01*
X74036Y-59361D01*
X74024Y-59332D01*
X74018Y-59299D01*
X74019Y-59268D01*
X74026Y-59235D01*
X74038Y-59206D01*
X74057Y-59178D01*
X74079Y-59157D01*
X74107Y-59138D01*
X74136Y-59127D01*
X74169Y-59120D01*
X74200Y-59120D01*
X74233Y-59127D01*
X74262Y-59139D01*
X74290Y-59158D01*
X74311Y-59180D01*
X74330Y-59208D01*
X74330Y-59208D01*
X74342Y-59237D01*
X74349Y-59269D01*
X74349Y-59270D01*
X74349Y-59270D01*
G37*
G36*
X74580Y-66705D02*
X74169Y-66705D01*
X74169Y-66094D01*
X74580Y-66094D01*
X74580Y-66705D01*
X74580Y-66705D01*
G37*
G36*
X74606Y-67805D02*
X74033Y-67805D01*
X74033Y-67154D01*
X74606Y-67154D01*
X74606Y-67805D01*
X74606Y-67805D01*
G37*
G36*
X74606Y-68805D02*
X74033Y-68805D01*
X74033Y-68154D01*
X74606Y-68154D01*
X74606Y-68805D01*
X74606Y-68805D01*
G37*
G36*
X74625Y-71460D02*
X74204Y-71460D01*
X74204Y-71039D01*
X74625Y-71039D01*
X74625Y-71460D01*
X74625Y-71460D01*
G37*
G36*
X74776Y-57188D02*
X74775Y-57245D01*
X74763Y-57296D01*
X74743Y-57341D01*
X74713Y-57384D01*
X74677Y-57418D01*
X74633Y-57446D01*
X74587Y-57464D01*
X74535Y-57473D01*
X74485Y-57472D01*
X74434Y-57461D01*
X74389Y-57441D01*
X74346Y-57411D01*
X74311Y-57375D01*
X74283Y-57331D01*
X74265Y-57285D01*
X74255Y-57234D01*
X74256Y-57184D01*
X74267Y-57133D01*
X74286Y-57087D01*
X74316Y-57044D01*
X74351Y-57009D01*
X74395Y-56980D01*
X74441Y-56962D01*
X74493Y-56952D01*
X74542Y-56952D01*
X74594Y-56963D01*
X74639Y-56982D01*
X74683Y-57012D01*
X74717Y-57047D01*
X74746Y-57090D01*
X74747Y-57091D01*
X74765Y-57136D01*
X74776Y-57187D01*
X74776Y-57188D01*
X74776Y-57188D01*
G37*
G36*
X74855Y-64788D02*
X74853Y-64906D01*
X74830Y-65008D01*
X74788Y-65102D01*
X74727Y-65188D01*
X74653Y-65259D01*
X74564Y-65315D01*
X74468Y-65352D01*
X74365Y-65371D01*
X74262Y-65368D01*
X74159Y-65346D01*
X74065Y-65305D01*
X73979Y-65245D01*
X73908Y-65171D01*
X73850Y-65082D01*
X73813Y-64987D01*
X73794Y-64883D01*
X73795Y-64781D01*
X73817Y-64678D01*
X73857Y-64584D01*
X73917Y-64496D01*
X73990Y-64425D01*
X74079Y-64367D01*
X74173Y-64329D01*
X74277Y-64309D01*
X74379Y-64310D01*
X74483Y-64331D01*
X74577Y-64371D01*
X74665Y-64430D01*
X74737Y-64502D01*
X74795Y-64590D01*
X74834Y-64685D01*
X74834Y-64686D01*
X74855Y-64788D01*
X74855Y-64788D01*
X74855Y-64788D01*
G37*
G36*
X74975Y-72260D02*
X74554Y-72260D01*
X74554Y-71839D01*
X74975Y-71839D01*
X74975Y-72260D01*
X74975Y-72260D01*
G37*
G36*
X75099Y-57620D02*
X75098Y-57656D01*
X75091Y-57689D01*
X75078Y-57717D01*
X75059Y-57744D01*
X75036Y-57766D01*
X75008Y-57784D01*
X74979Y-57795D01*
X74945Y-57801D01*
X74915Y-57800D01*
X74881Y-57793D01*
X74853Y-57781D01*
X74825Y-57761D01*
X74804Y-57739D01*
X74786Y-57711D01*
X74774Y-57682D01*
X74768Y-57649D01*
X74769Y-57618D01*
X74776Y-57585D01*
X74788Y-57556D01*
X74807Y-57528D01*
X74829Y-57507D01*
X74857Y-57488D01*
X74886Y-57477D01*
X74919Y-57470D01*
X74950Y-57470D01*
X74983Y-57477D01*
X75012Y-57489D01*
X75040Y-57508D01*
X75061Y-57530D01*
X75080Y-57558D01*
X75080Y-57558D01*
X75092Y-57587D01*
X75099Y-57619D01*
X75099Y-57620D01*
X75099Y-57620D01*
G37*
G36*
X75099Y-55202D02*
X74488Y-55202D01*
X74488Y-54791D01*
X75099Y-54791D01*
X75099Y-55202D01*
X75099Y-55202D01*
G37*
G36*
X75099Y-55952D02*
X74488Y-55952D01*
X74488Y-55541D01*
X75099Y-55541D01*
X75099Y-55952D01*
X75099Y-55952D01*
G37*
G36*
X75141Y-58436D02*
X74530Y-58436D01*
X74530Y-58025D01*
X75141Y-58025D01*
X75141Y-58436D01*
X75141Y-58436D01*
G37*
G36*
X75141Y-59186D02*
X74530Y-59186D01*
X74530Y-58775D01*
X75141Y-58775D01*
X75141Y-59186D01*
X75141Y-59186D01*
G37*
G36*
X75280Y-69900D02*
X74669Y-69900D01*
X74669Y-69489D01*
X75280Y-69489D01*
X75280Y-69900D01*
X75280Y-69900D01*
G37*
G36*
X75280Y-70650D02*
X74669Y-70650D01*
X74669Y-70239D01*
X75280Y-70239D01*
X75280Y-70650D01*
X75280Y-70650D01*
G37*
G36*
X75325Y-71460D02*
X74904Y-71460D01*
X74904Y-71039D01*
X75325Y-71039D01*
X75325Y-71460D01*
X75325Y-71460D01*
G37*
G36*
X75330Y-66705D02*
X74919Y-66705D01*
X74919Y-66094D01*
X75330Y-66094D01*
X75330Y-66705D01*
X75330Y-66705D01*
G37*
G36*
X75575Y-67325D02*
X75574Y-67382D01*
X75562Y-67433D01*
X75542Y-67478D01*
X75512Y-67521D01*
X75476Y-67555D01*
X75432Y-67583D01*
X75386Y-67601D01*
X75334Y-67610D01*
X75284Y-67609D01*
X75233Y-67598D01*
X75188Y-67578D01*
X75145Y-67548D01*
X75110Y-67512D01*
X75082Y-67468D01*
X75064Y-67422D01*
X75054Y-67371D01*
X75055Y-67321D01*
X75066Y-67270D01*
X75085Y-67224D01*
X75115Y-67181D01*
X75150Y-67146D01*
X75194Y-67117D01*
X75240Y-67099D01*
X75292Y-67089D01*
X75341Y-67089D01*
X75393Y-67100D01*
X75438Y-67119D01*
X75482Y-67149D01*
X75516Y-67184D01*
X75545Y-67227D01*
X75546Y-67228D01*
X75564Y-67273D01*
X75575Y-67324D01*
X75575Y-67325D01*
X75575Y-67325D01*
G37*
G36*
X75667Y-57937D02*
X75666Y-57973D01*
X75659Y-58006D01*
X75646Y-58034D01*
X75627Y-58061D01*
X75604Y-58083D01*
X75576Y-58101D01*
X75547Y-58112D01*
X75513Y-58118D01*
X75483Y-58117D01*
X75449Y-58110D01*
X75421Y-58098D01*
X75393Y-58078D01*
X75372Y-58056D01*
X75354Y-58028D01*
X75342Y-57999D01*
X75336Y-57966D01*
X75337Y-57935D01*
X75344Y-57902D01*
X75356Y-57873D01*
X75375Y-57845D01*
X75397Y-57824D01*
X75425Y-57805D01*
X75454Y-57794D01*
X75487Y-57787D01*
X75518Y-57787D01*
X75551Y-57794D01*
X75580Y-57806D01*
X75608Y-57825D01*
X75629Y-57847D01*
X75648Y-57875D01*
X75648Y-57875D01*
X75660Y-57904D01*
X75667Y-57936D01*
X75667Y-57937D01*
X75667Y-57937D01*
G37*
G36*
X76120Y-66715D02*
X75709Y-66715D01*
X75709Y-66104D01*
X76120Y-66104D01*
X76120Y-66715D01*
X76120Y-66715D01*
G37*
G36*
X76220Y-54325D02*
X76219Y-54382D01*
X76207Y-54433D01*
X76187Y-54478D01*
X76157Y-54521D01*
X76121Y-54555D01*
X76077Y-54583D01*
X76031Y-54601D01*
X75979Y-54610D01*
X75929Y-54609D01*
X75878Y-54598D01*
X75833Y-54578D01*
X75790Y-54548D01*
X75755Y-54512D01*
X75727Y-54468D01*
X75709Y-54422D01*
X75699Y-54371D01*
X75700Y-54321D01*
X75711Y-54270D01*
X75730Y-54224D01*
X75760Y-54181D01*
X75795Y-54146D01*
X75839Y-54117D01*
X75885Y-54099D01*
X75937Y-54089D01*
X75986Y-54089D01*
X76038Y-54100D01*
X76083Y-54119D01*
X76127Y-54149D01*
X76161Y-54184D01*
X76190Y-54227D01*
X76191Y-54228D01*
X76209Y-54273D01*
X76220Y-54324D01*
X76220Y-54325D01*
X76220Y-54325D01*
G37*
G36*
X76320Y-50158D02*
X76318Y-50276D01*
X76295Y-50378D01*
X76253Y-50472D01*
X76192Y-50558D01*
X76118Y-50629D01*
X76029Y-50685D01*
X75933Y-50722D01*
X75830Y-50741D01*
X75727Y-50738D01*
X75624Y-50716D01*
X75530Y-50675D01*
X75444Y-50615D01*
X75373Y-50541D01*
X75315Y-50452D01*
X75278Y-50357D01*
X75259Y-50253D01*
X75260Y-50151D01*
X75282Y-50048D01*
X75322Y-49954D01*
X75382Y-49866D01*
X75455Y-49795D01*
X75544Y-49737D01*
X75638Y-49699D01*
X75742Y-49679D01*
X75844Y-49680D01*
X75948Y-49701D01*
X76042Y-49741D01*
X76130Y-49800D01*
X76202Y-49872D01*
X76260Y-49960D01*
X76299Y-50055D01*
X76299Y-50056D01*
X76320Y-50158D01*
X76320Y-50158D01*
X76320Y-50158D01*
G37*
G36*
X76346Y-57544D02*
X76345Y-57580D01*
X76338Y-57613D01*
X76325Y-57641D01*
X76306Y-57668D01*
X76283Y-57690D01*
X76255Y-57708D01*
X76226Y-57719D01*
X76192Y-57725D01*
X76162Y-57724D01*
X76128Y-57717D01*
X76100Y-57705D01*
X76072Y-57685D01*
X76051Y-57663D01*
X76033Y-57635D01*
X76021Y-57606D01*
X76015Y-57573D01*
X76016Y-57542D01*
X76023Y-57509D01*
X76035Y-57480D01*
X76054Y-57452D01*
X76076Y-57431D01*
X76104Y-57412D01*
X76133Y-57401D01*
X76166Y-57394D01*
X76197Y-57394D01*
X76230Y-57401D01*
X76259Y-57413D01*
X76287Y-57432D01*
X76308Y-57454D01*
X76327Y-57482D01*
X76327Y-57482D01*
X76339Y-57511D01*
X76346Y-57543D01*
X76346Y-57544D01*
X76346Y-57544D01*
G37*
G36*
X76870Y-66715D02*
X76459Y-66715D01*
X76459Y-66104D01*
X76870Y-66104D01*
X76870Y-66715D01*
X76870Y-66715D01*
G37*
G36*
X76984Y-68327D02*
X76255Y-68327D01*
X76255Y-67282D01*
X76984Y-67282D01*
X76984Y-68327D01*
X76984Y-68327D01*
G37*
G36*
X76984Y-69927D02*
X76255Y-69927D01*
X76255Y-68882D01*
X76984Y-68882D01*
X76984Y-69927D01*
X76984Y-69927D01*
G37*
G36*
X77625Y-59624D02*
X77624Y-59660D01*
X77617Y-59693D01*
X77604Y-59721D01*
X77585Y-59748D01*
X77562Y-59770D01*
X77534Y-59788D01*
X77505Y-59799D01*
X77471Y-59805D01*
X77441Y-59804D01*
X77407Y-59797D01*
X77379Y-59785D01*
X77351Y-59765D01*
X77330Y-59743D01*
X77312Y-59715D01*
X77300Y-59686D01*
X77294Y-59653D01*
X77295Y-59622D01*
X77302Y-59589D01*
X77314Y-59560D01*
X77333Y-59532D01*
X77355Y-59511D01*
X77383Y-59492D01*
X77412Y-59481D01*
X77445Y-59474D01*
X77476Y-59474D01*
X77509Y-59481D01*
X77538Y-59493D01*
X77566Y-59512D01*
X77587Y-59534D01*
X77606Y-59562D01*
X77606Y-59562D01*
X77618Y-59591D01*
X77625Y-59623D01*
X77625Y-59624D01*
X77625Y-59624D01*
G37*
G36*
X78635Y-53633D02*
X78633Y-53717D01*
X78617Y-53791D01*
X78587Y-53858D01*
X78543Y-53920D01*
X78490Y-53970D01*
X78426Y-54011D01*
X78358Y-54037D01*
X78283Y-54050D01*
X78210Y-54049D01*
X78136Y-54032D01*
X78069Y-54003D01*
X78006Y-53960D01*
X77956Y-53907D01*
X77914Y-53843D01*
X77888Y-53776D01*
X77874Y-53701D01*
X77875Y-53628D01*
X77891Y-53553D01*
X77919Y-53486D01*
X77962Y-53423D01*
X78014Y-53372D01*
X78078Y-53331D01*
X78146Y-53303D01*
X78221Y-53289D01*
X78294Y-53290D01*
X78368Y-53305D01*
X78435Y-53333D01*
X78499Y-53376D01*
X78550Y-53427D01*
X78592Y-53491D01*
X78620Y-53558D01*
X78635Y-53632D01*
X78635Y-53633D01*
X78635Y-53633D01*
G37*
G36*
X78892Y-57052D02*
X78891Y-57124D01*
X78876Y-57189D01*
X78850Y-57247D01*
X78812Y-57301D01*
X78766Y-57344D01*
X78710Y-57380D01*
X78651Y-57403D01*
X78586Y-57414D01*
X78523Y-57413D01*
X78458Y-57399D01*
X78400Y-57373D01*
X78346Y-57336D01*
X78302Y-57290D01*
X78266Y-57234D01*
X78243Y-57176D01*
X78231Y-57110D01*
X78232Y-57047D01*
X78246Y-56982D01*
X78270Y-56924D01*
X78308Y-56870D01*
X78353Y-56826D01*
X78409Y-56789D01*
X78467Y-56766D01*
X78532Y-56753D01*
X78595Y-56754D01*
X78660Y-56767D01*
X78718Y-56791D01*
X78774Y-56829D01*
X78818Y-56873D01*
X78854Y-56928D01*
X78855Y-56929D01*
X78879Y-56987D01*
X78892Y-57051D01*
X78892Y-57052D01*
X78892Y-57052D01*
G37*
G36*
X78892Y-58052D02*
X78891Y-58124D01*
X78876Y-58189D01*
X78850Y-58247D01*
X78812Y-58301D01*
X78766Y-58344D01*
X78710Y-58380D01*
X78651Y-58403D01*
X78586Y-58414D01*
X78523Y-58413D01*
X78458Y-58399D01*
X78400Y-58373D01*
X78346Y-58336D01*
X78302Y-58290D01*
X78266Y-58234D01*
X78243Y-58176D01*
X78231Y-58110D01*
X78232Y-58047D01*
X78246Y-57982D01*
X78270Y-57924D01*
X78308Y-57870D01*
X78353Y-57826D01*
X78409Y-57789D01*
X78467Y-57766D01*
X78532Y-57753D01*
X78595Y-57754D01*
X78660Y-57767D01*
X78718Y-57791D01*
X78774Y-57829D01*
X78818Y-57873D01*
X78854Y-57928D01*
X78855Y-57929D01*
X78879Y-57987D01*
X78892Y-58051D01*
X78892Y-58052D01*
X78892Y-58052D01*
G37*
G36*
X78892Y-56414D02*
X78231Y-56414D01*
X78231Y-55753D01*
X78892Y-55753D01*
X78892Y-56414D01*
X78892Y-56414D01*
G37*
G36*
X79165Y-60630D02*
X78454Y-60630D01*
X78454Y-59369D01*
X79165Y-59369D01*
X79165Y-60630D01*
X79165Y-60630D01*
G37*
G36*
X79310Y-50178D02*
X79308Y-50296D01*
X79285Y-50398D01*
X79243Y-50492D01*
X79182Y-50578D01*
X79108Y-50649D01*
X79019Y-50705D01*
X78923Y-50742D01*
X78820Y-50761D01*
X78717Y-50758D01*
X78614Y-50736D01*
X78520Y-50695D01*
X78434Y-50635D01*
X78363Y-50561D01*
X78305Y-50472D01*
X78268Y-50377D01*
X78249Y-50273D01*
X78250Y-50171D01*
X78272Y-50068D01*
X78312Y-49974D01*
X78372Y-49886D01*
X78445Y-49815D01*
X78534Y-49757D01*
X78628Y-49719D01*
X78732Y-49699D01*
X78834Y-49700D01*
X78938Y-49721D01*
X79032Y-49761D01*
X79120Y-49820D01*
X79192Y-49892D01*
X79250Y-49980D01*
X79289Y-50075D01*
X79289Y-50076D01*
X79310Y-50178D01*
X79310Y-50178D01*
X79310Y-50178D01*
G37*
G36*
X79635Y-53633D02*
X79633Y-53717D01*
X79617Y-53791D01*
X79587Y-53858D01*
X79543Y-53920D01*
X79490Y-53970D01*
X79426Y-54011D01*
X79358Y-54037D01*
X79283Y-54050D01*
X79210Y-54049D01*
X79136Y-54032D01*
X79069Y-54003D01*
X79006Y-53960D01*
X78956Y-53907D01*
X78914Y-53843D01*
X78888Y-53776D01*
X78874Y-53701D01*
X78875Y-53628D01*
X78891Y-53553D01*
X78919Y-53486D01*
X78962Y-53423D01*
X79014Y-53372D01*
X79078Y-53331D01*
X79146Y-53303D01*
X79221Y-53289D01*
X79294Y-53290D01*
X79368Y-53305D01*
X79435Y-53333D01*
X79499Y-53376D01*
X79550Y-53427D01*
X79592Y-53491D01*
X79620Y-53558D01*
X79635Y-53632D01*
X79635Y-53633D01*
X79635Y-53633D01*
G37*
G36*
X79730Y-68896D02*
X79728Y-68985D01*
X79710Y-69064D01*
X79679Y-69135D01*
X79632Y-69201D01*
X79576Y-69255D01*
X79507Y-69298D01*
X79435Y-69326D01*
X79355Y-69340D01*
X79277Y-69339D01*
X79198Y-69321D01*
X79127Y-69290D01*
X79060Y-69244D01*
X79006Y-69188D01*
X78962Y-69120D01*
X78933Y-69047D01*
X78919Y-68968D01*
X78920Y-68890D01*
X78937Y-68811D01*
X78967Y-68739D01*
X79013Y-68672D01*
X79069Y-68618D01*
X79137Y-68573D01*
X79209Y-68544D01*
X79289Y-68529D01*
X79366Y-68530D01*
X79446Y-68546D01*
X79517Y-68576D01*
X79585Y-68621D01*
X79639Y-68676D01*
X79684Y-68743D01*
X79684Y-68744D01*
X79714Y-68816D01*
X79730Y-68895D01*
X79730Y-68896D01*
X79730Y-68896D01*
G37*
G36*
X79815Y-52784D02*
X79814Y-52820D01*
X79807Y-52853D01*
X79794Y-52881D01*
X79775Y-52908D01*
X79752Y-52930D01*
X79724Y-52948D01*
X79695Y-52959D01*
X79661Y-52965D01*
X79631Y-52964D01*
X79597Y-52957D01*
X79569Y-52945D01*
X79541Y-52925D01*
X79520Y-52903D01*
X79502Y-52875D01*
X79490Y-52846D01*
X79484Y-52813D01*
X79485Y-52782D01*
X79492Y-52749D01*
X79504Y-52720D01*
X79523Y-52692D01*
X79545Y-52671D01*
X79573Y-52652D01*
X79602Y-52641D01*
X79635Y-52634D01*
X79666Y-52634D01*
X79699Y-52641D01*
X79728Y-52653D01*
X79756Y-52672D01*
X79777Y-52694D01*
X79796Y-52722D01*
X79796Y-52722D01*
X79808Y-52751D01*
X79815Y-52783D01*
X79815Y-52784D01*
X79815Y-52784D01*
G37*
G36*
X79892Y-56052D02*
X79891Y-56124D01*
X79876Y-56189D01*
X79850Y-56247D01*
X79812Y-56301D01*
X79766Y-56344D01*
X79710Y-56380D01*
X79651Y-56403D01*
X79586Y-56414D01*
X79523Y-56413D01*
X79458Y-56399D01*
X79400Y-56373D01*
X79346Y-56336D01*
X79302Y-56290D01*
X79266Y-56234D01*
X79243Y-56176D01*
X79231Y-56110D01*
X79232Y-56047D01*
X79246Y-55982D01*
X79270Y-55924D01*
X79308Y-55870D01*
X79353Y-55826D01*
X79409Y-55789D01*
X79467Y-55766D01*
X79532Y-55753D01*
X79595Y-55754D01*
X79660Y-55767D01*
X79718Y-55791D01*
X79774Y-55829D01*
X79818Y-55873D01*
X79854Y-55928D01*
X79855Y-55929D01*
X79879Y-55987D01*
X79892Y-56051D01*
X79892Y-56052D01*
X79892Y-56052D01*
G37*
G36*
X79892Y-57052D02*
X79891Y-57124D01*
X79876Y-57189D01*
X79850Y-57247D01*
X79812Y-57301D01*
X79766Y-57344D01*
X79710Y-57380D01*
X79651Y-57403D01*
X79586Y-57414D01*
X79523Y-57413D01*
X79458Y-57399D01*
X79400Y-57373D01*
X79346Y-57336D01*
X79302Y-57290D01*
X79266Y-57234D01*
X79243Y-57176D01*
X79231Y-57110D01*
X79232Y-57047D01*
X79246Y-56982D01*
X79270Y-56924D01*
X79308Y-56870D01*
X79353Y-56826D01*
X79409Y-56789D01*
X79467Y-56766D01*
X79532Y-56753D01*
X79595Y-56754D01*
X79660Y-56767D01*
X79718Y-56791D01*
X79774Y-56829D01*
X79818Y-56873D01*
X79854Y-56928D01*
X79855Y-56929D01*
X79879Y-56987D01*
X79892Y-57051D01*
X79892Y-57052D01*
X79892Y-57052D01*
G37*
G36*
X79892Y-58052D02*
X79891Y-58124D01*
X79876Y-58189D01*
X79850Y-58247D01*
X79812Y-58301D01*
X79766Y-58344D01*
X79710Y-58380D01*
X79651Y-58403D01*
X79586Y-58414D01*
X79523Y-58413D01*
X79458Y-58399D01*
X79400Y-58373D01*
X79346Y-58336D01*
X79302Y-58290D01*
X79266Y-58234D01*
X79243Y-58176D01*
X79231Y-58110D01*
X79232Y-58047D01*
X79246Y-57982D01*
X79270Y-57924D01*
X79308Y-57870D01*
X79353Y-57826D01*
X79409Y-57789D01*
X79467Y-57766D01*
X79532Y-57753D01*
X79595Y-57754D01*
X79660Y-57767D01*
X79718Y-57791D01*
X79774Y-57829D01*
X79818Y-57873D01*
X79854Y-57928D01*
X79855Y-57929D01*
X79879Y-57987D01*
X79892Y-58051D01*
X79892Y-58052D01*
X79892Y-58052D01*
G37*
G36*
X80140Y-60304D02*
X80139Y-60340D01*
X80132Y-60373D01*
X80119Y-60401D01*
X80100Y-60428D01*
X80077Y-60450D01*
X80049Y-60468D01*
X80020Y-60479D01*
X79986Y-60485D01*
X79956Y-60484D01*
X79922Y-60477D01*
X79894Y-60465D01*
X79866Y-60445D01*
X79845Y-60423D01*
X79827Y-60395D01*
X79815Y-60366D01*
X79809Y-60333D01*
X79810Y-60302D01*
X79817Y-60269D01*
X79829Y-60240D01*
X79848Y-60212D01*
X79870Y-60191D01*
X79898Y-60172D01*
X79927Y-60161D01*
X79960Y-60154D01*
X79991Y-60154D01*
X80024Y-60161D01*
X80053Y-60173D01*
X80081Y-60192D01*
X80102Y-60214D01*
X80121Y-60242D01*
X80121Y-60242D01*
X80133Y-60271D01*
X80140Y-60303D01*
X80140Y-60304D01*
X80140Y-60304D01*
G37*
G36*
X80530Y-66546D02*
X80528Y-66635D01*
X80510Y-66714D01*
X80479Y-66785D01*
X80432Y-66851D01*
X80376Y-66905D01*
X80307Y-66948D01*
X80235Y-66976D01*
X80155Y-66990D01*
X80077Y-66989D01*
X79998Y-66971D01*
X79927Y-66940D01*
X79860Y-66894D01*
X79806Y-66838D01*
X79762Y-66770D01*
X79733Y-66697D01*
X79719Y-66618D01*
X79720Y-66540D01*
X79737Y-66461D01*
X79767Y-66389D01*
X79813Y-66322D01*
X79869Y-66268D01*
X79937Y-66223D01*
X80009Y-66194D01*
X80089Y-66179D01*
X80166Y-66180D01*
X80246Y-66196D01*
X80317Y-66226D01*
X80385Y-66271D01*
X80439Y-66326D01*
X80484Y-66393D01*
X80484Y-66394D01*
X80514Y-66466D01*
X80530Y-66545D01*
X80530Y-66546D01*
X80530Y-66546D01*
G37*
G36*
X80530Y-71296D02*
X80528Y-71385D01*
X80510Y-71464D01*
X80479Y-71535D01*
X80432Y-71601D01*
X80376Y-71655D01*
X80307Y-71698D01*
X80235Y-71726D01*
X80155Y-71740D01*
X80077Y-71739D01*
X79998Y-71721D01*
X79927Y-71690D01*
X79860Y-71644D01*
X79806Y-71588D01*
X79762Y-71520D01*
X79733Y-71447D01*
X79719Y-71368D01*
X79720Y-71290D01*
X79737Y-71211D01*
X79767Y-71139D01*
X79813Y-71072D01*
X79869Y-71018D01*
X79937Y-70973D01*
X80009Y-70944D01*
X80089Y-70929D01*
X80166Y-70930D01*
X80246Y-70946D01*
X80317Y-70976D01*
X80385Y-71021D01*
X80439Y-71076D01*
X80484Y-71143D01*
X80484Y-71144D01*
X80514Y-71216D01*
X80530Y-71295D01*
X80530Y-71296D01*
X80530Y-71296D01*
G37*
G36*
X80635Y-54050D02*
X79874Y-54050D01*
X79874Y-53289D01*
X80635Y-53289D01*
X80635Y-54050D01*
X80635Y-54050D01*
G37*
G36*
X80756Y-56401D02*
X80345Y-56401D01*
X80345Y-55790D01*
X80756Y-55790D01*
X80756Y-56401D01*
X80756Y-56401D01*
G37*
G36*
X80786Y-57361D02*
X80375Y-57361D01*
X80375Y-56750D01*
X80786Y-56750D01*
X80786Y-57361D01*
X80786Y-57361D01*
G37*
G36*
X80796Y-58361D02*
X80385Y-58361D01*
X80385Y-57750D01*
X80796Y-57750D01*
X80796Y-58361D01*
X80796Y-58361D01*
G37*
G36*
X80965Y-60630D02*
X80254Y-60630D01*
X80254Y-59369D01*
X80965Y-59369D01*
X80965Y-60630D01*
X80965Y-60630D01*
G37*
G36*
X81506Y-56401D02*
X81095Y-56401D01*
X81095Y-55790D01*
X81506Y-55790D01*
X81506Y-56401D01*
X81506Y-56401D01*
G37*
G36*
X81536Y-57361D02*
X81125Y-57361D01*
X81125Y-56750D01*
X81536Y-56750D01*
X81536Y-57361D01*
X81536Y-57361D01*
G37*
G36*
X81546Y-58361D02*
X81135Y-58361D01*
X81135Y-57750D01*
X81546Y-57750D01*
X81546Y-58361D01*
X81546Y-58361D01*
G37*
G36*
X82340Y-60805D02*
X82339Y-60862D01*
X82327Y-60913D01*
X82307Y-60958D01*
X82277Y-61001D01*
X82241Y-61035D01*
X82197Y-61063D01*
X82151Y-61081D01*
X82099Y-61090D01*
X82049Y-61089D01*
X81998Y-61078D01*
X81953Y-61058D01*
X81910Y-61028D01*
X81875Y-60992D01*
X81847Y-60948D01*
X81829Y-60902D01*
X81819Y-60851D01*
X81820Y-60801D01*
X81831Y-60750D01*
X81850Y-60704D01*
X81880Y-60661D01*
X81915Y-60626D01*
X81959Y-60597D01*
X82005Y-60579D01*
X82057Y-60569D01*
X82106Y-60569D01*
X82158Y-60580D01*
X82203Y-60599D01*
X82247Y-60629D01*
X82281Y-60664D01*
X82310Y-60707D01*
X82311Y-60708D01*
X82329Y-60753D01*
X82340Y-60804D01*
X82340Y-60805D01*
X82340Y-60805D01*
G37*
G36*
X82910Y-55643D02*
X82908Y-55761D01*
X82885Y-55863D01*
X82843Y-55957D01*
X82782Y-56043D01*
X82708Y-56114D01*
X82619Y-56170D01*
X82523Y-56207D01*
X82420Y-56226D01*
X82317Y-56223D01*
X82214Y-56201D01*
X82120Y-56160D01*
X82034Y-56100D01*
X81963Y-56026D01*
X81905Y-55937D01*
X81868Y-55842D01*
X81849Y-55738D01*
X81850Y-55636D01*
X81872Y-55533D01*
X81912Y-55439D01*
X81972Y-55351D01*
X82045Y-55280D01*
X82134Y-55222D01*
X82228Y-55184D01*
X82332Y-55164D01*
X82434Y-55165D01*
X82538Y-55186D01*
X82632Y-55226D01*
X82720Y-55285D01*
X82792Y-55357D01*
X82850Y-55445D01*
X82889Y-55540D01*
X82889Y-55541D01*
X82910Y-55643D01*
X82910Y-55643D01*
X82910Y-55643D01*
G37*
G36*
X83010Y-57355D02*
X82599Y-57355D01*
X82599Y-56744D01*
X83010Y-56744D01*
X83010Y-57355D01*
X83010Y-57355D01*
G37*
G36*
X83440Y-53683D02*
X83438Y-53767D01*
X83422Y-53841D01*
X83392Y-53908D01*
X83348Y-53970D01*
X83295Y-54020D01*
X83231Y-54061D01*
X83163Y-54087D01*
X83088Y-54100D01*
X83015Y-54099D01*
X82941Y-54082D01*
X82874Y-54053D01*
X82811Y-54010D01*
X82761Y-53957D01*
X82719Y-53893D01*
X82693Y-53826D01*
X82679Y-53751D01*
X82680Y-53678D01*
X82696Y-53603D01*
X82724Y-53536D01*
X82767Y-53473D01*
X82819Y-53422D01*
X82883Y-53381D01*
X82951Y-53353D01*
X83026Y-53339D01*
X83099Y-53340D01*
X83173Y-53355D01*
X83240Y-53383D01*
X83304Y-53426D01*
X83355Y-53477D01*
X83397Y-53541D01*
X83425Y-53608D01*
X83440Y-53682D01*
X83440Y-53683D01*
X83440Y-53683D01*
G37*
G36*
X83450Y-49798D02*
X83448Y-49916D01*
X83425Y-50018D01*
X83383Y-50112D01*
X83322Y-50198D01*
X83248Y-50269D01*
X83159Y-50325D01*
X83063Y-50362D01*
X82960Y-50381D01*
X82857Y-50378D01*
X82754Y-50356D01*
X82660Y-50315D01*
X82574Y-50255D01*
X82503Y-50181D01*
X82445Y-50092D01*
X82408Y-49997D01*
X82389Y-49893D01*
X82390Y-49791D01*
X82412Y-49688D01*
X82452Y-49594D01*
X82512Y-49506D01*
X82585Y-49435D01*
X82674Y-49377D01*
X82768Y-49339D01*
X82872Y-49319D01*
X82974Y-49320D01*
X83078Y-49341D01*
X83172Y-49381D01*
X83260Y-49440D01*
X83332Y-49512D01*
X83390Y-49600D01*
X83429Y-49695D01*
X83429Y-49696D01*
X83450Y-49798D01*
X83450Y-49798D01*
X83450Y-49798D01*
G37*
G36*
X83760Y-57355D02*
X83349Y-57355D01*
X83349Y-56744D01*
X83760Y-56744D01*
X83760Y-57355D01*
X83760Y-57355D01*
G37*
G36*
X84440Y-53683D02*
X84438Y-53767D01*
X84422Y-53841D01*
X84392Y-53908D01*
X84348Y-53970D01*
X84295Y-54020D01*
X84231Y-54061D01*
X84163Y-54087D01*
X84088Y-54100D01*
X84015Y-54099D01*
X83941Y-54082D01*
X83874Y-54053D01*
X83811Y-54010D01*
X83761Y-53957D01*
X83719Y-53893D01*
X83693Y-53826D01*
X83679Y-53751D01*
X83680Y-53678D01*
X83696Y-53603D01*
X83724Y-53536D01*
X83767Y-53473D01*
X83819Y-53422D01*
X83883Y-53381D01*
X83951Y-53353D01*
X84026Y-53339D01*
X84099Y-53340D01*
X84173Y-53355D01*
X84240Y-53383D01*
X84304Y-53426D01*
X84355Y-53477D01*
X84397Y-53541D01*
X84425Y-53608D01*
X84440Y-53682D01*
X84440Y-53683D01*
X84440Y-53683D01*
G37*
G36*
X84850Y-48785D02*
X84849Y-48842D01*
X84837Y-48893D01*
X84817Y-48938D01*
X84787Y-48981D01*
X84751Y-49015D01*
X84707Y-49043D01*
X84661Y-49061D01*
X84609Y-49070D01*
X84559Y-49069D01*
X84508Y-49058D01*
X84463Y-49038D01*
X84420Y-49008D01*
X84385Y-48972D01*
X84357Y-48928D01*
X84339Y-48882D01*
X84329Y-48831D01*
X84330Y-48781D01*
X84341Y-48730D01*
X84360Y-48684D01*
X84390Y-48641D01*
X84425Y-48606D01*
X84469Y-48577D01*
X84515Y-48559D01*
X84567Y-48549D01*
X84616Y-48549D01*
X84668Y-48560D01*
X84713Y-48579D01*
X84757Y-48609D01*
X84791Y-48644D01*
X84820Y-48687D01*
X84821Y-48688D01*
X84839Y-48733D01*
X84850Y-48784D01*
X84850Y-48785D01*
X84850Y-48785D01*
G37*
G36*
X85330Y-66546D02*
X85328Y-66635D01*
X85310Y-66714D01*
X85279Y-66785D01*
X85232Y-66851D01*
X85176Y-66905D01*
X85107Y-66948D01*
X85035Y-66976D01*
X84955Y-66990D01*
X84877Y-66989D01*
X84798Y-66971D01*
X84727Y-66940D01*
X84660Y-66894D01*
X84606Y-66838D01*
X84562Y-66770D01*
X84533Y-66697D01*
X84519Y-66618D01*
X84520Y-66540D01*
X84537Y-66461D01*
X84567Y-66389D01*
X84613Y-66322D01*
X84669Y-66268D01*
X84737Y-66223D01*
X84809Y-66194D01*
X84889Y-66179D01*
X84966Y-66180D01*
X85046Y-66196D01*
X85117Y-66226D01*
X85185Y-66271D01*
X85239Y-66326D01*
X85284Y-66393D01*
X85284Y-66394D01*
X85314Y-66466D01*
X85330Y-66545D01*
X85330Y-66546D01*
X85330Y-66546D01*
G37*
G36*
X85330Y-71296D02*
X85328Y-71385D01*
X85310Y-71464D01*
X85279Y-71535D01*
X85232Y-71601D01*
X85176Y-71655D01*
X85107Y-71698D01*
X85035Y-71726D01*
X84955Y-71740D01*
X84877Y-71739D01*
X84798Y-71721D01*
X84727Y-71690D01*
X84660Y-71644D01*
X84606Y-71588D01*
X84562Y-71520D01*
X84533Y-71447D01*
X84519Y-71368D01*
X84520Y-71290D01*
X84537Y-71211D01*
X84567Y-71139D01*
X84613Y-71072D01*
X84669Y-71018D01*
X84737Y-70973D01*
X84809Y-70944D01*
X84889Y-70929D01*
X84966Y-70930D01*
X85046Y-70946D01*
X85117Y-70976D01*
X85185Y-71021D01*
X85239Y-71076D01*
X85284Y-71143D01*
X85284Y-71144D01*
X85314Y-71216D01*
X85330Y-71295D01*
X85330Y-71296D01*
X85330Y-71296D01*
G37*
G36*
X85340Y-56908D02*
X85338Y-57026D01*
X85315Y-57128D01*
X85273Y-57222D01*
X85212Y-57308D01*
X85138Y-57379D01*
X85049Y-57435D01*
X84953Y-57472D01*
X84850Y-57491D01*
X84747Y-57488D01*
X84644Y-57466D01*
X84550Y-57425D01*
X84464Y-57365D01*
X84393Y-57291D01*
X84335Y-57202D01*
X84298Y-57107D01*
X84279Y-57003D01*
X84280Y-56901D01*
X84302Y-56798D01*
X84342Y-56704D01*
X84402Y-56616D01*
X84475Y-56545D01*
X84564Y-56487D01*
X84658Y-56449D01*
X84762Y-56429D01*
X84864Y-56430D01*
X84968Y-56451D01*
X85062Y-56491D01*
X85150Y-56550D01*
X85222Y-56622D01*
X85280Y-56710D01*
X85319Y-56805D01*
X85319Y-56806D01*
X85340Y-56908D01*
X85340Y-56908D01*
X85340Y-56908D01*
G37*
G36*
X85440Y-54100D02*
X84679Y-54100D01*
X84679Y-53339D01*
X85440Y-53339D01*
X85440Y-54100D01*
X85440Y-54100D01*
G37*
G36*
X85691Y-60317D02*
X85690Y-60353D01*
X85683Y-60386D01*
X85670Y-60414D01*
X85651Y-60441D01*
X85628Y-60463D01*
X85600Y-60481D01*
X85571Y-60492D01*
X85537Y-60498D01*
X85507Y-60497D01*
X85473Y-60490D01*
X85445Y-60478D01*
X85417Y-60458D01*
X85396Y-60436D01*
X85378Y-60408D01*
X85366Y-60379D01*
X85360Y-60346D01*
X85361Y-60315D01*
X85368Y-60282D01*
X85380Y-60253D01*
X85399Y-60225D01*
X85421Y-60204D01*
X85449Y-60185D01*
X85478Y-60174D01*
X85511Y-60167D01*
X85542Y-60167D01*
X85575Y-60174D01*
X85604Y-60186D01*
X85632Y-60205D01*
X85653Y-60227D01*
X85672Y-60255D01*
X85672Y-60255D01*
X85684Y-60284D01*
X85691Y-60316D01*
X85691Y-60317D01*
X85691Y-60317D01*
G37*
G36*
X85740Y-55725D02*
X85739Y-55782D01*
X85727Y-55833D01*
X85707Y-55878D01*
X85677Y-55921D01*
X85641Y-55955D01*
X85597Y-55983D01*
X85551Y-56001D01*
X85499Y-56010D01*
X85449Y-56009D01*
X85398Y-55998D01*
X85353Y-55978D01*
X85310Y-55948D01*
X85275Y-55912D01*
X85247Y-55868D01*
X85229Y-55822D01*
X85219Y-55771D01*
X85220Y-55721D01*
X85231Y-55670D01*
X85250Y-55624D01*
X85280Y-55581D01*
X85315Y-55546D01*
X85359Y-55517D01*
X85405Y-55499D01*
X85457Y-55489D01*
X85506Y-55489D01*
X85558Y-55500D01*
X85603Y-55519D01*
X85647Y-55549D01*
X85681Y-55584D01*
X85710Y-55627D01*
X85711Y-55628D01*
X85729Y-55673D01*
X85740Y-55724D01*
X85740Y-55725D01*
X85740Y-55725D01*
G37*
G36*
X85884Y-65408D02*
X75961Y-65309D01*
X75958Y-65309D01*
X75937Y-61173D01*
X85868Y-61277D01*
X85884Y-65408D01*
X85884Y-65408D01*
G37*
G36*
X86475Y-49639D02*
X86473Y-49777D01*
X86446Y-49897D01*
X86397Y-50007D01*
X86326Y-50108D01*
X86239Y-50190D01*
X86135Y-50256D01*
X86023Y-50300D01*
X85902Y-50321D01*
X85781Y-50319D01*
X85661Y-50292D01*
X85551Y-50244D01*
X85450Y-50174D01*
X85366Y-50088D01*
X85299Y-49984D01*
X85255Y-49872D01*
X85233Y-49751D01*
X85235Y-49631D01*
X85260Y-49510D01*
X85308Y-49400D01*
X85377Y-49298D01*
X85463Y-49214D01*
X85566Y-49146D01*
X85678Y-49101D01*
X85799Y-49078D01*
X85919Y-49079D01*
X86040Y-49104D01*
X86150Y-49150D01*
X86253Y-49220D01*
X86337Y-49305D01*
X86406Y-49408D01*
X86451Y-49518D01*
X86451Y-49519D01*
X86475Y-49639D01*
X86475Y-49639D01*
X86475Y-49639D01*
G37*
G36*
X86615Y-55234D02*
X86614Y-55270D01*
X86607Y-55303D01*
X86594Y-55331D01*
X86575Y-55358D01*
X86552Y-55380D01*
X86524Y-55398D01*
X86495Y-55409D01*
X86461Y-55415D01*
X86431Y-55414D01*
X86397Y-55407D01*
X86369Y-55395D01*
X86341Y-55375D01*
X86320Y-55353D01*
X86302Y-55325D01*
X86290Y-55296D01*
X86284Y-55263D01*
X86285Y-55232D01*
X86292Y-55199D01*
X86304Y-55170D01*
X86323Y-55142D01*
X86345Y-55121D01*
X86373Y-55102D01*
X86402Y-55091D01*
X86435Y-55084D01*
X86466Y-55084D01*
X86499Y-55091D01*
X86528Y-55103D01*
X86556Y-55122D01*
X86577Y-55144D01*
X86596Y-55172D01*
X86596Y-55172D01*
X86608Y-55201D01*
X86615Y-55233D01*
X86615Y-55234D01*
X86615Y-55234D01*
G37*
G36*
X87064Y-60857D02*
X86335Y-60857D01*
X86335Y-59812D01*
X87064Y-59812D01*
X87064Y-60857D01*
X87064Y-60857D01*
G37*
G36*
X87064Y-62457D02*
X86335Y-62457D01*
X86335Y-61412D01*
X87064Y-61412D01*
X87064Y-62457D01*
X87064Y-62457D01*
G37*
G36*
X87485Y-64825D02*
X87484Y-64882D01*
X87472Y-64933D01*
X87452Y-64978D01*
X87422Y-65021D01*
X87386Y-65055D01*
X87342Y-65083D01*
X87296Y-65101D01*
X87244Y-65110D01*
X87194Y-65109D01*
X87143Y-65098D01*
X87098Y-65078D01*
X87055Y-65048D01*
X87020Y-65012D01*
X86992Y-64968D01*
X86974Y-64922D01*
X86964Y-64871D01*
X86965Y-64821D01*
X86976Y-64770D01*
X86995Y-64724D01*
X87025Y-64681D01*
X87060Y-64646D01*
X87104Y-64617D01*
X87150Y-64599D01*
X87202Y-64589D01*
X87251Y-64589D01*
X87303Y-64600D01*
X87348Y-64619D01*
X87392Y-64649D01*
X87426Y-64684D01*
X87455Y-64727D01*
X87456Y-64728D01*
X87474Y-64773D01*
X87485Y-64824D01*
X87485Y-64825D01*
X87485Y-64825D01*
G37*
G36*
X88265Y-52105D02*
X87204Y-52105D01*
X87204Y-51544D01*
X88265Y-51544D01*
X88265Y-52105D01*
X88265Y-52105D01*
G37*
G36*
X88265Y-53305D02*
X87204Y-53305D01*
X87204Y-52744D01*
X88265Y-52744D01*
X88265Y-53305D01*
X88265Y-53305D01*
G37*
G36*
X89268Y-67017D02*
X89267Y-67110D01*
X89248Y-67193D01*
X89215Y-67267D01*
X89166Y-67336D01*
X89107Y-67393D01*
X89036Y-67438D01*
X88960Y-67467D01*
X88876Y-67482D01*
X88795Y-67480D01*
X88712Y-67462D01*
X88637Y-67430D01*
X88568Y-67381D01*
X88511Y-67323D01*
X88465Y-67251D01*
X88435Y-67176D01*
X88420Y-67092D01*
X88421Y-67011D01*
X88439Y-66928D01*
X88471Y-66853D01*
X88519Y-66783D01*
X88577Y-66726D01*
X88648Y-66680D01*
X88723Y-66649D01*
X88807Y-66633D01*
X88888Y-66634D01*
X88971Y-66651D01*
X89046Y-66682D01*
X89117Y-66730D01*
X89174Y-66788D01*
X89220Y-66858D01*
X89221Y-66858D01*
X89252Y-66933D01*
X89268Y-67016D01*
X89268Y-67017D01*
X89268Y-67017D01*
G37*
G36*
X89268Y-68985D02*
X89267Y-69079D01*
X89248Y-69161D01*
X89215Y-69236D01*
X89166Y-69305D01*
X89107Y-69361D01*
X89036Y-69406D01*
X88960Y-69436D01*
X88876Y-69451D01*
X88795Y-69449D01*
X88712Y-69431D01*
X88637Y-69398D01*
X88568Y-69350D01*
X88511Y-69291D01*
X88465Y-69220D01*
X88435Y-69144D01*
X88420Y-69061D01*
X88421Y-68979D01*
X88439Y-68896D01*
X88471Y-68822D01*
X88519Y-68752D01*
X88577Y-68695D01*
X88648Y-68648D01*
X88723Y-68618D01*
X88807Y-68602D01*
X88888Y-68602D01*
X88971Y-68619D01*
X89046Y-68651D01*
X89117Y-68698D01*
X89174Y-68756D01*
X89220Y-68826D01*
X89221Y-68827D01*
X89252Y-68902D01*
X89268Y-68984D01*
X89268Y-68985D01*
X89268Y-68985D01*
G37*
G36*
X89268Y-71418D02*
X88421Y-71418D01*
X88421Y-70571D01*
X89268Y-70571D01*
X89268Y-71418D01*
X89268Y-71418D01*
G37*
G36*
X89438Y-48881D02*
X89437Y-48975D01*
X89418Y-49057D01*
X89385Y-49132D01*
X89336Y-49201D01*
X89277Y-49257D01*
X89206Y-49302D01*
X89130Y-49332D01*
X89046Y-49347D01*
X88965Y-49345D01*
X88882Y-49327D01*
X88807Y-49294D01*
X88738Y-49246D01*
X88681Y-49187D01*
X88635Y-49116D01*
X88605Y-49040D01*
X88590Y-48957D01*
X88591Y-48875D01*
X88609Y-48792D01*
X88641Y-48718D01*
X88689Y-48648D01*
X88747Y-48591D01*
X88818Y-48544D01*
X88893Y-48514D01*
X88977Y-48498D01*
X89058Y-48498D01*
X89141Y-48515D01*
X89216Y-48547D01*
X89287Y-48595D01*
X89344Y-48652D01*
X89390Y-48722D01*
X89391Y-48723D01*
X89422Y-48798D01*
X89438Y-48880D01*
X89438Y-48881D01*
X89438Y-48881D01*
G37*
G36*
X89438Y-50259D02*
X89437Y-50353D01*
X89418Y-50435D01*
X89385Y-50510D01*
X89336Y-50579D01*
X89277Y-50635D01*
X89206Y-50680D01*
X89130Y-50710D01*
X89046Y-50725D01*
X88965Y-50723D01*
X88882Y-50705D01*
X88807Y-50672D01*
X88738Y-50624D01*
X88681Y-50565D01*
X88635Y-50494D01*
X88605Y-50418D01*
X88590Y-50335D01*
X88591Y-50253D01*
X88609Y-50170D01*
X88641Y-50096D01*
X88689Y-50026D01*
X88747Y-49969D01*
X88818Y-49922D01*
X88893Y-49892D01*
X88977Y-49876D01*
X89058Y-49876D01*
X89141Y-49893D01*
X89216Y-49925D01*
X89287Y-49972D01*
X89344Y-50030D01*
X89390Y-50100D01*
X89391Y-50101D01*
X89422Y-50176D01*
X89438Y-50258D01*
X89438Y-50259D01*
X89438Y-50259D01*
G37*
G36*
X89438Y-51637D02*
X89437Y-51731D01*
X89418Y-51813D01*
X89385Y-51888D01*
X89336Y-51957D01*
X89277Y-52013D01*
X89206Y-52058D01*
X89130Y-52088D01*
X89046Y-52103D01*
X88965Y-52101D01*
X88882Y-52083D01*
X88807Y-52050D01*
X88738Y-52002D01*
X88681Y-51943D01*
X88635Y-51872D01*
X88605Y-51796D01*
X88590Y-51713D01*
X88591Y-51631D01*
X88609Y-51548D01*
X88641Y-51474D01*
X88689Y-51404D01*
X88747Y-51347D01*
X88818Y-51300D01*
X88893Y-51270D01*
X88977Y-51254D01*
X89058Y-51254D01*
X89141Y-51271D01*
X89216Y-51303D01*
X89287Y-51350D01*
X89344Y-51408D01*
X89390Y-51478D01*
X89391Y-51479D01*
X89422Y-51554D01*
X89438Y-51636D01*
X89438Y-51637D01*
X89438Y-51637D01*
G37*
G36*
X89438Y-53015D02*
X89437Y-53109D01*
X89418Y-53191D01*
X89385Y-53266D01*
X89336Y-53335D01*
X89277Y-53391D01*
X89206Y-53436D01*
X89130Y-53466D01*
X89046Y-53481D01*
X88965Y-53479D01*
X88882Y-53461D01*
X88807Y-53428D01*
X88738Y-53380D01*
X88681Y-53321D01*
X88635Y-53250D01*
X88605Y-53174D01*
X88590Y-53091D01*
X88591Y-53009D01*
X88609Y-52926D01*
X88641Y-52851D01*
X88689Y-52781D01*
X88747Y-52725D01*
X88818Y-52678D01*
X88893Y-52648D01*
X88977Y-52632D01*
X89058Y-52632D01*
X89141Y-52649D01*
X89216Y-52681D01*
X89287Y-52728D01*
X89344Y-52786D01*
X89390Y-52856D01*
X89391Y-52857D01*
X89422Y-52932D01*
X89438Y-53014D01*
X89438Y-53015D01*
X89438Y-53015D01*
G37*
G36*
X89438Y-54393D02*
X89437Y-54486D01*
X89418Y-54569D01*
X89385Y-54644D01*
X89336Y-54713D01*
X89277Y-54769D01*
X89206Y-54814D01*
X89130Y-54844D01*
X89046Y-54858D01*
X88965Y-54857D01*
X88882Y-54839D01*
X88807Y-54806D01*
X88738Y-54758D01*
X88681Y-54699D01*
X88635Y-54628D01*
X88605Y-54552D01*
X88590Y-54469D01*
X88591Y-54387D01*
X88609Y-54304D01*
X88641Y-54229D01*
X88689Y-54159D01*
X88747Y-54103D01*
X88818Y-54056D01*
X88893Y-54026D01*
X88977Y-54010D01*
X89058Y-54010D01*
X89141Y-54027D01*
X89216Y-54059D01*
X89287Y-54106D01*
X89344Y-54164D01*
X89390Y-54234D01*
X89391Y-54235D01*
X89422Y-54310D01*
X89438Y-54392D01*
X89438Y-54393D01*
X89438Y-54393D01*
G37*
G36*
X89438Y-55771D02*
X89437Y-55864D01*
X89418Y-55947D01*
X89385Y-56021D01*
X89336Y-56091D01*
X89277Y-56147D01*
X89206Y-56192D01*
X89130Y-56222D01*
X89046Y-56236D01*
X88965Y-56235D01*
X88882Y-56217D01*
X88807Y-56184D01*
X88738Y-56136D01*
X88681Y-56077D01*
X88635Y-56006D01*
X88605Y-55930D01*
X88590Y-55847D01*
X88591Y-55765D01*
X88609Y-55682D01*
X88641Y-55607D01*
X88689Y-55537D01*
X88747Y-55480D01*
X88818Y-55434D01*
X88893Y-55404D01*
X88977Y-55388D01*
X89058Y-55388D01*
X89141Y-55405D01*
X89216Y-55437D01*
X89287Y-55484D01*
X89344Y-55542D01*
X89390Y-55612D01*
X89391Y-55613D01*
X89422Y-55688D01*
X89438Y-55770D01*
X89438Y-55771D01*
X89438Y-55771D01*
G37*
G36*
X89438Y-57149D02*
X89437Y-57242D01*
X89418Y-57325D01*
X89385Y-57399D01*
X89336Y-57469D01*
X89277Y-57525D01*
X89206Y-57570D01*
X89130Y-57600D01*
X89046Y-57614D01*
X88965Y-57613D01*
X88882Y-57594D01*
X88807Y-57562D01*
X88738Y-57513D01*
X88681Y-57455D01*
X88635Y-57384D01*
X88605Y-57308D01*
X88590Y-57225D01*
X88591Y-57143D01*
X88609Y-57060D01*
X88641Y-56985D01*
X88689Y-56915D01*
X88747Y-56858D01*
X88818Y-56812D01*
X88893Y-56781D01*
X88977Y-56766D01*
X89058Y-56766D01*
X89141Y-56783D01*
X89216Y-56815D01*
X89287Y-56862D01*
X89344Y-56920D01*
X89390Y-56990D01*
X89391Y-56991D01*
X89422Y-57066D01*
X89438Y-57148D01*
X89438Y-57149D01*
X89438Y-57149D01*
G37*
G36*
X89438Y-58527D02*
X89437Y-58620D01*
X89418Y-58703D01*
X89385Y-58777D01*
X89336Y-58846D01*
X89277Y-58903D01*
X89206Y-58948D01*
X89130Y-58978D01*
X89046Y-58992D01*
X88965Y-58991D01*
X88882Y-58972D01*
X88807Y-58940D01*
X88738Y-58891D01*
X88681Y-58833D01*
X88635Y-58762D01*
X88605Y-58686D01*
X88590Y-58602D01*
X88591Y-58521D01*
X88609Y-58438D01*
X88641Y-58363D01*
X88689Y-58293D01*
X88747Y-58236D01*
X88818Y-58190D01*
X88893Y-58159D01*
X88977Y-58144D01*
X89058Y-58144D01*
X89141Y-58161D01*
X89216Y-58193D01*
X89287Y-58240D01*
X89344Y-58298D01*
X89390Y-58368D01*
X89391Y-58369D01*
X89422Y-58444D01*
X89438Y-58526D01*
X89438Y-58527D01*
X89438Y-58527D01*
G37*
G36*
X89438Y-59905D02*
X89437Y-59998D01*
X89418Y-60081D01*
X89385Y-60155D01*
X89336Y-60224D01*
X89277Y-60281D01*
X89206Y-60326D01*
X89130Y-60356D01*
X89046Y-60370D01*
X88965Y-60369D01*
X88882Y-60350D01*
X88807Y-60318D01*
X88738Y-60269D01*
X88681Y-60211D01*
X88635Y-60140D01*
X88605Y-60064D01*
X88590Y-59980D01*
X88591Y-59899D01*
X88609Y-59816D01*
X88641Y-59741D01*
X88689Y-59671D01*
X88747Y-59614D01*
X88818Y-59568D01*
X88893Y-59537D01*
X88977Y-59521D01*
X89058Y-59522D01*
X89141Y-59539D01*
X89216Y-59571D01*
X89287Y-59618D01*
X89344Y-59676D01*
X89390Y-59746D01*
X89391Y-59747D01*
X89422Y-59822D01*
X89438Y-59904D01*
X89438Y-59905D01*
X89438Y-59905D01*
G37*
G36*
X89438Y-61283D02*
X89437Y-61376D01*
X89418Y-61459D01*
X89385Y-61533D01*
X89336Y-61602D01*
X89277Y-61659D01*
X89206Y-61704D01*
X89130Y-61734D01*
X89046Y-61748D01*
X88965Y-61747D01*
X88882Y-61728D01*
X88807Y-61696D01*
X88738Y-61647D01*
X88681Y-61589D01*
X88635Y-61518D01*
X88605Y-61442D01*
X88590Y-61358D01*
X88591Y-61277D01*
X88609Y-61194D01*
X88641Y-61119D01*
X88689Y-61049D01*
X88747Y-60992D01*
X88818Y-60946D01*
X88893Y-60915D01*
X88977Y-60899D01*
X89058Y-60900D01*
X89141Y-60917D01*
X89216Y-60949D01*
X89287Y-60996D01*
X89344Y-61054D01*
X89390Y-61124D01*
X89391Y-61125D01*
X89422Y-61200D01*
X89438Y-61282D01*
X89438Y-61283D01*
X89438Y-61283D01*
G37*
G36*
X89438Y-62661D02*
X89437Y-62754D01*
X89418Y-62837D01*
X89385Y-62911D01*
X89336Y-62980D01*
X89277Y-63037D01*
X89206Y-63082D01*
X89130Y-63111D01*
X89046Y-63126D01*
X88965Y-63124D01*
X88882Y-63106D01*
X88807Y-63074D01*
X88738Y-63025D01*
X88681Y-62967D01*
X88635Y-62895D01*
X88605Y-62820D01*
X88590Y-62736D01*
X88591Y-62655D01*
X88609Y-62572D01*
X88641Y-62497D01*
X88689Y-62427D01*
X88747Y-62370D01*
X88818Y-62324D01*
X88893Y-62293D01*
X88977Y-62277D01*
X89058Y-62278D01*
X89141Y-62295D01*
X89216Y-62327D01*
X89287Y-62374D01*
X89344Y-62432D01*
X89390Y-62502D01*
X89391Y-62502D01*
X89422Y-62578D01*
X89438Y-62660D01*
X89438Y-62661D01*
X89438Y-62661D01*
G37*
G36*
X89438Y-64503D02*
X88591Y-64503D01*
X88591Y-63656D01*
X89438Y-63656D01*
X89438Y-64503D01*
X89438Y-64503D01*
G37*
M02*
