G04 (created by PCBNEW (2013-07-07 BZR 4022)-stable) date 3/23/2014 2:10:37 AM*
%MOIN*%
G04 Gerber Fmt 3.4, Leading zero omitted, Abs format*
%FSLAX34Y34*%
G01*
G70*
G90*
G04 APERTURE LIST*
%ADD10C,0.006*%
%ADD11R,0.065X0.12*%
%ADD12R,0.24X0.24*%
%ADD13C,0.075*%
%ADD14R,0.036X0.036*%
%ADD15R,0.0669291X0.0984252*%
%ADD16R,0.035X0.055*%
%ADD17R,0.055X0.035*%
%ADD18R,0.0314X0.0314*%
%ADD19R,0.0511811X0.0590551*%
%ADD20R,0.016X0.05*%
%ADD21R,0.045X0.02*%
%ADD22R,0.06X0.08*%
%ADD23R,0.08X0.06*%
%ADD24R,0.06X0.06*%
%ADD25C,0.06*%
%ADD26R,0.0787402X0.0787402*%
%ADD27C,0.0787402*%
%ADD28R,0.02X0.045*%
%ADD29R,0.07X0.11*%
%ADD30R,0.0394X0.0276*%
%ADD31R,0.145669X0.0472441*%
%ADD32C,0.0984252*%
%ADD33C,0.16*%
%ADD34R,0.2X0.1*%
%ADD35R,0.1X0.2*%
%ADD36R,0.1X0.05*%
%ADD37C,0.07*%
%ADD38R,0.07X0.07*%
%ADD39C,0.0590551*%
%ADD40R,0.0787402X0.0984252*%
%ADD41C,0.0472441*%
%ADD42C,0.11811*%
%ADD43C,0.08*%
%ADD44C,0.1*%
%ADD45C,0.046*%
%ADD46C,0.035*%
%ADD47C,0.02*%
%ADD48C,0.024*%
%ADD49C,0.036*%
%ADD50C,0.01*%
%ADD51C,0.15*%
G04 APERTURE END LIST*
G54D10*
G54D11*
X80610Y-60000D03*
G54D12*
X79710Y-62500D03*
G54D11*
X78810Y-60000D03*
X68506Y-59180D03*
G54D12*
X67606Y-61680D03*
G54D11*
X66706Y-59180D03*
G54D13*
X79325Y-68935D03*
X80125Y-66585D03*
X84925Y-66585D03*
X84925Y-71335D03*
X80125Y-71335D03*
G54D14*
X74415Y-71250D03*
X75115Y-71250D03*
X74765Y-72050D03*
G54D15*
X76620Y-69405D03*
X76620Y-67805D03*
G54D16*
X72505Y-71475D03*
X73255Y-71475D03*
X72530Y-70430D03*
X73280Y-70430D03*
X74375Y-66400D03*
X75125Y-66400D03*
X68990Y-68490D03*
X69740Y-68490D03*
X76665Y-66410D03*
X75915Y-66410D03*
G54D17*
X74975Y-69695D03*
X74975Y-70445D03*
G54D18*
X73875Y-69670D03*
X73285Y-69670D03*
G54D19*
X70770Y-67480D03*
X70770Y-68480D03*
X74320Y-68480D03*
X74320Y-67480D03*
G54D20*
X68110Y-55110D03*
X67860Y-55110D03*
X67600Y-55110D03*
X67340Y-55110D03*
X67090Y-55110D03*
X66830Y-55110D03*
X66570Y-55110D03*
X66320Y-55110D03*
X66060Y-55110D03*
X65810Y-55110D03*
X65810Y-57210D03*
X66060Y-57210D03*
X66320Y-57210D03*
X66570Y-57210D03*
X66830Y-57210D03*
X67090Y-57210D03*
X67340Y-57210D03*
X67600Y-57210D03*
X67860Y-57210D03*
X68110Y-57210D03*
G54D21*
X71718Y-55684D03*
X71718Y-56184D03*
X71718Y-56684D03*
X71718Y-57184D03*
X71718Y-57684D03*
X71718Y-58184D03*
X71718Y-58684D03*
X73818Y-58684D03*
X73818Y-58184D03*
X73818Y-57684D03*
X73818Y-57184D03*
X73818Y-56684D03*
X73818Y-56184D03*
X73818Y-55684D03*
G54D22*
X72166Y-54652D03*
X73466Y-54652D03*
G54D23*
X70217Y-56022D03*
X70217Y-54722D03*
G54D16*
X80591Y-58056D03*
X81341Y-58056D03*
G54D17*
X74836Y-58981D03*
X74836Y-58231D03*
X74794Y-55747D03*
X74794Y-54997D03*
G54D16*
X80581Y-57056D03*
X81331Y-57056D03*
X80551Y-56096D03*
X81301Y-56096D03*
G54D24*
X78562Y-56084D03*
G54D25*
X79562Y-56084D03*
X78562Y-57084D03*
X79562Y-57084D03*
X78562Y-58084D03*
X79562Y-58084D03*
G54D26*
X88845Y-70995D03*
G54D27*
X88845Y-69026D03*
X88845Y-67057D03*
G54D26*
X89015Y-64080D03*
G54D27*
X89015Y-62702D03*
X89015Y-61324D03*
X89015Y-59946D03*
X89015Y-58568D03*
X89015Y-57190D03*
X89015Y-55812D03*
X89015Y-54434D03*
X89015Y-53056D03*
X89015Y-51678D03*
X89015Y-50300D03*
X89015Y-48922D03*
G54D17*
X54100Y-67975D03*
X54100Y-67225D03*
G54D28*
X62170Y-62213D03*
X61670Y-62213D03*
X61170Y-62213D03*
X60670Y-62213D03*
X60670Y-59713D03*
X61170Y-59713D03*
X61670Y-59713D03*
X62170Y-59713D03*
G54D15*
X86700Y-61935D03*
X86700Y-60335D03*
G54D22*
X71375Y-62730D03*
X72675Y-62730D03*
G54D17*
X62990Y-60645D03*
X62990Y-61395D03*
G54D29*
X36500Y-53600D03*
X37900Y-53600D03*
G54D22*
X37950Y-52200D03*
X36650Y-52200D03*
X36650Y-50400D03*
X37950Y-50400D03*
G54D29*
X35800Y-48700D03*
X37200Y-48700D03*
G54D30*
X53725Y-65025D03*
X53725Y-64650D03*
X53725Y-64275D03*
X54725Y-64275D03*
X54725Y-64650D03*
X54725Y-65025D03*
G54D17*
X52355Y-64280D03*
X52355Y-65030D03*
X55925Y-64225D03*
X55925Y-64975D03*
G54D31*
X58140Y-64100D03*
X58140Y-65202D03*
G54D32*
X66845Y-48520D03*
X72315Y-48520D03*
G54D33*
X47600Y-63200D03*
G54D24*
X49000Y-61900D03*
G54D25*
X50000Y-61900D03*
G54D34*
X49500Y-61900D03*
G54D24*
X48700Y-64800D03*
G54D25*
X49700Y-64800D03*
G54D34*
X49200Y-64800D03*
G54D24*
X46700Y-64900D03*
G54D25*
X45700Y-64900D03*
G54D34*
X46200Y-64900D03*
G54D24*
X46700Y-60300D03*
G54D25*
X46700Y-59300D03*
G54D35*
X46700Y-59800D03*
G54D24*
X65600Y-58560D03*
G54D25*
X64600Y-58560D03*
G54D10*
G36*
X58875Y-53340D02*
X59425Y-53340D01*
X59225Y-53990D01*
X59075Y-53990D01*
X58875Y-53340D01*
X58875Y-53340D01*
G37*
G36*
X58875Y-54740D02*
X59075Y-54090D01*
X59225Y-54090D01*
X59425Y-54740D01*
X58875Y-54740D01*
X58875Y-54740D01*
G37*
G36*
X59815Y-53340D02*
X60365Y-53340D01*
X60165Y-53990D01*
X60015Y-53990D01*
X59815Y-53340D01*
X59815Y-53340D01*
G37*
G36*
X59815Y-54740D02*
X60015Y-54090D01*
X60165Y-54090D01*
X60365Y-54740D01*
X59815Y-54740D01*
X59815Y-54740D01*
G37*
G36*
X55855Y-53340D02*
X56405Y-53340D01*
X56205Y-53990D01*
X56055Y-53990D01*
X55855Y-53340D01*
X55855Y-53340D01*
G37*
G36*
X55855Y-54740D02*
X56055Y-54090D01*
X56205Y-54090D01*
X56405Y-54740D01*
X55855Y-54740D01*
X55855Y-54740D01*
G37*
G36*
X50270Y-53335D02*
X50820Y-53335D01*
X50620Y-53985D01*
X50470Y-53985D01*
X50270Y-53335D01*
X50270Y-53335D01*
G37*
G36*
X50270Y-54735D02*
X50470Y-54085D01*
X50620Y-54085D01*
X50820Y-54735D01*
X50270Y-54735D01*
X50270Y-54735D01*
G37*
G36*
X49225Y-53330D02*
X49775Y-53330D01*
X49575Y-53980D01*
X49425Y-53980D01*
X49225Y-53330D01*
X49225Y-53330D01*
G37*
G36*
X49225Y-54730D02*
X49425Y-54080D01*
X49575Y-54080D01*
X49775Y-54730D01*
X49225Y-54730D01*
X49225Y-54730D01*
G37*
G36*
X61895Y-53330D02*
X62445Y-53330D01*
X62245Y-53980D01*
X62095Y-53980D01*
X61895Y-53330D01*
X61895Y-53330D01*
G37*
G36*
X61895Y-54730D02*
X62095Y-54080D01*
X62245Y-54080D01*
X62445Y-54730D01*
X61895Y-54730D01*
X61895Y-54730D01*
G37*
G36*
X54995Y-68805D02*
X55545Y-68805D01*
X55345Y-69455D01*
X55195Y-69455D01*
X54995Y-68805D01*
X54995Y-68805D01*
G37*
G36*
X54995Y-70205D02*
X55195Y-69555D01*
X55345Y-69555D01*
X55545Y-70205D01*
X54995Y-70205D01*
X54995Y-70205D01*
G37*
G36*
X51880Y-68800D02*
X52430Y-68800D01*
X52230Y-69450D01*
X52080Y-69450D01*
X51880Y-68800D01*
X51880Y-68800D01*
G37*
G36*
X51880Y-70200D02*
X52080Y-69550D01*
X52230Y-69550D01*
X52430Y-70200D01*
X51880Y-70200D01*
X51880Y-70200D01*
G37*
G36*
X57845Y-53350D02*
X58395Y-53350D01*
X58195Y-54000D01*
X58045Y-54000D01*
X57845Y-53350D01*
X57845Y-53350D01*
G37*
G36*
X57845Y-54750D02*
X58045Y-54100D01*
X58195Y-54100D01*
X58395Y-54750D01*
X57845Y-54750D01*
X57845Y-54750D01*
G37*
G36*
X48195Y-53340D02*
X48745Y-53340D01*
X48545Y-53990D01*
X48395Y-53990D01*
X48195Y-53340D01*
X48195Y-53340D01*
G37*
G36*
X48195Y-54740D02*
X48395Y-54090D01*
X48545Y-54090D01*
X48745Y-54740D01*
X48195Y-54740D01*
X48195Y-54740D01*
G37*
G54D36*
X87735Y-51825D03*
X87735Y-53025D03*
G54D37*
X67860Y-50000D03*
X66860Y-50000D03*
G54D38*
X65860Y-50000D03*
G54D37*
X83060Y-53720D03*
X84060Y-53720D03*
G54D38*
X85060Y-53720D03*
G54D37*
X73295Y-49960D03*
X72295Y-49960D03*
G54D38*
X71295Y-49960D03*
G54D37*
X78255Y-53670D03*
X79255Y-53670D03*
G54D38*
X80255Y-53670D03*
G54D39*
X45595Y-48535D03*
X44610Y-48535D03*
X46579Y-48535D03*
G54D40*
X43665Y-49401D03*
X47524Y-49401D03*
G54D39*
X52425Y-48435D03*
X51440Y-48435D03*
X53409Y-48435D03*
G54D40*
X50495Y-49301D03*
X54354Y-49301D03*
G54D41*
X40010Y-48390D03*
X39222Y-48390D03*
X40797Y-48390D03*
G54D42*
X30480Y-51100D03*
X30480Y-69288D03*
X30480Y-67635D03*
X30480Y-65981D03*
X30480Y-64328D03*
X30480Y-62674D03*
X30480Y-61021D03*
X30480Y-59367D03*
X30480Y-57714D03*
X30480Y-56060D03*
X30480Y-54407D03*
X30480Y-52753D03*
X32645Y-51100D03*
X32645Y-69288D03*
X32645Y-67635D03*
X32645Y-65981D03*
X32645Y-64328D03*
X32645Y-62674D03*
X32645Y-61021D03*
X32645Y-59367D03*
X32645Y-57714D03*
X32645Y-56060D03*
X32645Y-54407D03*
X32645Y-52753D03*
G54D43*
X52100Y-71420D03*
X53100Y-71420D03*
X54100Y-71420D03*
X55100Y-71420D03*
X57100Y-71420D03*
X58100Y-71420D03*
X59100Y-71420D03*
X60100Y-71420D03*
X61100Y-71420D03*
X62100Y-71420D03*
X62100Y-52420D03*
X61100Y-52420D03*
X60100Y-52420D03*
X59100Y-52420D03*
X58100Y-52420D03*
X57100Y-52420D03*
X56100Y-52420D03*
X55100Y-52420D03*
X53500Y-52420D03*
X52500Y-52420D03*
X51500Y-52420D03*
X50500Y-52420D03*
X49500Y-52420D03*
X48500Y-52420D03*
X51100Y-71420D03*
X50100Y-71420D03*
X47500Y-52420D03*
X46500Y-52420D03*
X49100Y-71420D03*
X48100Y-71420D03*
G54D44*
X63510Y-53070D03*
X84810Y-56960D03*
X64110Y-55530D03*
X71294Y-59747D03*
X70665Y-71985D03*
X74325Y-64840D03*
X75790Y-50210D03*
X78780Y-50230D03*
X82920Y-49850D03*
X82380Y-55695D03*
G54D16*
X82805Y-57050D03*
X83555Y-57050D03*
X71995Y-61110D03*
X71245Y-61110D03*
G54D45*
X34400Y-69000D03*
X82530Y-63035D03*
X75315Y-67350D03*
X56000Y-69150D03*
X35600Y-70600D03*
X36500Y-55000D03*
G54D46*
X39500Y-51300D03*
X41565Y-50865D03*
G54D45*
X51300Y-65200D03*
X56840Y-64100D03*
X85480Y-55750D03*
G54D47*
X67460Y-55890D03*
G54D45*
X41400Y-62100D03*
X63000Y-60030D03*
X41300Y-60900D03*
X34600Y-56700D03*
G54D46*
X39500Y-50400D03*
G54D47*
X65186Y-65076D03*
X52920Y-59330D03*
X65210Y-56780D03*
X67590Y-56570D03*
X60650Y-58440D03*
X68150Y-58020D03*
X60660Y-59130D03*
X56110Y-60520D03*
X56150Y-56450D03*
X67610Y-57760D03*
X61850Y-57340D03*
X60520Y-56220D03*
X58160Y-55600D03*
X62590Y-56500D03*
X59150Y-56400D03*
X59130Y-59270D03*
X68610Y-55320D03*
X60090Y-59300D03*
X60090Y-56470D03*
X85526Y-60333D03*
X62200Y-57100D03*
X53100Y-64650D03*
X60460Y-63570D03*
X76181Y-57560D03*
X74934Y-57636D03*
G54D45*
X82080Y-60830D03*
G54D47*
X65880Y-59580D03*
G54D45*
X63620Y-61860D03*
G54D47*
X63830Y-54370D03*
X66090Y-54280D03*
X66940Y-54330D03*
X73702Y-62573D03*
X65387Y-57414D03*
X70112Y-56742D03*
X70525Y-57960D03*
X75502Y-57953D03*
G54D45*
X75960Y-54350D03*
G54D47*
X86450Y-55250D03*
X79650Y-52800D03*
G54D45*
X70956Y-57189D03*
X74516Y-57213D03*
X35790Y-52170D03*
G54D46*
X53429Y-67964D03*
G54D45*
X37800Y-58500D03*
X56645Y-64985D03*
X50700Y-64300D03*
X87225Y-64850D03*
X63855Y-48630D03*
X68590Y-51940D03*
X84590Y-48810D03*
G54D47*
X69600Y-51550D03*
G54D45*
X71865Y-70430D03*
G54D47*
X59390Y-65160D03*
X62550Y-62310D03*
X79975Y-60320D03*
X77460Y-59640D03*
X70280Y-57645D03*
X66255Y-55640D03*
X66805Y-58315D03*
X67385Y-58305D03*
X65700Y-55615D03*
X66569Y-54230D03*
X68936Y-54936D03*
X69104Y-54376D03*
X71449Y-55237D03*
X72268Y-55517D03*
X72268Y-56175D03*
X74039Y-59416D03*
G54D48*
X75125Y-66400D02*
X75125Y-65485D01*
X75125Y-65485D02*
X74400Y-64760D01*
X75125Y-66400D02*
X75125Y-67160D01*
X75125Y-67160D02*
X75315Y-67350D01*
X75125Y-66400D02*
X75905Y-66400D01*
X75905Y-66400D02*
X75915Y-66410D01*
X55270Y-69130D02*
X55980Y-69130D01*
X55980Y-69130D02*
X56000Y-69150D01*
G54D49*
X36500Y-55000D02*
X36500Y-53600D01*
X38600Y-52200D02*
X39500Y-51300D01*
G54D48*
X37950Y-52200D02*
X37950Y-53550D01*
X37950Y-53550D02*
X37900Y-53600D01*
G54D49*
X37950Y-52200D02*
X38600Y-52200D01*
G54D48*
X87735Y-51825D02*
X76810Y-51825D01*
X42060Y-51360D02*
X41565Y-50865D01*
X63360Y-51360D02*
X42060Y-51360D01*
X65200Y-53200D02*
X63360Y-51360D01*
X75435Y-53200D02*
X65200Y-53200D01*
X76810Y-51825D02*
X75435Y-53200D01*
X87735Y-51825D02*
X88868Y-51825D01*
X88868Y-51825D02*
X89015Y-51678D01*
X52355Y-65030D02*
X53720Y-65030D01*
X53720Y-65030D02*
X53725Y-65025D01*
X52355Y-65030D02*
X51470Y-65030D01*
X51470Y-65030D02*
X51300Y-65200D01*
G54D49*
X58140Y-64100D02*
X56840Y-64100D01*
G54D50*
X67460Y-55890D02*
X67270Y-55890D01*
X64550Y-55970D02*
X64110Y-55530D01*
X67190Y-55970D02*
X64550Y-55970D01*
X67270Y-55890D02*
X67190Y-55970D01*
X67600Y-55750D02*
X67460Y-55890D01*
X67600Y-55750D02*
X67600Y-55110D01*
G54D48*
X41400Y-62100D02*
X41400Y-65540D01*
X44985Y-69125D02*
X52155Y-69125D01*
X41400Y-65540D02*
X44985Y-69125D01*
X62990Y-60645D02*
X62990Y-60040D01*
X62990Y-60040D02*
X63000Y-60030D01*
G54D50*
X62170Y-59713D02*
X62170Y-60530D01*
X62285Y-60645D02*
X62990Y-60645D01*
X62170Y-60530D02*
X62285Y-60645D01*
G54D49*
X35700Y-48700D02*
X35800Y-48700D01*
X34600Y-49800D02*
X35700Y-48700D01*
X34600Y-56700D02*
X34600Y-49800D01*
G54D48*
X37950Y-50400D02*
X37950Y-49450D01*
X37950Y-49450D02*
X37200Y-48700D01*
G54D49*
X39000Y-50400D02*
X39500Y-50400D01*
X37950Y-50400D02*
X39000Y-50400D01*
G54D50*
X71718Y-58184D02*
X71345Y-58184D01*
X70590Y-58940D02*
X70590Y-60480D01*
X71345Y-58184D02*
X70590Y-58940D01*
X71245Y-61110D02*
X70710Y-61110D01*
X70710Y-61110D02*
X70660Y-61060D01*
X65296Y-64966D02*
X65296Y-63162D01*
X65186Y-65076D02*
X65296Y-64966D01*
X78810Y-60000D02*
X75410Y-60000D01*
X73546Y-61864D02*
X70444Y-61864D01*
X75410Y-60000D02*
X73546Y-61864D01*
G54D48*
X71375Y-62730D02*
X68656Y-62730D01*
G54D50*
X68656Y-62730D02*
X67606Y-61680D01*
X68506Y-59180D02*
X68506Y-55964D01*
X62635Y-54405D02*
X62170Y-54405D01*
X63280Y-53760D02*
X62635Y-54405D01*
X69140Y-53760D02*
X63280Y-53760D01*
X69420Y-54040D02*
X69140Y-53760D01*
X69420Y-55050D02*
X69420Y-54040D01*
X68506Y-55964D02*
X69420Y-55050D01*
X53725Y-64275D02*
X53725Y-60135D01*
X53725Y-60135D02*
X52920Y-59330D01*
X50545Y-54410D02*
X50545Y-56475D01*
X50545Y-56475D02*
X50850Y-56780D01*
X50850Y-56780D02*
X65210Y-56780D01*
X67590Y-56570D02*
X67860Y-56840D01*
X67860Y-56840D02*
X67860Y-57210D01*
X49500Y-54405D02*
X49500Y-57290D01*
X50650Y-58440D02*
X60650Y-58440D01*
X49500Y-57290D02*
X50650Y-58440D01*
X60670Y-59713D02*
X60670Y-59140D01*
X68110Y-57980D02*
X68110Y-57210D01*
X68150Y-58020D02*
X68110Y-57980D01*
X60670Y-59140D02*
X60660Y-59130D01*
X66190Y-67450D02*
X70740Y-67450D01*
X70740Y-67450D02*
X70770Y-67480D01*
X56130Y-54415D02*
X56130Y-56430D01*
X62020Y-63280D02*
X66190Y-67450D01*
X66190Y-67450D02*
X66200Y-67460D01*
X60760Y-63280D02*
X62020Y-63280D01*
X60100Y-62620D02*
X60760Y-63280D01*
X58210Y-62620D02*
X60100Y-62620D01*
X56110Y-60520D02*
X58210Y-62620D01*
X56130Y-56430D02*
X56150Y-56450D01*
G54D48*
X64165Y-68470D02*
X68970Y-68470D01*
X64165Y-68470D02*
X62920Y-67225D01*
X54100Y-67225D02*
X62920Y-67225D01*
X68970Y-68470D02*
X68990Y-68490D01*
G54D50*
X48470Y-54415D02*
X48470Y-58210D01*
X49020Y-58760D02*
X61170Y-58760D01*
X48470Y-58210D02*
X49020Y-58760D01*
X61170Y-59713D02*
X61170Y-58760D01*
X61170Y-58760D02*
X61170Y-58020D01*
X67600Y-57750D02*
X67600Y-57210D01*
X67610Y-57760D02*
X67600Y-57750D01*
X61170Y-58020D02*
X61850Y-57340D01*
X67340Y-56750D02*
X66810Y-56220D01*
X66810Y-56220D02*
X60520Y-56220D01*
X67340Y-56750D02*
X67340Y-57210D01*
X66570Y-57210D02*
X66570Y-56680D01*
X58120Y-55560D02*
X58120Y-54460D01*
X58160Y-55600D02*
X58120Y-55560D01*
X66389Y-56500D02*
X62590Y-56500D01*
X66570Y-56680D02*
X66389Y-56500D01*
X60670Y-62213D02*
X60670Y-61620D01*
X59150Y-56400D02*
X59150Y-54415D01*
X59130Y-60080D02*
X59130Y-59270D01*
X60670Y-61620D02*
X59130Y-60080D01*
X68610Y-55320D02*
X68400Y-55110D01*
X68110Y-55110D02*
X68400Y-55110D01*
X60090Y-54415D02*
X60090Y-56470D01*
X61170Y-61690D02*
X61170Y-62213D01*
X60100Y-60620D02*
X61170Y-61690D01*
X60100Y-59310D02*
X60100Y-60620D01*
X60090Y-59300D02*
X60100Y-59310D01*
G54D48*
X86700Y-60335D02*
X87248Y-60335D01*
X87248Y-60335D02*
X89015Y-58568D01*
X86700Y-60335D02*
X85528Y-60335D01*
X85528Y-60335D02*
X85526Y-60333D01*
X86700Y-61935D02*
X85425Y-61935D01*
X85425Y-61935D02*
X85350Y-62010D01*
X86700Y-61935D02*
X87026Y-61935D01*
X87026Y-61935D02*
X89015Y-59946D01*
G54D50*
X61670Y-59130D02*
X61670Y-59713D01*
X62130Y-58670D02*
X61670Y-59130D01*
X62130Y-57170D02*
X62130Y-58670D01*
X62200Y-57100D02*
X62130Y-57170D01*
G54D48*
X53725Y-64650D02*
X53100Y-64650D01*
X54725Y-64275D02*
X55875Y-64275D01*
X55875Y-64275D02*
X55925Y-64225D01*
X55925Y-64225D02*
X55925Y-63745D01*
X60010Y-63120D02*
X60460Y-63570D01*
X56550Y-63120D02*
X60010Y-63120D01*
X55925Y-63745D02*
X56550Y-63120D01*
X72315Y-49955D02*
X72315Y-49810D01*
X88417Y-48325D02*
X89015Y-48922D01*
X73800Y-48325D02*
X88417Y-48325D01*
X72315Y-49810D02*
X73800Y-48325D01*
X67860Y-50000D02*
X67860Y-52020D01*
X88100Y-51215D02*
X89015Y-50300D01*
X76685Y-51215D02*
X88100Y-51215D01*
X75175Y-52725D02*
X76685Y-51215D01*
X69360Y-52725D02*
X75175Y-52725D01*
X68565Y-52725D02*
X69360Y-52725D01*
X67860Y-52020D02*
X68565Y-52725D01*
G54D51*
X88845Y-67057D02*
X85397Y-67057D01*
X85397Y-67057D02*
X84925Y-66585D01*
X88845Y-70995D02*
X85265Y-70995D01*
X85265Y-70995D02*
X84925Y-71335D01*
G54D50*
X73818Y-56684D02*
X75305Y-56684D01*
X75305Y-56684D02*
X76181Y-57560D01*
X73818Y-57684D02*
X74885Y-57684D01*
X74885Y-57684D02*
X74934Y-57636D01*
X82805Y-57050D02*
X82805Y-56850D01*
X82380Y-56425D02*
X82380Y-55695D01*
X82805Y-56850D02*
X82380Y-56425D01*
X66706Y-59180D02*
X66280Y-59180D01*
X66280Y-59180D02*
X65880Y-59580D01*
G54D48*
X62990Y-61395D02*
X63155Y-61395D01*
X63155Y-61395D02*
X63620Y-61860D01*
G54D50*
X61670Y-62213D02*
X61670Y-61770D01*
X62045Y-61395D02*
X62990Y-61395D01*
X61670Y-61770D02*
X62045Y-61395D01*
X66320Y-55110D02*
X66320Y-54380D01*
X66320Y-54380D02*
X66090Y-54280D01*
X67090Y-55110D02*
X67090Y-54480D01*
X67090Y-54480D02*
X66940Y-54330D01*
X66830Y-55110D02*
X66830Y-54440D01*
X66830Y-54440D02*
X66940Y-54330D01*
G54D48*
X72675Y-62730D02*
X73545Y-62730D01*
X73545Y-62730D02*
X73702Y-62573D01*
G54D50*
X65810Y-57210D02*
X65591Y-57210D01*
X65591Y-57210D02*
X65387Y-57414D01*
G54D48*
X70217Y-56022D02*
X70217Y-56637D01*
X70217Y-56637D02*
X70112Y-56742D01*
X71718Y-57184D02*
X70960Y-57184D01*
X70960Y-57184D02*
X70956Y-57189D01*
X73818Y-57184D02*
X74487Y-57184D01*
X74487Y-57184D02*
X74516Y-57213D01*
X36650Y-52200D02*
X35820Y-52200D01*
X35820Y-52200D02*
X35790Y-52170D01*
X36650Y-50400D02*
X36650Y-52200D01*
X54100Y-67975D02*
X53440Y-67975D01*
X53440Y-67975D02*
X53429Y-67964D01*
X54100Y-67975D02*
X54100Y-71420D01*
X53100Y-71420D02*
X54100Y-71420D01*
X55925Y-64975D02*
X56635Y-64975D01*
X56635Y-64975D02*
X56645Y-64985D01*
X54725Y-64650D02*
X55155Y-64650D01*
X55480Y-64975D02*
X55925Y-64975D01*
X55155Y-64650D02*
X55480Y-64975D01*
X52355Y-64280D02*
X50720Y-64280D01*
X50720Y-64280D02*
X50700Y-64300D01*
X87735Y-53025D02*
X88983Y-53025D01*
X88983Y-53025D02*
X89015Y-53056D01*
G54D49*
X72505Y-71475D02*
X72505Y-70455D01*
X72505Y-70455D02*
X72530Y-70430D01*
X72530Y-70430D02*
X71865Y-70430D01*
G54D50*
X32645Y-64328D02*
X38641Y-64328D01*
X40010Y-62960D02*
X40010Y-48390D01*
X38641Y-64328D02*
X40010Y-62960D01*
X30480Y-67635D02*
X30480Y-69288D01*
X30480Y-69288D02*
X30921Y-69288D01*
G54D49*
X31500Y-52120D02*
X30480Y-51100D01*
X31500Y-68710D02*
X31500Y-52120D01*
X30921Y-69288D02*
X31500Y-68710D01*
G54D48*
X59347Y-65202D02*
X58140Y-65202D01*
X59390Y-65160D02*
X59347Y-65202D01*
X54725Y-65025D02*
X54725Y-65335D01*
X57412Y-65930D02*
X58140Y-65202D01*
X55320Y-65930D02*
X57412Y-65930D01*
X54725Y-65335D02*
X55320Y-65930D01*
G54D50*
X62170Y-62213D02*
X62453Y-62213D01*
X62453Y-62213D02*
X62550Y-62310D01*
X80295Y-60000D02*
X80610Y-60000D01*
X79975Y-60320D02*
X80295Y-60000D01*
X71995Y-61110D02*
X71995Y-60265D01*
X72122Y-60138D02*
X72122Y-59027D01*
X71995Y-60265D02*
X72122Y-60138D01*
X71718Y-58684D02*
X71779Y-58684D01*
X73815Y-59640D02*
X77460Y-59640D01*
X73620Y-59445D02*
X73815Y-59640D01*
X72540Y-59445D02*
X73620Y-59445D01*
X71779Y-58684D02*
X72122Y-59027D01*
X72122Y-59027D02*
X72540Y-59445D01*
X70319Y-57684D02*
X71718Y-57684D01*
X70280Y-57645D02*
X70319Y-57684D01*
G54D48*
X71315Y-49955D02*
X71315Y-49715D01*
X46579Y-50104D02*
X46579Y-48535D01*
X47375Y-50900D02*
X46579Y-50104D01*
X55550Y-50900D02*
X47375Y-50900D01*
X57125Y-49325D02*
X55550Y-50900D01*
X70925Y-49325D02*
X57125Y-49325D01*
X71315Y-49715D02*
X70925Y-49325D01*
G54D50*
X50545Y-53660D02*
X50545Y-52465D01*
X50545Y-52465D02*
X50500Y-52420D01*
X49500Y-53655D02*
X49500Y-52420D01*
X48470Y-53665D02*
X48470Y-52450D01*
X48470Y-52450D02*
X48500Y-52420D01*
X59150Y-53665D02*
X59150Y-52470D01*
X59150Y-52470D02*
X59100Y-52420D01*
X60090Y-53665D02*
X60090Y-52430D01*
X60090Y-52430D02*
X60100Y-52420D01*
X56130Y-53665D02*
X56130Y-52450D01*
X56130Y-52450D02*
X56100Y-52420D01*
X58120Y-53675D02*
X58120Y-52440D01*
X58120Y-52440D02*
X58100Y-52420D01*
G54D48*
X52155Y-69875D02*
X52155Y-71365D01*
X52155Y-71365D02*
X52100Y-71420D01*
G54D50*
X62170Y-53655D02*
X62170Y-52490D01*
X62170Y-52490D02*
X62100Y-52420D01*
G54D48*
X55270Y-69880D02*
X55270Y-71230D01*
X55270Y-71230D02*
X55100Y-71400D01*
G54D50*
X66060Y-55110D02*
X66060Y-55445D01*
X66060Y-55445D02*
X66255Y-55640D01*
X66830Y-57210D02*
X66830Y-58290D01*
X66830Y-58290D02*
X66805Y-58315D01*
X67090Y-57210D02*
X67090Y-58010D01*
X67090Y-58010D02*
X67385Y-58305D01*
X66320Y-57210D02*
X66320Y-57870D01*
X65630Y-58560D02*
X65600Y-58560D01*
X66320Y-57870D02*
X65630Y-58560D01*
X66060Y-57210D02*
X66060Y-57520D01*
X64600Y-57920D02*
X64600Y-58560D01*
X64800Y-57720D02*
X64600Y-57920D01*
X65860Y-57720D02*
X64800Y-57720D01*
X66060Y-57520D02*
X65860Y-57720D01*
X65810Y-55110D02*
X65810Y-55505D01*
X65810Y-55505D02*
X65700Y-55615D01*
X66569Y-54230D02*
X66570Y-54231D01*
X66570Y-55110D02*
X66570Y-54231D01*
X83555Y-57050D02*
X84720Y-57050D01*
X84720Y-57050D02*
X84810Y-56960D01*
X67860Y-55110D02*
X67860Y-54682D01*
X68593Y-54593D02*
X68936Y-54936D01*
X67949Y-54593D02*
X68593Y-54593D01*
X67860Y-54682D02*
X67949Y-54593D01*
X71718Y-55684D02*
X71718Y-55506D01*
X67340Y-54649D02*
X67340Y-55110D01*
X67606Y-54383D02*
X67340Y-54649D01*
X69097Y-54383D02*
X67606Y-54383D01*
X69104Y-54376D02*
X69097Y-54383D01*
X71718Y-55506D02*
X71449Y-55237D01*
X72100Y-55684D02*
X71718Y-55684D01*
X72268Y-55517D02*
X72100Y-55684D01*
X71718Y-56684D02*
X71300Y-56684D01*
X71092Y-56476D02*
X71092Y-54722D01*
X71300Y-56684D02*
X71092Y-56476D01*
X70217Y-54722D02*
X71092Y-54722D01*
X71092Y-54722D02*
X72096Y-54722D01*
X72096Y-54722D02*
X72166Y-54652D01*
X72096Y-54722D02*
X72166Y-54652D01*
X72258Y-56184D02*
X71718Y-56184D01*
X72268Y-56175D02*
X72258Y-56184D01*
X74061Y-59394D02*
X74061Y-58981D01*
X74039Y-59416D02*
X74061Y-59394D01*
X73818Y-58684D02*
X73818Y-58738D01*
X74061Y-58981D02*
X74836Y-58981D01*
X73818Y-58738D02*
X74061Y-58981D01*
X73818Y-55684D02*
X74106Y-55684D01*
X74106Y-55684D02*
X74794Y-54997D01*
X73466Y-54652D02*
X74449Y-54652D01*
X74449Y-54652D02*
X74794Y-54997D01*
X79562Y-58084D02*
X80563Y-58084D01*
X80563Y-58084D02*
X80591Y-58056D01*
X79562Y-57084D02*
X80553Y-57084D01*
X80553Y-57084D02*
X80581Y-57056D01*
X74836Y-58231D02*
X78415Y-58231D01*
X78415Y-58231D02*
X78562Y-58084D01*
X78562Y-57084D02*
X78562Y-58084D01*
X78562Y-56084D02*
X78562Y-57084D01*
X73818Y-58184D02*
X74789Y-58184D01*
X74789Y-58184D02*
X74836Y-58231D01*
X79562Y-56084D02*
X80539Y-56084D01*
X80539Y-56084D02*
X80551Y-56096D01*
X81301Y-56096D02*
X81301Y-55561D01*
X75538Y-55747D02*
X74794Y-55747D01*
X75894Y-55391D02*
X75538Y-55747D01*
X81131Y-55391D02*
X75894Y-55391D01*
X81301Y-55561D02*
X81131Y-55391D01*
X81331Y-57056D02*
X81331Y-58046D01*
X81331Y-58046D02*
X81341Y-58056D01*
X81301Y-56096D02*
X81301Y-57026D01*
X81301Y-57026D02*
X81331Y-57056D01*
X73818Y-56184D02*
X74356Y-56184D01*
X74356Y-56184D02*
X74794Y-55747D01*
G54D48*
X74415Y-71250D02*
X73950Y-71250D01*
X73725Y-71475D02*
X73255Y-71475D01*
X73950Y-71250D02*
X73725Y-71475D01*
X75115Y-71250D02*
X75115Y-70585D01*
G54D50*
X75115Y-70585D02*
X74975Y-70445D01*
G54D48*
X73280Y-70430D02*
X73280Y-69675D01*
G54D50*
X73280Y-69675D02*
X73285Y-69670D01*
G54D48*
X73875Y-69670D02*
X74950Y-69670D01*
G54D50*
X74950Y-69670D02*
X74975Y-69695D01*
G54D48*
X74975Y-69695D02*
X74975Y-69135D01*
X74975Y-69135D02*
X74320Y-68480D01*
G54D50*
X74375Y-66400D02*
X74375Y-67425D01*
X74375Y-67425D02*
X74320Y-67480D01*
G54D48*
X76665Y-66410D02*
X79950Y-66410D01*
X79950Y-66410D02*
X80125Y-66585D01*
X76665Y-66410D02*
X76665Y-67760D01*
X76665Y-67760D02*
X76620Y-67805D01*
X74765Y-72050D02*
X74050Y-72050D01*
X70955Y-72275D02*
X70665Y-71985D01*
X73825Y-72275D02*
X70955Y-72275D01*
X74050Y-72050D02*
X73825Y-72275D01*
X80125Y-71335D02*
X76850Y-71335D01*
X76850Y-71335D02*
X76620Y-71565D01*
X76620Y-69405D02*
X76620Y-71565D01*
X76620Y-71565D02*
X76620Y-71655D01*
X76225Y-72050D02*
X74765Y-72050D01*
X76620Y-71655D02*
X76225Y-72050D01*
X69740Y-68490D02*
X70760Y-68490D01*
G54D50*
X70760Y-68490D02*
X70770Y-68480D01*
G54D49*
X30480Y-61021D02*
X29808Y-61021D01*
X29160Y-63008D02*
X30480Y-64328D01*
X29160Y-61670D02*
X29160Y-63008D01*
X29808Y-61021D02*
X29160Y-61670D01*
G54D10*
G36*
X70846Y-60370D02*
X70844Y-63837D01*
X64096Y-63843D01*
X64097Y-61961D01*
X64099Y-61955D01*
X64100Y-61764D01*
X64097Y-61759D01*
X64098Y-60376D01*
X70846Y-60370D01*
X70846Y-60370D01*
G37*
G54D50*
X70846Y-60370D02*
X70844Y-63837D01*
X64096Y-63843D01*
X64097Y-61961D01*
X64099Y-61955D01*
X64100Y-61764D01*
X64097Y-61759D01*
X64098Y-60376D01*
X70846Y-60370D01*
G54D10*
G36*
X85838Y-65372D02*
X85577Y-65369D01*
X85460Y-65291D01*
X84925Y-65185D01*
X84389Y-65291D01*
X84295Y-65354D01*
X83010Y-65339D01*
X83010Y-62939D01*
X82937Y-62763D01*
X82802Y-62628D01*
X82625Y-62555D01*
X82434Y-62554D01*
X82258Y-62627D01*
X82123Y-62762D01*
X82050Y-62939D01*
X82049Y-63130D01*
X82122Y-63306D01*
X82257Y-63441D01*
X82434Y-63514D01*
X82625Y-63515D01*
X82801Y-63442D01*
X82936Y-63307D01*
X83009Y-63130D01*
X83010Y-62939D01*
X83010Y-65339D01*
X76008Y-65258D01*
X75989Y-61228D01*
X81954Y-61297D01*
X81984Y-61309D01*
X82175Y-61310D01*
X82198Y-61300D01*
X85819Y-61342D01*
X85838Y-65372D01*
X85838Y-65372D01*
G37*
G54D50*
X85838Y-65372D02*
X85577Y-65369D01*
X85460Y-65291D01*
X84925Y-65185D01*
X84389Y-65291D01*
X84295Y-65354D01*
X83010Y-65339D01*
X83010Y-62939D01*
X82937Y-62763D01*
X82802Y-62628D01*
X82625Y-62555D01*
X82434Y-62554D01*
X82258Y-62627D01*
X82123Y-62762D01*
X82050Y-62939D01*
X82049Y-63130D01*
X82122Y-63306D01*
X82257Y-63441D01*
X82434Y-63514D01*
X82625Y-63515D01*
X82801Y-63442D01*
X82936Y-63307D01*
X83009Y-63130D01*
X83010Y-62939D01*
X83010Y-65339D01*
X76008Y-65258D01*
X75989Y-61228D01*
X81954Y-61297D01*
X81984Y-61309D01*
X82175Y-61310D01*
X82198Y-61300D01*
X85819Y-61342D01*
X85838Y-65372D01*
M02*
