G04 (created by PCBNEW (2013-07-07 BZR 4022)-stable) date 3/23/2014 2:10:37 AM*
%MOIN*%
G04 Gerber Fmt 3.4, Leading zero omitted, Abs format*
%FSLAX34Y34*%
G01*
G70*
G90*
G04 APERTURE LIST*
%ADD10C,0.006*%
%ADD11C,0.075*%
%ADD12R,0.06X0.06*%
%ADD13C,0.06*%
%ADD14R,0.0787402X0.0787402*%
%ADD15C,0.0787402*%
%ADD16C,0.0984252*%
%ADD17C,0.16*%
%ADD18C,0.07*%
%ADD19R,0.07X0.07*%
%ADD20C,0.0590551*%
%ADD21R,0.0787402X0.0984252*%
%ADD22C,0.0472441*%
%ADD23C,0.11811*%
%ADD24C,0.08*%
%ADD25C,0.1*%
%ADD26C,0.046*%
%ADD27C,0.035*%
%ADD28C,0.02*%
%ADD29C,0.024*%
%ADD30C,0.036*%
%ADD31C,0.01*%
G04 APERTURE END LIST*
G54D10*
G54D11*
X79325Y-68935D03*
X80125Y-66585D03*
X84925Y-66585D03*
X84925Y-71335D03*
X80125Y-71335D03*
G54D12*
X78562Y-56084D03*
G54D13*
X79562Y-56084D03*
X78562Y-57084D03*
X79562Y-57084D03*
X78562Y-58084D03*
X79562Y-58084D03*
G54D14*
X88845Y-70995D03*
G54D15*
X88845Y-69026D03*
X88845Y-67057D03*
G54D14*
X89015Y-64080D03*
G54D15*
X89015Y-62702D03*
X89015Y-61324D03*
X89015Y-59946D03*
X89015Y-58568D03*
X89015Y-57190D03*
X89015Y-55812D03*
X89015Y-54434D03*
X89015Y-53056D03*
X89015Y-51678D03*
X89015Y-50300D03*
X89015Y-48922D03*
G54D16*
X66845Y-48520D03*
X72315Y-48520D03*
G54D17*
X47600Y-63200D03*
G54D12*
X49000Y-61900D03*
G54D13*
X50000Y-61900D03*
G54D12*
X48700Y-64800D03*
G54D13*
X49700Y-64800D03*
G54D12*
X46700Y-64900D03*
G54D13*
X45700Y-64900D03*
G54D12*
X46700Y-60300D03*
G54D13*
X46700Y-59300D03*
G54D12*
X65600Y-58560D03*
G54D13*
X64600Y-58560D03*
G54D18*
X67860Y-50000D03*
X66860Y-50000D03*
G54D19*
X65860Y-50000D03*
G54D18*
X83060Y-53720D03*
X84060Y-53720D03*
G54D19*
X85060Y-53720D03*
G54D18*
X73295Y-49960D03*
X72295Y-49960D03*
G54D19*
X71295Y-49960D03*
G54D18*
X78255Y-53670D03*
X79255Y-53670D03*
G54D19*
X80255Y-53670D03*
G54D20*
X45595Y-48535D03*
X44610Y-48535D03*
X46579Y-48535D03*
G54D21*
X43665Y-49401D03*
X47524Y-49401D03*
G54D20*
X52425Y-48435D03*
X51440Y-48435D03*
X53409Y-48435D03*
G54D21*
X50495Y-49301D03*
X54354Y-49301D03*
G54D22*
X40010Y-48390D03*
X39222Y-48390D03*
X40797Y-48390D03*
G54D23*
X30480Y-51100D03*
X30480Y-69288D03*
X30480Y-67635D03*
X30480Y-65981D03*
X30480Y-64328D03*
X30480Y-62674D03*
X30480Y-61021D03*
X30480Y-59367D03*
X30480Y-57714D03*
X30480Y-56060D03*
X30480Y-54407D03*
X30480Y-52753D03*
X32645Y-51100D03*
X32645Y-69288D03*
X32645Y-67635D03*
X32645Y-65981D03*
X32645Y-64328D03*
X32645Y-62674D03*
X32645Y-61021D03*
X32645Y-59367D03*
X32645Y-57714D03*
X32645Y-56060D03*
X32645Y-54407D03*
X32645Y-52753D03*
G54D24*
X52100Y-71420D03*
X53100Y-71420D03*
X54100Y-71420D03*
X55100Y-71420D03*
X57100Y-71420D03*
X58100Y-71420D03*
X59100Y-71420D03*
X60100Y-71420D03*
X61100Y-71420D03*
X62100Y-71420D03*
X62100Y-52420D03*
X61100Y-52420D03*
X60100Y-52420D03*
X59100Y-52420D03*
X58100Y-52420D03*
X57100Y-52420D03*
X56100Y-52420D03*
X55100Y-52420D03*
X53500Y-52420D03*
X52500Y-52420D03*
X51500Y-52420D03*
X50500Y-52420D03*
X49500Y-52420D03*
X48500Y-52420D03*
X51100Y-71420D03*
X50100Y-71420D03*
X47500Y-52420D03*
X46500Y-52420D03*
X49100Y-71420D03*
X48100Y-71420D03*
G54D25*
X63510Y-53070D03*
X84810Y-56960D03*
X64110Y-55530D03*
X71294Y-59747D03*
X70665Y-71985D03*
X74325Y-64840D03*
X75790Y-50210D03*
X78780Y-50230D03*
X82920Y-49850D03*
X82380Y-55695D03*
G54D26*
X34400Y-69000D03*
X82530Y-63035D03*
X75315Y-67350D03*
X56000Y-69150D03*
X35600Y-70600D03*
X36500Y-55000D03*
G54D27*
X39500Y-51300D03*
X41565Y-50865D03*
G54D26*
X51300Y-65200D03*
X56840Y-64100D03*
X85480Y-55750D03*
G54D28*
X67460Y-55890D03*
G54D26*
X41400Y-62100D03*
X63000Y-60030D03*
X41300Y-60900D03*
X34600Y-56700D03*
G54D27*
X39500Y-50400D03*
G54D28*
X65186Y-65076D03*
X52920Y-59330D03*
X65210Y-56780D03*
X67590Y-56570D03*
X60650Y-58440D03*
X68150Y-58020D03*
X60660Y-59130D03*
X56110Y-60520D03*
X56150Y-56450D03*
X67610Y-57760D03*
X61850Y-57340D03*
X60520Y-56220D03*
X58160Y-55600D03*
X62590Y-56500D03*
X59150Y-56400D03*
X59130Y-59270D03*
X68610Y-55320D03*
X60090Y-59300D03*
X60090Y-56470D03*
X85526Y-60333D03*
X62200Y-57100D03*
X53100Y-64650D03*
X60460Y-63570D03*
X76181Y-57560D03*
X74934Y-57636D03*
G54D26*
X82080Y-60830D03*
G54D28*
X65880Y-59580D03*
G54D26*
X63620Y-61860D03*
G54D28*
X63830Y-54370D03*
X66090Y-54280D03*
X66940Y-54330D03*
X73702Y-62573D03*
X65387Y-57414D03*
X70112Y-56742D03*
X70525Y-57960D03*
X75502Y-57953D03*
G54D26*
X75960Y-54350D03*
G54D28*
X86450Y-55250D03*
X79650Y-52800D03*
G54D26*
X70956Y-57189D03*
X74516Y-57213D03*
X35790Y-52170D03*
G54D27*
X53429Y-67964D03*
G54D26*
X37800Y-58500D03*
X56645Y-64985D03*
X50700Y-64300D03*
X87225Y-64850D03*
X63855Y-48630D03*
X68590Y-51940D03*
X84590Y-48810D03*
G54D28*
X69600Y-51550D03*
G54D26*
X71865Y-70430D03*
G54D28*
X59390Y-65160D03*
X62550Y-62310D03*
X79975Y-60320D03*
X77460Y-59640D03*
X70280Y-57645D03*
X66255Y-55640D03*
X66805Y-58315D03*
X67385Y-58305D03*
X65700Y-55615D03*
X66569Y-54230D03*
X68936Y-54936D03*
X69104Y-54376D03*
X71449Y-55237D03*
X72268Y-55517D03*
X72268Y-56175D03*
X74039Y-59416D03*
G54D29*
X34400Y-69000D02*
X38450Y-69000D01*
X78680Y-63035D02*
X82530Y-63035D01*
X75880Y-65835D02*
X78680Y-63035D01*
X41615Y-65835D02*
X75880Y-65835D01*
X38450Y-69000D02*
X41615Y-65835D01*
G54D30*
X34385Y-70715D02*
X34385Y-69015D01*
X34385Y-69015D02*
X34400Y-69000D01*
X82530Y-63035D02*
X82465Y-63100D01*
X30480Y-54407D02*
X29692Y-54407D01*
X29692Y-54407D02*
X29200Y-54900D01*
X29200Y-54900D02*
X29200Y-71000D01*
X29200Y-71000D02*
X29700Y-71500D01*
X29700Y-71500D02*
X33600Y-71500D01*
X33600Y-71500D02*
X34385Y-70715D01*
X34385Y-70715D02*
X34400Y-70700D01*
X35600Y-70600D02*
X35600Y-71800D01*
X39200Y-72300D02*
X40800Y-70700D01*
X36100Y-72300D02*
X39200Y-72300D01*
X35600Y-71800D02*
X36100Y-72300D01*
X73315Y-49955D02*
X74305Y-49955D01*
X74900Y-50550D02*
X74900Y-53300D01*
X74305Y-49955D02*
X74900Y-50550D01*
X72400Y-53300D02*
X74900Y-53300D01*
X64800Y-53300D02*
X72400Y-53300D01*
X62900Y-51400D02*
X64800Y-53300D01*
X39600Y-51400D02*
X62900Y-51400D01*
X39500Y-51300D02*
X39600Y-51400D01*
X74900Y-53300D02*
X77900Y-53300D01*
X77900Y-53300D02*
X78300Y-53700D01*
X66850Y-49300D02*
X66850Y-49990D01*
X66850Y-49990D02*
X66860Y-50000D01*
X83941Y-52024D02*
X83941Y-53601D01*
X67850Y-49300D02*
X80090Y-49300D01*
X80090Y-49300D02*
X83941Y-52024D01*
X83941Y-53601D02*
X84060Y-53720D01*
X67250Y-49300D02*
X67850Y-49300D01*
X39500Y-50400D02*
X39900Y-50400D01*
X39900Y-50400D02*
X59000Y-50400D01*
X59000Y-50400D02*
X61450Y-49300D01*
X61450Y-49300D02*
X66850Y-49300D01*
X66850Y-49300D02*
X67250Y-49300D01*
G54D29*
X79300Y-53700D02*
X79200Y-53700D01*
X71395Y-56750D02*
X70956Y-57189D01*
X76150Y-56750D02*
X71395Y-56750D01*
X79200Y-53700D02*
X76150Y-56750D01*
X83060Y-53720D02*
X83060Y-53775D01*
X81620Y-55200D02*
X78210Y-55200D01*
X81635Y-55200D02*
X81620Y-55200D01*
X78210Y-55200D02*
X76197Y-57213D01*
X76197Y-57213D02*
X74516Y-57213D01*
X83060Y-53775D02*
X81635Y-55200D01*
G54D10*
G36*
X77667Y-63524D02*
X75726Y-65465D01*
X74760Y-65465D01*
X74960Y-65265D01*
X75074Y-64989D01*
X75075Y-64691D01*
X74961Y-64415D01*
X74750Y-64204D01*
X74474Y-64090D01*
X74176Y-64089D01*
X73900Y-64203D01*
X73689Y-64414D01*
X73575Y-64690D01*
X73574Y-64988D01*
X73688Y-65264D01*
X73889Y-65465D01*
X65536Y-65465D01*
X65536Y-65006D01*
X65482Y-64878D01*
X65384Y-64779D01*
X65255Y-64726D01*
X65116Y-64725D01*
X64988Y-64779D01*
X64889Y-64877D01*
X64836Y-65006D01*
X64835Y-65145D01*
X64889Y-65274D01*
X64987Y-65372D01*
X65116Y-65425D01*
X65255Y-65426D01*
X65384Y-65372D01*
X65482Y-65274D01*
X65535Y-65145D01*
X65536Y-65006D01*
X65536Y-65465D01*
X59568Y-65465D01*
X59588Y-65456D01*
X59686Y-65358D01*
X59739Y-65229D01*
X59740Y-65090D01*
X59686Y-64962D01*
X59588Y-64863D01*
X59459Y-64810D01*
X59320Y-64809D01*
X59192Y-64863D01*
X59093Y-64961D01*
X59040Y-65090D01*
X59039Y-65229D01*
X59093Y-65358D01*
X59191Y-65456D01*
X59211Y-65465D01*
X56740Y-65465D01*
X56916Y-65392D01*
X57051Y-65257D01*
X57124Y-65080D01*
X57125Y-64889D01*
X57052Y-64713D01*
X56917Y-64578D01*
X56740Y-64505D01*
X56549Y-64504D01*
X56373Y-64577D01*
X56238Y-64712D01*
X56165Y-64889D01*
X56164Y-65080D01*
X56237Y-65256D01*
X56372Y-65391D01*
X56549Y-65464D01*
X56644Y-65465D01*
X54129Y-65465D01*
X53450Y-65463D01*
X53450Y-64580D01*
X53396Y-64452D01*
X53298Y-64353D01*
X53169Y-64300D01*
X53030Y-64299D01*
X52902Y-64353D01*
X52803Y-64451D01*
X52750Y-64580D01*
X52749Y-64719D01*
X52803Y-64848D01*
X52901Y-64946D01*
X53030Y-64999D01*
X53169Y-65000D01*
X53298Y-64946D01*
X53396Y-64848D01*
X53449Y-64719D01*
X53450Y-64580D01*
X53450Y-65463D01*
X51180Y-65458D01*
X51180Y-64204D01*
X51107Y-64028D01*
X50972Y-63893D01*
X50795Y-63820D01*
X50604Y-63819D01*
X50428Y-63892D01*
X50293Y-64027D01*
X50220Y-64204D01*
X50219Y-64395D01*
X50292Y-64571D01*
X50427Y-64706D01*
X50604Y-64779D01*
X50795Y-64780D01*
X50971Y-64707D01*
X51106Y-64572D01*
X51179Y-64395D01*
X51180Y-64204D01*
X51180Y-65458D01*
X50250Y-65455D01*
X50250Y-64691D01*
X50166Y-64488D01*
X50011Y-64334D01*
X49809Y-64250D01*
X49591Y-64249D01*
X49388Y-64333D01*
X49250Y-64472D01*
X49250Y-64450D01*
X49212Y-64358D01*
X49141Y-64288D01*
X49049Y-64250D01*
X48950Y-64249D01*
X48350Y-64249D01*
X48258Y-64287D01*
X48188Y-64358D01*
X48150Y-64450D01*
X48149Y-64549D01*
X48149Y-65149D01*
X48187Y-65241D01*
X48258Y-65311D01*
X48350Y-65349D01*
X48449Y-65350D01*
X49049Y-65350D01*
X49141Y-65312D01*
X49211Y-65241D01*
X49249Y-65149D01*
X49249Y-65127D01*
X49388Y-65265D01*
X49590Y-65349D01*
X49808Y-65350D01*
X50011Y-65266D01*
X50165Y-65111D01*
X50249Y-64909D01*
X50250Y-64691D01*
X50250Y-65455D01*
X47850Y-65450D01*
X47850Y-64232D01*
X48194Y-64090D01*
X48489Y-63795D01*
X48632Y-63452D01*
X60118Y-63480D01*
X60110Y-63500D01*
X60109Y-63639D01*
X60163Y-63768D01*
X60261Y-63866D01*
X60390Y-63919D01*
X60529Y-63920D01*
X60658Y-63866D01*
X60756Y-63768D01*
X60809Y-63639D01*
X60810Y-63500D01*
X60802Y-63482D01*
X77667Y-63524D01*
X77667Y-63524D01*
G37*
G54D31*
X77667Y-63524D02*
X75726Y-65465D01*
X74760Y-65465D01*
X74960Y-65265D01*
X75074Y-64989D01*
X75075Y-64691D01*
X74961Y-64415D01*
X74750Y-64204D01*
X74474Y-64090D01*
X74176Y-64089D01*
X73900Y-64203D01*
X73689Y-64414D01*
X73575Y-64690D01*
X73574Y-64988D01*
X73688Y-65264D01*
X73889Y-65465D01*
X65536Y-65465D01*
X65536Y-65006D01*
X65482Y-64878D01*
X65384Y-64779D01*
X65255Y-64726D01*
X65116Y-64725D01*
X64988Y-64779D01*
X64889Y-64877D01*
X64836Y-65006D01*
X64835Y-65145D01*
X64889Y-65274D01*
X64987Y-65372D01*
X65116Y-65425D01*
X65255Y-65426D01*
X65384Y-65372D01*
X65482Y-65274D01*
X65535Y-65145D01*
X65536Y-65006D01*
X65536Y-65465D01*
X59568Y-65465D01*
X59588Y-65456D01*
X59686Y-65358D01*
X59739Y-65229D01*
X59740Y-65090D01*
X59686Y-64962D01*
X59588Y-64863D01*
X59459Y-64810D01*
X59320Y-64809D01*
X59192Y-64863D01*
X59093Y-64961D01*
X59040Y-65090D01*
X59039Y-65229D01*
X59093Y-65358D01*
X59191Y-65456D01*
X59211Y-65465D01*
X56740Y-65465D01*
X56916Y-65392D01*
X57051Y-65257D01*
X57124Y-65080D01*
X57125Y-64889D01*
X57052Y-64713D01*
X56917Y-64578D01*
X56740Y-64505D01*
X56549Y-64504D01*
X56373Y-64577D01*
X56238Y-64712D01*
X56165Y-64889D01*
X56164Y-65080D01*
X56237Y-65256D01*
X56372Y-65391D01*
X56549Y-65464D01*
X56644Y-65465D01*
X54129Y-65465D01*
X53450Y-65463D01*
X53450Y-64580D01*
X53396Y-64452D01*
X53298Y-64353D01*
X53169Y-64300D01*
X53030Y-64299D01*
X52902Y-64353D01*
X52803Y-64451D01*
X52750Y-64580D01*
X52749Y-64719D01*
X52803Y-64848D01*
X52901Y-64946D01*
X53030Y-64999D01*
X53169Y-65000D01*
X53298Y-64946D01*
X53396Y-64848D01*
X53449Y-64719D01*
X53450Y-64580D01*
X53450Y-65463D01*
X51180Y-65458D01*
X51180Y-64204D01*
X51107Y-64028D01*
X50972Y-63893D01*
X50795Y-63820D01*
X50604Y-63819D01*
X50428Y-63892D01*
X50293Y-64027D01*
X50220Y-64204D01*
X50219Y-64395D01*
X50292Y-64571D01*
X50427Y-64706D01*
X50604Y-64779D01*
X50795Y-64780D01*
X50971Y-64707D01*
X51106Y-64572D01*
X51179Y-64395D01*
X51180Y-64204D01*
X51180Y-65458D01*
X50250Y-65455D01*
X50250Y-64691D01*
X50166Y-64488D01*
X50011Y-64334D01*
X49809Y-64250D01*
X49591Y-64249D01*
X49388Y-64333D01*
X49250Y-64472D01*
X49250Y-64450D01*
X49212Y-64358D01*
X49141Y-64288D01*
X49049Y-64250D01*
X48950Y-64249D01*
X48350Y-64249D01*
X48258Y-64287D01*
X48188Y-64358D01*
X48150Y-64450D01*
X48149Y-64549D01*
X48149Y-65149D01*
X48187Y-65241D01*
X48258Y-65311D01*
X48350Y-65349D01*
X48449Y-65350D01*
X49049Y-65350D01*
X49141Y-65312D01*
X49211Y-65241D01*
X49249Y-65149D01*
X49249Y-65127D01*
X49388Y-65265D01*
X49590Y-65349D01*
X49808Y-65350D01*
X50011Y-65266D01*
X50165Y-65111D01*
X50249Y-64909D01*
X50250Y-64691D01*
X50250Y-65455D01*
X47850Y-65450D01*
X47850Y-64232D01*
X48194Y-64090D01*
X48489Y-63795D01*
X48632Y-63452D01*
X60118Y-63480D01*
X60110Y-63500D01*
X60109Y-63639D01*
X60163Y-63768D01*
X60261Y-63866D01*
X60390Y-63919D01*
X60529Y-63920D01*
X60658Y-63866D01*
X60756Y-63768D01*
X60809Y-63639D01*
X60810Y-63500D01*
X60802Y-63482D01*
X77667Y-63524D01*
G54D10*
G36*
X78595Y-72040D02*
X72345Y-72043D01*
X72345Y-70334D01*
X72272Y-70158D01*
X72137Y-70023D01*
X71960Y-69950D01*
X71769Y-69949D01*
X71593Y-70022D01*
X71458Y-70157D01*
X71385Y-70334D01*
X71384Y-70525D01*
X71457Y-70701D01*
X71592Y-70836D01*
X71769Y-70909D01*
X71960Y-70910D01*
X72136Y-70837D01*
X72271Y-70702D01*
X72344Y-70525D01*
X72345Y-70334D01*
X72345Y-72043D01*
X71414Y-72044D01*
X71415Y-71836D01*
X71301Y-71560D01*
X71090Y-71349D01*
X70814Y-71235D01*
X70516Y-71234D01*
X70240Y-71348D01*
X70029Y-71559D01*
X69915Y-71835D01*
X69914Y-72045D01*
X63975Y-72048D01*
X63975Y-69246D01*
X63842Y-68925D01*
X63596Y-68678D01*
X63274Y-68545D01*
X62926Y-68544D01*
X62605Y-68677D01*
X62358Y-68923D01*
X62225Y-69245D01*
X62224Y-69593D01*
X62357Y-69915D01*
X62603Y-70161D01*
X62925Y-70294D01*
X63273Y-70295D01*
X63595Y-70162D01*
X63841Y-69916D01*
X63974Y-69594D01*
X63975Y-69246D01*
X63975Y-72048D01*
X62278Y-72049D01*
X62467Y-71971D01*
X62650Y-71788D01*
X62749Y-71549D01*
X62750Y-71291D01*
X62651Y-71052D01*
X62468Y-70869D01*
X62229Y-70770D01*
X61971Y-70769D01*
X61732Y-70868D01*
X61599Y-71000D01*
X61468Y-70869D01*
X61229Y-70770D01*
X60971Y-70769D01*
X60732Y-70868D01*
X60599Y-71000D01*
X60468Y-70869D01*
X60229Y-70770D01*
X59971Y-70769D01*
X59732Y-70868D01*
X59599Y-71000D01*
X59468Y-70869D01*
X59229Y-70770D01*
X58971Y-70769D01*
X58732Y-70868D01*
X58599Y-71000D01*
X58468Y-70869D01*
X58229Y-70770D01*
X57971Y-70769D01*
X57732Y-70868D01*
X57599Y-71000D01*
X57468Y-70869D01*
X57229Y-70770D01*
X56971Y-70769D01*
X56732Y-70868D01*
X56549Y-71051D01*
X56450Y-71290D01*
X56449Y-71548D01*
X56548Y-71787D01*
X56731Y-71970D01*
X56928Y-72052D01*
X55268Y-72053D01*
X55467Y-71971D01*
X55650Y-71788D01*
X55749Y-71549D01*
X55750Y-71291D01*
X55651Y-71052D01*
X55468Y-70869D01*
X55229Y-70770D01*
X54971Y-70769D01*
X54732Y-70868D01*
X54599Y-71000D01*
X54468Y-70869D01*
X54229Y-70770D01*
X53971Y-70769D01*
X53854Y-70818D01*
X53854Y-67879D01*
X53789Y-67723D01*
X53670Y-67603D01*
X53513Y-67539D01*
X53344Y-67538D01*
X53188Y-67603D01*
X53068Y-67722D01*
X53004Y-67879D01*
X53003Y-68048D01*
X53068Y-68204D01*
X53187Y-68324D01*
X53344Y-68388D01*
X53513Y-68389D01*
X53669Y-68324D01*
X53789Y-68205D01*
X53853Y-68048D01*
X53854Y-67879D01*
X53854Y-70818D01*
X53732Y-70868D01*
X53599Y-71000D01*
X53468Y-70869D01*
X53229Y-70770D01*
X52971Y-70769D01*
X52732Y-70868D01*
X52599Y-71000D01*
X52468Y-70869D01*
X52229Y-70770D01*
X51971Y-70769D01*
X51732Y-70868D01*
X51599Y-71000D01*
X51468Y-70869D01*
X51229Y-70770D01*
X50971Y-70769D01*
X50732Y-70868D01*
X50599Y-71000D01*
X50468Y-70869D01*
X50229Y-70770D01*
X49971Y-70769D01*
X49732Y-70868D01*
X49599Y-71000D01*
X49468Y-70869D01*
X49229Y-70770D01*
X48971Y-70769D01*
X48732Y-70868D01*
X48599Y-71000D01*
X48468Y-70869D01*
X48229Y-70770D01*
X47971Y-70769D01*
X47732Y-70868D01*
X47549Y-71051D01*
X47450Y-71290D01*
X47449Y-71548D01*
X47548Y-71787D01*
X47731Y-71970D01*
X47941Y-72058D01*
X43196Y-72060D01*
X43341Y-71916D01*
X43474Y-71594D01*
X43475Y-71246D01*
X43342Y-70925D01*
X43096Y-70678D01*
X42774Y-70545D01*
X42426Y-70544D01*
X42105Y-70677D01*
X41858Y-70923D01*
X41725Y-71245D01*
X41724Y-71593D01*
X41857Y-71915D01*
X42004Y-72061D01*
X40391Y-72062D01*
X40507Y-67466D01*
X41768Y-66205D01*
X75880Y-66205D01*
X76021Y-66176D01*
X76141Y-66096D01*
X76187Y-66050D01*
X78530Y-66040D01*
X78554Y-68255D01*
X78456Y-68353D01*
X78300Y-68730D01*
X78299Y-69137D01*
X78455Y-69514D01*
X78569Y-69628D01*
X78595Y-72040D01*
X78595Y-72040D01*
G37*
G54D31*
X78595Y-72040D02*
X72345Y-72043D01*
X72345Y-70334D01*
X72272Y-70158D01*
X72137Y-70023D01*
X71960Y-69950D01*
X71769Y-69949D01*
X71593Y-70022D01*
X71458Y-70157D01*
X71385Y-70334D01*
X71384Y-70525D01*
X71457Y-70701D01*
X71592Y-70836D01*
X71769Y-70909D01*
X71960Y-70910D01*
X72136Y-70837D01*
X72271Y-70702D01*
X72344Y-70525D01*
X72345Y-70334D01*
X72345Y-72043D01*
X71414Y-72044D01*
X71415Y-71836D01*
X71301Y-71560D01*
X71090Y-71349D01*
X70814Y-71235D01*
X70516Y-71234D01*
X70240Y-71348D01*
X70029Y-71559D01*
X69915Y-71835D01*
X69914Y-72045D01*
X63975Y-72048D01*
X63975Y-69246D01*
X63842Y-68925D01*
X63596Y-68678D01*
X63274Y-68545D01*
X62926Y-68544D01*
X62605Y-68677D01*
X62358Y-68923D01*
X62225Y-69245D01*
X62224Y-69593D01*
X62357Y-69915D01*
X62603Y-70161D01*
X62925Y-70294D01*
X63273Y-70295D01*
X63595Y-70162D01*
X63841Y-69916D01*
X63974Y-69594D01*
X63975Y-69246D01*
X63975Y-72048D01*
X62278Y-72049D01*
X62467Y-71971D01*
X62650Y-71788D01*
X62749Y-71549D01*
X62750Y-71291D01*
X62651Y-71052D01*
X62468Y-70869D01*
X62229Y-70770D01*
X61971Y-70769D01*
X61732Y-70868D01*
X61599Y-71000D01*
X61468Y-70869D01*
X61229Y-70770D01*
X60971Y-70769D01*
X60732Y-70868D01*
X60599Y-71000D01*
X60468Y-70869D01*
X60229Y-70770D01*
X59971Y-70769D01*
X59732Y-70868D01*
X59599Y-71000D01*
X59468Y-70869D01*
X59229Y-70770D01*
X58971Y-70769D01*
X58732Y-70868D01*
X58599Y-71000D01*
X58468Y-70869D01*
X58229Y-70770D01*
X57971Y-70769D01*
X57732Y-70868D01*
X57599Y-71000D01*
X57468Y-70869D01*
X57229Y-70770D01*
X56971Y-70769D01*
X56732Y-70868D01*
X56549Y-71051D01*
X56450Y-71290D01*
X56449Y-71548D01*
X56548Y-71787D01*
X56731Y-71970D01*
X56928Y-72052D01*
X55268Y-72053D01*
X55467Y-71971D01*
X55650Y-71788D01*
X55749Y-71549D01*
X55750Y-71291D01*
X55651Y-71052D01*
X55468Y-70869D01*
X55229Y-70770D01*
X54971Y-70769D01*
X54732Y-70868D01*
X54599Y-71000D01*
X54468Y-70869D01*
X54229Y-70770D01*
X53971Y-70769D01*
X53854Y-70818D01*
X53854Y-67879D01*
X53789Y-67723D01*
X53670Y-67603D01*
X53513Y-67539D01*
X53344Y-67538D01*
X53188Y-67603D01*
X53068Y-67722D01*
X53004Y-67879D01*
X53003Y-68048D01*
X53068Y-68204D01*
X53187Y-68324D01*
X53344Y-68388D01*
X53513Y-68389D01*
X53669Y-68324D01*
X53789Y-68205D01*
X53853Y-68048D01*
X53854Y-67879D01*
X53854Y-70818D01*
X53732Y-70868D01*
X53599Y-71000D01*
X53468Y-70869D01*
X53229Y-70770D01*
X52971Y-70769D01*
X52732Y-70868D01*
X52599Y-71000D01*
X52468Y-70869D01*
X52229Y-70770D01*
X51971Y-70769D01*
X51732Y-70868D01*
X51599Y-71000D01*
X51468Y-70869D01*
X51229Y-70770D01*
X50971Y-70769D01*
X50732Y-70868D01*
X50599Y-71000D01*
X50468Y-70869D01*
X50229Y-70770D01*
X49971Y-70769D01*
X49732Y-70868D01*
X49599Y-71000D01*
X49468Y-70869D01*
X49229Y-70770D01*
X48971Y-70769D01*
X48732Y-70868D01*
X48599Y-71000D01*
X48468Y-70869D01*
X48229Y-70770D01*
X47971Y-70769D01*
X47732Y-70868D01*
X47549Y-71051D01*
X47450Y-71290D01*
X47449Y-71548D01*
X47548Y-71787D01*
X47731Y-71970D01*
X47941Y-72058D01*
X43196Y-72060D01*
X43341Y-71916D01*
X43474Y-71594D01*
X43475Y-71246D01*
X43342Y-70925D01*
X43096Y-70678D01*
X42774Y-70545D01*
X42426Y-70544D01*
X42105Y-70677D01*
X41858Y-70923D01*
X41725Y-71245D01*
X41724Y-71593D01*
X41857Y-71915D01*
X42004Y-72061D01*
X40391Y-72062D01*
X40507Y-67466D01*
X41768Y-66205D01*
X75880Y-66205D01*
X76021Y-66176D01*
X76141Y-66096D01*
X76187Y-66050D01*
X78530Y-66040D01*
X78554Y-68255D01*
X78456Y-68353D01*
X78300Y-68730D01*
X78299Y-69137D01*
X78455Y-69514D01*
X78569Y-69628D01*
X78595Y-72040D01*
G54D10*
G36*
X89919Y-61930D02*
X89662Y-61930D01*
X89662Y-54538D01*
X89653Y-54282D01*
X89573Y-54090D01*
X89468Y-54051D01*
X89085Y-54434D01*
X89468Y-54817D01*
X89573Y-54778D01*
X89662Y-54538D01*
X89662Y-61930D01*
X89234Y-61930D01*
X89379Y-61870D01*
X89560Y-61689D01*
X89658Y-61452D01*
X89658Y-61196D01*
X89658Y-59818D01*
X89658Y-58440D01*
X89658Y-57062D01*
X89658Y-55684D01*
X89561Y-55448D01*
X89398Y-55284D01*
X89398Y-54888D01*
X89015Y-54505D01*
X88944Y-54575D01*
X88944Y-54434D01*
X88561Y-54051D01*
X88456Y-54090D01*
X88367Y-54330D01*
X88376Y-54586D01*
X88456Y-54778D01*
X88561Y-54817D01*
X88944Y-54434D01*
X88944Y-54575D01*
X88631Y-54888D01*
X88670Y-54993D01*
X88910Y-55082D01*
X89166Y-55072D01*
X89359Y-54993D01*
X89398Y-54888D01*
X89398Y-55284D01*
X89380Y-55266D01*
X89143Y-55168D01*
X88887Y-55168D01*
X88650Y-55266D01*
X88469Y-55447D01*
X88371Y-55683D01*
X88371Y-55939D01*
X88468Y-56176D01*
X88649Y-56357D01*
X88886Y-56455D01*
X89142Y-56456D01*
X89379Y-56358D01*
X89560Y-56177D01*
X89658Y-55940D01*
X89658Y-55684D01*
X89658Y-57062D01*
X89561Y-56826D01*
X89380Y-56644D01*
X89143Y-56546D01*
X88887Y-56546D01*
X88650Y-56644D01*
X88469Y-56825D01*
X88371Y-57061D01*
X88371Y-57317D01*
X88468Y-57554D01*
X88649Y-57735D01*
X88886Y-57833D01*
X89142Y-57834D01*
X89379Y-57736D01*
X89560Y-57555D01*
X89658Y-57318D01*
X89658Y-57062D01*
X89658Y-58440D01*
X89561Y-58204D01*
X89380Y-58022D01*
X89143Y-57924D01*
X88887Y-57924D01*
X88650Y-58022D01*
X88469Y-58203D01*
X88371Y-58439D01*
X88371Y-58695D01*
X88468Y-58932D01*
X88649Y-59113D01*
X88886Y-59211D01*
X89142Y-59212D01*
X89379Y-59114D01*
X89560Y-58933D01*
X89658Y-58696D01*
X89658Y-58440D01*
X89658Y-59818D01*
X89561Y-59581D01*
X89380Y-59400D01*
X89143Y-59302D01*
X88887Y-59302D01*
X88650Y-59400D01*
X88469Y-59581D01*
X88371Y-59817D01*
X88371Y-60073D01*
X88468Y-60310D01*
X88649Y-60491D01*
X88886Y-60589D01*
X89142Y-60589D01*
X89379Y-60492D01*
X89560Y-60311D01*
X89658Y-60074D01*
X89658Y-59818D01*
X89658Y-61196D01*
X89561Y-60959D01*
X89380Y-60778D01*
X89143Y-60680D01*
X88887Y-60680D01*
X88650Y-60778D01*
X88469Y-60958D01*
X88371Y-61195D01*
X88371Y-61451D01*
X88468Y-61688D01*
X88649Y-61869D01*
X88795Y-61930D01*
X87158Y-61930D01*
X87178Y-62520D01*
X86800Y-62520D01*
X86800Y-55180D01*
X86746Y-55052D01*
X86648Y-54953D01*
X86519Y-54900D01*
X86380Y-54899D01*
X86252Y-54953D01*
X86153Y-55051D01*
X86100Y-55180D01*
X86099Y-55319D01*
X86153Y-55448D01*
X86251Y-55546D01*
X86380Y-55599D01*
X86519Y-55600D01*
X86648Y-55546D01*
X86746Y-55448D01*
X86799Y-55319D01*
X86800Y-55180D01*
X86800Y-62520D01*
X85876Y-62521D01*
X85876Y-60263D01*
X85822Y-60135D01*
X85724Y-60036D01*
X85595Y-59983D01*
X85560Y-59983D01*
X85560Y-56811D01*
X85446Y-56535D01*
X85235Y-56324D01*
X84959Y-56210D01*
X84661Y-56209D01*
X84385Y-56323D01*
X84174Y-56534D01*
X84060Y-56810D01*
X84059Y-57108D01*
X84173Y-57384D01*
X84384Y-57595D01*
X84660Y-57709D01*
X84958Y-57710D01*
X85234Y-57596D01*
X85445Y-57385D01*
X85559Y-57109D01*
X85560Y-56811D01*
X85560Y-59983D01*
X85456Y-59982D01*
X85328Y-60036D01*
X85229Y-60134D01*
X85176Y-60263D01*
X85175Y-60402D01*
X85229Y-60531D01*
X85327Y-60629D01*
X85456Y-60682D01*
X85595Y-60683D01*
X85724Y-60629D01*
X85822Y-60531D01*
X85875Y-60402D01*
X85876Y-60263D01*
X85876Y-62521D01*
X82560Y-62523D01*
X82560Y-60734D01*
X82487Y-60558D01*
X82352Y-60423D01*
X82175Y-60350D01*
X81984Y-60349D01*
X81808Y-60422D01*
X81673Y-60557D01*
X81600Y-60734D01*
X81599Y-60925D01*
X81672Y-61101D01*
X81807Y-61236D01*
X81984Y-61309D01*
X82175Y-61310D01*
X82351Y-61237D01*
X82486Y-61102D01*
X82559Y-60925D01*
X82560Y-60734D01*
X82560Y-62523D01*
X80325Y-62525D01*
X80325Y-60250D01*
X80271Y-60122D01*
X80173Y-60023D01*
X80044Y-59970D01*
X79905Y-59969D01*
X79777Y-60023D01*
X79678Y-60121D01*
X79625Y-60250D01*
X79624Y-60389D01*
X79678Y-60518D01*
X79776Y-60616D01*
X79905Y-60669D01*
X80044Y-60670D01*
X80173Y-60616D01*
X80271Y-60518D01*
X80324Y-60389D01*
X80325Y-60250D01*
X80325Y-62525D01*
X77810Y-62528D01*
X77810Y-59570D01*
X77756Y-59442D01*
X77658Y-59343D01*
X77529Y-59290D01*
X77390Y-59289D01*
X77262Y-59343D01*
X77163Y-59441D01*
X77110Y-59570D01*
X77109Y-59709D01*
X77163Y-59838D01*
X77261Y-59936D01*
X77390Y-59989D01*
X77529Y-59990D01*
X77658Y-59936D01*
X77756Y-59838D01*
X77809Y-59709D01*
X77810Y-59570D01*
X77810Y-62528D01*
X74389Y-62530D01*
X74389Y-59346D01*
X74335Y-59218D01*
X74237Y-59119D01*
X74108Y-59066D01*
X73969Y-59065D01*
X73841Y-59119D01*
X73742Y-59217D01*
X73689Y-59346D01*
X73688Y-59485D01*
X73742Y-59614D01*
X73840Y-59712D01*
X73969Y-59765D01*
X74108Y-59766D01*
X74237Y-59712D01*
X74335Y-59614D01*
X74388Y-59485D01*
X74389Y-59346D01*
X74389Y-62530D01*
X74052Y-62531D01*
X74052Y-62503D01*
X73998Y-62375D01*
X73900Y-62276D01*
X73771Y-62223D01*
X73632Y-62222D01*
X73504Y-62276D01*
X73405Y-62374D01*
X73352Y-62503D01*
X73352Y-62531D01*
X72044Y-62532D01*
X72044Y-59598D01*
X71930Y-59322D01*
X71719Y-59111D01*
X71443Y-58997D01*
X71145Y-58996D01*
X70869Y-59110D01*
X70658Y-59321D01*
X70544Y-59597D01*
X70543Y-59895D01*
X70657Y-60171D01*
X70868Y-60382D01*
X71144Y-60496D01*
X71442Y-60497D01*
X71718Y-60383D01*
X71929Y-60172D01*
X72043Y-59896D01*
X72044Y-59598D01*
X72044Y-62532D01*
X68500Y-62535D01*
X68500Y-57950D01*
X68446Y-57822D01*
X68348Y-57723D01*
X68219Y-57670D01*
X68080Y-57669D01*
X67960Y-57719D01*
X67960Y-57690D01*
X67940Y-57642D01*
X67940Y-56500D01*
X67886Y-56372D01*
X67788Y-56273D01*
X67659Y-56220D01*
X67520Y-56219D01*
X67392Y-56273D01*
X67293Y-56371D01*
X67240Y-56500D01*
X67239Y-56639D01*
X67293Y-56768D01*
X67391Y-56866D01*
X67520Y-56919D01*
X67659Y-56920D01*
X67788Y-56866D01*
X67886Y-56768D01*
X67939Y-56639D01*
X67940Y-56500D01*
X67940Y-57642D01*
X67906Y-57562D01*
X67808Y-57463D01*
X67679Y-57410D01*
X67540Y-57409D01*
X67412Y-57463D01*
X67313Y-57561D01*
X67260Y-57690D01*
X67259Y-57829D01*
X67312Y-57956D01*
X67187Y-58008D01*
X67089Y-58105D01*
X67003Y-58018D01*
X66874Y-57965D01*
X66735Y-57964D01*
X66607Y-58018D01*
X66605Y-58020D01*
X66605Y-55570D01*
X66551Y-55442D01*
X66453Y-55343D01*
X66324Y-55290D01*
X66185Y-55289D01*
X66057Y-55343D01*
X65989Y-55410D01*
X65898Y-55318D01*
X65769Y-55265D01*
X65630Y-55264D01*
X65502Y-55318D01*
X65403Y-55416D01*
X65350Y-55545D01*
X65349Y-55684D01*
X65403Y-55813D01*
X65501Y-55911D01*
X65630Y-55964D01*
X65769Y-55965D01*
X65898Y-55911D01*
X65965Y-55844D01*
X66056Y-55936D01*
X66185Y-55989D01*
X66324Y-55990D01*
X66453Y-55936D01*
X66551Y-55838D01*
X66604Y-55709D01*
X66605Y-55570D01*
X66605Y-58020D01*
X66508Y-58116D01*
X66455Y-58245D01*
X66454Y-58384D01*
X66508Y-58513D01*
X66606Y-58611D01*
X66735Y-58664D01*
X66874Y-58665D01*
X67003Y-58611D01*
X67100Y-58514D01*
X67186Y-58601D01*
X67315Y-58654D01*
X67454Y-58655D01*
X67583Y-58601D01*
X67681Y-58503D01*
X67734Y-58374D01*
X67735Y-58235D01*
X67682Y-58108D01*
X67799Y-58060D01*
X67799Y-58089D01*
X67853Y-58218D01*
X67951Y-58316D01*
X68080Y-58369D01*
X68219Y-58370D01*
X68348Y-58316D01*
X68446Y-58218D01*
X68499Y-58089D01*
X68500Y-57950D01*
X68500Y-62535D01*
X66230Y-62537D01*
X66230Y-59510D01*
X66176Y-59382D01*
X66150Y-59355D01*
X66150Y-58810D01*
X66150Y-58210D01*
X66112Y-58118D01*
X66041Y-58048D01*
X65949Y-58010D01*
X65850Y-58009D01*
X65737Y-58009D01*
X65737Y-57344D01*
X65683Y-57216D01*
X65585Y-57117D01*
X65456Y-57064D01*
X65420Y-57064D01*
X65506Y-56978D01*
X65559Y-56849D01*
X65560Y-56710D01*
X65506Y-56582D01*
X65408Y-56483D01*
X65279Y-56430D01*
X65140Y-56429D01*
X65012Y-56483D01*
X64913Y-56581D01*
X64863Y-56701D01*
X64863Y-55659D01*
X64855Y-55361D01*
X64756Y-55121D01*
X64640Y-55070D01*
X64180Y-55530D01*
X64640Y-55989D01*
X64756Y-55938D01*
X64863Y-55659D01*
X64863Y-56701D01*
X64860Y-56710D01*
X64859Y-56849D01*
X64913Y-56978D01*
X65011Y-57076D01*
X65140Y-57129D01*
X65176Y-57129D01*
X65090Y-57215D01*
X65037Y-57344D01*
X65036Y-57483D01*
X65090Y-57612D01*
X65188Y-57710D01*
X65317Y-57763D01*
X65456Y-57764D01*
X65585Y-57710D01*
X65683Y-57612D01*
X65736Y-57483D01*
X65737Y-57344D01*
X65737Y-58009D01*
X65250Y-58009D01*
X65158Y-58047D01*
X65088Y-58118D01*
X65050Y-58210D01*
X65050Y-58232D01*
X64911Y-58094D01*
X64709Y-58010D01*
X64569Y-58009D01*
X64569Y-56060D01*
X64110Y-55600D01*
X64039Y-55671D01*
X64039Y-55530D01*
X63579Y-55070D01*
X63463Y-55121D01*
X63356Y-55400D01*
X63364Y-55698D01*
X63463Y-55938D01*
X63579Y-55989D01*
X64039Y-55530D01*
X64039Y-55671D01*
X63650Y-56060D01*
X63701Y-56176D01*
X63980Y-56283D01*
X64278Y-56275D01*
X64518Y-56176D01*
X64569Y-56060D01*
X64569Y-58009D01*
X64491Y-58009D01*
X64288Y-58093D01*
X64134Y-58248D01*
X64050Y-58450D01*
X64049Y-58668D01*
X64133Y-58871D01*
X64288Y-59025D01*
X64490Y-59109D01*
X64708Y-59110D01*
X64911Y-59026D01*
X65049Y-58887D01*
X65049Y-58909D01*
X65087Y-59001D01*
X65158Y-59071D01*
X65250Y-59109D01*
X65349Y-59110D01*
X65949Y-59110D01*
X66041Y-59072D01*
X66111Y-59001D01*
X66149Y-58909D01*
X66150Y-58810D01*
X66150Y-59355D01*
X66078Y-59283D01*
X65949Y-59230D01*
X65810Y-59229D01*
X65682Y-59283D01*
X65583Y-59381D01*
X65530Y-59510D01*
X65529Y-59649D01*
X65583Y-59778D01*
X65681Y-59876D01*
X65810Y-59929D01*
X65949Y-59930D01*
X66078Y-59876D01*
X66176Y-59778D01*
X66229Y-59649D01*
X66230Y-59510D01*
X66230Y-62537D01*
X64100Y-62539D01*
X64100Y-61764D01*
X64027Y-61588D01*
X63975Y-61536D01*
X63975Y-58246D01*
X63842Y-57925D01*
X63596Y-57678D01*
X63274Y-57545D01*
X62940Y-57544D01*
X62940Y-56430D01*
X62886Y-56302D01*
X62788Y-56203D01*
X62659Y-56150D01*
X62520Y-56149D01*
X62392Y-56203D01*
X62293Y-56301D01*
X62240Y-56430D01*
X62239Y-56569D01*
X62293Y-56698D01*
X62391Y-56796D01*
X62520Y-56849D01*
X62659Y-56850D01*
X62788Y-56796D01*
X62886Y-56698D01*
X62939Y-56569D01*
X62940Y-56430D01*
X62940Y-57544D01*
X62926Y-57544D01*
X62605Y-57677D01*
X62550Y-57732D01*
X62550Y-57030D01*
X62496Y-56902D01*
X62398Y-56803D01*
X62269Y-56750D01*
X62130Y-56749D01*
X62002Y-56803D01*
X61903Y-56901D01*
X61866Y-56990D01*
X61780Y-56989D01*
X61652Y-57043D01*
X61553Y-57141D01*
X61500Y-57270D01*
X61499Y-57409D01*
X61553Y-57538D01*
X61651Y-57636D01*
X61780Y-57689D01*
X61919Y-57690D01*
X62048Y-57636D01*
X62146Y-57538D01*
X62183Y-57449D01*
X62269Y-57450D01*
X62398Y-57396D01*
X62496Y-57298D01*
X62549Y-57169D01*
X62550Y-57030D01*
X62550Y-57732D01*
X62358Y-57923D01*
X62225Y-58245D01*
X62224Y-58593D01*
X62357Y-58915D01*
X62603Y-59161D01*
X62925Y-59294D01*
X63273Y-59295D01*
X63595Y-59162D01*
X63841Y-58916D01*
X63974Y-58594D01*
X63975Y-58246D01*
X63975Y-61536D01*
X63892Y-61453D01*
X63715Y-61380D01*
X63524Y-61379D01*
X63348Y-61452D01*
X63213Y-61587D01*
X63140Y-61764D01*
X63139Y-61955D01*
X63212Y-62131D01*
X63347Y-62266D01*
X63524Y-62339D01*
X63715Y-62340D01*
X63891Y-62267D01*
X64026Y-62132D01*
X64099Y-61955D01*
X64100Y-61764D01*
X64100Y-62539D01*
X62814Y-62540D01*
X62846Y-62508D01*
X62899Y-62379D01*
X62900Y-62240D01*
X62846Y-62112D01*
X62748Y-62013D01*
X62619Y-61960D01*
X62480Y-61959D01*
X62352Y-62013D01*
X62253Y-62111D01*
X62200Y-62240D01*
X62199Y-62379D01*
X62253Y-62508D01*
X62286Y-62541D01*
X61010Y-62542D01*
X61010Y-59060D01*
X60956Y-58932D01*
X60858Y-58833D01*
X60736Y-58782D01*
X60848Y-58736D01*
X60946Y-58638D01*
X60999Y-58509D01*
X61000Y-58370D01*
X60946Y-58242D01*
X60870Y-58165D01*
X60870Y-56150D01*
X60816Y-56022D01*
X60718Y-55923D01*
X60589Y-55870D01*
X60450Y-55869D01*
X60322Y-55923D01*
X60223Y-56021D01*
X60179Y-56128D01*
X60159Y-56120D01*
X60020Y-56119D01*
X59892Y-56173D01*
X59793Y-56271D01*
X59740Y-56400D01*
X59739Y-56539D01*
X59793Y-56668D01*
X59891Y-56766D01*
X60020Y-56819D01*
X60159Y-56820D01*
X60288Y-56766D01*
X60386Y-56668D01*
X60430Y-56561D01*
X60450Y-56569D01*
X60589Y-56570D01*
X60718Y-56516D01*
X60816Y-56418D01*
X60869Y-56289D01*
X60870Y-56150D01*
X60870Y-58165D01*
X60848Y-58143D01*
X60719Y-58090D01*
X60580Y-58089D01*
X60452Y-58143D01*
X60353Y-58241D01*
X60300Y-58370D01*
X60299Y-58509D01*
X60353Y-58638D01*
X60451Y-58736D01*
X60573Y-58787D01*
X60462Y-58833D01*
X60363Y-58931D01*
X60320Y-59035D01*
X60288Y-59003D01*
X60159Y-58950D01*
X60020Y-58949D01*
X59892Y-59003D01*
X59793Y-59101D01*
X59740Y-59230D01*
X59739Y-59369D01*
X59793Y-59498D01*
X59891Y-59596D01*
X60020Y-59649D01*
X60159Y-59650D01*
X60288Y-59596D01*
X60386Y-59498D01*
X60429Y-59394D01*
X60461Y-59426D01*
X60590Y-59479D01*
X60729Y-59480D01*
X60858Y-59426D01*
X60956Y-59328D01*
X61009Y-59199D01*
X61010Y-59060D01*
X61010Y-62542D01*
X59500Y-62543D01*
X59500Y-56330D01*
X59446Y-56202D01*
X59348Y-56103D01*
X59219Y-56050D01*
X59080Y-56049D01*
X58952Y-56103D01*
X58853Y-56201D01*
X58800Y-56330D01*
X58799Y-56469D01*
X58853Y-56598D01*
X58951Y-56696D01*
X59080Y-56749D01*
X59219Y-56750D01*
X59348Y-56696D01*
X59446Y-56598D01*
X59499Y-56469D01*
X59500Y-56330D01*
X59500Y-62543D01*
X59480Y-62543D01*
X59480Y-59200D01*
X59426Y-59072D01*
X59328Y-58973D01*
X59199Y-58920D01*
X59060Y-58919D01*
X58932Y-58973D01*
X58833Y-59071D01*
X58780Y-59200D01*
X58779Y-59339D01*
X58833Y-59468D01*
X58931Y-59566D01*
X59060Y-59619D01*
X59199Y-59620D01*
X59328Y-59566D01*
X59426Y-59468D01*
X59479Y-59339D01*
X59480Y-59200D01*
X59480Y-62543D01*
X58510Y-62544D01*
X58510Y-55530D01*
X58456Y-55402D01*
X58358Y-55303D01*
X58229Y-55250D01*
X58090Y-55249D01*
X57962Y-55303D01*
X57863Y-55401D01*
X57810Y-55530D01*
X57809Y-55669D01*
X57863Y-55798D01*
X57961Y-55896D01*
X58090Y-55949D01*
X58229Y-55950D01*
X58358Y-55896D01*
X58456Y-55798D01*
X58509Y-55669D01*
X58510Y-55530D01*
X58510Y-62544D01*
X56500Y-62546D01*
X56500Y-56380D01*
X56446Y-56252D01*
X56348Y-56153D01*
X56219Y-56100D01*
X56080Y-56099D01*
X55952Y-56153D01*
X55853Y-56251D01*
X55800Y-56380D01*
X55799Y-56519D01*
X55853Y-56648D01*
X55951Y-56746D01*
X56080Y-56799D01*
X56219Y-56800D01*
X56348Y-56746D01*
X56446Y-56648D01*
X56499Y-56519D01*
X56500Y-56380D01*
X56500Y-62546D01*
X56460Y-62546D01*
X56460Y-60450D01*
X56406Y-60322D01*
X56308Y-60223D01*
X56179Y-60170D01*
X56040Y-60169D01*
X55912Y-60223D01*
X55813Y-60321D01*
X55760Y-60450D01*
X55759Y-60589D01*
X55813Y-60718D01*
X55911Y-60816D01*
X56040Y-60869D01*
X56179Y-60870D01*
X56308Y-60816D01*
X56406Y-60718D01*
X56459Y-60589D01*
X56460Y-60450D01*
X56460Y-62546D01*
X53270Y-62548D01*
X53270Y-59260D01*
X53216Y-59132D01*
X53118Y-59033D01*
X52989Y-58980D01*
X52850Y-58979D01*
X52722Y-59033D01*
X52623Y-59131D01*
X52570Y-59260D01*
X52569Y-59399D01*
X52623Y-59528D01*
X52721Y-59626D01*
X52850Y-59679D01*
X52989Y-59680D01*
X53118Y-59626D01*
X53216Y-59528D01*
X53269Y-59399D01*
X53270Y-59260D01*
X53270Y-62548D01*
X50550Y-62551D01*
X50550Y-61791D01*
X50466Y-61588D01*
X50311Y-61434D01*
X50109Y-61350D01*
X49891Y-61349D01*
X49688Y-61433D01*
X49550Y-61572D01*
X49550Y-61550D01*
X49512Y-61458D01*
X49441Y-61388D01*
X49349Y-61350D01*
X49250Y-61349D01*
X48650Y-61349D01*
X48558Y-61387D01*
X48488Y-61458D01*
X48450Y-61550D01*
X48449Y-61649D01*
X48449Y-62249D01*
X48487Y-62341D01*
X48558Y-62411D01*
X48650Y-62449D01*
X48749Y-62450D01*
X49349Y-62450D01*
X49441Y-62412D01*
X49511Y-62341D01*
X49549Y-62249D01*
X49549Y-62227D01*
X49688Y-62365D01*
X49890Y-62449D01*
X50108Y-62450D01*
X50311Y-62366D01*
X50465Y-62211D01*
X50549Y-62009D01*
X50550Y-61791D01*
X50550Y-62551D01*
X48437Y-62553D01*
X48195Y-62310D01*
X47809Y-62150D01*
X47392Y-62149D01*
X47250Y-62208D01*
X47250Y-59191D01*
X47166Y-58988D01*
X47011Y-58834D01*
X46809Y-58750D01*
X46591Y-58749D01*
X46388Y-58833D01*
X46234Y-58988D01*
X46150Y-59190D01*
X46149Y-59408D01*
X46233Y-59611D01*
X46372Y-59749D01*
X46350Y-59749D01*
X46258Y-59787D01*
X46188Y-59858D01*
X46150Y-59950D01*
X46149Y-60049D01*
X46149Y-60649D01*
X46187Y-60741D01*
X46258Y-60811D01*
X46350Y-60849D01*
X46449Y-60850D01*
X47049Y-60850D01*
X47141Y-60812D01*
X47211Y-60741D01*
X47249Y-60649D01*
X47250Y-60550D01*
X47250Y-59950D01*
X47212Y-59858D01*
X47141Y-59788D01*
X47049Y-59750D01*
X47027Y-59750D01*
X47165Y-59611D01*
X47249Y-59409D01*
X47250Y-59191D01*
X47250Y-62208D01*
X47006Y-62309D01*
X46760Y-62554D01*
X40308Y-62559D01*
X40056Y-54845D01*
X63750Y-54863D01*
X63701Y-54883D01*
X63650Y-54999D01*
X64110Y-55459D01*
X64569Y-54999D01*
X64518Y-54883D01*
X64466Y-54863D01*
X68586Y-54866D01*
X68585Y-54969D01*
X68540Y-54969D01*
X68412Y-55023D01*
X68313Y-55121D01*
X68260Y-55250D01*
X68259Y-55389D01*
X68313Y-55518D01*
X68411Y-55616D01*
X68540Y-55669D01*
X68679Y-55670D01*
X68808Y-55616D01*
X68906Y-55518D01*
X68959Y-55389D01*
X68960Y-55286D01*
X69005Y-55286D01*
X69134Y-55232D01*
X69232Y-55134D01*
X69285Y-55005D01*
X69286Y-54867D01*
X77503Y-54873D01*
X75996Y-56380D01*
X72558Y-56380D01*
X72564Y-56373D01*
X72617Y-56244D01*
X72618Y-56105D01*
X72564Y-55977D01*
X72466Y-55878D01*
X72388Y-55845D01*
X72466Y-55813D01*
X72564Y-55715D01*
X72617Y-55586D01*
X72618Y-55447D01*
X72564Y-55319D01*
X72466Y-55220D01*
X72337Y-55167D01*
X72198Y-55166D01*
X72070Y-55220D01*
X71971Y-55318D01*
X71918Y-55447D01*
X71917Y-55586D01*
X71971Y-55715D01*
X72069Y-55813D01*
X72147Y-55846D01*
X72070Y-55878D01*
X71971Y-55976D01*
X71918Y-56105D01*
X71917Y-56244D01*
X71971Y-56373D01*
X71978Y-56380D01*
X71799Y-56380D01*
X71799Y-55167D01*
X71745Y-55039D01*
X71647Y-54940D01*
X71518Y-54887D01*
X71379Y-54886D01*
X71251Y-54940D01*
X71152Y-55038D01*
X71099Y-55167D01*
X71098Y-55306D01*
X71152Y-55435D01*
X71250Y-55533D01*
X71379Y-55586D01*
X71518Y-55587D01*
X71647Y-55533D01*
X71745Y-55435D01*
X71798Y-55306D01*
X71799Y-55167D01*
X71799Y-56380D01*
X71395Y-56380D01*
X71253Y-56408D01*
X71133Y-56488D01*
X71133Y-56488D01*
X71133Y-56488D01*
X70912Y-56708D01*
X70860Y-56708D01*
X70684Y-56781D01*
X70549Y-56916D01*
X70476Y-57093D01*
X70475Y-57284D01*
X70519Y-57389D01*
X70478Y-57348D01*
X70462Y-57341D01*
X70462Y-56672D01*
X70408Y-56544D01*
X70310Y-56445D01*
X70181Y-56392D01*
X70042Y-56391D01*
X69914Y-56445D01*
X69815Y-56543D01*
X69762Y-56672D01*
X69761Y-56811D01*
X69815Y-56940D01*
X69913Y-57038D01*
X70042Y-57091D01*
X70181Y-57092D01*
X70310Y-57038D01*
X70408Y-56940D01*
X70461Y-56811D01*
X70462Y-56672D01*
X70462Y-57341D01*
X70349Y-57295D01*
X70210Y-57294D01*
X70082Y-57348D01*
X69983Y-57446D01*
X69930Y-57575D01*
X69929Y-57714D01*
X69983Y-57843D01*
X70081Y-57941D01*
X70174Y-57980D01*
X70174Y-58029D01*
X70228Y-58158D01*
X70326Y-58256D01*
X70455Y-58309D01*
X70594Y-58310D01*
X70723Y-58256D01*
X70821Y-58158D01*
X70874Y-58029D01*
X70875Y-57890D01*
X70821Y-57762D01*
X70723Y-57663D01*
X70630Y-57624D01*
X70630Y-57575D01*
X70606Y-57518D01*
X70683Y-57595D01*
X70860Y-57668D01*
X71051Y-57669D01*
X71227Y-57596D01*
X71362Y-57461D01*
X71435Y-57284D01*
X71435Y-57232D01*
X71548Y-57120D01*
X74036Y-57120D01*
X74035Y-57308D01*
X74108Y-57484D01*
X74243Y-57619D01*
X74420Y-57692D01*
X74583Y-57693D01*
X74583Y-57705D01*
X74637Y-57834D01*
X74735Y-57932D01*
X74864Y-57985D01*
X75003Y-57986D01*
X75132Y-57932D01*
X75152Y-57912D01*
X75151Y-58022D01*
X75205Y-58151D01*
X75303Y-58249D01*
X75432Y-58302D01*
X75571Y-58303D01*
X75700Y-58249D01*
X75798Y-58151D01*
X75851Y-58022D01*
X75852Y-57883D01*
X75798Y-57755D01*
X75700Y-57656D01*
X75571Y-57603D01*
X75432Y-57602D01*
X75304Y-57656D01*
X75283Y-57676D01*
X75284Y-57583D01*
X75830Y-57583D01*
X75830Y-57629D01*
X75884Y-57758D01*
X75982Y-57856D01*
X76111Y-57909D01*
X76250Y-57910D01*
X76379Y-57856D01*
X76477Y-57758D01*
X76530Y-57629D01*
X76531Y-57490D01*
X76505Y-57428D01*
X78011Y-55921D01*
X78011Y-56433D01*
X78049Y-56525D01*
X78120Y-56595D01*
X78212Y-56633D01*
X78234Y-56633D01*
X78096Y-56772D01*
X78012Y-56974D01*
X78011Y-57192D01*
X78095Y-57395D01*
X78250Y-57549D01*
X78331Y-57583D01*
X78250Y-57617D01*
X78096Y-57772D01*
X78012Y-57974D01*
X78011Y-58192D01*
X78095Y-58395D01*
X78250Y-58549D01*
X78452Y-58633D01*
X78670Y-58634D01*
X78873Y-58550D01*
X79027Y-58395D01*
X79061Y-58314D01*
X79095Y-58395D01*
X79250Y-58549D01*
X79452Y-58633D01*
X79670Y-58634D01*
X79873Y-58550D01*
X80027Y-58395D01*
X80111Y-58193D01*
X80112Y-57975D01*
X80028Y-57772D01*
X79873Y-57618D01*
X79792Y-57584D01*
X79873Y-57550D01*
X80027Y-57395D01*
X80111Y-57193D01*
X80112Y-56975D01*
X80028Y-56772D01*
X79873Y-56618D01*
X79792Y-56584D01*
X79873Y-56550D01*
X80027Y-56395D01*
X80111Y-56193D01*
X80112Y-55975D01*
X80028Y-55772D01*
X79873Y-55618D01*
X79758Y-55570D01*
X81620Y-55570D01*
X81630Y-55570D01*
X81629Y-55843D01*
X81743Y-56119D01*
X81954Y-56330D01*
X82230Y-56444D01*
X82528Y-56445D01*
X82804Y-56331D01*
X83015Y-56120D01*
X83129Y-55844D01*
X83130Y-55546D01*
X83016Y-55270D01*
X82805Y-55059D01*
X82529Y-54945D01*
X82413Y-54945D01*
X82481Y-54877D01*
X86160Y-54880D01*
X86160Y-53840D01*
X88756Y-53840D01*
X88670Y-53875D01*
X88631Y-53980D01*
X89015Y-54363D01*
X89398Y-53980D01*
X89359Y-53875D01*
X89263Y-53840D01*
X89905Y-53840D01*
X89919Y-61930D01*
X89919Y-61930D01*
G37*
G54D31*
X89919Y-61930D02*
X89662Y-61930D01*
X89662Y-54538D01*
X89653Y-54282D01*
X89573Y-54090D01*
X89468Y-54051D01*
X89085Y-54434D01*
X89468Y-54817D01*
X89573Y-54778D01*
X89662Y-54538D01*
X89662Y-61930D01*
X89234Y-61930D01*
X89379Y-61870D01*
X89560Y-61689D01*
X89658Y-61452D01*
X89658Y-61196D01*
X89658Y-59818D01*
X89658Y-58440D01*
X89658Y-57062D01*
X89658Y-55684D01*
X89561Y-55448D01*
X89398Y-55284D01*
X89398Y-54888D01*
X89015Y-54505D01*
X88944Y-54575D01*
X88944Y-54434D01*
X88561Y-54051D01*
X88456Y-54090D01*
X88367Y-54330D01*
X88376Y-54586D01*
X88456Y-54778D01*
X88561Y-54817D01*
X88944Y-54434D01*
X88944Y-54575D01*
X88631Y-54888D01*
X88670Y-54993D01*
X88910Y-55082D01*
X89166Y-55072D01*
X89359Y-54993D01*
X89398Y-54888D01*
X89398Y-55284D01*
X89380Y-55266D01*
X89143Y-55168D01*
X88887Y-55168D01*
X88650Y-55266D01*
X88469Y-55447D01*
X88371Y-55683D01*
X88371Y-55939D01*
X88468Y-56176D01*
X88649Y-56357D01*
X88886Y-56455D01*
X89142Y-56456D01*
X89379Y-56358D01*
X89560Y-56177D01*
X89658Y-55940D01*
X89658Y-55684D01*
X89658Y-57062D01*
X89561Y-56826D01*
X89380Y-56644D01*
X89143Y-56546D01*
X88887Y-56546D01*
X88650Y-56644D01*
X88469Y-56825D01*
X88371Y-57061D01*
X88371Y-57317D01*
X88468Y-57554D01*
X88649Y-57735D01*
X88886Y-57833D01*
X89142Y-57834D01*
X89379Y-57736D01*
X89560Y-57555D01*
X89658Y-57318D01*
X89658Y-57062D01*
X89658Y-58440D01*
X89561Y-58204D01*
X89380Y-58022D01*
X89143Y-57924D01*
X88887Y-57924D01*
X88650Y-58022D01*
X88469Y-58203D01*
X88371Y-58439D01*
X88371Y-58695D01*
X88468Y-58932D01*
X88649Y-59113D01*
X88886Y-59211D01*
X89142Y-59212D01*
X89379Y-59114D01*
X89560Y-58933D01*
X89658Y-58696D01*
X89658Y-58440D01*
X89658Y-59818D01*
X89561Y-59581D01*
X89380Y-59400D01*
X89143Y-59302D01*
X88887Y-59302D01*
X88650Y-59400D01*
X88469Y-59581D01*
X88371Y-59817D01*
X88371Y-60073D01*
X88468Y-60310D01*
X88649Y-60491D01*
X88886Y-60589D01*
X89142Y-60589D01*
X89379Y-60492D01*
X89560Y-60311D01*
X89658Y-60074D01*
X89658Y-59818D01*
X89658Y-61196D01*
X89561Y-60959D01*
X89380Y-60778D01*
X89143Y-60680D01*
X88887Y-60680D01*
X88650Y-60778D01*
X88469Y-60958D01*
X88371Y-61195D01*
X88371Y-61451D01*
X88468Y-61688D01*
X88649Y-61869D01*
X88795Y-61930D01*
X87158Y-61930D01*
X87178Y-62520D01*
X86800Y-62520D01*
X86800Y-55180D01*
X86746Y-55052D01*
X86648Y-54953D01*
X86519Y-54900D01*
X86380Y-54899D01*
X86252Y-54953D01*
X86153Y-55051D01*
X86100Y-55180D01*
X86099Y-55319D01*
X86153Y-55448D01*
X86251Y-55546D01*
X86380Y-55599D01*
X86519Y-55600D01*
X86648Y-55546D01*
X86746Y-55448D01*
X86799Y-55319D01*
X86800Y-55180D01*
X86800Y-62520D01*
X85876Y-62521D01*
X85876Y-60263D01*
X85822Y-60135D01*
X85724Y-60036D01*
X85595Y-59983D01*
X85560Y-59983D01*
X85560Y-56811D01*
X85446Y-56535D01*
X85235Y-56324D01*
X84959Y-56210D01*
X84661Y-56209D01*
X84385Y-56323D01*
X84174Y-56534D01*
X84060Y-56810D01*
X84059Y-57108D01*
X84173Y-57384D01*
X84384Y-57595D01*
X84660Y-57709D01*
X84958Y-57710D01*
X85234Y-57596D01*
X85445Y-57385D01*
X85559Y-57109D01*
X85560Y-56811D01*
X85560Y-59983D01*
X85456Y-59982D01*
X85328Y-60036D01*
X85229Y-60134D01*
X85176Y-60263D01*
X85175Y-60402D01*
X85229Y-60531D01*
X85327Y-60629D01*
X85456Y-60682D01*
X85595Y-60683D01*
X85724Y-60629D01*
X85822Y-60531D01*
X85875Y-60402D01*
X85876Y-60263D01*
X85876Y-62521D01*
X82560Y-62523D01*
X82560Y-60734D01*
X82487Y-60558D01*
X82352Y-60423D01*
X82175Y-60350D01*
X81984Y-60349D01*
X81808Y-60422D01*
X81673Y-60557D01*
X81600Y-60734D01*
X81599Y-60925D01*
X81672Y-61101D01*
X81807Y-61236D01*
X81984Y-61309D01*
X82175Y-61310D01*
X82351Y-61237D01*
X82486Y-61102D01*
X82559Y-60925D01*
X82560Y-60734D01*
X82560Y-62523D01*
X80325Y-62525D01*
X80325Y-60250D01*
X80271Y-60122D01*
X80173Y-60023D01*
X80044Y-59970D01*
X79905Y-59969D01*
X79777Y-60023D01*
X79678Y-60121D01*
X79625Y-60250D01*
X79624Y-60389D01*
X79678Y-60518D01*
X79776Y-60616D01*
X79905Y-60669D01*
X80044Y-60670D01*
X80173Y-60616D01*
X80271Y-60518D01*
X80324Y-60389D01*
X80325Y-60250D01*
X80325Y-62525D01*
X77810Y-62528D01*
X77810Y-59570D01*
X77756Y-59442D01*
X77658Y-59343D01*
X77529Y-59290D01*
X77390Y-59289D01*
X77262Y-59343D01*
X77163Y-59441D01*
X77110Y-59570D01*
X77109Y-59709D01*
X77163Y-59838D01*
X77261Y-59936D01*
X77390Y-59989D01*
X77529Y-59990D01*
X77658Y-59936D01*
X77756Y-59838D01*
X77809Y-59709D01*
X77810Y-59570D01*
X77810Y-62528D01*
X74389Y-62530D01*
X74389Y-59346D01*
X74335Y-59218D01*
X74237Y-59119D01*
X74108Y-59066D01*
X73969Y-59065D01*
X73841Y-59119D01*
X73742Y-59217D01*
X73689Y-59346D01*
X73688Y-59485D01*
X73742Y-59614D01*
X73840Y-59712D01*
X73969Y-59765D01*
X74108Y-59766D01*
X74237Y-59712D01*
X74335Y-59614D01*
X74388Y-59485D01*
X74389Y-59346D01*
X74389Y-62530D01*
X74052Y-62531D01*
X74052Y-62503D01*
X73998Y-62375D01*
X73900Y-62276D01*
X73771Y-62223D01*
X73632Y-62222D01*
X73504Y-62276D01*
X73405Y-62374D01*
X73352Y-62503D01*
X73352Y-62531D01*
X72044Y-62532D01*
X72044Y-59598D01*
X71930Y-59322D01*
X71719Y-59111D01*
X71443Y-58997D01*
X71145Y-58996D01*
X70869Y-59110D01*
X70658Y-59321D01*
X70544Y-59597D01*
X70543Y-59895D01*
X70657Y-60171D01*
X70868Y-60382D01*
X71144Y-60496D01*
X71442Y-60497D01*
X71718Y-60383D01*
X71929Y-60172D01*
X72043Y-59896D01*
X72044Y-59598D01*
X72044Y-62532D01*
X68500Y-62535D01*
X68500Y-57950D01*
X68446Y-57822D01*
X68348Y-57723D01*
X68219Y-57670D01*
X68080Y-57669D01*
X67960Y-57719D01*
X67960Y-57690D01*
X67940Y-57642D01*
X67940Y-56500D01*
X67886Y-56372D01*
X67788Y-56273D01*
X67659Y-56220D01*
X67520Y-56219D01*
X67392Y-56273D01*
X67293Y-56371D01*
X67240Y-56500D01*
X67239Y-56639D01*
X67293Y-56768D01*
X67391Y-56866D01*
X67520Y-56919D01*
X67659Y-56920D01*
X67788Y-56866D01*
X67886Y-56768D01*
X67939Y-56639D01*
X67940Y-56500D01*
X67940Y-57642D01*
X67906Y-57562D01*
X67808Y-57463D01*
X67679Y-57410D01*
X67540Y-57409D01*
X67412Y-57463D01*
X67313Y-57561D01*
X67260Y-57690D01*
X67259Y-57829D01*
X67312Y-57956D01*
X67187Y-58008D01*
X67089Y-58105D01*
X67003Y-58018D01*
X66874Y-57965D01*
X66735Y-57964D01*
X66607Y-58018D01*
X66605Y-58020D01*
X66605Y-55570D01*
X66551Y-55442D01*
X66453Y-55343D01*
X66324Y-55290D01*
X66185Y-55289D01*
X66057Y-55343D01*
X65989Y-55410D01*
X65898Y-55318D01*
X65769Y-55265D01*
X65630Y-55264D01*
X65502Y-55318D01*
X65403Y-55416D01*
X65350Y-55545D01*
X65349Y-55684D01*
X65403Y-55813D01*
X65501Y-55911D01*
X65630Y-55964D01*
X65769Y-55965D01*
X65898Y-55911D01*
X65965Y-55844D01*
X66056Y-55936D01*
X66185Y-55989D01*
X66324Y-55990D01*
X66453Y-55936D01*
X66551Y-55838D01*
X66604Y-55709D01*
X66605Y-55570D01*
X66605Y-58020D01*
X66508Y-58116D01*
X66455Y-58245D01*
X66454Y-58384D01*
X66508Y-58513D01*
X66606Y-58611D01*
X66735Y-58664D01*
X66874Y-58665D01*
X67003Y-58611D01*
X67100Y-58514D01*
X67186Y-58601D01*
X67315Y-58654D01*
X67454Y-58655D01*
X67583Y-58601D01*
X67681Y-58503D01*
X67734Y-58374D01*
X67735Y-58235D01*
X67682Y-58108D01*
X67799Y-58060D01*
X67799Y-58089D01*
X67853Y-58218D01*
X67951Y-58316D01*
X68080Y-58369D01*
X68219Y-58370D01*
X68348Y-58316D01*
X68446Y-58218D01*
X68499Y-58089D01*
X68500Y-57950D01*
X68500Y-62535D01*
X66230Y-62537D01*
X66230Y-59510D01*
X66176Y-59382D01*
X66150Y-59355D01*
X66150Y-58810D01*
X66150Y-58210D01*
X66112Y-58118D01*
X66041Y-58048D01*
X65949Y-58010D01*
X65850Y-58009D01*
X65737Y-58009D01*
X65737Y-57344D01*
X65683Y-57216D01*
X65585Y-57117D01*
X65456Y-57064D01*
X65420Y-57064D01*
X65506Y-56978D01*
X65559Y-56849D01*
X65560Y-56710D01*
X65506Y-56582D01*
X65408Y-56483D01*
X65279Y-56430D01*
X65140Y-56429D01*
X65012Y-56483D01*
X64913Y-56581D01*
X64863Y-56701D01*
X64863Y-55659D01*
X64855Y-55361D01*
X64756Y-55121D01*
X64640Y-55070D01*
X64180Y-55530D01*
X64640Y-55989D01*
X64756Y-55938D01*
X64863Y-55659D01*
X64863Y-56701D01*
X64860Y-56710D01*
X64859Y-56849D01*
X64913Y-56978D01*
X65011Y-57076D01*
X65140Y-57129D01*
X65176Y-57129D01*
X65090Y-57215D01*
X65037Y-57344D01*
X65036Y-57483D01*
X65090Y-57612D01*
X65188Y-57710D01*
X65317Y-57763D01*
X65456Y-57764D01*
X65585Y-57710D01*
X65683Y-57612D01*
X65736Y-57483D01*
X65737Y-57344D01*
X65737Y-58009D01*
X65250Y-58009D01*
X65158Y-58047D01*
X65088Y-58118D01*
X65050Y-58210D01*
X65050Y-58232D01*
X64911Y-58094D01*
X64709Y-58010D01*
X64569Y-58009D01*
X64569Y-56060D01*
X64110Y-55600D01*
X64039Y-55671D01*
X64039Y-55530D01*
X63579Y-55070D01*
X63463Y-55121D01*
X63356Y-55400D01*
X63364Y-55698D01*
X63463Y-55938D01*
X63579Y-55989D01*
X64039Y-55530D01*
X64039Y-55671D01*
X63650Y-56060D01*
X63701Y-56176D01*
X63980Y-56283D01*
X64278Y-56275D01*
X64518Y-56176D01*
X64569Y-56060D01*
X64569Y-58009D01*
X64491Y-58009D01*
X64288Y-58093D01*
X64134Y-58248D01*
X64050Y-58450D01*
X64049Y-58668D01*
X64133Y-58871D01*
X64288Y-59025D01*
X64490Y-59109D01*
X64708Y-59110D01*
X64911Y-59026D01*
X65049Y-58887D01*
X65049Y-58909D01*
X65087Y-59001D01*
X65158Y-59071D01*
X65250Y-59109D01*
X65349Y-59110D01*
X65949Y-59110D01*
X66041Y-59072D01*
X66111Y-59001D01*
X66149Y-58909D01*
X66150Y-58810D01*
X66150Y-59355D01*
X66078Y-59283D01*
X65949Y-59230D01*
X65810Y-59229D01*
X65682Y-59283D01*
X65583Y-59381D01*
X65530Y-59510D01*
X65529Y-59649D01*
X65583Y-59778D01*
X65681Y-59876D01*
X65810Y-59929D01*
X65949Y-59930D01*
X66078Y-59876D01*
X66176Y-59778D01*
X66229Y-59649D01*
X66230Y-59510D01*
X66230Y-62537D01*
X64100Y-62539D01*
X64100Y-61764D01*
X64027Y-61588D01*
X63975Y-61536D01*
X63975Y-58246D01*
X63842Y-57925D01*
X63596Y-57678D01*
X63274Y-57545D01*
X62940Y-57544D01*
X62940Y-56430D01*
X62886Y-56302D01*
X62788Y-56203D01*
X62659Y-56150D01*
X62520Y-56149D01*
X62392Y-56203D01*
X62293Y-56301D01*
X62240Y-56430D01*
X62239Y-56569D01*
X62293Y-56698D01*
X62391Y-56796D01*
X62520Y-56849D01*
X62659Y-56850D01*
X62788Y-56796D01*
X62886Y-56698D01*
X62939Y-56569D01*
X62940Y-56430D01*
X62940Y-57544D01*
X62926Y-57544D01*
X62605Y-57677D01*
X62550Y-57732D01*
X62550Y-57030D01*
X62496Y-56902D01*
X62398Y-56803D01*
X62269Y-56750D01*
X62130Y-56749D01*
X62002Y-56803D01*
X61903Y-56901D01*
X61866Y-56990D01*
X61780Y-56989D01*
X61652Y-57043D01*
X61553Y-57141D01*
X61500Y-57270D01*
X61499Y-57409D01*
X61553Y-57538D01*
X61651Y-57636D01*
X61780Y-57689D01*
X61919Y-57690D01*
X62048Y-57636D01*
X62146Y-57538D01*
X62183Y-57449D01*
X62269Y-57450D01*
X62398Y-57396D01*
X62496Y-57298D01*
X62549Y-57169D01*
X62550Y-57030D01*
X62550Y-57732D01*
X62358Y-57923D01*
X62225Y-58245D01*
X62224Y-58593D01*
X62357Y-58915D01*
X62603Y-59161D01*
X62925Y-59294D01*
X63273Y-59295D01*
X63595Y-59162D01*
X63841Y-58916D01*
X63974Y-58594D01*
X63975Y-58246D01*
X63975Y-61536D01*
X63892Y-61453D01*
X63715Y-61380D01*
X63524Y-61379D01*
X63348Y-61452D01*
X63213Y-61587D01*
X63140Y-61764D01*
X63139Y-61955D01*
X63212Y-62131D01*
X63347Y-62266D01*
X63524Y-62339D01*
X63715Y-62340D01*
X63891Y-62267D01*
X64026Y-62132D01*
X64099Y-61955D01*
X64100Y-61764D01*
X64100Y-62539D01*
X62814Y-62540D01*
X62846Y-62508D01*
X62899Y-62379D01*
X62900Y-62240D01*
X62846Y-62112D01*
X62748Y-62013D01*
X62619Y-61960D01*
X62480Y-61959D01*
X62352Y-62013D01*
X62253Y-62111D01*
X62200Y-62240D01*
X62199Y-62379D01*
X62253Y-62508D01*
X62286Y-62541D01*
X61010Y-62542D01*
X61010Y-59060D01*
X60956Y-58932D01*
X60858Y-58833D01*
X60736Y-58782D01*
X60848Y-58736D01*
X60946Y-58638D01*
X60999Y-58509D01*
X61000Y-58370D01*
X60946Y-58242D01*
X60870Y-58165D01*
X60870Y-56150D01*
X60816Y-56022D01*
X60718Y-55923D01*
X60589Y-55870D01*
X60450Y-55869D01*
X60322Y-55923D01*
X60223Y-56021D01*
X60179Y-56128D01*
X60159Y-56120D01*
X60020Y-56119D01*
X59892Y-56173D01*
X59793Y-56271D01*
X59740Y-56400D01*
X59739Y-56539D01*
X59793Y-56668D01*
X59891Y-56766D01*
X60020Y-56819D01*
X60159Y-56820D01*
X60288Y-56766D01*
X60386Y-56668D01*
X60430Y-56561D01*
X60450Y-56569D01*
X60589Y-56570D01*
X60718Y-56516D01*
X60816Y-56418D01*
X60869Y-56289D01*
X60870Y-56150D01*
X60870Y-58165D01*
X60848Y-58143D01*
X60719Y-58090D01*
X60580Y-58089D01*
X60452Y-58143D01*
X60353Y-58241D01*
X60300Y-58370D01*
X60299Y-58509D01*
X60353Y-58638D01*
X60451Y-58736D01*
X60573Y-58787D01*
X60462Y-58833D01*
X60363Y-58931D01*
X60320Y-59035D01*
X60288Y-59003D01*
X60159Y-58950D01*
X60020Y-58949D01*
X59892Y-59003D01*
X59793Y-59101D01*
X59740Y-59230D01*
X59739Y-59369D01*
X59793Y-59498D01*
X59891Y-59596D01*
X60020Y-59649D01*
X60159Y-59650D01*
X60288Y-59596D01*
X60386Y-59498D01*
X60429Y-59394D01*
X60461Y-59426D01*
X60590Y-59479D01*
X60729Y-59480D01*
X60858Y-59426D01*
X60956Y-59328D01*
X61009Y-59199D01*
X61010Y-59060D01*
X61010Y-62542D01*
X59500Y-62543D01*
X59500Y-56330D01*
X59446Y-56202D01*
X59348Y-56103D01*
X59219Y-56050D01*
X59080Y-56049D01*
X58952Y-56103D01*
X58853Y-56201D01*
X58800Y-56330D01*
X58799Y-56469D01*
X58853Y-56598D01*
X58951Y-56696D01*
X59080Y-56749D01*
X59219Y-56750D01*
X59348Y-56696D01*
X59446Y-56598D01*
X59499Y-56469D01*
X59500Y-56330D01*
X59500Y-62543D01*
X59480Y-62543D01*
X59480Y-59200D01*
X59426Y-59072D01*
X59328Y-58973D01*
X59199Y-58920D01*
X59060Y-58919D01*
X58932Y-58973D01*
X58833Y-59071D01*
X58780Y-59200D01*
X58779Y-59339D01*
X58833Y-59468D01*
X58931Y-59566D01*
X59060Y-59619D01*
X59199Y-59620D01*
X59328Y-59566D01*
X59426Y-59468D01*
X59479Y-59339D01*
X59480Y-59200D01*
X59480Y-62543D01*
X58510Y-62544D01*
X58510Y-55530D01*
X58456Y-55402D01*
X58358Y-55303D01*
X58229Y-55250D01*
X58090Y-55249D01*
X57962Y-55303D01*
X57863Y-55401D01*
X57810Y-55530D01*
X57809Y-55669D01*
X57863Y-55798D01*
X57961Y-55896D01*
X58090Y-55949D01*
X58229Y-55950D01*
X58358Y-55896D01*
X58456Y-55798D01*
X58509Y-55669D01*
X58510Y-55530D01*
X58510Y-62544D01*
X56500Y-62546D01*
X56500Y-56380D01*
X56446Y-56252D01*
X56348Y-56153D01*
X56219Y-56100D01*
X56080Y-56099D01*
X55952Y-56153D01*
X55853Y-56251D01*
X55800Y-56380D01*
X55799Y-56519D01*
X55853Y-56648D01*
X55951Y-56746D01*
X56080Y-56799D01*
X56219Y-56800D01*
X56348Y-56746D01*
X56446Y-56648D01*
X56499Y-56519D01*
X56500Y-56380D01*
X56500Y-62546D01*
X56460Y-62546D01*
X56460Y-60450D01*
X56406Y-60322D01*
X56308Y-60223D01*
X56179Y-60170D01*
X56040Y-60169D01*
X55912Y-60223D01*
X55813Y-60321D01*
X55760Y-60450D01*
X55759Y-60589D01*
X55813Y-60718D01*
X55911Y-60816D01*
X56040Y-60869D01*
X56179Y-60870D01*
X56308Y-60816D01*
X56406Y-60718D01*
X56459Y-60589D01*
X56460Y-60450D01*
X56460Y-62546D01*
X53270Y-62548D01*
X53270Y-59260D01*
X53216Y-59132D01*
X53118Y-59033D01*
X52989Y-58980D01*
X52850Y-58979D01*
X52722Y-59033D01*
X52623Y-59131D01*
X52570Y-59260D01*
X52569Y-59399D01*
X52623Y-59528D01*
X52721Y-59626D01*
X52850Y-59679D01*
X52989Y-59680D01*
X53118Y-59626D01*
X53216Y-59528D01*
X53269Y-59399D01*
X53270Y-59260D01*
X53270Y-62548D01*
X50550Y-62551D01*
X50550Y-61791D01*
X50466Y-61588D01*
X50311Y-61434D01*
X50109Y-61350D01*
X49891Y-61349D01*
X49688Y-61433D01*
X49550Y-61572D01*
X49550Y-61550D01*
X49512Y-61458D01*
X49441Y-61388D01*
X49349Y-61350D01*
X49250Y-61349D01*
X48650Y-61349D01*
X48558Y-61387D01*
X48488Y-61458D01*
X48450Y-61550D01*
X48449Y-61649D01*
X48449Y-62249D01*
X48487Y-62341D01*
X48558Y-62411D01*
X48650Y-62449D01*
X48749Y-62450D01*
X49349Y-62450D01*
X49441Y-62412D01*
X49511Y-62341D01*
X49549Y-62249D01*
X49549Y-62227D01*
X49688Y-62365D01*
X49890Y-62449D01*
X50108Y-62450D01*
X50311Y-62366D01*
X50465Y-62211D01*
X50549Y-62009D01*
X50550Y-61791D01*
X50550Y-62551D01*
X48437Y-62553D01*
X48195Y-62310D01*
X47809Y-62150D01*
X47392Y-62149D01*
X47250Y-62208D01*
X47250Y-59191D01*
X47166Y-58988D01*
X47011Y-58834D01*
X46809Y-58750D01*
X46591Y-58749D01*
X46388Y-58833D01*
X46234Y-58988D01*
X46150Y-59190D01*
X46149Y-59408D01*
X46233Y-59611D01*
X46372Y-59749D01*
X46350Y-59749D01*
X46258Y-59787D01*
X46188Y-59858D01*
X46150Y-59950D01*
X46149Y-60049D01*
X46149Y-60649D01*
X46187Y-60741D01*
X46258Y-60811D01*
X46350Y-60849D01*
X46449Y-60850D01*
X47049Y-60850D01*
X47141Y-60812D01*
X47211Y-60741D01*
X47249Y-60649D01*
X47250Y-60550D01*
X47250Y-59950D01*
X47212Y-59858D01*
X47141Y-59788D01*
X47049Y-59750D01*
X47027Y-59750D01*
X47165Y-59611D01*
X47249Y-59409D01*
X47250Y-59191D01*
X47250Y-62208D01*
X47006Y-62309D01*
X46760Y-62554D01*
X40308Y-62559D01*
X40056Y-54845D01*
X63750Y-54863D01*
X63701Y-54883D01*
X63650Y-54999D01*
X64110Y-55459D01*
X64569Y-54999D01*
X64518Y-54883D01*
X64466Y-54863D01*
X68586Y-54866D01*
X68585Y-54969D01*
X68540Y-54969D01*
X68412Y-55023D01*
X68313Y-55121D01*
X68260Y-55250D01*
X68259Y-55389D01*
X68313Y-55518D01*
X68411Y-55616D01*
X68540Y-55669D01*
X68679Y-55670D01*
X68808Y-55616D01*
X68906Y-55518D01*
X68959Y-55389D01*
X68960Y-55286D01*
X69005Y-55286D01*
X69134Y-55232D01*
X69232Y-55134D01*
X69285Y-55005D01*
X69286Y-54867D01*
X77503Y-54873D01*
X75996Y-56380D01*
X72558Y-56380D01*
X72564Y-56373D01*
X72617Y-56244D01*
X72618Y-56105D01*
X72564Y-55977D01*
X72466Y-55878D01*
X72388Y-55845D01*
X72466Y-55813D01*
X72564Y-55715D01*
X72617Y-55586D01*
X72618Y-55447D01*
X72564Y-55319D01*
X72466Y-55220D01*
X72337Y-55167D01*
X72198Y-55166D01*
X72070Y-55220D01*
X71971Y-55318D01*
X71918Y-55447D01*
X71917Y-55586D01*
X71971Y-55715D01*
X72069Y-55813D01*
X72147Y-55846D01*
X72070Y-55878D01*
X71971Y-55976D01*
X71918Y-56105D01*
X71917Y-56244D01*
X71971Y-56373D01*
X71978Y-56380D01*
X71799Y-56380D01*
X71799Y-55167D01*
X71745Y-55039D01*
X71647Y-54940D01*
X71518Y-54887D01*
X71379Y-54886D01*
X71251Y-54940D01*
X71152Y-55038D01*
X71099Y-55167D01*
X71098Y-55306D01*
X71152Y-55435D01*
X71250Y-55533D01*
X71379Y-55586D01*
X71518Y-55587D01*
X71647Y-55533D01*
X71745Y-55435D01*
X71798Y-55306D01*
X71799Y-55167D01*
X71799Y-56380D01*
X71395Y-56380D01*
X71253Y-56408D01*
X71133Y-56488D01*
X71133Y-56488D01*
X71133Y-56488D01*
X70912Y-56708D01*
X70860Y-56708D01*
X70684Y-56781D01*
X70549Y-56916D01*
X70476Y-57093D01*
X70475Y-57284D01*
X70519Y-57389D01*
X70478Y-57348D01*
X70462Y-57341D01*
X70462Y-56672D01*
X70408Y-56544D01*
X70310Y-56445D01*
X70181Y-56392D01*
X70042Y-56391D01*
X69914Y-56445D01*
X69815Y-56543D01*
X69762Y-56672D01*
X69761Y-56811D01*
X69815Y-56940D01*
X69913Y-57038D01*
X70042Y-57091D01*
X70181Y-57092D01*
X70310Y-57038D01*
X70408Y-56940D01*
X70461Y-56811D01*
X70462Y-56672D01*
X70462Y-57341D01*
X70349Y-57295D01*
X70210Y-57294D01*
X70082Y-57348D01*
X69983Y-57446D01*
X69930Y-57575D01*
X69929Y-57714D01*
X69983Y-57843D01*
X70081Y-57941D01*
X70174Y-57980D01*
X70174Y-58029D01*
X70228Y-58158D01*
X70326Y-58256D01*
X70455Y-58309D01*
X70594Y-58310D01*
X70723Y-58256D01*
X70821Y-58158D01*
X70874Y-58029D01*
X70875Y-57890D01*
X70821Y-57762D01*
X70723Y-57663D01*
X70630Y-57624D01*
X70630Y-57575D01*
X70606Y-57518D01*
X70683Y-57595D01*
X70860Y-57668D01*
X71051Y-57669D01*
X71227Y-57596D01*
X71362Y-57461D01*
X71435Y-57284D01*
X71435Y-57232D01*
X71548Y-57120D01*
X74036Y-57120D01*
X74035Y-57308D01*
X74108Y-57484D01*
X74243Y-57619D01*
X74420Y-57692D01*
X74583Y-57693D01*
X74583Y-57705D01*
X74637Y-57834D01*
X74735Y-57932D01*
X74864Y-57985D01*
X75003Y-57986D01*
X75132Y-57932D01*
X75152Y-57912D01*
X75151Y-58022D01*
X75205Y-58151D01*
X75303Y-58249D01*
X75432Y-58302D01*
X75571Y-58303D01*
X75700Y-58249D01*
X75798Y-58151D01*
X75851Y-58022D01*
X75852Y-57883D01*
X75798Y-57755D01*
X75700Y-57656D01*
X75571Y-57603D01*
X75432Y-57602D01*
X75304Y-57656D01*
X75283Y-57676D01*
X75284Y-57583D01*
X75830Y-57583D01*
X75830Y-57629D01*
X75884Y-57758D01*
X75982Y-57856D01*
X76111Y-57909D01*
X76250Y-57910D01*
X76379Y-57856D01*
X76477Y-57758D01*
X76530Y-57629D01*
X76531Y-57490D01*
X76505Y-57428D01*
X78011Y-55921D01*
X78011Y-56433D01*
X78049Y-56525D01*
X78120Y-56595D01*
X78212Y-56633D01*
X78234Y-56633D01*
X78096Y-56772D01*
X78012Y-56974D01*
X78011Y-57192D01*
X78095Y-57395D01*
X78250Y-57549D01*
X78331Y-57583D01*
X78250Y-57617D01*
X78096Y-57772D01*
X78012Y-57974D01*
X78011Y-58192D01*
X78095Y-58395D01*
X78250Y-58549D01*
X78452Y-58633D01*
X78670Y-58634D01*
X78873Y-58550D01*
X79027Y-58395D01*
X79061Y-58314D01*
X79095Y-58395D01*
X79250Y-58549D01*
X79452Y-58633D01*
X79670Y-58634D01*
X79873Y-58550D01*
X80027Y-58395D01*
X80111Y-58193D01*
X80112Y-57975D01*
X80028Y-57772D01*
X79873Y-57618D01*
X79792Y-57584D01*
X79873Y-57550D01*
X80027Y-57395D01*
X80111Y-57193D01*
X80112Y-56975D01*
X80028Y-56772D01*
X79873Y-56618D01*
X79792Y-56584D01*
X79873Y-56550D01*
X80027Y-56395D01*
X80111Y-56193D01*
X80112Y-55975D01*
X80028Y-55772D01*
X79873Y-55618D01*
X79758Y-55570D01*
X81620Y-55570D01*
X81630Y-55570D01*
X81629Y-55843D01*
X81743Y-56119D01*
X81954Y-56330D01*
X82230Y-56444D01*
X82528Y-56445D01*
X82804Y-56331D01*
X83015Y-56120D01*
X83129Y-55844D01*
X83130Y-55546D01*
X83016Y-55270D01*
X82805Y-55059D01*
X82529Y-54945D01*
X82413Y-54945D01*
X82481Y-54877D01*
X86160Y-54880D01*
X86160Y-53840D01*
X88756Y-53840D01*
X88670Y-53875D01*
X88631Y-53980D01*
X89015Y-54363D01*
X89398Y-53980D01*
X89359Y-53875D01*
X89263Y-53840D01*
X89905Y-53840D01*
X89919Y-61930D01*
G54D10*
G36*
X89970Y-61990D02*
X89969Y-61980D01*
X89970Y-61980D01*
X89970Y-61990D01*
X89970Y-61990D01*
G37*
G54D31*
X89970Y-61990D02*
X89969Y-61980D01*
X89970Y-61980D01*
X89970Y-61990D01*
M02*
