G04 (created by PCBNEW (2013-07-07 BZR 4022)-stable) date 3/23/2014 2:10:48 AM*
%MOIN*%
G04 Gerber Fmt 3.4, Leading zero omitted, Abs format*
%FSLAX34Y34*%
G01*
G70*
G90*
G04 APERTURE LIST*
%ADD10C,0.006*%
G04 APERTURE END LIST*
G54D10*
G36*
X28220Y-71414D02*
X28218Y-71552D01*
X28191Y-71672D01*
X28142Y-71782D01*
X28071Y-71883D01*
X27984Y-71965D01*
X27880Y-72031D01*
X27768Y-72075D01*
X27647Y-72096D01*
X27526Y-72094D01*
X27406Y-72067D01*
X27296Y-72019D01*
X27195Y-71949D01*
X27111Y-71863D01*
X27044Y-71759D01*
X27000Y-71647D01*
X26978Y-71526D01*
X26980Y-71406D01*
X27005Y-71285D01*
X27053Y-71175D01*
X27122Y-71073D01*
X27208Y-70989D01*
X27311Y-70921D01*
X27423Y-70876D01*
X27544Y-70853D01*
X27664Y-70854D01*
X27785Y-70879D01*
X27895Y-70925D01*
X27998Y-70995D01*
X28082Y-71080D01*
X28151Y-71183D01*
X28196Y-71293D01*
X28196Y-71294D01*
X28220Y-71414D01*
X28220Y-71414D01*
X28220Y-71414D01*
G37*
G36*
X28226Y-51039D02*
X28224Y-51177D01*
X28197Y-51297D01*
X28148Y-51407D01*
X28077Y-51508D01*
X27990Y-51590D01*
X27886Y-51656D01*
X27774Y-51700D01*
X27653Y-51721D01*
X27532Y-51719D01*
X27412Y-51692D01*
X27302Y-51644D01*
X27201Y-51574D01*
X27117Y-51488D01*
X27050Y-51384D01*
X27006Y-51272D01*
X26984Y-51151D01*
X26986Y-51031D01*
X27011Y-50910D01*
X27059Y-50800D01*
X27128Y-50698D01*
X27214Y-50614D01*
X27317Y-50546D01*
X27429Y-50501D01*
X27550Y-50478D01*
X27670Y-50479D01*
X27791Y-50504D01*
X27901Y-50550D01*
X28004Y-50620D01*
X28088Y-50705D01*
X28157Y-50808D01*
X28202Y-50918D01*
X28202Y-50919D01*
X28226Y-51039D01*
X28226Y-51039D01*
X28226Y-51039D01*
G37*
G36*
X28226Y-69228D02*
X28224Y-69366D01*
X28197Y-69486D01*
X28148Y-69596D01*
X28077Y-69697D01*
X27990Y-69779D01*
X27886Y-69845D01*
X27774Y-69889D01*
X27653Y-69910D01*
X27532Y-69908D01*
X27412Y-69881D01*
X27302Y-69833D01*
X27201Y-69763D01*
X27117Y-69676D01*
X27050Y-69573D01*
X27006Y-69461D01*
X26984Y-69340D01*
X26986Y-69220D01*
X27011Y-69099D01*
X27059Y-68989D01*
X27128Y-68887D01*
X27214Y-68803D01*
X27317Y-68735D01*
X27429Y-68690D01*
X27550Y-68667D01*
X27670Y-68668D01*
X27791Y-68693D01*
X27901Y-68739D01*
X28004Y-68809D01*
X28088Y-68894D01*
X28157Y-68997D01*
X28202Y-69107D01*
X28202Y-69108D01*
X28226Y-69228D01*
X28226Y-69228D01*
X28226Y-69228D01*
G37*
G36*
X28235Y-48704D02*
X28233Y-48842D01*
X28206Y-48962D01*
X28157Y-49072D01*
X28086Y-49173D01*
X27999Y-49255D01*
X27895Y-49321D01*
X27783Y-49365D01*
X27662Y-49386D01*
X27541Y-49384D01*
X27421Y-49357D01*
X27311Y-49309D01*
X27210Y-49239D01*
X27126Y-49153D01*
X27059Y-49049D01*
X27015Y-48937D01*
X26993Y-48816D01*
X26995Y-48696D01*
X27020Y-48575D01*
X27068Y-48465D01*
X27137Y-48363D01*
X27223Y-48279D01*
X27326Y-48211D01*
X27438Y-48166D01*
X27559Y-48143D01*
X27679Y-48144D01*
X27800Y-48169D01*
X27910Y-48215D01*
X28013Y-48285D01*
X28097Y-48370D01*
X28166Y-48473D01*
X28211Y-48583D01*
X28211Y-48584D01*
X28235Y-48704D01*
X28235Y-48704D01*
X28235Y-48704D01*
G37*
G36*
X31100Y-51039D02*
X31098Y-51177D01*
X31071Y-51297D01*
X31022Y-51407D01*
X30951Y-51508D01*
X30864Y-51590D01*
X30760Y-51656D01*
X30648Y-51700D01*
X30527Y-51721D01*
X30406Y-51719D01*
X30286Y-51692D01*
X30176Y-51644D01*
X30075Y-51574D01*
X29991Y-51488D01*
X29924Y-51384D01*
X29880Y-51272D01*
X29858Y-51151D01*
X29860Y-51031D01*
X29885Y-50910D01*
X29933Y-50800D01*
X30002Y-50698D01*
X30088Y-50614D01*
X30191Y-50546D01*
X30303Y-50501D01*
X30424Y-50478D01*
X30544Y-50479D01*
X30665Y-50504D01*
X30775Y-50550D01*
X30878Y-50620D01*
X30962Y-50705D01*
X31031Y-50808D01*
X31076Y-50918D01*
X31076Y-50919D01*
X31100Y-51039D01*
X31100Y-51039D01*
X31100Y-51039D01*
G37*
G36*
X31100Y-52693D02*
X31098Y-52831D01*
X31071Y-52951D01*
X31022Y-53060D01*
X30951Y-53161D01*
X30864Y-53244D01*
X30760Y-53310D01*
X30648Y-53353D01*
X30527Y-53375D01*
X30406Y-53372D01*
X30286Y-53346D01*
X30176Y-53298D01*
X30075Y-53227D01*
X29991Y-53141D01*
X29924Y-53037D01*
X29880Y-52926D01*
X29858Y-52804D01*
X29860Y-52684D01*
X29885Y-52564D01*
X29933Y-52453D01*
X30002Y-52352D01*
X30088Y-52268D01*
X30191Y-52200D01*
X30303Y-52155D01*
X30424Y-52132D01*
X30544Y-52133D01*
X30665Y-52158D01*
X30775Y-52204D01*
X30878Y-52273D01*
X30962Y-52358D01*
X31031Y-52461D01*
X31076Y-52572D01*
X31076Y-52573D01*
X31100Y-52692D01*
X31100Y-52693D01*
X31100Y-52693D01*
G37*
G36*
X31100Y-54346D02*
X31098Y-54484D01*
X31071Y-54604D01*
X31022Y-54714D01*
X30951Y-54815D01*
X30864Y-54898D01*
X30760Y-54964D01*
X30648Y-55007D01*
X30527Y-55028D01*
X30406Y-55026D01*
X30286Y-54999D01*
X30176Y-54951D01*
X30075Y-54881D01*
X29991Y-54795D01*
X29924Y-54691D01*
X29880Y-54579D01*
X29858Y-54458D01*
X29860Y-54338D01*
X29885Y-54217D01*
X29933Y-54107D01*
X30002Y-54005D01*
X30088Y-53921D01*
X30191Y-53853D01*
X30303Y-53809D01*
X30424Y-53785D01*
X30544Y-53786D01*
X30665Y-53811D01*
X30775Y-53858D01*
X30878Y-53927D01*
X30962Y-54012D01*
X31031Y-54115D01*
X31076Y-54225D01*
X31076Y-54226D01*
X31100Y-54346D01*
X31100Y-54346D01*
X31100Y-54346D01*
G37*
G36*
X31100Y-56000D02*
X31098Y-56138D01*
X31071Y-56258D01*
X31022Y-56368D01*
X30951Y-56468D01*
X30864Y-56551D01*
X30760Y-56617D01*
X30648Y-56661D01*
X30527Y-56682D01*
X30406Y-56679D01*
X30286Y-56653D01*
X30176Y-56605D01*
X30075Y-56535D01*
X29991Y-56448D01*
X29924Y-56344D01*
X29880Y-56233D01*
X29858Y-56111D01*
X29860Y-55991D01*
X29885Y-55871D01*
X29933Y-55760D01*
X30002Y-55659D01*
X30088Y-55575D01*
X30191Y-55507D01*
X30303Y-55462D01*
X30424Y-55439D01*
X30544Y-55440D01*
X30665Y-55465D01*
X30775Y-55511D01*
X30878Y-55580D01*
X30962Y-55665D01*
X31031Y-55768D01*
X31076Y-55879D01*
X31076Y-55880D01*
X31100Y-55999D01*
X31100Y-56000D01*
X31100Y-56000D01*
G37*
G36*
X31100Y-57654D02*
X31098Y-57791D01*
X31071Y-57911D01*
X31022Y-58021D01*
X30951Y-58122D01*
X30864Y-58205D01*
X30760Y-58271D01*
X30648Y-58314D01*
X30527Y-58336D01*
X30406Y-58333D01*
X30286Y-58307D01*
X30176Y-58258D01*
X30075Y-58188D01*
X29991Y-58102D01*
X29924Y-57998D01*
X29880Y-57886D01*
X29858Y-57765D01*
X29860Y-57645D01*
X29885Y-57524D01*
X29933Y-57414D01*
X30002Y-57312D01*
X30088Y-57228D01*
X30191Y-57161D01*
X30303Y-57116D01*
X30424Y-57093D01*
X30544Y-57093D01*
X30665Y-57118D01*
X30775Y-57165D01*
X30878Y-57234D01*
X30962Y-57319D01*
X31031Y-57422D01*
X31076Y-57532D01*
X31076Y-57533D01*
X31100Y-57653D01*
X31100Y-57654D01*
X31100Y-57654D01*
G37*
G36*
X31100Y-59307D02*
X31098Y-59445D01*
X31071Y-59565D01*
X31022Y-59675D01*
X30951Y-59775D01*
X30864Y-59858D01*
X30760Y-59924D01*
X30648Y-59968D01*
X30527Y-59989D01*
X30406Y-59987D01*
X30286Y-59960D01*
X30176Y-59912D01*
X30075Y-59842D01*
X29991Y-59755D01*
X29924Y-59652D01*
X29880Y-59540D01*
X29858Y-59419D01*
X29860Y-59299D01*
X29885Y-59178D01*
X29933Y-59068D01*
X30002Y-58966D01*
X30088Y-58882D01*
X30191Y-58814D01*
X30303Y-58769D01*
X30424Y-58746D01*
X30544Y-58747D01*
X30665Y-58772D01*
X30775Y-58818D01*
X30878Y-58887D01*
X30962Y-58972D01*
X31031Y-59075D01*
X31076Y-59186D01*
X31076Y-59187D01*
X31100Y-59306D01*
X31100Y-59307D01*
X31100Y-59307D01*
G37*
G36*
X31100Y-60961D02*
X31098Y-61098D01*
X31071Y-61218D01*
X31022Y-61328D01*
X30951Y-61429D01*
X30864Y-61512D01*
X30760Y-61578D01*
X30648Y-61621D01*
X30527Y-61643D01*
X30406Y-61640D01*
X30286Y-61614D01*
X30176Y-61566D01*
X30075Y-61495D01*
X29991Y-61409D01*
X29924Y-61305D01*
X29880Y-61193D01*
X29858Y-61072D01*
X29860Y-60952D01*
X29885Y-60831D01*
X29933Y-60721D01*
X30002Y-60619D01*
X30088Y-60535D01*
X30191Y-60468D01*
X30303Y-60423D01*
X30424Y-60400D01*
X30544Y-60400D01*
X30665Y-60425D01*
X30775Y-60472D01*
X30878Y-60541D01*
X30962Y-60626D01*
X31031Y-60729D01*
X31076Y-60840D01*
X31076Y-60841D01*
X31100Y-60960D01*
X31100Y-60961D01*
X31100Y-60961D01*
G37*
G36*
X31100Y-62614D02*
X31098Y-62752D01*
X31071Y-62872D01*
X31022Y-62982D01*
X30951Y-63082D01*
X30864Y-63165D01*
X30760Y-63231D01*
X30648Y-63275D01*
X30527Y-63296D01*
X30406Y-63294D01*
X30286Y-63267D01*
X30176Y-63219D01*
X30075Y-63149D01*
X29991Y-63062D01*
X29924Y-62959D01*
X29880Y-62847D01*
X29858Y-62726D01*
X29860Y-62606D01*
X29885Y-62485D01*
X29933Y-62375D01*
X30002Y-62273D01*
X30088Y-62189D01*
X30191Y-62121D01*
X30303Y-62076D01*
X30424Y-62053D01*
X30544Y-62054D01*
X30665Y-62079D01*
X30775Y-62125D01*
X30878Y-62194D01*
X30962Y-62279D01*
X31031Y-62382D01*
X31076Y-62493D01*
X31076Y-62494D01*
X31100Y-62613D01*
X31100Y-62614D01*
X31100Y-62614D01*
G37*
G36*
X31100Y-64268D02*
X31098Y-64405D01*
X31071Y-64525D01*
X31022Y-64635D01*
X30951Y-64736D01*
X30864Y-64819D01*
X30760Y-64885D01*
X30648Y-64928D01*
X30527Y-64950D01*
X30406Y-64947D01*
X30286Y-64921D01*
X30176Y-64873D01*
X30075Y-64802D01*
X29991Y-64716D01*
X29924Y-64612D01*
X29880Y-64501D01*
X29858Y-64379D01*
X29860Y-64259D01*
X29885Y-64138D01*
X29933Y-64028D01*
X30002Y-63926D01*
X30088Y-63842D01*
X30191Y-63775D01*
X30303Y-63730D01*
X30424Y-63707D01*
X30544Y-63708D01*
X30665Y-63732D01*
X30775Y-63779D01*
X30878Y-63848D01*
X30962Y-63933D01*
X31031Y-64036D01*
X31076Y-64147D01*
X31076Y-64148D01*
X31100Y-64267D01*
X31100Y-64268D01*
X31100Y-64268D01*
G37*
G36*
X31100Y-65921D02*
X31098Y-66059D01*
X31071Y-66179D01*
X31022Y-66289D01*
X30951Y-66389D01*
X30864Y-66472D01*
X30760Y-66538D01*
X30648Y-66582D01*
X30527Y-66603D01*
X30406Y-66601D01*
X30286Y-66574D01*
X30176Y-66526D01*
X30075Y-66456D01*
X29991Y-66369D01*
X29924Y-66266D01*
X29880Y-66154D01*
X29858Y-66033D01*
X29860Y-65913D01*
X29885Y-65792D01*
X29933Y-65682D01*
X30002Y-65580D01*
X30088Y-65496D01*
X30191Y-65428D01*
X30303Y-65383D01*
X30424Y-65360D01*
X30544Y-65361D01*
X30665Y-65386D01*
X30775Y-65432D01*
X30878Y-65501D01*
X30962Y-65586D01*
X31031Y-65689D01*
X31076Y-65800D01*
X31076Y-65801D01*
X31100Y-65921D01*
X31100Y-65921D01*
X31100Y-65921D01*
G37*
G36*
X31100Y-67575D02*
X31098Y-67712D01*
X31071Y-67832D01*
X31022Y-67942D01*
X30951Y-68043D01*
X30864Y-68126D01*
X30760Y-68192D01*
X30648Y-68235D01*
X30527Y-68257D01*
X30406Y-68254D01*
X30286Y-68228D01*
X30176Y-68180D01*
X30075Y-68109D01*
X29991Y-68023D01*
X29924Y-67919D01*
X29880Y-67808D01*
X29858Y-67686D01*
X29860Y-67566D01*
X29885Y-67446D01*
X29933Y-67335D01*
X30002Y-67233D01*
X30088Y-67149D01*
X30191Y-67082D01*
X30303Y-67037D01*
X30424Y-67014D01*
X30544Y-67015D01*
X30665Y-67039D01*
X30775Y-67086D01*
X30878Y-67155D01*
X30962Y-67240D01*
X31031Y-67343D01*
X31076Y-67454D01*
X31076Y-67455D01*
X31100Y-67574D01*
X31100Y-67575D01*
X31100Y-67575D01*
G37*
G36*
X31100Y-69228D02*
X31098Y-69366D01*
X31071Y-69486D01*
X31022Y-69596D01*
X30951Y-69697D01*
X30864Y-69779D01*
X30760Y-69845D01*
X30648Y-69889D01*
X30527Y-69910D01*
X30406Y-69908D01*
X30286Y-69881D01*
X30176Y-69833D01*
X30075Y-69763D01*
X29991Y-69676D01*
X29924Y-69573D01*
X29880Y-69461D01*
X29858Y-69340D01*
X29860Y-69220D01*
X29885Y-69099D01*
X29933Y-68989D01*
X30002Y-68887D01*
X30088Y-68803D01*
X30191Y-68735D01*
X30303Y-68690D01*
X30424Y-68667D01*
X30544Y-68668D01*
X30665Y-68693D01*
X30775Y-68739D01*
X30878Y-68809D01*
X30962Y-68894D01*
X31031Y-68997D01*
X31076Y-69107D01*
X31076Y-69108D01*
X31100Y-69228D01*
X31100Y-69228D01*
X31100Y-69228D01*
G37*
G36*
X33266Y-51039D02*
X33264Y-51177D01*
X33236Y-51297D01*
X33187Y-51407D01*
X33116Y-51508D01*
X33029Y-51590D01*
X32925Y-51656D01*
X32813Y-51700D01*
X32692Y-51721D01*
X32572Y-51719D01*
X32451Y-51692D01*
X32341Y-51644D01*
X32240Y-51574D01*
X32157Y-51488D01*
X32090Y-51384D01*
X32046Y-51272D01*
X32023Y-51151D01*
X32025Y-51031D01*
X32051Y-50910D01*
X32098Y-50800D01*
X32168Y-50698D01*
X32253Y-50614D01*
X32357Y-50546D01*
X32468Y-50501D01*
X32589Y-50478D01*
X32709Y-50479D01*
X32830Y-50504D01*
X32941Y-50550D01*
X33043Y-50620D01*
X33128Y-50705D01*
X33196Y-50808D01*
X33242Y-50918D01*
X33242Y-50919D01*
X33265Y-51039D01*
X33266Y-51039D01*
X33266Y-51039D01*
G37*
G36*
X33266Y-52693D02*
X33264Y-52831D01*
X33236Y-52951D01*
X33187Y-53060D01*
X33116Y-53161D01*
X33029Y-53244D01*
X32925Y-53310D01*
X32813Y-53353D01*
X32692Y-53375D01*
X32572Y-53372D01*
X32451Y-53346D01*
X32341Y-53298D01*
X32240Y-53227D01*
X32157Y-53141D01*
X32090Y-53037D01*
X32046Y-52926D01*
X32023Y-52804D01*
X32025Y-52684D01*
X32051Y-52564D01*
X32098Y-52453D01*
X32168Y-52352D01*
X32253Y-52268D01*
X32357Y-52200D01*
X32468Y-52155D01*
X32589Y-52132D01*
X32709Y-52133D01*
X32830Y-52158D01*
X32941Y-52204D01*
X33043Y-52273D01*
X33128Y-52358D01*
X33196Y-52461D01*
X33242Y-52572D01*
X33242Y-52573D01*
X33265Y-52692D01*
X33266Y-52693D01*
X33266Y-52693D01*
G37*
G36*
X33266Y-54346D02*
X33264Y-54484D01*
X33236Y-54604D01*
X33187Y-54714D01*
X33116Y-54815D01*
X33029Y-54898D01*
X32925Y-54964D01*
X32813Y-55007D01*
X32692Y-55028D01*
X32572Y-55026D01*
X32451Y-54999D01*
X32341Y-54951D01*
X32240Y-54881D01*
X32157Y-54795D01*
X32090Y-54691D01*
X32046Y-54579D01*
X32023Y-54458D01*
X32025Y-54338D01*
X32051Y-54217D01*
X32098Y-54107D01*
X32168Y-54005D01*
X32253Y-53921D01*
X32357Y-53853D01*
X32468Y-53809D01*
X32589Y-53785D01*
X32709Y-53786D01*
X32830Y-53811D01*
X32941Y-53858D01*
X33043Y-53927D01*
X33128Y-54012D01*
X33196Y-54115D01*
X33242Y-54225D01*
X33242Y-54226D01*
X33265Y-54346D01*
X33266Y-54346D01*
X33266Y-54346D01*
G37*
G36*
X33266Y-56000D02*
X33264Y-56138D01*
X33236Y-56258D01*
X33187Y-56368D01*
X33116Y-56468D01*
X33029Y-56551D01*
X32925Y-56617D01*
X32813Y-56661D01*
X32692Y-56682D01*
X32572Y-56679D01*
X32451Y-56653D01*
X32341Y-56605D01*
X32240Y-56535D01*
X32157Y-56448D01*
X32090Y-56344D01*
X32046Y-56233D01*
X32023Y-56111D01*
X32025Y-55991D01*
X32051Y-55871D01*
X32098Y-55760D01*
X32168Y-55659D01*
X32253Y-55575D01*
X32357Y-55507D01*
X32468Y-55462D01*
X32589Y-55439D01*
X32709Y-55440D01*
X32830Y-55465D01*
X32941Y-55511D01*
X33043Y-55580D01*
X33128Y-55665D01*
X33196Y-55768D01*
X33242Y-55879D01*
X33242Y-55880D01*
X33265Y-55999D01*
X33266Y-56000D01*
X33266Y-56000D01*
G37*
G36*
X33266Y-57654D02*
X33264Y-57791D01*
X33236Y-57911D01*
X33187Y-58021D01*
X33116Y-58122D01*
X33029Y-58205D01*
X32925Y-58271D01*
X32813Y-58314D01*
X32692Y-58336D01*
X32572Y-58333D01*
X32451Y-58307D01*
X32341Y-58258D01*
X32240Y-58188D01*
X32157Y-58102D01*
X32090Y-57998D01*
X32046Y-57886D01*
X32023Y-57765D01*
X32025Y-57645D01*
X32051Y-57524D01*
X32098Y-57414D01*
X32168Y-57312D01*
X32253Y-57228D01*
X32357Y-57161D01*
X32468Y-57116D01*
X32589Y-57093D01*
X32709Y-57093D01*
X32830Y-57118D01*
X32941Y-57165D01*
X33043Y-57234D01*
X33128Y-57319D01*
X33196Y-57422D01*
X33242Y-57532D01*
X33242Y-57533D01*
X33265Y-57653D01*
X33266Y-57654D01*
X33266Y-57654D01*
G37*
G36*
X33266Y-59307D02*
X33264Y-59445D01*
X33236Y-59565D01*
X33187Y-59675D01*
X33116Y-59775D01*
X33029Y-59858D01*
X32925Y-59924D01*
X32813Y-59968D01*
X32692Y-59989D01*
X32572Y-59987D01*
X32451Y-59960D01*
X32341Y-59912D01*
X32240Y-59842D01*
X32157Y-59755D01*
X32090Y-59652D01*
X32046Y-59540D01*
X32023Y-59419D01*
X32025Y-59299D01*
X32051Y-59178D01*
X32098Y-59068D01*
X32168Y-58966D01*
X32253Y-58882D01*
X32357Y-58814D01*
X32468Y-58769D01*
X32589Y-58746D01*
X32709Y-58747D01*
X32830Y-58772D01*
X32941Y-58818D01*
X33043Y-58887D01*
X33128Y-58972D01*
X33196Y-59075D01*
X33242Y-59186D01*
X33242Y-59187D01*
X33265Y-59306D01*
X33266Y-59307D01*
X33266Y-59307D01*
G37*
G36*
X33266Y-60961D02*
X33264Y-61098D01*
X33236Y-61218D01*
X33187Y-61328D01*
X33116Y-61429D01*
X33029Y-61512D01*
X32925Y-61578D01*
X32813Y-61621D01*
X32692Y-61643D01*
X32572Y-61640D01*
X32451Y-61614D01*
X32341Y-61566D01*
X32240Y-61495D01*
X32157Y-61409D01*
X32090Y-61305D01*
X32046Y-61193D01*
X32023Y-61072D01*
X32025Y-60952D01*
X32051Y-60831D01*
X32098Y-60721D01*
X32168Y-60619D01*
X32253Y-60535D01*
X32357Y-60468D01*
X32468Y-60423D01*
X32589Y-60400D01*
X32709Y-60400D01*
X32830Y-60425D01*
X32941Y-60472D01*
X33043Y-60541D01*
X33128Y-60626D01*
X33196Y-60729D01*
X33242Y-60840D01*
X33242Y-60841D01*
X33265Y-60960D01*
X33266Y-60961D01*
X33266Y-60961D01*
G37*
G36*
X33266Y-62614D02*
X33264Y-62752D01*
X33236Y-62872D01*
X33187Y-62982D01*
X33116Y-63082D01*
X33029Y-63165D01*
X32925Y-63231D01*
X32813Y-63275D01*
X32692Y-63296D01*
X32572Y-63294D01*
X32451Y-63267D01*
X32341Y-63219D01*
X32240Y-63149D01*
X32157Y-63062D01*
X32090Y-62959D01*
X32046Y-62847D01*
X32023Y-62726D01*
X32025Y-62606D01*
X32051Y-62485D01*
X32098Y-62375D01*
X32168Y-62273D01*
X32253Y-62189D01*
X32357Y-62121D01*
X32468Y-62076D01*
X32589Y-62053D01*
X32709Y-62054D01*
X32830Y-62079D01*
X32941Y-62125D01*
X33043Y-62194D01*
X33128Y-62279D01*
X33196Y-62382D01*
X33242Y-62493D01*
X33242Y-62494D01*
X33265Y-62613D01*
X33266Y-62614D01*
X33266Y-62614D01*
G37*
G36*
X33266Y-64268D02*
X33264Y-64405D01*
X33236Y-64525D01*
X33187Y-64635D01*
X33116Y-64736D01*
X33029Y-64819D01*
X32925Y-64885D01*
X32813Y-64928D01*
X32692Y-64950D01*
X32572Y-64947D01*
X32451Y-64921D01*
X32341Y-64873D01*
X32240Y-64802D01*
X32157Y-64716D01*
X32090Y-64612D01*
X32046Y-64501D01*
X32023Y-64379D01*
X32025Y-64259D01*
X32051Y-64138D01*
X32098Y-64028D01*
X32168Y-63926D01*
X32253Y-63842D01*
X32357Y-63775D01*
X32468Y-63730D01*
X32589Y-63707D01*
X32709Y-63708D01*
X32830Y-63732D01*
X32941Y-63779D01*
X33043Y-63848D01*
X33128Y-63933D01*
X33196Y-64036D01*
X33242Y-64147D01*
X33242Y-64148D01*
X33265Y-64267D01*
X33266Y-64268D01*
X33266Y-64268D01*
G37*
G36*
X33266Y-65921D02*
X33264Y-66059D01*
X33236Y-66179D01*
X33187Y-66289D01*
X33116Y-66389D01*
X33029Y-66472D01*
X32925Y-66538D01*
X32813Y-66582D01*
X32692Y-66603D01*
X32572Y-66601D01*
X32451Y-66574D01*
X32341Y-66526D01*
X32240Y-66456D01*
X32157Y-66369D01*
X32090Y-66266D01*
X32046Y-66154D01*
X32023Y-66033D01*
X32025Y-65913D01*
X32051Y-65792D01*
X32098Y-65682D01*
X32168Y-65580D01*
X32253Y-65496D01*
X32357Y-65428D01*
X32468Y-65383D01*
X32589Y-65360D01*
X32709Y-65361D01*
X32830Y-65386D01*
X32941Y-65432D01*
X33043Y-65501D01*
X33128Y-65586D01*
X33196Y-65689D01*
X33242Y-65800D01*
X33242Y-65801D01*
X33265Y-65921D01*
X33266Y-65921D01*
X33266Y-65921D01*
G37*
G36*
X33266Y-67575D02*
X33264Y-67712D01*
X33236Y-67832D01*
X33187Y-67942D01*
X33116Y-68043D01*
X33029Y-68126D01*
X32925Y-68192D01*
X32813Y-68235D01*
X32692Y-68257D01*
X32572Y-68254D01*
X32451Y-68228D01*
X32341Y-68180D01*
X32240Y-68109D01*
X32157Y-68023D01*
X32090Y-67919D01*
X32046Y-67808D01*
X32023Y-67686D01*
X32025Y-67566D01*
X32051Y-67446D01*
X32098Y-67335D01*
X32168Y-67233D01*
X32253Y-67149D01*
X32357Y-67082D01*
X32468Y-67037D01*
X32589Y-67014D01*
X32709Y-67015D01*
X32830Y-67039D01*
X32941Y-67086D01*
X33043Y-67155D01*
X33128Y-67240D01*
X33196Y-67343D01*
X33242Y-67454D01*
X33242Y-67455D01*
X33265Y-67574D01*
X33266Y-67575D01*
X33266Y-67575D01*
G37*
G36*
X33266Y-69228D02*
X33264Y-69366D01*
X33236Y-69486D01*
X33187Y-69596D01*
X33116Y-69697D01*
X33029Y-69779D01*
X32925Y-69845D01*
X32813Y-69889D01*
X32692Y-69910D01*
X32572Y-69908D01*
X32451Y-69881D01*
X32341Y-69833D01*
X32240Y-69763D01*
X32157Y-69676D01*
X32090Y-69573D01*
X32046Y-69461D01*
X32023Y-69340D01*
X32025Y-69220D01*
X32051Y-69099D01*
X32098Y-68989D01*
X32168Y-68887D01*
X32253Y-68803D01*
X32357Y-68735D01*
X32468Y-68690D01*
X32589Y-68667D01*
X32709Y-68668D01*
X32830Y-68693D01*
X32941Y-68739D01*
X33043Y-68809D01*
X33128Y-68894D01*
X33196Y-68997D01*
X33242Y-69107D01*
X33242Y-69108D01*
X33265Y-69228D01*
X33266Y-69228D01*
X33266Y-69228D01*
G37*
G36*
X36180Y-49280D02*
X35419Y-49280D01*
X35419Y-48119D01*
X36180Y-48119D01*
X36180Y-49280D01*
X36180Y-49280D01*
G37*
G36*
X36880Y-54180D02*
X36119Y-54180D01*
X36119Y-53019D01*
X36880Y-53019D01*
X36880Y-54180D01*
X36880Y-54180D01*
G37*
G36*
X36980Y-50830D02*
X36319Y-50830D01*
X36319Y-49969D01*
X36980Y-49969D01*
X36980Y-50830D01*
X36980Y-50830D01*
G37*
G36*
X36980Y-52630D02*
X36319Y-52630D01*
X36319Y-51769D01*
X36980Y-51769D01*
X36980Y-52630D01*
X36980Y-52630D01*
G37*
G36*
X37580Y-49280D02*
X36819Y-49280D01*
X36819Y-48119D01*
X37580Y-48119D01*
X37580Y-49280D01*
X37580Y-49280D01*
G37*
G36*
X38280Y-50830D02*
X37619Y-50830D01*
X37619Y-49969D01*
X38280Y-49969D01*
X38280Y-50830D01*
X38280Y-50830D01*
G37*
G36*
X38280Y-52630D02*
X37619Y-52630D01*
X37619Y-51769D01*
X38280Y-51769D01*
X38280Y-52630D01*
X38280Y-52630D01*
G37*
G36*
X38280Y-54180D02*
X37519Y-54180D01*
X37519Y-53019D01*
X38280Y-53019D01*
X38280Y-54180D01*
X38280Y-54180D01*
G37*
G36*
X38721Y-48358D02*
X38720Y-48430D01*
X38705Y-48493D01*
X38680Y-48550D01*
X38642Y-48604D01*
X38597Y-48647D01*
X38542Y-48682D01*
X38484Y-48704D01*
X38420Y-48716D01*
X38357Y-48714D01*
X38294Y-48700D01*
X38237Y-48675D01*
X38183Y-48638D01*
X38140Y-48593D01*
X38104Y-48538D01*
X38081Y-48480D01*
X38069Y-48416D01*
X38070Y-48354D01*
X38084Y-48290D01*
X38108Y-48233D01*
X38145Y-48179D01*
X38190Y-48135D01*
X38245Y-48099D01*
X38302Y-48076D01*
X38367Y-48064D01*
X38429Y-48064D01*
X38493Y-48077D01*
X38550Y-48101D01*
X38604Y-48138D01*
X38648Y-48182D01*
X38649Y-48183D01*
X38684Y-48237D01*
X38708Y-48294D01*
X38708Y-48295D01*
X38721Y-48358D01*
X38721Y-48358D01*
X38721Y-48358D01*
G37*
G36*
X39488Y-48364D02*
X39488Y-48422D01*
X39476Y-48475D01*
X39455Y-48521D01*
X39424Y-48565D01*
X39387Y-48600D01*
X39342Y-48629D01*
X39295Y-48647D01*
X39242Y-48656D01*
X39191Y-48655D01*
X39139Y-48644D01*
X39092Y-48623D01*
X39048Y-48593D01*
X39013Y-48556D01*
X38984Y-48511D01*
X38965Y-48464D01*
X38955Y-48411D01*
X38956Y-48361D01*
X38967Y-48308D01*
X38987Y-48261D01*
X39018Y-48217D01*
X39054Y-48182D01*
X39099Y-48152D01*
X39146Y-48133D01*
X39199Y-48123D01*
X39249Y-48123D01*
X39302Y-48134D01*
X39349Y-48154D01*
X39393Y-48184D01*
X39429Y-48220D01*
X39459Y-48265D01*
X39478Y-48311D01*
X39488Y-48363D01*
X39488Y-48364D01*
X39488Y-48364D01*
G37*
G36*
X40276Y-48364D02*
X40275Y-48422D01*
X40263Y-48475D01*
X40243Y-48521D01*
X40212Y-48565D01*
X40175Y-48600D01*
X40129Y-48629D01*
X40082Y-48647D01*
X40029Y-48656D01*
X39979Y-48655D01*
X39926Y-48644D01*
X39880Y-48623D01*
X39835Y-48593D01*
X39800Y-48556D01*
X39771Y-48511D01*
X39753Y-48464D01*
X39743Y-48411D01*
X39743Y-48361D01*
X39755Y-48308D01*
X39775Y-48261D01*
X39805Y-48217D01*
X39841Y-48182D01*
X39886Y-48152D01*
X39933Y-48133D01*
X39986Y-48123D01*
X40037Y-48123D01*
X40090Y-48134D01*
X40136Y-48154D01*
X40181Y-48184D01*
X40216Y-48220D01*
X40246Y-48265D01*
X40265Y-48311D01*
X40276Y-48363D01*
X40276Y-48364D01*
X40276Y-48364D01*
G37*
G36*
X41063Y-48364D02*
X41062Y-48422D01*
X41051Y-48475D01*
X41030Y-48521D01*
X40999Y-48565D01*
X40962Y-48600D01*
X40917Y-48629D01*
X40870Y-48647D01*
X40817Y-48656D01*
X40766Y-48655D01*
X40713Y-48644D01*
X40667Y-48623D01*
X40623Y-48593D01*
X40588Y-48556D01*
X40559Y-48511D01*
X40540Y-48464D01*
X40530Y-48411D01*
X40531Y-48361D01*
X40542Y-48308D01*
X40562Y-48261D01*
X40592Y-48217D01*
X40629Y-48182D01*
X40674Y-48152D01*
X40720Y-48133D01*
X40774Y-48123D01*
X40824Y-48123D01*
X40877Y-48134D01*
X40923Y-48154D01*
X40968Y-48184D01*
X41004Y-48220D01*
X41034Y-48265D01*
X41053Y-48311D01*
X41063Y-48363D01*
X41063Y-48364D01*
X41063Y-48364D01*
G37*
G36*
X41949Y-48358D02*
X41948Y-48430D01*
X41934Y-48493D01*
X41908Y-48550D01*
X41871Y-48604D01*
X41826Y-48647D01*
X41770Y-48682D01*
X41712Y-48704D01*
X41648Y-48716D01*
X41586Y-48714D01*
X41522Y-48700D01*
X41465Y-48675D01*
X41411Y-48638D01*
X41368Y-48593D01*
X41333Y-48538D01*
X41310Y-48480D01*
X41298Y-48416D01*
X41299Y-48354D01*
X41312Y-48290D01*
X41337Y-48233D01*
X41374Y-48179D01*
X41418Y-48135D01*
X41473Y-48099D01*
X41531Y-48076D01*
X41595Y-48064D01*
X41657Y-48064D01*
X41721Y-48077D01*
X41778Y-48101D01*
X41833Y-48138D01*
X41876Y-48182D01*
X41877Y-48183D01*
X41913Y-48237D01*
X41936Y-48294D01*
X41937Y-48295D01*
X41949Y-48358D01*
X41949Y-48358D01*
X41949Y-48358D01*
G37*
G36*
X43255Y-71356D02*
X43253Y-71501D01*
X43224Y-71628D01*
X43172Y-71744D01*
X43097Y-71850D01*
X43005Y-71938D01*
X42896Y-72007D01*
X42777Y-72053D01*
X42649Y-72076D01*
X42522Y-72073D01*
X42395Y-72045D01*
X42279Y-71994D01*
X42172Y-71920D01*
X42084Y-71829D01*
X42014Y-71720D01*
X41967Y-71602D01*
X41943Y-71474D01*
X41945Y-71347D01*
X41972Y-71220D01*
X42022Y-71103D01*
X42096Y-70996D01*
X42186Y-70907D01*
X42295Y-70836D01*
X42413Y-70788D01*
X42541Y-70764D01*
X42667Y-70765D01*
X42795Y-70791D01*
X42912Y-70840D01*
X43020Y-70913D01*
X43109Y-71003D01*
X43181Y-71111D01*
X43181Y-71111D01*
X43229Y-71228D01*
X43255Y-71356D01*
X43255Y-71356D01*
G37*
G36*
X43755Y-52356D02*
X43753Y-52501D01*
X43724Y-52628D01*
X43672Y-52744D01*
X43597Y-52850D01*
X43505Y-52938D01*
X43396Y-53007D01*
X43277Y-53053D01*
X43149Y-53076D01*
X43022Y-53073D01*
X42895Y-53045D01*
X42779Y-52994D01*
X42672Y-52920D01*
X42584Y-52829D01*
X42514Y-52720D01*
X42467Y-52602D01*
X42443Y-52474D01*
X42445Y-52347D01*
X42472Y-52220D01*
X42522Y-52103D01*
X42596Y-51996D01*
X42686Y-51907D01*
X42795Y-51836D01*
X42913Y-51788D01*
X43041Y-51764D01*
X43167Y-51765D01*
X43295Y-51791D01*
X43412Y-51840D01*
X43520Y-51913D01*
X43609Y-52003D01*
X43681Y-52111D01*
X43681Y-52111D01*
X43729Y-52228D01*
X43755Y-52356D01*
X43755Y-52356D01*
G37*
G36*
X44089Y-49923D02*
X43241Y-49923D01*
X43241Y-48878D01*
X44089Y-48878D01*
X44089Y-49923D01*
X44089Y-49923D01*
G37*
G36*
X44936Y-48503D02*
X44935Y-48575D01*
X44920Y-48638D01*
X44895Y-48695D01*
X44857Y-48749D01*
X44812Y-48792D01*
X44757Y-48827D01*
X44699Y-48849D01*
X44635Y-48861D01*
X44572Y-48859D01*
X44508Y-48845D01*
X44451Y-48820D01*
X44398Y-48783D01*
X44355Y-48738D01*
X44319Y-48683D01*
X44296Y-48625D01*
X44284Y-48561D01*
X44285Y-48499D01*
X44299Y-48435D01*
X44323Y-48378D01*
X44360Y-48324D01*
X44405Y-48280D01*
X44460Y-48244D01*
X44517Y-48221D01*
X44582Y-48209D01*
X44644Y-48209D01*
X44708Y-48222D01*
X44765Y-48246D01*
X44819Y-48283D01*
X44863Y-48327D01*
X44864Y-48328D01*
X44899Y-48382D01*
X44923Y-48439D01*
X44923Y-48440D01*
X44936Y-48503D01*
X44936Y-48503D01*
X44936Y-48503D01*
G37*
G36*
X45920Y-48503D02*
X45919Y-48575D01*
X45904Y-48638D01*
X45879Y-48695D01*
X45841Y-48749D01*
X45796Y-48792D01*
X45741Y-48827D01*
X45683Y-48849D01*
X45619Y-48861D01*
X45557Y-48859D01*
X45493Y-48845D01*
X45436Y-48820D01*
X45382Y-48783D01*
X45339Y-48738D01*
X45303Y-48683D01*
X45280Y-48625D01*
X45269Y-48561D01*
X45270Y-48499D01*
X45283Y-48435D01*
X45308Y-48378D01*
X45345Y-48324D01*
X45389Y-48280D01*
X45444Y-48244D01*
X45501Y-48221D01*
X45566Y-48209D01*
X45628Y-48209D01*
X45692Y-48222D01*
X45749Y-48246D01*
X45804Y-48283D01*
X45847Y-48327D01*
X45848Y-48328D01*
X45884Y-48382D01*
X45907Y-48439D01*
X45907Y-48440D01*
X45920Y-48503D01*
X45920Y-48503D01*
X45920Y-48503D01*
G37*
G36*
X46904Y-48503D02*
X46903Y-48575D01*
X46889Y-48638D01*
X46863Y-48695D01*
X46826Y-48749D01*
X46781Y-48792D01*
X46725Y-48827D01*
X46667Y-48849D01*
X46603Y-48861D01*
X46541Y-48859D01*
X46477Y-48845D01*
X46420Y-48820D01*
X46366Y-48783D01*
X46323Y-48738D01*
X46288Y-48683D01*
X46265Y-48625D01*
X46253Y-48561D01*
X46254Y-48499D01*
X46267Y-48435D01*
X46292Y-48378D01*
X46329Y-48324D01*
X46373Y-48280D01*
X46428Y-48244D01*
X46486Y-48221D01*
X46550Y-48209D01*
X46612Y-48209D01*
X46676Y-48222D01*
X46733Y-48246D01*
X46788Y-48283D01*
X46832Y-48327D01*
X46832Y-48328D01*
X46868Y-48382D01*
X46891Y-48439D01*
X46892Y-48440D01*
X46904Y-48503D01*
X46904Y-48503D01*
X46904Y-48503D01*
G37*
G36*
X46930Y-52378D02*
X46928Y-52473D01*
X46909Y-52557D01*
X46876Y-52632D01*
X46826Y-52702D01*
X46766Y-52760D01*
X46694Y-52806D01*
X46616Y-52836D01*
X46532Y-52850D01*
X46449Y-52849D01*
X46365Y-52830D01*
X46289Y-52797D01*
X46219Y-52748D01*
X46161Y-52689D01*
X46115Y-52616D01*
X46084Y-52539D01*
X46069Y-52455D01*
X46070Y-52372D01*
X46088Y-52288D01*
X46120Y-52212D01*
X46169Y-52141D01*
X46228Y-52083D01*
X46300Y-52036D01*
X46377Y-52005D01*
X46461Y-51989D01*
X46544Y-51990D01*
X46628Y-52007D01*
X46704Y-52039D01*
X46776Y-52087D01*
X46834Y-52146D01*
X46881Y-52217D01*
X46882Y-52217D01*
X46913Y-52294D01*
X46913Y-52295D01*
X46930Y-52377D01*
X46930Y-52378D01*
X46930Y-52378D01*
G37*
G36*
X47230Y-60830D02*
X46169Y-60830D01*
X46169Y-58769D01*
X47230Y-58769D01*
X47230Y-60830D01*
X47230Y-60830D01*
G37*
G36*
X47230Y-65430D02*
X45169Y-65430D01*
X45169Y-64369D01*
X47230Y-64369D01*
X47230Y-65430D01*
X47230Y-65430D01*
G37*
G36*
X47930Y-52378D02*
X47928Y-52473D01*
X47909Y-52557D01*
X47876Y-52632D01*
X47826Y-52702D01*
X47766Y-52760D01*
X47694Y-52806D01*
X47616Y-52836D01*
X47532Y-52850D01*
X47449Y-52849D01*
X47365Y-52830D01*
X47289Y-52797D01*
X47219Y-52748D01*
X47161Y-52689D01*
X47115Y-52616D01*
X47084Y-52539D01*
X47069Y-52455D01*
X47070Y-52372D01*
X47088Y-52288D01*
X47120Y-52212D01*
X47169Y-52141D01*
X47228Y-52083D01*
X47300Y-52036D01*
X47377Y-52005D01*
X47461Y-51989D01*
X47544Y-51990D01*
X47628Y-52007D01*
X47704Y-52039D01*
X47776Y-52087D01*
X47834Y-52146D01*
X47881Y-52217D01*
X47882Y-52217D01*
X47913Y-52294D01*
X47913Y-52295D01*
X47930Y-52377D01*
X47930Y-52378D01*
X47930Y-52378D01*
G37*
G36*
X47948Y-49923D02*
X47100Y-49923D01*
X47100Y-48878D01*
X47948Y-48878D01*
X47948Y-49923D01*
X47948Y-49923D01*
G37*
G36*
X48430Y-63119D02*
X48427Y-63303D01*
X48391Y-63463D01*
X48325Y-63611D01*
X48230Y-63745D01*
X48114Y-63856D01*
X47975Y-63944D01*
X47825Y-64003D01*
X47663Y-64031D01*
X47502Y-64028D01*
X47341Y-63993D01*
X47193Y-63928D01*
X47058Y-63834D01*
X46946Y-63718D01*
X46857Y-63580D01*
X46798Y-63430D01*
X46768Y-63268D01*
X46771Y-63107D01*
X46805Y-62946D01*
X46868Y-62798D01*
X46961Y-62663D01*
X47076Y-62550D01*
X47214Y-62460D01*
X47363Y-62400D01*
X47525Y-62369D01*
X47686Y-62370D01*
X47847Y-62403D01*
X47995Y-62465D01*
X48132Y-62557D01*
X48245Y-62672D01*
X48336Y-62809D01*
X48398Y-62957D01*
X48398Y-62958D01*
X48430Y-63118D01*
X48430Y-63119D01*
X48430Y-63119D01*
G37*
G36*
X48530Y-71378D02*
X48528Y-71473D01*
X48509Y-71557D01*
X48476Y-71632D01*
X48426Y-71702D01*
X48366Y-71760D01*
X48294Y-71806D01*
X48216Y-71836D01*
X48132Y-71850D01*
X48049Y-71849D01*
X47965Y-71830D01*
X47889Y-71797D01*
X47819Y-71748D01*
X47761Y-71689D01*
X47715Y-71616D01*
X47684Y-71539D01*
X47669Y-71455D01*
X47670Y-71372D01*
X47688Y-71288D01*
X47720Y-71212D01*
X47769Y-71141D01*
X47828Y-71083D01*
X47900Y-71036D01*
X47977Y-71005D01*
X48061Y-70989D01*
X48144Y-70990D01*
X48228Y-71007D01*
X48304Y-71039D01*
X48376Y-71087D01*
X48434Y-71146D01*
X48481Y-71217D01*
X48482Y-71217D01*
X48513Y-71294D01*
X48513Y-71295D01*
X48530Y-71377D01*
X48530Y-71378D01*
X48530Y-71378D01*
G37*
G36*
X48785Y-53309D02*
X48567Y-54020D01*
X48372Y-54020D01*
X48154Y-53309D01*
X48785Y-53309D01*
X48785Y-53309D01*
G37*
G36*
X48785Y-54770D02*
X48154Y-54770D01*
X48372Y-54059D01*
X48567Y-54059D01*
X48785Y-54770D01*
X48785Y-54770D01*
G37*
G36*
X48930Y-52378D02*
X48928Y-52473D01*
X48909Y-52557D01*
X48876Y-52632D01*
X48826Y-52702D01*
X48766Y-52760D01*
X48694Y-52806D01*
X48616Y-52836D01*
X48532Y-52850D01*
X48449Y-52849D01*
X48365Y-52830D01*
X48289Y-52797D01*
X48219Y-52748D01*
X48161Y-52689D01*
X48115Y-52616D01*
X48084Y-52539D01*
X48069Y-52455D01*
X48070Y-52372D01*
X48088Y-52288D01*
X48120Y-52212D01*
X48169Y-52141D01*
X48228Y-52083D01*
X48300Y-52036D01*
X48377Y-52005D01*
X48461Y-51989D01*
X48544Y-51990D01*
X48628Y-52007D01*
X48704Y-52039D01*
X48776Y-52087D01*
X48834Y-52146D01*
X48881Y-52217D01*
X48882Y-52217D01*
X48913Y-52294D01*
X48913Y-52295D01*
X48930Y-52377D01*
X48930Y-52378D01*
X48930Y-52378D01*
G37*
G36*
X49530Y-71378D02*
X49528Y-71473D01*
X49509Y-71557D01*
X49476Y-71632D01*
X49426Y-71702D01*
X49366Y-71760D01*
X49294Y-71806D01*
X49216Y-71836D01*
X49132Y-71850D01*
X49049Y-71849D01*
X48965Y-71830D01*
X48889Y-71797D01*
X48819Y-71748D01*
X48761Y-71689D01*
X48715Y-71616D01*
X48684Y-71539D01*
X48669Y-71455D01*
X48670Y-71372D01*
X48688Y-71288D01*
X48720Y-71212D01*
X48769Y-71141D01*
X48828Y-71083D01*
X48900Y-71036D01*
X48977Y-71005D01*
X49061Y-70989D01*
X49144Y-70990D01*
X49228Y-71007D01*
X49304Y-71039D01*
X49376Y-71087D01*
X49434Y-71146D01*
X49481Y-71217D01*
X49482Y-71217D01*
X49513Y-71294D01*
X49513Y-71295D01*
X49530Y-71377D01*
X49530Y-71378D01*
X49530Y-71378D01*
G37*
G36*
X49815Y-53299D02*
X49597Y-54010D01*
X49402Y-54010D01*
X49184Y-53299D01*
X49815Y-53299D01*
X49815Y-53299D01*
G37*
G36*
X49815Y-54760D02*
X49184Y-54760D01*
X49402Y-54049D01*
X49597Y-54049D01*
X49815Y-54760D01*
X49815Y-54760D01*
G37*
G36*
X49930Y-52378D02*
X49928Y-52473D01*
X49909Y-52557D01*
X49876Y-52632D01*
X49826Y-52702D01*
X49766Y-52760D01*
X49694Y-52806D01*
X49616Y-52836D01*
X49532Y-52850D01*
X49449Y-52849D01*
X49365Y-52830D01*
X49289Y-52797D01*
X49219Y-52748D01*
X49161Y-52689D01*
X49115Y-52616D01*
X49084Y-52539D01*
X49069Y-52455D01*
X49070Y-52372D01*
X49088Y-52288D01*
X49120Y-52212D01*
X49169Y-52141D01*
X49228Y-52083D01*
X49300Y-52036D01*
X49377Y-52005D01*
X49461Y-51989D01*
X49544Y-51990D01*
X49628Y-52007D01*
X49704Y-52039D01*
X49776Y-52087D01*
X49834Y-52146D01*
X49881Y-52217D01*
X49882Y-52217D01*
X49913Y-52294D01*
X49913Y-52295D01*
X49930Y-52377D01*
X49930Y-52378D01*
X49930Y-52378D01*
G37*
G36*
X50230Y-65330D02*
X48169Y-65330D01*
X48169Y-64269D01*
X50230Y-64269D01*
X50230Y-65330D01*
X50230Y-65330D01*
G37*
G36*
X50530Y-71378D02*
X50528Y-71473D01*
X50509Y-71557D01*
X50476Y-71632D01*
X50426Y-71702D01*
X50366Y-71760D01*
X50294Y-71806D01*
X50216Y-71836D01*
X50132Y-71850D01*
X50049Y-71849D01*
X49965Y-71830D01*
X49889Y-71797D01*
X49819Y-71748D01*
X49761Y-71689D01*
X49715Y-71616D01*
X49684Y-71539D01*
X49669Y-71455D01*
X49670Y-71372D01*
X49688Y-71288D01*
X49720Y-71212D01*
X49769Y-71141D01*
X49828Y-71083D01*
X49900Y-71036D01*
X49977Y-71005D01*
X50061Y-70989D01*
X50144Y-70990D01*
X50228Y-71007D01*
X50304Y-71039D01*
X50376Y-71087D01*
X50434Y-71146D01*
X50481Y-71217D01*
X50482Y-71217D01*
X50513Y-71294D01*
X50513Y-71295D01*
X50530Y-71377D01*
X50530Y-71378D01*
X50530Y-71378D01*
G37*
G36*
X50530Y-62430D02*
X48469Y-62430D01*
X48469Y-61369D01*
X50530Y-61369D01*
X50530Y-62430D01*
X50530Y-62430D01*
G37*
G36*
X50860Y-53304D02*
X50642Y-54015D01*
X50447Y-54015D01*
X50229Y-53304D01*
X50860Y-53304D01*
X50860Y-53304D01*
G37*
G36*
X50860Y-54765D02*
X50229Y-54765D01*
X50447Y-54054D01*
X50642Y-54054D01*
X50860Y-54765D01*
X50860Y-54765D01*
G37*
G36*
X50919Y-49823D02*
X50071Y-49823D01*
X50071Y-48778D01*
X50919Y-48778D01*
X50919Y-49823D01*
X50919Y-49823D01*
G37*
G36*
X50930Y-52378D02*
X50928Y-52473D01*
X50909Y-52557D01*
X50876Y-52632D01*
X50826Y-52702D01*
X50766Y-52760D01*
X50694Y-52806D01*
X50616Y-52836D01*
X50532Y-52850D01*
X50449Y-52849D01*
X50365Y-52830D01*
X50289Y-52797D01*
X50219Y-52748D01*
X50161Y-52689D01*
X50115Y-52616D01*
X50084Y-52539D01*
X50069Y-52455D01*
X50070Y-52372D01*
X50088Y-52288D01*
X50120Y-52212D01*
X50169Y-52141D01*
X50228Y-52083D01*
X50300Y-52036D01*
X50377Y-52005D01*
X50461Y-51989D01*
X50544Y-51990D01*
X50628Y-52007D01*
X50704Y-52039D01*
X50776Y-52087D01*
X50834Y-52146D01*
X50881Y-52217D01*
X50882Y-52217D01*
X50913Y-52294D01*
X50913Y-52295D01*
X50930Y-52377D01*
X50930Y-52378D01*
X50930Y-52378D01*
G37*
G36*
X51530Y-71378D02*
X51528Y-71473D01*
X51509Y-71557D01*
X51476Y-71632D01*
X51426Y-71702D01*
X51366Y-71760D01*
X51294Y-71806D01*
X51216Y-71836D01*
X51132Y-71850D01*
X51049Y-71849D01*
X50965Y-71830D01*
X50889Y-71797D01*
X50819Y-71748D01*
X50761Y-71689D01*
X50715Y-71616D01*
X50684Y-71539D01*
X50669Y-71455D01*
X50670Y-71372D01*
X50688Y-71288D01*
X50720Y-71212D01*
X50769Y-71141D01*
X50828Y-71083D01*
X50900Y-71036D01*
X50977Y-71005D01*
X51061Y-70989D01*
X51144Y-70990D01*
X51228Y-71007D01*
X51304Y-71039D01*
X51376Y-71087D01*
X51434Y-71146D01*
X51481Y-71217D01*
X51482Y-71217D01*
X51513Y-71294D01*
X51513Y-71295D01*
X51530Y-71377D01*
X51530Y-71378D01*
X51530Y-71378D01*
G37*
G36*
X51766Y-48403D02*
X51765Y-48475D01*
X51750Y-48538D01*
X51725Y-48595D01*
X51687Y-48649D01*
X51642Y-48692D01*
X51587Y-48727D01*
X51529Y-48749D01*
X51465Y-48761D01*
X51402Y-48759D01*
X51338Y-48745D01*
X51281Y-48720D01*
X51228Y-48683D01*
X51185Y-48638D01*
X51149Y-48583D01*
X51126Y-48525D01*
X51114Y-48461D01*
X51115Y-48399D01*
X51129Y-48335D01*
X51153Y-48278D01*
X51190Y-48224D01*
X51235Y-48180D01*
X51290Y-48144D01*
X51347Y-48121D01*
X51412Y-48109D01*
X51474Y-48109D01*
X51538Y-48122D01*
X51595Y-48146D01*
X51649Y-48183D01*
X51693Y-48227D01*
X51694Y-48228D01*
X51729Y-48282D01*
X51753Y-48339D01*
X51753Y-48340D01*
X51766Y-48403D01*
X51766Y-48403D01*
X51766Y-48403D01*
G37*
G36*
X51930Y-52378D02*
X51928Y-52473D01*
X51909Y-52557D01*
X51876Y-52632D01*
X51826Y-52702D01*
X51766Y-52760D01*
X51694Y-52806D01*
X51616Y-52836D01*
X51532Y-52850D01*
X51449Y-52849D01*
X51365Y-52830D01*
X51289Y-52797D01*
X51219Y-52748D01*
X51161Y-52689D01*
X51115Y-52616D01*
X51084Y-52539D01*
X51069Y-52455D01*
X51070Y-52372D01*
X51088Y-52288D01*
X51120Y-52212D01*
X51169Y-52141D01*
X51228Y-52083D01*
X51300Y-52036D01*
X51377Y-52005D01*
X51461Y-51989D01*
X51544Y-51990D01*
X51628Y-52007D01*
X51704Y-52039D01*
X51776Y-52087D01*
X51834Y-52146D01*
X51881Y-52217D01*
X51882Y-52217D01*
X51913Y-52294D01*
X51913Y-52295D01*
X51930Y-52377D01*
X51930Y-52378D01*
X51930Y-52378D01*
G37*
G36*
X52470Y-68769D02*
X52252Y-69480D01*
X52057Y-69480D01*
X51839Y-68769D01*
X52470Y-68769D01*
X52470Y-68769D01*
G37*
G36*
X52470Y-70230D02*
X51839Y-70230D01*
X52057Y-69519D01*
X52252Y-69519D01*
X52470Y-70230D01*
X52470Y-70230D01*
G37*
G36*
X52530Y-71378D02*
X52528Y-71473D01*
X52509Y-71557D01*
X52476Y-71632D01*
X52426Y-71702D01*
X52366Y-71760D01*
X52294Y-71806D01*
X52216Y-71836D01*
X52132Y-71850D01*
X52049Y-71849D01*
X51965Y-71830D01*
X51889Y-71797D01*
X51819Y-71748D01*
X51761Y-71689D01*
X51715Y-71616D01*
X51684Y-71539D01*
X51669Y-71455D01*
X51670Y-71372D01*
X51688Y-71288D01*
X51720Y-71212D01*
X51769Y-71141D01*
X51828Y-71083D01*
X51900Y-71036D01*
X51977Y-71005D01*
X52061Y-70989D01*
X52144Y-70990D01*
X52228Y-71007D01*
X52304Y-71039D01*
X52376Y-71087D01*
X52434Y-71146D01*
X52481Y-71217D01*
X52482Y-71217D01*
X52513Y-71294D01*
X52513Y-71295D01*
X52530Y-71377D01*
X52530Y-71378D01*
X52530Y-71378D01*
G37*
G36*
X52660Y-64485D02*
X52049Y-64485D01*
X52049Y-64074D01*
X52660Y-64074D01*
X52660Y-64485D01*
X52660Y-64485D01*
G37*
G36*
X52660Y-65235D02*
X52049Y-65235D01*
X52049Y-64824D01*
X52660Y-64824D01*
X52660Y-65235D01*
X52660Y-65235D01*
G37*
G36*
X52750Y-48403D02*
X52749Y-48475D01*
X52734Y-48538D01*
X52709Y-48595D01*
X52671Y-48649D01*
X52626Y-48692D01*
X52571Y-48727D01*
X52513Y-48749D01*
X52449Y-48761D01*
X52387Y-48759D01*
X52323Y-48745D01*
X52266Y-48720D01*
X52212Y-48683D01*
X52169Y-48638D01*
X52133Y-48583D01*
X52110Y-48525D01*
X52099Y-48461D01*
X52100Y-48399D01*
X52113Y-48335D01*
X52138Y-48278D01*
X52175Y-48224D01*
X52219Y-48180D01*
X52274Y-48144D01*
X52331Y-48121D01*
X52396Y-48109D01*
X52458Y-48109D01*
X52522Y-48122D01*
X52579Y-48146D01*
X52634Y-48183D01*
X52677Y-48227D01*
X52678Y-48228D01*
X52714Y-48282D01*
X52737Y-48339D01*
X52737Y-48340D01*
X52750Y-48403D01*
X52750Y-48403D01*
X52750Y-48403D01*
G37*
G36*
X52930Y-52378D02*
X52928Y-52473D01*
X52909Y-52557D01*
X52876Y-52632D01*
X52826Y-52702D01*
X52766Y-52760D01*
X52694Y-52806D01*
X52616Y-52836D01*
X52532Y-52850D01*
X52449Y-52849D01*
X52365Y-52830D01*
X52289Y-52797D01*
X52219Y-52748D01*
X52161Y-52689D01*
X52115Y-52616D01*
X52084Y-52539D01*
X52069Y-52455D01*
X52070Y-52372D01*
X52088Y-52288D01*
X52120Y-52212D01*
X52169Y-52141D01*
X52228Y-52083D01*
X52300Y-52036D01*
X52377Y-52005D01*
X52461Y-51989D01*
X52544Y-51990D01*
X52628Y-52007D01*
X52704Y-52039D01*
X52776Y-52087D01*
X52834Y-52146D01*
X52881Y-52217D01*
X52882Y-52217D01*
X52913Y-52294D01*
X52913Y-52295D01*
X52930Y-52377D01*
X52930Y-52378D01*
X52930Y-52378D01*
G37*
G36*
X53530Y-71378D02*
X53528Y-71473D01*
X53509Y-71557D01*
X53476Y-71632D01*
X53426Y-71702D01*
X53366Y-71760D01*
X53294Y-71806D01*
X53216Y-71836D01*
X53132Y-71850D01*
X53049Y-71849D01*
X52965Y-71830D01*
X52889Y-71797D01*
X52819Y-71748D01*
X52761Y-71689D01*
X52715Y-71616D01*
X52684Y-71539D01*
X52669Y-71455D01*
X52670Y-71372D01*
X52688Y-71288D01*
X52720Y-71212D01*
X52769Y-71141D01*
X52828Y-71083D01*
X52900Y-71036D01*
X52977Y-71005D01*
X53061Y-70989D01*
X53144Y-70990D01*
X53228Y-71007D01*
X53304Y-71039D01*
X53376Y-71087D01*
X53434Y-71146D01*
X53481Y-71217D01*
X53482Y-71217D01*
X53513Y-71294D01*
X53513Y-71295D01*
X53530Y-71377D01*
X53530Y-71378D01*
X53530Y-71378D01*
G37*
G36*
X53734Y-48403D02*
X53733Y-48475D01*
X53719Y-48538D01*
X53693Y-48595D01*
X53656Y-48649D01*
X53611Y-48692D01*
X53555Y-48727D01*
X53497Y-48749D01*
X53433Y-48761D01*
X53371Y-48759D01*
X53307Y-48745D01*
X53250Y-48720D01*
X53196Y-48683D01*
X53153Y-48638D01*
X53118Y-48583D01*
X53095Y-48525D01*
X53083Y-48461D01*
X53084Y-48399D01*
X53097Y-48335D01*
X53122Y-48278D01*
X53159Y-48224D01*
X53203Y-48180D01*
X53258Y-48144D01*
X53316Y-48121D01*
X53380Y-48109D01*
X53442Y-48109D01*
X53506Y-48122D01*
X53563Y-48146D01*
X53618Y-48183D01*
X53662Y-48227D01*
X53662Y-48228D01*
X53698Y-48282D01*
X53721Y-48339D01*
X53722Y-48340D01*
X53734Y-48403D01*
X53734Y-48403D01*
X53734Y-48403D01*
G37*
G36*
X53930Y-52378D02*
X53928Y-52473D01*
X53909Y-52557D01*
X53876Y-52632D01*
X53826Y-52702D01*
X53766Y-52760D01*
X53694Y-52806D01*
X53616Y-52836D01*
X53532Y-52850D01*
X53449Y-52849D01*
X53365Y-52830D01*
X53289Y-52797D01*
X53219Y-52748D01*
X53161Y-52689D01*
X53115Y-52616D01*
X53084Y-52539D01*
X53069Y-52455D01*
X53070Y-52372D01*
X53088Y-52288D01*
X53120Y-52212D01*
X53169Y-52141D01*
X53228Y-52083D01*
X53300Y-52036D01*
X53377Y-52005D01*
X53461Y-51989D01*
X53544Y-51990D01*
X53628Y-52007D01*
X53704Y-52039D01*
X53776Y-52087D01*
X53834Y-52146D01*
X53881Y-52217D01*
X53882Y-52217D01*
X53913Y-52294D01*
X53913Y-52295D01*
X53930Y-52377D01*
X53930Y-52378D01*
X53930Y-52378D01*
G37*
G36*
X53952Y-64443D02*
X53497Y-64443D01*
X53497Y-64106D01*
X53952Y-64106D01*
X53952Y-64443D01*
X53952Y-64443D01*
G37*
G36*
X53952Y-64818D02*
X53497Y-64818D01*
X53497Y-64481D01*
X53952Y-64481D01*
X53952Y-64818D01*
X53952Y-64818D01*
G37*
G36*
X53952Y-65193D02*
X53497Y-65193D01*
X53497Y-64856D01*
X53952Y-64856D01*
X53952Y-65193D01*
X53952Y-65193D01*
G37*
G36*
X54405Y-67430D02*
X53794Y-67430D01*
X53794Y-67019D01*
X54405Y-67019D01*
X54405Y-67430D01*
X54405Y-67430D01*
G37*
G36*
X54405Y-68180D02*
X53794Y-68180D01*
X53794Y-67769D01*
X54405Y-67769D01*
X54405Y-68180D01*
X54405Y-68180D01*
G37*
G36*
X54530Y-71378D02*
X54528Y-71473D01*
X54509Y-71557D01*
X54476Y-71632D01*
X54426Y-71702D01*
X54366Y-71760D01*
X54294Y-71806D01*
X54216Y-71836D01*
X54132Y-71850D01*
X54049Y-71849D01*
X53965Y-71830D01*
X53889Y-71797D01*
X53819Y-71748D01*
X53761Y-71689D01*
X53715Y-71616D01*
X53684Y-71539D01*
X53669Y-71455D01*
X53670Y-71372D01*
X53688Y-71288D01*
X53720Y-71212D01*
X53769Y-71141D01*
X53828Y-71083D01*
X53900Y-71036D01*
X53977Y-71005D01*
X54061Y-70989D01*
X54144Y-70990D01*
X54228Y-71007D01*
X54304Y-71039D01*
X54376Y-71087D01*
X54434Y-71146D01*
X54481Y-71217D01*
X54482Y-71217D01*
X54513Y-71294D01*
X54513Y-71295D01*
X54530Y-71377D01*
X54530Y-71378D01*
X54530Y-71378D01*
G37*
G36*
X54778Y-49823D02*
X53930Y-49823D01*
X53930Y-48778D01*
X54778Y-48778D01*
X54778Y-49823D01*
X54778Y-49823D01*
G37*
G36*
X54952Y-64443D02*
X54497Y-64443D01*
X54497Y-64106D01*
X54952Y-64106D01*
X54952Y-64443D01*
X54952Y-64443D01*
G37*
G36*
X54952Y-64818D02*
X54497Y-64818D01*
X54497Y-64481D01*
X54952Y-64481D01*
X54952Y-64818D01*
X54952Y-64818D01*
G37*
G36*
X54952Y-65193D02*
X54497Y-65193D01*
X54497Y-64856D01*
X54952Y-64856D01*
X54952Y-65193D01*
X54952Y-65193D01*
G37*
G36*
X55530Y-52378D02*
X55528Y-52473D01*
X55509Y-52557D01*
X55476Y-52632D01*
X55426Y-52702D01*
X55366Y-52760D01*
X55294Y-52806D01*
X55216Y-52836D01*
X55132Y-52850D01*
X55049Y-52849D01*
X54965Y-52830D01*
X54889Y-52797D01*
X54819Y-52748D01*
X54761Y-52689D01*
X54715Y-52616D01*
X54684Y-52539D01*
X54669Y-52455D01*
X54670Y-52372D01*
X54688Y-52288D01*
X54720Y-52212D01*
X54769Y-52141D01*
X54828Y-52083D01*
X54900Y-52036D01*
X54977Y-52005D01*
X55061Y-51989D01*
X55144Y-51990D01*
X55228Y-52007D01*
X55304Y-52039D01*
X55376Y-52087D01*
X55434Y-52146D01*
X55481Y-52217D01*
X55482Y-52217D01*
X55513Y-52294D01*
X55513Y-52295D01*
X55530Y-52377D01*
X55530Y-52378D01*
X55530Y-52378D01*
G37*
G36*
X55530Y-71378D02*
X55528Y-71473D01*
X55509Y-71557D01*
X55476Y-71632D01*
X55426Y-71702D01*
X55366Y-71760D01*
X55294Y-71806D01*
X55216Y-71836D01*
X55132Y-71850D01*
X55049Y-71849D01*
X54965Y-71830D01*
X54889Y-71797D01*
X54819Y-71748D01*
X54761Y-71689D01*
X54715Y-71616D01*
X54684Y-71539D01*
X54669Y-71455D01*
X54670Y-71372D01*
X54688Y-71288D01*
X54720Y-71212D01*
X54769Y-71141D01*
X54828Y-71083D01*
X54900Y-71036D01*
X54977Y-71005D01*
X55061Y-70989D01*
X55144Y-70990D01*
X55228Y-71007D01*
X55304Y-71039D01*
X55376Y-71087D01*
X55434Y-71146D01*
X55481Y-71217D01*
X55482Y-71217D01*
X55513Y-71294D01*
X55513Y-71295D01*
X55530Y-71377D01*
X55530Y-71378D01*
X55530Y-71378D01*
G37*
G36*
X55585Y-68774D02*
X55367Y-69485D01*
X55172Y-69485D01*
X54954Y-68774D01*
X55585Y-68774D01*
X55585Y-68774D01*
G37*
G36*
X55585Y-70235D02*
X54954Y-70235D01*
X55172Y-69524D01*
X55367Y-69524D01*
X55585Y-70235D01*
X55585Y-70235D01*
G37*
G36*
X56230Y-64430D02*
X55619Y-64430D01*
X55619Y-64019D01*
X56230Y-64019D01*
X56230Y-64430D01*
X56230Y-64430D01*
G37*
G36*
X56230Y-65180D02*
X55619Y-65180D01*
X55619Y-64769D01*
X56230Y-64769D01*
X56230Y-65180D01*
X56230Y-65180D01*
G37*
G36*
X56445Y-53309D02*
X56227Y-54020D01*
X56032Y-54020D01*
X55814Y-53309D01*
X56445Y-53309D01*
X56445Y-53309D01*
G37*
G36*
X56445Y-54770D02*
X55814Y-54770D01*
X56032Y-54059D01*
X56227Y-54059D01*
X56445Y-54770D01*
X56445Y-54770D01*
G37*
G36*
X56530Y-52378D02*
X56528Y-52473D01*
X56509Y-52557D01*
X56476Y-52632D01*
X56426Y-52702D01*
X56366Y-52760D01*
X56294Y-52806D01*
X56216Y-52836D01*
X56132Y-52850D01*
X56049Y-52849D01*
X55965Y-52830D01*
X55889Y-52797D01*
X55819Y-52748D01*
X55761Y-52689D01*
X55715Y-52616D01*
X55684Y-52539D01*
X55669Y-52455D01*
X55670Y-52372D01*
X55688Y-52288D01*
X55720Y-52212D01*
X55769Y-52141D01*
X55828Y-52083D01*
X55900Y-52036D01*
X55977Y-52005D01*
X56061Y-51989D01*
X56144Y-51990D01*
X56228Y-52007D01*
X56304Y-52039D01*
X56376Y-52087D01*
X56434Y-52146D01*
X56481Y-52217D01*
X56482Y-52217D01*
X56513Y-52294D01*
X56513Y-52295D01*
X56530Y-52377D01*
X56530Y-52378D01*
X56530Y-52378D01*
G37*
G36*
X57530Y-52378D02*
X57528Y-52473D01*
X57509Y-52557D01*
X57476Y-52632D01*
X57426Y-52702D01*
X57366Y-52760D01*
X57294Y-52806D01*
X57216Y-52836D01*
X57132Y-52850D01*
X57049Y-52849D01*
X56965Y-52830D01*
X56889Y-52797D01*
X56819Y-52748D01*
X56761Y-52689D01*
X56715Y-52616D01*
X56684Y-52539D01*
X56669Y-52455D01*
X56670Y-52372D01*
X56688Y-52288D01*
X56720Y-52212D01*
X56769Y-52141D01*
X56828Y-52083D01*
X56900Y-52036D01*
X56977Y-52005D01*
X57061Y-51989D01*
X57144Y-51990D01*
X57228Y-52007D01*
X57304Y-52039D01*
X57376Y-52087D01*
X57434Y-52146D01*
X57481Y-52217D01*
X57482Y-52217D01*
X57513Y-52294D01*
X57513Y-52295D01*
X57530Y-52377D01*
X57530Y-52378D01*
X57530Y-52378D01*
G37*
G36*
X57530Y-71378D02*
X57528Y-71473D01*
X57509Y-71557D01*
X57476Y-71632D01*
X57426Y-71702D01*
X57366Y-71760D01*
X57294Y-71806D01*
X57216Y-71836D01*
X57132Y-71850D01*
X57049Y-71849D01*
X56965Y-71830D01*
X56889Y-71797D01*
X56819Y-71748D01*
X56761Y-71689D01*
X56715Y-71616D01*
X56684Y-71539D01*
X56669Y-71455D01*
X56670Y-71372D01*
X56688Y-71288D01*
X56720Y-71212D01*
X56769Y-71141D01*
X56828Y-71083D01*
X56900Y-71036D01*
X56977Y-71005D01*
X57061Y-70989D01*
X57144Y-70990D01*
X57228Y-71007D01*
X57304Y-71039D01*
X57376Y-71087D01*
X57434Y-71146D01*
X57481Y-71217D01*
X57482Y-71217D01*
X57513Y-71294D01*
X57513Y-71295D01*
X57530Y-71377D01*
X57530Y-71378D01*
X57530Y-71378D01*
G37*
G36*
X58435Y-53319D02*
X58217Y-54030D01*
X58022Y-54030D01*
X57804Y-53319D01*
X58435Y-53319D01*
X58435Y-53319D01*
G37*
G36*
X58435Y-54780D02*
X57804Y-54780D01*
X58022Y-54069D01*
X58217Y-54069D01*
X58435Y-54780D01*
X58435Y-54780D01*
G37*
G36*
X58530Y-52378D02*
X58528Y-52473D01*
X58509Y-52557D01*
X58476Y-52632D01*
X58426Y-52702D01*
X58366Y-52760D01*
X58294Y-52806D01*
X58216Y-52836D01*
X58132Y-52850D01*
X58049Y-52849D01*
X57965Y-52830D01*
X57889Y-52797D01*
X57819Y-52748D01*
X57761Y-52689D01*
X57715Y-52616D01*
X57684Y-52539D01*
X57669Y-52455D01*
X57670Y-52372D01*
X57688Y-52288D01*
X57720Y-52212D01*
X57769Y-52141D01*
X57828Y-52083D01*
X57900Y-52036D01*
X57977Y-52005D01*
X58061Y-51989D01*
X58144Y-51990D01*
X58228Y-52007D01*
X58304Y-52039D01*
X58376Y-52087D01*
X58434Y-52146D01*
X58481Y-52217D01*
X58482Y-52217D01*
X58513Y-52294D01*
X58513Y-52295D01*
X58530Y-52377D01*
X58530Y-52378D01*
X58530Y-52378D01*
G37*
G36*
X58530Y-71378D02*
X58528Y-71473D01*
X58509Y-71557D01*
X58476Y-71632D01*
X58426Y-71702D01*
X58366Y-71760D01*
X58294Y-71806D01*
X58216Y-71836D01*
X58132Y-71850D01*
X58049Y-71849D01*
X57965Y-71830D01*
X57889Y-71797D01*
X57819Y-71748D01*
X57761Y-71689D01*
X57715Y-71616D01*
X57684Y-71539D01*
X57669Y-71455D01*
X57670Y-71372D01*
X57688Y-71288D01*
X57720Y-71212D01*
X57769Y-71141D01*
X57828Y-71083D01*
X57900Y-71036D01*
X57977Y-71005D01*
X58061Y-70989D01*
X58144Y-70990D01*
X58228Y-71007D01*
X58304Y-71039D01*
X58376Y-71087D01*
X58434Y-71146D01*
X58481Y-71217D01*
X58482Y-71217D01*
X58513Y-71294D01*
X58513Y-71295D01*
X58530Y-71377D01*
X58530Y-71378D01*
X58530Y-71378D01*
G37*
G36*
X58898Y-64366D02*
X57381Y-64366D01*
X57381Y-63833D01*
X58898Y-63833D01*
X58898Y-64366D01*
X58898Y-64366D01*
G37*
G36*
X58898Y-65468D02*
X57381Y-65468D01*
X57381Y-64935D01*
X58898Y-64935D01*
X58898Y-65468D01*
X58898Y-65468D01*
G37*
G36*
X59465Y-53309D02*
X59247Y-54020D01*
X59052Y-54020D01*
X58834Y-53309D01*
X59465Y-53309D01*
X59465Y-53309D01*
G37*
G36*
X59465Y-54770D02*
X58834Y-54770D01*
X59052Y-54059D01*
X59247Y-54059D01*
X59465Y-54770D01*
X59465Y-54770D01*
G37*
G36*
X59530Y-52378D02*
X59528Y-52473D01*
X59509Y-52557D01*
X59476Y-52632D01*
X59426Y-52702D01*
X59366Y-52760D01*
X59294Y-52806D01*
X59216Y-52836D01*
X59132Y-52850D01*
X59049Y-52849D01*
X58965Y-52830D01*
X58889Y-52797D01*
X58819Y-52748D01*
X58761Y-52689D01*
X58715Y-52616D01*
X58684Y-52539D01*
X58669Y-52455D01*
X58670Y-52372D01*
X58688Y-52288D01*
X58720Y-52212D01*
X58769Y-52141D01*
X58828Y-52083D01*
X58900Y-52036D01*
X58977Y-52005D01*
X59061Y-51989D01*
X59144Y-51990D01*
X59228Y-52007D01*
X59304Y-52039D01*
X59376Y-52087D01*
X59434Y-52146D01*
X59481Y-52217D01*
X59482Y-52217D01*
X59513Y-52294D01*
X59513Y-52295D01*
X59530Y-52377D01*
X59530Y-52378D01*
X59530Y-52378D01*
G37*
G36*
X59530Y-71378D02*
X59528Y-71473D01*
X59509Y-71557D01*
X59476Y-71632D01*
X59426Y-71702D01*
X59366Y-71760D01*
X59294Y-71806D01*
X59216Y-71836D01*
X59132Y-71850D01*
X59049Y-71849D01*
X58965Y-71830D01*
X58889Y-71797D01*
X58819Y-71748D01*
X58761Y-71689D01*
X58715Y-71616D01*
X58684Y-71539D01*
X58669Y-71455D01*
X58670Y-71372D01*
X58688Y-71288D01*
X58720Y-71212D01*
X58769Y-71141D01*
X58828Y-71083D01*
X58900Y-71036D01*
X58977Y-71005D01*
X59061Y-70989D01*
X59144Y-70990D01*
X59228Y-71007D01*
X59304Y-71039D01*
X59376Y-71087D01*
X59434Y-71146D01*
X59481Y-71217D01*
X59482Y-71217D01*
X59513Y-71294D01*
X59513Y-71295D01*
X59530Y-71377D01*
X59530Y-71378D01*
X59530Y-71378D01*
G37*
G36*
X60405Y-53309D02*
X60187Y-54020D01*
X59992Y-54020D01*
X59774Y-53309D01*
X60405Y-53309D01*
X60405Y-53309D01*
G37*
G36*
X60405Y-54770D02*
X59774Y-54770D01*
X59992Y-54059D01*
X60187Y-54059D01*
X60405Y-54770D01*
X60405Y-54770D01*
G37*
G36*
X60530Y-52378D02*
X60528Y-52473D01*
X60509Y-52557D01*
X60476Y-52632D01*
X60426Y-52702D01*
X60366Y-52760D01*
X60294Y-52806D01*
X60216Y-52836D01*
X60132Y-52850D01*
X60049Y-52849D01*
X59965Y-52830D01*
X59889Y-52797D01*
X59819Y-52748D01*
X59761Y-52689D01*
X59715Y-52616D01*
X59684Y-52539D01*
X59669Y-52455D01*
X59670Y-52372D01*
X59688Y-52288D01*
X59720Y-52212D01*
X59769Y-52141D01*
X59828Y-52083D01*
X59900Y-52036D01*
X59977Y-52005D01*
X60061Y-51989D01*
X60144Y-51990D01*
X60228Y-52007D01*
X60304Y-52039D01*
X60376Y-52087D01*
X60434Y-52146D01*
X60481Y-52217D01*
X60482Y-52217D01*
X60513Y-52294D01*
X60513Y-52295D01*
X60530Y-52377D01*
X60530Y-52378D01*
X60530Y-52378D01*
G37*
G36*
X60530Y-71378D02*
X60528Y-71473D01*
X60509Y-71557D01*
X60476Y-71632D01*
X60426Y-71702D01*
X60366Y-71760D01*
X60294Y-71806D01*
X60216Y-71836D01*
X60132Y-71850D01*
X60049Y-71849D01*
X59965Y-71830D01*
X59889Y-71797D01*
X59819Y-71748D01*
X59761Y-71689D01*
X59715Y-71616D01*
X59684Y-71539D01*
X59669Y-71455D01*
X59670Y-71372D01*
X59688Y-71288D01*
X59720Y-71212D01*
X59769Y-71141D01*
X59828Y-71083D01*
X59900Y-71036D01*
X59977Y-71005D01*
X60061Y-70989D01*
X60144Y-70990D01*
X60228Y-71007D01*
X60304Y-71039D01*
X60376Y-71087D01*
X60434Y-71146D01*
X60481Y-71217D01*
X60482Y-71217D01*
X60513Y-71294D01*
X60513Y-71295D01*
X60530Y-71377D01*
X60530Y-71378D01*
X60530Y-71378D01*
G37*
G36*
X60800Y-59968D02*
X60539Y-59968D01*
X60539Y-59457D01*
X60800Y-59457D01*
X60800Y-59968D01*
X60800Y-59968D01*
G37*
G36*
X60800Y-62468D02*
X60539Y-62468D01*
X60539Y-61957D01*
X60800Y-61957D01*
X60800Y-62468D01*
X60800Y-62468D01*
G37*
G36*
X61300Y-59968D02*
X61039Y-59968D01*
X61039Y-59457D01*
X61300Y-59457D01*
X61300Y-59968D01*
X61300Y-59968D01*
G37*
G36*
X61300Y-62468D02*
X61039Y-62468D01*
X61039Y-61957D01*
X61300Y-61957D01*
X61300Y-62468D01*
X61300Y-62468D01*
G37*
G36*
X61530Y-52378D02*
X61528Y-52473D01*
X61509Y-52557D01*
X61476Y-52632D01*
X61426Y-52702D01*
X61366Y-52760D01*
X61294Y-52806D01*
X61216Y-52836D01*
X61132Y-52850D01*
X61049Y-52849D01*
X60965Y-52830D01*
X60889Y-52797D01*
X60819Y-52748D01*
X60761Y-52689D01*
X60715Y-52616D01*
X60684Y-52539D01*
X60669Y-52455D01*
X60670Y-52372D01*
X60688Y-52288D01*
X60720Y-52212D01*
X60769Y-52141D01*
X60828Y-52083D01*
X60900Y-52036D01*
X60977Y-52005D01*
X61061Y-51989D01*
X61144Y-51990D01*
X61228Y-52007D01*
X61304Y-52039D01*
X61376Y-52087D01*
X61434Y-52146D01*
X61481Y-52217D01*
X61482Y-52217D01*
X61513Y-52294D01*
X61513Y-52295D01*
X61530Y-52377D01*
X61530Y-52378D01*
X61530Y-52378D01*
G37*
G36*
X61530Y-71378D02*
X61528Y-71473D01*
X61509Y-71557D01*
X61476Y-71632D01*
X61426Y-71702D01*
X61366Y-71760D01*
X61294Y-71806D01*
X61216Y-71836D01*
X61132Y-71850D01*
X61049Y-71849D01*
X60965Y-71830D01*
X60889Y-71797D01*
X60819Y-71748D01*
X60761Y-71689D01*
X60715Y-71616D01*
X60684Y-71539D01*
X60669Y-71455D01*
X60670Y-71372D01*
X60688Y-71288D01*
X60720Y-71212D01*
X60769Y-71141D01*
X60828Y-71083D01*
X60900Y-71036D01*
X60977Y-71005D01*
X61061Y-70989D01*
X61144Y-70990D01*
X61228Y-71007D01*
X61304Y-71039D01*
X61376Y-71087D01*
X61434Y-71146D01*
X61481Y-71217D01*
X61482Y-71217D01*
X61513Y-71294D01*
X61513Y-71295D01*
X61530Y-71377D01*
X61530Y-71378D01*
X61530Y-71378D01*
G37*
G36*
X61800Y-59968D02*
X61539Y-59968D01*
X61539Y-59457D01*
X61800Y-59457D01*
X61800Y-59968D01*
X61800Y-59968D01*
G37*
G36*
X61800Y-62468D02*
X61539Y-62468D01*
X61539Y-61957D01*
X61800Y-61957D01*
X61800Y-62468D01*
X61800Y-62468D01*
G37*
G36*
X62300Y-59968D02*
X62039Y-59968D01*
X62039Y-59457D01*
X62300Y-59457D01*
X62300Y-59968D01*
X62300Y-59968D01*
G37*
G36*
X62300Y-62468D02*
X62039Y-62468D01*
X62039Y-61957D01*
X62300Y-61957D01*
X62300Y-62468D01*
X62300Y-62468D01*
G37*
G36*
X62485Y-53299D02*
X62267Y-54010D01*
X62072Y-54010D01*
X61854Y-53299D01*
X62485Y-53299D01*
X62485Y-53299D01*
G37*
G36*
X62485Y-54760D02*
X61854Y-54760D01*
X62072Y-54049D01*
X62267Y-54049D01*
X62485Y-54760D01*
X62485Y-54760D01*
G37*
G36*
X62530Y-52378D02*
X62528Y-52473D01*
X62509Y-52557D01*
X62476Y-52632D01*
X62426Y-52702D01*
X62366Y-52760D01*
X62294Y-52806D01*
X62216Y-52836D01*
X62132Y-52850D01*
X62049Y-52849D01*
X61965Y-52830D01*
X61889Y-52797D01*
X61819Y-52748D01*
X61761Y-52689D01*
X61715Y-52616D01*
X61684Y-52539D01*
X61669Y-52455D01*
X61670Y-52372D01*
X61688Y-52288D01*
X61720Y-52212D01*
X61769Y-52141D01*
X61828Y-52083D01*
X61900Y-52036D01*
X61977Y-52005D01*
X62061Y-51989D01*
X62144Y-51990D01*
X62228Y-52007D01*
X62304Y-52039D01*
X62376Y-52087D01*
X62434Y-52146D01*
X62481Y-52217D01*
X62482Y-52217D01*
X62513Y-52294D01*
X62513Y-52295D01*
X62530Y-52377D01*
X62530Y-52378D01*
X62530Y-52378D01*
G37*
G36*
X62530Y-71378D02*
X62528Y-71473D01*
X62509Y-71557D01*
X62476Y-71632D01*
X62426Y-71702D01*
X62366Y-71760D01*
X62294Y-71806D01*
X62216Y-71836D01*
X62132Y-71850D01*
X62049Y-71849D01*
X61965Y-71830D01*
X61889Y-71797D01*
X61819Y-71748D01*
X61761Y-71689D01*
X61715Y-71616D01*
X61684Y-71539D01*
X61669Y-71455D01*
X61670Y-71372D01*
X61688Y-71288D01*
X61720Y-71212D01*
X61769Y-71141D01*
X61828Y-71083D01*
X61900Y-71036D01*
X61977Y-71005D01*
X62061Y-70989D01*
X62144Y-70990D01*
X62228Y-71007D01*
X62304Y-71039D01*
X62376Y-71087D01*
X62434Y-71146D01*
X62481Y-71217D01*
X62482Y-71217D01*
X62513Y-71294D01*
X62513Y-71295D01*
X62530Y-71377D01*
X62530Y-71378D01*
X62530Y-71378D01*
G37*
G36*
X63295Y-60850D02*
X62684Y-60850D01*
X62684Y-60439D01*
X63295Y-60439D01*
X63295Y-60850D01*
X63295Y-60850D01*
G37*
G36*
X63295Y-61600D02*
X62684Y-61600D01*
X62684Y-61189D01*
X63295Y-61189D01*
X63295Y-61600D01*
X63295Y-61600D01*
G37*
G36*
X63755Y-58356D02*
X63753Y-58501D01*
X63724Y-58628D01*
X63672Y-58744D01*
X63597Y-58850D01*
X63505Y-58938D01*
X63396Y-59007D01*
X63277Y-59053D01*
X63149Y-59076D01*
X63022Y-59073D01*
X62895Y-59045D01*
X62779Y-58994D01*
X62672Y-58920D01*
X62584Y-58829D01*
X62514Y-58720D01*
X62467Y-58602D01*
X62443Y-58474D01*
X62445Y-58347D01*
X62472Y-58220D01*
X62522Y-58103D01*
X62596Y-57996D01*
X62686Y-57907D01*
X62795Y-57836D01*
X62913Y-57788D01*
X63041Y-57764D01*
X63167Y-57765D01*
X63295Y-57791D01*
X63412Y-57840D01*
X63520Y-57913D01*
X63609Y-58003D01*
X63681Y-58111D01*
X63681Y-58111D01*
X63729Y-58228D01*
X63755Y-58356D01*
X63755Y-58356D01*
G37*
G36*
X63755Y-69356D02*
X63753Y-69501D01*
X63724Y-69628D01*
X63672Y-69744D01*
X63597Y-69850D01*
X63505Y-69938D01*
X63396Y-70007D01*
X63277Y-70053D01*
X63149Y-70076D01*
X63022Y-70073D01*
X62895Y-70045D01*
X62779Y-69994D01*
X62672Y-69920D01*
X62584Y-69829D01*
X62514Y-69720D01*
X62467Y-69602D01*
X62443Y-69474D01*
X62445Y-69347D01*
X62472Y-69220D01*
X62522Y-69103D01*
X62596Y-68996D01*
X62686Y-68907D01*
X62795Y-68836D01*
X62913Y-68788D01*
X63041Y-68764D01*
X63167Y-68765D01*
X63295Y-68791D01*
X63412Y-68840D01*
X63520Y-68913D01*
X63609Y-69003D01*
X63681Y-69111D01*
X63681Y-69111D01*
X63729Y-69228D01*
X63755Y-69356D01*
X63755Y-69356D01*
G37*
G36*
X64040Y-53018D02*
X64038Y-53136D01*
X64015Y-53238D01*
X63973Y-53332D01*
X63912Y-53418D01*
X63838Y-53489D01*
X63749Y-53545D01*
X63653Y-53582D01*
X63550Y-53601D01*
X63447Y-53598D01*
X63344Y-53576D01*
X63250Y-53535D01*
X63164Y-53475D01*
X63093Y-53401D01*
X63035Y-53312D01*
X62998Y-53217D01*
X62979Y-53113D01*
X62980Y-53011D01*
X63002Y-52908D01*
X63042Y-52814D01*
X63102Y-52726D01*
X63175Y-52655D01*
X63264Y-52597D01*
X63358Y-52559D01*
X63462Y-52539D01*
X63564Y-52540D01*
X63668Y-52561D01*
X63762Y-52601D01*
X63850Y-52660D01*
X63922Y-52732D01*
X63980Y-52820D01*
X64019Y-52915D01*
X64019Y-52916D01*
X64040Y-53018D01*
X64040Y-53018D01*
X64040Y-53018D01*
G37*
G36*
X64640Y-55478D02*
X64638Y-55596D01*
X64615Y-55698D01*
X64573Y-55792D01*
X64512Y-55878D01*
X64438Y-55949D01*
X64349Y-56005D01*
X64253Y-56042D01*
X64150Y-56061D01*
X64047Y-56058D01*
X63944Y-56036D01*
X63850Y-55995D01*
X63764Y-55935D01*
X63693Y-55861D01*
X63635Y-55772D01*
X63598Y-55677D01*
X63579Y-55573D01*
X63580Y-55471D01*
X63602Y-55368D01*
X63642Y-55274D01*
X63702Y-55186D01*
X63775Y-55115D01*
X63864Y-55057D01*
X63958Y-55019D01*
X64062Y-54999D01*
X64164Y-55000D01*
X64268Y-55021D01*
X64362Y-55061D01*
X64450Y-55120D01*
X64522Y-55192D01*
X64580Y-55280D01*
X64619Y-55375D01*
X64619Y-55376D01*
X64640Y-55478D01*
X64640Y-55478D01*
X64640Y-55478D01*
G37*
G36*
X64930Y-58528D02*
X64929Y-58600D01*
X64914Y-58665D01*
X64888Y-58723D01*
X64850Y-58777D01*
X64804Y-58820D01*
X64748Y-58856D01*
X64689Y-58879D01*
X64624Y-58890D01*
X64561Y-58889D01*
X64496Y-58875D01*
X64438Y-58849D01*
X64384Y-58812D01*
X64340Y-58766D01*
X64304Y-58710D01*
X64281Y-58652D01*
X64269Y-58586D01*
X64270Y-58523D01*
X64284Y-58458D01*
X64308Y-58400D01*
X64346Y-58346D01*
X64391Y-58302D01*
X64447Y-58265D01*
X64505Y-58242D01*
X64570Y-58229D01*
X64633Y-58230D01*
X64698Y-58243D01*
X64756Y-58267D01*
X64812Y-58305D01*
X64856Y-58349D01*
X64892Y-58404D01*
X64893Y-58405D01*
X64917Y-58463D01*
X64930Y-58527D01*
X64930Y-58528D01*
X64930Y-58528D01*
G37*
G36*
X65920Y-55390D02*
X65699Y-55390D01*
X65699Y-54829D01*
X65920Y-54829D01*
X65920Y-55390D01*
X65920Y-55390D01*
G37*
G36*
X65920Y-57490D02*
X65699Y-57490D01*
X65699Y-56929D01*
X65920Y-56929D01*
X65920Y-57490D01*
X65920Y-57490D01*
G37*
G36*
X65930Y-58890D02*
X65269Y-58890D01*
X65269Y-58229D01*
X65930Y-58229D01*
X65930Y-58890D01*
X65930Y-58890D01*
G37*
G36*
X66170Y-55390D02*
X65949Y-55390D01*
X65949Y-54829D01*
X66170Y-54829D01*
X66170Y-55390D01*
X66170Y-55390D01*
G37*
G36*
X66170Y-57490D02*
X65949Y-57490D01*
X65949Y-56929D01*
X66170Y-56929D01*
X66170Y-57490D01*
X66170Y-57490D01*
G37*
G36*
X66240Y-50380D02*
X65479Y-50380D01*
X65479Y-49619D01*
X66240Y-49619D01*
X66240Y-50380D01*
X66240Y-50380D01*
G37*
G36*
X66430Y-55390D02*
X66209Y-55390D01*
X66209Y-54829D01*
X66430Y-54829D01*
X66430Y-55390D01*
X66430Y-55390D01*
G37*
G36*
X66430Y-57490D02*
X66209Y-57490D01*
X66209Y-56929D01*
X66430Y-56929D01*
X66430Y-57490D01*
X66430Y-57490D01*
G37*
G36*
X66680Y-55390D02*
X66459Y-55390D01*
X66459Y-54829D01*
X66680Y-54829D01*
X66680Y-55390D01*
X66680Y-55390D01*
G37*
G36*
X66680Y-57490D02*
X66459Y-57490D01*
X66459Y-56929D01*
X66680Y-56929D01*
X66680Y-57490D01*
X66680Y-57490D01*
G37*
G36*
X66940Y-55390D02*
X66719Y-55390D01*
X66719Y-54829D01*
X66940Y-54829D01*
X66940Y-55390D01*
X66940Y-55390D01*
G37*
G36*
X66940Y-57490D02*
X66719Y-57490D01*
X66719Y-56929D01*
X66940Y-56929D01*
X66940Y-57490D01*
X66940Y-57490D01*
G37*
G36*
X67061Y-59810D02*
X66350Y-59810D01*
X66350Y-58549D01*
X67061Y-58549D01*
X67061Y-59810D01*
X67061Y-59810D01*
G37*
G36*
X67200Y-55390D02*
X66979Y-55390D01*
X66979Y-54829D01*
X67200Y-54829D01*
X67200Y-55390D01*
X67200Y-55390D01*
G37*
G36*
X67200Y-57490D02*
X66979Y-57490D01*
X66979Y-56929D01*
X67200Y-56929D01*
X67200Y-57490D01*
X67200Y-57490D01*
G37*
G36*
X67240Y-49963D02*
X67238Y-50047D01*
X67222Y-50121D01*
X67192Y-50188D01*
X67148Y-50250D01*
X67095Y-50300D01*
X67031Y-50341D01*
X66963Y-50367D01*
X66888Y-50380D01*
X66815Y-50379D01*
X66741Y-50362D01*
X66674Y-50333D01*
X66611Y-50290D01*
X66561Y-50237D01*
X66519Y-50173D01*
X66493Y-50106D01*
X66479Y-50031D01*
X66480Y-49958D01*
X66496Y-49883D01*
X66524Y-49816D01*
X66567Y-49753D01*
X66619Y-49702D01*
X66683Y-49661D01*
X66751Y-49633D01*
X66826Y-49619D01*
X66899Y-49620D01*
X66973Y-49635D01*
X67040Y-49663D01*
X67104Y-49706D01*
X67155Y-49757D01*
X67197Y-49821D01*
X67225Y-49888D01*
X67240Y-49962D01*
X67240Y-49963D01*
X67240Y-49963D01*
G37*
G36*
X67367Y-48469D02*
X67365Y-48585D01*
X67342Y-48686D01*
X67301Y-48778D01*
X67241Y-48863D01*
X67168Y-48933D01*
X67080Y-48988D01*
X66986Y-49025D01*
X66884Y-49043D01*
X66783Y-49041D01*
X66682Y-49018D01*
X66589Y-48978D01*
X66504Y-48919D01*
X66434Y-48846D01*
X66377Y-48759D01*
X66340Y-48665D01*
X66322Y-48563D01*
X66323Y-48462D01*
X66345Y-48360D01*
X66384Y-48267D01*
X66443Y-48182D01*
X66515Y-48111D01*
X66602Y-48054D01*
X66695Y-48016D01*
X66798Y-47997D01*
X66898Y-47998D01*
X67001Y-48018D01*
X67093Y-48057D01*
X67180Y-48116D01*
X67251Y-48187D01*
X67308Y-48274D01*
X67347Y-48367D01*
X67367Y-48468D01*
X67367Y-48469D01*
X67367Y-48469D01*
G37*
G36*
X67450Y-55390D02*
X67229Y-55390D01*
X67229Y-54829D01*
X67450Y-54829D01*
X67450Y-55390D01*
X67450Y-55390D01*
G37*
G36*
X67450Y-57490D02*
X67229Y-57490D01*
X67229Y-56929D01*
X67450Y-56929D01*
X67450Y-57490D01*
X67450Y-57490D01*
G37*
G36*
X67710Y-55390D02*
X67489Y-55390D01*
X67489Y-54829D01*
X67710Y-54829D01*
X67710Y-55390D01*
X67710Y-55390D01*
G37*
G36*
X67710Y-57490D02*
X67489Y-57490D01*
X67489Y-56929D01*
X67710Y-56929D01*
X67710Y-57490D01*
X67710Y-57490D01*
G37*
G36*
X67970Y-55390D02*
X67749Y-55390D01*
X67749Y-54829D01*
X67970Y-54829D01*
X67970Y-55390D01*
X67970Y-55390D01*
G37*
G36*
X67970Y-57490D02*
X67749Y-57490D01*
X67749Y-56929D01*
X67970Y-56929D01*
X67970Y-57490D01*
X67970Y-57490D01*
G37*
G36*
X68220Y-55390D02*
X67999Y-55390D01*
X67999Y-54829D01*
X68220Y-54829D01*
X68220Y-55390D01*
X68220Y-55390D01*
G37*
G36*
X68220Y-57490D02*
X67999Y-57490D01*
X67999Y-56929D01*
X68220Y-56929D01*
X68220Y-57490D01*
X68220Y-57490D01*
G37*
G36*
X68240Y-49963D02*
X68238Y-50047D01*
X68222Y-50121D01*
X68192Y-50188D01*
X68148Y-50250D01*
X68095Y-50300D01*
X68031Y-50341D01*
X67963Y-50367D01*
X67888Y-50380D01*
X67815Y-50379D01*
X67741Y-50362D01*
X67674Y-50333D01*
X67611Y-50290D01*
X67561Y-50237D01*
X67519Y-50173D01*
X67493Y-50106D01*
X67479Y-50031D01*
X67480Y-49958D01*
X67496Y-49883D01*
X67524Y-49816D01*
X67567Y-49753D01*
X67619Y-49702D01*
X67683Y-49661D01*
X67751Y-49633D01*
X67826Y-49619D01*
X67899Y-49620D01*
X67973Y-49635D01*
X68040Y-49663D01*
X68104Y-49706D01*
X68155Y-49757D01*
X68197Y-49821D01*
X68225Y-49888D01*
X68240Y-49962D01*
X68240Y-49963D01*
X68240Y-49963D01*
G37*
G36*
X68861Y-59810D02*
X68150Y-59810D01*
X68150Y-58549D01*
X68861Y-58549D01*
X68861Y-59810D01*
X68861Y-59810D01*
G37*
G36*
X69195Y-68795D02*
X68784Y-68795D01*
X68784Y-68184D01*
X69195Y-68184D01*
X69195Y-68795D01*
X69195Y-68795D01*
G37*
G36*
X69945Y-68795D02*
X69534Y-68795D01*
X69534Y-68184D01*
X69945Y-68184D01*
X69945Y-68795D01*
X69945Y-68795D01*
G37*
G36*
X70647Y-55052D02*
X69786Y-55052D01*
X69786Y-54391D01*
X70647Y-54391D01*
X70647Y-55052D01*
X70647Y-55052D01*
G37*
G36*
X70647Y-56352D02*
X69786Y-56352D01*
X69786Y-55691D01*
X70647Y-55691D01*
X70647Y-56352D01*
X70647Y-56352D01*
G37*
G36*
X71034Y-60311D02*
X70904Y-60312D01*
X70900Y-60313D01*
X70897Y-60316D01*
X70896Y-60320D01*
X70893Y-63888D01*
X64042Y-63893D01*
X64048Y-60331D01*
X70887Y-60311D01*
X70888Y-60311D01*
X70895Y-60311D01*
X70898Y-60311D01*
X70904Y-60311D01*
X70904Y-60311D01*
X70907Y-60311D01*
X71034Y-60311D01*
X71034Y-60311D01*
G37*
G36*
X71056Y-67805D02*
X70483Y-67805D01*
X70483Y-67154D01*
X71056Y-67154D01*
X71056Y-67805D01*
X71056Y-67805D01*
G37*
G36*
X71056Y-68805D02*
X70483Y-68805D01*
X70483Y-68154D01*
X71056Y-68154D01*
X71056Y-68805D01*
X71056Y-68805D01*
G37*
G36*
X71195Y-71933D02*
X71193Y-72051D01*
X71170Y-72153D01*
X71128Y-72247D01*
X71067Y-72333D01*
X70993Y-72404D01*
X70904Y-72460D01*
X70808Y-72497D01*
X70705Y-72516D01*
X70602Y-72513D01*
X70499Y-72491D01*
X70405Y-72450D01*
X70319Y-72390D01*
X70248Y-72316D01*
X70190Y-72227D01*
X70153Y-72132D01*
X70134Y-72028D01*
X70135Y-71926D01*
X70157Y-71823D01*
X70197Y-71729D01*
X70257Y-71641D01*
X70330Y-71570D01*
X70419Y-71512D01*
X70513Y-71474D01*
X70617Y-71454D01*
X70719Y-71455D01*
X70823Y-71476D01*
X70917Y-71516D01*
X71005Y-71575D01*
X71077Y-71647D01*
X71135Y-71735D01*
X71174Y-71830D01*
X71174Y-71831D01*
X71195Y-71933D01*
X71195Y-71933D01*
X71195Y-71933D01*
G37*
G36*
X71450Y-61415D02*
X71039Y-61415D01*
X71039Y-60804D01*
X71450Y-60804D01*
X71450Y-61415D01*
X71450Y-61415D01*
G37*
G36*
X71675Y-50340D02*
X70914Y-50340D01*
X70914Y-49579D01*
X71675Y-49579D01*
X71675Y-50340D01*
X71675Y-50340D01*
G37*
G36*
X71705Y-63160D02*
X71044Y-63160D01*
X71044Y-62299D01*
X71705Y-62299D01*
X71705Y-63160D01*
X71705Y-63160D01*
G37*
G36*
X71824Y-59695D02*
X71822Y-59813D01*
X71799Y-59915D01*
X71757Y-60009D01*
X71696Y-60095D01*
X71622Y-60166D01*
X71533Y-60222D01*
X71437Y-60259D01*
X71334Y-60278D01*
X71231Y-60275D01*
X71128Y-60253D01*
X71034Y-60212D01*
X70948Y-60152D01*
X70877Y-60078D01*
X70819Y-59989D01*
X70782Y-59894D01*
X70763Y-59790D01*
X70764Y-59688D01*
X70786Y-59585D01*
X70826Y-59491D01*
X70886Y-59403D01*
X70959Y-59332D01*
X71048Y-59274D01*
X71142Y-59236D01*
X71246Y-59216D01*
X71348Y-59217D01*
X71452Y-59238D01*
X71546Y-59278D01*
X71634Y-59337D01*
X71706Y-59409D01*
X71764Y-59497D01*
X71803Y-59592D01*
X71803Y-59593D01*
X71824Y-59695D01*
X71824Y-59695D01*
X71824Y-59695D01*
G37*
G36*
X71973Y-55814D02*
X71463Y-55814D01*
X71463Y-55554D01*
X71973Y-55554D01*
X71973Y-55814D01*
X71973Y-55814D01*
G37*
G36*
X71973Y-56314D02*
X71463Y-56314D01*
X71463Y-56054D01*
X71973Y-56054D01*
X71973Y-56314D01*
X71973Y-56314D01*
G37*
G36*
X71973Y-56814D02*
X71463Y-56814D01*
X71463Y-56554D01*
X71973Y-56554D01*
X71973Y-56814D01*
X71973Y-56814D01*
G37*
G36*
X71973Y-57314D02*
X71463Y-57314D01*
X71463Y-57054D01*
X71973Y-57054D01*
X71973Y-57314D01*
X71973Y-57314D01*
G37*
G36*
X71973Y-57814D02*
X71463Y-57814D01*
X71463Y-57554D01*
X71973Y-57554D01*
X71973Y-57814D01*
X71973Y-57814D01*
G37*
G36*
X71973Y-58314D02*
X71463Y-58314D01*
X71463Y-58054D01*
X71973Y-58054D01*
X71973Y-58314D01*
X71973Y-58314D01*
G37*
G36*
X71973Y-58814D02*
X71463Y-58814D01*
X71463Y-58554D01*
X71973Y-58554D01*
X71973Y-58814D01*
X71973Y-58814D01*
G37*
G36*
X72200Y-61415D02*
X71789Y-61415D01*
X71789Y-60804D01*
X72200Y-60804D01*
X72200Y-61415D01*
X72200Y-61415D01*
G37*
G36*
X72496Y-55082D02*
X71835Y-55082D01*
X71835Y-54221D01*
X72496Y-54221D01*
X72496Y-55082D01*
X72496Y-55082D01*
G37*
G36*
X72675Y-49923D02*
X72673Y-50007D01*
X72657Y-50081D01*
X72627Y-50148D01*
X72583Y-50210D01*
X72530Y-50260D01*
X72466Y-50301D01*
X72398Y-50327D01*
X72323Y-50340D01*
X72250Y-50339D01*
X72176Y-50322D01*
X72109Y-50293D01*
X72046Y-50250D01*
X71996Y-50197D01*
X71954Y-50133D01*
X71928Y-50066D01*
X71914Y-49991D01*
X71915Y-49918D01*
X71931Y-49843D01*
X71959Y-49776D01*
X72002Y-49713D01*
X72054Y-49662D01*
X72118Y-49621D01*
X72186Y-49593D01*
X72261Y-49579D01*
X72334Y-49580D01*
X72408Y-49595D01*
X72475Y-49623D01*
X72539Y-49666D01*
X72590Y-49717D01*
X72632Y-49781D01*
X72660Y-49848D01*
X72675Y-49922D01*
X72675Y-49923D01*
X72675Y-49923D01*
G37*
G36*
X72710Y-71780D02*
X72299Y-71780D01*
X72299Y-71169D01*
X72710Y-71169D01*
X72710Y-71780D01*
X72710Y-71780D01*
G37*
G36*
X72735Y-70735D02*
X72324Y-70735D01*
X72324Y-70124D01*
X72735Y-70124D01*
X72735Y-70735D01*
X72735Y-70735D01*
G37*
G36*
X72837Y-48469D02*
X72835Y-48585D01*
X72812Y-48686D01*
X72771Y-48778D01*
X72711Y-48863D01*
X72638Y-48933D01*
X72550Y-48988D01*
X72456Y-49025D01*
X72354Y-49043D01*
X72253Y-49041D01*
X72152Y-49018D01*
X72059Y-48978D01*
X71974Y-48919D01*
X71904Y-48846D01*
X71847Y-48759D01*
X71810Y-48665D01*
X71792Y-48563D01*
X71793Y-48462D01*
X71815Y-48360D01*
X71854Y-48267D01*
X71913Y-48182D01*
X71985Y-48111D01*
X72072Y-48054D01*
X72165Y-48016D01*
X72268Y-47997D01*
X72368Y-47998D01*
X72471Y-48018D01*
X72563Y-48057D01*
X72650Y-48116D01*
X72721Y-48187D01*
X72778Y-48274D01*
X72817Y-48367D01*
X72837Y-48468D01*
X72837Y-48469D01*
X72837Y-48469D01*
G37*
G36*
X73005Y-63160D02*
X72344Y-63160D01*
X72344Y-62299D01*
X73005Y-62299D01*
X73005Y-63160D01*
X73005Y-63160D01*
G37*
G36*
X73460Y-71780D02*
X73049Y-71780D01*
X73049Y-71169D01*
X73460Y-71169D01*
X73460Y-71780D01*
X73460Y-71780D01*
G37*
G36*
X73472Y-69857D02*
X73097Y-69857D01*
X73097Y-69482D01*
X73472Y-69482D01*
X73472Y-69857D01*
X73472Y-69857D01*
G37*
G36*
X73485Y-70735D02*
X73074Y-70735D01*
X73074Y-70124D01*
X73485Y-70124D01*
X73485Y-70735D01*
X73485Y-70735D01*
G37*
G36*
X73675Y-49923D02*
X73673Y-50007D01*
X73657Y-50081D01*
X73627Y-50148D01*
X73583Y-50210D01*
X73530Y-50260D01*
X73466Y-50301D01*
X73398Y-50327D01*
X73323Y-50340D01*
X73250Y-50339D01*
X73176Y-50322D01*
X73109Y-50293D01*
X73046Y-50250D01*
X72996Y-50197D01*
X72954Y-50133D01*
X72928Y-50066D01*
X72914Y-49991D01*
X72915Y-49918D01*
X72931Y-49843D01*
X72959Y-49776D01*
X73002Y-49713D01*
X73054Y-49662D01*
X73118Y-49621D01*
X73186Y-49593D01*
X73261Y-49579D01*
X73334Y-49580D01*
X73408Y-49595D01*
X73475Y-49623D01*
X73539Y-49666D01*
X73590Y-49717D01*
X73632Y-49781D01*
X73660Y-49848D01*
X73675Y-49922D01*
X73675Y-49923D01*
X73675Y-49923D01*
G37*
G36*
X73796Y-55082D02*
X73135Y-55082D01*
X73135Y-54221D01*
X73796Y-54221D01*
X73796Y-55082D01*
X73796Y-55082D01*
G37*
G36*
X74062Y-69857D02*
X73687Y-69857D01*
X73687Y-69482D01*
X74062Y-69482D01*
X74062Y-69857D01*
X74062Y-69857D01*
G37*
G36*
X74073Y-55814D02*
X73563Y-55814D01*
X73563Y-55554D01*
X74073Y-55554D01*
X74073Y-55814D01*
X74073Y-55814D01*
G37*
G36*
X74073Y-56314D02*
X73563Y-56314D01*
X73563Y-56054D01*
X74073Y-56054D01*
X74073Y-56314D01*
X74073Y-56314D01*
G37*
G36*
X74073Y-56814D02*
X73563Y-56814D01*
X73563Y-56554D01*
X74073Y-56554D01*
X74073Y-56814D01*
X74073Y-56814D01*
G37*
G36*
X74073Y-57314D02*
X73563Y-57314D01*
X73563Y-57054D01*
X74073Y-57054D01*
X74073Y-57314D01*
X74073Y-57314D01*
G37*
G36*
X74073Y-57814D02*
X73563Y-57814D01*
X73563Y-57554D01*
X74073Y-57554D01*
X74073Y-57814D01*
X74073Y-57814D01*
G37*
G36*
X74073Y-58314D02*
X73563Y-58314D01*
X73563Y-58054D01*
X74073Y-58054D01*
X74073Y-58314D01*
X74073Y-58314D01*
G37*
G36*
X74073Y-58814D02*
X73563Y-58814D01*
X73563Y-58554D01*
X74073Y-58554D01*
X74073Y-58814D01*
X74073Y-58814D01*
G37*
G36*
X74580Y-66705D02*
X74169Y-66705D01*
X74169Y-66094D01*
X74580Y-66094D01*
X74580Y-66705D01*
X74580Y-66705D01*
G37*
G36*
X74606Y-67805D02*
X74033Y-67805D01*
X74033Y-67154D01*
X74606Y-67154D01*
X74606Y-67805D01*
X74606Y-67805D01*
G37*
G36*
X74606Y-68805D02*
X74033Y-68805D01*
X74033Y-68154D01*
X74606Y-68154D01*
X74606Y-68805D01*
X74606Y-68805D01*
G37*
G36*
X74625Y-71460D02*
X74204Y-71460D01*
X74204Y-71039D01*
X74625Y-71039D01*
X74625Y-71460D01*
X74625Y-71460D01*
G37*
G36*
X74855Y-64788D02*
X74853Y-64906D01*
X74830Y-65008D01*
X74788Y-65102D01*
X74727Y-65188D01*
X74653Y-65259D01*
X74564Y-65315D01*
X74468Y-65352D01*
X74365Y-65371D01*
X74262Y-65368D01*
X74159Y-65346D01*
X74065Y-65305D01*
X73979Y-65245D01*
X73908Y-65171D01*
X73850Y-65082D01*
X73813Y-64987D01*
X73794Y-64883D01*
X73795Y-64781D01*
X73817Y-64678D01*
X73857Y-64584D01*
X73917Y-64496D01*
X73990Y-64425D01*
X74079Y-64367D01*
X74173Y-64329D01*
X74277Y-64309D01*
X74379Y-64310D01*
X74483Y-64331D01*
X74577Y-64371D01*
X74665Y-64430D01*
X74737Y-64502D01*
X74795Y-64590D01*
X74834Y-64685D01*
X74834Y-64686D01*
X74855Y-64788D01*
X74855Y-64788D01*
X74855Y-64788D01*
G37*
G36*
X74975Y-72260D02*
X74554Y-72260D01*
X74554Y-71839D01*
X74975Y-71839D01*
X74975Y-72260D01*
X74975Y-72260D01*
G37*
G36*
X75099Y-55202D02*
X74488Y-55202D01*
X74488Y-54791D01*
X75099Y-54791D01*
X75099Y-55202D01*
X75099Y-55202D01*
G37*
G36*
X75099Y-55952D02*
X74488Y-55952D01*
X74488Y-55541D01*
X75099Y-55541D01*
X75099Y-55952D01*
X75099Y-55952D01*
G37*
G36*
X75141Y-58436D02*
X74530Y-58436D01*
X74530Y-58025D01*
X75141Y-58025D01*
X75141Y-58436D01*
X75141Y-58436D01*
G37*
G36*
X75141Y-59186D02*
X74530Y-59186D01*
X74530Y-58775D01*
X75141Y-58775D01*
X75141Y-59186D01*
X75141Y-59186D01*
G37*
G36*
X75280Y-69900D02*
X74669Y-69900D01*
X74669Y-69489D01*
X75280Y-69489D01*
X75280Y-69900D01*
X75280Y-69900D01*
G37*
G36*
X75280Y-70650D02*
X74669Y-70650D01*
X74669Y-70239D01*
X75280Y-70239D01*
X75280Y-70650D01*
X75280Y-70650D01*
G37*
G36*
X75325Y-71460D02*
X74904Y-71460D01*
X74904Y-71039D01*
X75325Y-71039D01*
X75325Y-71460D01*
X75325Y-71460D01*
G37*
G36*
X75330Y-66705D02*
X74919Y-66705D01*
X74919Y-66094D01*
X75330Y-66094D01*
X75330Y-66705D01*
X75330Y-66705D01*
G37*
G36*
X76120Y-66715D02*
X75709Y-66715D01*
X75709Y-66104D01*
X76120Y-66104D01*
X76120Y-66715D01*
X76120Y-66715D01*
G37*
G36*
X76320Y-50158D02*
X76318Y-50276D01*
X76295Y-50378D01*
X76253Y-50472D01*
X76192Y-50558D01*
X76118Y-50629D01*
X76029Y-50685D01*
X75933Y-50722D01*
X75830Y-50741D01*
X75727Y-50738D01*
X75624Y-50716D01*
X75530Y-50675D01*
X75444Y-50615D01*
X75373Y-50541D01*
X75315Y-50452D01*
X75278Y-50357D01*
X75259Y-50253D01*
X75260Y-50151D01*
X75282Y-50048D01*
X75322Y-49954D01*
X75382Y-49866D01*
X75455Y-49795D01*
X75544Y-49737D01*
X75638Y-49699D01*
X75742Y-49679D01*
X75844Y-49680D01*
X75948Y-49701D01*
X76042Y-49741D01*
X76130Y-49800D01*
X76202Y-49872D01*
X76260Y-49960D01*
X76299Y-50055D01*
X76299Y-50056D01*
X76320Y-50158D01*
X76320Y-50158D01*
X76320Y-50158D01*
G37*
G36*
X76870Y-66715D02*
X76459Y-66715D01*
X76459Y-66104D01*
X76870Y-66104D01*
X76870Y-66715D01*
X76870Y-66715D01*
G37*
G36*
X76984Y-68327D02*
X76255Y-68327D01*
X76255Y-67282D01*
X76984Y-67282D01*
X76984Y-68327D01*
X76984Y-68327D01*
G37*
G36*
X76984Y-69927D02*
X76255Y-69927D01*
X76255Y-68882D01*
X76984Y-68882D01*
X76984Y-69927D01*
X76984Y-69927D01*
G37*
G36*
X78635Y-53633D02*
X78633Y-53717D01*
X78617Y-53791D01*
X78587Y-53858D01*
X78543Y-53920D01*
X78490Y-53970D01*
X78426Y-54011D01*
X78358Y-54037D01*
X78283Y-54050D01*
X78210Y-54049D01*
X78136Y-54032D01*
X78069Y-54003D01*
X78006Y-53960D01*
X77956Y-53907D01*
X77914Y-53843D01*
X77888Y-53776D01*
X77874Y-53701D01*
X77875Y-53628D01*
X77891Y-53553D01*
X77919Y-53486D01*
X77962Y-53423D01*
X78014Y-53372D01*
X78078Y-53331D01*
X78146Y-53303D01*
X78221Y-53289D01*
X78294Y-53290D01*
X78368Y-53305D01*
X78435Y-53333D01*
X78499Y-53376D01*
X78550Y-53427D01*
X78592Y-53491D01*
X78620Y-53558D01*
X78635Y-53632D01*
X78635Y-53633D01*
X78635Y-53633D01*
G37*
G36*
X78892Y-57052D02*
X78891Y-57124D01*
X78876Y-57189D01*
X78850Y-57247D01*
X78812Y-57301D01*
X78766Y-57344D01*
X78710Y-57380D01*
X78651Y-57403D01*
X78586Y-57414D01*
X78523Y-57413D01*
X78458Y-57399D01*
X78400Y-57373D01*
X78346Y-57336D01*
X78302Y-57290D01*
X78266Y-57234D01*
X78243Y-57176D01*
X78231Y-57110D01*
X78232Y-57047D01*
X78246Y-56982D01*
X78270Y-56924D01*
X78308Y-56870D01*
X78353Y-56826D01*
X78409Y-56789D01*
X78467Y-56766D01*
X78532Y-56753D01*
X78595Y-56754D01*
X78660Y-56767D01*
X78718Y-56791D01*
X78774Y-56829D01*
X78818Y-56873D01*
X78854Y-56928D01*
X78855Y-56929D01*
X78879Y-56987D01*
X78892Y-57051D01*
X78892Y-57052D01*
X78892Y-57052D01*
G37*
G36*
X78892Y-58052D02*
X78891Y-58124D01*
X78876Y-58189D01*
X78850Y-58247D01*
X78812Y-58301D01*
X78766Y-58344D01*
X78710Y-58380D01*
X78651Y-58403D01*
X78586Y-58414D01*
X78523Y-58413D01*
X78458Y-58399D01*
X78400Y-58373D01*
X78346Y-58336D01*
X78302Y-58290D01*
X78266Y-58234D01*
X78243Y-58176D01*
X78231Y-58110D01*
X78232Y-58047D01*
X78246Y-57982D01*
X78270Y-57924D01*
X78308Y-57870D01*
X78353Y-57826D01*
X78409Y-57789D01*
X78467Y-57766D01*
X78532Y-57753D01*
X78595Y-57754D01*
X78660Y-57767D01*
X78718Y-57791D01*
X78774Y-57829D01*
X78818Y-57873D01*
X78854Y-57928D01*
X78855Y-57929D01*
X78879Y-57987D01*
X78892Y-58051D01*
X78892Y-58052D01*
X78892Y-58052D01*
G37*
G36*
X78892Y-56414D02*
X78231Y-56414D01*
X78231Y-55753D01*
X78892Y-55753D01*
X78892Y-56414D01*
X78892Y-56414D01*
G37*
G36*
X79165Y-60630D02*
X78454Y-60630D01*
X78454Y-59369D01*
X79165Y-59369D01*
X79165Y-60630D01*
X79165Y-60630D01*
G37*
G36*
X79310Y-50178D02*
X79308Y-50296D01*
X79285Y-50398D01*
X79243Y-50492D01*
X79182Y-50578D01*
X79108Y-50649D01*
X79019Y-50705D01*
X78923Y-50742D01*
X78820Y-50761D01*
X78717Y-50758D01*
X78614Y-50736D01*
X78520Y-50695D01*
X78434Y-50635D01*
X78363Y-50561D01*
X78305Y-50472D01*
X78268Y-50377D01*
X78249Y-50273D01*
X78250Y-50171D01*
X78272Y-50068D01*
X78312Y-49974D01*
X78372Y-49886D01*
X78445Y-49815D01*
X78534Y-49757D01*
X78628Y-49719D01*
X78732Y-49699D01*
X78834Y-49700D01*
X78938Y-49721D01*
X79032Y-49761D01*
X79120Y-49820D01*
X79192Y-49892D01*
X79250Y-49980D01*
X79289Y-50075D01*
X79289Y-50076D01*
X79310Y-50178D01*
X79310Y-50178D01*
X79310Y-50178D01*
G37*
G36*
X79635Y-53633D02*
X79633Y-53717D01*
X79617Y-53791D01*
X79587Y-53858D01*
X79543Y-53920D01*
X79490Y-53970D01*
X79426Y-54011D01*
X79358Y-54037D01*
X79283Y-54050D01*
X79210Y-54049D01*
X79136Y-54032D01*
X79069Y-54003D01*
X79006Y-53960D01*
X78956Y-53907D01*
X78914Y-53843D01*
X78888Y-53776D01*
X78874Y-53701D01*
X78875Y-53628D01*
X78891Y-53553D01*
X78919Y-53486D01*
X78962Y-53423D01*
X79014Y-53372D01*
X79078Y-53331D01*
X79146Y-53303D01*
X79221Y-53289D01*
X79294Y-53290D01*
X79368Y-53305D01*
X79435Y-53333D01*
X79499Y-53376D01*
X79550Y-53427D01*
X79592Y-53491D01*
X79620Y-53558D01*
X79635Y-53632D01*
X79635Y-53633D01*
X79635Y-53633D01*
G37*
G36*
X79730Y-68896D02*
X79728Y-68985D01*
X79710Y-69064D01*
X79679Y-69135D01*
X79632Y-69201D01*
X79576Y-69255D01*
X79507Y-69298D01*
X79435Y-69326D01*
X79355Y-69340D01*
X79277Y-69339D01*
X79198Y-69321D01*
X79127Y-69290D01*
X79060Y-69244D01*
X79006Y-69188D01*
X78962Y-69120D01*
X78933Y-69047D01*
X78919Y-68968D01*
X78920Y-68890D01*
X78937Y-68811D01*
X78967Y-68739D01*
X79013Y-68672D01*
X79069Y-68618D01*
X79137Y-68573D01*
X79209Y-68544D01*
X79289Y-68529D01*
X79366Y-68530D01*
X79446Y-68546D01*
X79517Y-68576D01*
X79585Y-68621D01*
X79639Y-68676D01*
X79684Y-68743D01*
X79684Y-68744D01*
X79714Y-68816D01*
X79730Y-68895D01*
X79730Y-68896D01*
X79730Y-68896D01*
G37*
G36*
X79892Y-56052D02*
X79891Y-56124D01*
X79876Y-56189D01*
X79850Y-56247D01*
X79812Y-56301D01*
X79766Y-56344D01*
X79710Y-56380D01*
X79651Y-56403D01*
X79586Y-56414D01*
X79523Y-56413D01*
X79458Y-56399D01*
X79400Y-56373D01*
X79346Y-56336D01*
X79302Y-56290D01*
X79266Y-56234D01*
X79243Y-56176D01*
X79231Y-56110D01*
X79232Y-56047D01*
X79246Y-55982D01*
X79270Y-55924D01*
X79308Y-55870D01*
X79353Y-55826D01*
X79409Y-55789D01*
X79467Y-55766D01*
X79532Y-55753D01*
X79595Y-55754D01*
X79660Y-55767D01*
X79718Y-55791D01*
X79774Y-55829D01*
X79818Y-55873D01*
X79854Y-55928D01*
X79855Y-55929D01*
X79879Y-55987D01*
X79892Y-56051D01*
X79892Y-56052D01*
X79892Y-56052D01*
G37*
G36*
X79892Y-57052D02*
X79891Y-57124D01*
X79876Y-57189D01*
X79850Y-57247D01*
X79812Y-57301D01*
X79766Y-57344D01*
X79710Y-57380D01*
X79651Y-57403D01*
X79586Y-57414D01*
X79523Y-57413D01*
X79458Y-57399D01*
X79400Y-57373D01*
X79346Y-57336D01*
X79302Y-57290D01*
X79266Y-57234D01*
X79243Y-57176D01*
X79231Y-57110D01*
X79232Y-57047D01*
X79246Y-56982D01*
X79270Y-56924D01*
X79308Y-56870D01*
X79353Y-56826D01*
X79409Y-56789D01*
X79467Y-56766D01*
X79532Y-56753D01*
X79595Y-56754D01*
X79660Y-56767D01*
X79718Y-56791D01*
X79774Y-56829D01*
X79818Y-56873D01*
X79854Y-56928D01*
X79855Y-56929D01*
X79879Y-56987D01*
X79892Y-57051D01*
X79892Y-57052D01*
X79892Y-57052D01*
G37*
G36*
X79892Y-58052D02*
X79891Y-58124D01*
X79876Y-58189D01*
X79850Y-58247D01*
X79812Y-58301D01*
X79766Y-58344D01*
X79710Y-58380D01*
X79651Y-58403D01*
X79586Y-58414D01*
X79523Y-58413D01*
X79458Y-58399D01*
X79400Y-58373D01*
X79346Y-58336D01*
X79302Y-58290D01*
X79266Y-58234D01*
X79243Y-58176D01*
X79231Y-58110D01*
X79232Y-58047D01*
X79246Y-57982D01*
X79270Y-57924D01*
X79308Y-57870D01*
X79353Y-57826D01*
X79409Y-57789D01*
X79467Y-57766D01*
X79532Y-57753D01*
X79595Y-57754D01*
X79660Y-57767D01*
X79718Y-57791D01*
X79774Y-57829D01*
X79818Y-57873D01*
X79854Y-57928D01*
X79855Y-57929D01*
X79879Y-57987D01*
X79892Y-58051D01*
X79892Y-58052D01*
X79892Y-58052D01*
G37*
G36*
X80530Y-66546D02*
X80528Y-66635D01*
X80510Y-66714D01*
X80479Y-66785D01*
X80432Y-66851D01*
X80376Y-66905D01*
X80307Y-66948D01*
X80235Y-66976D01*
X80155Y-66990D01*
X80077Y-66989D01*
X79998Y-66971D01*
X79927Y-66940D01*
X79860Y-66894D01*
X79806Y-66838D01*
X79762Y-66770D01*
X79733Y-66697D01*
X79719Y-66618D01*
X79720Y-66540D01*
X79737Y-66461D01*
X79767Y-66389D01*
X79813Y-66322D01*
X79869Y-66268D01*
X79937Y-66223D01*
X80009Y-66194D01*
X80089Y-66179D01*
X80166Y-66180D01*
X80246Y-66196D01*
X80317Y-66226D01*
X80385Y-66271D01*
X80439Y-66326D01*
X80484Y-66393D01*
X80484Y-66394D01*
X80514Y-66466D01*
X80530Y-66545D01*
X80530Y-66546D01*
X80530Y-66546D01*
G37*
G36*
X80530Y-71296D02*
X80528Y-71385D01*
X80510Y-71464D01*
X80479Y-71535D01*
X80432Y-71601D01*
X80376Y-71655D01*
X80307Y-71698D01*
X80235Y-71726D01*
X80155Y-71740D01*
X80077Y-71739D01*
X79998Y-71721D01*
X79927Y-71690D01*
X79860Y-71644D01*
X79806Y-71588D01*
X79762Y-71520D01*
X79733Y-71447D01*
X79719Y-71368D01*
X79720Y-71290D01*
X79737Y-71211D01*
X79767Y-71139D01*
X79813Y-71072D01*
X79869Y-71018D01*
X79937Y-70973D01*
X80009Y-70944D01*
X80089Y-70929D01*
X80166Y-70930D01*
X80246Y-70946D01*
X80317Y-70976D01*
X80385Y-71021D01*
X80439Y-71076D01*
X80484Y-71143D01*
X80484Y-71144D01*
X80514Y-71216D01*
X80530Y-71295D01*
X80530Y-71296D01*
X80530Y-71296D01*
G37*
G36*
X80635Y-54050D02*
X79874Y-54050D01*
X79874Y-53289D01*
X80635Y-53289D01*
X80635Y-54050D01*
X80635Y-54050D01*
G37*
G36*
X80756Y-56401D02*
X80345Y-56401D01*
X80345Y-55790D01*
X80756Y-55790D01*
X80756Y-56401D01*
X80756Y-56401D01*
G37*
G36*
X80786Y-57361D02*
X80375Y-57361D01*
X80375Y-56750D01*
X80786Y-56750D01*
X80786Y-57361D01*
X80786Y-57361D01*
G37*
G36*
X80796Y-58361D02*
X80385Y-58361D01*
X80385Y-57750D01*
X80796Y-57750D01*
X80796Y-58361D01*
X80796Y-58361D01*
G37*
G36*
X80965Y-60630D02*
X80254Y-60630D01*
X80254Y-59369D01*
X80965Y-59369D01*
X80965Y-60630D01*
X80965Y-60630D01*
G37*
G36*
X81506Y-56401D02*
X81095Y-56401D01*
X81095Y-55790D01*
X81506Y-55790D01*
X81506Y-56401D01*
X81506Y-56401D01*
G37*
G36*
X81536Y-57361D02*
X81125Y-57361D01*
X81125Y-56750D01*
X81536Y-56750D01*
X81536Y-57361D01*
X81536Y-57361D01*
G37*
G36*
X81546Y-58361D02*
X81135Y-58361D01*
X81135Y-57750D01*
X81546Y-57750D01*
X81546Y-58361D01*
X81546Y-58361D01*
G37*
G36*
X82910Y-55643D02*
X82908Y-55761D01*
X82885Y-55863D01*
X82843Y-55957D01*
X82782Y-56043D01*
X82708Y-56114D01*
X82619Y-56170D01*
X82523Y-56207D01*
X82420Y-56226D01*
X82317Y-56223D01*
X82214Y-56201D01*
X82120Y-56160D01*
X82034Y-56100D01*
X81963Y-56026D01*
X81905Y-55937D01*
X81868Y-55842D01*
X81849Y-55738D01*
X81850Y-55636D01*
X81872Y-55533D01*
X81912Y-55439D01*
X81972Y-55351D01*
X82045Y-55280D01*
X82134Y-55222D01*
X82228Y-55184D01*
X82332Y-55164D01*
X82434Y-55165D01*
X82538Y-55186D01*
X82632Y-55226D01*
X82720Y-55285D01*
X82792Y-55357D01*
X82850Y-55445D01*
X82889Y-55540D01*
X82889Y-55541D01*
X82910Y-55643D01*
X82910Y-55643D01*
X82910Y-55643D01*
G37*
G36*
X83010Y-57355D02*
X82599Y-57355D01*
X82599Y-56744D01*
X83010Y-56744D01*
X83010Y-57355D01*
X83010Y-57355D01*
G37*
G36*
X83440Y-53683D02*
X83438Y-53767D01*
X83422Y-53841D01*
X83392Y-53908D01*
X83348Y-53970D01*
X83295Y-54020D01*
X83231Y-54061D01*
X83163Y-54087D01*
X83088Y-54100D01*
X83015Y-54099D01*
X82941Y-54082D01*
X82874Y-54053D01*
X82811Y-54010D01*
X82761Y-53957D01*
X82719Y-53893D01*
X82693Y-53826D01*
X82679Y-53751D01*
X82680Y-53678D01*
X82696Y-53603D01*
X82724Y-53536D01*
X82767Y-53473D01*
X82819Y-53422D01*
X82883Y-53381D01*
X82951Y-53353D01*
X83026Y-53339D01*
X83099Y-53340D01*
X83173Y-53355D01*
X83240Y-53383D01*
X83304Y-53426D01*
X83355Y-53477D01*
X83397Y-53541D01*
X83425Y-53608D01*
X83440Y-53682D01*
X83440Y-53683D01*
X83440Y-53683D01*
G37*
G36*
X83450Y-49798D02*
X83448Y-49916D01*
X83425Y-50018D01*
X83383Y-50112D01*
X83322Y-50198D01*
X83248Y-50269D01*
X83159Y-50325D01*
X83063Y-50362D01*
X82960Y-50381D01*
X82857Y-50378D01*
X82754Y-50356D01*
X82660Y-50315D01*
X82574Y-50255D01*
X82503Y-50181D01*
X82445Y-50092D01*
X82408Y-49997D01*
X82389Y-49893D01*
X82390Y-49791D01*
X82412Y-49688D01*
X82452Y-49594D01*
X82512Y-49506D01*
X82585Y-49435D01*
X82674Y-49377D01*
X82768Y-49339D01*
X82872Y-49319D01*
X82974Y-49320D01*
X83078Y-49341D01*
X83172Y-49381D01*
X83260Y-49440D01*
X83332Y-49512D01*
X83390Y-49600D01*
X83429Y-49695D01*
X83429Y-49696D01*
X83450Y-49798D01*
X83450Y-49798D01*
X83450Y-49798D01*
G37*
G36*
X83760Y-57355D02*
X83349Y-57355D01*
X83349Y-56744D01*
X83760Y-56744D01*
X83760Y-57355D01*
X83760Y-57355D01*
G37*
G36*
X84440Y-53683D02*
X84438Y-53767D01*
X84422Y-53841D01*
X84392Y-53908D01*
X84348Y-53970D01*
X84295Y-54020D01*
X84231Y-54061D01*
X84163Y-54087D01*
X84088Y-54100D01*
X84015Y-54099D01*
X83941Y-54082D01*
X83874Y-54053D01*
X83811Y-54010D01*
X83761Y-53957D01*
X83719Y-53893D01*
X83693Y-53826D01*
X83679Y-53751D01*
X83680Y-53678D01*
X83696Y-53603D01*
X83724Y-53536D01*
X83767Y-53473D01*
X83819Y-53422D01*
X83883Y-53381D01*
X83951Y-53353D01*
X84026Y-53339D01*
X84099Y-53340D01*
X84173Y-53355D01*
X84240Y-53383D01*
X84304Y-53426D01*
X84355Y-53477D01*
X84397Y-53541D01*
X84425Y-53608D01*
X84440Y-53682D01*
X84440Y-53683D01*
X84440Y-53683D01*
G37*
G36*
X85330Y-66546D02*
X85328Y-66635D01*
X85310Y-66714D01*
X85279Y-66785D01*
X85232Y-66851D01*
X85176Y-66905D01*
X85107Y-66948D01*
X85035Y-66976D01*
X84955Y-66990D01*
X84877Y-66989D01*
X84798Y-66971D01*
X84727Y-66940D01*
X84660Y-66894D01*
X84606Y-66838D01*
X84562Y-66770D01*
X84533Y-66697D01*
X84519Y-66618D01*
X84520Y-66540D01*
X84537Y-66461D01*
X84567Y-66389D01*
X84613Y-66322D01*
X84669Y-66268D01*
X84737Y-66223D01*
X84809Y-66194D01*
X84889Y-66179D01*
X84966Y-66180D01*
X85046Y-66196D01*
X85117Y-66226D01*
X85185Y-66271D01*
X85239Y-66326D01*
X85284Y-66393D01*
X85284Y-66394D01*
X85314Y-66466D01*
X85330Y-66545D01*
X85330Y-66546D01*
X85330Y-66546D01*
G37*
G36*
X85330Y-71296D02*
X85328Y-71385D01*
X85310Y-71464D01*
X85279Y-71535D01*
X85232Y-71601D01*
X85176Y-71655D01*
X85107Y-71698D01*
X85035Y-71726D01*
X84955Y-71740D01*
X84877Y-71739D01*
X84798Y-71721D01*
X84727Y-71690D01*
X84660Y-71644D01*
X84606Y-71588D01*
X84562Y-71520D01*
X84533Y-71447D01*
X84519Y-71368D01*
X84520Y-71290D01*
X84537Y-71211D01*
X84567Y-71139D01*
X84613Y-71072D01*
X84669Y-71018D01*
X84737Y-70973D01*
X84809Y-70944D01*
X84889Y-70929D01*
X84966Y-70930D01*
X85046Y-70946D01*
X85117Y-70976D01*
X85185Y-71021D01*
X85239Y-71076D01*
X85284Y-71143D01*
X85284Y-71144D01*
X85314Y-71216D01*
X85330Y-71295D01*
X85330Y-71296D01*
X85330Y-71296D01*
G37*
G36*
X85340Y-56908D02*
X85338Y-57026D01*
X85315Y-57128D01*
X85273Y-57222D01*
X85212Y-57308D01*
X85138Y-57379D01*
X85049Y-57435D01*
X84953Y-57472D01*
X84850Y-57491D01*
X84747Y-57488D01*
X84644Y-57466D01*
X84550Y-57425D01*
X84464Y-57365D01*
X84393Y-57291D01*
X84335Y-57202D01*
X84298Y-57107D01*
X84279Y-57003D01*
X84280Y-56901D01*
X84302Y-56798D01*
X84342Y-56704D01*
X84402Y-56616D01*
X84475Y-56545D01*
X84564Y-56487D01*
X84658Y-56449D01*
X84762Y-56429D01*
X84864Y-56430D01*
X84968Y-56451D01*
X85062Y-56491D01*
X85150Y-56550D01*
X85222Y-56622D01*
X85280Y-56710D01*
X85319Y-56805D01*
X85319Y-56806D01*
X85340Y-56908D01*
X85340Y-56908D01*
X85340Y-56908D01*
G37*
G36*
X85440Y-54100D02*
X84679Y-54100D01*
X84679Y-53339D01*
X85440Y-53339D01*
X85440Y-54100D01*
X85440Y-54100D01*
G37*
G36*
X85884Y-65408D02*
X75961Y-65309D01*
X75958Y-65309D01*
X75937Y-61173D01*
X85868Y-61277D01*
X85884Y-65408D01*
X85884Y-65408D01*
G37*
G36*
X86475Y-49639D02*
X86473Y-49777D01*
X86446Y-49897D01*
X86397Y-50007D01*
X86326Y-50108D01*
X86239Y-50190D01*
X86135Y-50256D01*
X86023Y-50300D01*
X85902Y-50321D01*
X85781Y-50319D01*
X85661Y-50292D01*
X85551Y-50244D01*
X85450Y-50174D01*
X85366Y-50088D01*
X85299Y-49984D01*
X85255Y-49872D01*
X85233Y-49751D01*
X85235Y-49631D01*
X85260Y-49510D01*
X85308Y-49400D01*
X85377Y-49298D01*
X85463Y-49214D01*
X85566Y-49146D01*
X85678Y-49101D01*
X85799Y-49078D01*
X85919Y-49079D01*
X86040Y-49104D01*
X86150Y-49150D01*
X86253Y-49220D01*
X86337Y-49305D01*
X86406Y-49408D01*
X86451Y-49518D01*
X86451Y-49519D01*
X86475Y-49639D01*
X86475Y-49639D01*
X86475Y-49639D01*
G37*
G36*
X87064Y-60857D02*
X86335Y-60857D01*
X86335Y-59812D01*
X87064Y-59812D01*
X87064Y-60857D01*
X87064Y-60857D01*
G37*
G36*
X87064Y-62457D02*
X86335Y-62457D01*
X86335Y-61412D01*
X87064Y-61412D01*
X87064Y-62457D01*
X87064Y-62457D01*
G37*
G36*
X88265Y-52105D02*
X87204Y-52105D01*
X87204Y-51544D01*
X88265Y-51544D01*
X88265Y-52105D01*
X88265Y-52105D01*
G37*
G36*
X88265Y-53305D02*
X87204Y-53305D01*
X87204Y-52744D01*
X88265Y-52744D01*
X88265Y-53305D01*
X88265Y-53305D01*
G37*
G36*
X89268Y-67017D02*
X89267Y-67110D01*
X89248Y-67193D01*
X89215Y-67267D01*
X89166Y-67336D01*
X89107Y-67393D01*
X89036Y-67438D01*
X88960Y-67467D01*
X88876Y-67482D01*
X88795Y-67480D01*
X88712Y-67462D01*
X88637Y-67430D01*
X88568Y-67381D01*
X88511Y-67323D01*
X88465Y-67251D01*
X88435Y-67176D01*
X88420Y-67092D01*
X88421Y-67011D01*
X88439Y-66928D01*
X88471Y-66853D01*
X88519Y-66783D01*
X88577Y-66726D01*
X88648Y-66680D01*
X88723Y-66649D01*
X88807Y-66633D01*
X88888Y-66634D01*
X88971Y-66651D01*
X89046Y-66682D01*
X89117Y-66730D01*
X89174Y-66788D01*
X89220Y-66858D01*
X89221Y-66858D01*
X89252Y-66933D01*
X89268Y-67016D01*
X89268Y-67017D01*
X89268Y-67017D01*
G37*
G36*
X89268Y-68985D02*
X89267Y-69079D01*
X89248Y-69161D01*
X89215Y-69236D01*
X89166Y-69305D01*
X89107Y-69361D01*
X89036Y-69406D01*
X88960Y-69436D01*
X88876Y-69451D01*
X88795Y-69449D01*
X88712Y-69431D01*
X88637Y-69398D01*
X88568Y-69350D01*
X88511Y-69291D01*
X88465Y-69220D01*
X88435Y-69144D01*
X88420Y-69061D01*
X88421Y-68979D01*
X88439Y-68896D01*
X88471Y-68822D01*
X88519Y-68752D01*
X88577Y-68695D01*
X88648Y-68648D01*
X88723Y-68618D01*
X88807Y-68602D01*
X88888Y-68602D01*
X88971Y-68619D01*
X89046Y-68651D01*
X89117Y-68698D01*
X89174Y-68756D01*
X89220Y-68826D01*
X89221Y-68827D01*
X89252Y-68902D01*
X89268Y-68984D01*
X89268Y-68985D01*
X89268Y-68985D01*
G37*
G36*
X89268Y-71418D02*
X88421Y-71418D01*
X88421Y-70571D01*
X89268Y-70571D01*
X89268Y-71418D01*
X89268Y-71418D01*
G37*
G36*
X89438Y-48881D02*
X89437Y-48975D01*
X89418Y-49057D01*
X89385Y-49132D01*
X89336Y-49201D01*
X89277Y-49257D01*
X89206Y-49302D01*
X89130Y-49332D01*
X89046Y-49347D01*
X88965Y-49345D01*
X88882Y-49327D01*
X88807Y-49294D01*
X88738Y-49246D01*
X88681Y-49187D01*
X88635Y-49116D01*
X88605Y-49040D01*
X88590Y-48957D01*
X88591Y-48875D01*
X88609Y-48792D01*
X88641Y-48718D01*
X88689Y-48648D01*
X88747Y-48591D01*
X88818Y-48544D01*
X88893Y-48514D01*
X88977Y-48498D01*
X89058Y-48498D01*
X89141Y-48515D01*
X89216Y-48547D01*
X89287Y-48595D01*
X89344Y-48652D01*
X89390Y-48722D01*
X89391Y-48723D01*
X89422Y-48798D01*
X89438Y-48880D01*
X89438Y-48881D01*
X89438Y-48881D01*
G37*
G36*
X89438Y-50259D02*
X89437Y-50353D01*
X89418Y-50435D01*
X89385Y-50510D01*
X89336Y-50579D01*
X89277Y-50635D01*
X89206Y-50680D01*
X89130Y-50710D01*
X89046Y-50725D01*
X88965Y-50723D01*
X88882Y-50705D01*
X88807Y-50672D01*
X88738Y-50624D01*
X88681Y-50565D01*
X88635Y-50494D01*
X88605Y-50418D01*
X88590Y-50335D01*
X88591Y-50253D01*
X88609Y-50170D01*
X88641Y-50096D01*
X88689Y-50026D01*
X88747Y-49969D01*
X88818Y-49922D01*
X88893Y-49892D01*
X88977Y-49876D01*
X89058Y-49876D01*
X89141Y-49893D01*
X89216Y-49925D01*
X89287Y-49972D01*
X89344Y-50030D01*
X89390Y-50100D01*
X89391Y-50101D01*
X89422Y-50176D01*
X89438Y-50258D01*
X89438Y-50259D01*
X89438Y-50259D01*
G37*
G36*
X89438Y-51637D02*
X89437Y-51731D01*
X89418Y-51813D01*
X89385Y-51888D01*
X89336Y-51957D01*
X89277Y-52013D01*
X89206Y-52058D01*
X89130Y-52088D01*
X89046Y-52103D01*
X88965Y-52101D01*
X88882Y-52083D01*
X88807Y-52050D01*
X88738Y-52002D01*
X88681Y-51943D01*
X88635Y-51872D01*
X88605Y-51796D01*
X88590Y-51713D01*
X88591Y-51631D01*
X88609Y-51548D01*
X88641Y-51474D01*
X88689Y-51404D01*
X88747Y-51347D01*
X88818Y-51300D01*
X88893Y-51270D01*
X88977Y-51254D01*
X89058Y-51254D01*
X89141Y-51271D01*
X89216Y-51303D01*
X89287Y-51350D01*
X89344Y-51408D01*
X89390Y-51478D01*
X89391Y-51479D01*
X89422Y-51554D01*
X89438Y-51636D01*
X89438Y-51637D01*
X89438Y-51637D01*
G37*
G36*
X89438Y-53015D02*
X89437Y-53109D01*
X89418Y-53191D01*
X89385Y-53266D01*
X89336Y-53335D01*
X89277Y-53391D01*
X89206Y-53436D01*
X89130Y-53466D01*
X89046Y-53481D01*
X88965Y-53479D01*
X88882Y-53461D01*
X88807Y-53428D01*
X88738Y-53380D01*
X88681Y-53321D01*
X88635Y-53250D01*
X88605Y-53174D01*
X88590Y-53091D01*
X88591Y-53009D01*
X88609Y-52926D01*
X88641Y-52851D01*
X88689Y-52781D01*
X88747Y-52725D01*
X88818Y-52678D01*
X88893Y-52648D01*
X88977Y-52632D01*
X89058Y-52632D01*
X89141Y-52649D01*
X89216Y-52681D01*
X89287Y-52728D01*
X89344Y-52786D01*
X89390Y-52856D01*
X89391Y-52857D01*
X89422Y-52932D01*
X89438Y-53014D01*
X89438Y-53015D01*
X89438Y-53015D01*
G37*
G36*
X89438Y-54393D02*
X89437Y-54486D01*
X89418Y-54569D01*
X89385Y-54644D01*
X89336Y-54713D01*
X89277Y-54769D01*
X89206Y-54814D01*
X89130Y-54844D01*
X89046Y-54858D01*
X88965Y-54857D01*
X88882Y-54839D01*
X88807Y-54806D01*
X88738Y-54758D01*
X88681Y-54699D01*
X88635Y-54628D01*
X88605Y-54552D01*
X88590Y-54469D01*
X88591Y-54387D01*
X88609Y-54304D01*
X88641Y-54229D01*
X88689Y-54159D01*
X88747Y-54103D01*
X88818Y-54056D01*
X88893Y-54026D01*
X88977Y-54010D01*
X89058Y-54010D01*
X89141Y-54027D01*
X89216Y-54059D01*
X89287Y-54106D01*
X89344Y-54164D01*
X89390Y-54234D01*
X89391Y-54235D01*
X89422Y-54310D01*
X89438Y-54392D01*
X89438Y-54393D01*
X89438Y-54393D01*
G37*
G36*
X89438Y-55771D02*
X89437Y-55864D01*
X89418Y-55947D01*
X89385Y-56021D01*
X89336Y-56091D01*
X89277Y-56147D01*
X89206Y-56192D01*
X89130Y-56222D01*
X89046Y-56236D01*
X88965Y-56235D01*
X88882Y-56217D01*
X88807Y-56184D01*
X88738Y-56136D01*
X88681Y-56077D01*
X88635Y-56006D01*
X88605Y-55930D01*
X88590Y-55847D01*
X88591Y-55765D01*
X88609Y-55682D01*
X88641Y-55607D01*
X88689Y-55537D01*
X88747Y-55480D01*
X88818Y-55434D01*
X88893Y-55404D01*
X88977Y-55388D01*
X89058Y-55388D01*
X89141Y-55405D01*
X89216Y-55437D01*
X89287Y-55484D01*
X89344Y-55542D01*
X89390Y-55612D01*
X89391Y-55613D01*
X89422Y-55688D01*
X89438Y-55770D01*
X89438Y-55771D01*
X89438Y-55771D01*
G37*
G36*
X89438Y-57149D02*
X89437Y-57242D01*
X89418Y-57325D01*
X89385Y-57399D01*
X89336Y-57469D01*
X89277Y-57525D01*
X89206Y-57570D01*
X89130Y-57600D01*
X89046Y-57614D01*
X88965Y-57613D01*
X88882Y-57594D01*
X88807Y-57562D01*
X88738Y-57513D01*
X88681Y-57455D01*
X88635Y-57384D01*
X88605Y-57308D01*
X88590Y-57225D01*
X88591Y-57143D01*
X88609Y-57060D01*
X88641Y-56985D01*
X88689Y-56915D01*
X88747Y-56858D01*
X88818Y-56812D01*
X88893Y-56781D01*
X88977Y-56766D01*
X89058Y-56766D01*
X89141Y-56783D01*
X89216Y-56815D01*
X89287Y-56862D01*
X89344Y-56920D01*
X89390Y-56990D01*
X89391Y-56991D01*
X89422Y-57066D01*
X89438Y-57148D01*
X89438Y-57149D01*
X89438Y-57149D01*
G37*
G36*
X89438Y-58527D02*
X89437Y-58620D01*
X89418Y-58703D01*
X89385Y-58777D01*
X89336Y-58846D01*
X89277Y-58903D01*
X89206Y-58948D01*
X89130Y-58978D01*
X89046Y-58992D01*
X88965Y-58991D01*
X88882Y-58972D01*
X88807Y-58940D01*
X88738Y-58891D01*
X88681Y-58833D01*
X88635Y-58762D01*
X88605Y-58686D01*
X88590Y-58602D01*
X88591Y-58521D01*
X88609Y-58438D01*
X88641Y-58363D01*
X88689Y-58293D01*
X88747Y-58236D01*
X88818Y-58190D01*
X88893Y-58159D01*
X88977Y-58144D01*
X89058Y-58144D01*
X89141Y-58161D01*
X89216Y-58193D01*
X89287Y-58240D01*
X89344Y-58298D01*
X89390Y-58368D01*
X89391Y-58369D01*
X89422Y-58444D01*
X89438Y-58526D01*
X89438Y-58527D01*
X89438Y-58527D01*
G37*
G36*
X89438Y-59905D02*
X89437Y-59998D01*
X89418Y-60081D01*
X89385Y-60155D01*
X89336Y-60224D01*
X89277Y-60281D01*
X89206Y-60326D01*
X89130Y-60356D01*
X89046Y-60370D01*
X88965Y-60369D01*
X88882Y-60350D01*
X88807Y-60318D01*
X88738Y-60269D01*
X88681Y-60211D01*
X88635Y-60140D01*
X88605Y-60064D01*
X88590Y-59980D01*
X88591Y-59899D01*
X88609Y-59816D01*
X88641Y-59741D01*
X88689Y-59671D01*
X88747Y-59614D01*
X88818Y-59568D01*
X88893Y-59537D01*
X88977Y-59521D01*
X89058Y-59522D01*
X89141Y-59539D01*
X89216Y-59571D01*
X89287Y-59618D01*
X89344Y-59676D01*
X89390Y-59746D01*
X89391Y-59747D01*
X89422Y-59822D01*
X89438Y-59904D01*
X89438Y-59905D01*
X89438Y-59905D01*
G37*
G36*
X89438Y-61283D02*
X89437Y-61376D01*
X89418Y-61459D01*
X89385Y-61533D01*
X89336Y-61602D01*
X89277Y-61659D01*
X89206Y-61704D01*
X89130Y-61734D01*
X89046Y-61748D01*
X88965Y-61747D01*
X88882Y-61728D01*
X88807Y-61696D01*
X88738Y-61647D01*
X88681Y-61589D01*
X88635Y-61518D01*
X88605Y-61442D01*
X88590Y-61358D01*
X88591Y-61277D01*
X88609Y-61194D01*
X88641Y-61119D01*
X88689Y-61049D01*
X88747Y-60992D01*
X88818Y-60946D01*
X88893Y-60915D01*
X88977Y-60899D01*
X89058Y-60900D01*
X89141Y-60917D01*
X89216Y-60949D01*
X89287Y-60996D01*
X89344Y-61054D01*
X89390Y-61124D01*
X89391Y-61125D01*
X89422Y-61200D01*
X89438Y-61282D01*
X89438Y-61283D01*
X89438Y-61283D01*
G37*
G36*
X89438Y-62661D02*
X89437Y-62754D01*
X89418Y-62837D01*
X89385Y-62911D01*
X89336Y-62980D01*
X89277Y-63037D01*
X89206Y-63082D01*
X89130Y-63111D01*
X89046Y-63126D01*
X88965Y-63124D01*
X88882Y-63106D01*
X88807Y-63074D01*
X88738Y-63025D01*
X88681Y-62967D01*
X88635Y-62895D01*
X88605Y-62820D01*
X88590Y-62736D01*
X88591Y-62655D01*
X88609Y-62572D01*
X88641Y-62497D01*
X88689Y-62427D01*
X88747Y-62370D01*
X88818Y-62324D01*
X88893Y-62293D01*
X88977Y-62277D01*
X89058Y-62278D01*
X89141Y-62295D01*
X89216Y-62327D01*
X89287Y-62374D01*
X89344Y-62432D01*
X89390Y-62502D01*
X89391Y-62502D01*
X89422Y-62578D01*
X89438Y-62660D01*
X89438Y-62661D01*
X89438Y-62661D01*
G37*
G36*
X89438Y-64503D02*
X88591Y-64503D01*
X88591Y-63656D01*
X89438Y-63656D01*
X89438Y-64503D01*
X89438Y-64503D01*
G37*
M02*
