G04 (created by PCBNEW (2013-07-07 BZR 4022)-stable) date 3/25/2014 11:36:15 PM*
%MOIN*%
G04 Gerber Fmt 3.4, Leading zero omitted, Abs format*
%FSLAX34Y34*%
G01*
G70*
G90*
G04 APERTURE LIST*
%ADD10C,0.006*%
%ADD11C,0.0039*%
%ADD12C,0.005*%
%ADD13C,0.0047*%
%ADD14C,0.00590551*%
%ADD15C,0.0043*%
%ADD16C,0.0051*%
G04 APERTURE END LIST*
G54D10*
G54D11*
X67944Y-55635D02*
G75*
G03X67944Y-55635I-50J0D01*
G74*
G01*
X68344Y-55635D02*
X67944Y-55635D01*
X67944Y-55635D02*
X67944Y-56235D01*
X67944Y-56235D02*
X68344Y-56235D01*
X68744Y-56235D02*
X69144Y-56235D01*
X69144Y-56235D02*
X69144Y-55635D01*
X69144Y-55635D02*
X68744Y-55635D01*
X67950Y-56420D02*
G75*
G03X67950Y-56420I-50J0D01*
G74*
G01*
X68350Y-56420D02*
X67950Y-56420D01*
X67950Y-56420D02*
X67950Y-57020D01*
X67950Y-57020D02*
X68350Y-57020D01*
X68750Y-57020D02*
X69150Y-57020D01*
X69150Y-57020D02*
X69150Y-56420D01*
X69150Y-56420D02*
X68750Y-56420D01*
X86100Y-55900D02*
G75*
G03X86100Y-55900I-50J0D01*
G74*
G01*
X86500Y-55900D02*
X86100Y-55900D01*
X86100Y-55900D02*
X86100Y-56500D01*
X86100Y-56500D02*
X86500Y-56500D01*
X86900Y-56500D02*
X87300Y-56500D01*
X87300Y-56500D02*
X87300Y-55900D01*
X87300Y-55900D02*
X86900Y-55900D01*
G54D10*
X86300Y-57050D02*
X87100Y-57050D01*
X87100Y-57050D02*
X87100Y-57550D01*
X87100Y-57550D02*
X86300Y-57550D01*
X86300Y-57550D02*
X86300Y-57050D01*
G54D12*
X72322Y-58418D02*
X73222Y-58418D01*
X73222Y-58418D02*
X73222Y-59068D01*
X72322Y-59768D02*
X72322Y-60418D01*
X72322Y-60418D02*
X73222Y-60418D01*
X73222Y-60418D02*
X73222Y-59768D01*
X72322Y-59068D02*
X72322Y-58418D01*
X72511Y-54363D02*
X73411Y-54363D01*
X73411Y-54363D02*
X73411Y-55013D01*
X72511Y-55713D02*
X72511Y-56363D01*
X72511Y-56363D02*
X73411Y-56363D01*
X73411Y-56363D02*
X73411Y-55713D01*
X72511Y-55013D02*
X72511Y-54363D01*
G54D11*
X65500Y-54670D02*
G75*
G03X65500Y-54670I-50J0D01*
G74*
G01*
X65000Y-54670D02*
X65400Y-54670D01*
X65400Y-54670D02*
X65400Y-54070D01*
X65400Y-54070D02*
X65000Y-54070D01*
X64600Y-54070D02*
X64200Y-54070D01*
X64200Y-54070D02*
X64200Y-54670D01*
X64200Y-54670D02*
X64600Y-54670D01*
X78708Y-55230D02*
G75*
G03X78708Y-55230I-50J0D01*
G74*
G01*
X78208Y-55230D02*
X78608Y-55230D01*
X78608Y-55230D02*
X78608Y-54630D01*
X78608Y-54630D02*
X78208Y-54630D01*
X77808Y-54630D02*
X77408Y-54630D01*
X77408Y-54630D02*
X77408Y-55230D01*
X77408Y-55230D02*
X77808Y-55230D01*
X84430Y-55260D02*
G75*
G03X84430Y-55260I-50J0D01*
G74*
G01*
X83930Y-55260D02*
X84330Y-55260D01*
X84330Y-55260D02*
X84330Y-54660D01*
X84330Y-54660D02*
X83930Y-54660D01*
X83530Y-54660D02*
X83130Y-54660D01*
X83130Y-54660D02*
X83130Y-55260D01*
X83130Y-55260D02*
X83530Y-55260D01*
X69400Y-55651D02*
G75*
G03X69400Y-55651I-50J0D01*
G74*
G01*
X69800Y-55651D02*
X69400Y-55651D01*
X69400Y-55651D02*
X69400Y-56251D01*
X69400Y-56251D02*
X69800Y-56251D01*
X70200Y-56251D02*
X70600Y-56251D01*
X70600Y-56251D02*
X70600Y-55651D01*
X70600Y-55651D02*
X70200Y-55651D01*
G54D13*
X69213Y-57150D02*
X69213Y-58350D01*
X69213Y-58350D02*
X69513Y-58350D01*
X69513Y-58350D02*
X69513Y-57150D01*
X69513Y-57150D02*
X69213Y-57150D01*
G54D12*
X83175Y-62530D02*
G75*
G03X83175Y-62530I-70J0D01*
G74*
G01*
X83155Y-60630D02*
X83155Y-59980D01*
X83155Y-59980D02*
X84755Y-59980D01*
X84755Y-59980D02*
X84755Y-60630D01*
X84755Y-61830D02*
X84755Y-62480D01*
X84755Y-62480D02*
X83155Y-62480D01*
X83155Y-62480D02*
X83155Y-61830D01*
G54D11*
X82295Y-62480D02*
G75*
G03X82295Y-62480I-50J0D01*
G74*
G01*
X82245Y-62030D02*
X82245Y-62430D01*
X82245Y-62430D02*
X82845Y-62430D01*
X82845Y-62430D02*
X82845Y-62030D01*
X82845Y-61630D02*
X82845Y-61230D01*
X82845Y-61230D02*
X82245Y-61230D01*
X82245Y-61230D02*
X82245Y-61630D01*
X69710Y-59600D02*
G75*
G03X69710Y-59600I-50J0D01*
G74*
G01*
X69660Y-59150D02*
X69660Y-59550D01*
X69660Y-59550D02*
X70260Y-59550D01*
X70260Y-59550D02*
X70260Y-59150D01*
X70260Y-58750D02*
X70260Y-58350D01*
X70260Y-58350D02*
X69660Y-58350D01*
X69660Y-58350D02*
X69660Y-58750D01*
G54D12*
X30170Y-48150D02*
G75*
G03X30170Y-48150I-70J0D01*
G74*
G01*
X32000Y-48200D02*
X32650Y-48200D01*
X32650Y-48200D02*
X32650Y-49800D01*
X32650Y-49800D02*
X32000Y-49800D01*
X30800Y-49800D02*
X30150Y-49800D01*
X30150Y-49800D02*
X30150Y-48200D01*
X30150Y-48200D02*
X30800Y-48200D01*
X36920Y-67700D02*
G75*
G03X36920Y-67700I-70J0D01*
G74*
G01*
X36900Y-65800D02*
X36900Y-65150D01*
X36900Y-65150D02*
X38500Y-65150D01*
X38500Y-65150D02*
X38500Y-65800D01*
X38500Y-67000D02*
X38500Y-67650D01*
X38500Y-67650D02*
X36900Y-67650D01*
X36900Y-67650D02*
X36900Y-67000D01*
X34140Y-69760D02*
G75*
G03X34140Y-69760I-70J0D01*
G74*
G01*
X35970Y-69810D02*
X36620Y-69810D01*
X36620Y-69810D02*
X36620Y-71410D01*
X36620Y-71410D02*
X35970Y-71410D01*
X34770Y-71410D02*
X34120Y-71410D01*
X34120Y-71410D02*
X34120Y-69810D01*
X34120Y-69810D02*
X34770Y-69810D01*
X33820Y-68000D02*
G75*
G03X33820Y-68000I-70J0D01*
G74*
G01*
X33800Y-66100D02*
X33800Y-65450D01*
X33800Y-65450D02*
X35400Y-65450D01*
X35400Y-65450D02*
X35400Y-66100D01*
X35400Y-67300D02*
X35400Y-67950D01*
X35400Y-67950D02*
X33800Y-67950D01*
X33800Y-67950D02*
X33800Y-67300D01*
X38300Y-63900D02*
X37100Y-63900D01*
X37100Y-62450D02*
X37100Y-61700D01*
X37100Y-61700D02*
X38300Y-61700D01*
X38300Y-61700D02*
X38300Y-62450D01*
X38300Y-63100D02*
X38300Y-63900D01*
X38300Y-63821D02*
X37100Y-63821D01*
X37100Y-63900D02*
X37100Y-63100D01*
G54D11*
X41130Y-49455D02*
G75*
G03X41130Y-49455I-50J0D01*
G74*
G01*
X40630Y-49455D02*
X41030Y-49455D01*
X41030Y-49455D02*
X41030Y-48855D01*
X41030Y-48855D02*
X40630Y-48855D01*
X40230Y-48855D02*
X39830Y-48855D01*
X39830Y-48855D02*
X39830Y-49455D01*
X39830Y-49455D02*
X40230Y-49455D01*
G54D12*
X38250Y-61200D02*
X37350Y-61200D01*
X37350Y-61200D02*
X37350Y-60550D01*
X38250Y-59850D02*
X38250Y-59200D01*
X38250Y-59200D02*
X37350Y-59200D01*
X37350Y-59200D02*
X37350Y-59850D01*
X38250Y-60550D02*
X38250Y-61200D01*
G54D11*
X73050Y-51000D02*
G75*
G03X73050Y-51000I-50J0D01*
G74*
G01*
X73450Y-51000D02*
X73050Y-51000D01*
X73050Y-51000D02*
X73050Y-51600D01*
X73050Y-51600D02*
X73450Y-51600D01*
X73850Y-51600D02*
X74250Y-51600D01*
X74250Y-51600D02*
X74250Y-51000D01*
X74250Y-51000D02*
X73850Y-51000D01*
X65870Y-48960D02*
G75*
G03X65870Y-48960I-50J0D01*
G74*
G01*
X65370Y-48960D02*
X65770Y-48960D01*
X65770Y-48960D02*
X65770Y-48360D01*
X65770Y-48360D02*
X65370Y-48360D01*
X64970Y-48360D02*
X64570Y-48360D01*
X64570Y-48360D02*
X64570Y-48960D01*
X64570Y-48960D02*
X64970Y-48960D01*
X68270Y-50610D02*
G75*
G03X68270Y-50610I-50J0D01*
G74*
G01*
X68220Y-51060D02*
X68220Y-50660D01*
X68220Y-50660D02*
X67620Y-50660D01*
X67620Y-50660D02*
X67620Y-51060D01*
X67620Y-51460D02*
X67620Y-51860D01*
X67620Y-51860D02*
X68220Y-51860D01*
X68220Y-51860D02*
X68220Y-51460D01*
X73092Y-58210D02*
G75*
G03X73092Y-58210I-50J0D01*
G74*
G01*
X73042Y-57760D02*
X73042Y-58160D01*
X73042Y-58160D02*
X73642Y-58160D01*
X73642Y-58160D02*
X73642Y-57760D01*
X73642Y-57360D02*
X73642Y-56960D01*
X73642Y-56960D02*
X73042Y-56960D01*
X73042Y-56960D02*
X73042Y-57360D01*
X72554Y-56936D02*
G75*
G03X72554Y-56936I-50J0D01*
G74*
G01*
X72504Y-57386D02*
X72504Y-56986D01*
X72504Y-56986D02*
X71904Y-56986D01*
X71904Y-56986D02*
X71904Y-57386D01*
X71904Y-57786D02*
X71904Y-58186D01*
X71904Y-58186D02*
X72504Y-58186D01*
X72504Y-58186D02*
X72504Y-57786D01*
X72350Y-51900D02*
G75*
G03X72350Y-51900I-50J0D01*
G74*
G01*
X72750Y-51900D02*
X72350Y-51900D01*
X72350Y-51900D02*
X72350Y-52500D01*
X72350Y-52500D02*
X72750Y-52500D01*
X73150Y-52500D02*
X73550Y-52500D01*
X73550Y-52500D02*
X73550Y-51900D01*
X73550Y-51900D02*
X73150Y-51900D01*
X86950Y-53450D02*
G75*
G03X86950Y-53450I-50J0D01*
G74*
G01*
X86900Y-53900D02*
X86900Y-53500D01*
X86900Y-53500D02*
X86300Y-53500D01*
X86300Y-53500D02*
X86300Y-53900D01*
X86300Y-54300D02*
X86300Y-54700D01*
X86300Y-54700D02*
X86900Y-54700D01*
X86900Y-54700D02*
X86900Y-54300D01*
X86910Y-52060D02*
G75*
G03X86910Y-52060I-50J0D01*
G74*
G01*
X86860Y-52510D02*
X86860Y-52110D01*
X86860Y-52110D02*
X86260Y-52110D01*
X86260Y-52110D02*
X86260Y-52510D01*
X86260Y-52910D02*
X86260Y-53310D01*
X86260Y-53310D02*
X86860Y-53310D01*
X86860Y-53310D02*
X86860Y-52910D01*
X81400Y-53100D02*
G75*
G03X81400Y-53100I-50J0D01*
G74*
G01*
X80900Y-53100D02*
X81300Y-53100D01*
X81300Y-53100D02*
X81300Y-52500D01*
X81300Y-52500D02*
X80900Y-52500D01*
X80500Y-52500D02*
X80100Y-52500D01*
X80100Y-52500D02*
X80100Y-53100D01*
X80100Y-53100D02*
X80500Y-53100D01*
X81050Y-54750D02*
G75*
G03X81050Y-54750I-50J0D01*
G74*
G01*
X81000Y-54300D02*
X81000Y-54700D01*
X81000Y-54700D02*
X81600Y-54700D01*
X81600Y-54700D02*
X81600Y-54300D01*
X81600Y-53900D02*
X81600Y-53500D01*
X81600Y-53500D02*
X81000Y-53500D01*
X81000Y-53500D02*
X81000Y-53900D01*
X66720Y-51910D02*
G75*
G03X66720Y-51910I-50J0D01*
G74*
G01*
X66670Y-51460D02*
X66670Y-51860D01*
X66670Y-51860D02*
X67270Y-51860D01*
X67270Y-51860D02*
X67270Y-51460D01*
X67270Y-51060D02*
X67270Y-50660D01*
X67270Y-50660D02*
X66670Y-50660D01*
X66670Y-50660D02*
X66670Y-51060D01*
X68200Y-52660D02*
G75*
G03X68200Y-52660I-50J0D01*
G74*
G01*
X67700Y-52660D02*
X68100Y-52660D01*
X68100Y-52660D02*
X68100Y-52060D01*
X68100Y-52060D02*
X67700Y-52060D01*
X67300Y-52060D02*
X66900Y-52060D01*
X66900Y-52060D02*
X66900Y-52660D01*
X66900Y-52660D02*
X67300Y-52660D01*
X70000Y-52550D02*
G75*
G03X70000Y-52550I-50J0D01*
G74*
G01*
X69950Y-52100D02*
X69950Y-52500D01*
X69950Y-52500D02*
X70550Y-52500D01*
X70550Y-52500D02*
X70550Y-52100D01*
X70550Y-51700D02*
X70550Y-51300D01*
X70550Y-51300D02*
X69950Y-51300D01*
X69950Y-51300D02*
X69950Y-51700D01*
X72150Y-52500D02*
G75*
G03X72150Y-52500I-50J0D01*
G74*
G01*
X71650Y-52500D02*
X72050Y-52500D01*
X72050Y-52500D02*
X72050Y-51900D01*
X72050Y-51900D02*
X71650Y-51900D01*
X71250Y-51900D02*
X70850Y-51900D01*
X70850Y-51900D02*
X70850Y-52500D01*
X70850Y-52500D02*
X71250Y-52500D01*
X72450Y-51500D02*
G75*
G03X72450Y-51500I-50J0D01*
G74*
G01*
X71950Y-51500D02*
X72350Y-51500D01*
X72350Y-51500D02*
X72350Y-50900D01*
X72350Y-50900D02*
X71950Y-50900D01*
X71550Y-50900D02*
X71150Y-50900D01*
X71150Y-50900D02*
X71150Y-51500D01*
X71150Y-51500D02*
X71550Y-51500D01*
X64660Y-50970D02*
G75*
G03X64660Y-50970I-50J0D01*
G74*
G01*
X64610Y-50520D02*
X64610Y-50920D01*
X64610Y-50920D02*
X65210Y-50920D01*
X65210Y-50920D02*
X65210Y-50520D01*
X65210Y-50120D02*
X65210Y-49720D01*
X65210Y-49720D02*
X64610Y-49720D01*
X64610Y-49720D02*
X64610Y-50120D01*
G54D14*
X60047Y-64529D02*
X59772Y-64529D01*
X60038Y-64825D02*
X59792Y-64825D01*
X59792Y-64825D02*
X59900Y-64588D01*
X59900Y-64588D02*
X60038Y-64825D01*
X59910Y-64844D02*
X59910Y-64825D01*
G54D11*
X88400Y-63825D02*
G75*
G03X88400Y-63825I-50J0D01*
G74*
G01*
X88350Y-64275D02*
X88350Y-63875D01*
X88350Y-63875D02*
X87750Y-63875D01*
X87750Y-63875D02*
X87750Y-64275D01*
X87750Y-64675D02*
X87750Y-65075D01*
X87750Y-65075D02*
X88350Y-65075D01*
X88350Y-65075D02*
X88350Y-64675D01*
X77050Y-53350D02*
G75*
G03X77050Y-53350I-50J0D01*
G74*
G01*
X77000Y-53800D02*
X77000Y-53400D01*
X77000Y-53400D02*
X76400Y-53400D01*
X76400Y-53400D02*
X76400Y-53800D01*
X76400Y-54200D02*
X76400Y-54600D01*
X76400Y-54600D02*
X77000Y-54600D01*
X77000Y-54600D02*
X77000Y-54200D01*
X83130Y-55460D02*
G75*
G03X83130Y-55460I-50J0D01*
G74*
G01*
X83530Y-55460D02*
X83130Y-55460D01*
X83130Y-55460D02*
X83130Y-56060D01*
X83130Y-56060D02*
X83530Y-56060D01*
X83930Y-56060D02*
X84330Y-56060D01*
X84330Y-56060D02*
X84330Y-55460D01*
X84330Y-55460D02*
X83930Y-55460D01*
X90395Y-60400D02*
G75*
G03X90395Y-60400I-50J0D01*
G74*
G01*
X90345Y-60850D02*
X90345Y-60450D01*
X90345Y-60450D02*
X89745Y-60450D01*
X89745Y-60450D02*
X89745Y-60850D01*
X89745Y-61250D02*
X89745Y-61650D01*
X89745Y-61650D02*
X90345Y-61650D01*
X90345Y-61650D02*
X90345Y-61250D01*
G54D12*
X88490Y-49680D02*
G75*
G03X88490Y-49680I-70J0D01*
G74*
G01*
X87770Y-48530D02*
X88370Y-48530D01*
X88370Y-48530D02*
X88370Y-49630D01*
X88370Y-49630D02*
X87770Y-49630D01*
X87170Y-49630D02*
X86570Y-49630D01*
X86570Y-49630D02*
X86570Y-48530D01*
X86570Y-48530D02*
X87170Y-48530D01*
X88515Y-51180D02*
G75*
G03X88515Y-51180I-70J0D01*
G74*
G01*
X87795Y-50030D02*
X88395Y-50030D01*
X88395Y-50030D02*
X88395Y-51130D01*
X88395Y-51130D02*
X87795Y-51130D01*
X87195Y-51130D02*
X86595Y-51130D01*
X86595Y-51130D02*
X86595Y-50030D01*
X86595Y-50030D02*
X87195Y-50030D01*
X87220Y-54905D02*
G75*
G03X87220Y-54905I-70J0D01*
G74*
G01*
X88300Y-54255D02*
X88300Y-54855D01*
X88300Y-54855D02*
X87200Y-54855D01*
X87200Y-54855D02*
X87200Y-54255D01*
X87200Y-53655D02*
X87200Y-53055D01*
X87200Y-53055D02*
X88300Y-53055D01*
X88300Y-53055D02*
X88300Y-53655D01*
G54D11*
X66510Y-58630D02*
G75*
G03X66510Y-58630I-50J0D01*
G74*
G01*
X66910Y-58630D02*
X66510Y-58630D01*
X66510Y-58630D02*
X66510Y-59230D01*
X66510Y-59230D02*
X66910Y-59230D01*
X67310Y-59230D02*
X67710Y-59230D01*
X67710Y-59230D02*
X67710Y-58630D01*
X67710Y-58630D02*
X67310Y-58630D01*
X66610Y-56420D02*
G75*
G03X66610Y-56420I-50J0D01*
G74*
G01*
X66110Y-56420D02*
X66510Y-56420D01*
X66510Y-56420D02*
X66510Y-55820D01*
X66510Y-55820D02*
X66110Y-55820D01*
X65710Y-55820D02*
X65310Y-55820D01*
X65310Y-55820D02*
X65310Y-56420D01*
X65310Y-56420D02*
X65710Y-56420D01*
X84975Y-57845D02*
G75*
G03X84975Y-57845I-50J0D01*
G74*
G01*
X85375Y-57845D02*
X84975Y-57845D01*
X84975Y-57845D02*
X84975Y-58445D01*
X84975Y-58445D02*
X85375Y-58445D01*
X85775Y-58445D02*
X86175Y-58445D01*
X86175Y-58445D02*
X86175Y-57845D01*
X86175Y-57845D02*
X85775Y-57845D01*
X79035Y-59205D02*
G75*
G03X79035Y-59205I-50J0D01*
G74*
G01*
X79435Y-59205D02*
X79035Y-59205D01*
X79035Y-59205D02*
X79035Y-59805D01*
X79035Y-59805D02*
X79435Y-59805D01*
X79835Y-59805D02*
X80235Y-59805D01*
X80235Y-59805D02*
X80235Y-59205D01*
X80235Y-59205D02*
X79835Y-59205D01*
X51900Y-53230D02*
G75*
G03X51900Y-53230I-50J0D01*
G74*
G01*
X51850Y-53680D02*
X51850Y-53280D01*
X51850Y-53280D02*
X51250Y-53280D01*
X51250Y-53280D02*
X51250Y-53680D01*
X51250Y-54380D02*
X51250Y-54780D01*
X51250Y-54780D02*
X51850Y-54780D01*
X51850Y-54780D02*
X51850Y-54380D01*
X57470Y-53250D02*
G75*
G03X57470Y-53250I-50J0D01*
G74*
G01*
X57420Y-53700D02*
X57420Y-53300D01*
X57420Y-53300D02*
X56820Y-53300D01*
X56820Y-53300D02*
X56820Y-53700D01*
X56820Y-54400D02*
X56820Y-54800D01*
X56820Y-54800D02*
X57420Y-54800D01*
X57420Y-54800D02*
X57420Y-54400D01*
X53990Y-53220D02*
G75*
G03X53990Y-53220I-50J0D01*
G74*
G01*
X53940Y-53670D02*
X53940Y-53270D01*
X53940Y-53270D02*
X53340Y-53270D01*
X53340Y-53270D02*
X53340Y-53670D01*
X53340Y-54370D02*
X53340Y-54770D01*
X53340Y-54770D02*
X53940Y-54770D01*
X53940Y-54770D02*
X53940Y-54370D01*
X52930Y-53230D02*
G75*
G03X52930Y-53230I-50J0D01*
G74*
G01*
X52880Y-53680D02*
X52880Y-53280D01*
X52880Y-53280D02*
X52280Y-53280D01*
X52280Y-53280D02*
X52280Y-53680D01*
X52280Y-54380D02*
X52280Y-54780D01*
X52280Y-54780D02*
X52880Y-54780D01*
X52880Y-54780D02*
X52880Y-54380D01*
X55460Y-53250D02*
G75*
G03X55460Y-53250I-50J0D01*
G74*
G01*
X55410Y-53700D02*
X55410Y-53300D01*
X55410Y-53300D02*
X54810Y-53300D01*
X54810Y-53300D02*
X54810Y-53700D01*
X54810Y-54400D02*
X54810Y-54800D01*
X54810Y-54800D02*
X55410Y-54800D01*
X55410Y-54800D02*
X55410Y-54400D01*
X57460Y-68720D02*
G75*
G03X57460Y-68720I-50J0D01*
G74*
G01*
X57410Y-69170D02*
X57410Y-68770D01*
X57410Y-68770D02*
X56810Y-68770D01*
X56810Y-68770D02*
X56810Y-69170D01*
X56810Y-69870D02*
X56810Y-70270D01*
X56810Y-70270D02*
X57410Y-70270D01*
X57410Y-70270D02*
X57410Y-69870D01*
X58540Y-68700D02*
G75*
G03X58540Y-68700I-50J0D01*
G74*
G01*
X58490Y-69150D02*
X58490Y-68750D01*
X58490Y-68750D02*
X57890Y-68750D01*
X57890Y-68750D02*
X57890Y-69150D01*
X57890Y-69850D02*
X57890Y-70250D01*
X57890Y-70250D02*
X58490Y-70250D01*
X58490Y-70250D02*
X58490Y-69850D01*
X59500Y-68700D02*
G75*
G03X59500Y-68700I-50J0D01*
G74*
G01*
X59450Y-69150D02*
X59450Y-68750D01*
X59450Y-68750D02*
X58850Y-68750D01*
X58850Y-68750D02*
X58850Y-69150D01*
X58850Y-69850D02*
X58850Y-70250D01*
X58850Y-70250D02*
X59450Y-70250D01*
X59450Y-70250D02*
X59450Y-69850D01*
X60500Y-68700D02*
G75*
G03X60500Y-68700I-50J0D01*
G74*
G01*
X60450Y-69150D02*
X60450Y-68750D01*
X60450Y-68750D02*
X59850Y-68750D01*
X59850Y-68750D02*
X59850Y-69150D01*
X59850Y-69850D02*
X59850Y-70250D01*
X59850Y-70250D02*
X60450Y-70250D01*
X60450Y-70250D02*
X60450Y-69850D01*
G54D15*
X68172Y-55534D02*
X68266Y-55534D01*
X68266Y-55337D01*
X68013Y-55337D02*
X68107Y-55337D01*
X68116Y-55431D01*
X68107Y-55422D01*
X68088Y-55412D01*
X68041Y-55412D01*
X68022Y-55422D01*
X68013Y-55431D01*
X68003Y-55450D01*
X68003Y-55497D01*
X68013Y-55515D01*
X68022Y-55525D01*
X68041Y-55534D01*
X68088Y-55534D01*
X68107Y-55525D01*
X68116Y-55515D01*
X68222Y-57300D02*
X68232Y-57310D01*
X68260Y-57319D01*
X68279Y-57319D01*
X68307Y-57310D01*
X68326Y-57291D01*
X68335Y-57272D01*
X68344Y-57235D01*
X68344Y-57207D01*
X68335Y-57169D01*
X68326Y-57150D01*
X68307Y-57132D01*
X68279Y-57122D01*
X68260Y-57122D01*
X68232Y-57132D01*
X68222Y-57141D01*
X68157Y-57122D02*
X68025Y-57122D01*
X68110Y-57319D01*
X86452Y-55750D02*
X86462Y-55760D01*
X86490Y-55769D01*
X86509Y-55769D01*
X86537Y-55760D01*
X86556Y-55741D01*
X86565Y-55722D01*
X86574Y-55685D01*
X86574Y-55657D01*
X86565Y-55619D01*
X86556Y-55600D01*
X86537Y-55582D01*
X86509Y-55572D01*
X86490Y-55572D01*
X86462Y-55582D01*
X86452Y-55591D01*
X86359Y-55769D02*
X86321Y-55769D01*
X86302Y-55760D01*
X86293Y-55750D01*
X86274Y-55722D01*
X86265Y-55685D01*
X86265Y-55610D01*
X86274Y-55591D01*
X86283Y-55582D01*
X86302Y-55572D01*
X86340Y-55572D01*
X86359Y-55582D01*
X86368Y-55591D01*
X86377Y-55610D01*
X86377Y-55657D01*
X86368Y-55675D01*
X86359Y-55685D01*
X86340Y-55694D01*
X86302Y-55694D01*
X86283Y-55685D01*
X86274Y-55675D01*
X86265Y-55657D01*
G54D12*
X87221Y-57104D02*
X87464Y-57104D01*
X87492Y-57116D01*
X87507Y-57128D01*
X87521Y-57152D01*
X87521Y-57199D01*
X87507Y-57223D01*
X87492Y-57235D01*
X87464Y-57247D01*
X87221Y-57247D01*
X87221Y-57342D02*
X87221Y-57497D01*
X87335Y-57414D01*
X87335Y-57449D01*
X87350Y-57473D01*
X87364Y-57485D01*
X87392Y-57497D01*
X87464Y-57497D01*
X87492Y-57485D01*
X87507Y-57473D01*
X87521Y-57449D01*
X87521Y-57378D01*
X87507Y-57354D01*
X87492Y-57342D01*
X72236Y-59237D02*
X72093Y-59137D01*
X72236Y-59065D02*
X71936Y-59065D01*
X71936Y-59180D01*
X71950Y-59208D01*
X71965Y-59222D01*
X71993Y-59237D01*
X72036Y-59237D01*
X72065Y-59222D01*
X72079Y-59208D01*
X72093Y-59180D01*
X72093Y-59065D01*
X71965Y-59351D02*
X71950Y-59365D01*
X71936Y-59394D01*
X71936Y-59465D01*
X71950Y-59494D01*
X71965Y-59508D01*
X71993Y-59522D01*
X72022Y-59522D01*
X72065Y-59508D01*
X72236Y-59337D01*
X72236Y-59522D01*
X71936Y-59794D02*
X71936Y-59651D01*
X72079Y-59637D01*
X72065Y-59651D01*
X72050Y-59680D01*
X72050Y-59751D01*
X72065Y-59780D01*
X72079Y-59794D01*
X72107Y-59808D01*
X72179Y-59808D01*
X72207Y-59794D01*
X72222Y-59780D01*
X72236Y-59751D01*
X72236Y-59680D01*
X72222Y-59651D01*
X72207Y-59637D01*
X72396Y-54617D02*
X72253Y-54517D01*
X72396Y-54445D02*
X72096Y-54445D01*
X72096Y-54560D01*
X72110Y-54588D01*
X72125Y-54602D01*
X72153Y-54617D01*
X72196Y-54617D01*
X72225Y-54602D01*
X72239Y-54588D01*
X72253Y-54560D01*
X72253Y-54445D01*
X72125Y-54731D02*
X72110Y-54745D01*
X72096Y-54774D01*
X72096Y-54845D01*
X72110Y-54874D01*
X72125Y-54888D01*
X72153Y-54902D01*
X72182Y-54902D01*
X72225Y-54888D01*
X72396Y-54717D01*
X72396Y-54902D01*
X72096Y-55002D02*
X72096Y-55188D01*
X72210Y-55088D01*
X72210Y-55131D01*
X72225Y-55160D01*
X72239Y-55174D01*
X72267Y-55188D01*
X72339Y-55188D01*
X72367Y-55174D01*
X72382Y-55160D01*
X72396Y-55131D01*
X72396Y-55045D01*
X72382Y-55017D01*
X72367Y-55002D01*
G54D15*
X64832Y-53970D02*
X64842Y-53980D01*
X64870Y-53989D01*
X64889Y-53989D01*
X64917Y-53980D01*
X64936Y-53961D01*
X64945Y-53942D01*
X64954Y-53905D01*
X64954Y-53877D01*
X64945Y-53839D01*
X64936Y-53820D01*
X64917Y-53802D01*
X64889Y-53792D01*
X64870Y-53792D01*
X64842Y-53802D01*
X64832Y-53811D01*
X64720Y-53877D02*
X64739Y-53867D01*
X64748Y-53858D01*
X64757Y-53839D01*
X64757Y-53830D01*
X64748Y-53811D01*
X64739Y-53802D01*
X64720Y-53792D01*
X64682Y-53792D01*
X64663Y-53802D01*
X64654Y-53811D01*
X64645Y-53830D01*
X64645Y-53839D01*
X64654Y-53858D01*
X64663Y-53867D01*
X64682Y-53877D01*
X64720Y-53877D01*
X64739Y-53886D01*
X64748Y-53895D01*
X64757Y-53914D01*
X64757Y-53952D01*
X64748Y-53970D01*
X64739Y-53980D01*
X64720Y-53989D01*
X64682Y-53989D01*
X64663Y-53980D01*
X64654Y-53970D01*
X64645Y-53952D01*
X64645Y-53914D01*
X64654Y-53895D01*
X64663Y-53886D01*
X64682Y-53877D01*
X77861Y-54505D02*
X77871Y-54515D01*
X77899Y-54524D01*
X77917Y-54524D01*
X77946Y-54515D01*
X77964Y-54496D01*
X77974Y-54477D01*
X77983Y-54440D01*
X77983Y-54412D01*
X77974Y-54374D01*
X77964Y-54355D01*
X77946Y-54337D01*
X77917Y-54327D01*
X77899Y-54327D01*
X77871Y-54337D01*
X77861Y-54346D01*
X77674Y-54524D02*
X77786Y-54524D01*
X77730Y-54524D02*
X77730Y-54327D01*
X77749Y-54355D01*
X77767Y-54374D01*
X77786Y-54384D01*
X77552Y-54327D02*
X77533Y-54327D01*
X77514Y-54337D01*
X77505Y-54346D01*
X77495Y-54365D01*
X77486Y-54402D01*
X77486Y-54449D01*
X77495Y-54487D01*
X77505Y-54505D01*
X77514Y-54515D01*
X77533Y-54524D01*
X77552Y-54524D01*
X77570Y-54515D01*
X77580Y-54505D01*
X77589Y-54487D01*
X77598Y-54449D01*
X77598Y-54402D01*
X77589Y-54365D01*
X77580Y-54346D01*
X77570Y-54337D01*
X77552Y-54327D01*
X83526Y-54545D02*
X83536Y-54555D01*
X83564Y-54564D01*
X83582Y-54564D01*
X83611Y-54555D01*
X83629Y-54536D01*
X83639Y-54517D01*
X83648Y-54480D01*
X83648Y-54452D01*
X83639Y-54414D01*
X83629Y-54395D01*
X83611Y-54377D01*
X83582Y-54367D01*
X83564Y-54367D01*
X83536Y-54377D01*
X83526Y-54386D01*
X83339Y-54564D02*
X83451Y-54564D01*
X83395Y-54564D02*
X83395Y-54367D01*
X83414Y-54395D01*
X83432Y-54414D01*
X83451Y-54424D01*
X83151Y-54564D02*
X83263Y-54564D01*
X83207Y-54564D02*
X83207Y-54367D01*
X83226Y-54395D01*
X83245Y-54414D01*
X83263Y-54424D01*
X69627Y-55545D02*
X69637Y-55555D01*
X69665Y-55564D01*
X69684Y-55564D01*
X69712Y-55555D01*
X69731Y-55536D01*
X69740Y-55517D01*
X69749Y-55480D01*
X69749Y-55452D01*
X69740Y-55414D01*
X69731Y-55395D01*
X69712Y-55377D01*
X69684Y-55367D01*
X69665Y-55367D01*
X69637Y-55377D01*
X69627Y-55386D01*
X69458Y-55367D02*
X69496Y-55367D01*
X69515Y-55377D01*
X69524Y-55386D01*
X69543Y-55414D01*
X69552Y-55452D01*
X69552Y-55527D01*
X69543Y-55545D01*
X69534Y-55555D01*
X69515Y-55564D01*
X69477Y-55564D01*
X69458Y-55555D01*
X69449Y-55545D01*
X69440Y-55527D01*
X69440Y-55480D01*
X69449Y-55461D01*
X69458Y-55452D01*
X69477Y-55442D01*
X69515Y-55442D01*
X69534Y-55452D01*
X69543Y-55461D01*
X69552Y-55480D01*
G54D16*
X68663Y-57721D02*
X68648Y-57692D01*
X68620Y-57664D01*
X68577Y-57621D01*
X68563Y-57592D01*
X68563Y-57564D01*
X68634Y-57578D02*
X68620Y-57550D01*
X68591Y-57521D01*
X68534Y-57507D01*
X68434Y-57507D01*
X68377Y-57521D01*
X68348Y-57550D01*
X68334Y-57578D01*
X68334Y-57635D01*
X68348Y-57664D01*
X68377Y-57692D01*
X68434Y-57707D01*
X68534Y-57707D01*
X68591Y-57692D01*
X68620Y-57664D01*
X68634Y-57635D01*
X68634Y-57578D01*
X68363Y-57821D02*
X68348Y-57835D01*
X68334Y-57864D01*
X68334Y-57935D01*
X68348Y-57964D01*
X68363Y-57978D01*
X68391Y-57992D01*
X68420Y-57992D01*
X68463Y-57978D01*
X68634Y-57807D01*
X68634Y-57992D01*
G54D12*
X82656Y-59989D02*
X82656Y-60160D01*
X83056Y-60075D02*
X82656Y-60075D01*
X83056Y-60260D02*
X82656Y-60260D01*
X82847Y-60260D02*
X82847Y-60432D01*
X83056Y-60432D02*
X82656Y-60432D01*
X82656Y-60717D02*
X82656Y-60575D01*
X82847Y-60560D01*
X82828Y-60575D01*
X82809Y-60603D01*
X82809Y-60675D01*
X82828Y-60703D01*
X82847Y-60717D01*
X82885Y-60732D01*
X82980Y-60732D01*
X83018Y-60717D01*
X83037Y-60703D01*
X83056Y-60675D01*
X83056Y-60603D01*
X83037Y-60575D01*
X83018Y-60560D01*
G54D15*
X82135Y-61373D02*
X82145Y-61363D01*
X82154Y-61335D01*
X82154Y-61317D01*
X82145Y-61288D01*
X82126Y-61270D01*
X82107Y-61260D01*
X82070Y-61251D01*
X82042Y-61251D01*
X82004Y-61260D01*
X81985Y-61270D01*
X81967Y-61288D01*
X81957Y-61317D01*
X81957Y-61335D01*
X81967Y-61363D01*
X81976Y-61373D01*
X82154Y-61560D02*
X82154Y-61448D01*
X82154Y-61504D02*
X81957Y-61504D01*
X81985Y-61485D01*
X82004Y-61467D01*
X82014Y-61448D01*
X81957Y-61626D02*
X81957Y-61748D01*
X82032Y-61682D01*
X82032Y-61711D01*
X82042Y-61729D01*
X82051Y-61739D01*
X82070Y-61748D01*
X82117Y-61748D01*
X82135Y-61739D01*
X82145Y-61729D01*
X82154Y-61711D01*
X82154Y-61654D01*
X82145Y-61636D01*
X82135Y-61626D01*
X70554Y-58688D02*
X70460Y-58622D01*
X70554Y-58575D02*
X70357Y-58575D01*
X70357Y-58650D01*
X70367Y-58669D01*
X70376Y-58678D01*
X70395Y-58688D01*
X70423Y-58688D01*
X70442Y-58678D01*
X70451Y-58669D01*
X70460Y-58650D01*
X70460Y-58575D01*
X70357Y-58754D02*
X70357Y-58875D01*
X70432Y-58810D01*
X70432Y-58838D01*
X70442Y-58857D01*
X70451Y-58866D01*
X70470Y-58875D01*
X70517Y-58875D01*
X70535Y-58866D01*
X70545Y-58857D01*
X70554Y-58838D01*
X70554Y-58782D01*
X70545Y-58763D01*
X70535Y-58754D01*
X70376Y-58951D02*
X70367Y-58960D01*
X70357Y-58979D01*
X70357Y-59026D01*
X70367Y-59044D01*
X70376Y-59054D01*
X70395Y-59063D01*
X70414Y-59063D01*
X70442Y-59054D01*
X70554Y-58941D01*
X70554Y-59063D01*
G54D12*
X29621Y-48624D02*
X29621Y-48795D01*
X30021Y-48710D02*
X29621Y-48710D01*
X30021Y-48895D02*
X29621Y-48895D01*
X29812Y-48895D02*
X29812Y-49067D01*
X30021Y-49067D02*
X29621Y-49067D01*
X30021Y-49367D02*
X30021Y-49195D01*
X30021Y-49281D02*
X29621Y-49281D01*
X29679Y-49252D01*
X29717Y-49224D01*
X29736Y-49195D01*
X38055Y-64641D02*
X37884Y-64641D01*
X37969Y-65041D02*
X37969Y-64641D01*
X37784Y-65041D02*
X37784Y-64641D01*
X37784Y-64832D02*
X37612Y-64832D01*
X37612Y-65041D02*
X37612Y-64641D01*
X37484Y-64680D02*
X37469Y-64660D01*
X37441Y-64641D01*
X37369Y-64641D01*
X37341Y-64660D01*
X37327Y-64680D01*
X37312Y-64718D01*
X37312Y-64756D01*
X37327Y-64813D01*
X37498Y-65041D01*
X37312Y-65041D01*
X33621Y-70204D02*
X33621Y-70375D01*
X34021Y-70290D02*
X33621Y-70290D01*
X34021Y-70475D02*
X33621Y-70475D01*
X33812Y-70475D02*
X33812Y-70647D01*
X34021Y-70647D02*
X33621Y-70647D01*
X33621Y-70761D02*
X33621Y-70947D01*
X33774Y-70847D01*
X33774Y-70890D01*
X33793Y-70918D01*
X33812Y-70932D01*
X33850Y-70947D01*
X33945Y-70947D01*
X33983Y-70932D01*
X34002Y-70918D01*
X34021Y-70890D01*
X34021Y-70804D01*
X34002Y-70775D01*
X33983Y-70761D01*
X34935Y-64941D02*
X34764Y-64941D01*
X34849Y-65341D02*
X34849Y-64941D01*
X34664Y-65341D02*
X34664Y-64941D01*
X34664Y-65132D02*
X34492Y-65132D01*
X34492Y-65341D02*
X34492Y-64941D01*
X34221Y-65075D02*
X34221Y-65341D01*
X34292Y-64922D02*
X34364Y-65208D01*
X34178Y-65208D01*
X38706Y-62719D02*
X38706Y-62587D01*
X38430Y-62587D01*
X38706Y-62955D02*
X38706Y-62797D01*
X38706Y-62876D02*
X38430Y-62876D01*
X38470Y-62850D01*
X38496Y-62824D01*
X38509Y-62797D01*
G54D15*
X40541Y-49739D02*
X40607Y-49645D01*
X40654Y-49739D02*
X40654Y-49542D01*
X40579Y-49542D01*
X40560Y-49552D01*
X40551Y-49561D01*
X40541Y-49580D01*
X40541Y-49608D01*
X40551Y-49627D01*
X40560Y-49636D01*
X40579Y-49645D01*
X40654Y-49645D01*
X40475Y-49542D02*
X40354Y-49542D01*
X40419Y-49617D01*
X40391Y-49617D01*
X40372Y-49627D01*
X40363Y-49636D01*
X40354Y-49655D01*
X40354Y-49702D01*
X40363Y-49720D01*
X40372Y-49730D01*
X40391Y-49739D01*
X40447Y-49739D01*
X40466Y-49730D01*
X40475Y-49720D01*
X40232Y-49542D02*
X40213Y-49542D01*
X40194Y-49552D01*
X40185Y-49561D01*
X40175Y-49580D01*
X40166Y-49617D01*
X40166Y-49664D01*
X40175Y-49702D01*
X40185Y-49720D01*
X40194Y-49730D01*
X40213Y-49739D01*
X40232Y-49739D01*
X40250Y-49730D01*
X40260Y-49720D01*
X40269Y-49702D01*
X40278Y-49664D01*
X40278Y-49617D01*
X40269Y-49580D01*
X40260Y-49561D01*
X40250Y-49552D01*
X40232Y-49542D01*
G54D12*
X38637Y-60140D02*
X38652Y-60125D01*
X38666Y-60082D01*
X38666Y-60054D01*
X38652Y-60011D01*
X38623Y-59982D01*
X38595Y-59968D01*
X38537Y-59954D01*
X38495Y-59954D01*
X38437Y-59968D01*
X38409Y-59982D01*
X38380Y-60011D01*
X38366Y-60054D01*
X38366Y-60082D01*
X38380Y-60125D01*
X38395Y-60140D01*
X38666Y-60425D02*
X38666Y-60254D01*
X38666Y-60340D02*
X38366Y-60340D01*
X38409Y-60311D01*
X38437Y-60282D01*
X38452Y-60254D01*
G54D15*
X73771Y-50890D02*
X73781Y-50900D01*
X73809Y-50909D01*
X73827Y-50909D01*
X73856Y-50900D01*
X73874Y-50881D01*
X73884Y-50862D01*
X73893Y-50825D01*
X73893Y-50797D01*
X73884Y-50759D01*
X73874Y-50740D01*
X73856Y-50722D01*
X73827Y-50712D01*
X73809Y-50712D01*
X73781Y-50722D01*
X73771Y-50731D01*
X73584Y-50909D02*
X73696Y-50909D01*
X73640Y-50909D02*
X73640Y-50712D01*
X73659Y-50740D01*
X73677Y-50759D01*
X73696Y-50769D01*
X73405Y-50712D02*
X73499Y-50712D01*
X73508Y-50806D01*
X73499Y-50797D01*
X73480Y-50787D01*
X73433Y-50787D01*
X73415Y-50797D01*
X73405Y-50806D01*
X73396Y-50825D01*
X73396Y-50872D01*
X73405Y-50890D01*
X73415Y-50900D01*
X73433Y-50909D01*
X73480Y-50909D01*
X73499Y-50900D01*
X73508Y-50890D01*
X65336Y-48245D02*
X65346Y-48255D01*
X65374Y-48264D01*
X65392Y-48264D01*
X65421Y-48255D01*
X65439Y-48236D01*
X65449Y-48217D01*
X65458Y-48180D01*
X65458Y-48152D01*
X65449Y-48114D01*
X65439Y-48095D01*
X65421Y-48077D01*
X65392Y-48067D01*
X65374Y-48067D01*
X65346Y-48077D01*
X65336Y-48086D01*
X65149Y-48264D02*
X65261Y-48264D01*
X65205Y-48264D02*
X65205Y-48067D01*
X65224Y-48095D01*
X65242Y-48114D01*
X65261Y-48124D01*
X64980Y-48133D02*
X64980Y-48264D01*
X65027Y-48058D02*
X65073Y-48199D01*
X64952Y-48199D01*
X68475Y-51148D02*
X68485Y-51138D01*
X68494Y-51110D01*
X68494Y-51092D01*
X68485Y-51063D01*
X68466Y-51045D01*
X68447Y-51035D01*
X68410Y-51026D01*
X68382Y-51026D01*
X68344Y-51035D01*
X68325Y-51045D01*
X68307Y-51063D01*
X68297Y-51092D01*
X68297Y-51110D01*
X68307Y-51138D01*
X68316Y-51148D01*
X68494Y-51335D02*
X68494Y-51223D01*
X68494Y-51279D02*
X68297Y-51279D01*
X68325Y-51260D01*
X68344Y-51242D01*
X68354Y-51223D01*
X68494Y-51429D02*
X68494Y-51467D01*
X68485Y-51486D01*
X68475Y-51495D01*
X68447Y-51514D01*
X68410Y-51523D01*
X68335Y-51523D01*
X68316Y-51514D01*
X68307Y-51504D01*
X68297Y-51486D01*
X68297Y-51448D01*
X68307Y-51429D01*
X68316Y-51420D01*
X68335Y-51411D01*
X68382Y-51411D01*
X68400Y-51420D01*
X68410Y-51429D01*
X68419Y-51448D01*
X68419Y-51486D01*
X68410Y-51504D01*
X68400Y-51514D01*
X68382Y-51523D01*
X73895Y-57413D02*
X73905Y-57403D01*
X73914Y-57375D01*
X73914Y-57357D01*
X73905Y-57328D01*
X73886Y-57310D01*
X73867Y-57300D01*
X73830Y-57291D01*
X73802Y-57291D01*
X73764Y-57300D01*
X73745Y-57310D01*
X73727Y-57328D01*
X73717Y-57357D01*
X73717Y-57375D01*
X73727Y-57403D01*
X73736Y-57413D01*
X73914Y-57600D02*
X73914Y-57488D01*
X73914Y-57544D02*
X73717Y-57544D01*
X73745Y-57525D01*
X73764Y-57507D01*
X73774Y-57488D01*
X73717Y-57769D02*
X73717Y-57732D01*
X73727Y-57713D01*
X73736Y-57704D01*
X73764Y-57685D01*
X73802Y-57676D01*
X73877Y-57676D01*
X73895Y-57685D01*
X73905Y-57694D01*
X73914Y-57713D01*
X73914Y-57751D01*
X73905Y-57769D01*
X73895Y-57779D01*
X73877Y-57788D01*
X73830Y-57788D01*
X73811Y-57779D01*
X73802Y-57769D01*
X73792Y-57751D01*
X73792Y-57713D01*
X73802Y-57694D01*
X73811Y-57685D01*
X73830Y-57676D01*
X71790Y-57408D02*
X71800Y-57398D01*
X71809Y-57370D01*
X71809Y-57352D01*
X71800Y-57323D01*
X71781Y-57305D01*
X71762Y-57295D01*
X71725Y-57286D01*
X71697Y-57286D01*
X71659Y-57295D01*
X71640Y-57305D01*
X71622Y-57323D01*
X71612Y-57352D01*
X71612Y-57370D01*
X71622Y-57398D01*
X71631Y-57408D01*
X71809Y-57595D02*
X71809Y-57483D01*
X71809Y-57539D02*
X71612Y-57539D01*
X71640Y-57520D01*
X71659Y-57502D01*
X71669Y-57483D01*
X71612Y-57661D02*
X71612Y-57792D01*
X71809Y-57708D01*
X73066Y-52760D02*
X73076Y-52770D01*
X73104Y-52779D01*
X73122Y-52779D01*
X73151Y-52770D01*
X73169Y-52751D01*
X73179Y-52732D01*
X73188Y-52695D01*
X73188Y-52667D01*
X73179Y-52629D01*
X73169Y-52610D01*
X73151Y-52592D01*
X73122Y-52582D01*
X73104Y-52582D01*
X73076Y-52592D01*
X73066Y-52601D01*
X72879Y-52779D02*
X72991Y-52779D01*
X72935Y-52779D02*
X72935Y-52582D01*
X72954Y-52610D01*
X72972Y-52629D01*
X72991Y-52639D01*
X72766Y-52667D02*
X72785Y-52657D01*
X72794Y-52648D01*
X72803Y-52629D01*
X72803Y-52620D01*
X72794Y-52601D01*
X72785Y-52592D01*
X72766Y-52582D01*
X72728Y-52582D01*
X72710Y-52592D01*
X72700Y-52601D01*
X72691Y-52620D01*
X72691Y-52629D01*
X72700Y-52648D01*
X72710Y-52657D01*
X72728Y-52667D01*
X72766Y-52667D01*
X72785Y-52676D01*
X72794Y-52685D01*
X72803Y-52704D01*
X72803Y-52742D01*
X72794Y-52760D01*
X72785Y-52770D01*
X72766Y-52779D01*
X72728Y-52779D01*
X72710Y-52770D01*
X72700Y-52760D01*
X72691Y-52742D01*
X72691Y-52704D01*
X72700Y-52685D01*
X72710Y-52676D01*
X72728Y-52667D01*
X86214Y-54013D02*
X86120Y-53947D01*
X86214Y-53900D02*
X86017Y-53900D01*
X86017Y-53975D01*
X86027Y-53994D01*
X86036Y-54003D01*
X86055Y-54013D01*
X86083Y-54013D01*
X86102Y-54003D01*
X86111Y-53994D01*
X86120Y-53975D01*
X86120Y-53900D01*
X86083Y-54182D02*
X86214Y-54182D01*
X86008Y-54135D02*
X86149Y-54088D01*
X86149Y-54210D01*
X86102Y-54313D02*
X86092Y-54294D01*
X86083Y-54285D01*
X86064Y-54276D01*
X86055Y-54276D01*
X86036Y-54285D01*
X86027Y-54294D01*
X86017Y-54313D01*
X86017Y-54351D01*
X86027Y-54369D01*
X86036Y-54379D01*
X86055Y-54388D01*
X86064Y-54388D01*
X86083Y-54379D01*
X86092Y-54369D01*
X86102Y-54351D01*
X86102Y-54313D01*
X86111Y-54294D01*
X86120Y-54285D01*
X86139Y-54276D01*
X86177Y-54276D01*
X86195Y-54285D01*
X86205Y-54294D01*
X86214Y-54313D01*
X86214Y-54351D01*
X86205Y-54369D01*
X86195Y-54379D01*
X86177Y-54388D01*
X86139Y-54388D01*
X86120Y-54379D01*
X86111Y-54369D01*
X86102Y-54351D01*
X86159Y-52578D02*
X86065Y-52512D01*
X86159Y-52465D02*
X85962Y-52465D01*
X85962Y-52540D01*
X85972Y-52559D01*
X85981Y-52568D01*
X86000Y-52578D01*
X86028Y-52578D01*
X86047Y-52568D01*
X86056Y-52559D01*
X86065Y-52540D01*
X86065Y-52465D01*
X86028Y-52747D02*
X86159Y-52747D01*
X85953Y-52700D02*
X86094Y-52653D01*
X86094Y-52775D01*
X86159Y-52859D02*
X86159Y-52897D01*
X86150Y-52916D01*
X86140Y-52925D01*
X86112Y-52944D01*
X86075Y-52953D01*
X86000Y-52953D01*
X85981Y-52944D01*
X85972Y-52934D01*
X85962Y-52916D01*
X85962Y-52878D01*
X85972Y-52859D01*
X85981Y-52850D01*
X86000Y-52841D01*
X86047Y-52841D01*
X86065Y-52850D01*
X86075Y-52859D01*
X86084Y-52878D01*
X86084Y-52916D01*
X86075Y-52934D01*
X86065Y-52944D01*
X86047Y-52953D01*
X80781Y-52409D02*
X80847Y-52315D01*
X80894Y-52409D02*
X80894Y-52212D01*
X80819Y-52212D01*
X80800Y-52222D01*
X80791Y-52231D01*
X80781Y-52250D01*
X80781Y-52278D01*
X80791Y-52297D01*
X80800Y-52306D01*
X80819Y-52315D01*
X80894Y-52315D01*
X80603Y-52212D02*
X80697Y-52212D01*
X80706Y-52306D01*
X80697Y-52297D01*
X80678Y-52287D01*
X80631Y-52287D01*
X80612Y-52297D01*
X80603Y-52306D01*
X80594Y-52325D01*
X80594Y-52372D01*
X80603Y-52390D01*
X80612Y-52400D01*
X80631Y-52409D01*
X80678Y-52409D01*
X80697Y-52400D01*
X80706Y-52390D01*
X80406Y-52409D02*
X80518Y-52409D01*
X80462Y-52409D02*
X80462Y-52212D01*
X80481Y-52240D01*
X80500Y-52259D01*
X80518Y-52269D01*
X81889Y-53603D02*
X81795Y-53537D01*
X81889Y-53490D02*
X81692Y-53490D01*
X81692Y-53565D01*
X81702Y-53584D01*
X81711Y-53593D01*
X81730Y-53603D01*
X81758Y-53603D01*
X81777Y-53593D01*
X81786Y-53584D01*
X81795Y-53565D01*
X81795Y-53490D01*
X81692Y-53781D02*
X81692Y-53687D01*
X81786Y-53678D01*
X81777Y-53687D01*
X81767Y-53706D01*
X81767Y-53753D01*
X81777Y-53772D01*
X81786Y-53781D01*
X81805Y-53790D01*
X81852Y-53790D01*
X81870Y-53781D01*
X81880Y-53772D01*
X81889Y-53753D01*
X81889Y-53706D01*
X81880Y-53687D01*
X81870Y-53678D01*
X81692Y-53912D02*
X81692Y-53931D01*
X81702Y-53950D01*
X81711Y-53959D01*
X81730Y-53969D01*
X81767Y-53978D01*
X81814Y-53978D01*
X81852Y-53969D01*
X81870Y-53959D01*
X81880Y-53950D01*
X81889Y-53931D01*
X81889Y-53912D01*
X81880Y-53894D01*
X81870Y-53884D01*
X81852Y-53875D01*
X81814Y-53866D01*
X81767Y-53866D01*
X81730Y-53875D01*
X81711Y-53884D01*
X81702Y-53894D01*
X81692Y-53912D01*
X66569Y-51193D02*
X66475Y-51127D01*
X66569Y-51080D02*
X66372Y-51080D01*
X66372Y-51155D01*
X66382Y-51174D01*
X66391Y-51183D01*
X66410Y-51193D01*
X66438Y-51193D01*
X66457Y-51183D01*
X66466Y-51174D01*
X66475Y-51155D01*
X66475Y-51080D01*
X66438Y-51362D02*
X66569Y-51362D01*
X66363Y-51315D02*
X66504Y-51268D01*
X66504Y-51390D01*
X66372Y-51502D02*
X66372Y-51521D01*
X66382Y-51540D01*
X66391Y-51549D01*
X66410Y-51559D01*
X66447Y-51568D01*
X66494Y-51568D01*
X66532Y-51559D01*
X66550Y-51549D01*
X66560Y-51540D01*
X66569Y-51521D01*
X66569Y-51502D01*
X66560Y-51484D01*
X66550Y-51474D01*
X66532Y-51465D01*
X66494Y-51456D01*
X66447Y-51456D01*
X66410Y-51465D01*
X66391Y-51474D01*
X66382Y-51484D01*
X66372Y-51502D01*
X67631Y-52919D02*
X67697Y-52825D01*
X67744Y-52919D02*
X67744Y-52722D01*
X67669Y-52722D01*
X67650Y-52732D01*
X67641Y-52741D01*
X67631Y-52760D01*
X67631Y-52788D01*
X67641Y-52807D01*
X67650Y-52816D01*
X67669Y-52825D01*
X67744Y-52825D01*
X67462Y-52788D02*
X67462Y-52919D01*
X67509Y-52713D02*
X67556Y-52854D01*
X67434Y-52854D01*
X67256Y-52919D02*
X67368Y-52919D01*
X67312Y-52919D02*
X67312Y-52722D01*
X67331Y-52750D01*
X67350Y-52769D01*
X67368Y-52779D01*
X69854Y-52083D02*
X69760Y-52017D01*
X69854Y-51970D02*
X69657Y-51970D01*
X69657Y-52045D01*
X69667Y-52064D01*
X69676Y-52073D01*
X69695Y-52083D01*
X69723Y-52083D01*
X69742Y-52073D01*
X69751Y-52064D01*
X69760Y-52045D01*
X69760Y-51970D01*
X69657Y-52149D02*
X69657Y-52270D01*
X69732Y-52205D01*
X69732Y-52233D01*
X69742Y-52252D01*
X69751Y-52261D01*
X69770Y-52270D01*
X69817Y-52270D01*
X69835Y-52261D01*
X69845Y-52252D01*
X69854Y-52233D01*
X69854Y-52177D01*
X69845Y-52158D01*
X69835Y-52149D01*
X69854Y-52364D02*
X69854Y-52402D01*
X69845Y-52421D01*
X69835Y-52430D01*
X69807Y-52449D01*
X69770Y-52458D01*
X69695Y-52458D01*
X69676Y-52449D01*
X69667Y-52439D01*
X69657Y-52421D01*
X69657Y-52383D01*
X69667Y-52364D01*
X69676Y-52355D01*
X69695Y-52346D01*
X69742Y-52346D01*
X69760Y-52355D01*
X69770Y-52364D01*
X69779Y-52383D01*
X69779Y-52421D01*
X69770Y-52439D01*
X69760Y-52449D01*
X69742Y-52458D01*
X71586Y-52794D02*
X71652Y-52700D01*
X71699Y-52794D02*
X71699Y-52597D01*
X71624Y-52597D01*
X71605Y-52607D01*
X71596Y-52616D01*
X71586Y-52635D01*
X71586Y-52663D01*
X71596Y-52682D01*
X71605Y-52691D01*
X71624Y-52700D01*
X71699Y-52700D01*
X71520Y-52597D02*
X71399Y-52597D01*
X71464Y-52672D01*
X71436Y-52672D01*
X71417Y-52682D01*
X71408Y-52691D01*
X71399Y-52710D01*
X71399Y-52757D01*
X71408Y-52775D01*
X71417Y-52785D01*
X71436Y-52794D01*
X71492Y-52794D01*
X71511Y-52785D01*
X71520Y-52775D01*
X71286Y-52682D02*
X71305Y-52672D01*
X71314Y-52663D01*
X71323Y-52644D01*
X71323Y-52635D01*
X71314Y-52616D01*
X71305Y-52607D01*
X71286Y-52597D01*
X71248Y-52597D01*
X71230Y-52607D01*
X71220Y-52616D01*
X71211Y-52635D01*
X71211Y-52644D01*
X71220Y-52663D01*
X71230Y-52672D01*
X71248Y-52682D01*
X71286Y-52682D01*
X71305Y-52691D01*
X71314Y-52700D01*
X71323Y-52719D01*
X71323Y-52757D01*
X71314Y-52775D01*
X71305Y-52785D01*
X71286Y-52794D01*
X71248Y-52794D01*
X71230Y-52785D01*
X71220Y-52775D01*
X71211Y-52757D01*
X71211Y-52719D01*
X71220Y-52700D01*
X71230Y-52691D01*
X71248Y-52682D01*
X71846Y-50819D02*
X71912Y-50725D01*
X71959Y-50819D02*
X71959Y-50622D01*
X71884Y-50622D01*
X71865Y-50632D01*
X71856Y-50641D01*
X71846Y-50660D01*
X71846Y-50688D01*
X71856Y-50707D01*
X71865Y-50716D01*
X71884Y-50725D01*
X71959Y-50725D01*
X71780Y-50622D02*
X71659Y-50622D01*
X71724Y-50697D01*
X71696Y-50697D01*
X71677Y-50707D01*
X71668Y-50716D01*
X71659Y-50735D01*
X71659Y-50782D01*
X71668Y-50800D01*
X71677Y-50810D01*
X71696Y-50819D01*
X71752Y-50819D01*
X71771Y-50810D01*
X71780Y-50800D01*
X71490Y-50688D02*
X71490Y-50819D01*
X71537Y-50613D02*
X71583Y-50754D01*
X71462Y-50754D01*
X64519Y-50233D02*
X64425Y-50167D01*
X64519Y-50120D02*
X64322Y-50120D01*
X64322Y-50195D01*
X64332Y-50214D01*
X64341Y-50223D01*
X64360Y-50233D01*
X64388Y-50233D01*
X64407Y-50223D01*
X64416Y-50214D01*
X64425Y-50195D01*
X64425Y-50120D01*
X64322Y-50299D02*
X64322Y-50420D01*
X64397Y-50355D01*
X64397Y-50383D01*
X64407Y-50402D01*
X64416Y-50411D01*
X64435Y-50420D01*
X64482Y-50420D01*
X64500Y-50411D01*
X64510Y-50402D01*
X64519Y-50383D01*
X64519Y-50327D01*
X64510Y-50308D01*
X64500Y-50299D01*
X64322Y-50589D02*
X64322Y-50552D01*
X64332Y-50533D01*
X64341Y-50524D01*
X64369Y-50505D01*
X64407Y-50496D01*
X64482Y-50496D01*
X64500Y-50505D01*
X64510Y-50514D01*
X64519Y-50533D01*
X64519Y-50571D01*
X64510Y-50589D01*
X64500Y-50599D01*
X64482Y-50608D01*
X64435Y-50608D01*
X64416Y-50599D01*
X64407Y-50589D01*
X64397Y-50571D01*
X64397Y-50533D01*
X64407Y-50514D01*
X64416Y-50505D01*
X64435Y-50496D01*
G54D14*
X60601Y-64406D02*
X60207Y-64406D01*
X60207Y-64500D01*
X60226Y-64556D01*
X60263Y-64594D01*
X60301Y-64612D01*
X60376Y-64631D01*
X60432Y-64631D01*
X60507Y-64612D01*
X60544Y-64594D01*
X60582Y-64556D01*
X60601Y-64500D01*
X60601Y-64406D01*
X60338Y-64969D02*
X60601Y-64969D01*
X60188Y-64875D02*
X60469Y-64781D01*
X60469Y-65025D01*
G54D15*
X87625Y-64112D02*
X87635Y-64102D01*
X87644Y-64074D01*
X87644Y-64055D01*
X87635Y-64027D01*
X87616Y-64008D01*
X87597Y-63999D01*
X87560Y-63990D01*
X87532Y-63990D01*
X87494Y-63999D01*
X87475Y-64008D01*
X87457Y-64027D01*
X87447Y-64055D01*
X87447Y-64074D01*
X87457Y-64102D01*
X87466Y-64112D01*
X87447Y-64290D02*
X87447Y-64196D01*
X87541Y-64187D01*
X87532Y-64196D01*
X87522Y-64215D01*
X87522Y-64262D01*
X87532Y-64281D01*
X87541Y-64290D01*
X87560Y-64299D01*
X87607Y-64299D01*
X87625Y-64290D01*
X87635Y-64281D01*
X87644Y-64262D01*
X87644Y-64215D01*
X87635Y-64196D01*
X87625Y-64187D01*
X76295Y-53563D02*
X76305Y-53553D01*
X76314Y-53525D01*
X76314Y-53507D01*
X76305Y-53478D01*
X76286Y-53460D01*
X76267Y-53450D01*
X76230Y-53441D01*
X76202Y-53441D01*
X76164Y-53450D01*
X76145Y-53460D01*
X76127Y-53478D01*
X76117Y-53507D01*
X76117Y-53525D01*
X76127Y-53553D01*
X76136Y-53563D01*
X76136Y-53638D02*
X76127Y-53647D01*
X76117Y-53666D01*
X76117Y-53713D01*
X76127Y-53732D01*
X76136Y-53741D01*
X76155Y-53750D01*
X76174Y-53750D01*
X76202Y-53741D01*
X76314Y-53629D01*
X76314Y-53750D01*
X76117Y-53872D02*
X76117Y-53891D01*
X76127Y-53910D01*
X76136Y-53919D01*
X76155Y-53929D01*
X76192Y-53938D01*
X76239Y-53938D01*
X76277Y-53929D01*
X76295Y-53919D01*
X76305Y-53910D01*
X76314Y-53891D01*
X76314Y-53872D01*
X76305Y-53854D01*
X76295Y-53844D01*
X76277Y-53835D01*
X76239Y-53826D01*
X76192Y-53826D01*
X76155Y-53835D01*
X76136Y-53844D01*
X76127Y-53854D01*
X76117Y-53872D01*
X84126Y-56355D02*
X84136Y-56365D01*
X84164Y-56374D01*
X84182Y-56374D01*
X84211Y-56365D01*
X84229Y-56346D01*
X84239Y-56327D01*
X84248Y-56290D01*
X84248Y-56262D01*
X84239Y-56224D01*
X84229Y-56205D01*
X84211Y-56187D01*
X84182Y-56177D01*
X84164Y-56177D01*
X84136Y-56187D01*
X84126Y-56196D01*
X84051Y-56196D02*
X84042Y-56187D01*
X84023Y-56177D01*
X83976Y-56177D01*
X83957Y-56187D01*
X83948Y-56196D01*
X83939Y-56215D01*
X83939Y-56234D01*
X83948Y-56262D01*
X84060Y-56374D01*
X83939Y-56374D01*
X83751Y-56374D02*
X83863Y-56374D01*
X83807Y-56374D02*
X83807Y-56177D01*
X83826Y-56205D01*
X83845Y-56224D01*
X83863Y-56234D01*
X90654Y-61298D02*
X90560Y-61232D01*
X90654Y-61185D02*
X90457Y-61185D01*
X90457Y-61260D01*
X90467Y-61279D01*
X90476Y-61288D01*
X90495Y-61298D01*
X90523Y-61298D01*
X90542Y-61288D01*
X90551Y-61279D01*
X90560Y-61260D01*
X90560Y-61185D01*
X90457Y-61476D02*
X90457Y-61382D01*
X90551Y-61373D01*
X90542Y-61382D01*
X90532Y-61401D01*
X90532Y-61448D01*
X90542Y-61467D01*
X90551Y-61476D01*
X90570Y-61485D01*
X90617Y-61485D01*
X90635Y-61476D01*
X90645Y-61467D01*
X90654Y-61448D01*
X90654Y-61401D01*
X90645Y-61382D01*
X90635Y-61373D01*
X90476Y-61561D02*
X90467Y-61570D01*
X90457Y-61589D01*
X90457Y-61636D01*
X90467Y-61654D01*
X90476Y-61664D01*
X90495Y-61673D01*
X90514Y-61673D01*
X90542Y-61664D01*
X90654Y-61551D01*
X90654Y-61673D01*
G54D12*
X87672Y-48407D02*
X87687Y-48422D01*
X87730Y-48436D01*
X87758Y-48436D01*
X87801Y-48422D01*
X87830Y-48393D01*
X87844Y-48365D01*
X87858Y-48307D01*
X87858Y-48265D01*
X87844Y-48207D01*
X87830Y-48179D01*
X87801Y-48150D01*
X87758Y-48136D01*
X87730Y-48136D01*
X87687Y-48150D01*
X87672Y-48165D01*
X87558Y-48165D02*
X87544Y-48150D01*
X87515Y-48136D01*
X87444Y-48136D01*
X87415Y-48150D01*
X87401Y-48165D01*
X87387Y-48193D01*
X87387Y-48222D01*
X87401Y-48265D01*
X87572Y-48436D01*
X87387Y-48436D01*
X87115Y-48136D02*
X87258Y-48136D01*
X87272Y-48279D01*
X87258Y-48265D01*
X87230Y-48250D01*
X87158Y-48250D01*
X87130Y-48265D01*
X87115Y-48279D01*
X87101Y-48307D01*
X87101Y-48379D01*
X87115Y-48407D01*
X87130Y-48422D01*
X87158Y-48436D01*
X87230Y-48436D01*
X87258Y-48422D01*
X87272Y-48407D01*
X87657Y-51482D02*
X87672Y-51497D01*
X87715Y-51511D01*
X87743Y-51511D01*
X87786Y-51497D01*
X87815Y-51468D01*
X87829Y-51440D01*
X87843Y-51382D01*
X87843Y-51340D01*
X87829Y-51282D01*
X87815Y-51254D01*
X87786Y-51225D01*
X87743Y-51211D01*
X87715Y-51211D01*
X87672Y-51225D01*
X87657Y-51240D01*
X87543Y-51240D02*
X87529Y-51225D01*
X87500Y-51211D01*
X87429Y-51211D01*
X87400Y-51225D01*
X87386Y-51240D01*
X87372Y-51268D01*
X87372Y-51297D01*
X87386Y-51340D01*
X87557Y-51511D01*
X87372Y-51511D01*
X87115Y-51311D02*
X87115Y-51511D01*
X87186Y-51197D02*
X87257Y-51411D01*
X87072Y-51411D01*
X87957Y-52937D02*
X87972Y-52952D01*
X88015Y-52966D01*
X88043Y-52966D01*
X88086Y-52952D01*
X88115Y-52923D01*
X88129Y-52895D01*
X88143Y-52837D01*
X88143Y-52795D01*
X88129Y-52737D01*
X88115Y-52709D01*
X88086Y-52680D01*
X88043Y-52666D01*
X88015Y-52666D01*
X87972Y-52680D01*
X87957Y-52695D01*
X87843Y-52695D02*
X87829Y-52680D01*
X87800Y-52666D01*
X87729Y-52666D01*
X87700Y-52680D01*
X87686Y-52695D01*
X87672Y-52723D01*
X87672Y-52752D01*
X87686Y-52795D01*
X87857Y-52966D01*
X87672Y-52966D01*
X87557Y-52695D02*
X87543Y-52680D01*
X87515Y-52666D01*
X87443Y-52666D01*
X87415Y-52680D01*
X87400Y-52695D01*
X87386Y-52723D01*
X87386Y-52752D01*
X87400Y-52795D01*
X87572Y-52966D01*
X87386Y-52966D01*
G54D15*
X67196Y-59540D02*
X67206Y-59550D01*
X67234Y-59559D01*
X67252Y-59559D01*
X67281Y-59550D01*
X67299Y-59531D01*
X67309Y-59512D01*
X67318Y-59475D01*
X67318Y-59447D01*
X67309Y-59409D01*
X67299Y-59390D01*
X67281Y-59372D01*
X67252Y-59362D01*
X67234Y-59362D01*
X67206Y-59372D01*
X67196Y-59381D01*
X67121Y-59381D02*
X67112Y-59372D01*
X67093Y-59362D01*
X67046Y-59362D01*
X67027Y-59372D01*
X67018Y-59381D01*
X67009Y-59400D01*
X67009Y-59419D01*
X67018Y-59447D01*
X67130Y-59559D01*
X67009Y-59559D01*
X66840Y-59362D02*
X66877Y-59362D01*
X66896Y-59372D01*
X66905Y-59381D01*
X66924Y-59409D01*
X66933Y-59447D01*
X66933Y-59522D01*
X66924Y-59540D01*
X66915Y-59550D01*
X66896Y-59559D01*
X66858Y-59559D01*
X66840Y-59550D01*
X66830Y-59540D01*
X66821Y-59522D01*
X66821Y-59475D01*
X66830Y-59456D01*
X66840Y-59447D01*
X66858Y-59437D01*
X66896Y-59437D01*
X66915Y-59447D01*
X66924Y-59456D01*
X66933Y-59475D01*
X66076Y-56680D02*
X66086Y-56690D01*
X66114Y-56699D01*
X66132Y-56699D01*
X66161Y-56690D01*
X66179Y-56671D01*
X66189Y-56652D01*
X66198Y-56615D01*
X66198Y-56587D01*
X66189Y-56549D01*
X66179Y-56530D01*
X66161Y-56512D01*
X66132Y-56502D01*
X66114Y-56502D01*
X66086Y-56512D01*
X66076Y-56521D01*
X66001Y-56521D02*
X65992Y-56512D01*
X65973Y-56502D01*
X65926Y-56502D01*
X65907Y-56512D01*
X65898Y-56521D01*
X65889Y-56540D01*
X65889Y-56559D01*
X65898Y-56587D01*
X66010Y-56699D01*
X65889Y-56699D01*
X65823Y-56502D02*
X65692Y-56502D01*
X65776Y-56699D01*
X85710Y-57766D02*
X85776Y-57672D01*
X85823Y-57766D02*
X85823Y-57569D01*
X85748Y-57569D01*
X85729Y-57579D01*
X85720Y-57588D01*
X85710Y-57607D01*
X85710Y-57635D01*
X85720Y-57654D01*
X85729Y-57663D01*
X85748Y-57672D01*
X85823Y-57672D01*
X85532Y-57569D02*
X85626Y-57569D01*
X85635Y-57663D01*
X85626Y-57654D01*
X85607Y-57644D01*
X85560Y-57644D01*
X85541Y-57654D01*
X85532Y-57663D01*
X85523Y-57682D01*
X85523Y-57729D01*
X85532Y-57747D01*
X85541Y-57757D01*
X85560Y-57766D01*
X85607Y-57766D01*
X85626Y-57757D01*
X85635Y-57747D01*
X85354Y-57635D02*
X85354Y-57766D01*
X85401Y-57560D02*
X85447Y-57701D01*
X85326Y-57701D01*
X79758Y-59117D02*
X79824Y-59023D01*
X79871Y-59117D02*
X79871Y-58920D01*
X79796Y-58920D01*
X79777Y-58930D01*
X79768Y-58939D01*
X79758Y-58958D01*
X79758Y-58986D01*
X79768Y-59005D01*
X79777Y-59014D01*
X79796Y-59023D01*
X79871Y-59023D01*
X79580Y-58920D02*
X79674Y-58920D01*
X79683Y-59014D01*
X79674Y-59005D01*
X79655Y-58995D01*
X79608Y-58995D01*
X79589Y-59005D01*
X79580Y-59014D01*
X79571Y-59033D01*
X79571Y-59080D01*
X79580Y-59098D01*
X79589Y-59108D01*
X79608Y-59117D01*
X79655Y-59117D01*
X79674Y-59108D01*
X79683Y-59098D01*
X79392Y-58920D02*
X79486Y-58920D01*
X79495Y-59014D01*
X79486Y-59005D01*
X79467Y-58995D01*
X79420Y-58995D01*
X79402Y-59005D01*
X79392Y-59014D01*
X79383Y-59033D01*
X79383Y-59080D01*
X79392Y-59098D01*
X79402Y-59108D01*
X79420Y-59117D01*
X79467Y-59117D01*
X79486Y-59108D01*
X79495Y-59098D01*
X51134Y-53898D02*
X51040Y-53832D01*
X51134Y-53785D02*
X50937Y-53785D01*
X50937Y-53860D01*
X50947Y-53879D01*
X50956Y-53888D01*
X50975Y-53898D01*
X51003Y-53898D01*
X51022Y-53888D01*
X51031Y-53879D01*
X51040Y-53860D01*
X51040Y-53785D01*
X51134Y-54085D02*
X51134Y-53973D01*
X51134Y-54029D02*
X50937Y-54029D01*
X50965Y-54010D01*
X50984Y-53992D01*
X50994Y-53973D01*
X50937Y-54254D02*
X50937Y-54217D01*
X50947Y-54198D01*
X50956Y-54189D01*
X50984Y-54170D01*
X51022Y-54161D01*
X51097Y-54161D01*
X51115Y-54170D01*
X51125Y-54179D01*
X51134Y-54198D01*
X51134Y-54236D01*
X51125Y-54254D01*
X51115Y-54264D01*
X51097Y-54273D01*
X51050Y-54273D01*
X51031Y-54264D01*
X51022Y-54254D01*
X51012Y-54236D01*
X51012Y-54198D01*
X51022Y-54179D01*
X51031Y-54170D01*
X51050Y-54161D01*
X56704Y-53918D02*
X56610Y-53852D01*
X56704Y-53805D02*
X56507Y-53805D01*
X56507Y-53880D01*
X56517Y-53899D01*
X56526Y-53908D01*
X56545Y-53918D01*
X56573Y-53918D01*
X56592Y-53908D01*
X56601Y-53899D01*
X56610Y-53880D01*
X56610Y-53805D01*
X56573Y-54087D02*
X56704Y-54087D01*
X56498Y-54040D02*
X56639Y-53993D01*
X56639Y-54115D01*
X56526Y-54181D02*
X56517Y-54190D01*
X56507Y-54209D01*
X56507Y-54256D01*
X56517Y-54274D01*
X56526Y-54284D01*
X56545Y-54293D01*
X56564Y-54293D01*
X56592Y-54284D01*
X56704Y-54171D01*
X56704Y-54293D01*
X53224Y-53888D02*
X53130Y-53822D01*
X53224Y-53775D02*
X53027Y-53775D01*
X53027Y-53850D01*
X53037Y-53869D01*
X53046Y-53878D01*
X53065Y-53888D01*
X53093Y-53888D01*
X53112Y-53878D01*
X53121Y-53869D01*
X53130Y-53850D01*
X53130Y-53775D01*
X53224Y-54075D02*
X53224Y-53963D01*
X53224Y-54019D02*
X53027Y-54019D01*
X53055Y-54000D01*
X53074Y-53982D01*
X53084Y-53963D01*
X53112Y-54188D02*
X53102Y-54169D01*
X53093Y-54160D01*
X53074Y-54151D01*
X53065Y-54151D01*
X53046Y-54160D01*
X53037Y-54169D01*
X53027Y-54188D01*
X53027Y-54226D01*
X53037Y-54244D01*
X53046Y-54254D01*
X53065Y-54263D01*
X53074Y-54263D01*
X53093Y-54254D01*
X53102Y-54244D01*
X53112Y-54226D01*
X53112Y-54188D01*
X53121Y-54169D01*
X53130Y-54160D01*
X53149Y-54151D01*
X53187Y-54151D01*
X53205Y-54160D01*
X53215Y-54169D01*
X53224Y-54188D01*
X53224Y-54226D01*
X53215Y-54244D01*
X53205Y-54254D01*
X53187Y-54263D01*
X53149Y-54263D01*
X53130Y-54254D01*
X53121Y-54244D01*
X53112Y-54226D01*
X52164Y-53898D02*
X52070Y-53832D01*
X52164Y-53785D02*
X51967Y-53785D01*
X51967Y-53860D01*
X51977Y-53879D01*
X51986Y-53888D01*
X52005Y-53898D01*
X52033Y-53898D01*
X52052Y-53888D01*
X52061Y-53879D01*
X52070Y-53860D01*
X52070Y-53785D01*
X52164Y-54085D02*
X52164Y-53973D01*
X52164Y-54029D02*
X51967Y-54029D01*
X51995Y-54010D01*
X52014Y-53992D01*
X52024Y-53973D01*
X51967Y-54151D02*
X51967Y-54282D01*
X52164Y-54198D01*
X54694Y-53918D02*
X54600Y-53852D01*
X54694Y-53805D02*
X54497Y-53805D01*
X54497Y-53880D01*
X54507Y-53899D01*
X54516Y-53908D01*
X54535Y-53918D01*
X54563Y-53918D01*
X54582Y-53908D01*
X54591Y-53899D01*
X54600Y-53880D01*
X54600Y-53805D01*
X54694Y-54105D02*
X54694Y-53993D01*
X54694Y-54049D02*
X54497Y-54049D01*
X54525Y-54030D01*
X54544Y-54012D01*
X54554Y-53993D01*
X54694Y-54199D02*
X54694Y-54237D01*
X54685Y-54256D01*
X54675Y-54265D01*
X54647Y-54284D01*
X54610Y-54293D01*
X54535Y-54293D01*
X54516Y-54284D01*
X54507Y-54274D01*
X54497Y-54256D01*
X54497Y-54218D01*
X54507Y-54199D01*
X54516Y-54190D01*
X54535Y-54181D01*
X54582Y-54181D01*
X54600Y-54190D01*
X54610Y-54199D01*
X54619Y-54218D01*
X54619Y-54256D01*
X54610Y-54274D01*
X54600Y-54284D01*
X54582Y-54293D01*
X56694Y-69482D02*
X56600Y-69416D01*
X56694Y-69369D02*
X56497Y-69369D01*
X56497Y-69444D01*
X56507Y-69463D01*
X56516Y-69472D01*
X56535Y-69482D01*
X56563Y-69482D01*
X56582Y-69472D01*
X56591Y-69463D01*
X56600Y-69444D01*
X56600Y-69369D01*
X56694Y-69575D02*
X56694Y-69613D01*
X56685Y-69632D01*
X56675Y-69641D01*
X56647Y-69660D01*
X56610Y-69669D01*
X56535Y-69669D01*
X56516Y-69660D01*
X56507Y-69651D01*
X56497Y-69632D01*
X56497Y-69594D01*
X56507Y-69575D01*
X56516Y-69566D01*
X56535Y-69557D01*
X56582Y-69557D01*
X56600Y-69566D01*
X56610Y-69575D01*
X56619Y-69594D01*
X56619Y-69632D01*
X56610Y-69651D01*
X56600Y-69660D01*
X56582Y-69669D01*
X57774Y-69368D02*
X57680Y-69302D01*
X57774Y-69255D02*
X57577Y-69255D01*
X57577Y-69330D01*
X57587Y-69349D01*
X57596Y-69358D01*
X57615Y-69368D01*
X57643Y-69368D01*
X57662Y-69358D01*
X57671Y-69349D01*
X57680Y-69330D01*
X57680Y-69255D01*
X57774Y-69555D02*
X57774Y-69443D01*
X57774Y-69499D02*
X57577Y-69499D01*
X57605Y-69480D01*
X57624Y-69462D01*
X57634Y-69443D01*
X57577Y-69677D02*
X57577Y-69696D01*
X57587Y-69715D01*
X57596Y-69724D01*
X57615Y-69734D01*
X57652Y-69743D01*
X57699Y-69743D01*
X57737Y-69734D01*
X57755Y-69724D01*
X57765Y-69715D01*
X57774Y-69696D01*
X57774Y-69677D01*
X57765Y-69659D01*
X57755Y-69649D01*
X57737Y-69640D01*
X57699Y-69631D01*
X57652Y-69631D01*
X57615Y-69640D01*
X57596Y-69649D01*
X57587Y-69659D01*
X57577Y-69677D01*
X58734Y-69368D02*
X58640Y-69302D01*
X58734Y-69255D02*
X58537Y-69255D01*
X58537Y-69330D01*
X58547Y-69349D01*
X58556Y-69358D01*
X58575Y-69368D01*
X58603Y-69368D01*
X58622Y-69358D01*
X58631Y-69349D01*
X58640Y-69330D01*
X58640Y-69255D01*
X58734Y-69555D02*
X58734Y-69443D01*
X58734Y-69499D02*
X58537Y-69499D01*
X58565Y-69480D01*
X58584Y-69462D01*
X58594Y-69443D01*
X58734Y-69743D02*
X58734Y-69631D01*
X58734Y-69687D02*
X58537Y-69687D01*
X58565Y-69668D01*
X58584Y-69649D01*
X58594Y-69631D01*
X59734Y-69368D02*
X59640Y-69302D01*
X59734Y-69255D02*
X59537Y-69255D01*
X59537Y-69330D01*
X59547Y-69349D01*
X59556Y-69358D01*
X59575Y-69368D01*
X59603Y-69368D01*
X59622Y-69358D01*
X59631Y-69349D01*
X59640Y-69330D01*
X59640Y-69255D01*
X59734Y-69555D02*
X59734Y-69443D01*
X59734Y-69499D02*
X59537Y-69499D01*
X59565Y-69480D01*
X59584Y-69462D01*
X59594Y-69443D01*
X59556Y-69631D02*
X59547Y-69640D01*
X59537Y-69659D01*
X59537Y-69706D01*
X59547Y-69724D01*
X59556Y-69734D01*
X59575Y-69743D01*
X59594Y-69743D01*
X59622Y-69734D01*
X59734Y-69621D01*
X59734Y-69743D01*
M02*
