M48
INCH,TZ
T10C0.013
T11C0.024
T12C0.031
T13C0.031
T14C0.040
T15C0.043
T16C0.047
T17C0.050
T18C0.051
T19C0.059
T20C0.063
T21C0.063
T22C0.071
T23C0.118
T24C0.125
%
T10
X039500Y-50400
X039500Y-51300
X041565Y-50865
X050725Y-67975
X052920Y-59330
X053100Y-64650
X056110Y-60520
X056150Y-56450
X058160Y-55600
X059130Y-59270
X059150Y-56400
X059390Y-65160
X060090Y-56470
X060090Y-59300
X060460Y-63570
X060520Y-56220
X060650Y-58440
X060660Y-59130
X061850Y-57340
X062200Y-57100
X062550Y-62310
X062590Y-56500
X063830Y-54370
X065186Y-65076
X065210Y-56780
X065387Y-57414
X065700Y-55615
X065880Y-59580
X066090Y-54280
X066255Y-55640
X066569Y-54230
X066805Y-58315
X066940Y-54330
X067385Y-58305
X067460Y-55890
X067590Y-56570
X067610Y-57760
X068150Y-58020
X068610Y-55320
X068936Y-54936
X069104Y-54376
X069600Y-51550
X070112Y-56742
X070280Y-57645
X070525Y-57960
X071449Y-55237
X072268Y-55517
X072268Y-56175
X073702Y-62573
X074184Y-59286
X074934Y-57636
X075502Y-57953
X076181Y-57560
X077460Y-59640
X079650Y-52800
X079975Y-60320
X085526Y-60333
X086450Y-55250
T11
X034400Y-69000
X034600Y-56700
X035600Y-70600
X035790Y-52170
X036500Y-55000
X037775Y-58650
X041300Y-60900
X041400Y-62100
X050700Y-64300
X051300Y-65200
X056000Y-69150
X056645Y-64985
X056840Y-64100
X063000Y-60030
X063620Y-61860
X063855Y-48630
X068590Y-51940
X070956Y-57189
X071865Y-70430
X074516Y-57213
X075315Y-67350
X075960Y-54350
X082080Y-60830
X082530Y-63035
X084590Y-48810
X085480Y-55750
X087225Y-64850
T12
X039223Y-48390
X040797Y-48390
T13
X040010Y-48390
T14
X046375Y-65525
X046375Y-66525
X046500Y-52420
X046700Y-59300
X046700Y-60300
X047500Y-52420
X048100Y-71420
X048500Y-52420
X048700Y-64800
X048725Y-61200
X049100Y-71420
X049500Y-52420
X049700Y-64800
X049725Y-61200
X050100Y-71420
X050500Y-52420
X051100Y-71420
X051500Y-52420
X052100Y-71420
X052500Y-52420
X053100Y-71420
X053500Y-52420
X054100Y-71420
X055100Y-52420
X055100Y-71420
X056100Y-52420
X057100Y-52420
X057100Y-71420
X058100Y-52420
X058100Y-71420
X059100Y-52420
X059100Y-71420
X060100Y-52420
X060100Y-71420
X061100Y-52420
X061100Y-71420
X062100Y-52420
X062100Y-71420
X064600Y-58560
X065600Y-58560
X065860Y-50000
X066860Y-50000
X067860Y-50000
X071295Y-49960
X072295Y-49960
X073295Y-49960
X078255Y-53670
X078562Y-56084
X078562Y-57084
X078562Y-58084
X079255Y-53670
X079562Y-56084
X079562Y-57084
X079562Y-58084
X080255Y-53670
X083060Y-53720
X084060Y-53720
X085060Y-53720
T15
X044611Y-48535
X045595Y-48535
X046579Y-48535
X051441Y-48435
X052425Y-48435
X053409Y-48435
T16
X089015Y-48923
X089015Y-50300
X089015Y-51678
X089015Y-53056
X089015Y-54434
X089015Y-55812
X089015Y-57190
X089015Y-58568
X089015Y-59946
X089015Y-61324
X089015Y-62702
X089015Y-64080
T17
X079325Y-68935
X080125Y-66585
X080125Y-71335
X084925Y-66585
X084925Y-71335
T18
X088845Y-67058
X088845Y-69026
X088845Y-70995
T19
X066845Y-48520
X072315Y-48520
X038396Y-48390
X041624Y-48390
T20
X063510Y-53070
X064110Y-55530
X070665Y-71985
X071294Y-59747
X074325Y-64840
X075790Y-50210
X078780Y-50230
X082380Y-55695
X082920Y-49850
X084810Y-56960
T21
X043666Y-49519
X047524Y-49519
X050496Y-49419
X054354Y-49419
T22
X030480Y-51100
X030480Y-52754
X030480Y-54407
X030480Y-56061
X030480Y-57714
X030480Y-59368
X030480Y-61021
X030480Y-62675
X030480Y-64328
X030480Y-65982
X030480Y-67635
X030480Y-69289
X032645Y-51100
X032645Y-52754
X032645Y-54407
X032645Y-56061
X032645Y-57714
X032645Y-59368
X032645Y-61021
X032645Y-62675
X032645Y-64328
X032645Y-65982
X032645Y-67635
X032645Y-69289
T23
X027600Y-71475
X027606Y-51100
X027606Y-69289
X027615Y-48765
X085855Y-49700
T24
X042600Y-71420
X043100Y-52420
X063100Y-58420
X063100Y-69420
M30

