G04 (created by PCBNEW (2013-07-07 BZR 4022)-stable) date 3/16/2014 11:24:39 PM*
%MOIN*%
G04 Gerber Fmt 3.4, Leading zero omitted, Abs format*
%FSLAX34Y34*%
G01*
G70*
G90*
G04 APERTURE LIST*
%ADD10C,0.006*%
%ADD11C,0.0039*%
%ADD12C,0.00590551*%
%ADD13C,0.005*%
%ADD14C,0.0047*%
%ADD15C,0.0043*%
%ADD16C,0.0051*%
G04 APERTURE END LIST*
G54D10*
G54D11*
X67944Y-55635D02*
G75*
G03X67944Y-55635I-50J0D01*
G74*
G01*
X68344Y-55635D02*
X67944Y-55635D01*
X67944Y-55635D02*
X67944Y-56235D01*
X67944Y-56235D02*
X68344Y-56235D01*
X68744Y-56235D02*
X69144Y-56235D01*
X69144Y-56235D02*
X69144Y-55635D01*
X69144Y-55635D02*
X68744Y-55635D01*
X67950Y-56420D02*
G75*
G03X67950Y-56420I-50J0D01*
G74*
G01*
X68350Y-56420D02*
X67950Y-56420D01*
X67950Y-56420D02*
X67950Y-57020D01*
X67950Y-57020D02*
X68350Y-57020D01*
X68750Y-57020D02*
X69150Y-57020D01*
X69150Y-57020D02*
X69150Y-56420D01*
X69150Y-56420D02*
X68750Y-56420D01*
X86100Y-55900D02*
G75*
G03X86100Y-55900I-50J0D01*
G74*
G01*
X86500Y-55900D02*
X86100Y-55900D01*
X86100Y-55900D02*
X86100Y-56500D01*
X86100Y-56500D02*
X86500Y-56500D01*
X86900Y-56500D02*
X87300Y-56500D01*
X87300Y-56500D02*
X87300Y-55900D01*
X87300Y-55900D02*
X86900Y-55900D01*
G54D12*
X82580Y-67490D02*
X81230Y-67490D01*
X82580Y-69590D02*
X81230Y-69590D01*
X81230Y-69590D02*
X81230Y-67290D01*
X81230Y-67290D02*
X82580Y-67290D01*
X82580Y-67290D02*
X82580Y-69590D01*
G54D11*
X80450Y-67895D02*
G75*
G03X80450Y-67895I-50J0D01*
G74*
G01*
X79950Y-67895D02*
X80350Y-67895D01*
X80350Y-67895D02*
X80350Y-67295D01*
X80350Y-67295D02*
X79950Y-67295D01*
X79550Y-67295D02*
X79150Y-67295D01*
X79150Y-67295D02*
X79150Y-67895D01*
X79150Y-67895D02*
X79550Y-67895D01*
G54D10*
X86300Y-57050D02*
X87100Y-57050D01*
X87100Y-57050D02*
X87100Y-57550D01*
X87100Y-57550D02*
X86300Y-57550D01*
X86300Y-57550D02*
X86300Y-57050D01*
G54D13*
X72322Y-58418D02*
X73222Y-58418D01*
X73222Y-58418D02*
X73222Y-59068D01*
X72322Y-59768D02*
X72322Y-60418D01*
X72322Y-60418D02*
X73222Y-60418D01*
X73222Y-60418D02*
X73222Y-59768D01*
X72322Y-59068D02*
X72322Y-58418D01*
X72511Y-54363D02*
X73411Y-54363D01*
X73411Y-54363D02*
X73411Y-55013D01*
X72511Y-55713D02*
X72511Y-56363D01*
X72511Y-56363D02*
X73411Y-56363D01*
X73411Y-56363D02*
X73411Y-55713D01*
X72511Y-55013D02*
X72511Y-54363D01*
G54D11*
X65500Y-54670D02*
G75*
G03X65500Y-54670I-50J0D01*
G74*
G01*
X65000Y-54670D02*
X65400Y-54670D01*
X65400Y-54670D02*
X65400Y-54070D01*
X65400Y-54070D02*
X65000Y-54070D01*
X64600Y-54070D02*
X64200Y-54070D01*
X64200Y-54070D02*
X64200Y-54670D01*
X64200Y-54670D02*
X64600Y-54670D01*
X78708Y-55230D02*
G75*
G03X78708Y-55230I-50J0D01*
G74*
G01*
X78208Y-55230D02*
X78608Y-55230D01*
X78608Y-55230D02*
X78608Y-54630D01*
X78608Y-54630D02*
X78208Y-54630D01*
X77808Y-54630D02*
X77408Y-54630D01*
X77408Y-54630D02*
X77408Y-55230D01*
X77408Y-55230D02*
X77808Y-55230D01*
X82650Y-54150D02*
G75*
G03X82650Y-54150I-50J0D01*
G74*
G01*
X82600Y-54600D02*
X82600Y-54200D01*
X82600Y-54200D02*
X82000Y-54200D01*
X82000Y-54200D02*
X82000Y-54600D01*
X82000Y-55000D02*
X82000Y-55400D01*
X82000Y-55400D02*
X82600Y-55400D01*
X82600Y-55400D02*
X82600Y-55000D01*
X69400Y-55651D02*
G75*
G03X69400Y-55651I-50J0D01*
G74*
G01*
X69800Y-55651D02*
X69400Y-55651D01*
X69400Y-55651D02*
X69400Y-56251D01*
X69400Y-56251D02*
X69800Y-56251D01*
X70200Y-56251D02*
X70600Y-56251D01*
X70600Y-56251D02*
X70600Y-55651D01*
X70600Y-55651D02*
X70200Y-55651D01*
G54D14*
X69213Y-57150D02*
X69213Y-58350D01*
X69213Y-58350D02*
X69513Y-58350D01*
X69513Y-58350D02*
X69513Y-57150D01*
X69513Y-57150D02*
X69213Y-57150D01*
G54D13*
X83175Y-62530D02*
G75*
G03X83175Y-62530I-70J0D01*
G74*
G01*
X83155Y-60630D02*
X83155Y-59980D01*
X83155Y-59980D02*
X84755Y-59980D01*
X84755Y-59980D02*
X84755Y-60630D01*
X84755Y-61830D02*
X84755Y-62480D01*
X84755Y-62480D02*
X83155Y-62480D01*
X83155Y-62480D02*
X83155Y-61830D01*
G54D11*
X82295Y-62480D02*
G75*
G03X82295Y-62480I-50J0D01*
G74*
G01*
X82245Y-62030D02*
X82245Y-62430D01*
X82245Y-62430D02*
X82845Y-62430D01*
X82845Y-62430D02*
X82845Y-62030D01*
X82845Y-61630D02*
X82845Y-61230D01*
X82845Y-61230D02*
X82245Y-61230D01*
X82245Y-61230D02*
X82245Y-61630D01*
X69710Y-59600D02*
G75*
G03X69710Y-59600I-50J0D01*
G74*
G01*
X69660Y-59150D02*
X69660Y-59550D01*
X69660Y-59550D02*
X70260Y-59550D01*
X70260Y-59550D02*
X70260Y-59150D01*
X70260Y-58750D02*
X70260Y-58350D01*
X70260Y-58350D02*
X69660Y-58350D01*
X69660Y-58350D02*
X69660Y-58750D01*
G54D13*
X30170Y-48150D02*
G75*
G03X30170Y-48150I-70J0D01*
G74*
G01*
X32000Y-48200D02*
X32650Y-48200D01*
X32650Y-48200D02*
X32650Y-49800D01*
X32650Y-49800D02*
X32000Y-49800D01*
X30800Y-49800D02*
X30150Y-49800D01*
X30150Y-49800D02*
X30150Y-48200D01*
X30150Y-48200D02*
X30800Y-48200D01*
X36920Y-67700D02*
G75*
G03X36920Y-67700I-70J0D01*
G74*
G01*
X36900Y-65800D02*
X36900Y-65150D01*
X36900Y-65150D02*
X38500Y-65150D01*
X38500Y-65150D02*
X38500Y-65800D01*
X38500Y-67000D02*
X38500Y-67650D01*
X38500Y-67650D02*
X36900Y-67650D01*
X36900Y-67650D02*
X36900Y-67000D01*
X34140Y-69760D02*
G75*
G03X34140Y-69760I-70J0D01*
G74*
G01*
X35970Y-69810D02*
X36620Y-69810D01*
X36620Y-69810D02*
X36620Y-71410D01*
X36620Y-71410D02*
X35970Y-71410D01*
X34770Y-71410D02*
X34120Y-71410D01*
X34120Y-71410D02*
X34120Y-69810D01*
X34120Y-69810D02*
X34770Y-69810D01*
X33820Y-68000D02*
G75*
G03X33820Y-68000I-70J0D01*
G74*
G01*
X33800Y-66100D02*
X33800Y-65450D01*
X33800Y-65450D02*
X35400Y-65450D01*
X35400Y-65450D02*
X35400Y-66100D01*
X35400Y-67300D02*
X35400Y-67950D01*
X35400Y-67950D02*
X33800Y-67950D01*
X33800Y-67950D02*
X33800Y-67300D01*
X38300Y-63900D02*
X37100Y-63900D01*
X37100Y-62450D02*
X37100Y-61700D01*
X37100Y-61700D02*
X38300Y-61700D01*
X38300Y-61700D02*
X38300Y-62450D01*
X38300Y-63100D02*
X38300Y-63900D01*
X38300Y-63821D02*
X37100Y-63821D01*
X37100Y-63900D02*
X37100Y-63100D01*
G54D11*
X41130Y-49455D02*
G75*
G03X41130Y-49455I-50J0D01*
G74*
G01*
X40630Y-49455D02*
X41030Y-49455D01*
X41030Y-49455D02*
X41030Y-48855D01*
X41030Y-48855D02*
X40630Y-48855D01*
X40230Y-48855D02*
X39830Y-48855D01*
X39830Y-48855D02*
X39830Y-49455D01*
X39830Y-49455D02*
X40230Y-49455D01*
G54D13*
X38250Y-61200D02*
X37350Y-61200D01*
X37350Y-61200D02*
X37350Y-60550D01*
X38250Y-59850D02*
X38250Y-59200D01*
X38250Y-59200D02*
X37350Y-59200D01*
X37350Y-59200D02*
X37350Y-59850D01*
X38250Y-60550D02*
X38250Y-61200D01*
G54D11*
X73050Y-51000D02*
G75*
G03X73050Y-51000I-50J0D01*
G74*
G01*
X73450Y-51000D02*
X73050Y-51000D01*
X73050Y-51000D02*
X73050Y-51600D01*
X73050Y-51600D02*
X73450Y-51600D01*
X73850Y-51600D02*
X74250Y-51600D01*
X74250Y-51600D02*
X74250Y-51000D01*
X74250Y-51000D02*
X73850Y-51000D01*
X68200Y-50650D02*
G75*
G03X68200Y-50650I-50J0D01*
G74*
G01*
X68150Y-51100D02*
X68150Y-50700D01*
X68150Y-50700D02*
X67550Y-50700D01*
X67550Y-50700D02*
X67550Y-51100D01*
X67550Y-51500D02*
X67550Y-51900D01*
X67550Y-51900D02*
X68150Y-51900D01*
X68150Y-51900D02*
X68150Y-51500D01*
X67050Y-51300D02*
G75*
G03X67050Y-51300I-50J0D01*
G74*
G01*
X66550Y-51300D02*
X66950Y-51300D01*
X66950Y-51300D02*
X66950Y-50700D01*
X66950Y-50700D02*
X66550Y-50700D01*
X66150Y-50700D02*
X65750Y-50700D01*
X65750Y-50700D02*
X65750Y-51300D01*
X65750Y-51300D02*
X66150Y-51300D01*
X73092Y-58210D02*
G75*
G03X73092Y-58210I-50J0D01*
G74*
G01*
X73042Y-57760D02*
X73042Y-58160D01*
X73042Y-58160D02*
X73642Y-58160D01*
X73642Y-58160D02*
X73642Y-57760D01*
X73642Y-57360D02*
X73642Y-56960D01*
X73642Y-56960D02*
X73042Y-56960D01*
X73042Y-56960D02*
X73042Y-57360D01*
X72554Y-56936D02*
G75*
G03X72554Y-56936I-50J0D01*
G74*
G01*
X72504Y-57386D02*
X72504Y-56986D01*
X72504Y-56986D02*
X71904Y-56986D01*
X71904Y-56986D02*
X71904Y-57386D01*
X71904Y-57786D02*
X71904Y-58186D01*
X71904Y-58186D02*
X72504Y-58186D01*
X72504Y-58186D02*
X72504Y-57786D01*
X72350Y-51900D02*
G75*
G03X72350Y-51900I-50J0D01*
G74*
G01*
X72750Y-51900D02*
X72350Y-51900D01*
X72350Y-51900D02*
X72350Y-52500D01*
X72350Y-52500D02*
X72750Y-52500D01*
X73150Y-52500D02*
X73550Y-52500D01*
X73550Y-52500D02*
X73550Y-51900D01*
X73550Y-51900D02*
X73150Y-51900D01*
X86950Y-53450D02*
G75*
G03X86950Y-53450I-50J0D01*
G74*
G01*
X86900Y-53900D02*
X86900Y-53500D01*
X86900Y-53500D02*
X86300Y-53500D01*
X86300Y-53500D02*
X86300Y-53900D01*
X86300Y-54300D02*
X86300Y-54700D01*
X86300Y-54700D02*
X86900Y-54700D01*
X86900Y-54700D02*
X86900Y-54300D01*
X84100Y-54400D02*
G75*
G03X84100Y-54400I-50J0D01*
G74*
G01*
X84500Y-54400D02*
X84100Y-54400D01*
X84100Y-54400D02*
X84100Y-55000D01*
X84100Y-55000D02*
X84500Y-55000D01*
X84900Y-55000D02*
X85300Y-55000D01*
X85300Y-55000D02*
X85300Y-54400D01*
X85300Y-54400D02*
X84900Y-54400D01*
X81400Y-53100D02*
G75*
G03X81400Y-53100I-50J0D01*
G74*
G01*
X80900Y-53100D02*
X81300Y-53100D01*
X81300Y-53100D02*
X81300Y-52500D01*
X81300Y-52500D02*
X80900Y-52500D01*
X80500Y-52500D02*
X80100Y-52500D01*
X80100Y-52500D02*
X80100Y-53100D01*
X80100Y-53100D02*
X80500Y-53100D01*
X81050Y-54750D02*
G75*
G03X81050Y-54750I-50J0D01*
G74*
G01*
X81000Y-54300D02*
X81000Y-54700D01*
X81000Y-54700D02*
X81600Y-54700D01*
X81600Y-54700D02*
X81600Y-54300D01*
X81600Y-53900D02*
X81600Y-53500D01*
X81600Y-53500D02*
X81000Y-53500D01*
X81000Y-53500D02*
X81000Y-53900D01*
X65750Y-51600D02*
G75*
G03X65750Y-51600I-50J0D01*
G74*
G01*
X66150Y-51600D02*
X65750Y-51600D01*
X65750Y-51600D02*
X65750Y-52200D01*
X65750Y-52200D02*
X66150Y-52200D01*
X66550Y-52200D02*
X66950Y-52200D01*
X66950Y-52200D02*
X66950Y-51600D01*
X66950Y-51600D02*
X66550Y-51600D01*
X65400Y-50950D02*
G75*
G03X65400Y-50950I-50J0D01*
G74*
G01*
X65350Y-51400D02*
X65350Y-51000D01*
X65350Y-51000D02*
X64750Y-51000D01*
X64750Y-51000D02*
X64750Y-51400D01*
X64750Y-51800D02*
X64750Y-52200D01*
X64750Y-52200D02*
X65350Y-52200D01*
X65350Y-52200D02*
X65350Y-51800D01*
X70000Y-52550D02*
G75*
G03X70000Y-52550I-50J0D01*
G74*
G01*
X69950Y-52100D02*
X69950Y-52500D01*
X69950Y-52500D02*
X70550Y-52500D01*
X70550Y-52500D02*
X70550Y-52100D01*
X70550Y-51700D02*
X70550Y-51300D01*
X70550Y-51300D02*
X69950Y-51300D01*
X69950Y-51300D02*
X69950Y-51700D01*
X72150Y-52500D02*
G75*
G03X72150Y-52500I-50J0D01*
G74*
G01*
X71650Y-52500D02*
X72050Y-52500D01*
X72050Y-52500D02*
X72050Y-51900D01*
X72050Y-51900D02*
X71650Y-51900D01*
X71250Y-51900D02*
X70850Y-51900D01*
X70850Y-51900D02*
X70850Y-52500D01*
X70850Y-52500D02*
X71250Y-52500D01*
X72450Y-51500D02*
G75*
G03X72450Y-51500I-50J0D01*
G74*
G01*
X71950Y-51500D02*
X72350Y-51500D01*
X72350Y-51500D02*
X72350Y-50900D01*
X72350Y-50900D02*
X71950Y-50900D01*
X71550Y-50900D02*
X71150Y-50900D01*
X71150Y-50900D02*
X71150Y-51500D01*
X71150Y-51500D02*
X71550Y-51500D01*
X65000Y-49150D02*
G75*
G03X65000Y-49150I-50J0D01*
G74*
G01*
X64950Y-49600D02*
X64950Y-49200D01*
X64950Y-49200D02*
X64350Y-49200D01*
X64350Y-49200D02*
X64350Y-49600D01*
X64350Y-50000D02*
X64350Y-50400D01*
X64350Y-50400D02*
X64950Y-50400D01*
X64950Y-50400D02*
X64950Y-50000D01*
G54D12*
X60047Y-64529D02*
X59772Y-64529D01*
X60038Y-64825D02*
X59792Y-64825D01*
X59792Y-64825D02*
X59900Y-64588D01*
X59900Y-64588D02*
X60038Y-64825D01*
X59910Y-64844D02*
X59910Y-64825D01*
G54D11*
X88400Y-63825D02*
G75*
G03X88400Y-63825I-50J0D01*
G74*
G01*
X88350Y-64275D02*
X88350Y-63875D01*
X88350Y-63875D02*
X87750Y-63875D01*
X87750Y-63875D02*
X87750Y-64275D01*
X87750Y-64675D02*
X87750Y-65075D01*
X87750Y-65075D02*
X88350Y-65075D01*
X88350Y-65075D02*
X88350Y-64675D01*
X77050Y-53350D02*
G75*
G03X77050Y-53350I-50J0D01*
G74*
G01*
X77000Y-53800D02*
X77000Y-53400D01*
X77000Y-53400D02*
X76400Y-53400D01*
X76400Y-53400D02*
X76400Y-53800D01*
X76400Y-54200D02*
X76400Y-54600D01*
X76400Y-54600D02*
X77000Y-54600D01*
X77000Y-54600D02*
X77000Y-54200D01*
X82850Y-55450D02*
G75*
G03X82850Y-55450I-50J0D01*
G74*
G01*
X82800Y-55000D02*
X82800Y-55400D01*
X82800Y-55400D02*
X83400Y-55400D01*
X83400Y-55400D02*
X83400Y-55000D01*
X83400Y-54600D02*
X83400Y-54200D01*
X83400Y-54200D02*
X82800Y-54200D01*
X82800Y-54200D02*
X82800Y-54600D01*
X60500Y-68850D02*
G75*
G03X60500Y-68850I-50J0D01*
G74*
G01*
X60450Y-69300D02*
X60450Y-68900D01*
X60450Y-68900D02*
X59850Y-68900D01*
X59850Y-68900D02*
X59850Y-69300D01*
X59850Y-69700D02*
X59850Y-70100D01*
X59850Y-70100D02*
X60450Y-70100D01*
X60450Y-70100D02*
X60450Y-69700D01*
X59500Y-68850D02*
G75*
G03X59500Y-68850I-50J0D01*
G74*
G01*
X59450Y-69300D02*
X59450Y-68900D01*
X59450Y-68900D02*
X58850Y-68900D01*
X58850Y-68900D02*
X58850Y-69300D01*
X58850Y-69700D02*
X58850Y-70100D01*
X58850Y-70100D02*
X59450Y-70100D01*
X59450Y-70100D02*
X59450Y-69700D01*
X58540Y-68850D02*
G75*
G03X58540Y-68850I-50J0D01*
G74*
G01*
X58490Y-69300D02*
X58490Y-68900D01*
X58490Y-68900D02*
X57890Y-68900D01*
X57890Y-68900D02*
X57890Y-69300D01*
X57890Y-69700D02*
X57890Y-70100D01*
X57890Y-70100D02*
X58490Y-70100D01*
X58490Y-70100D02*
X58490Y-69700D01*
X57460Y-68870D02*
G75*
G03X57460Y-68870I-50J0D01*
G74*
G01*
X57410Y-69320D02*
X57410Y-68920D01*
X57410Y-68920D02*
X56810Y-68920D01*
X56810Y-68920D02*
X56810Y-69320D01*
X56810Y-69720D02*
X56810Y-70120D01*
X56810Y-70120D02*
X57410Y-70120D01*
X57410Y-70120D02*
X57410Y-69720D01*
X55460Y-53400D02*
G75*
G03X55460Y-53400I-50J0D01*
G74*
G01*
X55410Y-53850D02*
X55410Y-53450D01*
X55410Y-53450D02*
X54810Y-53450D01*
X54810Y-53450D02*
X54810Y-53850D01*
X54810Y-54250D02*
X54810Y-54650D01*
X54810Y-54650D02*
X55410Y-54650D01*
X55410Y-54650D02*
X55410Y-54250D01*
X52930Y-53380D02*
G75*
G03X52930Y-53380I-50J0D01*
G74*
G01*
X52880Y-53830D02*
X52880Y-53430D01*
X52880Y-53430D02*
X52280Y-53430D01*
X52280Y-53430D02*
X52280Y-53830D01*
X52280Y-54230D02*
X52280Y-54630D01*
X52280Y-54630D02*
X52880Y-54630D01*
X52880Y-54630D02*
X52880Y-54230D01*
X53990Y-53370D02*
G75*
G03X53990Y-53370I-50J0D01*
G74*
G01*
X53940Y-53820D02*
X53940Y-53420D01*
X53940Y-53420D02*
X53340Y-53420D01*
X53340Y-53420D02*
X53340Y-53820D01*
X53340Y-54220D02*
X53340Y-54620D01*
X53340Y-54620D02*
X53940Y-54620D01*
X53940Y-54620D02*
X53940Y-54220D01*
X57470Y-53400D02*
G75*
G03X57470Y-53400I-50J0D01*
G74*
G01*
X57420Y-53850D02*
X57420Y-53450D01*
X57420Y-53450D02*
X56820Y-53450D01*
X56820Y-53450D02*
X56820Y-53850D01*
X56820Y-54250D02*
X56820Y-54650D01*
X56820Y-54650D02*
X57420Y-54650D01*
X57420Y-54650D02*
X57420Y-54250D01*
X51900Y-53380D02*
G75*
G03X51900Y-53380I-50J0D01*
G74*
G01*
X51850Y-53830D02*
X51850Y-53430D01*
X51850Y-53430D02*
X51250Y-53430D01*
X51250Y-53430D02*
X51250Y-53830D01*
X51250Y-54230D02*
X51250Y-54630D01*
X51250Y-54630D02*
X51850Y-54630D01*
X51850Y-54630D02*
X51850Y-54230D01*
X90395Y-60400D02*
G75*
G03X90395Y-60400I-50J0D01*
G74*
G01*
X90345Y-60850D02*
X90345Y-60450D01*
X90345Y-60450D02*
X89745Y-60450D01*
X89745Y-60450D02*
X89745Y-60850D01*
X89745Y-61250D02*
X89745Y-61650D01*
X89745Y-61650D02*
X90345Y-61650D01*
X90345Y-61650D02*
X90345Y-61250D01*
G54D13*
X88490Y-49680D02*
G75*
G03X88490Y-49680I-70J0D01*
G74*
G01*
X87770Y-48530D02*
X88370Y-48530D01*
X88370Y-48530D02*
X88370Y-49630D01*
X88370Y-49630D02*
X87770Y-49630D01*
X87170Y-49630D02*
X86570Y-49630D01*
X86570Y-49630D02*
X86570Y-48530D01*
X86570Y-48530D02*
X87170Y-48530D01*
X88515Y-51180D02*
G75*
G03X88515Y-51180I-70J0D01*
G74*
G01*
X87795Y-50030D02*
X88395Y-50030D01*
X88395Y-50030D02*
X88395Y-51130D01*
X88395Y-51130D02*
X87795Y-51130D01*
X87195Y-51130D02*
X86595Y-51130D01*
X86595Y-51130D02*
X86595Y-50030D01*
X86595Y-50030D02*
X87195Y-50030D01*
X87220Y-54905D02*
G75*
G03X87220Y-54905I-70J0D01*
G74*
G01*
X88300Y-54255D02*
X88300Y-54855D01*
X88300Y-54855D02*
X87200Y-54855D01*
X87200Y-54855D02*
X87200Y-54255D01*
X87200Y-53655D02*
X87200Y-53055D01*
X87200Y-53055D02*
X88300Y-53055D01*
X88300Y-53055D02*
X88300Y-53655D01*
G54D11*
X66510Y-58630D02*
G75*
G03X66510Y-58630I-50J0D01*
G74*
G01*
X66910Y-58630D02*
X66510Y-58630D01*
X66510Y-58630D02*
X66510Y-59230D01*
X66510Y-59230D02*
X66910Y-59230D01*
X67310Y-59230D02*
X67710Y-59230D01*
X67710Y-59230D02*
X67710Y-58630D01*
X67710Y-58630D02*
X67310Y-58630D01*
X66610Y-56420D02*
G75*
G03X66610Y-56420I-50J0D01*
G74*
G01*
X66110Y-56420D02*
X66510Y-56420D01*
X66510Y-56420D02*
X66510Y-55820D01*
X66510Y-55820D02*
X66110Y-55820D01*
X65710Y-55820D02*
X65310Y-55820D01*
X65310Y-55820D02*
X65310Y-56420D01*
X65310Y-56420D02*
X65710Y-56420D01*
G54D15*
X68576Y-56139D02*
X68670Y-56139D01*
X68670Y-55942D01*
X68417Y-55942D02*
X68511Y-55942D01*
X68520Y-56036D01*
X68511Y-56027D01*
X68492Y-56017D01*
X68445Y-56017D01*
X68426Y-56027D01*
X68417Y-56036D01*
X68407Y-56055D01*
X68407Y-56102D01*
X68417Y-56120D01*
X68426Y-56130D01*
X68445Y-56139D01*
X68492Y-56139D01*
X68511Y-56130D01*
X68520Y-56120D01*
X69224Y-55864D02*
X69224Y-55667D01*
X69130Y-55864D02*
X69130Y-55667D01*
X69017Y-55864D01*
X69017Y-55667D01*
X68923Y-55864D02*
X68923Y-55667D01*
X68877Y-55667D01*
X68848Y-55677D01*
X68830Y-55695D01*
X68820Y-55714D01*
X68811Y-55752D01*
X68811Y-55780D01*
X68820Y-55817D01*
X68830Y-55836D01*
X68848Y-55855D01*
X68877Y-55864D01*
X68923Y-55864D01*
X68726Y-55667D02*
X68726Y-55827D01*
X68717Y-55845D01*
X68708Y-55855D01*
X68689Y-55864D01*
X68651Y-55864D01*
X68633Y-55855D01*
X68623Y-55845D01*
X68614Y-55827D01*
X68614Y-55667D01*
X68407Y-55845D02*
X68417Y-55855D01*
X68445Y-55864D01*
X68464Y-55864D01*
X68492Y-55855D01*
X68511Y-55836D01*
X68520Y-55817D01*
X68529Y-55780D01*
X68529Y-55752D01*
X68520Y-55714D01*
X68511Y-55695D01*
X68492Y-55677D01*
X68464Y-55667D01*
X68445Y-55667D01*
X68417Y-55677D01*
X68407Y-55686D01*
X68351Y-55667D02*
X68239Y-55667D01*
X68295Y-55864D02*
X68295Y-55667D01*
X68135Y-55667D02*
X68098Y-55667D01*
X68079Y-55677D01*
X68060Y-55695D01*
X68051Y-55733D01*
X68051Y-55799D01*
X68060Y-55836D01*
X68079Y-55855D01*
X68098Y-55864D01*
X68135Y-55864D01*
X68154Y-55855D01*
X68173Y-55836D01*
X68182Y-55799D01*
X68182Y-55733D01*
X68173Y-55695D01*
X68154Y-55677D01*
X68135Y-55667D01*
X67854Y-55864D02*
X67920Y-55770D01*
X67967Y-55864D02*
X67967Y-55667D01*
X67892Y-55667D01*
X67873Y-55677D01*
X67863Y-55686D01*
X67854Y-55705D01*
X67854Y-55733D01*
X67863Y-55752D01*
X67873Y-55761D01*
X67892Y-55770D01*
X67967Y-55770D01*
X68582Y-56905D02*
X68592Y-56915D01*
X68620Y-56924D01*
X68639Y-56924D01*
X68667Y-56915D01*
X68686Y-56896D01*
X68695Y-56877D01*
X68704Y-56840D01*
X68704Y-56812D01*
X68695Y-56774D01*
X68686Y-56755D01*
X68667Y-56737D01*
X68639Y-56727D01*
X68620Y-56727D01*
X68592Y-56737D01*
X68582Y-56746D01*
X68517Y-56727D02*
X68385Y-56727D01*
X68470Y-56924D01*
X68489Y-56630D02*
X68498Y-56640D01*
X68526Y-56649D01*
X68545Y-56649D01*
X68573Y-56640D01*
X68592Y-56621D01*
X68601Y-56602D01*
X68610Y-56565D01*
X68610Y-56537D01*
X68601Y-56499D01*
X68592Y-56480D01*
X68573Y-56462D01*
X68545Y-56452D01*
X68526Y-56452D01*
X68498Y-56462D01*
X68489Y-56471D01*
X86732Y-56385D02*
X86742Y-56395D01*
X86770Y-56404D01*
X86789Y-56404D01*
X86817Y-56395D01*
X86836Y-56376D01*
X86845Y-56357D01*
X86854Y-56320D01*
X86854Y-56292D01*
X86845Y-56254D01*
X86836Y-56235D01*
X86817Y-56217D01*
X86789Y-56207D01*
X86770Y-56207D01*
X86742Y-56217D01*
X86732Y-56226D01*
X86639Y-56404D02*
X86601Y-56404D01*
X86582Y-56395D01*
X86573Y-56385D01*
X86554Y-56357D01*
X86545Y-56320D01*
X86545Y-56245D01*
X86554Y-56226D01*
X86563Y-56217D01*
X86582Y-56207D01*
X86620Y-56207D01*
X86639Y-56217D01*
X86648Y-56226D01*
X86657Y-56245D01*
X86657Y-56292D01*
X86648Y-56310D01*
X86639Y-56320D01*
X86620Y-56329D01*
X86582Y-56329D01*
X86563Y-56320D01*
X86554Y-56310D01*
X86545Y-56292D01*
X86639Y-56110D02*
X86648Y-56120D01*
X86676Y-56129D01*
X86695Y-56129D01*
X86723Y-56120D01*
X86742Y-56101D01*
X86751Y-56082D01*
X86760Y-56045D01*
X86760Y-56017D01*
X86751Y-55979D01*
X86742Y-55960D01*
X86723Y-55942D01*
X86695Y-55932D01*
X86676Y-55932D01*
X86648Y-55942D01*
X86639Y-55951D01*
G54D12*
X83039Y-68949D02*
X82645Y-68949D01*
X82645Y-69043D01*
X82664Y-69099D01*
X82701Y-69136D01*
X82739Y-69155D01*
X82814Y-69174D01*
X82870Y-69174D01*
X82945Y-69155D01*
X82983Y-69136D01*
X83020Y-69099D01*
X83039Y-69043D01*
X83039Y-68949D01*
X82683Y-69324D02*
X82664Y-69343D01*
X82645Y-69380D01*
X82645Y-69474D01*
X82664Y-69511D01*
X82683Y-69530D01*
X82720Y-69549D01*
X82758Y-69549D01*
X82814Y-69530D01*
X83039Y-69305D01*
X83039Y-69549D01*
X81020Y-67152D02*
X81039Y-67209D01*
X81039Y-67302D01*
X81020Y-67340D01*
X81001Y-67358D01*
X80964Y-67377D01*
X80926Y-67377D01*
X80889Y-67358D01*
X80870Y-67340D01*
X80851Y-67302D01*
X80833Y-67227D01*
X80814Y-67190D01*
X80795Y-67171D01*
X80758Y-67152D01*
X80720Y-67152D01*
X80683Y-67171D01*
X80664Y-67190D01*
X80645Y-67227D01*
X80645Y-67321D01*
X80664Y-67377D01*
X81020Y-67715D02*
X81039Y-67677D01*
X81039Y-67602D01*
X81020Y-67565D01*
X81001Y-67546D01*
X80964Y-67527D01*
X80851Y-67527D01*
X80814Y-67546D01*
X80795Y-67565D01*
X80776Y-67602D01*
X80776Y-67677D01*
X80795Y-67715D01*
X81039Y-67883D02*
X80645Y-67883D01*
X81039Y-68052D02*
X80833Y-68052D01*
X80795Y-68033D01*
X80776Y-67996D01*
X80776Y-67940D01*
X80795Y-67902D01*
X80814Y-67883D01*
X81039Y-68296D02*
X81020Y-68258D01*
X81001Y-68240D01*
X80964Y-68221D01*
X80851Y-68221D01*
X80814Y-68240D01*
X80795Y-68258D01*
X80776Y-68296D01*
X80776Y-68352D01*
X80795Y-68390D01*
X80814Y-68408D01*
X80851Y-68427D01*
X80964Y-68427D01*
X81001Y-68408D01*
X81020Y-68390D01*
X81039Y-68352D01*
X81039Y-68296D01*
X80776Y-68540D02*
X80776Y-68690D01*
X80645Y-68596D02*
X80983Y-68596D01*
X81020Y-68615D01*
X81039Y-68652D01*
X81039Y-68690D01*
X80776Y-68765D02*
X80776Y-68915D01*
X80645Y-68821D02*
X80983Y-68821D01*
X81020Y-68840D01*
X81039Y-68877D01*
X81039Y-68915D01*
X81039Y-69046D02*
X80645Y-69046D01*
X80889Y-69083D02*
X81039Y-69196D01*
X80776Y-69196D02*
X80926Y-69046D01*
X80776Y-69327D02*
X81039Y-69421D01*
X80776Y-69514D02*
X81039Y-69421D01*
X81133Y-69383D01*
X81151Y-69364D01*
X81170Y-69327D01*
X81039Y-69964D02*
X80645Y-69964D01*
X80645Y-70058D01*
X80664Y-70114D01*
X80701Y-70152D01*
X80739Y-70171D01*
X80814Y-70189D01*
X80870Y-70189D01*
X80945Y-70171D01*
X80983Y-70152D01*
X81020Y-70114D01*
X81039Y-70058D01*
X81039Y-69964D01*
X81039Y-70358D02*
X80776Y-70358D01*
X80645Y-70358D02*
X80664Y-70339D01*
X80683Y-70358D01*
X80664Y-70377D01*
X80645Y-70358D01*
X80683Y-70358D01*
X81039Y-70602D02*
X81020Y-70564D01*
X81001Y-70546D01*
X80964Y-70527D01*
X80851Y-70527D01*
X80814Y-70546D01*
X80795Y-70564D01*
X80776Y-70602D01*
X80776Y-70658D01*
X80795Y-70696D01*
X80814Y-70714D01*
X80851Y-70733D01*
X80964Y-70733D01*
X81001Y-70714D01*
X81020Y-70696D01*
X81039Y-70658D01*
X81039Y-70602D01*
X81039Y-71071D02*
X80645Y-71071D01*
X81020Y-71071D02*
X81039Y-71033D01*
X81039Y-70958D01*
X81020Y-70921D01*
X81001Y-70902D01*
X80964Y-70883D01*
X80851Y-70883D01*
X80814Y-70902D01*
X80795Y-70921D01*
X80776Y-70958D01*
X80776Y-71033D01*
X80795Y-71071D01*
X81020Y-71408D02*
X81039Y-71370D01*
X81039Y-71295D01*
X81020Y-71258D01*
X80983Y-71239D01*
X80833Y-71239D01*
X80795Y-71258D01*
X80776Y-71295D01*
X80776Y-71370D01*
X80795Y-71408D01*
X80833Y-71427D01*
X80870Y-71427D01*
X80908Y-71239D01*
G54D15*
X79782Y-67549D02*
X79848Y-67455D01*
X79895Y-67549D02*
X79895Y-67352D01*
X79820Y-67352D01*
X79801Y-67362D01*
X79792Y-67371D01*
X79782Y-67390D01*
X79782Y-67418D01*
X79792Y-67437D01*
X79801Y-67446D01*
X79820Y-67455D01*
X79895Y-67455D01*
X79604Y-67352D02*
X79698Y-67352D01*
X79707Y-67446D01*
X79698Y-67437D01*
X79679Y-67427D01*
X79632Y-67427D01*
X79613Y-67437D01*
X79604Y-67446D01*
X79595Y-67465D01*
X79595Y-67512D01*
X79604Y-67530D01*
X79613Y-67540D01*
X79632Y-67549D01*
X79679Y-67549D01*
X79698Y-67540D01*
X79707Y-67530D01*
X79759Y-67627D02*
X79740Y-67627D01*
X79721Y-67637D01*
X79712Y-67646D01*
X79703Y-67665D01*
X79693Y-67702D01*
X79693Y-67749D01*
X79703Y-67787D01*
X79712Y-67805D01*
X79721Y-67815D01*
X79740Y-67824D01*
X79759Y-67824D01*
X79778Y-67815D01*
X79787Y-67805D01*
X79796Y-67787D01*
X79806Y-67749D01*
X79806Y-67702D01*
X79796Y-67665D01*
X79787Y-67646D01*
X79778Y-67637D01*
X79759Y-67627D01*
G54D13*
X86890Y-57082D02*
X86890Y-57325D01*
X86878Y-57353D01*
X86866Y-57368D01*
X86842Y-57382D01*
X86795Y-57382D01*
X86771Y-57368D01*
X86759Y-57353D01*
X86747Y-57325D01*
X86747Y-57082D01*
X86652Y-57082D02*
X86497Y-57082D01*
X86580Y-57196D01*
X86545Y-57196D01*
X86521Y-57211D01*
X86509Y-57225D01*
X86497Y-57253D01*
X86497Y-57325D01*
X86509Y-57353D01*
X86521Y-57368D01*
X86545Y-57382D01*
X86616Y-57382D01*
X86640Y-57368D01*
X86652Y-57353D01*
X72893Y-59225D02*
X72750Y-59125D01*
X72893Y-59053D02*
X72593Y-59053D01*
X72593Y-59168D01*
X72607Y-59196D01*
X72622Y-59210D01*
X72650Y-59225D01*
X72693Y-59225D01*
X72722Y-59210D01*
X72736Y-59196D01*
X72750Y-59168D01*
X72750Y-59053D01*
X72622Y-59339D02*
X72607Y-59353D01*
X72593Y-59382D01*
X72593Y-59453D01*
X72607Y-59482D01*
X72622Y-59496D01*
X72650Y-59510D01*
X72679Y-59510D01*
X72722Y-59496D01*
X72893Y-59325D01*
X72893Y-59510D01*
X72593Y-59782D02*
X72593Y-59639D01*
X72736Y-59625D01*
X72722Y-59639D01*
X72707Y-59668D01*
X72707Y-59739D01*
X72722Y-59768D01*
X72736Y-59782D01*
X72764Y-59796D01*
X72836Y-59796D01*
X72864Y-59782D01*
X72879Y-59768D01*
X72893Y-59739D01*
X72893Y-59668D01*
X72879Y-59639D01*
X72864Y-59625D01*
X73082Y-55170D02*
X72939Y-55070D01*
X73082Y-54998D02*
X72782Y-54998D01*
X72782Y-55113D01*
X72796Y-55141D01*
X72811Y-55155D01*
X72839Y-55170D01*
X72882Y-55170D01*
X72911Y-55155D01*
X72925Y-55141D01*
X72939Y-55113D01*
X72939Y-54998D01*
X72811Y-55284D02*
X72796Y-55298D01*
X72782Y-55327D01*
X72782Y-55398D01*
X72796Y-55427D01*
X72811Y-55441D01*
X72839Y-55455D01*
X72868Y-55455D01*
X72911Y-55441D01*
X73082Y-55270D01*
X73082Y-55455D01*
X72782Y-55555D02*
X72782Y-55741D01*
X72896Y-55641D01*
X72896Y-55684D01*
X72911Y-55713D01*
X72925Y-55727D01*
X72953Y-55741D01*
X73025Y-55741D01*
X73053Y-55727D01*
X73068Y-55713D01*
X73082Y-55684D01*
X73082Y-55598D01*
X73068Y-55570D01*
X73053Y-55555D01*
G54D15*
X64832Y-54305D02*
X64842Y-54315D01*
X64870Y-54324D01*
X64889Y-54324D01*
X64917Y-54315D01*
X64936Y-54296D01*
X64945Y-54277D01*
X64954Y-54240D01*
X64954Y-54212D01*
X64945Y-54174D01*
X64936Y-54155D01*
X64917Y-54137D01*
X64889Y-54127D01*
X64870Y-54127D01*
X64842Y-54137D01*
X64832Y-54146D01*
X64720Y-54212D02*
X64739Y-54202D01*
X64748Y-54193D01*
X64757Y-54174D01*
X64757Y-54165D01*
X64748Y-54146D01*
X64739Y-54137D01*
X64720Y-54127D01*
X64682Y-54127D01*
X64663Y-54137D01*
X64654Y-54146D01*
X64645Y-54165D01*
X64645Y-54174D01*
X64654Y-54193D01*
X64663Y-54202D01*
X64682Y-54212D01*
X64720Y-54212D01*
X64739Y-54221D01*
X64748Y-54230D01*
X64757Y-54249D01*
X64757Y-54287D01*
X64748Y-54305D01*
X64739Y-54315D01*
X64720Y-54324D01*
X64682Y-54324D01*
X64663Y-54315D01*
X64654Y-54305D01*
X64645Y-54287D01*
X64645Y-54249D01*
X64654Y-54230D01*
X64663Y-54221D01*
X64682Y-54212D01*
X64739Y-54580D02*
X64748Y-54590D01*
X64776Y-54599D01*
X64795Y-54599D01*
X64823Y-54590D01*
X64842Y-54571D01*
X64851Y-54552D01*
X64860Y-54515D01*
X64860Y-54487D01*
X64851Y-54449D01*
X64842Y-54430D01*
X64823Y-54412D01*
X64795Y-54402D01*
X64776Y-54402D01*
X64748Y-54412D01*
X64739Y-54421D01*
X78134Y-54865D02*
X78144Y-54875D01*
X78172Y-54884D01*
X78190Y-54884D01*
X78219Y-54875D01*
X78237Y-54856D01*
X78247Y-54837D01*
X78256Y-54800D01*
X78256Y-54772D01*
X78247Y-54734D01*
X78237Y-54715D01*
X78219Y-54697D01*
X78190Y-54687D01*
X78172Y-54687D01*
X78144Y-54697D01*
X78134Y-54706D01*
X77947Y-54884D02*
X78059Y-54884D01*
X78003Y-54884D02*
X78003Y-54687D01*
X78022Y-54715D01*
X78040Y-54734D01*
X78059Y-54744D01*
X77825Y-54687D02*
X77806Y-54687D01*
X77787Y-54697D01*
X77778Y-54706D01*
X77768Y-54725D01*
X77759Y-54762D01*
X77759Y-54809D01*
X77768Y-54847D01*
X77778Y-54865D01*
X77787Y-54875D01*
X77806Y-54884D01*
X77825Y-54884D01*
X77843Y-54875D01*
X77853Y-54865D01*
X77862Y-54847D01*
X77871Y-54809D01*
X77871Y-54762D01*
X77862Y-54725D01*
X77853Y-54706D01*
X77843Y-54697D01*
X77825Y-54687D01*
X77947Y-55140D02*
X77956Y-55150D01*
X77984Y-55159D01*
X78003Y-55159D01*
X78031Y-55150D01*
X78050Y-55131D01*
X78059Y-55112D01*
X78068Y-55075D01*
X78068Y-55047D01*
X78059Y-55009D01*
X78050Y-54990D01*
X78031Y-54972D01*
X78003Y-54962D01*
X77984Y-54962D01*
X77956Y-54972D01*
X77947Y-54981D01*
X82235Y-54673D02*
X82245Y-54663D01*
X82254Y-54635D01*
X82254Y-54617D01*
X82245Y-54588D01*
X82226Y-54570D01*
X82207Y-54560D01*
X82170Y-54551D01*
X82142Y-54551D01*
X82104Y-54560D01*
X82085Y-54570D01*
X82067Y-54588D01*
X82057Y-54617D01*
X82057Y-54635D01*
X82067Y-54663D01*
X82076Y-54673D01*
X82254Y-54860D02*
X82254Y-54748D01*
X82254Y-54804D02*
X82057Y-54804D01*
X82085Y-54785D01*
X82104Y-54767D01*
X82114Y-54748D01*
X82254Y-55048D02*
X82254Y-54936D01*
X82254Y-54992D02*
X82057Y-54992D01*
X82085Y-54973D01*
X82104Y-54954D01*
X82114Y-54936D01*
X82510Y-54860D02*
X82520Y-54851D01*
X82529Y-54823D01*
X82529Y-54804D01*
X82520Y-54776D01*
X82501Y-54757D01*
X82482Y-54748D01*
X82445Y-54739D01*
X82417Y-54739D01*
X82379Y-54748D01*
X82360Y-54757D01*
X82342Y-54776D01*
X82332Y-54804D01*
X82332Y-54823D01*
X82342Y-54851D01*
X82351Y-54860D01*
X70032Y-56136D02*
X70042Y-56146D01*
X70070Y-56155D01*
X70089Y-56155D01*
X70117Y-56146D01*
X70136Y-56127D01*
X70145Y-56108D01*
X70154Y-56071D01*
X70154Y-56043D01*
X70145Y-56005D01*
X70136Y-55986D01*
X70117Y-55968D01*
X70089Y-55958D01*
X70070Y-55958D01*
X70042Y-55968D01*
X70032Y-55977D01*
X69863Y-55958D02*
X69901Y-55958D01*
X69920Y-55968D01*
X69929Y-55977D01*
X69948Y-56005D01*
X69957Y-56043D01*
X69957Y-56118D01*
X69948Y-56136D01*
X69939Y-56146D01*
X69920Y-56155D01*
X69882Y-56155D01*
X69863Y-56146D01*
X69854Y-56136D01*
X69845Y-56118D01*
X69845Y-56071D01*
X69854Y-56052D01*
X69863Y-56043D01*
X69882Y-56033D01*
X69920Y-56033D01*
X69939Y-56043D01*
X69948Y-56052D01*
X69957Y-56071D01*
X69939Y-55861D02*
X69948Y-55871D01*
X69976Y-55880D01*
X69995Y-55880D01*
X70023Y-55871D01*
X70042Y-55852D01*
X70051Y-55833D01*
X70060Y-55796D01*
X70060Y-55768D01*
X70051Y-55730D01*
X70042Y-55711D01*
X70023Y-55693D01*
X69995Y-55683D01*
X69976Y-55683D01*
X69948Y-55693D01*
X69939Y-55702D01*
G54D16*
X68663Y-57721D02*
X68648Y-57692D01*
X68620Y-57664D01*
X68577Y-57621D01*
X68563Y-57592D01*
X68563Y-57564D01*
X68634Y-57578D02*
X68620Y-57550D01*
X68591Y-57521D01*
X68534Y-57507D01*
X68434Y-57507D01*
X68377Y-57521D01*
X68348Y-57550D01*
X68334Y-57578D01*
X68334Y-57635D01*
X68348Y-57664D01*
X68377Y-57692D01*
X68434Y-57707D01*
X68534Y-57707D01*
X68591Y-57692D01*
X68620Y-57664D01*
X68634Y-57635D01*
X68634Y-57578D01*
X68363Y-57821D02*
X68348Y-57835D01*
X68334Y-57864D01*
X68334Y-57935D01*
X68348Y-57964D01*
X68363Y-57978D01*
X68391Y-57992D01*
X68420Y-57992D01*
X68463Y-57978D01*
X68634Y-57807D01*
X68634Y-57992D01*
X69484Y-56700D02*
X69184Y-56700D01*
X69398Y-56800D01*
X69184Y-56900D01*
X69484Y-56900D01*
X69184Y-57100D02*
X69184Y-57157D01*
X69198Y-57185D01*
X69227Y-57214D01*
X69284Y-57228D01*
X69384Y-57228D01*
X69441Y-57214D01*
X69470Y-57185D01*
X69484Y-57157D01*
X69484Y-57100D01*
X69470Y-57071D01*
X69441Y-57042D01*
X69384Y-57028D01*
X69284Y-57028D01*
X69227Y-57042D01*
X69198Y-57071D01*
X69184Y-57100D01*
X69470Y-57342D02*
X69484Y-57385D01*
X69484Y-57457D01*
X69470Y-57485D01*
X69455Y-57500D01*
X69427Y-57514D01*
X69398Y-57514D01*
X69370Y-57500D01*
X69355Y-57485D01*
X69341Y-57457D01*
X69327Y-57400D01*
X69313Y-57371D01*
X69298Y-57357D01*
X69270Y-57342D01*
X69241Y-57342D01*
X69213Y-57357D01*
X69198Y-57371D01*
X69184Y-57400D01*
X69184Y-57471D01*
X69198Y-57514D01*
X69327Y-57742D02*
X69327Y-57642D01*
X69484Y-57642D02*
X69184Y-57642D01*
X69184Y-57785D01*
X69327Y-57900D02*
X69327Y-58000D01*
X69484Y-58042D02*
X69484Y-57900D01*
X69184Y-57900D01*
X69184Y-58042D01*
X69184Y-58128D02*
X69184Y-58300D01*
X69484Y-58214D02*
X69184Y-58214D01*
X69513Y-58328D02*
X69513Y-58557D01*
X69484Y-58628D02*
X69184Y-58628D01*
X69484Y-58800D01*
X69184Y-58800D01*
G54D13*
X84340Y-61285D02*
X84169Y-61285D01*
X84254Y-61685D02*
X84254Y-61285D01*
X84069Y-61685D02*
X84069Y-61285D01*
X84069Y-61476D02*
X83897Y-61476D01*
X83897Y-61685D02*
X83897Y-61285D01*
X83612Y-61285D02*
X83754Y-61285D01*
X83769Y-61476D01*
X83754Y-61457D01*
X83726Y-61438D01*
X83654Y-61438D01*
X83626Y-61457D01*
X83612Y-61476D01*
X83597Y-61514D01*
X83597Y-61609D01*
X83612Y-61647D01*
X83626Y-61666D01*
X83654Y-61685D01*
X83726Y-61685D01*
X83754Y-61666D01*
X83769Y-61647D01*
G54D15*
X82730Y-61703D02*
X82740Y-61693D01*
X82749Y-61665D01*
X82749Y-61647D01*
X82740Y-61618D01*
X82721Y-61600D01*
X82702Y-61590D01*
X82665Y-61581D01*
X82637Y-61581D01*
X82599Y-61590D01*
X82580Y-61600D01*
X82562Y-61618D01*
X82552Y-61647D01*
X82552Y-61665D01*
X82562Y-61693D01*
X82571Y-61703D01*
X82749Y-61890D02*
X82749Y-61778D01*
X82749Y-61834D02*
X82552Y-61834D01*
X82580Y-61815D01*
X82599Y-61797D01*
X82609Y-61778D01*
X82552Y-61956D02*
X82552Y-62078D01*
X82627Y-62012D01*
X82627Y-62041D01*
X82637Y-62059D01*
X82646Y-62069D01*
X82665Y-62078D01*
X82712Y-62078D01*
X82730Y-62069D01*
X82740Y-62059D01*
X82749Y-62041D01*
X82749Y-61984D01*
X82740Y-61966D01*
X82730Y-61956D01*
X82455Y-61890D02*
X82465Y-61881D01*
X82474Y-61853D01*
X82474Y-61834D01*
X82465Y-61806D01*
X82446Y-61787D01*
X82427Y-61778D01*
X82390Y-61769D01*
X82362Y-61769D01*
X82324Y-61778D01*
X82305Y-61787D01*
X82287Y-61806D01*
X82277Y-61834D01*
X82277Y-61853D01*
X82287Y-61881D01*
X82296Y-61890D01*
X70164Y-58823D02*
X70070Y-58757D01*
X70164Y-58710D02*
X69967Y-58710D01*
X69967Y-58785D01*
X69977Y-58804D01*
X69986Y-58813D01*
X70005Y-58823D01*
X70033Y-58823D01*
X70052Y-58813D01*
X70061Y-58804D01*
X70070Y-58785D01*
X70070Y-58710D01*
X69967Y-58889D02*
X69967Y-59010D01*
X70042Y-58945D01*
X70042Y-58973D01*
X70052Y-58992D01*
X70061Y-59001D01*
X70080Y-59010D01*
X70127Y-59010D01*
X70145Y-59001D01*
X70155Y-58992D01*
X70164Y-58973D01*
X70164Y-58917D01*
X70155Y-58898D01*
X70145Y-58889D01*
X69986Y-59086D02*
X69977Y-59095D01*
X69967Y-59114D01*
X69967Y-59161D01*
X69977Y-59179D01*
X69986Y-59189D01*
X70005Y-59198D01*
X70024Y-59198D01*
X70052Y-59189D01*
X70164Y-59076D01*
X70164Y-59198D01*
X69889Y-59010D02*
X69795Y-58945D01*
X69889Y-58898D02*
X69692Y-58898D01*
X69692Y-58973D01*
X69702Y-58992D01*
X69711Y-59001D01*
X69730Y-59010D01*
X69758Y-59010D01*
X69777Y-59001D01*
X69786Y-58992D01*
X69795Y-58973D01*
X69795Y-58898D01*
G54D13*
X30867Y-48614D02*
X30867Y-48785D01*
X31267Y-48700D02*
X30867Y-48700D01*
X31267Y-48885D02*
X30867Y-48885D01*
X31058Y-48885D02*
X31058Y-49057D01*
X31267Y-49057D02*
X30867Y-49057D01*
X31267Y-49357D02*
X31267Y-49185D01*
X31267Y-49271D02*
X30867Y-49271D01*
X30925Y-49242D01*
X30963Y-49214D01*
X30982Y-49185D01*
X31461Y-47664D02*
X31461Y-47835D01*
X31861Y-47750D02*
X31461Y-47750D01*
X31861Y-47935D02*
X31461Y-47935D01*
X31652Y-47935D02*
X31652Y-48107D01*
X31861Y-48107D02*
X31461Y-48107D01*
X31652Y-48250D02*
X31652Y-48350D01*
X31861Y-48392D02*
X31861Y-48250D01*
X31461Y-48250D01*
X31461Y-48392D01*
X31861Y-48692D02*
X31671Y-48592D01*
X31861Y-48521D02*
X31461Y-48521D01*
X31461Y-48635D01*
X31480Y-48664D01*
X31500Y-48678D01*
X31538Y-48692D01*
X31595Y-48692D01*
X31633Y-48678D01*
X31652Y-48664D01*
X31671Y-48635D01*
X31671Y-48521D01*
X31861Y-48821D02*
X31461Y-48821D01*
X31747Y-48921D01*
X31461Y-49021D01*
X31861Y-49021D01*
X31861Y-49164D02*
X31461Y-49164D01*
X31842Y-49292D02*
X31861Y-49335D01*
X31861Y-49407D01*
X31842Y-49435D01*
X31823Y-49450D01*
X31785Y-49464D01*
X31747Y-49464D01*
X31709Y-49450D01*
X31690Y-49435D01*
X31671Y-49407D01*
X31652Y-49350D01*
X31633Y-49321D01*
X31614Y-49307D01*
X31576Y-49292D01*
X31538Y-49292D01*
X31500Y-49307D01*
X31480Y-49321D01*
X31461Y-49350D01*
X31461Y-49421D01*
X31480Y-49464D01*
X31461Y-49550D02*
X31461Y-49721D01*
X31861Y-49635D02*
X31461Y-49635D01*
X31461Y-49878D02*
X31461Y-49935D01*
X31480Y-49964D01*
X31519Y-49992D01*
X31595Y-50007D01*
X31728Y-50007D01*
X31804Y-49992D01*
X31842Y-49964D01*
X31861Y-49935D01*
X31861Y-49878D01*
X31842Y-49850D01*
X31804Y-49821D01*
X31728Y-49807D01*
X31595Y-49807D01*
X31519Y-49821D01*
X31480Y-49850D01*
X31461Y-49878D01*
X31861Y-50307D02*
X31671Y-50207D01*
X31861Y-50135D02*
X31461Y-50135D01*
X31461Y-50250D01*
X31480Y-50278D01*
X31500Y-50292D01*
X31538Y-50307D01*
X31595Y-50307D01*
X31633Y-50292D01*
X31652Y-50278D01*
X31671Y-50250D01*
X31671Y-50135D01*
X38085Y-66455D02*
X37914Y-66455D01*
X37999Y-66855D02*
X37999Y-66455D01*
X37814Y-66855D02*
X37814Y-66455D01*
X37814Y-66646D02*
X37642Y-66646D01*
X37642Y-66855D02*
X37642Y-66455D01*
X37514Y-66494D02*
X37499Y-66474D01*
X37471Y-66455D01*
X37399Y-66455D01*
X37371Y-66474D01*
X37357Y-66494D01*
X37342Y-66532D01*
X37342Y-66570D01*
X37357Y-66627D01*
X37528Y-66855D01*
X37342Y-66855D01*
X39035Y-65861D02*
X38864Y-65861D01*
X38949Y-66261D02*
X38949Y-65861D01*
X38764Y-66261D02*
X38764Y-65861D01*
X38764Y-66052D02*
X38592Y-66052D01*
X38592Y-66261D02*
X38592Y-65861D01*
X38449Y-66052D02*
X38349Y-66052D01*
X38307Y-66261D02*
X38449Y-66261D01*
X38449Y-65861D01*
X38307Y-65861D01*
X38007Y-66261D02*
X38107Y-66071D01*
X38178Y-66261D02*
X38178Y-65861D01*
X38064Y-65861D01*
X38035Y-65880D01*
X38021Y-65900D01*
X38007Y-65938D01*
X38007Y-65995D01*
X38021Y-66033D01*
X38035Y-66052D01*
X38064Y-66071D01*
X38178Y-66071D01*
X37878Y-66261D02*
X37878Y-65861D01*
X37778Y-66147D01*
X37678Y-65861D01*
X37678Y-66261D01*
X37535Y-66261D02*
X37535Y-65861D01*
X37407Y-66242D02*
X37364Y-66261D01*
X37292Y-66261D01*
X37264Y-66242D01*
X37249Y-66223D01*
X37235Y-66185D01*
X37235Y-66147D01*
X37249Y-66109D01*
X37264Y-66090D01*
X37292Y-66071D01*
X37349Y-66052D01*
X37378Y-66033D01*
X37392Y-66014D01*
X37407Y-65976D01*
X37407Y-65938D01*
X37392Y-65900D01*
X37378Y-65880D01*
X37349Y-65861D01*
X37278Y-65861D01*
X37235Y-65880D01*
X37150Y-65861D02*
X36978Y-65861D01*
X37064Y-66261D02*
X37064Y-65861D01*
X36821Y-65861D02*
X36764Y-65861D01*
X36735Y-65880D01*
X36707Y-65919D01*
X36692Y-65995D01*
X36692Y-66128D01*
X36707Y-66204D01*
X36735Y-66242D01*
X36764Y-66261D01*
X36821Y-66261D01*
X36850Y-66242D01*
X36878Y-66204D01*
X36892Y-66128D01*
X36892Y-65995D01*
X36878Y-65919D01*
X36850Y-65880D01*
X36821Y-65861D01*
X36392Y-66261D02*
X36492Y-66071D01*
X36564Y-66261D02*
X36564Y-65861D01*
X36450Y-65861D01*
X36421Y-65880D01*
X36407Y-65900D01*
X36392Y-65938D01*
X36392Y-65995D01*
X36407Y-66033D01*
X36421Y-66052D01*
X36450Y-66071D01*
X36564Y-66071D01*
X34837Y-70224D02*
X34837Y-70395D01*
X35237Y-70310D02*
X34837Y-70310D01*
X35237Y-70495D02*
X34837Y-70495D01*
X35028Y-70495D02*
X35028Y-70667D01*
X35237Y-70667D02*
X34837Y-70667D01*
X34837Y-70781D02*
X34837Y-70967D01*
X34990Y-70867D01*
X34990Y-70910D01*
X35009Y-70938D01*
X35028Y-70952D01*
X35066Y-70967D01*
X35161Y-70967D01*
X35199Y-70952D01*
X35218Y-70938D01*
X35237Y-70910D01*
X35237Y-70824D01*
X35218Y-70795D01*
X35199Y-70781D01*
X35431Y-69274D02*
X35431Y-69445D01*
X35831Y-69360D02*
X35431Y-69360D01*
X35831Y-69545D02*
X35431Y-69545D01*
X35622Y-69545D02*
X35622Y-69717D01*
X35831Y-69717D02*
X35431Y-69717D01*
X35622Y-69860D02*
X35622Y-69960D01*
X35831Y-70002D02*
X35831Y-69860D01*
X35431Y-69860D01*
X35431Y-70002D01*
X35831Y-70302D02*
X35641Y-70202D01*
X35831Y-70131D02*
X35431Y-70131D01*
X35431Y-70245D01*
X35450Y-70274D01*
X35470Y-70288D01*
X35508Y-70302D01*
X35565Y-70302D01*
X35603Y-70288D01*
X35622Y-70274D01*
X35641Y-70245D01*
X35641Y-70131D01*
X35831Y-70431D02*
X35431Y-70431D01*
X35717Y-70531D01*
X35431Y-70631D01*
X35831Y-70631D01*
X35831Y-70774D02*
X35431Y-70774D01*
X35812Y-70902D02*
X35831Y-70945D01*
X35831Y-71017D01*
X35812Y-71045D01*
X35793Y-71060D01*
X35755Y-71074D01*
X35717Y-71074D01*
X35679Y-71060D01*
X35660Y-71045D01*
X35641Y-71017D01*
X35622Y-70960D01*
X35603Y-70931D01*
X35584Y-70917D01*
X35546Y-70902D01*
X35508Y-70902D01*
X35470Y-70917D01*
X35450Y-70931D01*
X35431Y-70960D01*
X35431Y-71031D01*
X35450Y-71074D01*
X35431Y-71160D02*
X35431Y-71331D01*
X35831Y-71245D02*
X35431Y-71245D01*
X35431Y-71488D02*
X35431Y-71545D01*
X35450Y-71574D01*
X35489Y-71602D01*
X35565Y-71617D01*
X35698Y-71617D01*
X35774Y-71602D01*
X35812Y-71574D01*
X35831Y-71545D01*
X35831Y-71488D01*
X35812Y-71460D01*
X35774Y-71431D01*
X35698Y-71417D01*
X35565Y-71417D01*
X35489Y-71431D01*
X35450Y-71460D01*
X35431Y-71488D01*
X35831Y-71917D02*
X35641Y-71817D01*
X35831Y-71745D02*
X35431Y-71745D01*
X35431Y-71860D01*
X35450Y-71888D01*
X35470Y-71902D01*
X35508Y-71917D01*
X35565Y-71917D01*
X35603Y-71902D01*
X35622Y-71888D01*
X35641Y-71860D01*
X35641Y-71745D01*
X34985Y-66755D02*
X34814Y-66755D01*
X34899Y-67155D02*
X34899Y-66755D01*
X34714Y-67155D02*
X34714Y-66755D01*
X34714Y-66946D02*
X34542Y-66946D01*
X34542Y-67155D02*
X34542Y-66755D01*
X34271Y-66889D02*
X34271Y-67155D01*
X34342Y-66736D02*
X34414Y-67022D01*
X34228Y-67022D01*
X35935Y-66161D02*
X35764Y-66161D01*
X35849Y-66561D02*
X35849Y-66161D01*
X35664Y-66561D02*
X35664Y-66161D01*
X35664Y-66352D02*
X35492Y-66352D01*
X35492Y-66561D02*
X35492Y-66161D01*
X35349Y-66352D02*
X35249Y-66352D01*
X35207Y-66561D02*
X35349Y-66561D01*
X35349Y-66161D01*
X35207Y-66161D01*
X34907Y-66561D02*
X35007Y-66371D01*
X35078Y-66561D02*
X35078Y-66161D01*
X34964Y-66161D01*
X34935Y-66180D01*
X34921Y-66200D01*
X34907Y-66238D01*
X34907Y-66295D01*
X34921Y-66333D01*
X34935Y-66352D01*
X34964Y-66371D01*
X35078Y-66371D01*
X34778Y-66561D02*
X34778Y-66161D01*
X34678Y-66447D01*
X34578Y-66161D01*
X34578Y-66561D01*
X34435Y-66561D02*
X34435Y-66161D01*
X34307Y-66542D02*
X34264Y-66561D01*
X34192Y-66561D01*
X34164Y-66542D01*
X34149Y-66523D01*
X34135Y-66485D01*
X34135Y-66447D01*
X34149Y-66409D01*
X34164Y-66390D01*
X34192Y-66371D01*
X34249Y-66352D01*
X34278Y-66333D01*
X34292Y-66314D01*
X34307Y-66276D01*
X34307Y-66238D01*
X34292Y-66200D01*
X34278Y-66180D01*
X34249Y-66161D01*
X34178Y-66161D01*
X34135Y-66180D01*
X34050Y-66161D02*
X33878Y-66161D01*
X33964Y-66561D02*
X33964Y-66161D01*
X33721Y-66161D02*
X33664Y-66161D01*
X33635Y-66180D01*
X33607Y-66219D01*
X33592Y-66295D01*
X33592Y-66428D01*
X33607Y-66504D01*
X33635Y-66542D01*
X33664Y-66561D01*
X33721Y-66561D01*
X33750Y-66542D01*
X33778Y-66504D01*
X33792Y-66428D01*
X33792Y-66295D01*
X33778Y-66219D01*
X33750Y-66180D01*
X33721Y-66161D01*
X33292Y-66561D02*
X33392Y-66371D01*
X33464Y-66561D02*
X33464Y-66161D01*
X33350Y-66161D01*
X33321Y-66180D01*
X33307Y-66200D01*
X33292Y-66238D01*
X33292Y-66295D01*
X33307Y-66333D01*
X33321Y-66352D01*
X33350Y-66371D01*
X33464Y-66371D01*
X38111Y-62704D02*
X38111Y-62572D01*
X37835Y-62572D01*
X38111Y-62940D02*
X38111Y-62782D01*
X38111Y-62861D02*
X37835Y-62861D01*
X37875Y-62835D01*
X37901Y-62809D01*
X37914Y-62782D01*
X37511Y-61848D02*
X37235Y-61848D01*
X37511Y-61979D02*
X37235Y-61979D01*
X37511Y-62137D01*
X37235Y-62137D01*
X37511Y-62268D02*
X37235Y-62268D01*
X37235Y-62334D01*
X37249Y-62373D01*
X37275Y-62399D01*
X37301Y-62412D01*
X37354Y-62425D01*
X37393Y-62425D01*
X37445Y-62412D01*
X37472Y-62399D01*
X37498Y-62373D01*
X37511Y-62334D01*
X37511Y-62268D01*
X37235Y-62544D02*
X37459Y-62544D01*
X37485Y-62557D01*
X37498Y-62570D01*
X37511Y-62596D01*
X37511Y-62649D01*
X37498Y-62675D01*
X37485Y-62688D01*
X37459Y-62701D01*
X37235Y-62701D01*
X37485Y-62990D02*
X37498Y-62977D01*
X37511Y-62937D01*
X37511Y-62911D01*
X37498Y-62872D01*
X37472Y-62845D01*
X37445Y-62832D01*
X37393Y-62819D01*
X37354Y-62819D01*
X37301Y-62832D01*
X37275Y-62845D01*
X37249Y-62872D01*
X37235Y-62911D01*
X37235Y-62937D01*
X37249Y-62977D01*
X37262Y-62990D01*
X37235Y-63069D02*
X37235Y-63226D01*
X37511Y-63147D02*
X37235Y-63147D01*
X37235Y-63370D02*
X37235Y-63423D01*
X37249Y-63449D01*
X37275Y-63475D01*
X37327Y-63488D01*
X37419Y-63488D01*
X37472Y-63475D01*
X37498Y-63449D01*
X37511Y-63423D01*
X37511Y-63370D01*
X37498Y-63344D01*
X37472Y-63318D01*
X37419Y-63305D01*
X37327Y-63305D01*
X37275Y-63318D01*
X37249Y-63344D01*
X37235Y-63370D01*
X37511Y-63764D02*
X37380Y-63672D01*
X37511Y-63607D02*
X37235Y-63607D01*
X37235Y-63712D01*
X37249Y-63738D01*
X37262Y-63751D01*
X37288Y-63764D01*
X37327Y-63764D01*
X37354Y-63751D01*
X37367Y-63738D01*
X37380Y-63712D01*
X37380Y-63607D01*
G54D15*
X40556Y-49109D02*
X40622Y-49015D01*
X40669Y-49109D02*
X40669Y-48912D01*
X40594Y-48912D01*
X40575Y-48922D01*
X40566Y-48931D01*
X40556Y-48950D01*
X40556Y-48978D01*
X40566Y-48997D01*
X40575Y-49006D01*
X40594Y-49015D01*
X40669Y-49015D01*
X40490Y-48912D02*
X40369Y-48912D01*
X40434Y-48987D01*
X40406Y-48987D01*
X40387Y-48997D01*
X40378Y-49006D01*
X40369Y-49025D01*
X40369Y-49072D01*
X40378Y-49090D01*
X40387Y-49100D01*
X40406Y-49109D01*
X40462Y-49109D01*
X40481Y-49100D01*
X40490Y-49090D01*
X40247Y-48912D02*
X40228Y-48912D01*
X40209Y-48922D01*
X40200Y-48931D01*
X40190Y-48950D01*
X40181Y-48987D01*
X40181Y-49034D01*
X40190Y-49072D01*
X40200Y-49090D01*
X40209Y-49100D01*
X40228Y-49109D01*
X40247Y-49109D01*
X40265Y-49100D01*
X40275Y-49090D01*
X40284Y-49072D01*
X40293Y-49034D01*
X40293Y-48987D01*
X40284Y-48950D01*
X40275Y-48931D01*
X40265Y-48922D01*
X40247Y-48912D01*
X40369Y-49384D02*
X40434Y-49290D01*
X40481Y-49384D02*
X40481Y-49187D01*
X40406Y-49187D01*
X40387Y-49197D01*
X40378Y-49206D01*
X40369Y-49225D01*
X40369Y-49253D01*
X40378Y-49272D01*
X40387Y-49281D01*
X40406Y-49290D01*
X40481Y-49290D01*
G54D13*
X37892Y-60150D02*
X37907Y-60135D01*
X37921Y-60092D01*
X37921Y-60064D01*
X37907Y-60021D01*
X37878Y-59992D01*
X37850Y-59978D01*
X37792Y-59964D01*
X37750Y-59964D01*
X37692Y-59978D01*
X37664Y-59992D01*
X37635Y-60021D01*
X37621Y-60064D01*
X37621Y-60092D01*
X37635Y-60135D01*
X37650Y-60150D01*
X37921Y-60435D02*
X37921Y-60264D01*
X37921Y-60350D02*
X37621Y-60350D01*
X37664Y-60321D01*
X37692Y-60292D01*
X37707Y-60264D01*
G54D15*
X73776Y-51485D02*
X73786Y-51495D01*
X73814Y-51504D01*
X73832Y-51504D01*
X73861Y-51495D01*
X73879Y-51476D01*
X73889Y-51457D01*
X73898Y-51420D01*
X73898Y-51392D01*
X73889Y-51354D01*
X73879Y-51335D01*
X73861Y-51317D01*
X73832Y-51307D01*
X73814Y-51307D01*
X73786Y-51317D01*
X73776Y-51326D01*
X73589Y-51504D02*
X73701Y-51504D01*
X73645Y-51504D02*
X73645Y-51307D01*
X73664Y-51335D01*
X73682Y-51354D01*
X73701Y-51364D01*
X73410Y-51307D02*
X73504Y-51307D01*
X73513Y-51401D01*
X73504Y-51392D01*
X73485Y-51382D01*
X73438Y-51382D01*
X73420Y-51392D01*
X73410Y-51401D01*
X73401Y-51420D01*
X73401Y-51467D01*
X73410Y-51485D01*
X73420Y-51495D01*
X73438Y-51504D01*
X73485Y-51504D01*
X73504Y-51495D01*
X73513Y-51485D01*
X73589Y-51210D02*
X73598Y-51220D01*
X73626Y-51229D01*
X73645Y-51229D01*
X73673Y-51220D01*
X73692Y-51201D01*
X73701Y-51182D01*
X73710Y-51145D01*
X73710Y-51117D01*
X73701Y-51079D01*
X73692Y-51060D01*
X73673Y-51042D01*
X73645Y-51032D01*
X73626Y-51032D01*
X73598Y-51042D01*
X73589Y-51051D01*
X67785Y-51173D02*
X67795Y-51163D01*
X67804Y-51135D01*
X67804Y-51117D01*
X67795Y-51088D01*
X67776Y-51070D01*
X67757Y-51060D01*
X67720Y-51051D01*
X67692Y-51051D01*
X67654Y-51060D01*
X67635Y-51070D01*
X67617Y-51088D01*
X67607Y-51117D01*
X67607Y-51135D01*
X67617Y-51163D01*
X67626Y-51173D01*
X67804Y-51360D02*
X67804Y-51248D01*
X67804Y-51304D02*
X67607Y-51304D01*
X67635Y-51285D01*
X67654Y-51267D01*
X67664Y-51248D01*
X67673Y-51529D02*
X67804Y-51529D01*
X67598Y-51482D02*
X67739Y-51436D01*
X67739Y-51557D01*
X68060Y-51360D02*
X68070Y-51351D01*
X68079Y-51323D01*
X68079Y-51304D01*
X68070Y-51276D01*
X68051Y-51257D01*
X68032Y-51248D01*
X67995Y-51239D01*
X67967Y-51239D01*
X67929Y-51248D01*
X67910Y-51257D01*
X67892Y-51276D01*
X67882Y-51304D01*
X67882Y-51323D01*
X67892Y-51351D01*
X67901Y-51360D01*
X66476Y-50935D02*
X66486Y-50945D01*
X66514Y-50954D01*
X66532Y-50954D01*
X66561Y-50945D01*
X66579Y-50926D01*
X66589Y-50907D01*
X66598Y-50870D01*
X66598Y-50842D01*
X66589Y-50804D01*
X66579Y-50785D01*
X66561Y-50767D01*
X66532Y-50757D01*
X66514Y-50757D01*
X66486Y-50767D01*
X66476Y-50776D01*
X66289Y-50954D02*
X66401Y-50954D01*
X66345Y-50954D02*
X66345Y-50757D01*
X66364Y-50785D01*
X66382Y-50804D01*
X66401Y-50814D01*
X66195Y-50954D02*
X66157Y-50954D01*
X66138Y-50945D01*
X66129Y-50935D01*
X66110Y-50907D01*
X66101Y-50870D01*
X66101Y-50795D01*
X66110Y-50776D01*
X66120Y-50767D01*
X66138Y-50757D01*
X66176Y-50757D01*
X66195Y-50767D01*
X66204Y-50776D01*
X66213Y-50795D01*
X66213Y-50842D01*
X66204Y-50860D01*
X66195Y-50870D01*
X66176Y-50879D01*
X66138Y-50879D01*
X66120Y-50870D01*
X66110Y-50860D01*
X66101Y-50842D01*
X66289Y-51210D02*
X66298Y-51220D01*
X66326Y-51229D01*
X66345Y-51229D01*
X66373Y-51220D01*
X66392Y-51201D01*
X66401Y-51182D01*
X66410Y-51145D01*
X66410Y-51117D01*
X66401Y-51079D01*
X66392Y-51060D01*
X66373Y-51042D01*
X66345Y-51032D01*
X66326Y-51032D01*
X66298Y-51042D01*
X66289Y-51051D01*
X73527Y-57433D02*
X73537Y-57423D01*
X73546Y-57395D01*
X73546Y-57377D01*
X73537Y-57348D01*
X73518Y-57330D01*
X73499Y-57320D01*
X73462Y-57311D01*
X73434Y-57311D01*
X73396Y-57320D01*
X73377Y-57330D01*
X73359Y-57348D01*
X73349Y-57377D01*
X73349Y-57395D01*
X73359Y-57423D01*
X73368Y-57433D01*
X73546Y-57620D02*
X73546Y-57508D01*
X73546Y-57564D02*
X73349Y-57564D01*
X73377Y-57545D01*
X73396Y-57527D01*
X73406Y-57508D01*
X73349Y-57789D02*
X73349Y-57752D01*
X73359Y-57733D01*
X73368Y-57724D01*
X73396Y-57705D01*
X73434Y-57696D01*
X73509Y-57696D01*
X73527Y-57705D01*
X73537Y-57714D01*
X73546Y-57733D01*
X73546Y-57771D01*
X73537Y-57789D01*
X73527Y-57799D01*
X73509Y-57808D01*
X73462Y-57808D01*
X73443Y-57799D01*
X73434Y-57789D01*
X73424Y-57771D01*
X73424Y-57733D01*
X73434Y-57714D01*
X73443Y-57705D01*
X73462Y-57696D01*
X73252Y-57620D02*
X73262Y-57611D01*
X73271Y-57583D01*
X73271Y-57564D01*
X73262Y-57536D01*
X73243Y-57517D01*
X73224Y-57508D01*
X73187Y-57499D01*
X73159Y-57499D01*
X73121Y-57508D01*
X73102Y-57517D01*
X73084Y-57536D01*
X73074Y-57564D01*
X73074Y-57583D01*
X73084Y-57611D01*
X73093Y-57620D01*
X72139Y-57459D02*
X72149Y-57449D01*
X72158Y-57421D01*
X72158Y-57403D01*
X72149Y-57374D01*
X72130Y-57356D01*
X72111Y-57346D01*
X72074Y-57337D01*
X72046Y-57337D01*
X72008Y-57346D01*
X71989Y-57356D01*
X71971Y-57374D01*
X71961Y-57403D01*
X71961Y-57421D01*
X71971Y-57449D01*
X71980Y-57459D01*
X72158Y-57646D02*
X72158Y-57534D01*
X72158Y-57590D02*
X71961Y-57590D01*
X71989Y-57571D01*
X72008Y-57553D01*
X72018Y-57534D01*
X71961Y-57712D02*
X71961Y-57843D01*
X72158Y-57759D01*
X72414Y-57646D02*
X72424Y-57637D01*
X72433Y-57609D01*
X72433Y-57590D01*
X72424Y-57562D01*
X72405Y-57543D01*
X72386Y-57534D01*
X72349Y-57525D01*
X72321Y-57525D01*
X72283Y-57534D01*
X72264Y-57543D01*
X72246Y-57562D01*
X72236Y-57590D01*
X72236Y-57609D01*
X72246Y-57637D01*
X72255Y-57646D01*
X73076Y-52385D02*
X73086Y-52395D01*
X73114Y-52404D01*
X73132Y-52404D01*
X73161Y-52395D01*
X73179Y-52376D01*
X73189Y-52357D01*
X73198Y-52320D01*
X73198Y-52292D01*
X73189Y-52254D01*
X73179Y-52235D01*
X73161Y-52217D01*
X73132Y-52207D01*
X73114Y-52207D01*
X73086Y-52217D01*
X73076Y-52226D01*
X72889Y-52404D02*
X73001Y-52404D01*
X72945Y-52404D02*
X72945Y-52207D01*
X72964Y-52235D01*
X72982Y-52254D01*
X73001Y-52264D01*
X72776Y-52292D02*
X72795Y-52282D01*
X72804Y-52273D01*
X72813Y-52254D01*
X72813Y-52245D01*
X72804Y-52226D01*
X72795Y-52217D01*
X72776Y-52207D01*
X72738Y-52207D01*
X72720Y-52217D01*
X72710Y-52226D01*
X72701Y-52245D01*
X72701Y-52254D01*
X72710Y-52273D01*
X72720Y-52282D01*
X72738Y-52292D01*
X72776Y-52292D01*
X72795Y-52301D01*
X72804Y-52310D01*
X72813Y-52329D01*
X72813Y-52367D01*
X72804Y-52385D01*
X72795Y-52395D01*
X72776Y-52404D01*
X72738Y-52404D01*
X72720Y-52395D01*
X72710Y-52385D01*
X72701Y-52367D01*
X72701Y-52329D01*
X72710Y-52310D01*
X72720Y-52301D01*
X72738Y-52292D01*
X72889Y-52110D02*
X72898Y-52120D01*
X72926Y-52129D01*
X72945Y-52129D01*
X72973Y-52120D01*
X72992Y-52101D01*
X73001Y-52082D01*
X73010Y-52045D01*
X73010Y-52017D01*
X73001Y-51979D01*
X72992Y-51960D01*
X72973Y-51942D01*
X72945Y-51932D01*
X72926Y-51932D01*
X72898Y-51942D01*
X72889Y-51951D01*
X86554Y-53973D02*
X86460Y-53907D01*
X86554Y-53860D02*
X86357Y-53860D01*
X86357Y-53935D01*
X86367Y-53954D01*
X86376Y-53963D01*
X86395Y-53973D01*
X86423Y-53973D01*
X86442Y-53963D01*
X86451Y-53954D01*
X86460Y-53935D01*
X86460Y-53860D01*
X86423Y-54142D02*
X86554Y-54142D01*
X86348Y-54095D02*
X86489Y-54048D01*
X86489Y-54170D01*
X86442Y-54273D02*
X86432Y-54254D01*
X86423Y-54245D01*
X86404Y-54236D01*
X86395Y-54236D01*
X86376Y-54245D01*
X86367Y-54254D01*
X86357Y-54273D01*
X86357Y-54311D01*
X86367Y-54329D01*
X86376Y-54339D01*
X86395Y-54348D01*
X86404Y-54348D01*
X86423Y-54339D01*
X86432Y-54329D01*
X86442Y-54311D01*
X86442Y-54273D01*
X86451Y-54254D01*
X86460Y-54245D01*
X86479Y-54236D01*
X86517Y-54236D01*
X86535Y-54245D01*
X86545Y-54254D01*
X86554Y-54273D01*
X86554Y-54311D01*
X86545Y-54329D01*
X86535Y-54339D01*
X86517Y-54348D01*
X86479Y-54348D01*
X86460Y-54339D01*
X86451Y-54329D01*
X86442Y-54311D01*
X86829Y-54160D02*
X86735Y-54095D01*
X86829Y-54048D02*
X86632Y-54048D01*
X86632Y-54123D01*
X86642Y-54142D01*
X86651Y-54151D01*
X86670Y-54160D01*
X86698Y-54160D01*
X86717Y-54151D01*
X86726Y-54142D01*
X86735Y-54123D01*
X86735Y-54048D01*
X84826Y-54904D02*
X84892Y-54810D01*
X84939Y-54904D02*
X84939Y-54707D01*
X84864Y-54707D01*
X84845Y-54717D01*
X84836Y-54726D01*
X84826Y-54745D01*
X84826Y-54773D01*
X84836Y-54792D01*
X84845Y-54801D01*
X84864Y-54810D01*
X84939Y-54810D01*
X84657Y-54773D02*
X84657Y-54904D01*
X84704Y-54698D02*
X84751Y-54839D01*
X84629Y-54839D01*
X84545Y-54904D02*
X84507Y-54904D01*
X84488Y-54895D01*
X84479Y-54885D01*
X84460Y-54857D01*
X84451Y-54820D01*
X84451Y-54745D01*
X84460Y-54726D01*
X84470Y-54717D01*
X84488Y-54707D01*
X84526Y-54707D01*
X84545Y-54717D01*
X84554Y-54726D01*
X84563Y-54745D01*
X84563Y-54792D01*
X84554Y-54810D01*
X84545Y-54820D01*
X84526Y-54829D01*
X84488Y-54829D01*
X84470Y-54820D01*
X84460Y-54810D01*
X84451Y-54792D01*
X84639Y-54629D02*
X84704Y-54535D01*
X84751Y-54629D02*
X84751Y-54432D01*
X84676Y-54432D01*
X84657Y-54442D01*
X84648Y-54451D01*
X84639Y-54470D01*
X84639Y-54498D01*
X84648Y-54517D01*
X84657Y-54526D01*
X84676Y-54535D01*
X84751Y-54535D01*
X80826Y-52754D02*
X80892Y-52660D01*
X80939Y-52754D02*
X80939Y-52557D01*
X80864Y-52557D01*
X80845Y-52567D01*
X80836Y-52576D01*
X80826Y-52595D01*
X80826Y-52623D01*
X80836Y-52642D01*
X80845Y-52651D01*
X80864Y-52660D01*
X80939Y-52660D01*
X80648Y-52557D02*
X80742Y-52557D01*
X80751Y-52651D01*
X80742Y-52642D01*
X80723Y-52632D01*
X80676Y-52632D01*
X80657Y-52642D01*
X80648Y-52651D01*
X80639Y-52670D01*
X80639Y-52717D01*
X80648Y-52735D01*
X80657Y-52745D01*
X80676Y-52754D01*
X80723Y-52754D01*
X80742Y-52745D01*
X80751Y-52735D01*
X80451Y-52754D02*
X80563Y-52754D01*
X80507Y-52754D02*
X80507Y-52557D01*
X80526Y-52585D01*
X80545Y-52604D01*
X80563Y-52614D01*
X80639Y-53029D02*
X80704Y-52935D01*
X80751Y-53029D02*
X80751Y-52832D01*
X80676Y-52832D01*
X80657Y-52842D01*
X80648Y-52851D01*
X80639Y-52870D01*
X80639Y-52898D01*
X80648Y-52917D01*
X80657Y-52926D01*
X80676Y-52935D01*
X80751Y-52935D01*
X81504Y-53973D02*
X81410Y-53907D01*
X81504Y-53860D02*
X81307Y-53860D01*
X81307Y-53935D01*
X81317Y-53954D01*
X81326Y-53963D01*
X81345Y-53973D01*
X81373Y-53973D01*
X81392Y-53963D01*
X81401Y-53954D01*
X81410Y-53935D01*
X81410Y-53860D01*
X81307Y-54151D02*
X81307Y-54057D01*
X81401Y-54048D01*
X81392Y-54057D01*
X81382Y-54076D01*
X81382Y-54123D01*
X81392Y-54142D01*
X81401Y-54151D01*
X81420Y-54160D01*
X81467Y-54160D01*
X81485Y-54151D01*
X81495Y-54142D01*
X81504Y-54123D01*
X81504Y-54076D01*
X81495Y-54057D01*
X81485Y-54048D01*
X81307Y-54282D02*
X81307Y-54301D01*
X81317Y-54320D01*
X81326Y-54329D01*
X81345Y-54339D01*
X81382Y-54348D01*
X81429Y-54348D01*
X81467Y-54339D01*
X81485Y-54329D01*
X81495Y-54320D01*
X81504Y-54301D01*
X81504Y-54282D01*
X81495Y-54264D01*
X81485Y-54254D01*
X81467Y-54245D01*
X81429Y-54236D01*
X81382Y-54236D01*
X81345Y-54245D01*
X81326Y-54254D01*
X81317Y-54264D01*
X81307Y-54282D01*
X81229Y-54160D02*
X81135Y-54095D01*
X81229Y-54048D02*
X81032Y-54048D01*
X81032Y-54123D01*
X81042Y-54142D01*
X81051Y-54151D01*
X81070Y-54160D01*
X81098Y-54160D01*
X81117Y-54151D01*
X81126Y-54142D01*
X81135Y-54123D01*
X81135Y-54048D01*
X66476Y-52104D02*
X66542Y-52010D01*
X66589Y-52104D02*
X66589Y-51907D01*
X66514Y-51907D01*
X66495Y-51917D01*
X66486Y-51926D01*
X66476Y-51945D01*
X66476Y-51973D01*
X66486Y-51992D01*
X66495Y-52001D01*
X66514Y-52010D01*
X66589Y-52010D01*
X66307Y-51973D02*
X66307Y-52104D01*
X66354Y-51898D02*
X66401Y-52039D01*
X66279Y-52039D01*
X66167Y-51907D02*
X66148Y-51907D01*
X66129Y-51917D01*
X66120Y-51926D01*
X66110Y-51945D01*
X66101Y-51982D01*
X66101Y-52029D01*
X66110Y-52067D01*
X66120Y-52085D01*
X66129Y-52095D01*
X66148Y-52104D01*
X66167Y-52104D01*
X66185Y-52095D01*
X66195Y-52085D01*
X66204Y-52067D01*
X66213Y-52029D01*
X66213Y-51982D01*
X66204Y-51945D01*
X66195Y-51926D01*
X66185Y-51917D01*
X66167Y-51907D01*
X66289Y-51829D02*
X66354Y-51735D01*
X66401Y-51829D02*
X66401Y-51632D01*
X66326Y-51632D01*
X66307Y-51642D01*
X66298Y-51651D01*
X66289Y-51670D01*
X66289Y-51698D01*
X66298Y-51717D01*
X66307Y-51726D01*
X66326Y-51735D01*
X66401Y-51735D01*
X65004Y-51473D02*
X64910Y-51407D01*
X65004Y-51360D02*
X64807Y-51360D01*
X64807Y-51435D01*
X64817Y-51454D01*
X64826Y-51463D01*
X64845Y-51473D01*
X64873Y-51473D01*
X64892Y-51463D01*
X64901Y-51454D01*
X64910Y-51435D01*
X64910Y-51360D01*
X64873Y-51642D02*
X65004Y-51642D01*
X64798Y-51595D02*
X64939Y-51548D01*
X64939Y-51670D01*
X65004Y-51848D02*
X65004Y-51736D01*
X65004Y-51792D02*
X64807Y-51792D01*
X64835Y-51773D01*
X64854Y-51754D01*
X64864Y-51736D01*
X65279Y-51660D02*
X65185Y-51595D01*
X65279Y-51548D02*
X65082Y-51548D01*
X65082Y-51623D01*
X65092Y-51642D01*
X65101Y-51651D01*
X65120Y-51660D01*
X65148Y-51660D01*
X65167Y-51651D01*
X65176Y-51642D01*
X65185Y-51623D01*
X65185Y-51548D01*
X70454Y-51773D02*
X70360Y-51707D01*
X70454Y-51660D02*
X70257Y-51660D01*
X70257Y-51735D01*
X70267Y-51754D01*
X70276Y-51763D01*
X70295Y-51773D01*
X70323Y-51773D01*
X70342Y-51763D01*
X70351Y-51754D01*
X70360Y-51735D01*
X70360Y-51660D01*
X70257Y-51839D02*
X70257Y-51960D01*
X70332Y-51895D01*
X70332Y-51923D01*
X70342Y-51942D01*
X70351Y-51951D01*
X70370Y-51960D01*
X70417Y-51960D01*
X70435Y-51951D01*
X70445Y-51942D01*
X70454Y-51923D01*
X70454Y-51867D01*
X70445Y-51848D01*
X70435Y-51839D01*
X70454Y-52054D02*
X70454Y-52092D01*
X70445Y-52111D01*
X70435Y-52120D01*
X70407Y-52139D01*
X70370Y-52148D01*
X70295Y-52148D01*
X70276Y-52139D01*
X70267Y-52129D01*
X70257Y-52111D01*
X70257Y-52073D01*
X70267Y-52054D01*
X70276Y-52045D01*
X70295Y-52036D01*
X70342Y-52036D01*
X70360Y-52045D01*
X70370Y-52054D01*
X70379Y-52073D01*
X70379Y-52111D01*
X70370Y-52129D01*
X70360Y-52139D01*
X70342Y-52148D01*
X70179Y-51960D02*
X70085Y-51895D01*
X70179Y-51848D02*
X69982Y-51848D01*
X69982Y-51923D01*
X69992Y-51942D01*
X70001Y-51951D01*
X70020Y-51960D01*
X70048Y-51960D01*
X70067Y-51951D01*
X70076Y-51942D01*
X70085Y-51923D01*
X70085Y-51848D01*
X71576Y-52154D02*
X71642Y-52060D01*
X71689Y-52154D02*
X71689Y-51957D01*
X71614Y-51957D01*
X71595Y-51967D01*
X71586Y-51976D01*
X71576Y-51995D01*
X71576Y-52023D01*
X71586Y-52042D01*
X71595Y-52051D01*
X71614Y-52060D01*
X71689Y-52060D01*
X71510Y-51957D02*
X71389Y-51957D01*
X71454Y-52032D01*
X71426Y-52032D01*
X71407Y-52042D01*
X71398Y-52051D01*
X71389Y-52070D01*
X71389Y-52117D01*
X71398Y-52135D01*
X71407Y-52145D01*
X71426Y-52154D01*
X71482Y-52154D01*
X71501Y-52145D01*
X71510Y-52135D01*
X71276Y-52042D02*
X71295Y-52032D01*
X71304Y-52023D01*
X71313Y-52004D01*
X71313Y-51995D01*
X71304Y-51976D01*
X71295Y-51967D01*
X71276Y-51957D01*
X71238Y-51957D01*
X71220Y-51967D01*
X71210Y-51976D01*
X71201Y-51995D01*
X71201Y-52004D01*
X71210Y-52023D01*
X71220Y-52032D01*
X71238Y-52042D01*
X71276Y-52042D01*
X71295Y-52051D01*
X71304Y-52060D01*
X71313Y-52079D01*
X71313Y-52117D01*
X71304Y-52135D01*
X71295Y-52145D01*
X71276Y-52154D01*
X71238Y-52154D01*
X71220Y-52145D01*
X71210Y-52135D01*
X71201Y-52117D01*
X71201Y-52079D01*
X71210Y-52060D01*
X71220Y-52051D01*
X71238Y-52042D01*
X71389Y-52429D02*
X71454Y-52335D01*
X71501Y-52429D02*
X71501Y-52232D01*
X71426Y-52232D01*
X71407Y-52242D01*
X71398Y-52251D01*
X71389Y-52270D01*
X71389Y-52298D01*
X71398Y-52317D01*
X71407Y-52326D01*
X71426Y-52335D01*
X71501Y-52335D01*
X71876Y-51154D02*
X71942Y-51060D01*
X71989Y-51154D02*
X71989Y-50957D01*
X71914Y-50957D01*
X71895Y-50967D01*
X71886Y-50976D01*
X71876Y-50995D01*
X71876Y-51023D01*
X71886Y-51042D01*
X71895Y-51051D01*
X71914Y-51060D01*
X71989Y-51060D01*
X71810Y-50957D02*
X71689Y-50957D01*
X71754Y-51032D01*
X71726Y-51032D01*
X71707Y-51042D01*
X71698Y-51051D01*
X71689Y-51070D01*
X71689Y-51117D01*
X71698Y-51135D01*
X71707Y-51145D01*
X71726Y-51154D01*
X71782Y-51154D01*
X71801Y-51145D01*
X71810Y-51135D01*
X71520Y-51023D02*
X71520Y-51154D01*
X71567Y-50948D02*
X71613Y-51089D01*
X71492Y-51089D01*
X71689Y-51429D02*
X71754Y-51335D01*
X71801Y-51429D02*
X71801Y-51232D01*
X71726Y-51232D01*
X71707Y-51242D01*
X71698Y-51251D01*
X71689Y-51270D01*
X71689Y-51298D01*
X71698Y-51317D01*
X71707Y-51326D01*
X71726Y-51335D01*
X71801Y-51335D01*
X64604Y-49673D02*
X64510Y-49607D01*
X64604Y-49560D02*
X64407Y-49560D01*
X64407Y-49635D01*
X64417Y-49654D01*
X64426Y-49663D01*
X64445Y-49673D01*
X64473Y-49673D01*
X64492Y-49663D01*
X64501Y-49654D01*
X64510Y-49635D01*
X64510Y-49560D01*
X64407Y-49739D02*
X64407Y-49860D01*
X64482Y-49795D01*
X64482Y-49823D01*
X64492Y-49842D01*
X64501Y-49851D01*
X64520Y-49860D01*
X64567Y-49860D01*
X64585Y-49851D01*
X64595Y-49842D01*
X64604Y-49823D01*
X64604Y-49767D01*
X64595Y-49748D01*
X64585Y-49739D01*
X64407Y-50029D02*
X64407Y-49992D01*
X64417Y-49973D01*
X64426Y-49964D01*
X64454Y-49945D01*
X64492Y-49936D01*
X64567Y-49936D01*
X64585Y-49945D01*
X64595Y-49954D01*
X64604Y-49973D01*
X64604Y-50011D01*
X64595Y-50029D01*
X64585Y-50039D01*
X64567Y-50048D01*
X64520Y-50048D01*
X64501Y-50039D01*
X64492Y-50029D01*
X64482Y-50011D01*
X64482Y-49973D01*
X64492Y-49954D01*
X64501Y-49945D01*
X64520Y-49936D01*
X64879Y-49860D02*
X64785Y-49795D01*
X64879Y-49748D02*
X64682Y-49748D01*
X64682Y-49823D01*
X64692Y-49842D01*
X64701Y-49851D01*
X64720Y-49860D01*
X64748Y-49860D01*
X64767Y-49851D01*
X64776Y-49842D01*
X64785Y-49823D01*
X64785Y-49748D01*
G54D12*
X60601Y-64406D02*
X60207Y-64406D01*
X60207Y-64500D01*
X60226Y-64556D01*
X60263Y-64594D01*
X60301Y-64612D01*
X60376Y-64631D01*
X60432Y-64631D01*
X60507Y-64612D01*
X60544Y-64594D01*
X60582Y-64556D01*
X60601Y-64500D01*
X60601Y-64406D01*
X60338Y-64969D02*
X60601Y-64969D01*
X60188Y-64875D02*
X60469Y-64781D01*
X60469Y-65025D01*
G54D15*
X87985Y-64442D02*
X87995Y-64432D01*
X88004Y-64404D01*
X88004Y-64385D01*
X87995Y-64357D01*
X87976Y-64338D01*
X87957Y-64329D01*
X87920Y-64320D01*
X87892Y-64320D01*
X87854Y-64329D01*
X87835Y-64338D01*
X87817Y-64357D01*
X87807Y-64385D01*
X87807Y-64404D01*
X87817Y-64432D01*
X87826Y-64442D01*
X87807Y-64620D02*
X87807Y-64526D01*
X87901Y-64517D01*
X87892Y-64526D01*
X87882Y-64545D01*
X87882Y-64592D01*
X87892Y-64611D01*
X87901Y-64620D01*
X87920Y-64629D01*
X87967Y-64629D01*
X87985Y-64620D01*
X87995Y-64611D01*
X88004Y-64592D01*
X88004Y-64545D01*
X87995Y-64526D01*
X87985Y-64517D01*
X88279Y-64442D02*
X88279Y-64329D01*
X88279Y-64385D02*
X88082Y-64385D01*
X88110Y-64367D01*
X88129Y-64348D01*
X88139Y-64329D01*
X88148Y-64611D02*
X88279Y-64611D01*
X88148Y-64526D02*
X88251Y-64526D01*
X88270Y-64535D01*
X88279Y-64554D01*
X88279Y-64582D01*
X88270Y-64601D01*
X88260Y-64611D01*
X76635Y-53873D02*
X76645Y-53863D01*
X76654Y-53835D01*
X76654Y-53817D01*
X76645Y-53788D01*
X76626Y-53770D01*
X76607Y-53760D01*
X76570Y-53751D01*
X76542Y-53751D01*
X76504Y-53760D01*
X76485Y-53770D01*
X76467Y-53788D01*
X76457Y-53817D01*
X76457Y-53835D01*
X76467Y-53863D01*
X76476Y-53873D01*
X76476Y-53948D02*
X76467Y-53957D01*
X76457Y-53976D01*
X76457Y-54023D01*
X76467Y-54042D01*
X76476Y-54051D01*
X76495Y-54060D01*
X76514Y-54060D01*
X76542Y-54051D01*
X76654Y-53939D01*
X76654Y-54060D01*
X76457Y-54182D02*
X76457Y-54201D01*
X76467Y-54220D01*
X76476Y-54229D01*
X76495Y-54239D01*
X76532Y-54248D01*
X76579Y-54248D01*
X76617Y-54239D01*
X76635Y-54229D01*
X76645Y-54220D01*
X76654Y-54201D01*
X76654Y-54182D01*
X76645Y-54164D01*
X76635Y-54154D01*
X76617Y-54145D01*
X76579Y-54136D01*
X76532Y-54136D01*
X76495Y-54145D01*
X76476Y-54154D01*
X76467Y-54164D01*
X76457Y-54182D01*
X76910Y-54060D02*
X76920Y-54051D01*
X76929Y-54023D01*
X76929Y-54004D01*
X76920Y-53976D01*
X76901Y-53957D01*
X76882Y-53948D01*
X76845Y-53939D01*
X76817Y-53939D01*
X76779Y-53948D01*
X76760Y-53957D01*
X76742Y-53976D01*
X76732Y-54004D01*
X76732Y-54023D01*
X76742Y-54051D01*
X76751Y-54060D01*
X83285Y-54673D02*
X83295Y-54663D01*
X83304Y-54635D01*
X83304Y-54617D01*
X83295Y-54588D01*
X83276Y-54570D01*
X83257Y-54560D01*
X83220Y-54551D01*
X83192Y-54551D01*
X83154Y-54560D01*
X83135Y-54570D01*
X83117Y-54588D01*
X83107Y-54617D01*
X83107Y-54635D01*
X83117Y-54663D01*
X83126Y-54673D01*
X83126Y-54748D02*
X83117Y-54757D01*
X83107Y-54776D01*
X83107Y-54823D01*
X83117Y-54842D01*
X83126Y-54851D01*
X83145Y-54860D01*
X83164Y-54860D01*
X83192Y-54851D01*
X83304Y-54739D01*
X83304Y-54860D01*
X83304Y-55048D02*
X83304Y-54936D01*
X83304Y-54992D02*
X83107Y-54992D01*
X83135Y-54973D01*
X83154Y-54954D01*
X83164Y-54936D01*
X83010Y-54860D02*
X83020Y-54851D01*
X83029Y-54823D01*
X83029Y-54804D01*
X83020Y-54776D01*
X83001Y-54757D01*
X82982Y-54748D01*
X82945Y-54739D01*
X82917Y-54739D01*
X82879Y-54748D01*
X82860Y-54757D01*
X82842Y-54776D01*
X82832Y-54804D01*
X82832Y-54823D01*
X82842Y-54851D01*
X82851Y-54860D01*
X59629Y-69373D02*
X59535Y-69307D01*
X59629Y-69260D02*
X59432Y-69260D01*
X59432Y-69335D01*
X59442Y-69354D01*
X59451Y-69363D01*
X59470Y-69373D01*
X59498Y-69373D01*
X59517Y-69363D01*
X59526Y-69354D01*
X59535Y-69335D01*
X59535Y-69260D01*
X59629Y-69560D02*
X59629Y-69448D01*
X59629Y-69504D02*
X59432Y-69504D01*
X59460Y-69485D01*
X59479Y-69467D01*
X59489Y-69448D01*
X59451Y-69636D02*
X59442Y-69645D01*
X59432Y-69664D01*
X59432Y-69711D01*
X59442Y-69729D01*
X59451Y-69739D01*
X59470Y-69748D01*
X59489Y-69748D01*
X59517Y-69739D01*
X59629Y-69626D01*
X59629Y-69748D01*
X58629Y-69373D02*
X58535Y-69307D01*
X58629Y-69260D02*
X58432Y-69260D01*
X58432Y-69335D01*
X58442Y-69354D01*
X58451Y-69363D01*
X58470Y-69373D01*
X58498Y-69373D01*
X58517Y-69363D01*
X58526Y-69354D01*
X58535Y-69335D01*
X58535Y-69260D01*
X58629Y-69560D02*
X58629Y-69448D01*
X58629Y-69504D02*
X58432Y-69504D01*
X58460Y-69485D01*
X58479Y-69467D01*
X58489Y-69448D01*
X58629Y-69748D02*
X58629Y-69636D01*
X58629Y-69692D02*
X58432Y-69692D01*
X58460Y-69673D01*
X58479Y-69654D01*
X58489Y-69636D01*
X57669Y-69373D02*
X57575Y-69307D01*
X57669Y-69260D02*
X57472Y-69260D01*
X57472Y-69335D01*
X57482Y-69354D01*
X57491Y-69363D01*
X57510Y-69373D01*
X57538Y-69373D01*
X57557Y-69363D01*
X57566Y-69354D01*
X57575Y-69335D01*
X57575Y-69260D01*
X57669Y-69560D02*
X57669Y-69448D01*
X57669Y-69504D02*
X57472Y-69504D01*
X57500Y-69485D01*
X57519Y-69467D01*
X57529Y-69448D01*
X57472Y-69682D02*
X57472Y-69701D01*
X57482Y-69720D01*
X57491Y-69729D01*
X57510Y-69739D01*
X57547Y-69748D01*
X57594Y-69748D01*
X57632Y-69739D01*
X57650Y-69729D01*
X57660Y-69720D01*
X57669Y-69701D01*
X57669Y-69682D01*
X57660Y-69664D01*
X57650Y-69654D01*
X57632Y-69645D01*
X57594Y-69636D01*
X57547Y-69636D01*
X57510Y-69645D01*
X57491Y-69654D01*
X57482Y-69664D01*
X57472Y-69682D01*
X56589Y-69487D02*
X56495Y-69421D01*
X56589Y-69374D02*
X56392Y-69374D01*
X56392Y-69449D01*
X56402Y-69468D01*
X56411Y-69477D01*
X56430Y-69487D01*
X56458Y-69487D01*
X56477Y-69477D01*
X56486Y-69468D01*
X56495Y-69449D01*
X56495Y-69374D01*
X56589Y-69580D02*
X56589Y-69618D01*
X56580Y-69637D01*
X56570Y-69646D01*
X56542Y-69665D01*
X56505Y-69674D01*
X56430Y-69674D01*
X56411Y-69665D01*
X56402Y-69656D01*
X56392Y-69637D01*
X56392Y-69599D01*
X56402Y-69580D01*
X56411Y-69571D01*
X56430Y-69562D01*
X56477Y-69562D01*
X56495Y-69571D01*
X56505Y-69580D01*
X56514Y-69599D01*
X56514Y-69637D01*
X56505Y-69656D01*
X56495Y-69665D01*
X56477Y-69674D01*
X54589Y-53923D02*
X54495Y-53857D01*
X54589Y-53810D02*
X54392Y-53810D01*
X54392Y-53885D01*
X54402Y-53904D01*
X54411Y-53913D01*
X54430Y-53923D01*
X54458Y-53923D01*
X54477Y-53913D01*
X54486Y-53904D01*
X54495Y-53885D01*
X54495Y-53810D01*
X54589Y-54110D02*
X54589Y-53998D01*
X54589Y-54054D02*
X54392Y-54054D01*
X54420Y-54035D01*
X54439Y-54017D01*
X54449Y-53998D01*
X54589Y-54204D02*
X54589Y-54242D01*
X54580Y-54261D01*
X54570Y-54270D01*
X54542Y-54289D01*
X54505Y-54298D01*
X54430Y-54298D01*
X54411Y-54289D01*
X54402Y-54279D01*
X54392Y-54261D01*
X54392Y-54223D01*
X54402Y-54204D01*
X54411Y-54195D01*
X54430Y-54186D01*
X54477Y-54186D01*
X54495Y-54195D01*
X54505Y-54204D01*
X54514Y-54223D01*
X54514Y-54261D01*
X54505Y-54279D01*
X54495Y-54289D01*
X54477Y-54298D01*
X52059Y-53903D02*
X51965Y-53837D01*
X52059Y-53790D02*
X51862Y-53790D01*
X51862Y-53865D01*
X51872Y-53884D01*
X51881Y-53893D01*
X51900Y-53903D01*
X51928Y-53903D01*
X51947Y-53893D01*
X51956Y-53884D01*
X51965Y-53865D01*
X51965Y-53790D01*
X52059Y-54090D02*
X52059Y-53978D01*
X52059Y-54034D02*
X51862Y-54034D01*
X51890Y-54015D01*
X51909Y-53997D01*
X51919Y-53978D01*
X51862Y-54156D02*
X51862Y-54287D01*
X52059Y-54203D01*
X53119Y-53893D02*
X53025Y-53827D01*
X53119Y-53780D02*
X52922Y-53780D01*
X52922Y-53855D01*
X52932Y-53874D01*
X52941Y-53883D01*
X52960Y-53893D01*
X52988Y-53893D01*
X53007Y-53883D01*
X53016Y-53874D01*
X53025Y-53855D01*
X53025Y-53780D01*
X53119Y-54080D02*
X53119Y-53968D01*
X53119Y-54024D02*
X52922Y-54024D01*
X52950Y-54005D01*
X52969Y-53987D01*
X52979Y-53968D01*
X53007Y-54193D02*
X52997Y-54174D01*
X52988Y-54165D01*
X52969Y-54156D01*
X52960Y-54156D01*
X52941Y-54165D01*
X52932Y-54174D01*
X52922Y-54193D01*
X52922Y-54231D01*
X52932Y-54249D01*
X52941Y-54259D01*
X52960Y-54268D01*
X52969Y-54268D01*
X52988Y-54259D01*
X52997Y-54249D01*
X53007Y-54231D01*
X53007Y-54193D01*
X53016Y-54174D01*
X53025Y-54165D01*
X53044Y-54156D01*
X53082Y-54156D01*
X53100Y-54165D01*
X53110Y-54174D01*
X53119Y-54193D01*
X53119Y-54231D01*
X53110Y-54249D01*
X53100Y-54259D01*
X53082Y-54268D01*
X53044Y-54268D01*
X53025Y-54259D01*
X53016Y-54249D01*
X53007Y-54231D01*
X56599Y-53923D02*
X56505Y-53857D01*
X56599Y-53810D02*
X56402Y-53810D01*
X56402Y-53885D01*
X56412Y-53904D01*
X56421Y-53913D01*
X56440Y-53923D01*
X56468Y-53923D01*
X56487Y-53913D01*
X56496Y-53904D01*
X56505Y-53885D01*
X56505Y-53810D01*
X56468Y-54092D02*
X56599Y-54092D01*
X56393Y-54045D02*
X56534Y-53998D01*
X56534Y-54120D01*
X56421Y-54186D02*
X56412Y-54195D01*
X56402Y-54214D01*
X56402Y-54261D01*
X56412Y-54279D01*
X56421Y-54289D01*
X56440Y-54298D01*
X56459Y-54298D01*
X56487Y-54289D01*
X56599Y-54176D01*
X56599Y-54298D01*
X51029Y-53903D02*
X50935Y-53837D01*
X51029Y-53790D02*
X50832Y-53790D01*
X50832Y-53865D01*
X50842Y-53884D01*
X50851Y-53893D01*
X50870Y-53903D01*
X50898Y-53903D01*
X50917Y-53893D01*
X50926Y-53884D01*
X50935Y-53865D01*
X50935Y-53790D01*
X51029Y-54090D02*
X51029Y-53978D01*
X51029Y-54034D02*
X50832Y-54034D01*
X50860Y-54015D01*
X50879Y-53997D01*
X50889Y-53978D01*
X50832Y-54259D02*
X50832Y-54222D01*
X50842Y-54203D01*
X50851Y-54194D01*
X50879Y-54175D01*
X50917Y-54166D01*
X50992Y-54166D01*
X51010Y-54175D01*
X51020Y-54184D01*
X51029Y-54203D01*
X51029Y-54241D01*
X51020Y-54259D01*
X51010Y-54269D01*
X50992Y-54278D01*
X50945Y-54278D01*
X50926Y-54269D01*
X50917Y-54259D01*
X50907Y-54241D01*
X50907Y-54203D01*
X50917Y-54184D01*
X50926Y-54175D01*
X50945Y-54166D01*
X89999Y-60923D02*
X89905Y-60857D01*
X89999Y-60810D02*
X89802Y-60810D01*
X89802Y-60885D01*
X89812Y-60904D01*
X89821Y-60913D01*
X89840Y-60923D01*
X89868Y-60923D01*
X89887Y-60913D01*
X89896Y-60904D01*
X89905Y-60885D01*
X89905Y-60810D01*
X89802Y-61101D02*
X89802Y-61007D01*
X89896Y-60998D01*
X89887Y-61007D01*
X89877Y-61026D01*
X89877Y-61073D01*
X89887Y-61092D01*
X89896Y-61101D01*
X89915Y-61110D01*
X89962Y-61110D01*
X89980Y-61101D01*
X89990Y-61092D01*
X89999Y-61073D01*
X89999Y-61026D01*
X89990Y-61007D01*
X89980Y-60998D01*
X89821Y-61186D02*
X89812Y-61195D01*
X89802Y-61214D01*
X89802Y-61261D01*
X89812Y-61279D01*
X89821Y-61289D01*
X89840Y-61298D01*
X89859Y-61298D01*
X89887Y-61289D01*
X89999Y-61176D01*
X89999Y-61298D01*
X90274Y-61110D02*
X90180Y-61045D01*
X90274Y-60998D02*
X90077Y-60998D01*
X90077Y-61073D01*
X90087Y-61092D01*
X90096Y-61101D01*
X90115Y-61110D01*
X90143Y-61110D01*
X90162Y-61101D01*
X90171Y-61092D01*
X90180Y-61073D01*
X90180Y-60998D01*
G54D13*
X87662Y-48972D02*
X87677Y-48987D01*
X87720Y-49001D01*
X87748Y-49001D01*
X87791Y-48987D01*
X87820Y-48958D01*
X87834Y-48930D01*
X87848Y-48872D01*
X87848Y-48830D01*
X87834Y-48772D01*
X87820Y-48744D01*
X87791Y-48715D01*
X87748Y-48701D01*
X87720Y-48701D01*
X87677Y-48715D01*
X87662Y-48730D01*
X87548Y-48730D02*
X87534Y-48715D01*
X87505Y-48701D01*
X87434Y-48701D01*
X87405Y-48715D01*
X87391Y-48730D01*
X87377Y-48758D01*
X87377Y-48787D01*
X87391Y-48830D01*
X87562Y-49001D01*
X87377Y-49001D01*
X87105Y-48701D02*
X87248Y-48701D01*
X87262Y-48844D01*
X87248Y-48830D01*
X87220Y-48815D01*
X87148Y-48815D01*
X87120Y-48830D01*
X87105Y-48844D01*
X87091Y-48872D01*
X87091Y-48944D01*
X87105Y-48972D01*
X87120Y-48987D01*
X87148Y-49001D01*
X87220Y-49001D01*
X87248Y-48987D01*
X87262Y-48972D01*
X87377Y-49372D02*
X87391Y-49387D01*
X87434Y-49401D01*
X87462Y-49401D01*
X87505Y-49387D01*
X87534Y-49358D01*
X87548Y-49330D01*
X87562Y-49272D01*
X87562Y-49230D01*
X87548Y-49172D01*
X87534Y-49144D01*
X87505Y-49115D01*
X87462Y-49101D01*
X87434Y-49101D01*
X87391Y-49115D01*
X87377Y-49130D01*
X87687Y-50472D02*
X87702Y-50487D01*
X87745Y-50501D01*
X87773Y-50501D01*
X87816Y-50487D01*
X87845Y-50458D01*
X87859Y-50430D01*
X87873Y-50372D01*
X87873Y-50330D01*
X87859Y-50272D01*
X87845Y-50244D01*
X87816Y-50215D01*
X87773Y-50201D01*
X87745Y-50201D01*
X87702Y-50215D01*
X87687Y-50230D01*
X87573Y-50230D02*
X87559Y-50215D01*
X87530Y-50201D01*
X87459Y-50201D01*
X87430Y-50215D01*
X87416Y-50230D01*
X87402Y-50258D01*
X87402Y-50287D01*
X87416Y-50330D01*
X87587Y-50501D01*
X87402Y-50501D01*
X87145Y-50301D02*
X87145Y-50501D01*
X87216Y-50187D02*
X87287Y-50401D01*
X87102Y-50401D01*
X87402Y-50872D02*
X87416Y-50887D01*
X87459Y-50901D01*
X87487Y-50901D01*
X87530Y-50887D01*
X87559Y-50858D01*
X87573Y-50830D01*
X87587Y-50772D01*
X87587Y-50730D01*
X87573Y-50672D01*
X87559Y-50644D01*
X87530Y-50615D01*
X87487Y-50601D01*
X87459Y-50601D01*
X87416Y-50615D01*
X87402Y-50630D01*
X88042Y-53762D02*
X88057Y-53747D01*
X88071Y-53705D01*
X88071Y-53676D01*
X88057Y-53633D01*
X88028Y-53605D01*
X88000Y-53590D01*
X87942Y-53576D01*
X87900Y-53576D01*
X87842Y-53590D01*
X87814Y-53605D01*
X87785Y-53633D01*
X87771Y-53676D01*
X87771Y-53705D01*
X87785Y-53747D01*
X87800Y-53762D01*
X87800Y-53876D02*
X87785Y-53890D01*
X87771Y-53919D01*
X87771Y-53990D01*
X87785Y-54019D01*
X87800Y-54033D01*
X87828Y-54047D01*
X87857Y-54047D01*
X87900Y-54033D01*
X88071Y-53862D01*
X88071Y-54047D01*
X87800Y-54162D02*
X87785Y-54176D01*
X87771Y-54205D01*
X87771Y-54276D01*
X87785Y-54305D01*
X87800Y-54319D01*
X87828Y-54333D01*
X87857Y-54333D01*
X87900Y-54319D01*
X88071Y-54147D01*
X88071Y-54333D01*
X87642Y-54047D02*
X87657Y-54033D01*
X87671Y-53990D01*
X87671Y-53962D01*
X87657Y-53919D01*
X87628Y-53890D01*
X87600Y-53876D01*
X87542Y-53862D01*
X87500Y-53862D01*
X87442Y-53876D01*
X87414Y-53890D01*
X87385Y-53919D01*
X87371Y-53962D01*
X87371Y-53990D01*
X87385Y-54033D01*
X87400Y-54047D01*
G54D15*
X67236Y-59115D02*
X67246Y-59125D01*
X67274Y-59134D01*
X67292Y-59134D01*
X67321Y-59125D01*
X67339Y-59106D01*
X67349Y-59087D01*
X67358Y-59050D01*
X67358Y-59022D01*
X67349Y-58984D01*
X67339Y-58965D01*
X67321Y-58947D01*
X67292Y-58937D01*
X67274Y-58937D01*
X67246Y-58947D01*
X67236Y-58956D01*
X67161Y-58956D02*
X67152Y-58947D01*
X67133Y-58937D01*
X67086Y-58937D01*
X67067Y-58947D01*
X67058Y-58956D01*
X67049Y-58975D01*
X67049Y-58994D01*
X67058Y-59022D01*
X67170Y-59134D01*
X67049Y-59134D01*
X66880Y-58937D02*
X66917Y-58937D01*
X66936Y-58947D01*
X66945Y-58956D01*
X66964Y-58984D01*
X66973Y-59022D01*
X66973Y-59097D01*
X66964Y-59115D01*
X66955Y-59125D01*
X66936Y-59134D01*
X66898Y-59134D01*
X66880Y-59125D01*
X66870Y-59115D01*
X66861Y-59097D01*
X66861Y-59050D01*
X66870Y-59031D01*
X66880Y-59022D01*
X66898Y-59012D01*
X66936Y-59012D01*
X66955Y-59022D01*
X66964Y-59031D01*
X66973Y-59050D01*
X67049Y-58840D02*
X67058Y-58850D01*
X67086Y-58859D01*
X67105Y-58859D01*
X67133Y-58850D01*
X67152Y-58831D01*
X67161Y-58812D01*
X67170Y-58775D01*
X67170Y-58747D01*
X67161Y-58709D01*
X67152Y-58690D01*
X67133Y-58672D01*
X67105Y-58662D01*
X67086Y-58662D01*
X67058Y-58672D01*
X67049Y-58681D01*
X66036Y-56055D02*
X66046Y-56065D01*
X66074Y-56074D01*
X66092Y-56074D01*
X66121Y-56065D01*
X66139Y-56046D01*
X66149Y-56027D01*
X66158Y-55990D01*
X66158Y-55962D01*
X66149Y-55924D01*
X66139Y-55905D01*
X66121Y-55887D01*
X66092Y-55877D01*
X66074Y-55877D01*
X66046Y-55887D01*
X66036Y-55896D01*
X65961Y-55896D02*
X65952Y-55887D01*
X65933Y-55877D01*
X65886Y-55877D01*
X65867Y-55887D01*
X65858Y-55896D01*
X65849Y-55915D01*
X65849Y-55934D01*
X65858Y-55962D01*
X65970Y-56074D01*
X65849Y-56074D01*
X65783Y-55877D02*
X65652Y-55877D01*
X65736Y-56074D01*
X65849Y-56330D02*
X65858Y-56340D01*
X65886Y-56349D01*
X65905Y-56349D01*
X65933Y-56340D01*
X65952Y-56321D01*
X65961Y-56302D01*
X65970Y-56265D01*
X65970Y-56237D01*
X65961Y-56199D01*
X65952Y-56180D01*
X65933Y-56162D01*
X65905Y-56152D01*
X65886Y-56152D01*
X65858Y-56162D01*
X65849Y-56171D01*
M02*
